// Created by Crowbar 0.74
version 1
nodes
  0 "weapon_bone" -1
  1 "hose_0_L" 0
  2 "hose_1_L" 0
  3 "hose_2_L" 0
  4 "hose_3_L" 0
  5 "hose_0_R" 0
  6 "hose_1_R" 0
  7 "hose_2_R" 0
  8 "hose_3_R" 0
end
skeleton
  time 0
    0 0.000000 0.000000 0.000000 1.570792 0.000005 -0.000005
    1 4.366010 5.990406 0.394966 0.000000 0.000000 0.000000
    2 11.677190 14.404770 0.394966 0.000000 0.000000 0.000000
    3 18.999762 6.319963 0.394966 0.000000 0.000000 0.000000
    4 15.882203 -1.510560 0.394966 0.000000 0.000000 0.000000
    5 1.842725 5.990410 0.394966 -3.141593 0.000000 0.000000
    6 -5.468465 14.404800 0.394966 -3.141593 0.000000 0.000000
    7 -12.791065 6.319960 0.394966 -3.141593 0.000000 0.000000
    8 -9.673466 -1.510560 0.394966 -3.141593 0.000000 0.000000
  time 1
    0 0.000000 0.000000 0.000000 1.570792 0.000005 -0.000005
    1 4.366010 5.990406 0.394966 0.000000 0.000000 0.000000
    2 11.677190 14.404770 0.394966 0.000000 0.000000 0.000000
    3 18.999762 6.319963 0.394966 0.000000 0.000000 0.000000
    4 15.882203 -1.510560 0.394966 0.000000 0.000000 0.000000
    5 1.842725 5.990410 0.394966 -3.141593 0.000000 0.000000
    6 -5.468465 14.404800 0.394966 -3.141593 0.000000 0.000000
    7 -12.791065 6.319960 0.394966 -3.141593 0.000000 0.000000
    8 -9.673466 -1.510560 0.394966 -3.141593 0.000000 0.000000
  time 2
    0 0.000000 0.000000 0.000000 1.570792 0.000005 -0.000005
    1 4.366010 5.990406 0.394966 0.000000 0.000000 0.000000
    2 11.677190 14.404770 0.394966 0.000000 0.000000 0.000000
    3 18.999762 6.319963 0.394966 0.000000 0.000000 0.000000
    4 15.882203 -1.510560 0.394966 0.000000 0.000000 0.000000
    5 1.842725 5.990410 0.394966 -3.141593 0.000000 0.000000
    6 -5.468465 14.404800 0.394966 -3.141593 0.000000 0.000000
    7 -12.791065 6.319960 0.394966 -3.141593 0.000000 0.000000
    8 -9.673466 -1.510560 0.394966 -3.141593 0.000000 0.000000
  time 3
    0 0.000000 0.000000 0.000000 1.570792 0.000005 -0.000005
    1 4.366010 5.990406 0.394966 0.000000 0.000000 0.000000
    2 11.677190 14.404770 0.394966 0.000000 0.000000 0.000000
    3 18.999762 6.319963 0.394966 0.000000 0.000000 0.000000
    4 15.882203 -1.510560 0.394966 0.000000 0.000000 0.000000
    5 1.842725 5.990410 0.394966 -3.141593 0.000000 0.000000
    6 -5.468465 14.404800 0.394966 -3.141593 0.000000 0.000000
    7 -12.791065 6.319960 0.394966 -3.141593 0.000000 0.000000
    8 -9.673466 -1.510560 0.394966 -3.141593 0.000000 0.000000
  time 4
    0 0.000000 0.000000 0.000000 1.570792 0.000005 -0.000005
    1 4.366010 5.990406 0.394966 0.000000 0.000000 0.000000
    2 11.677190 14.404770 0.394966 0.000000 0.000000 0.000000
    3 18.999762 6.319963 0.394966 0.000000 0.000000 0.000000
    4 15.882203 -1.510560 0.394966 0.000000 0.000000 0.000000
    5 1.842725 5.990410 0.394966 -3.141593 0.000000 0.000000
    6 -5.468465 14.404800 0.394966 -3.141593 0.000000 0.000000
    7 -12.791065 6.319960 0.394966 -3.141593 0.000000 0.000000
    8 -9.673466 -1.510560 0.394966 -3.141593 0.000000 0.000000
  time 5
    0 0.000000 0.000000 0.000000 1.570792 0.000005 -0.000005
    1 4.366010 5.990406 0.394966 0.000000 0.000000 0.000000
    2 11.677190 14.404770 0.394966 0.000000 0.000000 0.000000
    3 18.999762 6.319963 0.394966 0.000000 0.000000 0.000000
    4 15.882203 -1.510560 0.394966 0.000000 0.000000 0.000000
    5 1.842725 5.990410 0.394966 -3.141593 0.000000 0.000000
    6 -5.468465 14.404800 0.394966 -3.141593 0.000000 0.000000
    7 -12.791065 6.319960 0.394966 -3.141593 0.000000 0.000000
    8 -9.673466 -1.510560 0.394966 -3.141593 0.000000 0.000000
  time 6
    0 0.000000 0.000000 0.000000 1.570792 0.000005 -0.000005
    1 4.366010 5.990406 0.394966 0.000000 0.000000 0.000000
    2 11.677190 14.404770 0.394966 0.000000 0.000000 0.000000
    3 18.999762 6.319963 0.394966 0.000000 0.000000 0.000000
    4 15.882203 -1.510560 0.394966 0.000000 0.000000 0.000000
    5 1.842725 5.990410 0.394966 -3.141593 0.000000 0.000000
    6 -5.468465 14.404800 0.394966 -3.141593 0.000000 0.000000
    7 -12.791065 6.319960 0.394966 -3.141593 0.000000 0.000000
    8 -9.673466 -1.510560 0.394966 -3.141593 0.000000 0.000000
  time 7
    0 0.000000 0.000000 0.000000 1.570792 0.000005 -0.000005
    1 4.366010 5.990406 0.394966 0.000000 0.000000 0.000000
    2 11.677190 14.404770 0.394966 0.000000 0.000000 0.000000
    3 18.999762 6.319963 0.394966 0.000000 0.000000 0.000000
    4 15.882203 -1.510560 0.394966 0.000000 0.000000 0.000000
    5 1.842725 5.990410 0.394966 -3.141593 0.000000 0.000000
    6 -5.468465 14.404800 0.394966 -3.141593 0.000000 0.000000
    7 -12.791065 6.319960 0.394966 -3.141593 0.000000 0.000000
    8 -9.673466 -1.510560 0.394966 -3.141593 0.000000 0.000000
  time 8
    0 0.000000 0.000000 0.000000 1.570792 0.000005 -0.000005
    1 4.366010 5.990406 0.394966 0.000000 0.000000 0.000000
    2 11.677190 14.404770 0.394966 0.000000 0.000000 0.000000
    3 18.999762 6.319963 0.394966 0.000000 0.000000 0.000000
    4 15.882203 -1.510560 0.394966 0.000000 0.000000 0.000000
    5 1.842725 5.990410 0.394966 -3.141593 0.000000 0.000000
    6 -5.468465 14.404800 0.394966 -3.141593 0.000000 0.000000
    7 -12.791065 6.319960 0.394966 -3.141593 0.000000 0.000000
    8 -9.673466 -1.510560 0.394966 -3.141593 0.000000 0.000000
  time 9
    0 0.000000 0.000000 0.000000 1.570792 0.000005 -0.000005
    1 4.366010 5.990406 0.394966 0.000000 0.000000 0.000000
    2 11.677190 14.404770 0.394966 0.000000 0.000000 0.000000
    3 18.999762 6.319963 0.394966 0.000000 0.000000 0.000000
    4 15.882203 -1.510560 0.394966 0.000000 0.000000 0.000000
    5 1.842725 5.990410 0.394966 -3.141593 0.000000 0.000000
    6 -5.468465 14.404800 0.394966 -3.141593 0.000000 0.000000
    7 -12.791065 6.319960 0.394966 -3.141593 0.000000 0.000000
    8 -9.673466 -1.510560 0.394966 -3.141593 0.000000 0.000000
  time 10
    0 0.000000 0.000000 0.000000 1.570792 0.000005 -0.000005
    1 4.366010 5.990406 0.394966 0.000000 0.000000 0.000000
    2 11.677190 14.404770 0.394966 0.000000 0.000000 0.000000
    3 18.999762 6.319963 0.394966 0.000000 0.000000 0.000000
    4 15.882203 -1.510560 0.394966 0.000000 0.000000 0.000000
    5 1.842725 5.990410 0.394966 -3.141593 0.000000 0.000000
    6 -5.468465 14.404800 0.394966 -3.141593 0.000000 0.000000
    7 -12.791065 6.319960 0.394966 -3.141593 0.000000 0.000000
    8 -9.673466 -1.510560 0.394966 -3.141593 0.000000 0.000000
  time 11
    0 0.000000 0.000000 0.000000 1.570792 0.000005 -0.000005
    1 4.366010 5.990406 0.394966 0.000000 0.000000 0.000000
    2 11.677190 14.404770 0.394966 0.000000 0.000000 0.000000
    3 18.999762 6.319963 0.394966 0.000000 0.000000 0.000000
    4 15.882203 -1.510560 0.394966 0.000000 0.000000 0.000000
    5 1.842725 5.990410 0.394966 -3.141593 0.000000 0.000000
    6 -5.468465 14.404800 0.394966 -3.141593 0.000000 0.000000
    7 -12.791065 6.319960 0.394966 -3.141593 0.000000 0.000000
    8 -9.673466 -1.510560 0.394966 -3.141593 0.000000 0.000000
  time 12
    0 0.000000 0.000000 0.000000 1.570792 0.000005 -0.000005
    1 4.366010 5.990406 0.394966 0.000000 0.000000 0.000000
    2 11.677190 14.404770 0.394966 0.000000 0.000000 0.000000
    3 18.999762 6.319963 0.394966 0.000000 0.000000 0.000000
    4 15.882203 -1.510560 0.394966 0.000000 0.000000 0.000000
    5 1.842725 5.990410 0.394966 -3.141593 0.000000 0.000000
    6 -5.468465 14.404800 0.394966 -3.141593 0.000000 0.000000
    7 -12.791065 6.319960 0.394966 -3.141593 0.000000 0.000000
    8 -9.673466 -1.510560 0.394966 -3.141593 0.000000 0.000000
  time 13
    0 0.000000 0.000000 0.000000 1.570792 0.000005 -0.000005
    1 4.366010 5.990406 0.394966 0.000000 0.000000 0.000000
    2 11.677190 14.404770 0.394966 0.000000 0.000000 0.000000
    3 18.999762 6.319963 0.394966 0.000000 0.000000 0.000000
    4 15.882203 -1.510560 0.394966 0.000000 0.000000 0.000000
    5 1.842725 5.990410 0.394966 -3.141593 0.000000 0.000000
    6 -5.468465 14.404800 0.394966 -3.141593 0.000000 0.000000
    7 -12.791065 6.319960 0.394966 -3.141593 0.000000 0.000000
    8 -9.673466 -1.510560 0.394966 -3.141593 0.000000 0.000000
  time 14
    0 0.000000 0.000000 0.000000 1.570792 0.000005 -0.000005
    1 4.366010 5.990406 0.394966 0.000000 0.000000 0.000000
    2 11.677190 14.404770 0.394966 0.000000 0.000000 0.000000
    3 18.999762 6.319963 0.394966 0.000000 0.000000 0.000000
    4 15.882203 -1.510560 0.394966 0.000000 0.000000 0.000000
    5 1.842725 5.990410 0.394966 -3.141593 0.000000 0.000000
    6 -5.468465 14.404800 0.394966 -3.141593 0.000000 0.000000
    7 -12.791065 6.319960 0.394966 -3.141593 0.000000 0.000000
    8 -9.673466 -1.510560 0.394966 -3.141593 0.000000 0.000000
  time 15
    0 0.000000 0.000000 0.000000 1.570792 0.000005 -0.000005
    1 4.366010 5.990406 0.394966 0.000000 0.000000 0.000000
    2 11.677190 14.404770 0.394966 0.000000 0.000000 0.000000
    3 18.999762 6.319963 0.394966 0.000000 0.000000 0.000000
    4 15.882203 -1.510560 0.394966 0.000000 0.000000 0.000000
    5 1.842725 5.990410 0.394966 -3.141593 0.000000 0.000000
    6 -5.468465 14.404800 0.394966 -3.141593 0.000000 0.000000
    7 -12.791065 6.319960 0.394966 -3.141593 0.000000 0.000000
    8 -9.673466 -1.510560 0.394966 -3.141593 0.000000 0.000000
  time 16
    0 0.000000 0.000000 0.000000 1.570792 0.000005 -0.000005
    1 4.366010 5.990406 0.394966 0.000000 0.000000 0.000000
    2 11.677190 14.404770 0.394966 0.000000 0.000000 0.000000
    3 18.999762 6.319963 0.394966 0.000000 0.000000 0.000000
    4 15.882203 -1.510560 0.394966 0.000000 0.000000 0.000000
    5 1.842725 5.990410 0.394966 -3.141593 0.000000 0.000000
    6 -5.468465 14.404800 0.394966 -3.141593 0.000000 0.000000
    7 -12.791065 6.319960 0.394966 -3.141593 0.000000 0.000000
    8 -9.673466 -1.510560 0.394966 -3.141593 0.000000 0.000000
  time 17
    0 0.000000 0.000000 0.000000 1.570792 0.000005 -0.000005
    1 4.366010 5.990406 0.394966 0.000000 0.000000 0.000000
    2 11.677190 14.404770 0.394966 0.000000 0.000000 0.000000
    3 18.999762 6.319963 0.394966 0.000000 0.000000 0.000000
    4 15.882203 -1.510560 0.394966 0.000000 0.000000 0.000000
    5 1.842725 5.990410 0.394966 -3.141593 0.000000 0.000000
    6 -5.468465 14.404800 0.394966 -3.141593 0.000000 0.000000
    7 -12.791065 6.319960 0.394966 -3.141593 0.000000 0.000000
    8 -9.673466 -1.510560 0.394966 -3.141593 0.000000 0.000000
  time 18
    0 0.000000 0.000000 0.000000 1.570792 0.000005 -0.000005
    1 4.366010 5.990406 0.394966 0.000000 0.000000 0.000000
    2 11.677190 14.404770 0.394966 0.000000 0.000000 0.000000
    3 18.999762 6.319963 0.394966 0.000000 0.000000 0.000000
    4 15.882203 -1.510560 0.394966 0.000000 0.000000 0.000000
    5 1.842725 5.990410 0.394966 -3.141593 0.000000 0.000000
    6 -5.468465 14.404800 0.394966 -3.141593 0.000000 0.000000
    7 -12.791065 6.319960 0.394966 -3.141593 0.000000 0.000000
    8 -9.673466 -1.510560 0.394966 -3.141593 0.000000 0.000000
  time 19
    0 0.000000 0.000000 0.000000 1.570792 0.000005 -0.000005
    1 4.366010 5.990406 0.394966 0.000000 0.000000 0.000000
    2 11.677190 14.404770 0.394966 0.000000 0.000000 0.000000
    3 18.999762 6.319963 0.394966 0.000000 0.000000 0.000000
    4 15.882203 -1.510560 0.394966 0.000000 0.000000 0.000000
    5 1.842725 5.990410 0.394966 -3.141593 0.000000 0.000000
    6 -5.468465 14.404800 0.394966 -3.141593 0.000000 0.000000
    7 -12.791065 6.319960 0.394966 -3.141593 0.000000 0.000000
    8 -9.673466 -1.510560 0.394966 -3.141593 0.000000 0.000000
  time 20
    0 0.000000 0.000000 0.000000 1.570792 0.000005 -0.000005
    1 4.366010 5.990406 0.394966 0.000000 0.000000 0.000000
    2 11.677190 14.404770 0.394966 0.000000 0.000000 0.000000
    3 18.999762 6.319963 0.394966 0.000000 0.000000 0.000000
    4 15.882203 -1.510560 0.394966 0.000000 0.000000 0.000000
    5 1.842725 5.990410 0.394966 -3.141593 0.000000 0.000000
    6 -5.468465 14.404800 0.394966 -3.141593 0.000000 0.000000
    7 -12.791065 6.319960 0.394966 -3.141593 0.000000 0.000000
    8 -9.673466 -1.510560 0.394966 -3.141593 0.000000 0.000000
  time 21
    0 0.000000 0.000000 0.000000 1.570792 0.000005 -0.000005
    1 4.366010 5.990406 0.394966 0.000000 0.000000 0.000000
    2 11.677190 14.404770 0.394966 0.000000 0.000000 0.000000
    3 18.999762 6.319963 0.394966 0.000000 0.000000 0.000000
    4 15.882203 -1.510560 0.394966 0.000000 0.000000 0.000000
    5 1.842725 5.990410 0.394966 -3.141593 0.000000 0.000000
    6 -5.468465 14.404800 0.394966 -3.141593 0.000000 0.000000
    7 -12.791065 6.319960 0.394966 -3.141593 0.000000 0.000000
    8 -9.673466 -1.510560 0.394966 -3.141593 0.000000 0.000000
  time 22
    0 0.000000 0.000000 0.000000 1.570792 0.000005 -0.000005
    1 4.366010 5.990406 0.394966 0.000000 0.000000 0.000000
    2 11.677190 14.404770 0.394966 0.000000 0.000000 0.000000
    3 18.999762 6.319963 0.394966 0.000000 0.000000 0.000000
    4 15.882203 -1.510560 0.394966 0.000000 0.000000 0.000000
    5 1.842725 5.990410 0.394966 -3.141593 0.000000 0.000000
    6 -5.468465 14.404800 0.394966 -3.141593 0.000000 0.000000
    7 -12.791065 6.319960 0.394966 -3.141593 0.000000 0.000000
    8 -9.673466 -1.510560 0.394966 -3.141593 0.000000 0.000000
  time 23
    0 0.000000 0.000000 0.000000 1.570792 0.000005 -0.000005
    1 4.366010 5.990406 0.394966 0.000000 0.000000 0.000000
    2 11.677190 14.404770 0.394966 0.000000 0.000000 0.000000
    3 18.999762 6.319963 0.394966 0.000000 0.000000 0.000000
    4 15.882203 -1.510560 0.394966 0.000000 0.000000 0.000000
    5 1.842725 5.990410 0.394966 -3.141593 0.000000 0.000000
    6 -5.468465 14.404800 0.394966 -3.141593 0.000000 0.000000
    7 -12.791065 6.319960 0.394966 -3.141593 0.000000 0.000000
    8 -9.673466 -1.510560 0.394966 -3.141593 0.000000 0.000000
  time 24
    0 0.000000 0.000000 0.000000 1.570792 0.000005 -0.000005
    1 4.366010 5.990406 0.394966 0.000000 0.000000 0.000000
    2 11.677190 14.404770 0.394966 0.000000 0.000000 0.000000
    3 18.999762 6.319963 0.394966 0.000000 0.000000 0.000000
    4 15.882203 -1.510560 0.394966 0.000000 0.000000 0.000000
    5 1.842725 5.990410 0.394966 -3.141593 0.000000 0.000000
    6 -5.468465 14.404800 0.394966 -3.141593 0.000000 0.000000
    7 -12.791065 6.319960 0.394966 -3.141593 0.000000 0.000000
    8 -9.673466 -1.510560 0.394966 -3.141593 0.000000 0.000000
  time 25
    0 0.000000 0.000000 0.000000 1.570792 0.000005 -0.000005
    1 4.366010 5.990406 0.394966 0.000000 0.000000 0.000000
    2 11.677190 14.404770 0.394966 0.000000 0.000000 0.000000
    3 18.999762 6.319963 0.394966 0.000000 0.000000 0.000000
    4 15.882203 -1.510560 0.394966 0.000000 0.000000 0.000000
    5 1.842725 5.990410 0.394966 -3.141593 0.000000 0.000000
    6 -5.468465 14.404800 0.394966 -3.141593 0.000000 0.000000
    7 -12.791065 6.319960 0.394966 -3.141593 0.000000 0.000000
    8 -9.673466 -1.510560 0.394966 -3.141593 0.000000 0.000000
  time 26
    0 0.000000 0.000000 0.000000 1.570792 0.000005 -0.000005
    1 4.366010 5.990406 0.394966 0.000000 0.000000 0.000000
    2 11.677190 14.404770 0.394966 0.000000 0.000000 0.000000
    3 18.999762 6.319963 0.394966 0.000000 0.000000 0.000000
    4 15.882203 -1.510560 0.394966 0.000000 0.000000 0.000000
    5 1.842725 5.990410 0.394966 -3.141593 0.000000 0.000000
    6 -5.468465 14.404800 0.394966 -3.141593 0.000000 0.000000
    7 -12.791065 6.319960 0.394966 -3.141593 0.000000 0.000000
    8 -9.673466 -1.510560 0.394966 -3.141593 0.000000 0.000000
  time 27
    0 0.000000 0.000000 0.000000 1.570792 0.000005 -0.000005
    1 4.366010 5.990406 0.394966 0.000000 0.000000 0.000000
    2 11.677190 14.404770 0.394966 0.000000 0.000000 0.000000
    3 18.999762 6.319963 0.394966 0.000000 0.000000 0.000000
    4 15.882203 -1.510560 0.394966 0.000000 0.000000 0.000000
    5 1.842725 5.990410 0.394966 -3.141593 0.000000 0.000000
    6 -5.468465 14.404800 0.394966 -3.141593 0.000000 0.000000
    7 -12.791065 6.319960 0.394966 -3.141593 0.000000 0.000000
    8 -9.673466 -1.510560 0.394966 -3.141593 0.000000 0.000000
  time 28
    0 0.000000 0.000000 0.000000 1.570792 0.000005 -0.000005
    1 4.366010 5.990406 0.394966 0.000000 0.000000 0.000000
    2 11.677190 14.404770 0.394966 0.000000 0.000000 0.000000
    3 18.999762 6.319963 0.394966 0.000000 0.000000 0.000000
    4 15.882203 -1.510560 0.394966 0.000000 0.000000 0.000000
    5 1.842725 5.990410 0.394966 -3.141593 0.000000 0.000000
    6 -5.468465 14.404800 0.394966 -3.141593 0.000000 0.000000
    7 -12.791065 6.319960 0.394966 -3.141593 0.000000 0.000000
    8 -9.673466 -1.510560 0.394966 -3.141593 0.000000 0.000000
  time 29
    0 0.000000 0.000000 0.000000 1.570792 0.000005 -0.000005
    1 4.366010 5.990406 0.394966 0.000000 0.000000 0.000000
    2 11.677190 14.404770 0.394966 0.000000 0.000000 0.000000
    3 18.999762 6.319963 0.394966 0.000000 0.000000 0.000000
    4 15.882203 -1.510560 0.394966 0.000000 0.000000 0.000000
    5 1.842725 5.990410 0.394966 -3.141593 0.000000 0.000000
    6 -5.468465 14.404800 0.394966 -3.141593 0.000000 0.000000
    7 -12.791065 6.319960 0.394966 -3.141593 0.000000 0.000000
    8 -9.673466 -1.510560 0.394966 -3.141593 0.000000 0.000000
end
