// Created by Crowbar 0.74
version 1
nodes
  0 "bip_hand_R" -1
  1 "bip_index_0_R" 0
  2 "bip_index_1_R" 1
  3 "bip_middle_0_R" 0
  4 "bip_middle_1_R" 3
  5 "bip_ring_0_R" 0
  6 "bip_ring_1_R" 5
  7 "bip_pinky_0_R" 0
  8 "bip_pinky_1_R" 7
end
skeleton
  time 0
    0 4.265587 -0.252069 -2.389126 2.481864 0.163837 -2.107105
    1 -0.197672 4.588387 -1.328862 3.098129 1.033214 2.711679
    2 0.000006 1.754607 0.000069 0.662891 0.000012 0.000001
    3 0.377020 4.207312 -0.246655 3.138599 0.907278 2.698486
    4 0.000071 2.372336 -0.000014 0.722085 0.000002 -0.000004
    5 1.171032 3.857112 0.740714 -3.075256 0.814878 2.707760
    6 0.000010 1.690670 0.000034 0.491543 -0.000001 0.000004
    7 1.966102 3.398149 1.547484 -3.087068 0.764272 2.641553
    8 -0.000039 1.437794 -0.000008 0.424955 -0.000010 0.000003
  time 1
    0 4.265587 -0.252069 -2.389126 2.481864 0.163837 -2.107105
    1 -0.197672 4.588387 -1.328862 3.098129 1.033214 2.711679
    2 0.000006 1.754607 0.000069 0.662891 0.000012 0.000001
    3 0.377020 4.207312 -0.246655 3.138599 0.907278 2.698486
    4 0.000071 2.372336 -0.000014 0.722085 0.000002 -0.000004
    5 1.171032 3.857112 0.740714 -3.075256 0.814878 2.707760
    6 0.000010 1.690670 0.000034 0.491543 -0.000001 0.000004
    7 1.966102 3.398149 1.547484 -3.087068 0.764272 2.641553
    8 -0.000039 1.437794 -0.000008 0.424955 -0.000010 0.000003
end
