// Created by Crowbar 0.74
version 1
nodes
  0 "weapon_bone" -1
end
skeleton
  time 0
    0 0.025223 0.000000 -0.022568 1.570784 0.000012 -0.000012
  time 1
    0 0.025223 0.000000 -0.022568 1.570784 0.000012 -0.000012
  time 2
    0 0.025223 0.000000 -0.022568 1.570784 0.000012 -0.000012
  time 3
    0 0.025223 0.000000 -0.022568 1.570784 0.000012 -0.000012
  time 4
    0 0.025223 0.000000 -0.022568 1.570784 0.000012 -0.000012
  time 5
    0 0.025223 0.000000 -0.022568 1.570784 0.000012 -0.000012
  time 6
    0 0.025223 0.000000 -0.022568 1.570784 0.000012 -0.000012
  time 7
    0 0.025223 0.000000 -0.022568 1.570784 0.000012 -0.000012
  time 8
    0 0.025223 0.000000 -0.022568 1.570784 0.000012 -0.000012
  time 9
    0 0.025223 0.000000 -0.022568 1.570784 0.000012 -0.000012
  time 10
    0 0.025223 0.000000 -0.022568 1.570784 0.000012 -0.000012
  time 11
    0 0.025223 0.000000 -0.022568 1.570784 0.000012 -0.000012
  time 12
    0 0.025223 0.000000 -0.022568 1.570784 0.000012 -0.000012
  time 13
    0 0.025223 0.000000 -0.022568 1.570784 0.000012 -0.000012
  time 14
    0 0.025223 0.000000 -0.022568 1.570784 0.000012 -0.000012
  time 15
    0 0.025223 0.000000 -0.022568 1.570784 0.000012 -0.000012
  time 16
    0 0.025223 0.000000 -0.022568 1.570784 0.000012 -0.000012
  time 17
    0 0.025223 0.000000 -0.022568 1.570784 0.000012 -0.000012
  time 18
    0 0.025223 0.000000 -0.022568 1.570784 0.000012 -0.000012
  time 19
    0 0.025223 0.000000 -0.022568 1.570784 0.000012 -0.000012
  time 20
    0 0.025223 0.000000 -0.022568 1.570784 0.000012 -0.000012
  time 21
    0 0.025223 0.000000 -0.022568 1.570784 0.000012 -0.000012
  time 22
    0 0.025223 0.000000 -0.022568 1.570784 0.000012 -0.000012
  time 23
    0 0.025223 0.000000 -0.022568 1.570784 0.000012 -0.000012
  time 24
    0 0.025223 0.000000 -0.022568 1.570784 0.000012 -0.000012
  time 25
    0 0.025223 0.000000 -0.022568 1.570784 0.000012 -0.000012
  time 26
    0 0.025223 0.000000 -0.022568 1.570784 0.000012 -0.000012
  time 27
    0 0.025223 0.000000 -0.022568 1.570784 0.000012 -0.000012
  time 28
    0 0.025223 0.000000 -0.022568 1.570784 0.000012 -0.000012
  time 29
    0 0.025223 0.000000 -0.022568 1.570784 0.000012 -0.000012
end
