version 1
nodes
0 "root" -1
1 "bip_upperArm_R" 0
2 "bip_lowerArm_R" 1
3 "bip_hand_R" 2
4 "effect_hand_R" 3
5 "weapon_bone" 3
6 "weapon_bone_1" 3
7 "weapon_bone_2" 3
8 "weapon_bone_3" 3
9 "weapon_bone_4" 3
10 "weapon_bone_5" 3
11 "weapon_bone_6" 3
12 "weapon_bone_7" 3
13 "vm_weapon_bone" 3
14 "vm_weapon_bone_1" 3
15 "vm_weapon_bone_2" 3
16 "vm_weapon_bone_3" 3
17 "vm_weapon_bone_4" 3
18 "vm_weapon_bone_5" 3
19 "vm_weapon_bone_6" 3
20 "vm_weapon_bone_7" 3
21 "bip_thumb_0_R" 3
22 "bip_thumb_1_R" 21
23 "bip_thumb_2_R" 22
24 "bip_index_0_R" 3
25 "bip_index_1_R" 24
26 "bip_index_2_R" 25
27 "bip_middle_0_R" 3
28 "bip_middle_1_R" 27
29 "bip_middle_2_R" 28
30 "bip_ring_0_R" 3
31 "bip_ring_1_R" 30
32 "bip_ring_2_R" 31
33 "bip_pinky_0_R" 3
34 "bip_pinky_1_R" 33
35 "bip_pinky_2_R" 34
36 "bip_upperArm_L" 0
37 "bip_lowerArm_L" 36
38 "bip_hand_L" 37
39 "effect_hand_L" 38
40 "weapon_bone_L" 38
41 "vm_weapon_bone_L" 38
42 "vm_weapon_bone_L_1" 38
43 "vm_weapon_bone_L_2" 38
44 "bip_thumb_0_L" 38
45 "bip_thumb_1_L" 44
46 "bip_thumb_2_L" 45
47 "bip_index_0_L" 38
48 "bip_index_1_L" 47
49 "bip_index_2_L" 48
50 "bip_middle_0_L" 38
51 "bip_middle_1_L" 50
52 "bip_middle_2_L" 51
53 "bip_ring_0_L" 38
54 "bip_ring_1_L" 53
55 "bip_ring_2_L" 54
56 "bip_pinky_0_L" 38
57 "bip_pinky_1_L" 56
58 "bip_pinky_2_L" 57
59 "Sleeve_Control" 37
60 "Wrist_Control" 37
end
skeleton
time 0
0  -12.731775 1.281303 -4.554469  -1.515925 0.096451 0.478923
1  2.671567 7.268005 -10.025599  -0.937099 0.474854 -0.086284
2  -0.000000 14.313020 0.000001  -1.640116 -0.020154 0.472091
3  0.207029 12.935355 0.058582  0.329549 0.872119 0.288047
4  1.330911 2.698437 -0.462437  0.194890 0.547268 -0.084879
5  0.023988 0.088633 0.019824  0.091314 -0.915384 -0.811368
6  -4.925785 -10.460940 3.189455  0.218221 3.094644 -0.641218
7  -0.083599 -1.860646 0.511789  0.262328 3.069335 -0.998757
8  4.777527 6.028128 1.897719  -1.090396 0.577049 -0.321829
9  5.490343 7.072690 2.428968  -1.090396 0.577049 -0.321829
10  6.562504 8.648441 3.232417  -1.090396 0.577049 -0.321829
11  7.558523 6.997287 -2.354130  1.204257 -2.866200 -0.131012
12  7.558521 6.997289 -2.354132  1.937336 0.275393 -0.131011
13  4.324082 2.743998 -0.524878  -1.090396 0.577049 -0.321829
14  5.012509 3.752836 -0.011801  -1.090396 0.577049 -0.321829
15  5.595490 4.607128 0.422675  -1.090396 0.577049 -0.321829
16  6.233838 5.542562 0.898427  -1.090396 0.577049 -0.321829
17  6.946650 6.587124 1.429666  -1.090396 0.577049 -0.321829
18  7.537932 7.453611 1.870346  -1.090396 0.577049 -0.321829
19  8.154474 8.357079 2.329839  -1.090396 0.577049 -0.321829
20  8.874297 9.411902 2.866307  -1.090396 0.577049 -0.321829
21  0.552590 1.343539 -1.604463  -0.807784 0.821535 -0.281479
22  -0.000022 2.021629 0.000025  0.267203 0.696434 -0.514278
23  -0.000014 1.136201 -0.000020  0.696144 -0.537176 -0.135689
24  0.032712 4.587778 -1.352289  0.233802 2.057083 0.238184
25  -0.000006 1.754520 -0.000030  0.627284 0.101491 -0.145535
26  0.000005 1.227072 0.000033  0.501508 0.322553 0.162331
27  0.368010 4.208411 -0.173242  -0.435585 2.010592 -0.575175
28  -0.000003 2.372316 -0.000030  0.972894 0.100970 -0.131429
29  -0.000006 1.580170 0.000031  -0.224018 0.170320 -0.069942
30  0.937670 3.860715 0.959332  -0.219460 2.737627 -0.675811
31  -0.000015 1.690668 0.000018  0.433513 -0.910556 -0.250957
32  0.000010 1.423424 0.000032  0.443435 0.282501 -0.157298
33  1.546658 3.404218 1.915586  -0.788555 2.507669 -0.921818
34  -0.000025 1.437875 0.000029  0.840718 -0.088722 0.008190
35  0.000006 1.059370 0.000008  0.279599 0.062284 0.033795
36  20.809622 21.983311 -10.560766  -3.080994 -0.080843 -0.051041
37  0.000008 -14.313047 0.000001  -1.566513 -0.000000 0.000000
38  -0.000015 -13.013496 -0.000010  -0.615924 -2.081690 0.065723
39  -1.330882 -2.698428 0.462456  -0.194886 -0.547260 3.056712
40  -2.867757 -2.740980 0.531122  2.051196 0.577049 -0.321829
41  -4.125857 -2.321513 1.394417  2.051196 0.577049 -0.321829
42  -4.826805 -3.348669 0.872014  2.051196 0.577049 -0.321829
43  -5.441648 -4.249685 0.413761  2.051196 0.577049 -0.321829
44  -0.552530 -1.343530 1.604452  -0.687882 0.662133 -0.833274
45  -0.000007 -2.021603 -0.000012  0.494293 -0.000000 0.000000
46  -0.000005 -1.136218 -0.000009  -0.290327 -0.000000 -0.000000
47  -0.032702 -4.587730 1.352324  -0.573077 1.763007 -0.431401
48  0.000004 -1.754541 0.000009  0.829780 0.000000 0.000000
49  -0.000002 -1.227028 0.000002  0.528805 0.000000 -0.000000
50  -0.367995 -4.208394 0.173248  -0.373218 2.030790 -0.770720
51  0.000000 -2.372324 -0.000023  0.927479 -0.000000 -0.000000
52  0.000005 -1.580085 -0.000004  0.318371 0.000000 0.000000
53  -0.937651 -3.860692 -0.959319  0.170990 2.317753 -0.509471
54  0.000003 -1.690636 0.000006  0.719375 0.000000 0.000000
55  -0.000001 -1.423432 0.000006  0.462042 -0.000000 0.000000
56  -1.546643 -3.404194 -1.915566  0.405593 2.516782 -0.490951
57  0.000011 -1.437803 0.000005  0.652785 0.000000 0.000000
58  -0.000004 -1.059406 0.000000  0.549901 0.000000 0.000000
59  -0.000015 -13.013496 -0.000010  0.010936 -0.284121 -0.076428
60  0.161115 -10.812519 0.023063  0.010936 -0.284121 -0.076428
time 1
0  -12.731775 1.281303 -4.554469  -1.515925 0.096451 0.478923
1  2.671567 7.268005 -10.025599  -0.937099 0.474854 -0.086284
2  -0.000000 14.313020 0.000001  -1.640116 -0.020154 0.472091
3  0.207029 12.935355 0.058582  0.194413 0.876040 0.200105
4  1.330909 2.698441 -0.462435  0.194890 0.547268 -0.084879
5  0.023983 0.088631 0.019821  0.091314 -0.915384 -0.811368
6  -4.925785 -10.460940 3.189451  0.218220 3.094644 -0.641218
7  -0.083602 -1.860646 0.511792  0.262328 3.069335 -0.998757
8  4.777525 6.028128 1.897722  -1.090396 0.577049 -0.321829
9  5.490342 7.072690 2.428971  -1.090396 0.577049 -0.321829
10  6.562503 8.648438 3.232411  -1.090396 0.577049 -0.321829
11  7.558521 6.997280 -2.354134  1.204257 -2.866200 -0.131012
12  7.558521 6.997284 -2.354134  1.937336 0.275393 -0.131011
13  4.324079 2.744002 -0.524872  -1.090396 0.577049 -0.321829
14  5.012509 3.752831 -0.011803  -1.090396 0.577049 -0.321829
15  5.595486 4.607122 0.422674  -1.090396 0.577049 -0.321829
16  6.233834 5.542563 0.898428  -1.090396 0.577049 -0.321829
17  6.946647 6.587123 1.429666  -1.090396 0.577049 -0.321829
18  7.537931 7.453608 1.870349  -1.090396 0.577049 -0.321829
19  8.154474 8.357074 2.329839  -1.090396 0.577049 -0.321829
20  8.874295 9.411904 2.866313  -1.090396 0.577049 -0.321829
21  0.552588 1.343533 -1.604463  -0.807784 0.821535 -0.281479
22  -0.000018 2.021631 0.000021  0.267203 0.696434 -0.514278
23  -0.000015 1.136200 -0.000021  0.696144 -0.537176 -0.135689
24  0.032712 4.587779 -1.352287  0.233801 2.057083 0.238184
25  -0.000004 1.754517 -0.000037  0.627284 0.101491 -0.145535
26  0.000005 1.227072 0.000035  0.501508 0.322553 0.162331
27  0.368005 4.208410 -0.173239  -0.435585 2.010592 -0.575176
28  -0.000004 2.372317 -0.000029  0.972894 0.100970 -0.131429
29  -0.000009 1.580167 0.000028  -0.224018 0.170320 -0.069942
30  0.937669 3.860713 0.959336  -0.219460 2.737627 -0.675811
31  -0.000014 1.690667 0.000017  0.433513 -0.910556 -0.250957
32  0.000007 1.423422 0.000031  0.443435 0.282501 -0.157298
33  1.546659 3.404214 1.915584  -0.788555 2.507670 -0.921818
34  -0.000028 1.437874 0.000024  0.840718 -0.088722 0.008190
35  0.000004 1.059370 0.000007  0.279599 0.062284 0.033795
36  21.669020 22.827091 -8.716962  -3.080994 -0.080843 -0.051041
37  0.000008 -14.313036 0.000000  -1.566513 -0.000000 0.000000
38  -0.000013 -13.013504 -0.000003  -0.615924 -2.081690 0.065723
39  -1.330886 -2.698433 0.462459  -0.194886 -0.547260 3.056712
40  -2.867759 -2.740978 0.531126  2.051196 0.577049 -0.321829
41  -4.125847 -2.321508 1.394417  2.051196 0.577049 -0.321829
42  -4.826806 -3.348668 0.872016  2.051196 0.577049 -0.321829
43  -5.441644 -4.249685 0.413764  2.051196 0.577049 -0.321829
44  -0.552527 -1.343529 1.604454  -0.687882 0.662133 -0.833274
45  -0.000000 -2.021602 -0.000002  0.494293 -0.000000 0.000000
46  -0.000004 -1.136218 -0.000003  -0.290327 -0.000000 -0.000000
47  -0.032700 -4.587727 1.352324  -0.573077 1.763007 -0.431401
48  0.000003 -1.754542 0.000009  0.829780 0.000000 0.000000
49  -0.000002 -1.227025 0.000009  0.528805 0.000000 -0.000000
50  -0.367997 -4.208393 0.173250  -0.373218 2.030790 -0.770720
51  0.000000 -2.372340 -0.000015  0.927479 -0.000000 -0.000000
52  0.000006 -1.580068 -0.000001  0.318371 0.000000 0.000000
53  -0.937641 -3.860689 -0.959321  0.170990 2.317753 -0.509471
54  0.000002 -1.690631 0.000010  0.719375 0.000000 0.000000
55  -0.000009 -1.423428 0.000005  0.462042 -0.000000 0.000000
56  -1.546635 -3.404193 -1.915563  0.405593 2.516782 -0.490951
57  0.000011 -1.437805 0.000005  0.652785 0.000000 0.000000
58  -0.000008 -1.059398 0.000009  0.549901 0.000000 0.000000
59  -0.000013 -13.013504 -0.000003  0.010936 -0.284121 -0.076428
60  0.161116 -10.812521 0.023078  0.010936 -0.284121 -0.076428
time 2
0  -12.731775 1.281303 -4.554469  -1.515925 0.096451 0.478923
1  2.671567 7.268005 -10.025599  -0.937099 0.474854 -0.086284
2  -0.000000 14.313020 0.000001  -1.640116 -0.020154 0.472091
3  0.207029 12.935354 0.058582  -0.056554 0.883321 0.036784
4  1.330914 2.698440 -0.462436  0.194890 0.547268 -0.084879
5  0.023990 0.088627 0.019821  0.091314 -0.915384 -0.811368
6  -4.925781 -10.460939 3.189455  0.218220 3.094644 -0.641218
7  -0.083601 -1.860647 0.511793  0.262328 3.069335 -0.998757
8  4.777527 6.028127 1.897724  -1.090396 0.577049 -0.321829
9  5.490343 7.072691 2.428972  -1.090396 0.577049 -0.321829
10  6.562504 8.648438 3.232417  -1.090396 0.577049 -0.321829
11  7.558522 6.997283 -2.354129  1.204257 -2.866200 -0.131012
12  7.558516 6.997285 -2.354130  1.937336 0.275393 -0.131011
13  4.324079 2.744002 -0.524872  -1.090396 0.577049 -0.321829
14  5.012509 3.752836 -0.011799  -1.090396 0.577049 -0.321829
15  5.595489 4.607121 0.422678  -1.090396 0.577049 -0.321829
16  6.233838 5.542561 0.898425  -1.090396 0.577049 -0.321829
17  6.946649 6.587122 1.429672  -1.090396 0.577049 -0.321829
18  7.537932 7.453609 1.870350  -1.090396 0.577049 -0.321829
19  8.154476 8.357075 2.329839  -1.090396 0.577049 -0.321829
20  8.874295 9.411905 2.866308  -1.090396 0.577049 -0.321829
21  0.552589 1.343535 -1.604463  -0.807784 0.821535 -0.281479
22  -0.000014 2.021631 0.000024  0.267203 0.696434 -0.514278
23  -0.000005 1.136205 -0.000021  0.696144 -0.537176 -0.135689
24  0.032714 4.587776 -1.352287  0.233801 2.057083 0.238184
25  -0.000007 1.754522 -0.000043  0.627284 0.101491 -0.145535
26  0.000002 1.227072 0.000034  0.501508 0.322553 0.162331
27  0.368007 4.208415 -0.173235  -0.435585 2.010592 -0.575176
28  -0.000004 2.372314 -0.000032  0.972894 0.100970 -0.131429
29  -0.000007 1.580167 0.000033  -0.224018 0.170320 -0.069942
30  0.937669 3.860713 0.959336  -0.219460 2.737627 -0.675811
31  -0.000014 1.690665 0.000021  0.433513 -0.910556 -0.250957
32  0.000007 1.423423 0.000032  0.443435 0.282501 -0.157298
33  1.546661 3.404214 1.915585  -0.788555 2.507670 -0.921818
34  -0.000027 1.437871 0.000029  0.840718 -0.088722 0.008190
35  0.000006 1.059371 0.000012  0.279599 0.062284 0.033795
36  23.926905 25.053719 -3.861344  -3.080994 -0.080843 -0.051041
37  0.000006 -14.313040 -0.000000  -1.566513 -0.000000 0.000000
38  -0.000017 -13.013501 -0.000002  -0.615924 -2.081690 0.065723
39  -1.330880 -2.698432 0.462461  -0.194886 -0.547260 3.056712
40  -2.867756 -2.740981 0.531126  2.051196 0.577049 -0.321829
41  -4.125860 -2.321518 1.394421  2.051196 0.577049 -0.321829
42  -4.826811 -3.348671 0.872020  2.051196 0.577049 -0.321829
43  -5.441649 -4.249691 0.413764  2.051196 0.577049 -0.321829
44  -0.552534 -1.343539 1.604455  -0.687882 0.662133 -0.833274
45  -0.000011 -2.021604 -0.000010  0.494293 -0.000000 0.000000
46  0.000003 -1.136212 -0.000002  -0.290327 -0.000000 -0.000000
47  -0.032706 -4.587731 1.352324  -0.573077 1.763007 -0.431401
48  0.000004 -1.754531 0.000015  0.829780 0.000000 0.000000
49  -0.000001 -1.227029 0.000002  0.528805 0.000000 -0.000000
50  -0.367998 -4.208398 0.173251  -0.373218 2.030790 -0.770720
51  0.000003 -2.372329 -0.000017  0.927479 -0.000000 -0.000000
52  0.000006 -1.580080 0.000001  0.318371 0.000000 0.000000
53  -0.937653 -3.860699 -0.959316  0.170990 2.317753 -0.509471
54  0.000003 -1.690633 0.000007  0.719375 0.000000 0.000000
55  0.000005 -1.423429 0.000002  0.462042 -0.000000 0.000000
56  -1.546639 -3.404204 -1.915567  0.405593 2.516782 -0.490951
57  0.000015 -1.437801 0.000004  0.652785 0.000000 0.000000
58  0.000001 -1.059405 0.000001  0.549901 0.000000 0.000000
59  -0.000017 -13.013501 -0.000002  0.010936 -0.284121 -0.076428
60  0.161114 -10.812520 0.023063  0.010936 -0.284121 -0.076428
time 3
0  -12.731775 1.281303 -4.554469  -1.515925 0.096451 0.478923
1  2.671567 7.268005 -10.025599  -0.370397 0.456208 -0.091248
2  0.000002 14.313016 -0.000002  -1.483521 -0.086099 0.424786
3  0.207024 12.935354 0.058584  -0.191690 0.887241 -0.051157
4  1.330908 2.698438 -0.462435  0.194890 0.547268 -0.084879
5  0.023989 0.088627 0.070328  0.091314 -0.915384 -0.811368
6  -4.925778 -10.460943 3.189450  0.218220 3.094644 -0.641218
7  -0.083601 -1.860646 0.511788  0.262329 3.069335 -0.998757
8  4.777529 6.028120 1.897716  -1.090396 0.577049 -0.321829
9  5.490342 7.072691 2.428968  -1.090396 0.577049 -0.321829
10  6.562505 8.648432 3.232414  -1.090396 0.577049 -0.321829
11  7.558525 6.997278 -2.354134  1.204257 -2.866199 -0.131012
12  7.558520 6.997278 -2.354136  1.937336 0.275393 -0.131011
13  4.324080 2.743996 -0.524874  -1.090396 0.577049 -0.321829
14  5.012508 3.752828 -0.011801  -1.090396 0.577049 -0.321829
15  5.595488 4.607118 0.422674  -1.090396 0.577049 -0.321829
16  6.233832 5.542558 0.898428  -1.090396 0.577049 -0.321829
17  6.946649 6.587120 1.429667  -1.090396 0.577049 -0.321829
18  7.537933 7.453607 1.870344  -1.090396 0.577049 -0.321829
19  8.154475 8.357076 2.329838  -1.090396 0.577049 -0.321829
20  8.874294 9.411901 2.866308  -1.090396 0.577049 -0.321829
21  0.552588 1.343529 -1.604465  -0.799578 0.781409 -0.261090
22  -0.000019 2.021623 0.000024  0.275707 0.735791 -0.462938
23  -0.000020 1.136202 -0.000018  0.735043 -0.547414 -0.136397
24  0.032716 4.587774 -1.352294  0.292573 2.053928 0.259949
25  -0.000006 1.754521 -0.000031  0.627284 0.101491 -0.145535
26  0.000001 1.227072 0.000042  0.501508 0.322553 0.162331
27  0.368009 4.208409 -0.173239  -0.379003 2.015789 -0.559231
28  -0.000005 2.372318 -0.000031  0.969253 0.070098 -0.135217
29  -0.000006 1.580167 0.000038  -0.224018 0.170320 -0.069942
30  0.937670 3.860714 0.959332  -0.205990 2.728251 -0.682585
31  -0.000011 1.690668 0.000020  0.439622 -0.888604 -0.236001
32  0.000008 1.423420 0.000033  0.446518 0.269174 -0.127696
33  1.546659 3.404211 1.915584  -0.732901 2.473152 -0.953126
34  -0.000024 1.437871 0.000036  0.806303 -0.071367 -0.015762
35  0.000006 1.059372 -0.000003  0.279599 0.062284 0.033795
36  27.118404 28.202246 3.006050  -3.080994 -0.080843 -0.051041
37  0.000005 -14.313034 0.000004  -1.566513 -0.000000 0.000000
38  -0.000015 -13.013504 -0.000010  -0.615924 -2.081690 0.065723
39  -1.330884 -2.698426 0.462453  -0.194886 -0.547260 3.056712
40  -2.867764 -2.740974 0.531126  2.051196 0.577049 -0.321829
41  -4.125858 -2.321511 1.394419  2.051196 0.577049 -0.321829
42  -4.826801 -3.348665 0.872013  2.051196 0.577049 -0.321829
43  -5.441658 -4.249694 0.413765  2.051196 0.577049 -0.321829
44  -0.552531 -1.343529 1.604451  -0.687882 0.662133 -0.833274
45  -0.000010 -2.021607 -0.000019  0.494293 -0.000000 0.000000
46  0.000001 -1.136217 -0.000003  -0.290327 -0.000000 -0.000000
47  -0.032703 -4.587730 1.352321  -0.573077 1.763007 -0.431401
48  0.000004 -1.754543 0.000008  0.829780 0.000000 0.000000
49  -0.000002 -1.227024 0.000005  0.528805 0.000000 -0.000000
50  -0.367996 -4.208391 0.173248  -0.373218 2.030790 -0.770720
51  0.000002 -2.372338 -0.000028  0.927479 -0.000000 -0.000000
52  0.000006 -1.580073 -0.000003  0.318371 0.000000 0.000000
53  -0.937656 -3.860697 -0.959324  0.170990 2.317753 -0.509471
54  0.000003 -1.690623 0.000008  0.719375 0.000000 0.000000
55  -0.000007 -1.423427 0.000002  0.462042 -0.000000 0.000000
56  -1.546635 -3.404192 -1.915571  0.405593 2.516782 -0.490951
57  0.000026 -1.437806 0.000003  0.652785 0.000000 0.000000
58  -0.000008 -1.059406 0.000007  0.549901 0.000000 0.000000
59  -0.000015 -13.013504 -0.000010  0.010936 -0.284121 -0.076428
60  0.161115 -10.812523 0.023059  0.010936 -0.284121 -0.076428
time 4
0  -12.731775 1.281303 -4.554469  -1.515925 0.096451 0.478923
1  2.671567 7.268005 -10.025599  -0.400068 0.457591 -0.090866
2  0.000001 14.313021 -0.000001  -1.109601 -0.244711 0.317744
3  0.207029 12.935353 0.058592  -0.184647 0.883511 -0.047986
4  1.330913 2.698447 -0.462432  0.194890 0.547268 -0.084879
5  0.023991 0.039553 0.070334  0.091314 -0.915384 -0.811368
6  -4.925775 -10.460936 3.189455  0.218221 3.094644 -0.641218
7  -0.083596 -1.860646 0.511790  0.262329 3.069335 -0.998757
8  4.777531 6.028129 1.897719  -1.090396 0.577049 -0.321829
9  5.490348 7.072690 2.428971  -1.090396 0.577049 -0.321829
10  6.562511 8.648439 3.232413  -1.090396 0.577049 -0.321829
11  7.558527 6.997283 -2.354129  1.204257 -2.866200 -0.131012
12  7.558529 6.997283 -2.354131  1.937336 0.275393 -0.131011
13  4.324086 2.744003 -0.524879  -1.090396 0.577049 -0.321829
14  5.012515 3.752837 -0.011797  -1.090396 0.577049 -0.321829
15  5.595492 4.607130 0.422675  -1.090396 0.577049 -0.321829
16  6.233843 5.542569 0.898425  -1.090396 0.577049 -0.321829
17  6.946655 6.587126 1.429666  -1.090396 0.577049 -0.321829
18  7.537937 7.453611 1.870350  -1.090396 0.577049 -0.321829
19  8.154475 8.357079 2.329840  -1.090396 0.577049 -0.321829
20  8.874300 9.411901 2.866307  -1.090396 0.577049 -0.321829
21  0.552594 1.343540 -1.604458  -0.786643 0.680302 -0.216921
22  -0.000019 2.021631 0.000023  0.301355 0.832941 -0.329173
23  -0.000011 1.136207 -0.000021  0.832129 -0.572956 -0.138026
24  0.032721 4.587779 -1.352291  0.440417 2.046914 0.315385
25  -0.000003 1.754526 -0.000035  0.627284 0.101491 -0.145535
26  0.000001 1.227072 0.000033  0.501508 0.322553 0.162331
27  0.368013 4.208416 -0.173241  -0.238802 2.029248 -0.520686
28  -0.000002 2.372318 -0.000026  0.962584 -0.007023 -0.144810
29  -0.000004 1.580170 0.000034  -0.224018 0.170320 -0.069954
30  0.937677 3.860720 0.959333  -0.172359 2.704995 -0.699914
31  -0.000008 1.690667 0.000022  0.461204 -0.832250 -0.204493
32  0.000005 1.423421 0.000021  0.453345 0.235737 -0.053967
33  1.546664 3.404222 1.915585  -0.601289 2.389622 -1.040373
34  -0.000030 1.437866 0.000035  0.719143 -0.027996 -0.075671
35  0.000004 1.059370 0.000006  0.279599 0.062284 0.033795
36  30.778673 31.811737 10.877381  -3.080994 -0.080843 -0.051041
37  0.000006 -14.313041 -0.000001  -1.566513 -0.000000 0.000000
38  -0.000010 -13.013502 -0.000012  -0.615924 -2.081690 0.065723
39  -1.330882 -2.698435 0.462461  -0.194886 -0.547260 3.056712
40  -2.867759 -2.740981 0.531127  2.051196 0.577049 -0.321829
41  -4.125856 -2.321510 1.394418  2.051196 0.577049 -0.321829
42  -4.826806 -3.348672 0.872016  2.051196 0.577049 -0.321829
43  -5.441658 -4.249689 0.413762  2.051196 0.577049 -0.321829
44  -0.552523 -1.343531 1.604451  -0.687882 0.662133 -0.833274
45  -0.000012 -2.021610 -0.000018  0.494293 -0.000000 0.000000
46  -0.000002 -1.136214 -0.000007  -0.290327 -0.000000 -0.000000
47  -0.032701 -4.587729 1.352321  -0.573077 1.763007 -0.431401
48  0.000004 -1.754542 0.000013  0.829780 0.000000 0.000000
49  -0.000002 -1.227022 0.000002  0.528805 0.000000 -0.000000
50  -0.367982 -4.208401 0.173246  -0.373218 2.030790 -0.770720
51  0.000002 -2.372329 -0.000017  0.927479 -0.000000 -0.000000
52  0.000007 -1.580078 -0.000009  0.318371 0.000000 0.000000
53  -0.937642 -3.860690 -0.959324  0.170990 2.317753 -0.509471
54  0.000000 -1.690628 0.000002  0.719375 0.000000 0.000000
55  0.000002 -1.423430 0.000008  0.462042 -0.000000 0.000000
56  -1.546642 -3.404193 -1.915566  0.405593 2.516782 -0.490951
57  0.000012 -1.437800 0.000002  0.652785 0.000000 0.000000
58  -0.000005 -1.059413 0.000006  0.549901 0.000000 0.000000
59  -0.000010 -13.013502 -0.000012  0.010936 -0.284121 -0.076428
60  0.161120 -10.812519 0.023060  0.010936 -0.284121 -0.076428
time 5
0  -12.731775 1.281303 -4.554469  -1.515925 0.096451 0.478923
1  2.671567 7.268005 -10.025599  -0.477840 0.461025 -0.089950
2  0.000001 14.313019 0.000000  -0.664746 -0.435251 0.199561
3  0.207032 12.935365 0.058596  -0.167854 0.857398 -0.025784
4  1.330906 2.698438 -0.462434  0.194890 0.547268 -0.084879
5  0.023983 0.088626 0.019812  0.091218 -0.915384 -0.811368
6  -4.925783 -10.460939 3.189447  0.218220 3.094644 -0.641218
7  -0.083607 -1.860646 0.507887  0.262329 3.069335 -0.998756
8  4.777519 6.028127 1.897723  -1.090396 0.577049 -0.321829
9  5.490337 7.072690 2.428967  -1.090396 0.577049 -0.321829
10  6.562500 8.648437 3.232414  -1.090396 0.577049 -0.321829
11  7.558520 6.997281 -2.354133  1.204257 -2.866199 -0.131012
12  7.558515 6.997282 -2.354134  1.937336 0.275393 -0.131011
13  4.324078 2.743998 -0.524878  -1.090396 0.577049 -0.321829
14  5.012508 3.752833 -0.011805  -1.090396 0.577049 -0.321829
15  5.595482 4.607129 0.422674  -1.090396 0.577049 -0.321829
16  6.233834 5.542564 0.898421  -1.090396 0.577049 -0.321829
17  6.946649 6.587120 1.429654  -1.090396 0.577049 -0.321829
18  7.537926 7.453612 1.870349  -1.090396 0.577049 -0.321829
19  8.154471 8.357073 2.329837  -1.090396 0.577049 -0.321829
20  8.874293 9.411901 2.866306  -1.090396 0.577049 -0.321829
21  0.552585 1.343534 -1.604463  -0.782070 0.547475 -0.169861
22  -0.000017 2.021633 0.000030  0.347923 0.956426 -0.140103
23  -0.000012 1.136202 -0.000019  0.957982 -0.606162 -0.139848
24  0.032709 4.587778 -1.352290  0.634184 2.039751 0.389628
25  -0.000010 1.754526 -0.000035  0.627284 0.101491 -0.145535
26  0.000002 1.227069 0.000032  0.501508 0.322553 0.162331
27  0.368006 4.208410 -0.173245  -0.059264 2.047573 -0.473705
28  -0.000001 2.372312 -0.000025  0.959250 -0.106915 -0.158204
29  -0.000005 1.580169 0.000033  -0.224018 0.170320 -0.069954
30  0.937664 3.860720 0.959332  -0.129345 2.675138 -0.723545
31  -0.000010 1.690669 0.000021  0.500413 -0.756444 -0.173980
32  0.000007 1.423421 0.000035  0.460246 0.192185 0.041383
33  1.546655 3.404214 1.915585  -0.450388 2.288372 -1.176730
34  -0.000029 1.437867 0.000030  0.603553 0.028144 -0.153717
35  0.000004 1.059371 0.000003  0.279599 0.062284 0.033795
36  34.438942 35.421219 18.748711  -3.080994 -0.080843 -0.051041
37  0.000008 -14.313024 -0.000003  -1.566513 -0.000000 0.000000
38  -0.000011 -13.013493 -0.000003  -0.615924 -2.081690 0.065723
39  -1.330882 -2.698428 0.462454  -0.194886 -0.547260 3.056712
40  -2.867762 -2.740976 0.531126  2.051196 0.577049 -0.321829
41  -4.125873 -2.321517 1.394425  2.051196 0.577049 -0.321829
42  -4.826823 -3.348666 0.872015  2.051196 0.577049 -0.321829
43  -5.441661 -4.249693 0.413768  2.051196 0.577049 -0.321829
44  -0.552538 -1.343530 1.604456  -0.687882 0.662133 -0.833274
45  -0.000013 -2.021614 -0.000011  0.494293 -0.000000 0.000000
46  0.000003 -1.136221 -0.000000  -0.290327 -0.000000 -0.000000
47  -0.032705 -4.587722 1.352322  -0.573077 1.763007 -0.431401
48  0.000002 -1.754546 0.000018  0.829780 0.000000 0.000000
49  -0.000003 -1.227028 0.000005  0.528805 0.000000 -0.000000
50  -0.367999 -4.208398 0.173246  -0.373218 2.030790 -0.770720
51  0.000003 -2.372323 -0.000014  0.927479 -0.000000 -0.000000
52  0.000005 -1.580086 -0.000009  0.318371 0.000000 0.000000
53  -0.937650 -3.860694 -0.959321  0.170990 2.317753 -0.509471
54  0.000001 -1.690632 0.000007  0.719375 0.000000 0.000000
55  0.000003 -1.423431 0.000003  0.462042 -0.000000 0.000000
56  -1.546648 -3.404194 -1.915567  0.405593 2.516782 -0.490951
57  0.000010 -1.437805 0.000002  0.652785 0.000000 0.000000
58  -0.000008 -1.059399 -0.000000  0.549901 0.000000 0.000000
59  -0.000011 -13.013493 -0.000003  0.010936 -0.284121 -0.076428
60  0.161117 -10.812517 0.023062  0.010936 -0.284121 -0.076428
time 6
0  -12.731775 1.281303 -4.554469  -1.515925 0.096451 0.478923
1  2.671567 7.268005 -10.025599  -0.587033 0.465507 -0.088728
2  -0.000000 14.313015 -0.000000  -0.295958 -0.594568 0.108369
3  0.207027 12.935359 0.058596  -0.147811 0.786520 0.034477
4  1.330912 2.698438 -0.462451  0.194890 0.547268 -0.084879
5  0.023988 0.039553 0.019816  0.091218 -0.915384 -0.811368
6  -4.925779 -10.460943 3.189440  0.218220 3.094644 -0.641218
7  -0.083604 -1.860642 0.511792  0.262329 3.069335 -0.998757
8  4.777528 6.028122 1.897712  -1.090396 0.577049 -0.321829
9  5.490344 7.072690 2.428956  -1.090396 0.577049 -0.321829
10  6.562502 8.648444 3.232410  -1.090396 0.577049 -0.321829
11  7.558522 6.997287 -2.354134  1.204257 -2.866199 -0.131012
12  7.558520 6.997289 -2.354134  1.937336 0.275393 -0.131011
13  4.324079 2.744008 -0.524874  -1.090396 0.577049 -0.321829
14  5.012511 3.752828 -0.011810  -1.090396 0.577049 -0.321829
15  5.595488 4.607125 0.422664  -1.090396 0.577049 -0.321829
16  6.233832 5.542569 0.898423  -1.090396 0.577049 -0.321829
17  6.946650 6.587122 1.429661  -1.090396 0.577049 -0.321829
18  7.537930 7.453609 1.870334  -1.090396 0.577049 -0.321829
19  8.154474 8.357070 2.329828  -1.090396 0.577049 -0.321829
20  8.874296 9.411906 2.866300  -1.090396 0.577049 -0.321829
21  0.552589 1.343533 -1.604472  -0.787479 0.413736 -0.130235
22  -0.000014 2.021632 0.000020  0.419189 1.076071 0.075380
23  0.000003 1.136208 -0.000020  1.083324 -0.639305 -0.141262
24  0.032714 4.587772 -1.352303  0.829167 2.034926 0.465616
25  -0.000004 1.754518 -0.000037  0.627284 0.101491 -0.145535
26  -0.000003 1.227076 0.000042  0.501508 0.322553 0.162331
27  0.368007 4.208416 -0.173245  0.117310 2.066695 -0.430052
28  -0.000006 2.372318 -0.000030  0.962233 -0.206063 -0.173602
29  -0.000005 1.580171 0.000028  -0.224018 0.170320 -0.069942
30  0.937671 3.860712 0.959329  -0.087168 2.645744 -0.748357
31  -0.000016 1.690658 0.000012  0.549886 -0.678415 -0.152672
32  0.000008 1.423418 0.000033  0.465091 0.148705 0.136433
33  1.546660 3.404215 1.915573  -0.329391 2.198474 -1.346313
34  -0.000022 1.437872 0.000027  0.485398 0.083904 -0.232249
35  0.000000 1.059374 0.000004  0.279599 0.062284 0.033795
36  37.630444 38.569767 25.616100  -3.080994 -0.080843 -0.051041
37  0.000012 -14.313032 -0.000008  -1.566513 -0.000000 0.000000
38  -0.000010 -13.013504 -0.000011  -0.615924 -2.081690 0.065723
39  -1.330882 -2.698432 0.462454  -0.194886 -0.547260 3.056712
40  -2.867752 -2.740974 0.531118  2.051196 0.577049 -0.321829
41  -4.125846 -2.321506 1.394416  2.051196 0.577049 -0.321829
42  -4.826809 -3.348668 0.872016  2.051196 0.577049 -0.321829
43  -5.441644 -4.249683 0.413759  2.051196 0.577049 -0.321829
44  -0.552520 -1.343532 1.604452  -0.687882 0.662133 -0.833274
45  -0.000008 -2.021605 -0.000009  0.494293 -0.000000 0.000000
46  0.000006 -1.136224 -0.000008  -0.290327 -0.000000 -0.000000
47  -0.032696 -4.587723 1.352323  -0.573077 1.763007 -0.431401
48  0.000003 -1.754544 0.000026  0.829780 0.000000 0.000000
49  -0.000001 -1.227023 0.000014  0.528805 0.000000 -0.000000
50  -0.367986 -4.208395 0.173248  -0.373218 2.030790 -0.770720
51  0.000003 -2.372327 -0.000023  0.927479 -0.000000 -0.000000
52  0.000006 -1.580081 0.000002  0.318371 0.000000 0.000000
53  -0.937638 -3.860685 -0.959322  0.170990 2.317753 -0.509471
54  -0.000002 -1.690624 0.000003  0.719375 0.000000 0.000000
55  0.000004 -1.423433 -0.000004  0.462042 -0.000000 0.000000
56  -1.546639 -3.404192 -1.915566  0.405593 2.516782 -0.490951
57  0.000017 -1.437818 -0.000001  0.652785 0.000000 0.000000
58  -0.000005 -1.059405 0.000011  0.549901 0.000000 0.000000
59  -0.000010 -13.013504 -0.000011  0.010936 -0.284121 -0.076428
60  0.161119 -10.812521 0.023053  0.010936 -0.284121 -0.076428
time 7
0  -12.731775 1.281303 -4.554469  -1.515925 0.096451 0.478923
1  2.671567 7.268005 -10.025599  -0.711155 0.469990 -0.087582
2  0.000002 14.313019 0.000002  -0.143090 -0.661016 0.072407
3  0.207029 12.935353 0.058591  -0.131018 0.648495 0.151829
4  1.330912 2.698452 -0.462438  0.194890 0.547268 -0.084879
5  0.054899 0.039565 0.070331  0.091314 -0.915384 -0.811368
6  -4.925778 -10.460932 3.189447  0.218220 3.094644 -0.641218
7  -0.083598 -1.860639 0.511789  0.262328 3.069335 -0.998757
8  4.777527 6.028134 1.897719  -1.090396 0.577049 -0.321829
9  5.490344 7.072707 2.428972  -1.090396 0.577049 -0.321829
10  6.562504 8.648457 3.232413  -1.090396 0.577049 -0.321829
11  7.558525 6.997300 -2.354134  1.204257 -2.866200 -0.131012
12  7.558522 6.997300 -2.354134  1.937336 0.275393 -0.131011
13  4.324079 2.744004 -0.524887  -1.090396 0.577049 -0.321829
14  5.012513 3.752844 -0.011804  -1.090396 0.577049 -0.321829
15  5.595490 4.607135 0.422672  -1.090396 0.577049 -0.321829
16  6.233838 5.542582 0.898431  -1.090396 0.577049 -0.321829
17  6.946653 6.587139 1.429668  -1.090396 0.577049 -0.321829
18  7.537931 7.453623 1.870345  -1.090396 0.577049 -0.321829
19  8.154474 8.357086 2.329829  -1.090396 0.577049 -0.321829
20  8.874295 9.411919 2.866306  -1.090396 0.577049 -0.321829
21  0.552590 1.343546 -1.604463  -0.796887 0.310567 -0.102868
22  -0.000014 2.021628 0.000020  0.503631 1.164442 0.271673
23  -0.000022 1.136202 -0.000015  1.179388 -0.664786 -0.142077
24  0.032717 4.587792 -1.352287  0.979528 2.032773 0.524919
25  -0.000005 1.754517 -0.000036  0.627284 0.101491 -0.145535
26  0.000002 1.227067 0.000028  0.501508 0.322553 0.162331
27  0.368010 4.208424 -0.173242  0.251313 2.081921 -0.398550
28  0.000000 2.372316 -0.000031  0.969121 -0.281566 -0.187537
29  0.000000 1.580168 0.000031  -0.224018 0.170320 -0.069942
30  0.937670 3.860728 0.959325  -0.055210 2.623444 -0.768364
31  -0.000017 1.690667 0.000020  0.593501 -0.617254 -0.141179
32  0.000014 1.423421 0.000032  0.467440 0.115447 0.209467
33  1.546661 3.404231 1.915581  -0.261555 2.139925 -1.504386
34  -0.000027 1.437871 0.000035  0.392787 0.126368 -0.293242
35  0.000001 1.059373 0.000004  0.279599 0.062284 0.033795
36  39.888329 40.796387 30.471724  -3.080994 -0.080843 -0.051041
37  0.000010 -14.313024 -0.000002  -1.566513 -0.000000 0.000000
38  -0.000016 -13.013496 0.000008  -0.615924 -2.081690 0.065723
39  -1.330899 -2.698421 0.462459  -0.194886 -0.547260 3.056712
40  -2.867765 -2.740965 0.531119  2.051196 0.577049 -0.321829
41  -4.125872 -2.321508 1.394412  2.051196 0.577049 -0.321829
42  -4.826835 -3.348663 0.872020  2.051196 0.577049 -0.321829
43  -5.441674 -4.249681 0.413761  2.051196 0.577049 -0.321829
44  -0.552554 -1.343521 1.604453  -0.687882 0.662133 -0.833274
45  -0.000005 -2.021597 -0.000024  0.494293 -0.000000 0.000000
46  -0.000001 -1.136220 -0.000008  -0.290327 -0.000000 -0.000000
47  -0.032713 -4.587721 1.352320  -0.573077 1.763007 -0.431401
48  -0.000001 -1.754541 0.000007  0.829780 0.000000 0.000000
49  0.000002 -1.227022 -0.000006  0.528805 0.000000 -0.000000
50  -0.368005 -4.208373 0.173245  -0.373218 2.030790 -0.770720
51  0.000006 -2.372321 -0.000016  0.927479 -0.000000 -0.000000
52  0.000002 -1.580081 -0.000012  0.318371 0.000000 0.000000
53  -0.937658 -3.860689 -0.959330  0.170990 2.317753 -0.509471
54  -0.000006 -1.690614 0.000016  0.719375 0.000000 0.000000
55  0.000010 -1.423425 0.000004  0.462042 -0.000000 0.000000
56  -1.546664 -3.404177 -1.915563  0.405593 2.516782 -0.490951
57  0.000022 -1.437806 0.000015  0.652785 0.000000 0.000000
58  -0.000005 -1.059389 -0.000002  0.549901 0.000000 0.000000
59  -0.000016 -13.013496 0.000008  0.010936 -0.284121 -0.076428
60  0.161128 -10.812508 0.023077  0.010936 -0.284121 -0.076428
time 8
0  -12.731775 1.281303 -4.554469  -1.515925 0.096451 0.478923
1  2.671567 7.268005 -10.025599  -0.833341 0.473472 -0.086665
2  -0.000001 14.313018 -0.000001  -0.309155 -0.583346 0.141354
3  0.207024 12.935363 0.058587  -0.123977 0.420940 0.345302
4  1.330909 2.698439 -0.462439  0.194890 0.547268 -0.084879
5  0.054897 0.088624 0.019815  0.091218 -0.915384 -0.811368
6  -4.925783 -10.460938 3.189448  0.218220 3.094644 -0.641218
7  -0.079691 -1.860651 0.511785  0.262328 3.069335 -0.998756
8  4.777527 6.028118 1.897714  -1.090396 0.577049 -0.321829
9  5.490341 7.072691 2.428962  -1.090396 0.577049 -0.321829
10  6.562501 8.648430 3.232415  -1.090396 0.577049 -0.321829
11  7.558525 6.997277 -2.354135  1.204257 -2.866200 -0.131012
12  7.558518 6.997282 -2.354136  1.937336 0.275393 -0.131011
13  4.324080 2.743998 -0.524882  -1.090396 0.577049 -0.321829
14  5.012506 3.752833 -0.011801  -1.090396 0.577049 -0.321829
15  5.595488 4.607117 0.422666  -1.090396 0.577049 -0.321829
16  6.233833 5.542554 0.898419  -1.090396 0.577049 -0.321829
17  6.946651 6.587119 1.429657  -1.090396 0.577049 -0.321829
18  7.537931 7.453605 1.870342  -1.090396 0.577049 -0.321829
19  8.154474 8.357080 2.329830  -1.090396 0.577049 -0.321829
20  8.874292 9.411902 2.866299  -1.090396 0.577049 -0.321829
21  0.552586 1.343528 -1.604470  -0.801747 0.269213 -0.092434
22  -0.000017 2.021635 0.000027  0.548923 1.198532 0.361818
23  -0.000013 1.136202 -0.000019  1.217729 -0.674982 -0.142317
24  0.032714 4.587770 -1.352293  1.039690 2.032328 0.548732
25  -0.000004 1.754513 -0.000033  0.627284 0.101491 -0.145535
26  0.000010 1.227068 0.000035  0.501508 0.322553 0.162331
27  0.368006 4.208408 -0.173245  0.304482 2.088151 -0.386476
28  -0.000003 2.372313 -0.000029  0.973113 -0.311527 -0.193761
29  0.000000 1.580170 0.000041  -0.224018 0.170320 -0.069942
30  0.937667 3.860710 0.959323  -0.042574 2.614623 -0.776556
31  -0.000015 1.690661 0.000021  0.612129 -0.592523 -0.137571
32  0.000007 1.423420 0.000032  0.468028 0.102216 0.238697
33  1.546658 3.404214 1.915576  -0.241251 2.119727 -1.574982
34  -0.000030 1.437875 0.000021  0.355272 0.143212 -0.317811
35  0.000011 1.059377 0.000011  0.279599 0.062284 0.033795
36  40.747730 41.640160 32.315525  -3.080994 -0.080843 -0.051041
37  0.000007 -14.313034 -0.000004  -1.566513 -0.000000 0.000000
38  -0.000015 -13.013512 -0.000006  -0.615924 -2.081690 0.065723
39  -1.330892 -2.698433 0.462456  -0.194886 -0.547260 3.056712
40  -2.867753 -2.740973 0.531120  2.051196 0.577049 -0.321829
41  -4.125864 -2.321517 1.394417  2.051196 0.577049 -0.321829
42  -4.826808 -3.348666 0.872012  2.051196 0.577049 -0.321829
43  -5.441670 -4.249691 0.413766  2.051196 0.577049 -0.321829
44  -0.552552 -1.343532 1.604459  -0.687882 0.662133 -0.833274
45  0.000002 -2.021605 -0.000019  0.494293 -0.000000 0.000000
46  -0.000003 -1.136213 -0.000013  -0.290327 -0.000000 -0.000000
47  -0.032700 -4.587729 1.352320  -0.573077 1.763007 -0.431401
48  0.000003 -1.754535 0.000011  0.829780 0.000000 0.000000
49  -0.000000 -1.227036 -0.000015  0.528805 0.000000 -0.000000
50  -0.367986 -4.208378 0.173242  -0.373218 2.030790 -0.770720
51  0.000005 -2.372327 -0.000031  0.927479 -0.000000 -0.000000
52  0.000009 -1.580091 -0.000010  0.318371 0.000000 0.000000
53  -0.937649 -3.860697 -0.959321  0.170990 2.317753 -0.509471
54  -0.000001 -1.690610 -0.000006  0.719375 0.000000 0.000000
55  0.000010 -1.423428 0.000002  0.462042 -0.000000 0.000000
56  -1.546644 -3.404186 -1.915567  0.405593 2.516782 -0.490951
57  0.000018 -1.437810 0.000003  0.652785 0.000000 0.000000
58  -0.000010 -1.059383 0.000006  0.549901 0.000000 0.000000
59  -0.000015 -13.013512 -0.000006  0.010936 -0.284121 -0.076428
60  0.161118 -10.812521 0.023066  0.010936 -0.284121 -0.076428
time 9
0  -12.731775 1.281303 -4.554469  -1.515925 0.096451 0.478923
1  2.671567 7.268005 -10.025599  -0.937099 0.474854 -0.086284
2  -0.000000 14.313020 0.000001  -0.705682 -0.401109 0.288219
3  0.207028 12.935355 0.058593  -0.282463 0.047727 0.653406
4  1.330908 2.698441 -0.462435  0.194890 0.547268 -0.084879
5  0.023989 0.088627 0.070328  0.091218 -0.915384 -0.811368
6  -4.925786 -10.460942 3.189454  0.218220 3.094644 -0.641218
7  -0.083596 -1.860646 0.511793  0.262328 3.069335 -0.998757
8  4.777529 6.028125 1.897717  -1.090396 0.577049 -0.321829
9  5.490349 7.072694 2.428969  -1.090396 0.577049 -0.321829
10  6.562507 8.648439 3.232415  -1.090396 0.577049 -0.321829
11  7.558523 6.997281 -2.354134  1.204257 -2.866200 -0.131012
12  7.558520 6.997284 -2.354137  1.937336 0.275393 -0.131011
13  4.324086 2.743998 -0.524873  -1.090396 0.577049 -0.321829
14  5.012515 3.752835 -0.011800  -1.090396 0.577049 -0.321829
15  5.595491 4.607123 0.422675  -1.090396 0.577049 -0.321829
16  6.233839 5.542562 0.898426  -1.090396 0.577049 -0.321829
17  6.946653 6.587122 1.429666  -1.090396 0.577049 -0.321829
18  7.537941 7.453614 1.870348  -1.090396 0.577049 -0.321829
19  8.154475 8.357074 2.329834  -1.090396 0.577049 -0.321829
20  8.874297 9.411900 2.866304  -1.090396 0.577049 -0.321829
21  0.552592 1.343539 -1.604465  -0.801747 0.269213 -0.092434
22  -0.000020 2.021634 0.000018  0.548923 1.198496 0.361818
23  -0.000014 1.136200 -0.000019  1.217729 -0.674982 -0.142317
24  0.032718 4.587777 -1.352294  1.039690 2.032328 0.548732
25  -0.000011 1.754524 -0.000035  0.627284 0.101491 -0.145535
26  0.000008 1.227068 0.000032  0.501508 0.322553 0.162331
27  0.368012 4.208415 -0.173242  0.304482 2.088151 -0.386476
28  -0.000010 2.372332 -0.000031  0.973113 -0.311527 -0.193761
29  0.000007 1.580164 0.000040  -0.224018 0.170320 -0.069942
30  0.937676 3.860717 0.959334  -0.042574 2.614623 -0.776556
31  -0.000009 1.690675 0.000020  0.612129 -0.592523 -0.137571
32  0.000009 1.423420 0.000026  0.468028 0.102216 0.238697
33  1.546664 3.404212 1.915581  -0.241251 2.119727 -1.574982
34  -0.000028 1.437868 0.000031  0.355272 0.143212 -0.317811
35  0.000005 1.059373 0.000002  0.279599 0.062284 0.033795
36  40.747730 41.640160 32.315525  -3.080994 -0.080843 -0.051041
37  0.000007 -14.313034 -0.000004  -1.566513 -0.000000 0.000000
38  -0.000015 -13.013512 -0.000006  -0.615924 -2.081690 0.065723
39  -1.330892 -2.698433 0.462456  -0.194886 -0.547260 3.056712
40  -2.867753 -2.740973 0.531120  2.051196 0.577049 -0.321829
41  -4.125864 -2.321517 1.394417  2.051196 0.577049 -0.321829
42  -4.826808 -3.348666 0.872012  2.051196 0.577049 -0.321829
43  -5.441670 -4.249691 0.413766  2.051196 0.577049 -0.321829
44  -0.552552 -1.343532 1.604459  -0.687882 0.662133 -0.833274
45  0.000002 -2.021605 -0.000019  0.494293 -0.000000 0.000000
46  -0.000003 -1.136213 -0.000013  -0.290327 -0.000000 -0.000000
47  -0.032700 -4.587729 1.352320  -0.573077 1.763007 -0.431401
48  0.000003 -1.754535 0.000011  0.829780 0.000000 0.000000
49  -0.000000 -1.227036 -0.000015  0.528805 0.000000 -0.000000
50  -0.367986 -4.208378 0.173242  -0.373218 2.030790 -0.770720
51  0.000005 -2.372327 -0.000031  0.927479 -0.000000 -0.000000
52  0.000009 -1.580091 -0.000010  0.318371 0.000000 0.000000
53  -0.937649 -3.860697 -0.959321  0.170990 2.317753 -0.509471
54  -0.000001 -1.690610 -0.000006  0.719375 0.000000 0.000000
55  0.000010 -1.423428 0.000002  0.462042 -0.000000 0.000000
56  -1.546644 -3.404186 -1.915567  0.405593 2.516782 -0.490951
57  0.000018 -1.437810 0.000003  0.652785 0.000000 0.000000
58  -0.000010 -1.059383 0.000006  0.549901 0.000000 0.000000
59  -0.000015 -13.013512 -0.000006  0.010936 -0.284121 -0.076428
60  0.161118 -10.812521 0.023066  0.010936 -0.284121 -0.076428
time 10
0  -12.731775 1.281303 -4.554469  -1.515925 0.096451 0.478923
1  2.671567 7.268005 -10.025599  -1.004089 0.473805 -0.096671
2  0.000000 14.313017 0.000006  -1.192083 -0.190037 0.430055
3  0.207029 12.935361 0.058597  -0.643436 -0.409626 1.036720
4  1.330912 2.698447 -0.462437  0.194890 0.547268 -0.084879
5  0.023996 0.088629 0.019818  0.091218 -0.915384 -0.811368
6  -4.925780 -10.460941 3.189455  0.218220 3.094644 -0.641218
7  -0.083604 -1.860645 0.511793  0.262328 3.069335 -0.998756
8  4.777528 6.028133 1.897721  -1.090396 0.577049 -0.321829
9  5.490339 7.072694 2.428972  -1.090396 0.577049 -0.321829
10  6.562503 8.648444 3.232411  -1.090396 0.577049 -0.321829
11  7.558529 6.997287 -2.354132  1.204257 -2.866199 -0.131012
12  7.558521 6.997287 -2.354134  1.937336 0.275393 -0.131011
13  4.324080 2.744002 -0.524876  -1.090396 0.577049 -0.321829
14  5.012515 3.752836 -0.011802  -1.090396 0.577049 -0.321829
15  5.595490 4.607129 0.422676  -1.090396 0.577049 -0.321829
16  6.233836 5.542563 0.898425  -1.090396 0.577049 -0.321829
17  6.946657 6.587125 1.429667  -1.090396 0.577049 -0.321829
18  7.537931 7.453612 1.870347  -1.090396 0.577049 -0.321829
19  8.154484 8.357080 2.329838  -1.090396 0.577049 -0.321829
20  8.874299 9.411908 2.866308  -1.090396 0.577049 -0.321829
21  0.552589 1.343536 -1.604464  -0.801747 0.269213 -0.092434
22  -0.000020 2.021631 0.000020  0.548923 1.198496 0.361818
23  -0.000011 1.136206 -0.000023  1.217729 -0.674982 -0.142317
24  0.032713 4.587779 -1.352292  1.039690 2.032328 0.548732
25  -0.000003 1.754521 -0.000035  0.627284 0.101491 -0.145535
26  -0.000002 1.227070 0.000035  0.501508 0.322553 0.162331
27  0.368007 4.208414 -0.173242  0.304482 2.088151 -0.386476
28  -0.000005 2.372314 -0.000031  0.973113 -0.311527 -0.193761
29  -0.000004 1.580171 0.000031  -0.224018 0.170320 -0.069942
30  0.937673 3.860718 0.959334  -0.042574 2.614623 -0.776556
31  -0.000008 1.690667 0.000019  0.612129 -0.592523 -0.137571
32  0.000010 1.423417 0.000029  0.468028 0.102216 0.238697
33  1.546663 3.404218 1.915582  -0.241251 2.119727 -1.574982
34  -0.000026 1.437867 0.000029  0.355272 0.143212 -0.317811
35  0.000002 1.059370 0.000009  0.279599 0.062284 0.033795
36  40.747730 41.640160 32.315525  -3.080994 -0.080843 -0.051041
37  0.000007 -14.313034 -0.000004  -1.566513 -0.000000 0.000000
38  -0.000015 -13.013512 -0.000006  -0.615924 -2.081690 0.065723
39  -1.330892 -2.698433 0.462456  -0.194886 -0.547260 3.056712
40  -2.867753 -2.740973 0.531120  2.051196 0.577049 -0.321829
41  -4.125864 -2.321517 1.394417  2.051196 0.577049 -0.321829
42  -4.826808 -3.348666 0.872012  2.051196 0.577049 -0.321829
43  -5.441670 -4.249691 0.413766  2.051196 0.577049 -0.321829
44  -0.552552 -1.343532 1.604459  -0.687882 0.662133 -0.833274
45  0.000002 -2.021605 -0.000019  0.494293 -0.000000 0.000000
46  -0.000003 -1.136213 -0.000013  -0.290327 -0.000000 -0.000000
47  -0.032700 -4.587729 1.352320  -0.573077 1.763007 -0.431401
48  0.000003 -1.754535 0.000011  0.829780 0.000000 0.000000
49  -0.000000 -1.227036 -0.000015  0.528805 0.000000 -0.000000
50  -0.367986 -4.208378 0.173242  -0.373218 2.030790 -0.770720
51  0.000005 -2.372327 -0.000031  0.927479 -0.000000 -0.000000
52  0.000009 -1.580091 -0.000010  0.318371 0.000000 0.000000
53  -0.937649 -3.860697 -0.959321  0.170990 2.317753 -0.509471
54  -0.000001 -1.690610 -0.000006  0.719375 0.000000 0.000000
55  0.000010 -1.423428 0.000002  0.462042 -0.000000 0.000000
56  -1.546644 -3.404186 -1.915567  0.405593 2.516782 -0.490951
57  0.000018 -1.437810 0.000003  0.652785 0.000000 0.000000
58  -0.000010 -1.059383 0.000006  0.549901 0.000000 0.000000
59  -0.000015 -13.013512 -0.000006  0.010936 -0.284121 -0.076428
60  0.161118 -10.812521 0.023066  0.010936 -0.284121 -0.076428
time 11
0  -12.731775 1.281303 -4.554469  -1.515925 0.096451 0.478923
1  2.671567 7.268005 -10.025599  -1.036064 0.471659 -0.119738
2  0.000001 14.313020 -0.000001  -1.640116 -0.020154 0.472091
3  0.207027 12.935360 0.058594  -1.035169 -0.797034 1.397376
4  1.330907 2.698440 -0.462437  0.194890 0.547268 -0.084879
5  0.023986 0.088626 0.070329  0.091314 -0.915384 -0.811368
6  -4.925781 -10.460943 3.189456  0.218220 3.094644 -0.641218
7  -0.083604 -1.860650 0.511791  0.262328 3.069335 -0.998756
8  4.777525 6.028127 1.897720  -1.090396 0.577049 -0.321829
9  5.490343 7.072690 2.428970  -1.090396 0.577049 -0.321829
10  6.562506 8.648442 3.232412  -1.090396 0.577049 -0.321829
11  7.558525 6.997283 -2.354133  1.204257 -2.866200 -0.131012
12  7.558524 6.997284 -2.354134  1.937336 0.275393 -0.131011
13  4.324084 2.743999 -0.524879  -1.090396 0.577049 -0.321829
14  5.012512 3.752836 -0.011801  -1.090396 0.577049 -0.321829
15  5.595486 4.607122 0.422671  -1.090396 0.577049 -0.321829
16  6.233837 5.542560 0.898424  -1.090396 0.577049 -0.321829
17  6.946648 6.587123 1.429666  -1.090396 0.577049 -0.321829
18  7.537935 7.453607 1.870347  -1.090396 0.577049 -0.321829
19  8.154471 8.357075 2.329839  -1.090396 0.577049 -0.321829
20  8.874294 9.411904 2.866308  -1.090396 0.577049 -0.321829
21  0.552591 1.343535 -1.604466  -0.801747 0.269213 -0.092434
22  -0.000020 2.021633 0.000024  0.548923 1.198496 0.361818
23  -0.000013 1.136203 -0.000015  1.217729 -0.674962 -0.142317
24  0.032715 4.587778 -1.352290  1.039690 2.032328 0.548732
25  -0.000003 1.754517 -0.000033  0.627284 0.101491 -0.145535
26  0.000003 1.227072 0.000032  0.501508 0.322553 0.162331
27  0.368009 4.208414 -0.173241  0.304482 2.088151 -0.386476
28  -0.000006 2.372317 -0.000034  0.973113 -0.311527 -0.193761
29  -0.000003 1.580168 0.000035  -0.224018 0.170320 -0.069942
30  0.937673 3.860714 0.959332  -0.042574 2.614623 -0.776556
31  -0.000017 1.690665 0.000019  0.612129 -0.592523 -0.137571
32  0.000009 1.423421 0.000030  0.468028 0.102216 0.238697
33  1.546661 3.404215 1.915585  -0.241251 2.119727 -1.574982
34  -0.000021 1.437876 0.000029  0.355272 0.143212 -0.317811
35  0.000004 1.059371 0.000007  0.279599 0.062284 0.033795
36  40.747730 41.640160 32.315525  -3.080994 -0.080843 -0.051041
37  0.000007 -14.313034 -0.000004  -1.566513 -0.000000 0.000000
38  -0.000015 -13.013512 -0.000006  -0.615924 -2.081690 0.065723
39  -1.330892 -2.698433 0.462456  -0.194886 -0.547260 3.056712
40  -2.867753 -2.740973 0.531120  2.051196 0.577049 -0.321829
41  -4.125864 -2.321517 1.394417  2.051196 0.577049 -0.321829
42  -4.826808 -3.348666 0.872012  2.051196 0.577049 -0.321829
43  -5.441670 -4.249691 0.413766  2.051196 0.577049 -0.321829
44  -0.552552 -1.343532 1.604459  -0.687882 0.662133 -0.833274
45  0.000002 -2.021605 -0.000019  0.494293 -0.000000 0.000000
46  -0.000003 -1.136213 -0.000013  -0.290327 -0.000000 -0.000000
47  -0.032700 -4.587729 1.352320  -0.573077 1.763007 -0.431401
48  0.000003 -1.754535 0.000011  0.829780 0.000000 0.000000
49  -0.000000 -1.227036 -0.000015  0.528805 0.000000 -0.000000
50  -0.367986 -4.208378 0.173242  -0.373218 2.030790 -0.770720
51  0.000005 -2.372327 -0.000031  0.927479 -0.000000 -0.000000
52  0.000009 -1.580091 -0.000010  0.318371 0.000000 0.000000
53  -0.937649 -3.860697 -0.959321  0.170990 2.317753 -0.509471
54  -0.000001 -1.690610 -0.000006  0.719375 0.000000 0.000000
55  0.000010 -1.423428 0.000002  0.462042 -0.000000 0.000000
56  -1.546644 -3.404186 -1.915567  0.405593 2.516782 -0.490951
57  0.000018 -1.437810 0.000003  0.652785 0.000000 0.000000
58  -0.000010 -1.059383 0.000006  0.549901 0.000000 0.000000
59  -0.000015 -13.013512 -0.000006  0.010936 -0.284121 -0.076428
60  0.161118 -10.812521 0.023066  0.010936 -0.284121 -0.076428
time 12
0  -12.731775 1.281303 -4.554469  -1.515925 0.096451 0.478923
1  2.671567 7.268005 -10.025599  -1.045832 0.469752 -0.142806
2  -0.000000 14.313019 -0.000000  -1.920861 0.093044 0.426636
3  0.207029 12.935353 0.058596  -1.285933 -0.960410 1.637503
4  1.330907 2.698443 -0.462438  0.194890 0.547268 -0.084879
5  0.054890 0.088635 0.070330  0.091218 -0.915384 -0.811368
6  -4.925787 -10.460939 3.189456  0.218220 3.094644 -0.641218
7  -0.083603 -1.860646 0.511790  0.262328 3.069335 -0.998757
8  4.777527 6.028128 1.897719  -1.090396 0.577049 -0.321829
9  5.490340 7.072693 2.428969  -1.090396 0.577049 -0.321829
10  6.562499 8.648443 3.232415  -1.090396 0.577049 -0.321829
11  7.558526 6.997285 -2.354136  1.204257 -2.866199 -0.131012
12  7.558520 6.997286 -2.354137  1.937336 0.275393 -0.131011
13  4.324082 2.744004 -0.524879  -1.090396 0.577049 -0.321829
14  5.012510 3.752834 -0.011801  -1.090396 0.577049 -0.321829
15  5.595486 4.607126 0.422673  -1.090396 0.577049 -0.321829
16  6.233832 5.542564 0.898424  -1.090396 0.577049 -0.321829
17  6.946644 6.587128 1.429667  -1.090396 0.577049 -0.321829
18  7.537931 7.453610 1.870347  -1.090396 0.577049 -0.321829
19  8.154470 8.357082 2.329836  -1.090396 0.577049 -0.321829
20  8.874292 9.411907 2.866306  -1.090396 0.577049 -0.321829
21  0.552589 1.343539 -1.604465  -0.801747 0.269213 -0.092434
22  -0.000023 2.021634 0.000025  0.548923 1.198496 0.361818
23  -0.000012 1.136203 -0.000021  1.217729 -0.674962 -0.142317
24  0.032710 4.587779 -1.352291  1.039690 2.032328 0.548732
25  -0.000003 1.754520 -0.000039  0.627284 0.101491 -0.145535
26  0.000000 1.227075 0.000035  0.501508 0.322553 0.162331
27  0.368009 4.208413 -0.173243  0.304482 2.088151 -0.386476
28  -0.000004 2.372316 -0.000024  0.973113 -0.311527 -0.193761
29  -0.000003 1.580165 0.000033  -0.224018 0.170320 -0.069942
30  0.937661 3.860719 0.959334  -0.042574 2.614623 -0.776556
31  -0.000014 1.690667 0.000022  0.612129 -0.592523 -0.137571
32  0.000008 1.423422 0.000032  0.468028 0.102216 0.238697
33  1.546659 3.404217 1.915585  -0.241251 2.119727 -1.574982
34  -0.000022 1.437873 0.000034  0.355272 0.143212 -0.317811
35  0.000007 1.059373 0.000005  0.279599 0.062284 0.033795
36  40.747730 41.640160 32.315525  -3.080994 -0.080843 -0.051041
37  0.000007 -14.313034 -0.000004  -1.566513 -0.000000 0.000000
38  -0.000015 -13.013512 -0.000006  -0.615924 -2.081690 0.065723
39  -1.330892 -2.698433 0.462456  -0.194886 -0.547260 3.056712
40  -2.867753 -2.740973 0.531120  2.051196 0.577049 -0.321829
41  -4.125864 -2.321517 1.394417  2.051196 0.577049 -0.321829
42  -4.826808 -3.348666 0.872012  2.051196 0.577049 -0.321829
43  -5.441670 -4.249691 0.413766  2.051196 0.577049 -0.321829
44  -0.552552 -1.343532 1.604459  -0.687882 0.662133 -0.833274
45  0.000002 -2.021605 -0.000019  0.494293 -0.000000 0.000000
46  -0.000003 -1.136213 -0.000013  -0.290327 -0.000000 -0.000000
47  -0.032700 -4.587729 1.352320  -0.573077 1.763007 -0.431401
48  0.000003 -1.754535 0.000011  0.829780 0.000000 0.000000
49  -0.000000 -1.227036 -0.000015  0.528805 0.000000 -0.000000
50  -0.367986 -4.208378 0.173242  -0.373218 2.030790 -0.770720
51  0.000005 -2.372327 -0.000031  0.927479 -0.000000 -0.000000
52  0.000009 -1.580091 -0.000010  0.318371 0.000000 0.000000
53  -0.937649 -3.860697 -0.959321  0.170990 2.317753 -0.509471
54  -0.000001 -1.690610 -0.000006  0.719375 0.000000 0.000000
55  0.000010 -1.423428 0.000002  0.462042 -0.000000 0.000000
56  -1.546644 -3.404186 -1.915567  0.405593 2.516782 -0.490951
57  0.000018 -1.437810 0.000003  0.652785 0.000000 0.000000
58  -0.000010 -1.059383 0.000006  0.549901 0.000000 0.000000
59  -0.000015 -13.013512 -0.000006  0.010936 -0.284121 -0.076428
60  0.161118 -10.812521 0.023066  0.010936 -0.284121 -0.076428
time 13
0  -12.731775 1.281303 -4.554469  -1.515925 0.096451 0.478923
1  2.671567 7.268005 -10.025599  -1.046292 0.468989 -0.153346
2  -0.000001 14.313014 -0.000003  -2.008720 0.142660 0.404029
3  0.207027 12.935361 0.058592  -1.372514 -0.868734 1.741115
4  1.330910 2.698445 -0.462437  0.194890 0.547268 -0.084879
5  0.023990 0.088629 0.070329  0.091314 -0.915384 -0.811368
6  -4.925778 -10.460938 3.189456  0.218220 3.094644 -0.641218
7  -0.083600 -1.860646 0.511794  0.262328 3.069335 -0.998756
8  4.777527 6.028129 1.897721  -1.090396 0.577049 -0.321829
9  5.490344 7.072691 2.428972  -1.090396 0.577049 -0.321829
10  6.562501 8.648445 3.232420  -1.090396 0.577049 -0.321829
11  7.558527 6.997281 -2.354132  1.204257 -2.866200 -0.131012
12  7.558522 6.997283 -2.354133  1.937336 0.275393 -0.131011
13  4.324081 2.744003 -0.524877  -1.090396 0.577049 -0.321829
14  5.012512 3.752836 -0.011800  -1.090396 0.577049 -0.321829
15  5.595490 4.607127 0.422673  -1.090396 0.577049 -0.321829
16  6.233839 5.542564 0.898423  -1.090396 0.577049 -0.321829
17  6.946651 6.587124 1.429664  -1.090396 0.577049 -0.321829
18  7.537933 7.453612 1.870346  -1.090396 0.577049 -0.321829
19  8.154477 8.357079 2.329835  -1.090396 0.577049 -0.321829
20  8.874296 9.411904 2.866309  -1.090396 0.577049 -0.321829
21  0.552592 1.343534 -1.604464  -0.801747 0.269213 -0.092434
22  -0.000022 2.021631 0.000024  0.548923 1.198496 0.361818
23  -0.000013 1.136204 -0.000017  1.217729 -0.674962 -0.142317
24  0.032713 4.587781 -1.352288  1.039690 2.032328 0.548732
25  -0.000005 1.754518 -0.000034  0.627284 0.101491 -0.145535
26  0.000000 1.227072 0.000037  0.501508 0.322553 0.162331
27  0.368012 4.208411 -0.173240  0.304482 2.088151 -0.386476
28  -0.000004 2.372316 -0.000033  0.973113 -0.311527 -0.193761
29  -0.000003 1.580165 0.000032  -0.224018 0.170320 -0.069942
30  0.937671 3.860717 0.959334  -0.042574 2.614623 -0.776556
31  -0.000015 1.690667 0.000014  0.612129 -0.592523 -0.137571
32  0.000006 1.423418 0.000032  0.468028 0.102216 0.238697
33  1.546658 3.404218 1.915586  -0.241251 2.119727 -1.574982
34  -0.000029 1.437872 0.000032  0.355272 0.143212 -0.317811
35  0.000008 1.059373 0.000007  0.279599 0.062284 0.033795
36  40.747730 41.640160 32.315525  -3.080994 -0.080843 -0.051041
37  0.000007 -14.313034 -0.000004  -1.566513 -0.000000 0.000000
38  -0.000015 -13.013512 -0.000006  -0.615924 -2.081690 0.065723
39  -1.330892 -2.698433 0.462456  -0.194886 -0.547260 3.056712
40  -2.867753 -2.740973 0.531120  2.051196 0.577049 -0.321829
41  -4.125864 -2.321517 1.394417  2.051196 0.577049 -0.321829
42  -4.826808 -3.348666 0.872012  2.051196 0.577049 -0.321829
43  -5.441670 -4.249691 0.413766  2.051196 0.577049 -0.321829
44  -0.552552 -1.343532 1.604459  -0.687882 0.662133 -0.833274
45  0.000002 -2.021605 -0.000019  0.494293 -0.000000 0.000000
46  -0.000003 -1.136213 -0.000013  -0.290327 -0.000000 -0.000000
47  -0.032700 -4.587729 1.352320  -0.573077 1.763007 -0.431401
48  0.000003 -1.754535 0.000011  0.829780 0.000000 0.000000
49  -0.000000 -1.227036 -0.000015  0.528805 0.000000 -0.000000
50  -0.367986 -4.208378 0.173242  -0.373218 2.030790 -0.770720
51  0.000005 -2.372327 -0.000031  0.927479 -0.000000 -0.000000
52  0.000009 -1.580091 -0.000010  0.318371 0.000000 0.000000
53  -0.937649 -3.860697 -0.959321  0.170990 2.317753 -0.509471
54  -0.000001 -1.690610 -0.000006  0.719375 0.000000 0.000000
55  0.000010 -1.423428 0.000002  0.462042 -0.000000 0.000000
56  -1.546644 -3.404186 -1.915567  0.405593 2.516782 -0.490951
57  0.000018 -1.437810 0.000003  0.652785 0.000000 0.000000
58  -0.000010 -1.059383 0.000006  0.549901 0.000000 0.000000
59  -0.000015 -13.013512 -0.000006  0.010936 -0.284121 -0.076428
60  0.161118 -10.812521 0.023066  0.010936 -0.284121 -0.076428
time 14
0  -12.731775 1.281303 -4.554469  -1.515925 0.096451 0.478923
1  2.671567 7.268005 -10.025599  -1.037198 0.469467 -0.147745
2  -0.000001 14.313015 -0.000002  -2.008740 0.142666 0.404044
3  0.207026 12.935361 0.058587  -1.390304 -0.759771 1.762404
4  1.330909 2.698446 -0.462435  0.194890 0.547268 -0.084879
5  0.023988 0.088629 0.070330  0.091314 -0.915384 -0.811368
6  -4.925358 -10.460927 3.189457  0.218220 3.094644 -0.641218
7  -0.083594 -1.860236 0.511794  0.262328 3.069335 -0.998756
8  4.777530 6.028128 1.897720  -1.090396 0.577049 -0.321829
9  5.490343 7.072692 2.428971  -1.090396 0.577049 -0.321829
10  6.562501 8.648443 3.232216  -1.090396 0.577049 -0.321829
11  7.558529 6.997282 -2.354134  1.204257 -2.866200 -0.131012
12  7.558522 6.997285 -2.354133  1.937336 0.275393 -0.131011
13  4.324080 2.744003 -0.524876  -1.090396 0.577049 -0.321829
14  5.012512 3.752835 -0.011799  -1.090396 0.577049 -0.321829
15  5.595488 4.607127 0.422675  -1.090396 0.577049 -0.321829
16  6.233836 5.542564 0.898426  -1.090396 0.577049 -0.321829
17  6.946651 6.587124 1.429664  -1.090396 0.577049 -0.321829
18  7.537932 7.453610 1.870345  -1.090396 0.577049 -0.321829
19  8.154476 8.357077 2.329836  -1.090396 0.577049 -0.321829
20  8.874296 9.411906 2.866309  -1.090396 0.577049 -0.321829
21  0.552592 1.343534 -1.604463  -0.808550 0.268533 -0.102582
22  -0.000021 2.021630 0.000025  0.584165 1.162800 0.344963
23  -0.000012 1.136202 -0.000017  1.217729 -0.674962 -0.142317
24  0.032717 4.587779 -1.352288  1.077356 2.014680 0.580151
25  -0.000004 1.754517 -0.000031  0.627284 0.101491 -0.145535
26  0.000000 1.227070 0.000037  0.497439 0.305125 0.155956
27  0.368010 4.208414 -0.173238  0.291722 2.081988 -0.382201
28  -0.000004 2.372317 -0.000036  0.973114 -0.311528 -0.193761
29  -0.000002 1.580169 0.000031  -0.175711 0.194816 -0.062756
30  0.937673 3.860715 0.959334  -0.050941 2.605792 -0.764759
31  -0.000018 1.690667 0.000017  0.630533 -0.589475 -0.138539
32  0.000007 1.423419 0.000033  0.463704 0.112652 0.222471
33  1.546659 3.404217 1.915585  -0.210916 2.144105 -1.511583
34  -0.000028 1.437871 0.000032  0.344056 0.124007 -0.283004
35  0.000007 1.059371 0.000005  0.331776 0.056859 0.028414
36  40.747730 41.640160 32.315525  -3.080994 -0.080843 -0.051041
37  0.000007 -14.313034 -0.000004  -1.566513 -0.000000 0.000000
38  -0.000015 -13.013512 -0.000006  -0.615924 -2.081690 0.065723
39  -1.330892 -2.698433 0.462456  -0.194886 -0.547260 3.056712
40  -2.867753 -2.740973 0.531120  2.051196 0.577049 -0.321829
41  -4.125864 -2.321517 1.394417  2.051196 0.577049 -0.321829
42  -4.826808 -3.348666 0.872012  2.051196 0.577049 -0.321829
43  -5.441670 -4.249691 0.413766  2.051196 0.577049 -0.321829
44  -0.552552 -1.343532 1.604459  -0.687882 0.662133 -0.833274
45  0.000002 -2.021605 -0.000019  0.494293 -0.000000 0.000000
46  -0.000003 -1.136213 -0.000013  -0.290327 -0.000000 -0.000000
47  -0.032700 -4.587729 1.352320  -0.573077 1.763007 -0.431401
48  0.000003 -1.754535 0.000011  0.829780 0.000000 0.000000
49  -0.000000 -1.227036 -0.000015  0.528805 0.000000 -0.000000
50  -0.367986 -4.208378 0.173242  -0.373218 2.030790 -0.770720
51  0.000005 -2.372327 -0.000031  0.927479 -0.000000 -0.000000
52  0.000009 -1.580091 -0.000010  0.318371 0.000000 0.000000
53  -0.937649 -3.860697 -0.959321  0.170990 2.317753 -0.509471
54  -0.000001 -1.690610 -0.000006  0.719375 0.000000 0.000000
55  0.000010 -1.423428 0.000002  0.462042 -0.000000 0.000000
56  -1.546644 -3.404186 -1.915567  0.405593 2.516782 -0.490951
57  0.000018 -1.437810 0.000003  0.652785 0.000000 0.000000
58  -0.000010 -1.059383 0.000006  0.549901 0.000000 0.000000
59  -0.000015 -13.013512 -0.000006  0.010936 -0.284121 -0.076428
60  0.161118 -10.812521 0.023066  0.010936 -0.284121 -0.076428
time 15
0  -12.731775 1.281303 -4.554469  -1.515925 0.096451 0.478923
1  2.671565 7.268005 -10.025599  -1.015529 0.470665 -0.134412
2  -0.000002 14.313018 0.000002  -2.008753 0.142666 0.404054
3  0.207025 12.935356 0.058586  -1.401095 -0.684597 1.775317
4  1.330911 2.698448 -0.462435  0.194890 0.547268 -0.084879
5  0.023988 0.088628 0.070329  0.091314 -0.915384 -0.811368
6  -4.924387 -10.460928 3.189456  0.218220 3.094644 -0.641218
7  -0.083593 -1.859264 0.511795  0.262328 3.069335 -0.998756
8  4.777532 6.028129 1.897720  -1.090396 0.577049 -0.321829
9  5.490346 7.072691 2.428970  -1.090396 0.577049 -0.321829
10  6.562504 8.648442 3.231733  -1.090396 0.577049 -0.321829
11  7.558534 6.997282 -2.354135  1.204257 -2.866200 -0.131012
12  7.558528 6.997284 -2.354135  1.937336 0.275393 -0.131011
13  4.324081 2.744003 -0.524877  -1.090396 0.577049 -0.321829
14  5.012513 3.752835 -0.011800  -1.090396 0.577049 -0.321829
15  5.595489 4.607126 0.422673  -1.090396 0.577049 -0.321829
16  6.233838 5.542562 0.898425  -1.090396 0.577049 -0.321829
17  6.946651 6.587126 1.429663  -1.090396 0.577049 -0.321829
18  7.537934 7.453607 1.870346  -1.090396 0.577049 -0.321829
19  8.154475 8.357078 2.329838  -1.090396 0.577049 -0.321829
20  8.874295 9.411908 2.866308  -1.090396 0.577049 -0.321829
21  0.552590 1.343534 -1.604464  -0.824656 0.266746 -0.126775
22  -0.000022 2.021631 0.000027  0.694782 1.075126 0.331312
23  -0.000012 1.136203 -0.000018  1.217729 -0.674962 -0.142317
24  0.032720 4.587776 -1.352289  1.177737 1.974393 0.665247
25  -0.000005 1.754516 -0.000033  0.627284 0.101491 -0.145535
26  0.000001 1.227070 0.000037  0.487866 0.263564 0.140821
27  0.368013 4.208413 -0.173238  0.261643 2.067326 -0.371610
28  -0.000005 2.372318 -0.000035  0.973116 -0.311530 -0.193762
29  -0.000001 1.580169 0.000031  -0.060431 0.253229 -0.045582
30  0.937673 3.860716 0.959335  -0.070352 2.585186 -0.735754
31  -0.000016 1.690667 0.000019  0.674441 -0.582202 -0.140868
32  0.000008 1.423420 0.000031  0.453190 0.137591 0.183820
33  1.546662 3.404216 1.915585  -0.156286 2.208413 -1.378511
34  -0.000027 1.437871 0.000034  0.315194 0.077641 -0.200642
35  0.000007 1.059374 0.000007  0.456224 0.043922 0.015584
36  40.747730 41.640160 32.315525  -3.080994 -0.080843 -0.051041
37  0.000007 -14.313034 -0.000004  -1.566513 -0.000000 0.000000
38  -0.000015 -13.013512 -0.000006  -0.615924 -2.081690 0.065723
39  -1.330892 -2.698433 0.462456  -0.194886 -0.547260 3.056712
40  -2.867753 -2.740973 0.531120  2.051196 0.577049 -0.321829
41  -4.125864 -2.321517 1.394417  2.051196 0.577049 -0.321829
42  -4.826808 -3.348666 0.872012  2.051196 0.577049 -0.321829
43  -5.441670 -4.249691 0.413766  2.051196 0.577049 -0.321829
44  -0.552552 -1.343532 1.604459  -0.687882 0.662133 -0.833274
45  0.000002 -2.021605 -0.000019  0.494293 -0.000000 0.000000
46  -0.000003 -1.136213 -0.000013  -0.290327 -0.000000 -0.000000
47  -0.032700 -4.587729 1.352320  -0.573077 1.763007 -0.431401
48  0.000003 -1.754535 0.000011  0.829780 0.000000 0.000000
49  -0.000000 -1.227036 -0.000015  0.528805 0.000000 -0.000000
50  -0.367986 -4.208378 0.173242  -0.373218 2.030790 -0.770720
51  0.000005 -2.372327 -0.000031  0.927479 -0.000000 -0.000000
52  0.000009 -1.580091 -0.000010  0.318371 0.000000 0.000000
53  -0.937649 -3.860697 -0.959321  0.170990 2.317753 -0.509471
54  -0.000001 -1.690610 -0.000006  0.719375 0.000000 0.000000
55  0.000010 -1.423428 0.000002  0.462042 -0.000000 0.000000
56  -1.546644 -3.404186 -1.915567  0.405593 2.516782 -0.490951
57  0.000018 -1.437810 0.000003  0.652785 0.000000 0.000000
58  -0.000010 -1.059383 0.000006  0.549901 0.000000 0.000000
59  -0.000015 -13.013512 -0.000006  0.010936 -0.284121 -0.076428
60  0.161118 -10.812521 0.023066  0.010936 -0.284121 -0.076428
time 16
0  -12.731775 1.281303 -4.554469  -1.515925 0.096451 0.478923
1  2.671565 7.268005 -10.025600  -0.989700 0.472203 -0.118541
2  -0.000002 14.313025 0.000006  -2.008759 0.142665 0.404061
3  0.207024 12.935354 0.058586  -1.406636 -0.637712 1.781948
4  1.330911 2.698448 -0.462435  0.194890 0.547268 -0.084879
5  0.023988 0.088628 0.070330  0.091314 -0.915384 -0.811368
6  -4.923237 -10.460928 3.189454  0.218220 3.094644 -0.641218
7  -0.083594 -1.858109 0.511793  0.262329 3.069335 -0.998756
8  4.777533 6.028128 1.897719  -1.090396 0.577049 -0.321829
9  5.490348 7.072690 2.428967  -1.090396 0.577049 -0.321829
10  6.562504 8.648440 3.231153  -1.090396 0.577049 -0.321829
11  7.558534 6.997284 -2.354136  1.204257 -2.866200 -0.131012
12  7.558528 6.997286 -2.354135  1.937336 0.275393 -0.131011
13  4.324081 2.744001 -0.524877  -1.090396 0.577049 -0.321829
14  5.012510 3.752835 -0.011799  -1.090396 0.577049 -0.321829
15  5.595486 4.607127 0.422674  -1.090396 0.577049 -0.321829
16  6.233835 5.542563 0.898425  -1.090396 0.577049 -0.321829
17  6.946649 6.587129 1.429664  -1.090396 0.577049 -0.321829
18  7.537934 7.453607 1.870347  -1.090396 0.577049 -0.321829
19  8.154474 8.357077 2.329839  -1.090396 0.577049 -0.321829
20  8.874294 9.411910 2.866308  -1.090396 0.577049 -0.321829
21  0.552589 1.343533 -1.604464  -0.843656 0.264311 -0.155630
22  -0.000023 2.021633 0.000028  0.857946 0.967602 0.346201
23  -0.000010 1.136202 -0.000018  1.217729 -0.674962 -0.142317
24  0.032723 4.587774 -1.352291  1.320964 1.930626 0.789534
25  -0.000005 1.754518 -0.000031  0.627284 0.101491 -0.145535
26  0.000002 1.227069 0.000034  0.476668 0.213957 0.122858
27  0.368012 4.208415 -0.173237  0.226435 2.049893 -0.358183
28  -0.000006 2.372317 -0.000031  0.973118 -0.311532 -0.193762
29  0.000000 1.580173 0.000031  0.077332 0.322945 -0.024997
30  0.937673 3.860717 0.959336  -0.092486 2.561484 -0.699497
31  -0.000019 1.690667 0.000023  0.726886 -0.573515 -0.143683
32  0.000007 1.423421 0.000030  0.440266 0.167439 0.137742
33  1.546664 3.404214 1.915585  -0.118647 2.293961 -1.247905
34  -0.000027 1.437871 0.000036  0.276870 0.021534 -0.103168
35  0.000008 1.059371 0.000005  0.604803 0.028480 0.000277
36  40.747730 41.640160 32.315525  -3.080994 -0.080843 -0.051041
37  0.000007 -14.313034 -0.000004  -1.566513 -0.000000 0.000000
38  -0.000015 -13.013512 -0.000006  -0.615924 -2.081690 0.065723
39  -1.330892 -2.698433 0.462456  -0.194886 -0.547260 3.056712
40  -2.867753 -2.740973 0.531120  2.051196 0.577049 -0.321829
41  -4.125864 -2.321517 1.394417  2.051196 0.577049 -0.321829
42  -4.826808 -3.348666 0.872012  2.051196 0.577049 -0.321829
43  -5.441670 -4.249691 0.413766  2.051196 0.577049 -0.321829
44  -0.552552 -1.343532 1.604459  -0.687882 0.662133 -0.833274
45  0.000002 -2.021605 -0.000019  0.494293 -0.000000 0.000000
46  -0.000003 -1.136213 -0.000013  -0.290327 -0.000000 -0.000000
47  -0.032700 -4.587729 1.352320  -0.573077 1.763007 -0.431401
48  0.000003 -1.754535 0.000011  0.829780 0.000000 0.000000
49  -0.000000 -1.227036 -0.000015  0.528805 0.000000 -0.000000
50  -0.367986 -4.208378 0.173242  -0.373218 2.030790 -0.770720
51  0.000005 -2.372327 -0.000031  0.927479 -0.000000 -0.000000
52  0.000009 -1.580091 -0.000010  0.318371 0.000000 0.000000
53  -0.937649 -3.860697 -0.959321  0.170990 2.317753 -0.509471
54  -0.000001 -1.690610 -0.000006  0.719375 0.000000 0.000000
55  0.000010 -1.423428 0.000002  0.462042 -0.000000 0.000000
56  -1.546644 -3.404186 -1.915567  0.405593 2.516782 -0.490951
57  0.000018 -1.437810 0.000003  0.652785 0.000000 0.000000
58  -0.000010 -1.059383 0.000006  0.549901 0.000000 0.000000
59  -0.000015 -13.013512 -0.000006  0.010936 -0.284121 -0.076428
60  0.161118 -10.812521 0.023066  0.010936 -0.284121 -0.076428
time 17
0  -12.731775 1.281303 -4.554469  -1.515925 0.096451 0.478923
1  2.671562 7.268005 -10.025601  -0.968086 0.473583 -0.105279
2  -0.000003 14.313027 0.000008  -2.008761 0.142662 0.404064
3  0.207024 12.935351 0.058587  -1.408677 -0.613614 1.784391
4  1.330912 2.698448 -0.462435  0.194890 0.547268 -0.084879
5  0.023987 0.088629 0.070330  0.091314 -0.915384 -0.811368
6  -4.922276 -10.460934 3.189452  0.218221 3.094644 -0.641218
7  -0.083595 -1.857143 0.511791  0.262329 3.069335 -0.998756
8  4.777534 6.028131 1.897720  -1.090396 0.577049 -0.321829
9  5.490350 7.072690 2.428966  -1.090396 0.577049 -0.321829
10  6.562505 8.648442 3.230671  -1.090396 0.577049 -0.321829
11  7.558537 6.997285 -2.354137  1.204257 -2.866200 -0.131012
12  7.558533 6.997287 -2.354137  1.937336 0.275393 -0.131011
13  4.324082 2.744002 -0.524877  -1.090396 0.577049 -0.321829
14  5.012511 3.752835 -0.011799  -1.090396 0.577049 -0.321829
15  5.595487 4.607126 0.422675  -1.090396 0.577049 -0.321829
16  6.233835 5.542565 0.898426  -1.090396 0.577049 -0.321829
17  6.946653 6.587129 1.429665  -1.090396 0.577049 -0.321829
18  7.537935 7.453605 1.870349  -1.090396 0.577049 -0.321829
19  8.154475 8.357078 2.329839  -1.090396 0.577049 -0.321829
20  8.874294 9.411913 2.866307  -1.090396 0.577049 -0.321829
21  0.552588 1.343531 -1.604464  -0.859380 0.262023 -0.179786
22  -0.000026 2.021632 0.000028  1.010273 0.876160 0.374453
23  -0.000009 1.136202 -0.000018  1.217729 -0.674962 -0.142317
24  0.032727 4.587771 -1.352292  1.464658 1.898917 0.916797
25  -0.000003 1.754517 -0.000031  0.627284 0.101491 -0.145535
26  0.000002 1.227070 0.000038  0.467469 0.172392 0.107876
27  0.368011 4.208416 -0.173237  0.197576 2.035347 -0.346218
28  -0.000006 2.372319 -0.000032  0.973120 -0.311534 -0.193763
29  -0.000000 1.580172 0.000032  0.192912 0.381354 -0.007655
30  0.937674 3.860716 0.959336  -0.110133 2.542428 -0.667723
31  -0.000021 1.690667 0.000026  0.770856 -0.566230 -0.146071
32  0.000006 1.423420 0.000028  0.429121 0.192498 0.099156
33  1.546661 3.404217 1.915587  -0.105206 2.370997 -1.157033
34  -0.000023 1.437871 0.000033  0.241530 -0.025830 -0.021835
35  0.000007 1.059371 0.000007  0.729327 0.015542 -0.012544
36  40.747730 41.640160 32.315525  -3.080994 -0.080843 -0.051041
37  0.000007 -14.313034 -0.000004  -1.566513 -0.000000 0.000000
38  -0.000015 -13.013512 -0.000006  -0.615924 -2.081690 0.065723
39  -1.330892 -2.698433 0.462456  -0.194886 -0.547260 3.056712
40  -2.867753 -2.740973 0.531120  2.051196 0.577049 -0.321829
41  -4.125864 -2.321517 1.394417  2.051196 0.577049 -0.321829
42  -4.826808 -3.348666 0.872012  2.051196 0.577049 -0.321829
43  -5.441670 -4.249691 0.413766  2.051196 0.577049 -0.321829
44  -0.552552 -1.343532 1.604459  -0.687882 0.662133 -0.833274
45  0.000002 -2.021605 -0.000019  0.494293 -0.000000 0.000000
46  -0.000003 -1.136213 -0.000013  -0.290327 -0.000000 -0.000000
47  -0.032700 -4.587729 1.352320  -0.573077 1.763007 -0.431401
48  0.000003 -1.754535 0.000011  0.829780 0.000000 0.000000
49  -0.000000 -1.227036 -0.000015  0.528805 0.000000 -0.000000
50  -0.367986 -4.208378 0.173242  -0.373218 2.030790 -0.770720
51  0.000005 -2.372327 -0.000031  0.927479 -0.000000 -0.000000
52  0.000009 -1.580091 -0.000010  0.318371 0.000000 0.000000
53  -0.937649 -3.860697 -0.959321  0.170990 2.317753 -0.509471
54  -0.000001 -1.690610 -0.000006  0.719375 0.000000 0.000000
55  0.000010 -1.423428 0.000002  0.462042 -0.000000 0.000000
56  -1.546644 -3.404186 -1.915567  0.405593 2.516782 -0.490951
57  0.000018 -1.437810 0.000003  0.652785 0.000000 0.000000
58  -0.000010 -1.059383 0.000006  0.549901 0.000000 0.000000
59  -0.000015 -13.013512 -0.000006  0.010936 -0.284121 -0.076428
60  0.161118 -10.812521 0.023066  0.010936 -0.284121 -0.076428
time 18
0  -12.731775 1.281303 -4.554469  -1.515925 0.096451 0.478923
1  2.671562 7.268005 -10.025601  -0.959029 0.474187 -0.099727
2  -0.000002 14.313030 0.000008  -2.008761 0.142661 0.404065
3  0.207023 12.935349 0.058584  -1.408969 -0.606804 1.784740
4  1.330912 2.698444 -0.462435  0.194890 0.547268 -0.084879
5  0.023987 0.088626 0.070330  0.091314 -0.915384 -0.811368
6  -4.921872 -10.460938 3.189452  0.218221 3.094644 -0.641218
7  -0.083597 -1.856740 0.511790  0.262329 3.069335 -0.998756
8  4.777535 6.028125 1.897719  -1.090396 0.577049 -0.321829
9  5.490350 7.072688 2.428964  -1.090396 0.577049 -0.321829
10  6.562503 8.648436 3.230470  -1.090396 0.577049 -0.321829
11  7.558536 6.997282 -2.354136  1.204257 -2.866200 -0.131012
12  7.558532 6.997283 -2.354136  1.937336 0.275393 -0.131011
13  4.324081 2.743996 -0.524878  -1.090396 0.577049 -0.321829
14  5.012510 3.752830 -0.011799  -1.090396 0.577049 -0.321829
15  5.595486 4.607123 0.422675  -1.090396 0.577049 -0.321829
16  6.233832 5.542562 0.898427  -1.090396 0.577049 -0.321829
17  6.946651 6.587126 1.429666  -1.090396 0.577049 -0.321829
18  7.537934 7.453599 1.870349  -1.090396 0.577049 -0.321829
19  8.154472 8.357075 2.329840  -1.090396 0.577049 -0.321829
20  8.874294 9.411909 2.866307  -1.090396 0.577049 -0.321829
21  0.552587 1.343528 -1.604463  -0.865920 0.260997 -0.189909
22  -0.000024 2.021634 0.000029  1.077041 0.837586 0.389258
23  -0.000007 1.136202 -0.000020  1.217729 -0.674962 -0.142317
24  0.032728 4.587767 -1.352293  1.532057 1.887339 0.977156
25  -0.000004 1.754518 -0.000030  0.627284 0.101491 -0.145535
26  0.000002 1.227069 0.000038  0.463659 0.154962 0.101608
27  0.368011 4.208412 -0.173237  0.185662 2.029265 -0.340992
28  -0.000007 2.372318 -0.000035  0.973121 -0.311535 -0.193763
29  0.000000 1.580172 0.000033  0.241427 0.405847 -0.000352
30  0.937674 3.860713 0.959336  -0.117285 2.534668 -0.654015
31  -0.000018 1.690668 0.000025  0.789304 -0.563174 -0.147080
32  0.000007 1.423421 0.000027  0.424361 0.203017 0.082974
33  1.546664 3.404212 1.915586  -0.103529 2.404430 -1.122990
34  -0.000023 1.437870 0.000033  0.225833 -0.045726 0.012262
35  0.000005 1.059372 0.000006  0.781556 0.010116 -0.017920
36  40.747730 41.640160 32.315525  -3.080994 -0.080843 -0.051041
37  0.000007 -14.313034 -0.000004  -1.566513 -0.000000 0.000000
38  -0.000015 -13.013512 -0.000006  -0.615924 -2.081690 0.065723
39  -1.330892 -2.698433 0.462456  -0.194886 -0.547260 3.056712
40  -2.867753 -2.740973 0.531120  2.051196 0.577049 -0.321829
41  -4.125864 -2.321517 1.394417  2.051196 0.577049 -0.321829
42  -4.826808 -3.348666 0.872012  2.051196 0.577049 -0.321829
43  -5.441670 -4.249691 0.413766  2.051196 0.577049 -0.321829
44  -0.552552 -1.343532 1.604459  -0.687882 0.662133 -0.833274
45  0.000002 -2.021605 -0.000019  0.494293 -0.000000 0.000000
46  -0.000003 -1.136213 -0.000013  -0.290327 -0.000000 -0.000000
47  -0.032700 -4.587729 1.352320  -0.573077 1.763007 -0.431401
48  0.000003 -1.754535 0.000011  0.829780 0.000000 0.000000
49  -0.000000 -1.227036 -0.000015  0.528805 0.000000 -0.000000
50  -0.367986 -4.208378 0.173242  -0.373218 2.030790 -0.770720
51  0.000005 -2.372327 -0.000031  0.927479 -0.000000 -0.000000
52  0.000009 -1.580091 -0.000010  0.318371 0.000000 0.000000
53  -0.937649 -3.860697 -0.959321  0.170990 2.317753 -0.509471
54  -0.000001 -1.690610 -0.000006  0.719375 0.000000 0.000000
55  0.000010 -1.423428 0.000002  0.462042 -0.000000 0.000000
56  -1.546644 -3.404186 -1.915567  0.405593 2.516782 -0.490951
57  0.000018 -1.437810 0.000003  0.652785 0.000000 0.000000
58  -0.000010 -1.059383 0.000006  0.549901 0.000000 0.000000
59  -0.000015 -13.013512 -0.000006  0.010936 -0.284121 -0.076428
60  0.161118 -10.812521 0.023066  0.010936 -0.284121 -0.076428
end
