version 1
nodes
0 "root" -1
1 "bip_upperArm_R" 0
2 "bip_lowerArm_R" 1
3 "bip_hand_R" 2
4 "effect_hand_R" 3
5 "weapon_bone" 3
6 "weapon_bone_1" 3
7 "weapon_bone_2" 3
8 "weapon_bone_3" 3
9 "weapon_bone_4" 3
10 "weapon_bone_5" 3
11 "weapon_bone_6" 3
12 "weapon_bone_7" 3
13 "vm_weapon_bone" 3
14 "vm_weapon_bone_1" 3
15 "vm_weapon_bone_2" 3
16 "vm_weapon_bone_3" 3
17 "vm_weapon_bone_4" 3
18 "vm_weapon_bone_5" 3
19 "vm_weapon_bone_6" 3
20 "vm_weapon_bone_7" 3
21 "bip_thumb_0_R" 3
22 "bip_thumb_1_R" 21
23 "bip_thumb_2_R" 22
24 "bip_index_0_R" 3
25 "bip_index_1_R" 24
26 "bip_index_2_R" 25
27 "bip_middle_0_R" 3
28 "bip_middle_1_R" 27
29 "bip_middle_2_R" 28
30 "bip_ring_0_R" 3
31 "bip_ring_1_R" 30
32 "bip_ring_2_R" 31
33 "bip_pinky_0_R" 3
34 "bip_pinky_1_R" 33
35 "bip_pinky_2_R" 34
36 "bip_upperArm_L" 0
37 "bip_lowerArm_L" 36
38 "bip_hand_L" 37
39 "effect_hand_L" 38
40 "weapon_bone_L" 38
41 "vm_weapon_bone_L" 38
42 "vm_weapon_bone_L_1" 38
43 "vm_weapon_bone_L_2" 38
44 "bip_thumb_0_L" 38
45 "bip_thumb_1_L" 44
46 "bip_thumb_2_L" 45
47 "bip_index_0_L" 38
48 "bip_index_1_L" 47
49 "bip_index_2_L" 48
50 "bip_middle_0_L" 38
51 "bip_middle_1_L" 50
52 "bip_middle_2_L" 51
53 "bip_ring_0_L" 38
54 "bip_ring_1_L" 53
55 "bip_ring_2_L" 54
56 "bip_pinky_0_L" 38
57 "bip_pinky_1_L" 56
58 "bip_pinky_2_L" 57
59 "Sleeve_Control" 37
60 "Wrist_Control" 37
end
skeleton
time 0
0  -13.202128 1.159050 -7.423160  -1.515925 0.096451 0.478923
1  -7.059203 7.545356 -8.025541  0.184695 0.469752 1.608614
2  0.000000 14.313021 0.000002  -1.640116 -0.020154 0.472091
3  0.209103 12.929690 0.059383  1.358951 0.763489 1.041063
4  1.330914 2.698445 -0.462433  0.194890 0.547268 -0.084879
5  0.054897 0.088628 0.019820  0.091314 -0.915384 -0.811368
6  -4.925780 -10.460939 3.189455  0.218218 3.094627 -0.641216
7  -0.083603 -1.860648 0.507887  0.262328 3.069335 -0.998757
8  4.777530 6.028126 1.897720  -1.090396 0.577049 -0.321829
9  5.490342 7.072693 2.428973  -1.090396 0.577049 -0.321829
10  6.562502 8.640623 3.230468  -1.090396 0.577049 -0.321829
11  7.558526 6.997286 -2.354130  1.204257 -2.866200 -0.131012
12  7.558528 6.997285 -2.354133  1.937336 0.275393 -0.131011
13  4.324085 2.743999 -0.524877  -1.090396 0.577049 -0.321829
14  5.012514 3.752836 -0.011802  -1.090396 0.577049 -0.321829
15  5.595490 4.607122 0.422676  -1.090396 0.577049 -0.321829
16  6.233829 5.542564 0.898425  -1.090396 0.577049 -0.321829
17  6.946651 6.587124 1.429667  -1.090396 0.577049 -0.321829
18  7.537937 7.453608 1.870347  -1.090396 0.577049 -0.321829
19  8.154478 8.357077 2.329839  -1.090396 0.577049 -0.321829
20  8.874293 9.411908 2.866310  -1.090396 0.577049 -0.321829
21  0.552590 1.343535 -1.604464  -0.807783 0.821535 -0.281474
22  -0.000021 2.021631 0.000028  0.267212 0.696438 -0.514300
23  -0.000009 1.136202 -0.000022  0.696158 -0.537186 -0.135701
24  0.032722 4.587770 -1.352289  -0.233933 1.976944 0.085238
25  -0.000005 1.754514 -0.000035  0.627284 0.101491 -0.145535
26  -0.000001 1.227073 0.000030  0.018233 0.049783 -0.042514
27  0.368011 4.208414 -0.173235  -1.115370 2.109226 -0.776760
28  -0.000007 2.372313 -0.000030  0.972894 0.100970 -0.131429
29  -0.000001 1.580171 0.000031  -0.224018 0.170320 -0.069954
30  0.937671 3.860715 0.959333  -0.550002 2.892020 -0.331346
31  -0.000011 1.690662 0.000018  0.197181 -0.658789 0.010530
32  0.000008 1.423426 0.000031  0.172911 0.123491 0.133473
33  1.546671 3.404215 1.915584  -1.177792 2.593156 -0.760010
34  -0.000020 1.437874 0.000031  0.840743 -0.088724 0.008204
35  0.000004 1.059371 0.000005  0.279571 0.062288 0.033798
36  20.812498 21.984373 -10.562499  -3.080848 -0.080874 -0.050958
37  -0.000003 -14.313034 -0.000002  -1.566513 0.000000 -0.000000
38  -0.000005 -13.013484 -0.000008  -0.615924 -2.081690 0.065723
39  -1.330879 -2.698415 0.462451  -0.194886 -0.547260 3.056712
40  -2.867756 -2.740959 0.531131  2.051197 0.577049 -0.321829
41  -4.125854 -2.321499 1.394413  2.051197 0.577049 -0.321829
42  -4.826811 -3.348665 0.872015  2.051196 0.577049 -0.321829
43  -5.441671 -4.249681 0.413771  2.051197 0.577049 -0.321829
44  -0.552537 -1.343527 1.604443  -0.687882 0.662133 -0.833274
45  0.000003 -2.021621 -0.000005  0.494293 0.000000 -0.000000
46  -0.000005 -1.136205 0.000004  -0.290327 0.000000 0.000000
47  -0.032670 -4.587716 1.352320  -0.573077 1.763007 -0.431401
48  0.000003 -1.754537 0.000004  0.829780 -0.000000 0.000000
49  -0.000002 -1.227034 0.000005  0.528805 -0.000000 -0.000000
50  -0.367997 -4.208401 0.173243  -0.373216 2.030791 -0.770720
51  -0.000006 -2.372319 0.000002  0.927479 0.000000 0.000000
52  -0.000000 -1.580078 -0.000008  0.318371 0.000000 0.000000
53  -0.937643 -3.860691 -0.959320  0.170990 2.317753 -0.509472
54  0.000000 -1.690632 -0.000010  0.719375 0.000000 0.000000
55  0.000002 -1.423463 -0.000003  0.462042 -0.000000 0.000000
56  -1.546650 -3.404195 -1.915565  0.405593 2.516782 -0.490951
57  -0.000008 -1.437820 0.000004  0.652785 0.000000 0.000000
58  0.000000 -1.059396 -0.000003  0.549901 -0.000000 0.000000
59  -0.000005 -13.013484 -0.000008  0.010936 -0.284121 -0.076428
60  0.161134 -10.812506 0.023058  0.010936 -0.284121 -0.076428
time 1
0  -13.202128 1.159050 -7.423160  -1.515925 0.096451 0.478923
1  -7.059201 7.545357 -8.021631  0.184695 0.469752 1.608614
2  -0.000000 14.313026 0.000007  -1.540892 -0.002415 0.481062
3  0.209106 12.929687 0.059382  1.358951 0.763489 1.041063
4  1.330912 2.698442 -0.462438  0.194890 0.547268 -0.084879
5  0.023986 0.088632 0.070332  0.091314 -0.915384 -0.811368
6  -4.925783 -10.460938 3.189454  0.218218 3.094627 -0.641216
7  -0.083603 -1.860644 0.511788  0.262328 3.069335 -0.998757
8  4.777533 6.028128 1.897716  -1.090396 0.577049 -0.321829
9  5.490345 7.072690 2.428968  -1.090396 0.577049 -0.321829
10  6.562502 8.640623 3.230467  -1.090396 0.577049 -0.321829
11  7.558528 6.997284 -2.354134  1.204257 -2.866200 -0.131012
12  7.558523 6.997284 -2.354134  1.937336 0.275393 -0.131011
13  4.324083 2.744002 -0.524880  -1.090396 0.577049 -0.321829
14  5.012516 3.752835 -0.011805  -1.090396 0.577049 -0.321829
15  5.595489 4.607124 0.422673  -1.090396 0.577049 -0.321829
16  6.233835 5.542565 0.898421  -1.090396 0.577049 -0.321829
17  6.946651 6.587121 1.429662  -1.090396 0.577049 -0.321829
18  7.537935 7.453602 1.870345  -1.090396 0.577049 -0.321829
19  8.154477 8.357079 2.329837  -1.090396 0.577049 -0.321829
20  8.874290 9.411908 2.866306  -1.090396 0.577049 -0.321829
21  0.552592 1.343533 -1.604467  -0.807783 0.821535 -0.281474
22  -0.000017 2.021633 0.000036  0.267212 0.696438 -0.514300
23  -0.000014 1.136199 -0.000021  0.696158 -0.537186 -0.135701
24  0.032718 4.587770 -1.352292  -0.233933 1.976944 0.085238
25  -0.000009 1.754518 -0.000031  0.627284 0.101491 -0.145535
26  0.000000 1.227067 0.000028  0.018233 0.049783 -0.042514
27  0.368009 4.208414 -0.173239  -1.115370 2.109226 -0.776760
28  -0.000007 2.372313 -0.000031  0.972894 0.100970 -0.131429
29  -0.000002 1.580173 0.000031  -0.224018 0.170320 -0.069954
30  0.937671 3.860713 0.959330  -0.550002 2.892020 -0.331346
31  -0.000007 1.690668 0.000018  0.197181 -0.658789 0.010530
32  0.000006 1.423421 0.000030  0.172911 0.123491 0.133473
33  1.546664 3.404211 1.915581  -1.177792 2.593156 -0.760010
34  -0.000019 1.437874 0.000034  0.840743 -0.088724 0.008204
35  0.000001 1.059374 0.000014  0.279571 0.062288 0.033798
36  20.812498 21.984373 -10.562499  -3.080848 -0.080874 -0.050958
37  -0.000003 -14.313034 -0.000002  -1.566513 0.000000 -0.000000
38  -0.000005 -13.013484 -0.000008  -0.615924 -2.081690 0.065723
39  -1.330879 -2.698415 0.462451  -0.194886 -0.547260 3.056712
40  -2.867756 -2.740959 0.531131  2.051197 0.577049 -0.321829
41  -4.125854 -2.321499 1.394413  2.051197 0.577049 -0.321829
42  -4.826811 -3.348665 0.872015  2.051196 0.577049 -0.321829
43  -5.441671 -4.249681 0.413771  2.051197 0.577049 -0.321829
44  -0.552537 -1.343527 1.604443  -0.687882 0.662133 -0.833274
45  0.000003 -2.021621 -0.000005  0.494293 0.000000 -0.000000
46  -0.000005 -1.136205 0.000004  -0.290327 0.000000 0.000000
47  -0.032670 -4.587716 1.352320  -0.573077 1.763007 -0.431401
48  0.000003 -1.754537 0.000004  0.829780 -0.000000 0.000000
49  -0.000002 -1.227034 0.000005  0.528805 -0.000000 -0.000000
50  -0.367997 -4.208401 0.173243  -0.373216 2.030791 -0.770720
51  -0.000006 -2.372319 0.000002  0.927479 0.000000 0.000000
52  -0.000000 -1.580078 -0.000008  0.318371 0.000000 0.000000
53  -0.937643 -3.860691 -0.959320  0.170990 2.317753 -0.509472
54  0.000000 -1.690632 -0.000010  0.719375 0.000000 0.000000
55  0.000002 -1.423463 -0.000003  0.462042 -0.000000 0.000000
56  -1.546650 -3.404195 -1.915565  0.405593 2.516782 -0.490951
57  -0.000008 -1.437820 0.000004  0.652785 0.000000 0.000000
58  0.000000 -1.059396 -0.000003  0.549901 -0.000000 0.000000
59  -0.000005 -13.013484 -0.000008  0.010936 -0.284121 -0.076428
60  0.161134 -10.812506 0.023058  0.010936 -0.284121 -0.076428
time 2
0  -13.202128 1.159050 -7.423160  -1.515925 0.096451 0.478923
1  -7.059203 7.545356 -8.025541  0.184695 0.469752 1.608614
2  0.000000 14.313021 0.000002  -1.292956 0.041842 0.503870
3  0.209109 12.929689 0.059388  1.358951 0.763489 1.041063
4  1.330914 2.698447 -0.462431  0.194890 0.547268 -0.084879
5  0.054892 0.088629 0.070335  0.091218 -0.915384 -0.811368
6  -4.925782 -10.460939 3.189458  0.218218 3.094627 -0.641216
7  -0.083603 -1.856735 0.511794  0.262329 3.069335 -0.998757
8  4.777530 6.028128 1.897722  -1.090396 0.577049 -0.321829
9  5.490348 7.072693 2.428974  -1.090396 0.577049 -0.321829
10  6.562496 8.640625 3.230474  -1.090396 0.577049 -0.321829
11  7.558527 6.997288 -2.354127  1.204257 -2.866199 -0.131012
12  7.558526 6.997289 -2.354128  1.937336 0.275393 -0.131011
13  4.324080 2.744003 -0.524875  -1.090396 0.577049 -0.321829
14  5.012512 3.752839 -0.011795  -1.090396 0.577049 -0.321829
15  5.595486 4.607125 0.422678  -1.090396 0.577049 -0.321829
16  6.233829 5.542567 0.898429  -1.090396 0.577049 -0.321829
17  6.946652 6.587127 1.429670  -1.090396 0.577049 -0.321829
18  7.537930 7.453608 1.870350  -1.090396 0.577049 -0.321829
19  8.154475 8.357080 2.329845  -1.090396 0.577049 -0.321829
20  8.874294 9.411912 2.866314  -1.090396 0.577049 -0.321829
21  0.552590 1.343536 -1.604460  -0.807783 0.821535 -0.281474
22  -0.000014 2.021630 0.000023  0.267212 0.696438 -0.514300
23  -0.000015 1.136197 -0.000020  0.696158 -0.537186 -0.135701
24  0.032720 4.587770 -1.352288  -0.233933 1.976944 0.085237
25  -0.000006 1.754522 -0.000034  0.627284 0.101491 -0.145535
26  0.000001 1.227068 0.000036  0.018233 0.049783 -0.042514
27  0.368006 4.208415 -0.173232  -1.115370 2.109226 -0.776760
28  -0.000006 2.372319 -0.000028  0.972894 0.100970 -0.131429
29  -0.000002 1.580171 0.000029  -0.224018 0.170320 -0.069942
30  0.937668 3.860717 0.959337  -0.550002 2.892020 -0.331346
31  -0.000010 1.690661 0.000021  0.197181 -0.658789 0.010530
32  0.000006 1.423420 0.000038  0.172911 0.123491 0.133473
33  1.546663 3.404214 1.915586  -1.177792 2.593156 -0.760010
34  -0.000022 1.437869 0.000029  0.840743 -0.088724 0.008204
35  0.000008 1.059374 0.000004  0.279571 0.062288 0.033798
36  20.812498 21.984373 -10.562499  -3.080848 -0.080874 -0.050958
37  -0.000003 -14.313034 -0.000002  -1.566513 0.000000 -0.000000
38  -0.000005 -13.013484 -0.000008  -0.615924 -2.081690 0.065723
39  -1.330879 -2.698415 0.462451  -0.194886 -0.547260 3.056712
40  -2.867756 -2.740959 0.531131  2.051197 0.577049 -0.321829
41  -4.125854 -2.321499 1.394413  2.051197 0.577049 -0.321829
42  -4.826811 -3.348665 0.872015  2.051196 0.577049 -0.321829
43  -5.441671 -4.249681 0.413771  2.051197 0.577049 -0.321829
44  -0.552537 -1.343527 1.604443  -0.687882 0.662133 -0.833274
45  0.000003 -2.021621 -0.000005  0.494293 0.000000 -0.000000
46  -0.000005 -1.136205 0.000004  -0.290327 0.000000 0.000000
47  -0.032670 -4.587716 1.352320  -0.573077 1.763007 -0.431401
48  0.000003 -1.754537 0.000004  0.829780 -0.000000 0.000000
49  -0.000002 -1.227034 0.000005  0.528805 -0.000000 -0.000000
50  -0.367997 -4.208401 0.173243  -0.373216 2.030791 -0.770720
51  -0.000006 -2.372319 0.000002  0.927479 0.000000 0.000000
52  -0.000000 -1.580078 -0.000008  0.318371 0.000000 0.000000
53  -0.937643 -3.860691 -0.959320  0.170990 2.317753 -0.509472
54  0.000000 -1.690632 -0.000010  0.719375 0.000000 0.000000
55  0.000002 -1.423463 -0.000003  0.462042 -0.000000 0.000000
56  -1.546650 -3.404195 -1.915565  0.405593 2.516782 -0.490951
57  -0.000008 -1.437820 0.000004  0.652785 0.000000 0.000000
58  0.000000 -1.059396 -0.000003  0.549901 -0.000000 0.000000
59  -0.000005 -13.013484 -0.000008  0.010936 -0.284121 -0.076428
60  0.161134 -10.812506 0.023058  0.010936 -0.284121 -0.076428
time 3
0  -13.202128 1.159050 -7.423160  -1.516517 0.096021 0.617422
1  -7.059200 7.545353 -8.021638  0.184695 0.469752 1.608614
2  0.000001 14.313025 0.000004  -0.970908 0.099258 0.534522
3  0.209105 12.929686 0.059378  1.358951 0.763489 1.041063
4  1.330915 2.698445 -0.462434  0.194890 0.547268 -0.084879
5  0.023989 0.088631 0.070333  0.091314 -0.915384 -0.811368
6  -4.925779 -10.460940 3.189454  0.218218 3.094627 -0.641216
7  -0.079696 -1.860646 0.511792  0.262329 3.069335 -0.998757
8  4.777534 6.028132 1.897720  -1.090396 0.577049 -0.321829
9  5.490344 7.072693 2.428971  -1.090396 0.577049 -0.321829
10  6.562501 8.640622 3.230468  -1.090396 0.577049 -0.321829
11  7.558523 6.997285 -2.354130  1.204257 -2.866200 -0.131012
12  7.558524 6.997285 -2.354133  1.937336 0.275393 -0.131011
13  4.324085 2.743999 -0.524880  -1.090396 0.577049 -0.321829
14  5.012513 3.752836 -0.011802  -1.090396 0.577049 -0.321829
15  5.595487 4.607125 0.422673  -1.090396 0.577049 -0.321829
16  6.233825 5.542564 0.898424  -1.090396 0.577049 -0.321829
17  6.946651 6.587121 1.429663  -1.090396 0.577049 -0.321829
18  7.537938 7.453608 1.870347  -1.090396 0.577049 -0.321829
19  8.154470 8.357077 2.329840  -1.090396 0.577049 -0.321829
20  8.874295 9.411911 2.866309  -1.090396 0.577049 -0.321829
21  0.552594 1.343536 -1.604463  -0.807783 0.821535 -0.281474
22  -0.000021 2.021633 0.000032  0.267212 0.696438 -0.514300
23  -0.000018 1.136199 -0.000019  0.696158 -0.537186 -0.135701
24  0.032720 4.587776 -1.352288  -0.233933 1.976944 0.085238
25  -0.000003 1.754516 -0.000033  0.627284 0.101491 -0.145535
26  0.000002 1.227069 0.000033  0.018233 0.049783 -0.042514
27  0.368010 4.208415 -0.173237  -1.115370 2.109226 -0.776759
28  -0.000005 2.372319 -0.000034  0.972894 0.100970 -0.131429
29  0.000001 1.580174 0.000023  -0.224018 0.170320 -0.069942
30  0.937668 3.860717 0.959334  -0.550002 2.892020 -0.331346
31  -0.000017 1.690668 0.000020  0.197181 -0.658789 0.010530
32  0.000005 1.423425 0.000030  0.172911 0.123491 0.133473
33  1.546668 3.404212 1.915582  -1.177792 2.593156 -0.760010
34  -0.000021 1.437868 0.000033  0.840743 -0.088724 0.008204
35  0.000004 1.059381 0.000005  0.279571 0.062288 0.033798
36  20.812502 21.984375 -10.562499  -3.080848 -0.080874 -0.050958
37  -0.000002 -14.313034 0.000002  -1.566513 0.000000 -0.000000
38  -0.000009 -13.013483 -0.000010  -0.615924 -2.081690 0.065723
39  -1.330867 -2.698410 0.462455  -0.194886 -0.547260 3.056712
40  -2.867744 -2.740964 0.531129  2.051197 0.577049 -0.321829
41  -4.125845 -2.321501 1.394412  2.051197 0.577049 -0.321829
42  -4.826804 -3.348672 0.872015  2.051196 0.577049 -0.321829
43  -5.441657 -4.249680 0.413770  2.051197 0.577049 -0.321829
44  -0.552531 -1.343533 1.604448  -0.687882 0.662133 -0.833274
45  -0.000003 -2.021622 -0.000007  0.494293 -0.000000 0.000000
46  -0.000008 -1.136212 0.000005  -0.290327 -0.000000 -0.000000
47  -0.032670 -4.587729 1.352318  -0.573076 1.763007 -0.431401
48  0.000004 -1.754538 0.000006  0.829780 -0.000000 -0.000000
49  0.000000 -1.227029 -0.000002  0.528805 -0.000000 -0.000000
50  -0.367990 -4.208408 0.173242  -0.373216 2.030791 -0.770720
51  -0.000004 -2.372315 -0.000005  0.927479 -0.000000 -0.000000
52  0.000004 -1.580066 -0.000008  0.318371 0.000000 0.000000
53  -0.937638 -3.860694 -0.959321  0.170990 2.317753 -0.509472
54  -0.000001 -1.690640 -0.000010  0.719375 0.000000 0.000000
55  0.000002 -1.423461 0.000003  0.462042 -0.000000 0.000000
56  -1.546638 -3.404191 -1.915568  0.405593 2.516782 -0.490951
57  -0.000002 -1.437817 0.000005  0.652785 -0.000000 0.000000
58  -0.000005 -1.059397 -0.000000  0.549901 -0.000000 0.000000
59  -0.000009 -13.013483 -0.000010  0.010936 -0.284121 -0.076428
60  0.161136 -10.812506 0.023049  0.010936 -0.284121 -0.076428
time 4
0  -13.202128 1.159050 -7.423160  -1.517797 0.095278 0.961592
1  -7.059199 7.545360 -8.021636  0.184695 0.469752 1.608614
2  0.000000 14.313021 0.000006  -0.649044 0.156473 0.566260
3  0.209104 12.929684 0.059385  1.358951 0.763489 1.041063
4  1.330910 2.698447 -0.462434  0.194890 0.547268 -0.084879
5  0.023983 0.088633 0.019823  0.091218 -0.915384 -0.811368
6  -4.925781 -10.460934 3.189454  0.218218 3.094627 -0.641216
7  -0.083601 -1.860640 0.507887  0.262328 3.069335 -0.998757
8  4.777534 6.028129 1.897721  -1.090396 0.577049 -0.321829
9  5.490343 7.072695 2.428971  -1.090396 0.577049 -0.321829
10  6.562502 8.640623 3.230469  -1.090396 0.577049 -0.321829
11  7.558527 6.997284 -2.354134  1.204257 -2.866200 -0.131012
12  7.558521 6.997286 -2.354135  1.937336 0.275393 -0.131011
13  4.324080 2.744000 -0.524880  -1.090396 0.577049 -0.321829
14  5.012513 3.752837 -0.011802  -1.090396 0.577049 -0.321829
15  5.595486 4.607126 0.422676  -1.090396 0.577049 -0.321829
16  6.233827 5.542561 0.898424  -1.090396 0.577049 -0.321829
17  6.946658 6.587125 1.429666  -1.090396 0.577049 -0.321829
18  7.537932 7.453605 1.870345  -1.090396 0.577049 -0.321829
19  8.154475 8.357078 2.329840  -1.090396 0.577049 -0.321829
20  8.874292 9.411910 2.866312  -1.090396 0.577049 -0.321829
21  0.552589 1.343532 -1.604465  -0.807783 0.821535 -0.281474
22  -0.000018 2.021630 0.000032  0.267212 0.696438 -0.514300
23  -0.000014 1.136199 -0.000027  0.696158 -0.537186 -0.135701
24  0.032723 4.587774 -1.352289  -0.233933 1.976944 0.085238
25  -0.000009 1.754512 -0.000032  0.627284 0.101491 -0.145535
26  -0.000001 1.227069 0.000031  0.018233 0.049783 -0.042514
27  0.368008 4.208413 -0.173239  -1.115370 2.109226 -0.776760
28  -0.000005 2.372317 -0.000028  0.972894 0.100970 -0.131429
29  0.000002 1.580171 0.000026  -0.224018 0.170320 -0.069954
30  0.937671 3.860713 0.959333  -0.550002 2.892020 -0.331346
31  -0.000016 1.690658 0.000019  0.197181 -0.658789 0.010530
32  0.000007 1.423420 0.000032  0.172911 0.123491 0.133473
33  1.546663 3.404215 1.915584  -1.177792 2.593156 -0.760010
34  -0.000029 1.437873 0.000030  0.840743 -0.088724 0.008204
35  0.000007 1.059358 0.000009  0.279571 0.062288 0.033798
36  20.812506 21.984381 -10.562502  -3.080848 -0.080874 -0.050958
37  -0.000001 -14.313036 0.000002  -1.566513 0.000000 -0.000000
38  -0.000007 -13.013484 -0.000005  -0.615924 -2.081690 0.065723
39  -1.330868 -2.698410 0.462452  -0.194886 -0.547260 3.056712
40  -2.867740 -2.740961 0.531127  2.051197 0.577049 -0.321829
41  -4.125845 -2.321500 1.394409  2.051197 0.577049 -0.321829
42  -4.826798 -3.348666 0.872015  2.051196 0.577049 -0.321829
43  -5.441663 -4.249682 0.413768  2.051197 0.577049 -0.321829
44  -0.552523 -1.343525 1.604442  -0.687882 0.662133 -0.833274
45  -0.000003 -2.021625 -0.000009  0.494293 0.000000 0.000000
46  -0.000007 -1.136217 0.000004  -0.290327 0.000000 0.000000
47  -0.032665 -4.587723 1.352317  -0.573076 1.763007 -0.431402
48  0.000005 -1.754538 0.000006  0.829780 -0.000000 -0.000000
49  -0.000003 -1.227045 0.000007  0.528805 -0.000000 0.000000
50  -0.367986 -4.208405 0.173242  -0.373216 2.030791 -0.770720
51  -0.000004 -2.372314 -0.000003  0.927479 -0.000000 0.000000
52  -0.000001 -1.580070 -0.000006  0.318371 -0.000000 0.000000
53  -0.937637 -3.860693 -0.959321  0.170990 2.317753 -0.509472
54  -0.000001 -1.690638 -0.000003  0.719375 -0.000000 0.000000
55  0.000002 -1.423465 0.000005  0.462042 -0.000000 0.000000
56  -1.546636 -3.404196 -1.915567  0.405593 2.516782 -0.490951
57  -0.000003 -1.437801 0.000006  0.652785 0.000000 0.000000
58  -0.000004 -1.059409 0.000008  0.549901 -0.000000 0.000000
59  -0.000007 -13.013484 -0.000005  0.010936 -0.284121 -0.076428
60  0.161134 -10.812507 0.023052  0.010936 -0.284121 -0.076428
time 5
0  -13.202128 1.159050 -7.423160  -1.518503 0.095353 1.404497
1  -7.059197 7.545362 -8.021640  0.184695 0.469752 1.608614
2  -0.000001 14.313025 0.000000  -1.640116 -0.020154 0.472091
3  0.209103 12.929690 0.059383  1.358951 0.763489 1.041063
4  1.330910 2.698442 -0.462432  0.194890 0.547268 -0.084879
5  0.023985 0.039550 0.070335  0.091314 -0.915384 -0.811368
6  -4.925782 -10.460940 3.189461  0.218218 3.094627 -0.641216
7  -0.083602 -1.860644 0.511798  0.262329 3.069335 -0.998756
8  4.777529 6.028127 1.897725  -1.090396 0.577049 -0.321829
9  5.490344 7.072691 2.428975  -1.090396 0.577049 -0.321829
10  6.562500 8.640623 3.230474  -1.090396 0.577049 -0.321829
11  7.558526 6.997284 -2.354128  1.204257 -2.866200 -0.131012
12  7.558527 6.997284 -2.354130  1.937336 0.275393 -0.131011
13  4.324083 2.743997 -0.524875  -1.090396 0.577049 -0.321829
14  5.012513 3.752832 -0.011798  -1.090396 0.577049 -0.321829
15  5.595487 4.607121 0.422679  -1.090396 0.577049 -0.321829
16  6.233830 5.542563 0.898426  -1.090396 0.577049 -0.321829
17  6.946654 6.587121 1.429668  -1.090396 0.577049 -0.321829
18  7.537934 7.453606 1.870354  -1.090396 0.577049 -0.321829
19  8.154474 8.357077 2.329843  -1.090396 0.577049 -0.321829
20  8.874293 9.411907 2.866313  -1.090396 0.577049 -0.321829
21  0.552592 1.343534 -1.604460  -0.807783 0.821535 -0.281474
22  -0.000016 2.021631 0.000028  0.267212 0.696438 -0.514300
23  -0.000017 1.136200 -0.000018  0.696158 -0.537186 -0.135701
24  0.032719 4.587770 -1.352288  -0.233933 1.976944 0.085237
25  -0.000008 1.754521 -0.000034  0.627284 0.101491 -0.145535
26  0.000001 1.227069 0.000034  0.018233 0.049783 -0.042514
27  0.368009 4.208412 -0.173234  -1.115370 2.109226 -0.776760
28  -0.000007 2.372314 -0.000030  0.972894 0.100970 -0.131429
29  -0.000004 1.580169 0.000032  -0.224018 0.170320 -0.069942
30  0.937670 3.860716 0.959338  -0.550002 2.892020 -0.331346
31  -0.000011 1.690663 0.000018  0.197181 -0.658789 0.010530
32  0.000007 1.423417 0.000030  0.172911 0.123491 0.133473
33  1.546664 3.404212 1.915585  -1.177792 2.593156 -0.760010
34  -0.000022 1.437871 0.000031  0.840743 -0.088724 0.008204
35  0.000006 1.059378 0.000006  0.279571 0.062288 0.033798
36  20.812504 21.984379 -10.562503  -3.080848 -0.080874 -0.050958
37  -0.000004 -14.313032 0.000003  -1.566513 -0.000000 -0.000000
38  -0.000002 -13.013482 -0.000013  -0.615924 -2.081690 0.065723
39  -1.330866 -2.698407 0.462452  -0.194886 -0.547260 3.056712
40  -2.867745 -2.740958 0.531130  2.051197 0.577049 -0.321829
41  -4.125846 -2.321497 1.394412  2.051197 0.577049 -0.321829
42  -4.826810 -3.348669 0.872019  2.051196 0.577049 -0.321829
43  -5.441666 -4.249681 0.413774  2.051197 0.577049 -0.321829
44  -0.552529 -1.343527 1.604443  -0.687882 0.662133 -0.833274
45  -0.000001 -2.021634 -0.000020  0.494293 -0.000000 0.000000
46  -0.000005 -1.136203 0.000003  -0.290327 -0.000000 0.000000
47  -0.032667 -4.587718 1.352321  -0.573076 1.763007 -0.431402
48  0.000002 -1.754541 0.000006  0.829780 -0.000000 0.000000
49  -0.000004 -1.227039 0.000006  0.528805 -0.000000 -0.000000
50  -0.367987 -4.208401 0.173243  -0.373216 2.030791 -0.770720
51  -0.000004 -2.372308 0.000007  0.927479 -0.000000 0.000000
52  0.000007 -1.580079 0.000002  0.318371 -0.000000 0.000000
53  -0.937636 -3.860693 -0.959317  0.170990 2.317753 -0.509472
54  -0.000001 -1.690634 -0.000006  0.719375 -0.000000 0.000000
55  0.000003 -1.423465 0.000003  0.462042 -0.000000 0.000000
56  -1.546640 -3.404198 -1.915568  0.405593 2.516782 -0.490951
57  -0.000008 -1.437806 0.000004  0.652785 0.000000 0.000000
58  0.000000 -1.059403 -0.000006  0.549901 0.000000 0.000000
59  -0.000002 -13.013482 -0.000013  0.010936 -0.284121 -0.076428
60  0.161138 -10.812505 0.023052  0.010936 -0.284121 -0.076428
time 6
0  -13.202128 1.159050 -7.423160  -1.515925 0.096451 1.839342
1  -7.059200 7.541452 -8.025543  0.184695 0.469752 1.608614
2  0.000000 14.313022 0.000003  -1.640116 -0.020154 0.472091
3  0.209102 12.929686 0.059386  1.358951 0.763489 1.041063
4  1.330914 2.698442 -0.462435  0.194890 0.547268 -0.084879
5  0.054897 0.088628 0.070332  0.091218 -0.915384 -0.811368
6  -4.925786 -10.460942 3.189452  0.218218 3.094627 -0.641216
7  -0.083605 -1.860645 0.507886  0.262328 3.069335 -0.998756
8  4.777532 6.028123 1.897720  -1.090396 0.577049 -0.321829
9  5.490342 7.072687 2.428967  -1.090396 0.577049 -0.321829
10  6.562500 8.640621 3.230468  -1.090396 0.577049 -0.321829
11  7.558522 6.997279 -2.354133  1.204257 -2.866199 -0.131012
12  7.558524 6.997282 -2.354132  1.937336 0.275393 -0.131011
13  4.324084 2.743998 -0.524879  -1.090396 0.577049 -0.321829
14  5.012514 3.752833 -0.011801  -1.090396 0.577049 -0.321829
15  5.595487 4.607123 0.422676  -1.090396 0.577049 -0.321829
16  6.233832 5.542564 0.898426  -1.090396 0.577049 -0.321829
17  6.946654 6.587120 1.429664  -1.090396 0.577049 -0.321829
18  7.537932 7.453602 1.870346  -1.090396 0.577049 -0.321829
19  8.154471 8.357077 2.329841  -1.090396 0.577049 -0.321829
20  8.874289 9.411907 2.866311  -1.090396 0.577049 -0.321829
21  0.552589 1.343535 -1.604463  -0.807783 0.821535 -0.281474
22  -0.000018 2.021631 0.000025  0.267212 0.696438 -0.514300
23  -0.000011 1.136200 -0.000020  0.696158 -0.537186 -0.135701
24  0.032719 4.587768 -1.352292  -0.233933 1.976944 0.085238
25  -0.000007 1.754519 -0.000032  0.627284 0.101491 -0.145535
26  0.000001 1.227069 0.000033  0.018233 0.049783 -0.042514
27  0.368009 4.208413 -0.173237  -1.115370 2.109226 -0.776760
28  -0.000004 2.372315 -0.000029  0.972894 0.100970 -0.131429
29  -0.000003 1.580168 0.000034  -0.224018 0.170320 -0.069942
30  0.937673 3.860713 0.959331  -0.550002 2.892020 -0.331346
31  -0.000013 1.690667 0.000024  0.197181 -0.658789 0.010530
32  0.000008 1.423427 0.000034  0.172911 0.123491 0.133473
33  1.546663 3.404214 1.915585  -1.177792 2.593156 -0.760010
34  -0.000020 1.437873 0.000030  0.840743 -0.088724 0.008204
35  0.000005 1.059373 0.000008  0.279571 0.062288 0.033798
36  20.812511 21.984375 -10.562505  -3.080848 -0.080874 -0.050958
37  -0.000002 -14.313041 -0.000004  -1.566513 0.000000 -0.000000
38  -0.000010 -13.013485 -0.000014  -0.615923 -2.081690 0.065723
39  -1.330867 -2.698418 0.462451  -0.194886 -0.547260 3.056712
40  -2.867747 -2.740968 0.531127  2.051197 0.577049 -0.321829
41  -4.125842 -2.321502 1.394410  2.051197 0.577049 -0.321829
42  -4.826802 -3.348671 0.872016  2.051196 0.577049 -0.321829
43  -5.441652 -4.249682 0.413768  2.051197 0.577049 -0.321829
44  -0.552524 -1.343531 1.604442  -0.687882 0.662133 -0.833274
45  0.000001 -2.021631 -0.000016  0.494293 -0.000000 0.000000
46  -0.000010 -1.136214 0.000005  -0.290327 -0.000000 0.000000
47  -0.032663 -4.587722 1.352320  -0.573076 1.763007 -0.431401
48  0.000001 -1.754539 0.000008  0.829780 -0.000000 0.000000
49  -0.000001 -1.227033 0.000005  0.528805 -0.000000 -0.000000
50  -0.367987 -4.208404 0.173241  -0.373216 2.030791 -0.770720
51  -0.000003 -2.372317 -0.000009  0.927479 -0.000000 0.000000
52  -0.000001 -1.580083 -0.000001  0.318371 0.000000 0.000000
53  -0.937625 -3.860694 -0.959325  0.170990 2.317753 -0.509472
54  -0.000001 -1.690643 -0.000006  0.719375 -0.000000 0.000000
55  0.000002 -1.423453 0.000003  0.462042 -0.000000 0.000000
56  -1.546630 -3.404198 -1.915565  0.405593 2.516782 -0.490951
57  -0.000004 -1.437812 0.000002  0.652785 0.000000 0.000000
58  -0.000005 -1.059395 0.000001  0.549901 0.000000 0.000000
59  -0.000010 -13.013485 -0.000014  0.010936 -0.284121 -0.076428
60  0.161131 -10.812510 0.023044  0.010936 -0.284121 -0.076428
time 7
0  -13.202128 1.159050 -7.423160  -1.502045 -0.077230 2.164450
1  -7.059202 7.545361 -8.021641  0.184695 0.469752 1.608614
2  -0.000001 14.313025 0.000004  -1.640116 -0.020154 0.472091
3  0.209102 12.929689 0.059382  1.358951 0.763489 1.041063
4  1.330911 2.698448 -0.462433  0.194890 0.547268 -0.084879
5  0.023986 0.088633 0.019821  0.091314 -0.915384 -0.811368
6  -4.925785 -10.460938 3.189453  0.218218 3.094627 -0.641216
7  -0.083604 -1.860641 0.507886  0.262328 3.069335 -0.998757
8  4.777529 6.028129 1.897721  -1.090396 0.577049 -0.321829
9  5.490342 7.072694 2.428971  -1.090396 0.577049 -0.321829
10  6.562500 8.640623 3.230468  -1.090396 0.577049 -0.321829
11  7.558526 6.997283 -2.354129  1.204257 -2.866200 -0.131012
12  7.558528 6.997285 -2.354131  1.937336 0.275393 -0.131011
13  4.324083 2.744006 -0.524879  -1.090396 0.577049 -0.321829
14  5.012515 3.752840 -0.011802  -1.090396 0.577049 -0.321829
15  5.595488 4.607124 0.422675  -1.090396 0.577049 -0.321829
16  6.233832 5.542570 0.898425  -1.090396 0.577049 -0.321829
17  6.946652 6.587126 1.429665  -1.090396 0.577049 -0.321829
18  7.537933 7.453608 1.870347  -1.090396 0.577049 -0.321829
19  8.154474 8.357080 2.329839  -1.090396 0.577049 -0.321829
20  8.874292 9.411915 2.866310  -1.090396 0.577049 -0.321829
21  0.552592 1.343538 -1.604464  -0.807783 0.821535 -0.281474
22  -0.000017 2.021631 0.000025  0.267212 0.696438 -0.514300
23  -0.000013 1.136202 -0.000020  0.696158 -0.537186 -0.135701
24  0.032720 4.587773 -1.352292  -0.233933 1.976944 0.085237
25  -0.000004 1.754523 -0.000036  0.627284 0.101491 -0.145535
26  0.000000 1.227072 0.000034  0.018233 0.049783 -0.042514
27  0.368010 4.208415 -0.173237  -1.115370 2.109226 -0.776760
28  -0.000007 2.372317 -0.000032  0.972894 0.100970 -0.131429
29  -0.000002 1.580168 0.000029  -0.224018 0.170320 -0.069942
30  0.937672 3.860717 0.959332  -0.550002 2.892020 -0.331346
31  -0.000015 1.690665 0.000021  0.197181 -0.658789 0.010530
32  0.000008 1.423423 0.000030  0.172911 0.123491 0.133473
33  1.546667 3.404217 1.915584  -1.177792 2.593156 -0.760010
34  -0.000021 1.437871 0.000034  0.840743 -0.088724 0.008204
35  0.000003 1.059371 0.000006  0.279571 0.062288 0.033798
36  20.812508 21.984379 -10.562505  -3.080848 -0.080874 -0.050958
37  -0.000002 -14.313035 -0.000005  -1.566513 0.000000 -0.000000
38  -0.000007 -13.013481 -0.000008  -0.615924 -2.081690 0.065723
39  -1.330871 -2.698406 0.462455  -0.194886 -0.547260 3.056712
40  -2.867750 -2.740956 0.531122  2.051196 0.577049 -0.321829
41  -4.125844 -2.321489 1.394409  2.051196 0.577049 -0.321829
42  -4.826808 -3.348660 0.872017  2.051196 0.577049 -0.321829
43  -5.441665 -4.249674 0.413769  2.051196 0.577049 -0.321829
44  -0.552528 -1.343520 1.604445  -0.687882 0.662133 -0.833274
45  -0.000003 -2.021623 -0.000014  0.494293 -0.000000 -0.000000
46  -0.000009 -1.136211 0.000011  -0.290327 0.000000 0.000000
47  -0.032672 -4.587715 1.352321  -0.573076 1.763007 -0.431401
48  0.000001 -1.754538 0.000009  0.829780 -0.000000 0.000000
49  -0.000005 -1.227032 -0.000001  0.528805 -0.000000 -0.000000
50  -0.367998 -4.208398 0.173245  -0.373216 2.030791 -0.770720
51  -0.000001 -2.372309 0.000001  0.927479 0.000000 0.000000
52  0.000004 -1.580076 0.000003  0.318371 0.000000 0.000000
53  -0.937640 -3.860688 -0.959320  0.170990 2.317753 -0.509472
54  -0.000002 -1.690630 -0.000013  0.719375 0.000000 0.000000
55  -0.000003 -1.423455 0.000006  0.462042 -0.000000 0.000000
56  -1.546639 -3.404186 -1.915561  0.405593 2.516782 -0.490951
57  -0.000004 -1.437815 0.000010  0.652785 0.000000 0.000000
58  0.000000 -1.059402 0.000010  0.549901 0.000000 0.000000
59  -0.000007 -13.013481 -0.000008  0.010936 -0.284121 -0.076428
60  0.161130 -10.812508 0.023044  0.010936 -0.284121 -0.076428
time 8
0  -13.202128 1.159050 -7.423160  -1.491004 -0.251537 2.292360
1  -7.059203 7.541453 -8.021638  0.184695 0.469752 1.608614
2  0.000003 14.313026 0.000003  -1.640116 -0.020155 0.472092
3  0.209105 12.929688 0.059382  1.358951 0.763489 1.041063
4  1.330911 2.698447 -0.462437  0.194890 0.547268 -0.084879
5  0.023985 0.088630 0.070328  0.091314 -0.915384 -0.811368
6  -4.925781 -10.460938 3.189455  0.218218 3.094627 -0.641216
7  -0.083605 -1.860640 0.511790  0.262329 3.069335 -0.998756
8  4.777528 6.028130 1.897718  -1.090396 0.577049 -0.321829
9  5.490341 7.072695 2.428971  -1.090396 0.577049 -0.321829
10  6.562502 8.640626 3.230468  -1.090396 0.577049 -0.321829
11  7.558526 6.997285 -2.354132  1.204257 -2.866200 -0.131012
12  7.558527 6.997289 -2.354134  1.937336 0.275393 -0.131011
13  4.324082 2.744000 -0.524881  -1.090396 0.577049 -0.321829
14  5.012511 3.752836 -0.011799  -1.090396 0.577049 -0.321829
15  5.595487 4.607126 0.422676  -1.090396 0.577049 -0.321829
16  6.233828 5.542570 0.898422  -1.090396 0.577049 -0.321829
17  6.946651 6.587126 1.429662  -1.090396 0.577049 -0.321829
18  7.537930 7.453609 1.870345  -1.090396 0.577049 -0.321829
19  8.154472 8.357080 2.329838  -1.090396 0.577049 -0.321829
20  8.874290 9.411912 2.866305  -1.090396 0.577049 -0.321829
21  0.552589 1.343536 -1.604465  -0.807783 0.821535 -0.281474
22  -0.000016 2.021631 0.000023  0.267212 0.696438 -0.514300
23  -0.000013 1.136200 -0.000020  0.696158 -0.537186 -0.135701
24  0.032719 4.587773 -1.352292  -0.233933 1.976944 0.085238
25  -0.000004 1.754519 -0.000035  0.627284 0.101491 -0.145535
26  -0.000001 1.227069 0.000031  0.018233 0.049783 -0.042514
27  0.368006 4.208419 -0.173237  -1.115370 2.109226 -0.776760
28  -0.000008 2.372317 -0.000030  0.972894 0.100970 -0.131429
29  0.000000 1.580171 0.000029  -0.224018 0.170320 -0.069942
30  0.937668 3.860718 0.959332  -0.550002 2.892020 -0.331346
31  -0.000018 1.690669 0.000016  0.197181 -0.658789 0.010530
32  0.000004 1.423422 0.000028  0.172911 0.123491 0.133473
33  1.546666 3.404217 1.915581  -1.177792 2.593156 -0.760010
34  -0.000023 1.437868 0.000031  0.840743 -0.088724 0.008204
35  0.000007 1.059372 0.000007  0.279571 0.062288 0.033798
36  20.812502 21.984379 -10.562504  -3.080848 -0.080874 -0.050958
37  -0.000008 -14.313023 0.000004  -1.566513 -0.000000 -0.000000
38  -0.000008 -13.013477 -0.000001  -0.615924 -2.081690 0.065723
39  -1.330868 -2.698412 0.462452  -0.194886 -0.547260 3.056712
40  -2.867744 -2.740973 0.531124  2.051196 0.577049 -0.321829
41  -4.125843 -2.321502 1.394409  2.051196 0.577049 -0.321829
42  -4.826799 -3.348675 0.872018  2.051196 0.577049 -0.321829
43  -5.441658 -4.249682 0.413768  2.051196 0.577049 -0.321829
44  -0.552527 -1.343536 1.604448  -0.687882 0.662133 -0.833274
45  0.000004 -2.021617 -0.000030  0.494293 0.000000 0.000000
46  -0.000008 -1.136209 0.000008  -0.290327 -0.000000 0.000000
47  -0.032668 -4.587729 1.352318  -0.573076 1.763007 -0.431401
48  -0.000002 -1.754540 0.000004  0.829780 -0.000000 -0.000000
49  -0.000002 -1.227034 0.000002  0.528805 0.000000 -0.000000
50  -0.367988 -4.208408 0.173241  -0.373216 2.030791 -0.770720
51  -0.000012 -2.372322 -0.000000  0.927479 -0.000000 0.000000
52  0.000004 -1.580077 -0.000008  0.318371 0.000000 0.000000
53  -0.937633 -3.860700 -0.959317  0.170990 2.317752 -0.509471
54  -0.000004 -1.690637 -0.000004  0.719375 -0.000000 -0.000000
55  0.000001 -1.423450 0.000004  0.462042 0.000000 -0.000000
56  -1.546636 -3.404200 -1.915570  0.405593 2.516782 -0.490951
57  -0.000000 -1.437809 0.000002  0.652785 0.000000 0.000000
58  -0.000004 -1.059409 0.000003  0.549901 0.000000 0.000000
59  -0.000008 -13.013477 -0.000001  0.010936 -0.284121 -0.076428
60  0.161135 -10.812510 0.023044  0.010936 -0.284121 -0.076428
time 9
0  -13.202128 1.159050 -7.423160  -1.492107 -0.237255 2.214209
1  -7.059200 7.545361 -8.025546  0.184695 0.469752 1.608614
2  0.000004 14.313025 0.000005  -1.640118 -0.020157 0.472095
3  0.208562 12.931161 0.059180  0.035638 0.904919 0.018582
4  1.330909 2.698446 -0.462434  0.194890 0.547268 -0.084879
5  0.023983 0.088629 0.019824  0.091314 -0.915384 -0.811368
6  -4.925782 -10.460939 3.189453  0.218218 3.094627 -0.641216
7  -0.083605 -1.860642 0.507888  0.262329 3.069335 -0.998757
8  4.777527 6.028129 1.897720  -1.090396 0.577049 -0.321829
9  5.490343 7.072691 2.428973  -1.090396 0.577049 -0.321829
10  6.562500 8.640626 3.230467  -1.090396 0.577049 -0.321829
11  7.558526 6.997284 -2.354133  1.204257 -2.866200 -0.131012
12  7.558524 6.997287 -2.354133  1.937336 0.275393 -0.131011
13  4.324084 2.744001 -0.524879  -1.090396 0.577049 -0.321829
14  5.012512 3.752838 -0.011801  -1.090396 0.577049 -0.321829
15  5.595481 4.607123 0.422673  -1.090396 0.577049 -0.321829
16  6.233831 5.542568 0.898428  -1.090396 0.577049 -0.321829
17  6.946650 6.587123 1.429665  -1.090396 0.577049 -0.321829
18  7.537931 7.453609 1.870347  -1.090396 0.577049 -0.321829
19  8.154469 8.357077 2.329838  -1.090396 0.577049 -0.321829
20  8.874288 9.411909 2.866310  -1.090396 0.577049 -0.321829
21  0.552590 1.343535 -1.604464  -0.807783 0.821535 -0.281474
22  -0.000019 2.021630 0.000025  0.267212 0.696438 -0.514300
23  -0.000014 1.136200 -0.000020  0.696158 -0.537186 -0.135701
24  0.032720 4.587772 -1.352289  -0.233933 1.976944 0.085238
25  -0.000005 1.754519 -0.000033  0.627284 0.101491 -0.145535
26  -0.000001 1.227070 0.000034  0.018233 0.049783 -0.042514
27  0.368007 4.208418 -0.173236  -1.115370 2.109226 -0.776760
28  -0.000004 2.372316 -0.000028  0.972894 0.100982 -0.131429
29  -0.000000 1.580171 0.000030  -0.224018 0.170320 -0.069954
30  0.937671 3.860714 0.959332  -0.550002 2.892020 -0.331346
31  -0.000012 1.690666 0.000020  0.197181 -0.658789 0.010530
32  0.000007 1.423421 0.000028  0.172911 0.123491 0.133473
33  1.546663 3.404216 1.915585  -1.177792 2.593156 -0.760010
34  -0.000022 1.437865 0.000031  0.840743 -0.088724 0.008204
35  0.000005 1.059373 0.000003  0.279571 0.062288 0.033798
36  20.812508 21.984379 -10.562503  -3.080848 -0.080874 -0.050958
37  0.000000 -14.313032 0.000003  -1.566513 -0.000000 -0.000000
38  -0.000009 -13.013485 0.000003  -0.615924 -2.081690 0.065723
39  -1.330877 -2.698411 0.462447  -0.194886 -0.547260 3.056712
40  -2.867753 -2.740956 0.531128  2.051196 0.577049 -0.321829
41  -4.125854 -2.321495 1.394410  2.051196 0.577049 -0.321829
42  -4.826812 -3.348667 0.872009  2.051196 0.577049 -0.321829
43  -5.441668 -4.249673 0.413775  2.051196 0.577049 -0.321829
44  -0.552532 -1.343521 1.604443  -0.687882 0.662133 -0.833274
45  -0.000003 -2.021615 -0.000006  0.494293 0.000000 0.000000
46  -0.000010 -1.136212 0.000013  -0.290327 0.000000 0.000000
47  -0.032674 -4.587714 1.352315  -0.573076 1.763007 -0.431401
48  -0.000002 -1.754533 0.000013  0.829780 -0.000000 0.000000
49  -0.000009 -1.227031 0.000002  0.528805 -0.000000 -0.000000
50  -0.367997 -4.208400 0.173245  -0.373216 2.030791 -0.770720
51  -0.000004 -2.372318 0.000003  0.927479 -0.000000 0.000000
52  0.000009 -1.580086 0.000004  0.318371 0.000000 -0.000000
53  -0.937644 -3.860694 -0.959317  0.170990 2.317753 -0.509472
54  -0.000009 -1.690639 -0.000009  0.719375 -0.000000 -0.000000
55  -0.000001 -1.423461 -0.000006  0.462042 -0.000000 -0.000000
56  -1.546651 -3.404194 -1.915566  0.405593 2.516782 -0.490951
57  -0.000000 -1.437810 0.000007  0.652785 0.000000 0.000000
58  -0.000003 -1.059396 0.000000  0.549901 -0.000000 0.000000
59  -0.000009 -13.013485 0.000003  0.010936 -0.284121 -0.076428
60  0.161133 -10.812511 0.023049  0.010936 -0.284121 -0.076428
time 10
0  -13.202128 1.159050 -7.423160  -1.494859 -0.199343 2.008237
1  -7.059204 7.541459 -8.025541  0.184695 0.469752 1.608614
2  -0.000003 14.313019 0.000007  -1.640120 -0.020160 0.472098
3  0.207996 12.932714 0.058958  0.051919 0.903102 0.033508
4  1.330911 2.698443 -0.462435  0.194890 0.547268 -0.084879
5  0.023984 0.088630 0.019822  0.091218 -0.915384 -0.811368
6  -4.925777 -10.460935 3.189452  0.218218 3.094627 -0.641216
7  -0.083601 -1.860643 0.507884  0.262329 3.069335 -0.998756
8  4.777530 6.028123 1.897717  -1.090396 0.577049 -0.321829
9  5.490341 7.072693 2.428970  -1.090396 0.577049 -0.321829
10  6.562503 8.640624 3.230470  -1.090396 0.577049 -0.321829
11  7.558528 6.997285 -2.354134  1.204257 -2.866199 -0.131012
12  7.558528 6.997285 -2.354135  1.937336 0.275393 -0.131011
13  4.324081 2.744003 -0.524879  -1.090396 0.577049 -0.321829
14  5.012513 3.752835 -0.011803  -1.090396 0.577049 -0.321829
15  5.595490 4.607122 0.422674  -1.090396 0.577049 -0.321829
16  6.233829 5.542566 0.898426  -1.090396 0.577049 -0.321829
17  6.946649 6.587126 1.429663  -1.090396 0.577049 -0.321829
18  7.537933 7.453607 1.870347  -1.090396 0.577049 -0.321829
19  8.154472 8.357074 2.329836  -1.090396 0.577049 -0.321829
20  8.874293 9.411906 2.866307  -1.090396 0.577049 -0.321829
21  0.552591 1.343535 -1.604466  -0.807783 0.821535 -0.281474
22  -0.000019 2.021632 0.000028  0.267212 0.696438 -0.514300
23  -0.000012 1.136201 -0.000020  0.696158 -0.537186 -0.135701
24  0.032720 4.587771 -1.352291  -0.233933 1.976944 0.085238
25  -0.000004 1.754519 -0.000036  0.627284 0.101491 -0.145535
26  0.000003 1.227070 0.000031  0.018233 0.049783 -0.042514
27  0.368009 4.208414 -0.173239  -1.115370 2.109226 -0.776760
28  -0.000003 2.372315 -0.000028  0.972894 0.100970 -0.131429
29  -0.000003 1.580171 0.000031  -0.224018 0.170320 -0.069942
30  0.937672 3.860714 0.959331  -0.550002 2.892020 -0.331346
31  -0.000013 1.690663 0.000017  0.197181 -0.658789 0.010530
32  0.000006 1.423424 0.000030  0.172911 0.123491 0.133473
33  1.546664 3.404216 1.915579  -1.177792 2.593156 -0.760010
34  -0.000020 1.437872 0.000030  0.840743 -0.088724 0.008204
35  0.000007 1.059373 0.000007  0.279571 0.062288 0.033798
36  20.812506 21.984375 -10.562501  -3.080848 -0.080874 -0.050958
37  0.000001 -14.313033 0.000000  -1.566513 -0.000000 0.000000
38  -0.000010 -13.013477 -0.000009  -0.615924 -2.081690 0.065723
39  -1.330870 -2.698408 0.462456  -0.194886 -0.547260 3.056712
40  -2.867750 -2.740960 0.531126  2.051197 0.577049 -0.321829
41  -4.125844 -2.321490 1.394407  2.051197 0.577049 -0.321829
42  -4.826810 -3.348662 0.872013  2.051196 0.577049 -0.321829
43  -5.441662 -4.249670 0.413764  2.051197 0.577049 -0.321829
44  -0.552525 -1.343522 1.604439  -0.687882 0.662133 -0.833274
45  0.000005 -2.021616 -0.000019  0.494293 -0.000000 0.000000
46  -0.000011 -1.136214 0.000003  -0.290327 -0.000000 0.000000
47  -0.032664 -4.587709 1.352318  -0.573076 1.763007 -0.431401
48  -0.000006 -1.754537 0.000007  0.829780 -0.000000 0.000000
49  -0.000011 -1.227033 0.000004  0.528805 -0.000000 -0.000000
50  -0.367993 -4.208398 0.173243  -0.373216 2.030791 -0.770720
51  -0.000007 -2.372316 -0.000005  0.927479 -0.000000 0.000000
52  -0.000001 -1.580076 -0.000008  0.318371 0.000000 0.000000
53  -0.937648 -3.860693 -0.959326  0.170990 2.317753 -0.509472
54  -0.000008 -1.690630 -0.000008  0.719375 -0.000000 0.000000
55  0.000002 -1.423456 0.000004  0.462042 -0.000000 0.000000
56  -1.546633 -3.404189 -1.915567  0.405593 2.516782 -0.490951
57  -0.000010 -1.437806 0.000006  0.652785 0.000000 0.000000
58  0.000002 -1.059402 -0.000004  0.549901 -0.000000 0.000000
59  -0.000010 -13.013477 -0.000009  0.010936 -0.284121 -0.076428
60  0.161133 -10.812506 0.023049  0.010936 -0.284121 -0.076428
time 11
0  -13.202128 1.159050 -7.423160  -1.498500 -0.145025 1.717256
1  -7.058658 7.541183 -8.025283  0.077999 0.423893 1.494794
2  -0.000004 14.313027 0.000005  -1.640122 -0.020164 0.472103
3  0.207588 12.933822 0.058801  0.093906 0.898416 0.072003
4  1.330912 2.698442 -0.462434  0.194890 0.547268 -0.084879
5  0.023982 0.088629 0.019818  0.091225 -0.915384 -0.811368
6  -4.925782 -10.460940 3.189454  0.218218 3.094627 -0.641216
7  -0.083604 -1.860644 0.507882  0.262328 3.069335 -0.998757
8  4.777528 6.028129 1.897719  -1.090396 0.577049 -0.321829
9  5.490341 7.072695 2.428970  -1.090396 0.577049 -0.321829
10  6.562501 8.640622 3.230468  -1.090396 0.577049 -0.321829
11  7.558526 6.997281 -2.354135  1.204257 -2.866200 -0.131012
12  7.558526 6.997285 -2.354135  1.937336 0.275393 -0.131011
13  4.324085 2.744001 -0.524880  -1.090396 0.577049 -0.321829
14  5.012512 3.752835 -0.011803  -1.090396 0.577049 -0.321829
15  5.595490 4.607120 0.422671  -1.090396 0.577049 -0.321829
16  6.233829 5.542566 0.898422  -1.090396 0.577049 -0.321829
17  6.946651 6.587125 1.429663  -1.090396 0.577049 -0.321829
18  7.537935 7.453606 1.870345  -1.090396 0.577049 -0.321829
19  8.154474 8.357077 2.329837  -1.090396 0.577049 -0.321829
20  8.874294 9.411908 2.866309  -1.090396 0.577049 -0.321829
21  0.552591 1.343536 -1.604467  -0.807783 0.821535 -0.281474
22  -0.000015 2.021633 0.000026  0.267212 0.696438 -0.514300
23  -0.000015 1.136199 -0.000024  0.696158 -0.537186 -0.135701
24  0.032720 4.587770 -1.352292  -0.197491 1.982537 0.098490
25  -0.000007 1.754520 -0.000031  0.627284 0.101491 -0.145535
26  0.000004 1.227069 0.000031  0.044141 0.067683 -0.048137
27  0.368012 4.208413 -0.173242  -1.067186 2.101388 -0.764254
28  -0.000003 2.372313 -0.000028  0.972897 0.100971 -0.131429
29  0.000003 1.580168 0.000029  -0.224018 0.170320 -0.069943
30  0.937669 3.860718 0.959331  -0.524713 2.888103 -0.353751
31  -0.000016 1.690664 0.000019  0.197181 -0.658789 0.010530
32  0.000010 1.423422 0.000030  0.172911 0.123491 0.133473
33  1.546664 3.404212 1.915583  -1.148485 2.586232 -0.771081
34  -0.000021 1.437869 0.000032  0.840743 -0.088724 0.008204
35  0.000008 1.059375 0.000007  0.279571 0.062288 0.033798
36  20.812504 21.984375 -10.562502  -3.080848 -0.080874 -0.050958
37  -0.000004 -14.313026 0.000001  -1.566513 0.000000 -0.000000
38  -0.000004 -13.013480 -0.000003  -0.615923 -2.081690 0.065723
39  -1.330862 -2.698410 0.462442  -0.194886 -0.547260 3.056712
40  -2.867744 -2.740964 0.531129  2.051196 0.577049 -0.321829
41  -4.125845 -2.321499 1.394406  2.051196 0.577049 -0.321829
42  -4.826807 -3.348672 0.872008  2.051196 0.577049 -0.321829
43  -5.441657 -4.249677 0.413769  2.051196 0.577049 -0.321829
44  -0.552525 -1.343528 1.604440  -0.687882 0.662133 -0.833274
45  -0.000003 -2.021630 -0.000005  0.494293 -0.000000 0.000000
46  -0.000006 -1.136204 0.000000  -0.290327 0.000000 0.000000
47  -0.032663 -4.587721 1.352317  -0.573077 1.763007 -0.431402
48  0.000003 -1.754536 0.000006  0.829780 -0.000000 0.000000
49  0.000001 -1.227030 0.000004  0.528805 -0.000000 -0.000000
50  -0.367983 -4.208402 0.173238  -0.373216 2.030791 -0.770720
51  -0.000003 -2.372315 0.000003  0.927479 0.000000 -0.000000
52  0.000009 -1.580081 -0.000001  0.318371 0.000000 0.000000
53  -0.937635 -3.860696 -0.959321  0.170990 2.317753 -0.509472
54  -0.000004 -1.690642 -0.000008  0.719375 -0.000000 0.000000
55  0.000002 -1.423462 0.000006  0.462042 -0.000000 -0.000000
56  -1.546636 -3.404190 -1.915568  0.405593 2.516782 -0.490951
57  0.000001 -1.437811 0.000002  0.652785 0.000000 0.000000
58  0.000006 -1.059409 -0.000003  0.549901 0.000000 0.000000
59  -0.000004 -13.013480 -0.000003  0.010936 -0.284121 -0.076428
60  0.161131 -10.812505 0.023057  0.010936 -0.284121 -0.076428
time 12
0  -13.202128 1.159050 -7.423160  -1.502590 -0.081646 1.384099
1  -7.057760 7.541357 -8.024860  -0.166276 0.312309 1.217750
2  -0.000003 14.313028 0.000006  -1.640124 -0.020168 0.472107
3  0.207316 12.934573 0.058701  0.151317 0.892009 0.124639
4  1.330910 2.698441 -0.462437  0.194890 0.547268 -0.084879
5  0.023984 0.088629 0.019821  0.091243 -0.915384 -0.811368
6  -4.925786 -10.460940 3.189451  0.218218 3.094627 -0.641216
7  -0.083606 -1.860646 0.507884  0.262329 3.069335 -0.998756
8  4.777528 6.028127 1.897717  -1.090396 0.577049 -0.321829
9  5.490345 7.072691 2.428967  -1.090396 0.577049 -0.321829
10  6.562502 8.640623 3.230469  -1.090396 0.577049 -0.321829
11  7.558527 6.997280 -2.354133  1.204257 -2.866200 -0.131012
12  7.558528 6.997281 -2.354134  1.937336 0.275393 -0.131011
13  4.324088 2.743999 -0.524881  -1.090396 0.577049 -0.321829
14  5.012511 3.752837 -0.011805  -1.090396 0.577049 -0.321829
15  5.595489 4.607121 0.422674  -1.090396 0.577049 -0.321829
16  6.233831 5.542564 0.898424  -1.090396 0.577049 -0.321829
17  6.946652 6.587120 1.429661  -1.090396 0.577049 -0.321829
18  7.537934 7.453607 1.870346  -1.090396 0.577049 -0.321829
19  8.154474 8.357079 2.329837  -1.090396 0.577049 -0.321829
20  8.874290 9.411904 2.866309  -1.090396 0.577049 -0.321829
21  0.552590 1.343535 -1.604463  -0.807783 0.821535 -0.281474
22  -0.000013 2.021631 0.000029  0.267212 0.696438 -0.514300
23  -0.000012 1.136200 -0.000016  0.696158 -0.537186 -0.135701
24  0.032717 4.587770 -1.352294  -0.107774 1.996794 0.130144
25  -0.000004 1.754519 -0.000028  0.627284 0.101491 -0.145535
26  0.000001 1.227070 0.000035  0.109020 0.112433 -0.062183
27  0.368006 4.208414 -0.173241  -0.945386 2.082113 -0.731464
28  -0.000005 2.372315 -0.000031  0.972904 0.100973 -0.131430
29  -0.000002 1.580169 0.000033  -0.224018 0.170320 -0.069945
30  0.937670 3.860714 0.959329  -0.461835 2.880789 -0.410368
31  -0.000013 1.690664 0.000018  0.197181 -0.658789 0.010530
32  0.000011 1.423419 0.000033  0.172911 0.123491 0.133473
33  1.546665 3.404210 1.915581  -1.075548 2.569316 -0.799403
34  -0.000017 1.437869 0.000030  0.840742 -0.088724 0.008204
35  0.000007 1.059373 0.000010  0.279571 0.062288 0.033798
36  20.812504 21.984383 -10.562502  -3.080848 -0.080874 -0.050958
37  -0.000005 -14.313023 -0.000001  -1.566513 -0.000000 -0.000000
38  -0.000014 -13.013486 -0.000009  -0.615924 -2.081690 0.065723
39  -1.330867 -2.698414 0.462447  -0.194886 -0.547260 3.056712
40  -2.867738 -2.740960 0.531128  2.051196 0.577049 -0.321829
41  -4.125844 -2.321495 1.394413  2.051196 0.577049 -0.321829
42  -4.826802 -3.348670 0.872016  2.051196 0.577049 -0.321829
43  -5.441655 -4.249679 0.413773  2.051196 0.577049 -0.321829
44  -0.552524 -1.343529 1.604441  -0.687882 0.662133 -0.833274
45  0.000004 -2.021610 -0.000011  0.494293 -0.000000 -0.000000
46  -0.000009 -1.136211 0.000003  -0.290327 0.000000 0.000000
47  -0.032660 -4.587716 1.352316  -0.573077 1.763007 -0.431401
48  0.000003 -1.754538 -0.000008  0.829780 -0.000000 0.000000
49  0.000001 -1.227035 0.000003  0.528805 0.000000 -0.000000
50  -0.367985 -4.208400 0.173239  -0.373216 2.030791 -0.770720
51  0.000000 -2.372314 -0.000009  0.927479 0.000000 0.000000
52  -0.000001 -1.580077 0.000004  0.318371 -0.000000 0.000000
53  -0.937632 -3.860691 -0.959321  0.170990 2.317753 -0.509472
54  0.000001 -1.690633 -0.000007  0.719375 -0.000000 0.000000
55  -0.000003 -1.423455 0.000003  0.462042 -0.000000 0.000000
56  -1.546632 -3.404194 -1.915569  0.405593 2.516782 -0.490951
57  -0.000002 -1.437806 0.000003  0.652785 0.000000 0.000000
58  0.000002 -1.059393 0.000004  0.549901 -0.000000 0.000000
59  -0.000014 -13.013486 -0.000009  0.010936 -0.284121 -0.076428
60  0.161127 -10.812510 0.023045  0.010936 -0.284121 -0.076428
time 13
0  -13.202128 1.159050 -7.423160  -1.506930 -0.017092 1.051408
1  -7.056720 7.541794 -8.024378  -0.442719 0.184283 0.863213
2  -0.000002 14.313026 0.000007  -1.640126 -0.020172 0.472112
3  0.207147 12.935029 0.058634  0.213870 0.885029 0.181989
4  1.330906 2.698441 -0.462432  0.194890 0.547268 -0.084879
5  0.023985 0.088629 0.019825  0.091266 -0.915384 -0.811368
6  -4.925784 -10.460943 3.189458  0.218218 3.094627 -0.641216
7  -0.083602 -1.860646 0.507890  0.262329 3.069335 -0.998756
8  4.777526 6.028126 1.897725  -1.090396 0.577049 -0.321829
9  5.490342 7.072692 2.428972  -1.090396 0.577049 -0.321829
10  6.562499 8.640628 3.230469  -1.090396 0.577049 -0.321829
11  7.558527 6.997284 -2.354129  1.204257 -2.866200 -0.131012
12  7.558527 6.997283 -2.354132  1.937336 0.275393 -0.131011
13  4.324080 2.743999 -0.524874  -1.090396 0.577049 -0.321829
14  5.012516 3.752834 -0.011801  -1.090396 0.577049 -0.321829
15  5.595487 4.607123 0.422676  -1.090396 0.577049 -0.321829
16  6.233832 5.542562 0.898426  -1.090396 0.577049 -0.321829
17  6.946651 6.587123 1.429667  -1.090396 0.577049 -0.321829
18  7.537935 7.453606 1.870348  -1.090396 0.577049 -0.321829
19  8.154474 8.357079 2.329840  -1.090396 0.577049 -0.321829
20  8.874294 9.411907 2.866309  -1.090396 0.577049 -0.321829
21  0.552593 1.343533 -1.604462  -0.807783 0.821535 -0.281474
22  -0.000016 2.021632 0.000024  0.267212 0.696438 -0.514300
23  -0.000012 1.136200 -0.000020  0.696158 -0.537186 -0.135701
24  0.032721 4.587768 -1.352289  0.006095 2.015863 0.168339
25  -0.000002 1.754521 -0.000033  0.627284 0.101491 -0.145535
26  0.000007 1.227069 0.000032  0.193603 0.170602 -0.080399
27  0.368008 4.208414 -0.173236  -0.783936 2.057805 -0.685333
28  -0.000004 2.372315 -0.000031  0.972914 0.100975 -0.131430
29  0.000002 1.580166 0.000031  -0.224018 0.170320 -0.069948
30  0.937670 3.860714 0.959336  -0.380475 2.876663 -0.484870
31  -0.000017 1.690664 0.000019  0.197181 -0.658789 0.010529
32  0.000007 1.423420 0.000033  0.172911 0.123491 0.133473
33  1.546662 3.404212 1.915589  -0.981444 2.548193 -0.837597
34  -0.000015 1.437867 0.000031  0.840742 -0.088724 0.008204
35  0.000010 1.059375 0.000007  0.279571 0.062288 0.033798
36  20.812506 21.984379 -10.562504  -3.080848 -0.080874 -0.050958
37  0.000000 -14.313023 0.000001  -1.566513 0.000000 -0.000000
38  -0.000007 -13.013484 -0.000005  -0.615923 -2.081690 0.065723
39  -1.330868 -2.698408 0.462451  -0.194886 -0.547260 3.056712
40  -2.867748 -2.740963 0.531126  2.051197 0.577049 -0.321829
41  -4.125840 -2.321496 1.394410  2.051197 0.577049 -0.321829
42  -4.826807 -3.348671 0.872014  2.051196 0.577049 -0.321829
43  -5.441653 -4.249677 0.413769  2.051197 0.577049 -0.321829
44  -0.552531 -1.343530 1.604440  -0.687882 0.662133 -0.833274
45  0.000000 -2.021624 -0.000005  0.494293 -0.000000 -0.000000
46  -0.000009 -1.136202 0.000002  -0.290327 0.000000 0.000000
47  -0.032674 -4.587720 1.352317  -0.573076 1.763007 -0.431401
48  -0.000003 -1.754536 0.000001  0.829780 -0.000000 0.000000
49  -0.000002 -1.227030 0.000002  0.528805 0.000000 -0.000000
50  -0.367990 -4.208403 0.173240  -0.373216 2.030791 -0.770720
51  -0.000006 -2.372312 -0.000001  0.927479 0.000000 0.000000
52  0.000002 -1.580083 0.000003  0.318371 0.000000 0.000000
53  -0.937639 -3.860694 -0.959322  0.170990 2.317753 -0.509472
54  0.000001 -1.690643 -0.000016  0.719375 0.000000 0.000000
55  -0.000003 -1.423461 0.000001  0.462042 -0.000000 0.000000
56  -1.546639 -3.404196 -1.915572  0.405593 2.516782 -0.490951
57  -0.000003 -1.437809 0.000005  0.652785 -0.000000 0.000000
58  -0.000000 -1.059397 -0.000005  0.549901 -0.000000 0.000000
59  -0.000007 -13.013484 -0.000005  0.010936 -0.284121 -0.076428
60  0.161133 -10.812510 0.023046  0.010936 -0.284121 -0.076428
time 14
0  -13.080185 1.190739 -6.679425  -1.511178 0.040074 0.761525
1  -7.055726 7.542333 -8.023921  -0.682748 0.089476 0.504753
2  -0.000004 14.313021 0.000009  -1.640128 -0.020175 0.472116
3  0.207062 12.935259 0.058605  0.271281 0.878622 0.234625
4  1.330903 2.698440 -0.462429  0.194890 0.547268 -0.084879
5  0.023986 0.088629 0.019824  0.091289 -0.915384 -0.811368
6  -4.925786 -10.460945 3.189459  0.218218 3.094627 -0.641216
7  -0.083600 -1.860648 0.507889  0.262329 3.069335 -0.998756
8  4.777525 6.028126 1.897723  -1.090396 0.577049 -0.321829
9  5.490339 7.072691 2.428974  -1.090396 0.577049 -0.321829
10  6.562499 8.640625 3.230471  -1.090396 0.577049 -0.321829
11  7.558525 6.997283 -2.354125  1.204257 -2.866200 -0.131012
12  7.558522 6.997281 -2.354129  1.937336 0.275393 -0.131011
13  4.324084 2.743996 -0.524875  -1.090396 0.577049 -0.321829
14  5.012512 3.752834 -0.011798  -1.090396 0.577049 -0.321829
15  5.595485 4.607121 0.422679  -1.090396 0.577049 -0.321829
16  6.233828 5.542561 0.898429  -1.090396 0.577049 -0.321829
17  6.946647 6.587121 1.429668  -1.090396 0.577049 -0.321829
18  7.537933 7.453605 1.870349  -1.090396 0.577049 -0.321829
19  8.154471 8.357076 2.329840  -1.090396 0.577049 -0.321829
20  8.874292 9.411907 2.866311  -1.090396 0.577049 -0.321829
21  0.552589 1.343533 -1.604458  -0.807783 0.821535 -0.281474
22  -0.000015 2.021629 0.000025  0.267212 0.696438 -0.514300
23  -0.000014 1.136196 -0.000022  0.696158 -0.537186 -0.135701
24  0.032717 4.587767 -1.352286  0.117129 2.035467 0.203478
25  -0.000003 1.754522 -0.000031  0.627284 0.101491 -0.145535
26  0.000001 1.227067 0.000029  0.278467 0.228765 -0.098537
27  0.368008 4.208409 -0.173233  -0.618587 2.034461 -0.634859
28  -0.000004 2.372316 -0.000034  0.972924 0.100977 -0.131431
29  -0.000002 1.580167 0.000030  -0.224018 0.170320 -0.069951
30  0.937669 3.860714 0.959335  -0.298984 2.878701 -0.559781
31  -0.000020 1.690663 0.000022  0.197181 -0.658788 0.010529
32  0.000008 1.423417 0.000032  0.172911 0.123491 0.133473
33  1.546661 3.404210 1.915589  -0.888148 2.528101 -0.877341
34  -0.000020 1.437864 0.000035  0.840741 -0.088724 0.008204
35  0.000005 1.059374 0.000006  0.279571 0.062288 0.033798
36  20.812508 21.984383 -10.562505  -3.080848 -0.080874 -0.050958
37  -0.000002 -14.313031 -0.000005  -1.566513 0.000000 -0.000000
38  -0.000011 -13.013484 -0.000005  -0.615924 -2.081690 0.065723
39  -1.330866 -2.698417 0.462451  -0.194886 -0.547260 3.056712
40  -2.867742 -2.740968 0.531126  2.051196 0.577049 -0.321829
41  -4.125835 -2.321498 1.394406  2.051196 0.577049 -0.321829
42  -4.826800 -3.348673 0.872012  2.051196 0.577049 -0.321829
43  -5.441654 -4.249681 0.413770  2.051196 0.577049 -0.321829
44  -0.552523 -1.343532 1.604445  -0.687882 0.662133 -0.833274
45  -0.000002 -2.021624 -0.000009  0.494293 -0.000000 0.000000
46  -0.000004 -1.136207 0.000004  -0.290327 0.000000 0.000000
47  -0.032656 -4.587720 1.352314  -0.573076 1.763007 -0.431401
48  -0.000001 -1.754536 0.000007  0.829780 -0.000000 0.000000
49  -0.000004 -1.227036 -0.000001  0.528805 -0.000000 -0.000000
50  -0.367985 -4.208406 0.173241  -0.373216 2.030791 -0.770720
51  -0.000005 -2.372321 -0.000001  0.927479 -0.000000 0.000000
52  0.000003 -1.580078 0.000003  0.318371 0.000000 0.000000
53  -0.937631 -3.860695 -0.959323  0.170990 2.317753 -0.509472
54  -0.000000 -1.690626 -0.000008  0.719375 0.000000 0.000000
55  0.000005 -1.423460 0.000004  0.462042 -0.000000 0.000000
56  -1.546637 -3.404195 -1.915567  0.405593 2.516782 -0.490951
57  -0.000003 -1.437817 0.000002  0.652785 0.000000 0.000000
58  -0.000003 -1.059397 -0.000000  0.549901 -0.000000 0.000000
59  -0.000011 -13.013484 -0.000005  0.010936 -0.284121 -0.076428
60  0.161135 -10.812505 0.023052  0.010936 -0.284121 -0.076428
time 15
0  -12.853719 1.249607 -5.298203  -1.514552 0.080899 0.556624
1  -7.054985 7.542780 -8.023580  -0.850706 0.046875 0.223901
2  -0.000003 14.313023 0.000008  -1.640130 -0.020177 0.472118
3  0.207034 12.935338 0.058589  0.313268 0.873936 0.273120
4  1.330904 2.698440 -0.462435  0.194890 0.547268 -0.084879
5  0.023985 0.088629 0.019816  0.091307 -0.915384 -0.811368
6  -4.925787 -10.460945 3.189457  0.218218 3.094627 -0.641216
7  -0.083604 -1.860646 0.507885  0.262329 3.069335 -0.998756
8  4.777525 6.028127 1.897720  -1.090396 0.577049 -0.321829
9  5.490339 7.072690 2.428969  -1.090396 0.577049 -0.321829
10  6.562499 8.640625 3.230469  -1.090396 0.577049 -0.321829
11  7.558523 6.997284 -2.354131  1.204257 -2.866200 -0.131012
12  7.558522 6.997283 -2.354134  1.937336 0.275393 -0.131011
13  4.324083 2.744000 -0.524879  -1.090396 0.577049 -0.321829
14  5.012511 3.752840 -0.011802  -1.090396 0.577049 -0.321829
15  5.595484 4.607120 0.422670  -1.090396 0.577049 -0.321829
16  6.233829 5.542558 0.898425  -1.090396 0.577049 -0.321829
17  6.946646 6.587120 1.429662  -1.090396 0.577049 -0.321829
18  7.537933 7.453608 1.870349  -1.090396 0.577049 -0.321829
19  8.154467 8.357081 2.329837  -1.090396 0.577049 -0.321829
20  8.874290 9.411908 2.866311  -1.090396 0.577049 -0.321829
21  0.552592 1.343534 -1.604464  -0.807783 0.821535 -0.281474
22  -0.000017 2.021631 0.000025  0.267212 0.696438 -0.514300
23  -0.000010 1.136191 -0.000020  0.696158 -0.537186 -0.135701
24  0.032715 4.587771 -1.352289  0.200794 2.050871 0.228612
25  -0.000003 1.754523 -0.000031  0.627284 0.101491 -0.145535
26  0.000004 1.227067 0.000027  0.343946 0.273499 -0.112416
27  0.368011 4.208408 -0.173241  -0.488471 2.017248 -0.592807
28  -0.000002 2.372320 -0.000027  0.972931 0.100979 -0.131432
29  -0.000005 1.580165 0.000037  -0.224018 0.170320 -0.069953
30  0.937668 3.860716 0.959333  -0.235819 2.884468 -0.617261
31  -0.000013 1.690663 0.000024  0.197181 -0.658788 0.010528
32  0.000007 1.423416 0.000032  0.172911 0.123491 0.133473
33  1.546659 3.404212 1.915586  -0.816926 2.513379 -0.908958
34  -0.000019 1.437864 0.000028  0.840740 -0.088724 0.008204
35  0.000003 1.059373 0.000005  0.279571 0.062288 0.033798
36  20.812502 21.984371 -10.562500  -3.080848 -0.080874 -0.050958
37  -0.000002 -14.313023 -0.000002  -1.566513 0.000000 -0.000000
38  -0.000007 -13.013485 -0.000011  -0.615924 -2.081690 0.065723
39  -1.330865 -2.698420 0.462453  -0.194886 -0.547260 3.056712
40  -2.867738 -2.740963 0.531130  2.051196 0.577049 -0.321829
41  -4.125837 -2.321501 1.394412  2.051196 0.577049 -0.321829
42  -4.826799 -3.348673 0.872019  2.051196 0.577049 -0.321829
43  -5.441653 -4.249683 0.413773  2.051196 0.577049 -0.321829
44  -0.552520 -1.343530 1.604442  -0.687882 0.662133 -0.833274
45  -0.000005 -2.021625 -0.000004  0.494293 0.000000 -0.000000
46  -0.000004 -1.136205 0.000003  -0.290327 0.000000 0.000000
47  -0.032665 -4.587728 1.352319  -0.573077 1.763007 -0.431402
48  0.000003 -1.754538 0.000007  0.829780 -0.000000 0.000000
49  -0.000000 -1.227031 0.000006  0.528805 -0.000000 -0.000000
50  -0.367984 -4.208407 0.173245  -0.373216 2.030791 -0.770720
51  -0.000005 -2.372310 -0.000003  0.927479 0.000000 0.000000
52  0.000002 -1.580077 0.000001  0.318371 -0.000000 -0.000000
53  -0.937635 -3.860699 -0.959318  0.170990 2.317753 -0.509472
54  -0.000001 -1.690643 -0.000009  0.719375 -0.000000 0.000000
55  -0.000001 -1.423455 0.000006  0.462042 -0.000000 0.000000
56  -1.546627 -3.404198 -1.915566  0.405593 2.516782 -0.490951
57  -0.000005 -1.437806 0.000002  0.652785 -0.000000 0.000000
58  0.000000 -1.059397 0.000003  0.549901 -0.000000 0.000000
59  -0.000007 -13.013485 -0.000011  0.010936 -0.284121 -0.076428
60  0.161133 -10.812506 0.023057  0.010936 -0.284121 -0.076428
time 16
0  -12.731775 1.281303 -4.554469  -1.515925 0.096451 0.478923
1  -7.054691 7.542973 -8.023440  -0.915663 0.038201 0.110551
2  -0.000006 14.313024 0.000009  -1.640130 -0.020178 0.472119
3  0.207027 12.935353 0.058591  0.329549 0.872119 0.288047
4  1.330905 2.698438 -0.462436  0.194890 0.547268 -0.084879
5  0.023985 0.088630 0.019819  0.091314 -0.915384 -0.811368
6  -4.925788 -10.460945 3.189458  0.218218 3.094627 -0.641216
7  -0.083600 -1.860648 0.507884  0.262329 3.069335 -0.998756
8  4.777526 6.028123 1.897720  -1.090396 0.577049 -0.321829
9  5.490339 7.072690 2.428968  -1.090396 0.577049 -0.321829
10  6.562500 8.640623 3.230470  -1.090396 0.577049 -0.321829
11  7.558526 6.997282 -2.354130  1.204257 -2.866200 -0.131012
12  7.558527 6.997276 -2.354135  1.937336 0.275393 -0.131011
13  4.324084 2.743998 -0.524879  -1.090396 0.577049 -0.321829
14  5.012515 3.752836 -0.011802  -1.090396 0.577049 -0.321829
15  5.595485 4.607120 0.422671  -1.090396 0.577049 -0.321829
16  6.233830 5.542554 0.898423  -1.090396 0.577049 -0.321829
17  6.946647 6.587118 1.429662  -1.090396 0.577049 -0.321829
18  7.537935 7.453605 1.870346  -1.090396 0.577049 -0.321829
19  8.154469 8.357076 2.329838  -1.090396 0.577049 -0.321829
20  8.874289 9.411904 2.866309  -1.090396 0.577049 -0.321829
21  0.552590 1.343531 -1.604461  -0.807783 0.821535 -0.281474
22  -0.000015 2.021631 0.000025  0.267212 0.696438 -0.514300
23  -0.000010 1.136195 -0.000023  0.696158 -0.537186 -0.135701
24  0.032715 4.587767 -1.352288  0.233865 2.057105 0.238235
25  -0.000005 1.754522 -0.000030  0.627284 0.101491 -0.145535
26  0.000003 1.227069 0.000029  0.370189 0.291391 -0.117946
27  0.368011 4.208405 -0.173239  -0.435663 2.010562 -0.575152
28  -0.000003 2.372319 -0.000032  0.972934 0.100980 -0.131432
29  -0.000004 1.580170 0.000035  -0.224018 0.170320 -0.069954
30  0.937668 3.860713 0.959331  -0.210367 2.887789 -0.640143
31  -0.000019 1.690663 0.000020  0.197181 -0.658788 0.010528
32  0.000008 1.423415 0.000030  0.172911 0.123491 0.133473
33  1.546659 3.404207 1.915587  -0.788568 2.507674 -0.921856
34  -0.000017 1.437864 0.000028  0.840740 -0.088724 0.008204
35  0.000002 1.059373 0.000008  0.279571 0.062288 0.033798
36  20.812498 21.984371 -10.562498  -3.080848 -0.080874 -0.050958
37  -0.000003 -14.313034 -0.000002  -1.566513 0.000000 -0.000000
38  -0.000006 -13.013485 -0.000013  -0.615924 -2.081690 0.065723
39  -1.330877 -2.698418 0.462451  -0.194886 -0.547260 3.056712
40  -2.867754 -2.740961 0.531130  2.051197 0.577049 -0.321829
41  -4.125852 -2.321502 1.394413  2.051197 0.577049 -0.321829
42  -4.826809 -3.348668 0.872015  2.051196 0.577049 -0.321829
43  -5.441669 -4.249683 0.413772  2.051197 0.577049 -0.321829
44  -0.552535 -1.343530 1.604442  -0.687882 0.662133 -0.833274
45  -0.000001 -2.021620 -0.000005  0.494293 0.000000 -0.000000
46  -0.000007 -1.136212 0.000003  -0.290327 0.000000 0.000000
47  -0.032669 -4.587718 1.352320  -0.573077 1.763007 -0.431401
48  0.000001 -1.754538 0.000004  0.829780 -0.000000 0.000000
49  -0.000003 -1.227031 0.000002  0.528805 -0.000000 -0.000000
50  -0.367995 -4.208404 0.173243  -0.373216 2.030791 -0.770720
51  -0.000005 -2.372315 0.000001  0.927479 0.000000 0.000000
52  0.000000 -1.580077 -0.000009  0.318371 0.000000 0.000000
53  -0.937642 -3.860694 -0.959320  0.170990 2.317753 -0.509472
54  0.000001 -1.690634 -0.000009  0.719375 0.000000 0.000000
55  0.000001 -1.423456 -0.000003  0.462042 -0.000000 0.000000
56  -1.546648 -3.404197 -1.915565  0.405593 2.516782 -0.490951
57  -0.000007 -1.437819 0.000003  0.652785 0.000000 0.000000
58  0.000004 -1.059401 -0.000001  0.549901 -0.000000 0.000000
59  -0.000006 -13.013485 -0.000013  0.010936 -0.284121 -0.076428
60  0.161133 -10.812506 0.023053  0.010936 -0.284121 -0.076428
end
