version 1
nodes
0 "root" -1
1 "bip_upperArm_R" 0
2 "bip_lowerArm_R" 1
3 "bip_hand_R" 2
4 "effect_hand_R" 3
5 "weapon_bone" 3
6 "weapon_bone_1" 3
7 "weapon_bone_2" 3
8 "weapon_bone_3" 3
9 "weapon_bone_4" 3
10 "weapon_bone_5" 3
11 "weapon_bone_6" 3
12 "weapon_bone_7" 3
13 "vm_weapon_bone" 3
14 "vm_weapon_bone_1" 3
15 "vm_weapon_bone_2" 3
16 "vm_weapon_bone_3" 3
17 "vm_weapon_bone_4" 3
18 "vm_weapon_bone_5" 3
19 "vm_weapon_bone_6" 3
20 "vm_weapon_bone_7" 3
21 "bip_thumb_0_R" 3
22 "bip_thumb_1_R" 21
23 "bip_thumb_2_R" 22
24 "bip_index_0_R" 3
25 "bip_index_1_R" 24
26 "bip_index_2_R" 25
27 "bip_middle_0_R" 3
28 "bip_middle_1_R" 27
29 "bip_middle_2_R" 28
30 "bip_ring_0_R" 3
31 "bip_ring_1_R" 30
32 "bip_ring_2_R" 31
33 "bip_pinky_0_R" 3
34 "bip_pinky_1_R" 33
35 "bip_pinky_2_R" 34
36 "bip_upperArm_L" 0
37 "bip_lowerArm_L" 36
38 "bip_hand_L" 37
39 "effect_hand_L" 38
40 "weapon_bone_L" 38
41 "vm_weapon_bone_L" 38
42 "vm_weapon_bone_L_1" 38
43 "vm_weapon_bone_L_2" 38
44 "bip_thumb_0_L" 38
45 "bip_thumb_1_L" 44
46 "bip_thumb_2_L" 45
47 "bip_index_0_L" 38
48 "bip_index_1_L" 47
49 "bip_index_2_L" 48
50 "bip_middle_0_L" 38
51 "bip_middle_1_L" 50
52 "bip_middle_2_L" 51
53 "bip_ring_0_L" 38
54 "bip_ring_1_L" 53
55 "bip_ring_2_L" 54
56 "bip_pinky_0_L" 38
57 "bip_pinky_1_L" 56
58 "bip_pinky_2_L" 57
59 "Sleeve_Control" 37
60 "Wrist_Control" 37
end
skeleton
time 0
0  -12.731775 1.281303 -4.554469  -1.515925 0.096451 0.478923
1  2.671562 7.268005 -10.025601  -0.959029 0.474187 -0.099727
2  0.000004 14.313021 0.000008  -1.795244 0.045868 0.420160
3  0.207025 12.935354 0.058585  -1.408969 -0.606804 1.784740
4  1.330915 2.698441 -0.462436  0.194890 0.547268 -0.084879
5  0.023988 0.088625 0.070335  0.091218 -0.915384 -0.811368
6  -4.925779 -10.460942 3.191408  0.218220 3.094644 -0.641218
7  -0.083603 -1.860648 0.511791  0.262329 3.069335 -0.998756
8  4.777531 6.028123 1.897720  -1.090396 0.577049 -0.321829
9  5.490348 7.072680 2.428971  -1.090396 0.577049 -0.321829
10  6.562502 8.640621 3.230472  -1.090396 0.577049 -0.321829
11  7.558529 6.997275 -2.354133  1.204257 -2.866199 -0.131012
12  7.558528 6.997275 -2.354135  1.937336 0.275393 -0.131011
13  4.324082 2.743994 -0.524877  -1.090396 0.577049 -0.321829
14  5.012515 3.752824 -0.011803  -1.090396 0.577049 -0.321829
15  5.595494 4.607118 0.422671  -1.090396 0.577049 -0.321829
16  6.233834 5.542558 0.898426  -1.090396 0.577049 -0.321829
17  6.946654 6.587114 1.429666  -1.090396 0.577049 -0.321829
18  7.537937 7.453601 1.870349  -1.090396 0.577049 -0.321829
19  8.154472 8.357072 2.329840  -1.090396 0.577049 -0.321829
20  8.874297 9.411901 2.866308  -1.090396 0.577049 -0.321829
21  0.552586 1.343530 -1.604463  -0.801747 0.269213 -0.092434
22  -0.000020 2.021631 0.000024  0.548923 1.198496 0.361818
23  -0.000025 1.136204 -0.000028  1.217729 -0.674962 -0.142317
24  0.032725 4.587763 -1.352294  1.039690 2.032328 0.548732
25  -0.000008 1.754517 -0.000037  0.627284 0.101491 -0.145535
26  0.000004 1.227072 0.000041  0.501508 0.322553 0.162331
27  0.368015 4.208414 -0.173240  0.304482 2.088151 -0.386476
28  -0.000007 2.372316 -0.000034  0.973113 -0.311527 -0.193761
29  -0.000000 1.580171 0.000031  -0.224018 0.170320 -0.069942
30  0.937673 3.860714 0.959334  -0.042574 2.614623 -0.776556
31  -0.000022 1.690669 0.000021  0.612129 -0.592523 -0.137571
32  0.000006 1.423418 0.000032  0.468028 0.102216 0.238697
33  1.546664 3.404210 1.915583  -0.241251 2.119727 -1.574982
34  -0.000022 1.437872 0.000028  0.355272 0.143212 -0.317811
35  0.000003 1.059378 0.000008  0.279571 0.062288 0.033798
36  40.718758 41.625004 32.312504  -3.080848 -0.080874 -0.050958
37  0.000001 -14.313034 0.000007  -1.566513 -0.000000 0.000000
38  -0.000008 -13.013496 -0.000005  -0.615923 -2.081690 0.065723
39  -1.330888 -2.698420 0.462450  -0.194886 -0.547260 3.056712
40  -2.867773 -2.740965 0.531127  2.051196 0.577049 -0.321829
41  -4.125865 -2.321497 1.394410  2.051196 0.577049 -0.321829
42  -4.826830 -3.348674 0.872020  2.051196 0.577049 -0.321829
43  -5.441683 -4.249681 0.413767  2.051196 0.577049 -0.321829
44  -0.552538 -1.343524 1.604442  -0.687882 0.662133 -0.833274
45  0.000006 -2.021613 -0.000009  0.494293 -0.000000 -0.000000
46  -0.000010 -1.136233 -0.000008  -0.290327 -0.000000 -0.000000
47  -0.032687 -4.587726 1.352316  -0.573077 1.763007 -0.431402
48  -0.000002 -1.754528 0.000003  0.829780 -0.000000 -0.000000
49  0.000000 -1.227014 -0.000003  0.528805 -0.000000 0.000000
50  -0.368010 -4.208410 0.173250  -0.373218 2.030790 -0.770720
51  0.000001 -2.372314 -0.000015  0.927479 0.000000 0.000000
52  0.000004 -1.580077 0.000002  0.318371 0.000000 0.000000
53  -0.937658 -3.860698 -0.959314  0.170990 2.317753 -0.509471
54  0.000008 -1.690629 0.000010  0.719375 -0.000000 0.000000
55  0.000002 -1.423449 0.000003  0.462042 0.000000 -0.000000
56  -1.546662 -3.404189 -1.915563  0.405593 2.516782 -0.490951
57  0.000010 -1.437811 -0.000010  0.652785 0.000000 -0.000000
58  0.000006 -1.059407 -0.000000  0.549901 0.000000 0.000000
59  -0.000008 -13.013496 -0.000005  0.010936 -0.284121 -0.076428
60  0.161134 -10.812498 0.023101  0.010936 -0.284121 -0.076428
time 1
0  -12.731775 1.281303 -4.554469  -1.515925 0.096451 0.478923
1  2.671562 7.268005 -10.025601  -0.929911 0.474902 -0.100414
2  0.000003 14.313018 0.000004  -1.793533 0.045113 0.420763
3  0.207026 12.935352 0.058593  -1.298735 -0.711504 1.599043
4  1.330908 2.698446 -0.462435  0.194890 0.547268 -0.084879
5  0.023988 0.088626 0.070335  0.091314 -0.915384 -0.811368
6  -4.925781 -10.460936 3.191406  0.218221 3.094644 -0.641218
7  -0.083607 -1.860645 0.511791  0.262329 3.069335 -0.998756
8  4.777526 6.028126 1.897720  -1.090396 0.577049 -0.321829
9  5.490341 7.072687 2.428974  -1.090396 0.577049 -0.321829
10  6.562496 8.640625 3.230474  -1.090396 0.577049 -0.321829
11  7.558523 6.997279 -2.354132  1.204257 -2.866199 -0.131012
12  7.558523 6.997280 -2.354132  1.937336 0.275393 -0.131011
13  4.324079 2.743998 -0.524876  -1.090396 0.577049 -0.321829
14  5.012513 3.752828 -0.011802  -1.090396 0.577049 -0.321829
15  5.595487 4.607122 0.422672  -1.090396 0.577049 -0.321829
16  6.233829 5.542563 0.898429  -1.090396 0.577049 -0.321829
17  6.946645 6.587120 1.429668  -1.090396 0.577049 -0.321829
18  7.537930 7.453604 1.870350  -1.090396 0.577049 -0.321829
19  8.154469 8.357074 2.329840  -1.090396 0.577049 -0.321829
20  8.874294 9.411901 2.866310  -1.090396 0.577049 -0.321829
21  0.552581 1.343534 -1.604461  -0.800963 0.275477 -0.093999
22  -0.000022 2.021634 0.000025  0.541505 1.193411 0.347620
23  -0.000023 1.136203 -0.000022  1.211920 -0.673437 -0.142281
24  0.032721 4.587767 -1.352293  1.030574 2.032365 0.545093
25  -0.000007 1.754518 -0.000031  0.627284 0.101491 -0.145535
26  0.000004 1.227074 0.000038  0.501508 0.322553 0.162331
27  0.368015 4.208414 -0.173238  0.296400 2.087185 -0.388256
28  -0.000008 2.372316 -0.000029  0.972455 -0.306997 -0.192789
29  -0.000001 1.580170 0.000028  -0.224018 0.170320 -0.069942
30  0.937669 3.860716 0.959335  -0.044526 2.615949 -0.775296
31  -0.000016 1.690669 0.000018  0.609275 -0.596274 -0.138087
32  0.000007 1.423419 0.000024  0.467954 0.104218 0.234263
33  1.546657 3.404211 1.915585  -0.244112 2.122666 -1.564009
34  -0.000021 1.437870 0.000027  0.360937 0.140671 -0.314091
35  0.000006 1.059372 0.000008  0.279571 0.062288 0.033798
36  40.718758 41.625004 32.312504  -3.080848 -0.080874 -0.050958
37  0.000001 -14.313034 0.000007  -1.566513 -0.000000 0.000000
38  -0.000008 -13.013496 -0.000005  -0.615923 -2.081690 0.065723
39  -1.330888 -2.698420 0.462450  -0.194886 -0.547260 3.056712
40  -2.867773 -2.740965 0.531127  2.051196 0.577049 -0.321829
41  -4.125865 -2.321497 1.394410  2.051196 0.577049 -0.321829
42  -4.826830 -3.348674 0.872020  2.051196 0.577049 -0.321829
43  -5.441683 -4.249681 0.413767  2.051196 0.577049 -0.321829
44  -0.552538 -1.343524 1.604442  -0.687882 0.662133 -0.833274
45  0.000006 -2.021613 -0.000009  0.494293 -0.000000 -0.000000
46  -0.000010 -1.136233 -0.000008  -0.290327 -0.000000 -0.000000
47  -0.032687 -4.587726 1.352316  -0.573077 1.763007 -0.431402
48  -0.000002 -1.754528 0.000003  0.829780 -0.000000 -0.000000
49  0.000000 -1.227014 -0.000003  0.528805 -0.000000 0.000000
50  -0.368010 -4.208410 0.173250  -0.373218 2.030790 -0.770720
51  0.000001 -2.372314 -0.000015  0.927479 0.000000 0.000000
52  0.000004 -1.580077 0.000002  0.318371 0.000000 0.000000
53  -0.937658 -3.860698 -0.959314  0.170990 2.317753 -0.509471
54  0.000008 -1.690629 0.000010  0.719375 -0.000000 0.000000
55  0.000002 -1.423449 0.000003  0.462042 0.000000 -0.000000
56  -1.546662 -3.404189 -1.915563  0.405593 2.516782 -0.490951
57  0.000010 -1.437811 -0.000010  0.652785 0.000000 -0.000000
58  0.000006 -1.059407 -0.000000  0.549901 0.000000 0.000000
59  -0.000008 -13.013496 -0.000005  0.010936 -0.284121 -0.076428
60  0.161134 -10.812498 0.023101  0.010936 -0.284121 -0.076428
time 2
0  -12.731775 1.281303 -4.554469  -1.515925 0.096451 0.478923
1  2.663754 7.268005 -10.021696  -0.850849 0.476810 -0.102094
2  0.000001 14.313016 0.000006  -1.788584 0.043024 0.422412
3  0.207026 12.935355 0.058589  -1.056219 -0.941844 1.190509
4  1.330908 2.698446 -0.462435  0.194890 0.547268 -0.084879
5  0.023984 0.088630 0.070336  0.091218 -0.915384 -0.811368
6  -4.925776 -10.460939 3.191406  0.218220 3.094644 -0.641218
7  -0.083606 -1.860645 0.511791  0.262329 3.069335 -0.998756
8  4.777524 6.028127 1.897722  -1.090396 0.577049 -0.321829
9  5.490343 7.072689 2.428973  -1.090396 0.577049 -0.321829
10  6.562496 8.640627 3.230472  -1.090396 0.577049 -0.321829
11  7.558527 6.997280 -2.354133  1.204257 -2.866200 -0.131012
12  7.558529 6.997280 -2.354134  1.937336 0.275393 -0.131011
13  4.324079 2.743997 -0.524877  -1.090396 0.577049 -0.321829
14  5.012510 3.752832 -0.011801  -1.090396 0.577049 -0.321829
15  5.595487 4.607126 0.422674  -1.090396 0.577049 -0.321829
16  6.233833 5.542565 0.898428  -1.090396 0.577049 -0.321829
17  6.946650 6.587119 1.429667  -1.090396 0.577049 -0.321829
18  7.537933 7.453607 1.870352  -1.090396 0.577049 -0.321829
19  8.154470 8.357075 2.329838  -1.090396 0.577049 -0.321829
20  8.874292 9.411904 2.866308  -1.090396 0.577049 -0.321829
21  0.552585 1.343534 -1.604461  -0.798847 0.293201 -0.098455
22  -0.000025 2.021633 0.000028  0.521672 1.178854 0.308531
23  -0.000020 1.136203 -0.000020  1.195514 -0.669070 -0.142173
24  0.032723 4.587769 -1.352293  1.004791 2.032551 0.534854
25  -0.000006 1.754519 -0.000033  0.627284 0.101491 -0.145535
26  0.000005 1.227072 0.000038  0.501508 0.322553 0.162331
27  0.368008 4.208418 -0.173237  0.273676 2.084520 -0.393442
28  -0.000008 2.372317 -0.000029  0.970700 -0.294174 -0.190096
29  -0.000002 1.580169 0.000028  -0.224018 0.170320 -0.069942
30  0.937669 3.860720 0.959336  -0.049915 2.619743 -0.771830
31  -0.000023 1.690668 0.000019  0.601263 -0.606889 -0.139597
32  0.000006 1.423418 0.000026  0.467661 0.109887 0.221739
33  1.546663 3.404212 1.915584  -0.252603 2.131195 -1.533469
34  -0.000022 1.437874 0.000029  0.377022 0.133445 -0.303545
35  0.000007 1.059373 0.000006  0.279571 0.062288 0.033798
36  40.718758 41.625004 32.312504  -3.080848 -0.080874 -0.050958
37  0.000001 -14.313034 0.000007  -1.566513 -0.000000 0.000000
38  -0.000008 -13.013496 -0.000005  -0.615923 -2.081690 0.065723
39  -1.330888 -2.698420 0.462450  -0.194886 -0.547260 3.056712
40  -2.867773 -2.740965 0.531127  2.051196 0.577049 -0.321829
41  -4.125865 -2.321497 1.394410  2.051196 0.577049 -0.321829
42  -4.826830 -3.348674 0.872020  2.051196 0.577049 -0.321829
43  -5.441683 -4.249681 0.413767  2.051196 0.577049 -0.321829
44  -0.552538 -1.343524 1.604442  -0.687882 0.662133 -0.833274
45  0.000006 -2.021613 -0.000009  0.494293 -0.000000 -0.000000
46  -0.000010 -1.136233 -0.000008  -0.290327 -0.000000 -0.000000
47  -0.032687 -4.587726 1.352316  -0.573077 1.763007 -0.431402
48  -0.000002 -1.754528 0.000003  0.829780 -0.000000 -0.000000
49  0.000000 -1.227014 -0.000003  0.528805 -0.000000 0.000000
50  -0.368010 -4.208410 0.173250  -0.373218 2.030790 -0.770720
51  0.000001 -2.372314 -0.000015  0.927479 0.000000 0.000000
52  0.000004 -1.580077 0.000002  0.318371 0.000000 0.000000
53  -0.937658 -3.860698 -0.959314  0.170990 2.317753 -0.509471
54  0.000008 -1.690629 0.000010  0.719375 -0.000000 0.000000
55  0.000002 -1.423449 0.000003  0.462042 0.000000 -0.000000
56  -1.546662 -3.404189 -1.915563  0.405593 2.516782 -0.490951
57  0.000010 -1.437811 -0.000010  0.652785 0.000000 -0.000000
58  0.000006 -1.059407 -0.000000  0.549901 0.000000 0.000000
59  -0.000008 -13.013496 -0.000005  0.010936 -0.284121 -0.076428
60  0.161134 -10.812498 0.023101  0.010936 -0.284121 -0.076428
time 3
0  -12.731775 1.281303 -4.554469  -1.515925 0.096451 0.478923
1  2.648128 7.268003 -10.017788  -0.734376 0.479576 -0.104615
2  0.000004 14.313011 0.000008  -1.780886 0.039779 0.424987
3  0.207028 12.935358 0.058587  -0.813702 -1.172183 0.781974
4  1.330912 2.698442 -0.462437  0.194890 0.547268 -0.084879
5  0.023983 0.088626 0.019824  0.091218 -0.915384 -0.811368
6  -4.925781 -10.460941 3.191407  0.218220 3.094644 -0.641218
7  -0.079702 -1.860645 0.511792  0.262329 3.069335 -0.998756
8  4.777525 6.028124 1.897724  -1.090396 0.577049 -0.321829
9  5.490343 7.072686 2.428973  -1.090396 0.577049 -0.321829
10  6.562499 8.640623 3.230473  -1.090396 0.577049 -0.321829
11  7.558529 6.997278 -2.354133  1.204257 -2.866199 -0.131012
12  7.558533 6.997279 -2.354135  1.937336 0.275393 -0.131011
13  4.324077 2.743996 -0.524875  -1.090396 0.577049 -0.321829
14  5.012511 3.752828 -0.011801  -1.090396 0.577049 -0.321829
15  5.595485 4.607122 0.422674  -1.090396 0.577049 -0.321829
16  6.233829 5.542562 0.898428  -1.090396 0.577049 -0.321829
17  6.946650 6.587116 1.429667  -1.090396 0.577049 -0.321829
18  7.537934 7.453603 1.870350  -1.090396 0.577049 -0.321829
19  8.154470 8.357074 2.329838  -1.090396 0.577049 -0.321829
20  8.874294 9.411902 2.866311  -1.090396 0.577049 -0.321829
21  0.552580 1.343532 -1.604461  -0.795789 0.320678 -0.105476
22  -0.000021 2.021630 0.000022  0.493687 1.155956 0.250677
23  -0.000024 1.136201 -0.000031  1.169953 -0.662293 -0.142005
24  0.032721 4.587765 -1.352292  0.964683 2.032922 0.519004
25  -0.000004 1.754515 -0.000037  0.627284 0.101491 -0.145535
26  0.000007 1.227074 0.000036  0.501508 0.322553 0.162331
27  0.368006 4.208413 -0.173238  0.238200 2.080422 -0.401569
28  -0.000007 2.372316 -0.000030  0.968244 -0.274183 -0.186061
29  0.000000 1.580167 0.000032  -0.224018 0.170320 -0.069942
30  0.937669 3.860717 0.959336  -0.058369 2.625634 -0.766395
31  -0.000019 1.690665 0.000021  0.589045 -0.623312 -0.142149
32  0.000007 1.423425 0.000031  0.467220 0.118707 0.202288
33  1.546662 3.404209 1.915584  -0.267185 2.145198 -1.487658
34  -0.000020 1.437869 0.000028  0.401925 0.122211 -0.287221
35  0.000007 1.059372 0.000007  0.279571 0.062288 0.033798
36  40.718758 41.625004 32.312504  -3.080848 -0.080874 -0.050958
37  0.000001 -14.313034 0.000007  -1.566513 -0.000000 0.000000
38  -0.000008 -13.013496 -0.000005  -0.615923 -2.081690 0.065723
39  -1.330888 -2.698420 0.462450  -0.194886 -0.547260 3.056712
40  -2.867773 -2.740965 0.531127  2.051196 0.577049 -0.321829
41  -4.125865 -2.321497 1.394410  2.051196 0.577049 -0.321829
42  -4.826830 -3.348674 0.872020  2.051196 0.577049 -0.321829
43  -5.441683 -4.249681 0.413767  2.051196 0.577049 -0.321829
44  -0.552538 -1.343524 1.604442  -0.687882 0.662133 -0.833274
45  0.000006 -2.021613 -0.000009  0.494293 -0.000000 -0.000000
46  -0.000010 -1.136233 -0.000008  -0.290327 -0.000000 -0.000000
47  -0.032687 -4.587726 1.352316  -0.573077 1.763007 -0.431402
48  -0.000002 -1.754528 0.000003  0.829780 -0.000000 -0.000000
49  0.000000 -1.227014 -0.000003  0.528805 -0.000000 0.000000
50  -0.368010 -4.208410 0.173250  -0.373218 2.030790 -0.770720
51  0.000001 -2.372314 -0.000015  0.927479 0.000000 0.000000
52  0.000004 -1.580077 0.000002  0.318371 0.000000 0.000000
53  -0.937658 -3.860698 -0.959314  0.170990 2.317753 -0.509471
54  0.000008 -1.690629 0.000010  0.719375 -0.000000 0.000000
55  0.000002 -1.423449 0.000003  0.462042 0.000000 -0.000000
56  -1.546662 -3.404189 -1.915563  0.405593 2.516782 -0.490951
57  0.000010 -1.437811 -0.000010  0.652785 0.000000 -0.000000
58  0.000006 -1.059407 -0.000000  0.549901 0.000000 0.000000
59  -0.000008 -13.013496 -0.000005  0.010936 -0.284121 -0.076428
60  0.161134 -10.812498 0.023101  0.010936 -0.284121 -0.076428
time 4
0  -12.731775 1.281303 -4.554469  -1.515925 0.096451 0.478923
1  2.612969 7.268001 -10.013880  -0.593023 0.483009 -0.107670
2  -0.000000 14.313021 0.000006  -1.770866 0.035552 0.428325
3  0.207026 12.935354 0.058594  -0.703466 -1.276883 0.596275
4  1.330910 2.698442 -0.462436  0.194890 0.547268 -0.084879
5  0.023984 0.088627 0.070335  0.091314 -0.915384 -0.811368
6  -4.925778 -10.460941 3.191411  0.218220 3.094644 -0.641218
7  -0.083606 -1.856740 0.511793  0.262329 3.069335 -0.998757
8  4.777527 6.028125 1.897722  -1.090396 0.577049 -0.321829
9  5.490347 7.072686 2.428974  -1.090396 0.577049 -0.321829
10  6.562501 8.640628 3.230473  -1.090396 0.577049 -0.321829
11  7.558525 6.997278 -2.354133  1.204257 -2.866199 -0.131012
12  7.558528 6.997280 -2.354133  1.937336 0.275393 -0.131011
13  4.324077 2.743998 -0.524875  -1.090396 0.577049 -0.321829
14  5.012510 3.752828 -0.011800  -1.090396 0.577049 -0.321829
15  5.595484 4.607119 0.422673  -1.090396 0.577049 -0.321829
16  6.233828 5.542563 0.898428  -1.090396 0.577049 -0.321829
17  6.946650 6.587113 1.429666  -1.090396 0.577049 -0.321829
18  7.537934 7.453604 1.870349  -1.090396 0.577049 -0.321829
19  8.154468 8.357072 2.329840  -1.090396 0.577049 -0.321829
20  8.874292 9.411901 2.866312  -1.090396 0.577049 -0.321829
21  0.552581 1.343534 -1.604460  -0.792209 0.356363 -0.114758
22  -0.000026 2.021631 0.000024  0.461872 1.125743 0.180183
23  -0.000021 1.136202 -0.000027  1.136817 -0.653498 -0.141754
24  0.032722 4.587765 -1.352294  0.912768 2.033553 0.498529
25  -0.000008 1.754517 -0.000037  0.627284 0.101491 -0.145535
26  0.000002 1.227073 0.000037  0.501508 0.322553 0.162331
27  0.368013 4.208415 -0.173239  0.192035 2.075125 -0.412327
28  -0.000006 2.372312 -0.000034  0.965523 -0.248165 -0.181080
29  -0.000001 1.580167 0.000028  -0.224018 0.170320 -0.069942
30  0.937671 3.860718 0.959336  -0.069331 2.633314 -0.759384
31  -0.000019 1.690666 0.000015  0.573622 -0.644514 -0.145817
32  0.000006 1.423417 0.000031  0.466486 0.130176 0.177060
33  1.546661 3.404209 1.915584  -0.288690 2.164590 -1.431028
34  -0.000022 1.437869 0.000024  0.434042 0.107578 -0.266111
35  0.000006 1.059376 0.000005  0.279571 0.062288 0.033798
36  40.718758 41.625004 32.312504  -3.080848 -0.080874 -0.050958
37  0.000001 -14.313034 0.000007  -1.566513 -0.000000 0.000000
38  -0.000008 -13.013496 -0.000005  -0.615923 -2.081690 0.065723
39  -1.330888 -2.698420 0.462450  -0.194886 -0.547260 3.056712
40  -2.867773 -2.740965 0.531127  2.051196 0.577049 -0.321829
41  -4.125865 -2.321497 1.394410  2.051196 0.577049 -0.321829
42  -4.826830 -3.348674 0.872020  2.051196 0.577049 -0.321829
43  -5.441683 -4.249681 0.413767  2.051196 0.577049 -0.321829
44  -0.552538 -1.343524 1.604442  -0.687882 0.662133 -0.833274
45  0.000006 -2.021613 -0.000009  0.494293 -0.000000 -0.000000
46  -0.000010 -1.136233 -0.000008  -0.290327 -0.000000 -0.000000
47  -0.032687 -4.587726 1.352316  -0.573077 1.763007 -0.431402
48  -0.000002 -1.754528 0.000003  0.829780 -0.000000 -0.000000
49  0.000000 -1.227014 -0.000003  0.528805 -0.000000 0.000000
50  -0.368010 -4.208410 0.173250  -0.373218 2.030790 -0.770720
51  0.000001 -2.372314 -0.000015  0.927479 0.000000 0.000000
52  0.000004 -1.580077 0.000002  0.318371 0.000000 0.000000
53  -0.937658 -3.860698 -0.959314  0.170990 2.317753 -0.509471
54  0.000008 -1.690629 0.000010  0.719375 -0.000000 0.000000
55  0.000002 -1.423449 0.000003  0.462042 0.000000 -0.000000
56  -1.546662 -3.404189 -1.915563  0.405593 2.516782 -0.490951
57  0.000010 -1.437811 -0.000010  0.652785 0.000000 -0.000000
58  0.000006 -1.059407 -0.000000  0.549901 0.000000 0.000000
59  -0.000008 -13.013496 -0.000005  0.010936 -0.284121 -0.076428
60  0.161134 -10.812498 0.023101  0.010936 -0.284121 -0.076428
time 5
0  -12.731775 1.281303 -4.554469  -1.515925 0.096451 0.478923
1  2.558280 7.268004 -10.002161  -0.439046 0.486729 -0.110955
2  0.000003 14.313016 0.000001  -1.759074 0.030570 0.432268
3  0.207027 12.935355 0.058590  -0.703467 -1.276883 0.596275
4  1.330911 2.698443 -0.462435  0.194890 0.547268 -0.084879
5  0.023988 0.088630 0.019823  0.091218 -0.915384 -0.811368
6  -4.925776 -10.460938 3.191407  0.218221 3.094644 -0.641217
7  -0.083607 -1.856740 0.511792  0.262329 3.069335 -0.998756
8  4.777528 6.028129 1.897721  -1.090396 0.577049 -0.321829
9  5.490345 7.072692 2.428972  -1.090396 0.577049 -0.321829
10  6.562497 8.640623 3.230472  -1.090396 0.577049 -0.321829
11  7.558527 6.997280 -2.354131  1.204257 -2.866200 -0.131012
12  7.558527 6.997280 -2.354133  1.937336 0.275393 -0.131011
13  4.324080 2.743997 -0.524876  -1.090396 0.577049 -0.321829
14  5.012510 3.752832 -0.011799  -1.090396 0.577049 -0.321829
15  5.595493 4.607123 0.422672  -1.090396 0.577049 -0.321829
16  6.233833 5.542562 0.898428  -1.090396 0.577049 -0.321829
17  6.946653 6.587120 1.429667  -1.090396 0.577049 -0.321829
18  7.537938 7.453607 1.870350  -1.090396 0.577049 -0.321829
19  8.154473 8.357077 2.329840  -1.090396 0.577049 -0.321829
20  8.874292 9.411904 2.866308  -1.090396 0.577049 -0.321829
21  0.552588 1.343534 -1.604463  -0.788603 0.398511 -0.126061
22  -0.000021 2.021633 0.000028  0.429622 1.089349 0.102254
23  -0.000020 1.136202 -0.000029  1.097499 -0.643075 -0.141406
24  0.032722 4.587767 -1.352294  0.851305 2.034518 0.474337
25  -0.000008 1.754519 -0.000036  0.627284 0.101491 -0.145535
26  0.000009 1.227070 0.000037  0.501508 0.322553 0.162331
27  0.368010 4.208414 -0.173237  0.137160 2.068895 -0.425330
28  -0.000008 2.372312 -0.000023  0.962979 -0.217257 -0.175521
29  -0.000002 1.580173 0.000031  -0.224018 0.170320 -0.069942
30  0.937674 3.860717 0.959335  -0.082430 2.642413 -0.751272
31  -0.000016 1.690667 0.000016  0.556045 -0.669468 -0.150730
32  0.000005 1.423421 0.000030  0.465458 0.143779 0.147207
33  1.546666 3.404212 1.915585  -0.317854 2.189196 -1.368029
34  -0.000021 1.437866 0.000028  0.471824 0.090190 -0.241224
35  0.000006 1.059374 0.000004  0.279571 0.062288 0.033798
36  40.718758 41.625004 32.312504  -3.080848 -0.080874 -0.050958
37  0.000001 -14.313034 0.000007  -1.566513 -0.000000 0.000000
38  -0.000008 -13.013496 -0.000005  -0.615923 -2.081690 0.065723
39  -1.330888 -2.698420 0.462450  -0.194886 -0.547260 3.056712
40  -2.867773 -2.740965 0.531127  2.051196 0.577049 -0.321829
41  -4.125865 -2.321497 1.394410  2.051196 0.577049 -0.321829
42  -4.826830 -3.348674 0.872020  2.051196 0.577049 -0.321829
43  -5.441683 -4.249681 0.413767  2.051196 0.577049 -0.321829
44  -0.552538 -1.343524 1.604442  -0.687882 0.662133 -0.833274
45  0.000006 -2.021613 -0.000009  0.494293 -0.000000 -0.000000
46  -0.000010 -1.136233 -0.000008  -0.290327 -0.000000 -0.000000
47  -0.032687 -4.587726 1.352316  -0.573077 1.763007 -0.431402
48  -0.000002 -1.754528 0.000003  0.829780 -0.000000 -0.000000
49  0.000000 -1.227014 -0.000003  0.528805 -0.000000 0.000000
50  -0.368010 -4.208410 0.173250  -0.373218 2.030790 -0.770720
51  0.000001 -2.372314 -0.000015  0.927479 0.000000 0.000000
52  0.000004 -1.580077 0.000002  0.318371 0.000000 0.000000
53  -0.937658 -3.860698 -0.959314  0.170990 2.317753 -0.509471
54  0.000008 -1.690629 0.000010  0.719375 -0.000000 0.000000
55  0.000002 -1.423449 0.000003  0.462042 0.000000 -0.000000
56  -1.546662 -3.404189 -1.915563  0.405593 2.516782 -0.490951
57  0.000010 -1.437811 -0.000010  0.652785 0.000000 -0.000000
58  0.000006 -1.059407 -0.000000  0.549901 0.000000 0.000000
59  -0.000008 -13.013496 -0.000005  0.010936 -0.284121 -0.076428
60  0.161134 -10.812498 0.023101  0.010936 -0.284121 -0.076428
time 6
0  -12.731775 1.281303 -4.554469  -1.515925 0.096451 0.478923
1  2.476246 7.271914 -9.986534  -0.285161 0.490449 -0.114239
2  0.000004 14.313015 0.000003  -1.745938 0.024984 0.436652
3  0.207026 12.935351 0.058588  -0.703466 -1.276883 0.596275
4  1.330911 2.698441 -0.462437  0.194890 0.547268 -0.084879
5  0.023981 0.088625 0.070337  0.091218 -0.915384 -0.811368
6  -4.925776 -10.460938 3.191410  0.218220 3.094644 -0.641218
7  -0.083606 -1.860648 0.511791  0.262329 3.069335 -0.998756
8  4.777524 6.028129 1.897723  -1.090396 0.577049 -0.321829
9  5.490346 7.072690 2.428975  -1.090396 0.577049 -0.321829
10  6.562497 8.640629 3.230478  -1.090396 0.577049 -0.321829
11  7.558523 6.997277 -2.354132  1.204257 -2.866199 -0.131012
12  7.558522 6.997279 -2.354133  1.937336 0.275393 -0.131011
13  4.324082 2.743997 -0.524877  -1.090396 0.577049 -0.321829
14  5.012509 3.752829 -0.011799  -1.090396 0.577049 -0.321829
15  5.595486 4.607125 0.422675  -1.090396 0.577049 -0.321829
16  6.233827 5.542563 0.898429  -1.090396 0.577049 -0.321829
17  6.946647 6.587120 1.429668  -1.090396 0.577049 -0.321829
18  7.537936 7.453603 1.870350  -1.090396 0.577049 -0.321829
19  8.154469 8.357071 2.329843  -1.090396 0.577049 -0.321829
20  8.874295 9.411904 2.866312  -1.090396 0.577049 -0.321829
21  0.552583 1.343532 -1.604460  -0.785441 0.445535 -0.139147
22  -0.000019 2.021630 0.000022  0.399165 1.048089 0.020996
23  -0.000024 1.136205 -0.000027  1.053627 -0.631457 -0.140963
24  0.032716 4.587768 -1.352291  0.782809 2.035854 0.447416
25  -0.000007 1.754517 -0.000033  0.627284 0.101491 -0.145535
26  0.000004 1.227077 0.000038  0.501508 0.322553 0.162331
27  0.368008 4.208414 -0.173238  0.075636 2.062065 -0.440114
28  -0.000007 2.372316 -0.000032  0.960917 -0.182621 -0.169704
29  -0.000003 1.580172 0.000034  -0.224018 0.170320 -0.069942
30  0.937666 3.860716 0.959338  -0.097202 2.652684 -0.742371
31  -0.000019 1.690669 0.000014  0.537318 -0.697117 -0.157022
32  0.000007 1.423414 0.000031  0.464137 0.158999 0.113878
33  1.546663 3.404211 1.915584  -0.354956 2.218557 -1.302651
34  -0.000023 1.437867 0.000024  0.513667 0.070723 -0.213551
35  0.000008 1.059377 0.000005  0.279571 0.062288 0.033798
36  40.718758 41.625004 32.312504  -3.080848 -0.080874 -0.050958
37  0.000001 -14.313034 0.000007  -1.566513 -0.000000 0.000000
38  -0.000008 -13.013496 -0.000005  -0.615923 -2.081690 0.065723
39  -1.330888 -2.698420 0.462450  -0.194886 -0.547260 3.056712
40  -2.867773 -2.740965 0.531127  2.051196 0.577049 -0.321829
41  -4.125865 -2.321497 1.394410  2.051196 0.577049 -0.321829
42  -4.826830 -3.348674 0.872020  2.051196 0.577049 -0.321829
43  -5.441683 -4.249681 0.413767  2.051196 0.577049 -0.321829
44  -0.552538 -1.343524 1.604442  -0.687882 0.662133 -0.833274
45  0.000006 -2.021613 -0.000009  0.494293 -0.000000 -0.000000
46  -0.000010 -1.136233 -0.000008  -0.290327 -0.000000 -0.000000
47  -0.032687 -4.587726 1.352316  -0.573077 1.763007 -0.431402
48  -0.000002 -1.754528 0.000003  0.829780 -0.000000 -0.000000
49  0.000000 -1.227014 -0.000003  0.528805 -0.000000 0.000000
50  -0.368010 -4.208410 0.173250  -0.373218 2.030790 -0.770720
51  0.000001 -2.372314 -0.000015  0.927479 0.000000 0.000000
52  0.000004 -1.580077 0.000002  0.318371 0.000000 0.000000
53  -0.937658 -3.860698 -0.959314  0.170990 2.317753 -0.509471
54  0.000008 -1.690629 0.000010  0.719375 -0.000000 0.000000
55  0.000002 -1.423449 0.000003  0.462042 0.000000 -0.000000
56  -1.546662 -3.404189 -1.915563  0.405593 2.516782 -0.490951
57  0.000010 -1.437811 -0.000010  0.652785 0.000000 -0.000000
58  0.000006 -1.059407 -0.000000  0.549901 0.000000 0.000000
59  -0.000008 -13.013496 -0.000005  0.010936 -0.284121 -0.076428
60  0.161134 -10.812498 0.023101  0.010936 -0.284121 -0.076428
time 7
0  -12.731775 1.281303 -4.554469  -1.515925 0.096451 0.478923
1  2.362962 7.275820 -9.963097  -0.143808 0.493882 -0.117218
2  0.000001 14.313018 0.000006  -1.731946 0.019047 0.441359
3  0.207026 12.935355 0.058590  -0.703466 -1.276883 0.596275
4  1.330914 2.698439 -0.462435  0.194890 0.547268 -0.084879
5  0.054894 0.039548 0.019824  0.091218 -0.915384 -0.811368
6  -4.925781 -10.460939 3.191406  0.218220 3.094644 -0.641218
7  -0.083607 -1.860645 0.511791  0.262329 3.069335 -0.998756
8  4.777529 6.028123 1.897721  -1.090396 0.577049 -0.321829
9  5.490344 7.072684 2.428972  -1.090396 0.577049 -0.321829
10  6.562501 8.640621 3.230475  -1.090396 0.577049 -0.321829
11  7.558532 6.997275 -2.354135  1.204257 -2.866199 -0.131012
12  7.558527 6.997275 -2.354134  1.937336 0.275393 -0.131011
13  4.324081 2.743995 -0.524877  -1.090396 0.577049 -0.321829
14  5.012511 3.752828 -0.011800  -1.090396 0.577049 -0.321829
15  5.595491 4.607119 0.422672  -1.090396 0.577049 -0.321829
16  6.233835 5.542562 0.898427  -1.090396 0.577049 -0.321829
17  6.946650 6.587114 1.429667  -1.090396 0.577049 -0.321829
18  7.537931 7.453603 1.870351  -1.090396 0.577049 -0.321829
19  8.154470 8.357070 2.329839  -1.090396 0.577049 -0.321829
20  8.874295 9.411901 2.866309  -1.090396 0.577049 -0.321829
21  0.552583 1.343532 -1.604462  -0.783142 0.495772 -0.153819
22  -0.000018 2.021631 0.000024  0.371778 1.003282 -0.060545
23  -0.000025 1.136203 -0.000026  1.006595 -0.619015 -0.140447
24  0.032722 4.587765 -1.352292  0.709625 2.037598 0.418901
25  -0.000005 1.754518 -0.000035  0.627284 0.101491 -0.145535
26  0.000002 1.227071 0.000038  0.501508 0.322553 0.162331
27  0.368008 4.208412 -0.173239  0.009443 2.054869 -0.456445
28  -0.000007 2.372319 -0.000027  0.959645 -0.145433 -0.163874
29  -0.000001 1.580173 0.000035  -0.224018 0.170320 -0.069954
30  0.937672 3.860719 0.959336  -0.112902 2.663695 -0.732997
31  -0.000017 1.690670 0.000019  0.518490 -0.726461 -0.164764
32  0.000007 1.423417 0.000028  0.462375 0.175310 0.078223
33  1.546663 3.404208 1.915583  -0.399535 2.251981 -1.238041
34  -0.000022 1.437863 0.000027  0.558076 0.049805 -0.184064
35  0.000006 1.059370 0.000006  0.279571 0.062288 0.033798
36  40.718758 41.625004 32.312504  -3.080848 -0.080874 -0.050958
37  0.000001 -14.313034 0.000007  -1.566513 -0.000000 0.000000
38  -0.000008 -13.013496 -0.000005  -0.615923 -2.081690 0.065723
39  -1.330888 -2.698420 0.462450  -0.194886 -0.547260 3.056712
40  -2.867773 -2.740965 0.531127  2.051196 0.577049 -0.321829
41  -4.125865 -2.321497 1.394410  2.051196 0.577049 -0.321829
42  -4.826830 -3.348674 0.872020  2.051196 0.577049 -0.321829
43  -5.441683 -4.249681 0.413767  2.051196 0.577049 -0.321829
44  -0.552538 -1.343524 1.604442  -0.687882 0.662133 -0.833274
45  0.000006 -2.021613 -0.000009  0.494293 -0.000000 -0.000000
46  -0.000010 -1.136233 -0.000008  -0.290327 -0.000000 -0.000000
47  -0.032687 -4.587726 1.352316  -0.573077 1.763007 -0.431402
48  -0.000002 -1.754528 0.000003  0.829780 -0.000000 -0.000000
49  0.000000 -1.227014 -0.000003  0.528805 -0.000000 0.000000
50  -0.368010 -4.208410 0.173250  -0.373218 2.030790 -0.770720
51  0.000001 -2.372314 -0.000015  0.927479 0.000000 0.000000
52  0.000004 -1.580077 0.000002  0.318371 0.000000 0.000000
53  -0.937658 -3.860698 -0.959314  0.170990 2.317753 -0.509471
54  0.000008 -1.690629 0.000010  0.719375 -0.000000 0.000000
55  0.000002 -1.423449 0.000003  0.462042 0.000000 -0.000000
56  -1.546662 -3.404189 -1.915563  0.405593 2.516782 -0.490951
57  0.000010 -1.437811 -0.000010  0.652785 0.000000 -0.000000
58  0.000006 -1.059407 -0.000000  0.549901 0.000000 0.000000
59  -0.000008 -13.013496 -0.000005  0.010936 -0.284121 -0.076428
60  0.161134 -10.812498 0.023101  0.010936 -0.284121 -0.076428
time 8
0  -12.731775 1.281303 -4.554469  -1.515925 0.096451 0.478923
1  2.210615 7.279727 -9.931847  -0.027335 0.496696 -0.119662
2  0.000002 14.313017 0.000004  -1.717466 0.012882 0.446226
3  0.207027 12.935353 0.058588  -0.661940 -1.203303 0.544484
4  1.330913 2.698444 -0.462436  0.194890 0.547268 -0.084879
5  0.023988 0.088625 0.019823  0.091314 -0.915384 -0.811368
6  -4.925779 -10.460938 3.191406  0.218221 3.094644 -0.641218
7  -0.083606 -1.860642 0.511791  0.262329 3.069335 -0.998757
8  4.777529 6.028131 1.897719  -1.090396 0.577049 -0.321829
9  5.490345 7.072690 2.428973  -1.090396 0.577049 -0.321829
10  6.562498 8.640627 3.230472  -1.090396 0.577049 -0.321829
11  7.558526 6.997286 -2.354131  1.204257 -2.866199 -0.131012
12  7.558524 6.997287 -2.354132  1.937336 0.275393 -0.131011
13  4.324080 2.744001 -0.524876  -1.090396 0.577049 -0.321829
14  5.012512 3.752831 -0.011801  -1.090396 0.577049 -0.321829
15  5.595489 4.607127 0.422673  -1.090396 0.577049 -0.321829
16  6.233829 5.542571 0.898428  -1.090396 0.577049 -0.321829
17  6.946650 6.587117 1.429667  -1.090396 0.577049 -0.321829
18  7.537932 7.453613 1.870352  -1.090396 0.577049 -0.321829
19  8.154470 8.357080 2.329837  -1.090396 0.577049 -0.321829
20  8.874292 9.411909 2.866310  -1.090396 0.577049 -0.321829
21  0.552584 1.343535 -1.604461  -0.782070 0.547475 -0.169861
22  -0.000023 2.021633 0.000028  0.347923 0.956426 -0.140103
23  -0.000024 1.136205 -0.000022  0.957982 -0.606162 -0.139848
24  0.032720 4.587770 -1.352294  0.634184 2.039751 0.389628
25  -0.000007 1.754518 -0.000034  0.627284 0.101491 -0.145535
26  0.000005 1.227072 0.000037  0.501508 0.322553 0.162331
27  0.368014 4.208422 -0.173239  -0.059264 2.047573 -0.473705
28  -0.000009 2.372316 -0.000035  0.959250 -0.106915 -0.158204
29  0.000001 1.580173 0.000033  -0.224018 0.170320 -0.069942
30  0.937667 3.860721 0.959336  -0.129346 2.675138 -0.723545
31  -0.000018 1.690672 0.000020  0.500413 -0.756444 -0.173980
32  0.000008 1.423422 0.000029  0.460246 0.192185 0.041383
33  1.546660 3.404216 1.915585  -0.450389 2.288372 -1.176730
34  -0.000021 1.437873 0.000028  0.603553 0.028144 -0.153717
35  0.000004 1.059365 0.000005  0.279571 0.062288 0.033798
36  40.718758 41.625004 32.312504  -3.080848 -0.080874 -0.050958
37  0.000001 -14.313034 0.000007  -1.566513 -0.000000 0.000000
38  -0.000008 -13.013496 -0.000005  -0.615923 -2.081690 0.065723
39  -1.330888 -2.698420 0.462450  -0.194886 -0.547260 3.056712
40  -2.867773 -2.740965 0.531127  2.051196 0.577049 -0.321829
41  -4.125865 -2.321497 1.394410  2.051196 0.577049 -0.321829
42  -4.826830 -3.348674 0.872020  2.051196 0.577049 -0.321829
43  -5.441683 -4.249681 0.413767  2.051196 0.577049 -0.321829
44  -0.552538 -1.343524 1.604442  -0.687882 0.662133 -0.833274
45  0.000006 -2.021613 -0.000009  0.494293 -0.000000 -0.000000
46  -0.000010 -1.136233 -0.000008  -0.290327 -0.000000 -0.000000
47  -0.032687 -4.587726 1.352316  -0.573077 1.763007 -0.431402
48  -0.000002 -1.754528 0.000003  0.829780 -0.000000 -0.000000
49  0.000000 -1.227014 -0.000003  0.528805 -0.000000 0.000000
50  -0.368010 -4.208410 0.173250  -0.373218 2.030790 -0.770720
51  0.000001 -2.372314 -0.000015  0.927479 0.000000 0.000000
52  0.000004 -1.580077 0.000002  0.318371 0.000000 0.000000
53  -0.937658 -3.860698 -0.959314  0.170990 2.317753 -0.509471
54  0.000008 -1.690629 0.000010  0.719375 -0.000000 0.000000
55  0.000002 -1.423449 0.000003  0.462042 0.000000 -0.000000
56  -1.546662 -3.404189 -1.915563  0.405593 2.516782 -0.490951
57  0.000010 -1.437811 -0.000010  0.652785 0.000000 -0.000000
58  0.000006 -1.059407 -0.000000  0.549901 0.000000 0.000000
59  -0.000008 -13.013496 -0.000005  0.010936 -0.284121 -0.076428
60  0.161134 -10.812498 0.023101  0.010936 -0.284121 -0.076428
time 9
0  -12.731775 1.281303 -4.554469  -1.515925 0.096451 0.478923
1  2.015296 7.283628 -9.888877  0.051727 0.498604 -0.121342
2  0.000000 14.313017 0.000008  -1.702986 0.006718 0.451053
3  0.207027 12.935359 0.058594  -0.552332 -1.006077 0.415005
4  1.330912 2.698442 -0.462436  0.194890 0.547268 -0.084879
5  0.054899 0.088624 0.019823  0.091314 -0.915384 -0.811368
6  -4.925779 -10.460934 3.191411  0.218221 3.094644 -0.641218
7  -0.083609 -1.856738 0.511793  0.262329 3.069335 -0.998757
8  4.777530 6.028128 1.897721  -1.090396 0.577049 -0.321829
9  5.490345 7.072686 2.428972  -1.090396 0.577049 -0.321829
10  6.562505 8.640623 3.230474  -1.090396 0.577049 -0.321829
11  7.558528 6.997278 -2.354133  1.204257 -2.866199 -0.131012
12  7.558524 6.997279 -2.354134  1.937336 0.275393 -0.131011
13  4.324082 2.743999 -0.524875  -1.090396 0.577049 -0.321829
14  5.012514 3.752826 -0.011800  -1.090396 0.577049 -0.321829
15  5.595491 4.607119 0.422673  -1.090396 0.577049 -0.321829
16  6.233835 5.542562 0.898429  -1.090396 0.577049 -0.321829
17  6.946648 6.587114 1.429666  -1.090396 0.577049 -0.321829
18  7.537935 7.453605 1.870351  -1.090396 0.577049 -0.321829
19  8.154468 8.357076 2.329839  -1.090396 0.577049 -0.321829
20  8.874294 9.411901 2.866308  -1.090396 0.577049 -0.321829
21  0.552587 1.343533 -1.604460  -0.782462 0.599060 -0.186989
22  -0.000021 2.021632 0.000021  0.327655 0.908985 -0.215802
23  -0.000021 1.136205 -0.000027  0.909277 -0.593308 -0.139189
24  0.032722 4.587768 -1.352292  0.558917 2.042274 0.360583
25  -0.000010 1.754519 -0.000031  0.627284 0.101491 -0.145535
26  0.000005 1.227072 0.000040  0.501508 0.322553 0.162331
27  0.368010 4.208418 -0.173237  -0.128511 2.040375 -0.491507
28  -0.000007 2.372316 -0.000034  0.959820 -0.068288 -0.152841
29  0.000002 1.580169 0.000028  -0.224018 0.170320 -0.069942
30  0.937670 3.860717 0.959336  -0.145974 2.686643 -0.714250
31  -0.000020 1.690668 0.000018  0.483888 -0.786122 -0.184575
32  0.000009 1.423416 0.000033  0.457823 0.209059 0.004494
33  1.546666 3.404210 1.915585  -0.505765 2.326463 -1.120407
34  -0.000022 1.437870 0.000027  0.648602 0.006434 -0.123445
35  0.000008 1.059372 0.000010  0.279571 0.062288 0.033798
36  40.718758 41.625004 32.312504  -3.080848 -0.080874 -0.050958
37  0.000001 -14.313034 0.000007  -1.566513 -0.000000 0.000000
38  -0.000008 -13.013496 -0.000005  -0.615923 -2.081690 0.065723
39  -1.330888 -2.698420 0.462450  -0.194886 -0.547260 3.056712
40  -2.867773 -2.740965 0.531127  2.051196 0.577049 -0.321829
41  -4.125865 -2.321497 1.394410  2.051196 0.577049 -0.321829
42  -4.826830 -3.348674 0.872020  2.051196 0.577049 -0.321829
43  -5.441683 -4.249681 0.413767  2.051196 0.577049 -0.321829
44  -0.552538 -1.343524 1.604442  -0.687882 0.662133 -0.833274
45  0.000006 -2.021613 -0.000009  0.494293 -0.000000 -0.000000
46  -0.000010 -1.136233 -0.000008  -0.290327 -0.000000 -0.000000
47  -0.032687 -4.587726 1.352316  -0.573077 1.763007 -0.431402
48  -0.000002 -1.754528 0.000003  0.829780 -0.000000 -0.000000
49  0.000000 -1.227014 -0.000003  0.528805 -0.000000 0.000000
50  -0.368010 -4.208410 0.173250  -0.373218 2.030790 -0.770720
51  0.000001 -2.372314 -0.000015  0.927479 0.000000 0.000000
52  0.000004 -1.580077 0.000002  0.318371 0.000000 0.000000
53  -0.937658 -3.860698 -0.959314  0.170990 2.317753 -0.509471
54  0.000008 -1.690629 0.000010  0.719375 -0.000000 0.000000
55  0.000002 -1.423449 0.000003  0.462042 0.000000 -0.000000
56  -1.546662 -3.404189 -1.915563  0.405593 2.516782 -0.490951
57  0.000010 -1.437811 -0.000010  0.652785 0.000000 -0.000000
58  0.000006 -1.059407 -0.000000  0.549901 0.000000 0.000000
59  -0.000008 -13.013496 -0.000005  0.010936 -0.284121 -0.076428
60  0.161134 -10.812498 0.023101  0.010936 -0.284121 -0.076428
time 10
0  -12.731775 1.281303 -4.554469  -1.515925 0.096451 0.478923
1  1.773101 7.291447 -9.838094  0.080845 0.499319 -0.121954
2  0.000002 14.313020 0.000005  -1.688994 0.000755 0.455719
3  0.207027 12.935350 0.058585  -0.397097 -0.720475 0.246682
4  1.330915 2.698438 -0.462439  0.194890 0.547268 -0.084879
5  0.023990 0.088625 0.070333  0.091314 -0.915384 -0.811368
6  -4.925774 -10.460940 3.191407  0.218221 3.094644 -0.641218
7  -0.083605 -1.860645 0.511789  0.262329 3.069335 -0.998757
8  4.777530 6.028125 1.897720  -1.090396 0.577049 -0.321829
9  5.490343 7.072690 2.428969  -1.090396 0.577049 -0.321829
10  6.562497 8.640625 3.230471  -1.090396 0.577049 -0.321829
11  7.558527 6.997276 -2.354133  1.204257 -2.866200 -0.131012
12  7.558524 6.997280 -2.354136  1.937336 0.275393 -0.131011
13  4.324085 2.743998 -0.524878  -1.090396 0.577049 -0.321829
14  5.012516 3.752826 -0.011802  -1.090396 0.577049 -0.321829
15  5.595490 4.607123 0.422673  -1.090396 0.577049 -0.321829
16  6.233838 5.542559 0.898426  -1.090396 0.577049 -0.321829
17  6.946650 6.587119 1.429666  -1.090396 0.577049 -0.321829
18  7.537939 7.453603 1.870346  -1.090396 0.577049 -0.321829
19  8.154472 8.357073 2.329836  -1.090396 0.577049 -0.321829
20  8.874296 9.411901 2.866308  -1.090396 0.577049 -0.321829
21  0.552590 1.343534 -1.604461  -0.784474 0.648860 -0.204857
22  -0.000018 2.021634 0.000026  0.310837 0.862532 -0.286048
23  -0.000024 1.136202 -0.000028  0.862059 -0.580846 -0.138494
24  0.032722 4.587768 -1.352295  0.486254 2.045021 0.332827
25  -0.000009 1.754520 -0.000034  0.627284 0.101491 -0.145535
26  -0.000002 1.227074 0.000037  0.501508 0.322553 0.162331
27  0.368017 4.208415 -0.173241  -0.195962 2.033513 -0.509232
28  -0.000011 2.372317 -0.000031  0.961268 -0.030776 -0.147873
29  0.000000 1.580166 0.000029  -0.224018 0.170320 -0.069942
30  0.937672 3.860719 0.959334  -0.162140 2.697870 -0.705427
31  -0.000015 1.690665 0.000018  0.469466 -0.814493 -0.196284
32  0.000004 1.423422 0.000025  0.455181 0.225406 -0.031292
33  1.546666 3.404209 1.915582  -0.563172 2.364756 -1.070146
34  -0.000025 1.437865 0.000033  0.691942 -0.014650 -0.094164
35  0.000008 1.059371 0.000007  0.279571 0.062288 0.033798
36  40.718758 41.625004 32.312504  -3.080848 -0.080874 -0.050958
37  0.000001 -14.313034 0.000007  -1.566513 -0.000000 0.000000
38  -0.000008 -13.013496 -0.000005  -0.615923 -2.081690 0.065723
39  -1.330888 -2.698420 0.462450  -0.194886 -0.547260 3.056712
40  -2.867773 -2.740965 0.531127  2.051196 0.577049 -0.321829
41  -4.125865 -2.321497 1.394410  2.051196 0.577049 -0.321829
42  -4.826830 -3.348674 0.872020  2.051196 0.577049 -0.321829
43  -5.441683 -4.249681 0.413767  2.051196 0.577049 -0.321829
44  -0.552538 -1.343524 1.604442  -0.687882 0.662133 -0.833274
45  0.000006 -2.021613 -0.000009  0.494293 -0.000000 -0.000000
46  -0.000010 -1.136233 -0.000008  -0.290327 -0.000000 -0.000000
47  -0.032687 -4.587726 1.352316  -0.573077 1.763007 -0.431402
48  -0.000002 -1.754528 0.000003  0.829780 -0.000000 -0.000000
49  0.000000 -1.227014 -0.000003  0.528805 -0.000000 0.000000
50  -0.368010 -4.208410 0.173250  -0.373218 2.030790 -0.770720
51  0.000001 -2.372314 -0.000015  0.927479 0.000000 0.000000
52  0.000004 -1.580077 0.000002  0.318371 0.000000 0.000000
53  -0.937658 -3.860698 -0.959314  0.170990 2.317753 -0.509471
54  0.000008 -1.690629 0.000010  0.719375 -0.000000 0.000000
55  0.000002 -1.423449 0.000003  0.462042 0.000000 -0.000000
56  -1.546662 -3.404189 -1.915563  0.405593 2.516782 -0.490951
57  0.000010 -1.437811 -0.000010  0.652785 0.000000 -0.000000
58  0.000006 -1.059407 -0.000000  0.549901 0.000000 0.000000
59  -0.000008 -13.013496 -0.000005  0.010936 -0.284121 -0.076428
60  0.161134 -10.812498 0.023101  0.010936 -0.284121 -0.076428
time 11
0  -12.731775 1.281303 -4.554469  -1.515925 0.096451 0.478923
1  0.933231 7.314884 -9.666215  0.005562 0.464458 -0.108587
2  0.000005 14.313023 0.000005  -1.675919 -0.004806 0.460104
3  0.207025 12.935361 0.058589  -0.218693 -0.381765 0.078359
4  1.330915 2.698443 -0.462437  0.194890 0.547268 -0.084879
5  0.023990 0.088625 0.019825  0.091314 -0.915384 -0.811368
6  -4.925775 -10.460938 3.191409  0.218221 3.094644 -0.641218
7  -0.083604 -1.856744 0.511792  0.262329 3.069335 -0.998756
8  4.777529 6.028125 1.897721  -1.090396 0.577049 -0.321829
9  5.490347 7.072690 2.428973  -1.090396 0.577049 -0.321829
10  6.562501 8.640630 3.230474  -1.090396 0.577049 -0.321829
11  7.558533 6.997280 -2.354131  1.204257 -2.866200 -0.131012
12  7.558534 6.997278 -2.354132  1.937336 0.275393 -0.131011
13  4.324085 2.744001 -0.524877  -1.090396 0.577049 -0.321829
14  5.012518 3.752830 -0.011800  -1.090396 0.577049 -0.321829
15  5.595492 4.607122 0.422673  -1.090396 0.577049 -0.321829
16  6.233834 5.542559 0.898429  -1.090396 0.577049 -0.321829
17  6.946654 6.587116 1.429664  -1.090396 0.577049 -0.321829
18  7.537938 7.453603 1.870348  -1.090396 0.577049 -0.321829
19  8.154472 8.357078 2.329841  -1.090396 0.577049 -0.321829
20  8.874300 9.411907 2.866310  -1.090396 0.577049 -0.321829
21  0.552588 1.343532 -1.604463  -0.787976 0.695290 -0.222920
22  -0.000021 2.021635 0.000028  0.297117 0.818712 -0.349461
23  -0.000018 1.136204 -0.000025  0.817815 -0.569187 -0.137799
24  0.032722 4.587770 -1.352294  0.418540 2.047879 0.307120
25  -0.000006 1.754519 -0.000036  0.627284 0.101491 -0.145535
26  -0.000005 1.227072 0.000038  0.501508 0.322553 0.162331
27  0.368015 4.208415 -0.173238  -0.259370 2.027217 -0.526260
28  -0.000006 2.372317 -0.000030  0.963330 0.004338 -0.143371
29  0.000001 1.580172 0.000033  -0.224018 0.170320 -0.069942
30  0.937675 3.860717 0.959335  -0.177283 2.708418 -0.697315
31  -0.000018 1.690675 0.000017  0.457499 -0.840697 -0.208664
32  0.000003 1.423416 0.000030  0.452391 0.240674 -0.064825
33  1.546664 3.404209 1.915581  -0.619933 2.401666 -1.026637
34  -0.000019 1.437864 0.000024  0.732075 -0.034397 -0.066827
35  0.000003 1.059377 0.000005  0.279571 0.062288 0.033798
36  40.718758 41.625004 32.312504  -3.080848 -0.080874 -0.050958
37  0.000001 -14.313034 0.000007  -1.566513 -0.000000 0.000000
38  -0.000008 -13.013496 -0.000005  -0.615923 -2.081690 0.065723
39  -1.330888 -2.698420 0.462450  -0.194886 -0.547260 3.056712
40  -2.867773 -2.740965 0.531127  2.051196 0.577049 -0.321829
41  -4.125865 -2.321497 1.394410  2.051196 0.577049 -0.321829
42  -4.826830 -3.348674 0.872020  2.051196 0.577049 -0.321829
43  -5.441683 -4.249681 0.413767  2.051196 0.577049 -0.321829
44  -0.552538 -1.343524 1.604442  -0.687882 0.662133 -0.833274
45  0.000006 -2.021613 -0.000009  0.494293 -0.000000 -0.000000
46  -0.000010 -1.136233 -0.000008  -0.290327 -0.000000 -0.000000
47  -0.032687 -4.587726 1.352316  -0.573077 1.763007 -0.431402
48  -0.000002 -1.754528 0.000003  0.829780 -0.000000 -0.000000
49  0.000000 -1.227014 -0.000003  0.528805 -0.000000 0.000000
50  -0.368010 -4.208410 0.173250  -0.373218 2.030790 -0.770720
51  0.000001 -2.372314 -0.000015  0.927479 0.000000 0.000000
52  0.000004 -1.580077 0.000002  0.318371 0.000000 0.000000
53  -0.937658 -3.860698 -0.959314  0.170990 2.317753 -0.509471
54  0.000008 -1.690629 0.000010  0.719375 -0.000000 0.000000
55  0.000002 -1.423449 0.000003  0.462042 0.000000 -0.000000
56  -1.546662 -3.404189 -1.915563  0.405593 2.516782 -0.490951
57  0.000010 -1.437811 -0.000010  0.652785 0.000000 -0.000000
58  0.000006 -1.059407 -0.000000  0.549901 0.000000 0.000000
59  -0.000008 -13.013496 -0.000005  0.010936 -0.284121 -0.076428
60  0.161134 -10.812498 0.023101  0.010936 -0.284121 -0.076428
time 12
0  -12.731775 1.281303 -4.554469  -1.515925 0.096451 0.478923
1  -0.754323 7.365661 -9.318547  -0.181128 0.377664 -0.072153
2  0.000003 14.313016 0.000006  -1.664188 -0.009813 0.464006
3  0.207025 12.935353 0.058586  -0.039573 -0.025219 -0.051120
4  1.330912 2.698442 -0.462438  0.194890 0.547268 -0.084879
5  0.023985 0.088627 0.019821  0.091218 -0.915384 -0.811368
6  -4.925783 -10.460940 3.191404  0.218220 3.094644 -0.641217
7  -0.083606 -1.856740 0.511788  0.262329 3.069335 -0.998756
8  4.777527 6.028127 1.897718  -1.090396 0.577049 -0.321829
9  5.490346 7.072686 2.428970  -1.090396 0.577049 -0.321829
10  6.562498 8.640627 3.230469  -1.090396 0.577049 -0.321829
11  7.558527 6.997281 -2.354137  1.204257 -2.866200 -0.131012
12  7.558529 6.997280 -2.354136  1.937336 0.275393 -0.131011
13  4.324080 2.743996 -0.524882  -1.090396 0.577049 -0.321829
14  5.012512 3.752828 -0.011805  -1.090396 0.577049 -0.321829
15  5.595488 4.607123 0.422672  -1.090396 0.577049 -0.321829
16  6.233829 5.542566 0.898425  -1.090396 0.577049 -0.321829
17  6.946648 6.587119 1.429664  -1.090396 0.577049 -0.321829
18  7.537934 7.453603 1.870347  -1.090396 0.577049 -0.321829
19  8.154470 8.357073 2.329836  -1.090396 0.577049 -0.321829
20  8.874292 9.411906 2.866308  -1.090396 0.577049 -0.321829
21  0.552582 1.343535 -1.604465  -0.792627 0.736684 -0.240440
22  -0.000019 2.021634 0.000031  0.286222 0.779099 -0.404624
23  -0.000025 1.136198 -0.000027  0.778172 -0.558743 -0.137152
24  0.032721 4.587768 -1.352297  0.358032 2.050662 0.284368
25  -0.000008 1.754520 -0.000032  0.627284 0.101491 -0.145535
26  0.000009 1.227072 0.000039  0.501508 0.322553 0.162331
27  0.368008 4.208417 -0.173245  -0.316492 2.021686 -0.541817
28  -0.000009 2.372318 -0.000035  0.965874 0.035858 -0.139435
29  -0.000003 1.580170 0.000029  -0.224018 0.170320 -0.069942
30  0.937668 3.860719 0.959334  -0.191031 2.717918 -0.690146
31  -0.000016 1.690670 0.000012  0.448135 -0.863845 -0.221044
32  0.000009 1.423416 0.000026  0.449675 0.254349 -0.094930
33  1.546665 3.404210 1.915584  -0.673095 2.435550 -0.990189
34  -0.000023 1.437872 0.000028  0.767773 -0.052115 -0.042351
35  0.000003 1.059371 0.000009  0.279571 0.062288 0.033798
36  40.718758 41.625004 32.312504  -3.080848 -0.080874 -0.050958
37  0.000001 -14.313034 0.000007  -1.566513 -0.000000 0.000000
38  -0.000008 -13.013496 -0.000005  -0.615923 -2.081690 0.065723
39  -1.330888 -2.698420 0.462450  -0.194886 -0.547260 3.056712
40  -2.867773 -2.740965 0.531127  2.051196 0.577049 -0.321829
41  -4.125865 -2.321497 1.394410  2.051196 0.577049 -0.321829
42  -4.826830 -3.348674 0.872020  2.051196 0.577049 -0.321829
43  -5.441683 -4.249681 0.413767  2.051196 0.577049 -0.321829
44  -0.552538 -1.343524 1.604442  -0.687882 0.662133 -0.833274
45  0.000006 -2.021613 -0.000009  0.494293 -0.000000 -0.000000
46  -0.000010 -1.136233 -0.000008  -0.290327 -0.000000 -0.000000
47  -0.032687 -4.587726 1.352316  -0.573077 1.763007 -0.431402
48  -0.000002 -1.754528 0.000003  0.829780 -0.000000 -0.000000
49  0.000000 -1.227014 -0.000003  0.528805 -0.000000 0.000000
50  -0.368010 -4.208410 0.173250  -0.373218 2.030790 -0.770720
51  0.000001 -2.372314 -0.000015  0.927479 0.000000 0.000000
52  0.000004 -1.580077 0.000002  0.318371 0.000000 0.000000
53  -0.937658 -3.860698 -0.959314  0.170990 2.317753 -0.509471
54  0.000008 -1.690629 0.000010  0.719375 -0.000000 0.000000
55  0.000002 -1.423449 0.000003  0.462042 0.000000 -0.000000
56  -1.546662 -3.404189 -1.915563  0.405593 2.516782 -0.490951
57  0.000010 -1.437811 -0.000010  0.652785 0.000000 -0.000000
58  0.000006 -1.059407 -0.000000  0.549901 0.000000 0.000000
59  -0.000008 -13.013496 -0.000005  0.010936 -0.284121 -0.076428
60  0.161134 -10.812498 0.023101  0.010936 -0.284121 -0.076428
time 13
0  -12.731775 1.281303 -4.554469  -1.515925 0.096451 0.478923
1  -2.844227 7.424260 -8.888846  -0.421262 0.265834 -0.018839
2  -0.000001 14.313017 0.000008  -1.654352 -0.014065 0.467345
3  0.207026 12.935356 0.058591  0.117804 0.313894 -0.102911
4  1.330910 2.698450 -0.462435  0.194890 0.547268 -0.084879
5  0.054895 0.088629 0.070335  0.091218 -0.915384 -0.811368
6  -4.925777 -10.460941 3.191411  0.218220 3.094644 -0.641218
7  -0.083605 -1.860645 0.511790  0.262329 3.069335 -0.998756
8  4.777529 6.028130 1.897720  -1.090396 0.577049 -0.321829
9  5.490344 7.072690 2.428974  -1.090396 0.577049 -0.321829
10  6.562499 8.640628 3.230472  -1.090396 0.577049 -0.321829
11  7.558530 6.997281 -2.354129  1.204257 -2.866199 -0.131012
12  7.558529 6.997280 -2.354134  1.937336 0.275393 -0.131011
13  4.324080 2.743999 -0.524874  -1.090396 0.577049 -0.321829
14  5.012512 3.752832 -0.011799  -1.090396 0.577049 -0.321829
15  5.595487 4.607125 0.422677  -1.090396 0.577049 -0.321829
16  6.233829 5.542567 0.898427  -1.090396 0.577049 -0.321829
17  6.946651 6.587119 1.429667  -1.090396 0.577049 -0.321829
18  7.537937 7.453605 1.870346  -1.090396 0.577049 -0.321829
19  8.154469 8.357080 2.329843  -1.090396 0.577049 -0.321829
20  8.874295 9.411907 2.866310  -1.090396 0.577049 -0.321829
21  0.552584 1.343536 -1.604460  -0.797854 0.771536 -0.256352
22  -0.000020 2.021629 0.000024  0.277935 0.745411 -0.450157
23  -0.000022 1.136201 -0.000026  0.744617 -0.549927 -0.136564
24  0.032721 4.587771 -1.352289  0.307071 2.053186 0.265333
25  -0.000006 1.754517 -0.000030  0.627284 0.101491 -0.145535
26  0.000004 1.227069 0.000043  0.501508 0.322553 0.162331
27  0.368011 4.208416 -0.173236  -0.365080 2.017089 -0.555284
28  -0.000010 2.372314 -0.000028  0.968463 0.062500 -0.136152
29  -0.000006 1.580171 0.000030  -0.224018 0.170320 -0.069942
30  0.937670 3.860719 0.959337  -0.202645 2.725969 -0.684239
31  -0.000015 1.690667 0.000022  0.441375 -0.883157 -0.232537
32  0.000006 1.423416 0.000028  0.447252 0.265890 -0.120421
33  1.546665 3.404211 1.915585  -0.719426 2.464767 -0.961106
34  -0.000019 1.437864 0.000028  0.797752 -0.067094 -0.021652
35  0.000005 1.059373 0.000004  0.279571 0.062288 0.033798
36  40.718758 41.625004 32.312504  -3.080848 -0.080874 -0.050958
37  0.000001 -14.313034 0.000007  -1.566513 -0.000000 0.000000
38  -0.000008 -13.013496 -0.000005  -0.615923 -2.081690 0.065723
39  -1.330888 -2.698420 0.462450  -0.194886 -0.547260 3.056712
40  -2.867773 -2.740965 0.531127  2.051196 0.577049 -0.321829
41  -4.125865 -2.321497 1.394410  2.051196 0.577049 -0.321829
42  -4.826830 -3.348674 0.872020  2.051196 0.577049 -0.321829
43  -5.441683 -4.249681 0.413767  2.051196 0.577049 -0.321829
44  -0.552538 -1.343524 1.604442  -0.687882 0.662133 -0.833274
45  0.000006 -2.021613 -0.000009  0.494293 -0.000000 -0.000000
46  -0.000010 -1.136233 -0.000008  -0.290327 -0.000000 -0.000000
47  -0.032687 -4.587726 1.352316  -0.573077 1.763007 -0.431402
48  -0.000002 -1.754528 0.000003  0.829780 -0.000000 -0.000000
49  0.000000 -1.227014 -0.000003  0.528805 -0.000000 0.000000
50  -0.368010 -4.208410 0.173250  -0.373218 2.030790 -0.770720
51  0.000001 -2.372314 -0.000015  0.927479 0.000000 0.000000
52  0.000004 -1.580077 0.000002  0.318371 0.000000 0.000000
53  -0.937658 -3.860698 -0.959314  0.170990 2.317753 -0.509471
54  0.000008 -1.690629 0.000010  0.719375 -0.000000 0.000000
55  0.000002 -1.423449 0.000003  0.462042 0.000000 -0.000000
56  -1.546662 -3.404189 -1.915563  0.405593 2.516782 -0.490951
57  0.000010 -1.437811 -0.000010  0.652785 0.000000 -0.000000
58  0.000006 -1.059407 -0.000000  0.549901 0.000000 0.000000
59  -0.000008 -13.013496 -0.000005  0.010936 -0.284121 -0.076428
60  0.161134 -10.812498 0.023101  0.010936 -0.284121 -0.076428
time 14
0  -12.731775 1.281303 -4.554469  -1.515925 0.096451 0.478923
1  -4.887259 7.482857 -8.470868  -0.659645 0.155386 0.040433
2  0.000004 14.313017 0.000011  -1.646714 -0.017310 0.469879
3  0.207025 12.935356 0.058592  0.234488 0.600236 -0.001551
4  1.330910 2.698447 -0.462434  0.194890 0.547268 -0.084879
5  0.054898 0.088627 0.019824  0.091314 -0.915384 -0.811368
6  -4.925784 -10.460938 3.191413  0.218220 3.094644 -0.641218
7  -0.079699 -1.860644 0.511794  0.262329 3.069335 -0.998756
8  4.777525 6.028132 1.897726  -1.090396 0.577049 -0.321829
9  5.490345 7.072686 2.428975  -1.090396 0.577049 -0.321829
10  6.562498 8.640625 3.230474  -1.090396 0.577049 -0.321829
11  7.558529 6.997284 -2.354131  1.204257 -2.866199 -0.131012
12  7.558527 6.997281 -2.354131  1.937336 0.275393 -0.131011
13  4.324080 2.744001 -0.524875  -1.090396 0.577049 -0.321829
14  5.012510 3.752830 -0.011797  -1.090396 0.577049 -0.321829
15  5.595488 4.607124 0.422675  -1.090396 0.577049 -0.321829
16  6.233829 5.542566 0.898434  -1.090396 0.577049 -0.321829
17  6.946648 6.587121 1.429667  -1.090396 0.577049 -0.321829
18  7.537934 7.453606 1.870352  -1.090396 0.577049 -0.321829
19  8.154469 8.357079 2.329844  -1.090396 0.577049 -0.321829
20  8.874292 9.411901 2.866312  -1.090396 0.577049 -0.321829
21  0.552583 1.343536 -1.604457  -0.802793 0.798300 -0.269437
22  -0.000020 2.021634 0.000025  0.272039 0.719295 -0.484642
23  -0.000023 1.136202 -0.000026  0.718731 -0.543109 -0.136109
24  0.032718 4.587770 -1.352289  0.267918 2.055227 0.250773
25  -0.000007 1.754521 -0.000034  0.627284 0.101491 -0.145535
26  0.000001 1.227072 0.000037  0.501508 0.322553 0.162331
27  0.368011 4.208420 -0.173235  -0.402714 2.013591 -0.565887
28  -0.000007 2.372313 -0.000026  0.970744 0.083065 -0.133618
29  -0.000002 1.580170 0.000028  -0.224018 0.170320 -0.069954
30  0.937669 3.860721 0.959340  -0.211657 2.732199 -0.679671
31  -0.000014 1.690670 0.000016  0.436868 -0.897857 -0.242101
32  0.000010 1.423420 0.000025  0.445270 0.274771 -0.140112
33  1.546662 3.404215 1.915587  -0.756067 2.487587 -0.939774
34  -0.000023 1.437872 0.000026  0.820785 -0.078642 -0.005703
35  0.000006 1.059374 0.000002  0.279571 0.062288 0.033798
36  40.718758 41.625004 32.312504  -3.080848 -0.080874 -0.050958
37  0.000001 -14.313034 0.000007  -1.566513 -0.000000 0.000000
38  -0.000008 -13.013496 -0.000005  -0.615923 -2.081690 0.065723
39  -1.330888 -2.698420 0.462450  -0.194886 -0.547260 3.056712
40  -2.867773 -2.740965 0.531127  2.051196 0.577049 -0.321829
41  -4.125865 -2.321497 1.394410  2.051196 0.577049 -0.321829
42  -4.826830 -3.348674 0.872020  2.051196 0.577049 -0.321829
43  -5.441683 -4.249681 0.413767  2.051196 0.577049 -0.321829
44  -0.552538 -1.343524 1.604442  -0.687882 0.662133 -0.833274
45  0.000006 -2.021613 -0.000009  0.494293 -0.000000 -0.000000
46  -0.000010 -1.136233 -0.000008  -0.290327 -0.000000 -0.000000
47  -0.032687 -4.587726 1.352316  -0.573077 1.763007 -0.431402
48  -0.000002 -1.754528 0.000003  0.829780 -0.000000 -0.000000
49  0.000000 -1.227014 -0.000003  0.528805 -0.000000 0.000000
50  -0.368010 -4.208410 0.173250  -0.373218 2.030790 -0.770720
51  0.000001 -2.372314 -0.000015  0.927479 0.000000 0.000000
52  0.000004 -1.580077 0.000002  0.318371 0.000000 0.000000
53  -0.937658 -3.860698 -0.959314  0.170990 2.317753 -0.509471
54  0.000008 -1.690629 0.000010  0.719375 -0.000000 0.000000
55  0.000002 -1.423449 0.000003  0.462042 0.000000 -0.000000
56  -1.546662 -3.404189 -1.915563  0.405593 2.516782 -0.490951
57  0.000010 -1.437811 -0.000010  0.652785 0.000000 -0.000000
58  0.000006 -1.059407 -0.000000  0.549901 0.000000 0.000000
59  -0.000008 -13.013496 -0.000005  0.010936 -0.284121 -0.076428
60  0.161134 -10.812498 0.023101  0.010936 -0.284121 -0.076428
time 15
0  -12.731775 1.281303 -4.554469  -1.515925 0.096451 0.478923
1  -6.441997 7.525826 -8.150543  -0.842556 0.071454 0.089928
2  0.000005 14.313018 0.000004  -1.641826 -0.019424 0.471528
3  0.207025 12.935358 0.058596  0.305546 0.798203 0.186688
4  1.330912 2.698447 -0.462437  0.194890 0.547268 -0.084879
5  0.023988 0.088626 0.019822  0.091314 -0.915384 -0.811368
6  -4.925778 -10.460936 3.191406  0.218221 3.094644 -0.641218
7  -0.083604 -1.860644 0.511790  0.262329 3.069335 -0.998756
8  4.777529 6.028130 1.897719  -1.090396 0.577049 -0.321829
9  5.490345 7.072690 2.428971  -1.090396 0.577049 -0.321829
10  6.562496 8.640629 3.230473  -1.090396 0.577049 -0.321829
11  7.558532 6.997279 -2.354136  1.204257 -2.866199 -0.131012
12  7.558530 6.997278 -2.354136  1.937336 0.275393 -0.131011
13  4.324080 2.744000 -0.524877  -1.090396 0.577049 -0.321829
14  5.012516 3.752829 -0.011804  -1.090396 0.577049 -0.321829
15  5.595488 4.607125 0.422670  -1.090396 0.577049 -0.321829
16  6.233831 5.542566 0.898426  -1.090396 0.577049 -0.321829
17  6.946650 6.587121 1.429665  -1.090396 0.577049 -0.321829
18  7.537935 7.453607 1.870348  -1.090396 0.577049 -0.321829
19  8.154470 8.357075 2.329834  -1.090396 0.577049 -0.321829
20  8.874292 9.411907 2.866306  -1.090396 0.577049 -0.321829
21  0.552585 1.343535 -1.604463  -0.806399 0.815468 -0.278284
22  -0.000019 2.021631 0.000026  0.268426 0.702396 -0.506559
23  -0.000019 1.136205 -0.000022  0.702046 -0.538721 -0.135797
24  0.032721 4.587769 -1.352295  0.242742 2.056600 0.241446
25  -0.000006 1.754519 -0.000035  0.627284 0.101491 -0.145535
26  0.000005 1.227075 0.000036  0.436740 0.306949 0.022459
27  0.368015 4.208418 -0.173244  -0.427053 2.011358 -0.572777
28  -0.000008 2.372316 -0.000029  0.972324 0.096296 -0.132007
29  0.000001 1.580172 0.000032  -0.224018 0.170320 -0.069942
30  0.937671 3.860721 0.959334  -0.211935 2.814953 -0.657615
31  -0.000025 1.690669 0.000020  0.293805 -0.782704 -0.099904
32  0.000006 1.423419 0.000027  0.309899 0.199148 -0.002948
33  1.546662 3.404216 1.915582  -0.779971 2.502397 -0.926421
34  -0.000021 1.437867 0.000029  0.835534 -0.086082 0.004562
35  0.000006 1.059374 0.000005  0.279571 0.062288 0.033798
36  40.718758 41.625004 32.312504  -3.080848 -0.080874 -0.050958
37  0.000001 -14.313034 0.000007  -1.566513 -0.000000 0.000000
38  -0.000008 -13.013496 -0.000005  -0.615923 -2.081690 0.065723
39  -1.330888 -2.698420 0.462450  -0.194886 -0.547260 3.056712
40  -2.867773 -2.740965 0.531127  2.051196 0.577049 -0.321829
41  -4.125865 -2.321497 1.394410  2.051196 0.577049 -0.321829
42  -4.826830 -3.348674 0.872020  2.051196 0.577049 -0.321829
43  -5.441683 -4.249681 0.413767  2.051196 0.577049 -0.321829
44  -0.552538 -1.343524 1.604442  -0.687882 0.662133 -0.833274
45  0.000006 -2.021613 -0.000009  0.494293 -0.000000 -0.000000
46  -0.000010 -1.136233 -0.000008  -0.290327 -0.000000 -0.000000
47  -0.032687 -4.587726 1.352316  -0.573077 1.763007 -0.431402
48  -0.000002 -1.754528 0.000003  0.829780 -0.000000 -0.000000
49  0.000000 -1.227014 -0.000003  0.528805 -0.000000 0.000000
50  -0.368010 -4.208410 0.173250  -0.373218 2.030790 -0.770720
51  0.000001 -2.372314 -0.000015  0.927479 0.000000 0.000000
52  0.000004 -1.580077 0.000002  0.318371 0.000000 0.000000
53  -0.937658 -3.860698 -0.959314  0.170990 2.317753 -0.509471
54  0.000008 -1.690629 0.000010  0.719375 -0.000000 0.000000
55  0.000002 -1.423449 0.000003  0.462042 0.000000 -0.000000
56  -1.546662 -3.404189 -1.915563  0.405593 2.516782 -0.490951
57  0.000010 -1.437811 -0.000010  0.652785 0.000000 -0.000000
58  0.000006 -1.059407 -0.000000  0.549901 0.000000 0.000000
59  -0.000008 -13.013496 -0.000005  0.010936 -0.284121 -0.076428
60  0.161134 -10.812498 0.023101  0.010936 -0.284121 -0.076428
time 16
0  -12.731775 1.281303 -4.554469  -1.515925 0.096451 0.478923
1  -7.059202 7.545356 -8.021633  -0.915628 0.038167 0.110627
2  -0.000001 14.313021 0.000002  -1.640116 -0.020154 0.472091
3  0.207027 12.935356 0.058592  0.329549 0.872119 0.288047
4  1.330906 2.698450 -0.462435  0.194890 0.547268 -0.084879
5  0.023983 0.088629 0.070336  0.091314 -0.915384 -0.811368
6  -4.925782 -10.460932 3.191409  0.218221 3.094644 -0.641218
7  -0.083609 -1.860641 0.507883  0.262329 3.069335 -0.998756
8  4.777522 6.028131 1.897721  -1.090396 0.577049 -0.321829
9  5.490340 7.072690 2.428971  -1.090396 0.577049 -0.321829
10  6.562493 8.640626 3.230473  -1.090396 0.577049 -0.321829
11  7.558525 6.997283 -2.354137  1.204257 -2.866199 -0.131012
12  7.558526 6.997286 -2.354137  1.937336 0.275393 -0.131011
13  4.324076 2.744003 -0.524878  -1.090396 0.577049 -0.321829
14  5.012512 3.752832 -0.011804  -1.090396 0.577049 -0.321829
15  5.595486 4.607126 0.422669  -1.090396 0.577049 -0.321829
16  6.233827 5.542565 0.898426  -1.090396 0.577049 -0.321829
17  6.946645 6.587121 1.429662  -1.090396 0.577049 -0.321829
18  7.537930 7.453608 1.870347  -1.090396 0.577049 -0.321829
19  8.154467 8.357080 2.329835  -1.090396 0.577049 -0.321829
20  8.874290 9.411909 2.866306  -1.090396 0.577049 -0.321829
21  0.552582 1.343537 -1.604465  -0.807784 0.821535 -0.281479
22  -0.000015 2.021633 0.000025  0.267203 0.696434 -0.514278
23  -0.000021 1.136202 -0.000028  0.696144 -0.537176 -0.135689
24  0.032716 4.587774 -1.352293  0.233801 2.057083 0.238185
25  -0.000006 1.754520 -0.000034  0.627284 0.101491 -0.145535
26  0.000003 1.227073 0.000035  0.370173 0.291381 -0.117940
27  0.368009 4.208419 -0.173241  -0.435585 2.010592 -0.575176
28  -0.000008 2.372318 -0.000032  0.972894 0.100970 -0.131429
29  0.000000 1.580171 0.000032  -0.224018 0.170320 -0.069942
30  0.937667 3.860723 0.959334  -0.210356 2.887775 -0.640129
31  -0.000011 1.690673 0.000017  0.197211 -0.658769 0.010522
32  0.000006 1.423419 0.000028  0.172914 0.123489 0.133472
33  1.546660 3.404216 1.915582  -0.788554 2.507670 -0.921818
34  -0.000020 1.437872 0.000021  0.840718 -0.088722 0.008190
35  0.000007 1.059372 0.000004  0.279571 0.062288 0.033798
36  40.718758 41.625004 32.312504  -3.080848 -0.080874 -0.050958
37  0.000001 -14.313034 0.000007  -1.566513 -0.000000 0.000000
38  -0.000008 -13.013496 -0.000005  -0.615923 -2.081690 0.065723
39  -1.330888 -2.698420 0.462450  -0.194886 -0.547260 3.056712
40  -2.867773 -2.740965 0.531127  2.051196 0.577049 -0.321829
41  -4.125865 -2.321497 1.394410  2.051196 0.577049 -0.321829
42  -4.826830 -3.348674 0.872020  2.051196 0.577049 -0.321829
43  -5.441683 -4.249681 0.413767  2.051196 0.577049 -0.321829
44  -0.552538 -1.343524 1.604442  -0.687882 0.662133 -0.833274
45  0.000006 -2.021613 -0.000009  0.494293 -0.000000 -0.000000
46  -0.000010 -1.136233 -0.000008  -0.290327 -0.000000 -0.000000
47  -0.032687 -4.587726 1.352316  -0.573077 1.763007 -0.431402
48  -0.000002 -1.754528 0.000003  0.829780 -0.000000 -0.000000
49  0.000000 -1.227014 -0.000003  0.528805 -0.000000 0.000000
50  -0.368010 -4.208410 0.173250  -0.373218 2.030790 -0.770720
51  0.000001 -2.372314 -0.000015  0.927479 0.000000 0.000000
52  0.000004 -1.580077 0.000002  0.318371 0.000000 0.000000
53  -0.937658 -3.860698 -0.959314  0.170990 2.317753 -0.509471
54  0.000008 -1.690629 0.000010  0.719375 -0.000000 0.000000
55  0.000002 -1.423449 0.000003  0.462042 0.000000 -0.000000
56  -1.546662 -3.404189 -1.915563  0.405593 2.516782 -0.490951
57  0.000010 -1.437811 -0.000010  0.652785 0.000000 -0.000000
58  0.000006 -1.059407 -0.000000  0.549901 0.000000 0.000000
59  -0.000008 -13.013496 -0.000005  0.010936 -0.284121 -0.076428
60  0.161134 -10.812498 0.023101  0.010936 -0.284121 -0.076428
end
