// Created by Crowbar 0.74
version 1
nodes
  0 "root" -1
  1 "bip_upperArm_R" 0
  2 "bip_lowerArm_R" 1
  3 "bip_hand_R" 2
  4 "bip_upperArm_L" 0
  5 "bip_lowerArm_L" 4
  6 "bip_hand_L" 5
  7 "effect_hand_L" 6
  8 "effect_hand_R" 3
  9 "weapon_bone" 3
  10 "weapon_bone_1" 3
  11 "weapon_bone_2" 3
  12 "weapon_bone_3" 3
  13 "weapon_bone_4" 3
  14 "weapon_bone_5" 3
  15 "weapon_bone_6" 3
  16 "weapon_bone_7" 3
  17 "weapon_bone_L" 6
  18 "vm_weapon_bone" 3
  19 "vm_weapon_bone_1" 3
  20 "vm_weapon_bone_2" 3
  21 "vm_weapon_bone_3" 3
  22 "vm_weapon_bone_4" 3
  23 "vm_weapon_bone_5" 3
  24 "vm_weapon_bone_6" 3
  25 "vm_weapon_bone_7" 3
  26 "vm_weapon_bone_L" 6
  27 "vm_weapon_bone_L_1" 6
  28 "vm_weapon_bone_L_2" 6
  29 "bip_thumb_0_L" 6
  30 "bip_thumb_0_R" 3
  31 "bip_thumb_1_L" 29
  32 "bip_thumb_1_R" 30
  33 "bip_thumb_2_L" 31
  34 "bip_thumb_2_R" 32
  35 "bip_index_0_L" 6
  36 "bip_index_0_R" 3
  37 "bip_index_1_L" 35
  38 "bip_index_1_R" 36
  39 "bip_index_2_L" 37
  40 "bip_index_2_R" 38
  41 "bip_middle_0_L" 6
  42 "bip_middle_0_R" 3
  43 "bip_middle_1_L" 41
  44 "bip_middle_1_R" 42
  45 "bip_middle_2_L" 43
  46 "bip_middle_2_R" 44
  47 "bip_ring_0_L" 6
  48 "bip_ring_0_R" 3
  49 "bip_ring_1_L" 47
  50 "bip_ring_1_R" 48
  51 "bip_ring_2_L" 49
  52 "bip_ring_2_R" 50
  53 "bip_pinky_0_L" 6
  54 "bip_pinky_0_R" 3
  55 "bip_pinky_1_L" 53
  56 "bip_pinky_1_R" 54
  57 "bip_pinky_2_L" 55
  58 "bip_pinky_2_R" 56
  59 "Sleeve_Control" 5
  60 "Wrist_Control" 5
end
skeleton
  time 0
    0 -0.024506 -3.468750 -0.000151 -1.559900 -0.000006 -0.000006
    1 -8.653000 -0.001747 3.740445 -1.442615 0.219862 0.165240
    2 0.000000 14.313023 0.000003 -1.524640 0.000000 0.000000
    3 -0.000011 13.013483 -0.000005 -0.859274 0.119050 0.360897
    4 8.648438 0.000002 3.736328 -1.465981 0.292075 2.445211
    5 0.000000 -14.313034 0.000000 0.000000 0.000000 0.000000
    6 -0.000004 -13.013485 -0.000004 0.920551 0.163672 2.520947
    7 -1.330879 -2.698427 0.462449 -0.194886 -0.547260 3.056712
    8 1.330910 2.698444 -0.462436 0.194890 0.547268 -0.084879
    9 1.186523 5.542969 -1.857422 -1.369523 0.272265 -0.038129
    10 1.106445 12.492188 -3.097656 -2.092381 -0.272298 3.103442
    11 -1.486328 1.664063 -11.968750 0.514784 0.295216 -0.297477
    12 0.706543 8.585938 -3.654297 -1.589811 0.272264 -0.038126
    13 19.953125 -11.585938 5.781250 -1.285310 0.960381 0.216270
    14 6.566406 8.640625 3.232422 -1.090396 0.577049 -0.321829
    15 7.558525 6.997282 -2.354134 -1.937336 -0.275393 3.010581
    16 7.558525 6.997282 -2.354134 1.937336 0.275393 -0.131011
    17 -2.867767 -2.740969 0.531125 2.051196 0.577049 -0.321829
    18 1.106445 12.492188 -3.097656 -1.772050 -0.272302 3.103433
    19 2.918698 7.436539 -44.712385 -2.820229 0.539277 0.323018
    20 1.339844 7.750000 -1.613281 -1.369523 0.272265 -0.038129
    21 4.777344 6.027344 1.897461 -1.090396 0.577049 -0.321829
    22 5.484375 7.066406 2.427734 -1.090396 0.577049 -0.321829
    23 7.537933 7.453606 1.870349 -1.090396 0.577049 -0.321829
    24 8.154472 8.357077 2.329839 -1.090396 0.577049 -0.321829
    25 8.874294 9.411907 2.866308 -1.090396 0.577049 -0.321829
    26 -4.125858 -2.321501 1.394414 2.051196 0.577049 -0.321829
    27 -4.826813 -3.348669 0.872014 2.051196 0.577049 -0.321829
    28 -5.441669 -4.249685 0.413772 2.051196 0.577049 -0.321829
    29 -0.552532 -1.343527 1.604446 -0.415180 0.312114 -0.422073
    30 0.552589 1.343534 -1.604463 -0.465990 -0.876595 -0.438945
    31 0.000000 -2.021618 -0.000004 0.186809 0.000000 0.000000
    32 -0.000021 2.021633 0.000027 0.824136 0.000000 0.000000
    33 -0.000004 -1.136217 -0.000004 -0.210111 0.000000 0.000000
    34 -0.000011 1.136200 -0.000019 -0.096334 0.000000 0.000000
    35 -0.032677 -4.587727 1.352317 2.844703 1.216154 2.484990
    36 0.032719 4.587772 -1.352291 2.575584 1.208663 2.466389
    37 0.000000 -1.754536 -0.000002 0.662896 0.000000 0.000000
    38 -0.000006 1.754520 -0.000034 0.321814 0.000000 0.000000
    39 0.000000 -1.227020 -0.000002 0.092660 0.000000 0.000000
    40 0.000002 1.227070 0.000032 0.460562 0.000000 0.000000
    41 -0.367996 -4.208406 0.173244 2.943027 1.091688 2.536231
    42 0.368011 4.208412 -0.173239 2.581893 1.052111 2.159298
    43 0.000000 -2.372318 -0.000004 0.722081 0.000000 0.000000
    44 -0.000006 2.372318 -0.000032 1.885942 0.000000 0.000000
    45 0.000004 -1.580070 -0.000001 0.034255 0.000000 0.000000
    46 -0.000002 1.580170 0.000030 0.602823 0.000000 0.000000
    47 -0.937645 -3.860697 -0.959317 3.044205 1.001841 2.581100
    48 0.937672 3.860714 0.959333 2.709721 0.800474 2.318766
    49 0.000000 -1.690632 0.000000 0.491549 0.000000 0.000000
    50 -0.000013 1.690666 0.000021 1.759133 0.000000 0.000000
    51 -0.000002 -1.423443 0.000002 0.234212 0.000000 0.000000
    52 0.000008 1.423420 0.000028 0.817068 0.000000 0.000000
    53 -1.546646 -3.404194 -1.915569 3.024293 0.944156 2.514436
    54 1.546661 3.404217 1.915585 -3.027008 0.615476 2.392694
    55 0.000004 -1.437820 0.000000 0.424958 0.000000 0.000000
    56 -0.000021 1.437870 0.000031 1.336724 0.000000 0.000000
    57 -0.000002 -1.059402 0.000000 0.322075 0.000000 0.000000
    58 0.000006 1.059372 0.000008 0.795881 0.000000 0.000000
    59 -0.000004 -13.013485 -0.000004 0.010936 -0.284121 -0.076428
    60 0.161133 -10.812500 0.023087 0.010936 -0.284121 -0.076428
  time 1
    0 -0.024506 -3.468750 -0.000151 -1.559900 -0.000006 -0.000006
    1 -8.653000 -0.001747 3.740445 -1.232705 0.187195 0.189605
    2 0.000000 14.313023 0.000003 -1.594170 0.000000 0.000000
    3 -0.000011 13.013483 -0.000005 -0.979188 0.147114 0.367415
    4 8.648438 0.000002 3.736328 -1.465981 0.292075 2.445211
    5 0.000000 -14.313034 0.000000 0.000000 0.000000 0.000000
    6 -0.000004 -13.013485 -0.000004 0.920551 0.163672 2.520947
    7 -1.330879 -2.698427 0.462449 -0.194886 -0.547260 3.056712
    8 1.330910 2.698444 -0.462436 0.194890 0.547268 -0.084879
    9 1.186523 5.542969 -1.857422 -1.369523 0.272265 -0.038129
    10 1.106445 12.492188 -3.097656 -2.092381 -0.272298 3.103442
    11 -1.486328 1.664063 -11.968750 0.514784 0.295216 -0.297477
    12 0.706543 8.585938 -3.654297 -1.589811 0.272264 -0.038126
    13 19.953125 -11.585938 5.781250 -1.285310 0.960381 0.216270
    14 6.566406 8.640625 3.232422 -1.090396 0.577049 -0.321829
    15 7.558525 6.997282 -2.354134 -1.937336 -0.275393 3.010581
    16 7.558525 6.997282 -2.354134 1.937336 0.275393 -0.131011
    17 -2.867767 -2.740969 0.531125 2.051196 0.577049 -0.321829
    18 1.106445 12.492188 -3.097656 -1.772050 -0.272302 3.103433
    19 3.793725 9.858487 -43.497504 -2.842610 0.537874 0.312088
    20 1.339844 7.750000 -1.613281 -1.369523 0.272265 -0.038129
    21 4.777344 6.027344 1.897461 -1.090396 0.577049 -0.321829
    22 5.484375 7.066406 2.427734 -1.090396 0.577049 -0.321829
    23 7.537933 7.453606 1.870349 -1.090396 0.577049 -0.321829
    24 8.154472 8.357077 2.329839 -1.090396 0.577049 -0.321829
    25 8.874294 9.411907 2.866308 -1.090396 0.577049 -0.321829
    26 -4.125858 -2.321501 1.394414 2.051196 0.577049 -0.321829
    27 -4.826813 -3.348669 0.872014 2.051196 0.577049 -0.321829
    28 -5.441669 -4.249685 0.413772 2.051196 0.577049 -0.321829
    29 -0.552532 -1.343527 1.604446 -0.415180 0.312114 -0.422073
    30 0.552589 1.343534 -1.604463 -0.465990 -0.876595 -0.438945
    31 0.000000 -2.021618 -0.000004 0.186809 0.000000 0.000000
    32 -0.000021 2.021633 0.000027 0.824136 0.000000 0.000000
    33 -0.000004 -1.136217 -0.000004 -0.210111 0.000000 0.000000
    34 -0.000011 1.136200 -0.000019 -0.096334 0.000000 0.000000
    35 -0.032677 -4.587727 1.352317 2.844703 1.216154 2.484990
    36 0.032719 4.587772 -1.352291 2.575584 1.208663 2.466389
    37 0.000000 -1.754536 -0.000002 0.662896 0.000000 0.000000
    38 -0.000006 1.754520 -0.000034 0.321814 0.000000 0.000000
    39 0.000000 -1.227020 -0.000002 0.092660 0.000000 0.000000
    40 0.000002 1.227070 0.000032 0.460562 0.000000 0.000000
    41 -0.367996 -4.208406 0.173244 2.943027 1.091688 2.536231
    42 0.368011 4.208412 -0.173239 2.581893 1.052111 2.159298
    43 0.000000 -2.372318 -0.000004 0.722081 0.000000 0.000000
    44 -0.000006 2.372318 -0.000032 1.885942 0.000000 0.000000
    45 0.000004 -1.580070 -0.000001 0.034255 0.000000 0.000000
    46 -0.000002 1.580170 0.000030 0.602823 0.000000 0.000000
    47 -0.937645 -3.860697 -0.959317 3.044205 1.001841 2.581100
    48 0.937672 3.860714 0.959333 2.709721 0.800474 2.318766
    49 0.000000 -1.690632 0.000000 0.491549 0.000000 0.000000
    50 -0.000013 1.690666 0.000021 1.759133 0.000000 0.000000
    51 -0.000002 -1.423443 0.000002 0.234212 0.000000 0.000000
    52 0.000008 1.423420 0.000028 0.817068 0.000000 0.000000
    53 -1.546646 -3.404194 -1.915569 3.024293 0.944156 2.514436
    54 1.546661 3.404217 1.915585 -3.027008 0.615476 2.392694
    55 0.000004 -1.437820 0.000000 0.424958 0.000000 0.000000
    56 -0.000021 1.437870 0.000031 1.336724 0.000000 0.000000
    57 -0.000002 -1.059402 0.000000 0.322075 0.000000 0.000000
    58 0.000006 1.059372 0.000008 0.795881 0.000000 0.000000
    59 -0.000004 -13.013485 -0.000004 0.010936 -0.284121 -0.076428
    60 0.161133 -10.812500 0.023087 0.010936 -0.284121 -0.076428
  time 2
    0 -0.024506 -3.468750 -0.000151 -1.559900 -0.000006 -0.000006
    1 -8.653000 -0.001747 3.740445 -1.040487 0.148901 0.221380
    2 0.000000 14.313023 0.000003 -1.589710 0.000000 0.000000
    3 -0.000011 13.013483 -0.000005 -1.119932 0.202111 0.359555
    4 8.648438 0.000002 3.736328 -1.465981 0.292075 2.445211
    5 0.000000 -14.313034 0.000000 0.000000 0.000000 0.000000
    6 -0.000004 -13.013485 -0.000004 0.920551 0.163672 2.520947
    7 -1.330879 -2.698427 0.462449 -0.194886 -0.547260 3.056712
    8 1.330910 2.698444 -0.462436 0.194890 0.547268 -0.084879
    9 1.186523 5.542969 -1.857422 -1.369523 0.272265 -0.038129
    10 1.106445 12.492188 -3.097656 -2.092381 -0.272298 3.103442
    11 -1.486328 1.664063 -11.968750 0.514784 0.295216 -0.297477
    12 0.706543 8.585938 -3.654297 -1.589811 0.272264 -0.038126
    13 19.953125 -11.585938 5.781250 -1.285310 0.960381 0.216270
    14 6.566406 8.640625 3.232422 -1.090396 0.577049 -0.321829
    15 7.558525 6.997282 -2.354134 -1.937336 -0.275393 3.010581
    16 7.558525 6.997282 -2.354134 1.937336 0.275393 -0.131011
    17 -2.867767 -2.740969 0.531125 2.051196 0.577049 -0.321829
    18 1.106445 12.492188 -3.097656 -1.772050 -0.272302 3.103433
    19 5.180486 11.069462 -42.696698 -2.907764 0.533846 0.281313
    20 1.339844 7.750000 -1.613281 -1.369523 0.272265 -0.038129
    21 4.777344 6.027344 1.897461 -1.090396 0.577049 -0.321829
    22 5.484375 7.066406 2.427734 -1.090396 0.577049 -0.321829
    23 7.537933 7.453606 1.870349 -1.090396 0.577049 -0.321829
    24 8.154472 8.357077 2.329839 -1.090396 0.577049 -0.321829
    25 8.874294 9.411907 2.866308 -1.090396 0.577049 -0.321829
    26 -4.125858 -2.321501 1.394414 2.051196 0.577049 -0.321829
    27 -4.826813 -3.348669 0.872014 2.051196 0.577049 -0.321829
    28 -5.441669 -4.249685 0.413772 2.051196 0.577049 -0.321829
    29 -0.552532 -1.343527 1.604446 -0.415180 0.312114 -0.422073
    30 0.552589 1.343534 -1.604463 -0.465990 -0.876595 -0.438945
    31 0.000000 -2.021618 -0.000004 0.186809 0.000000 0.000000
    32 -0.000021 2.021633 0.000027 0.824136 0.000000 0.000000
    33 -0.000004 -1.136217 -0.000004 -0.210111 0.000000 0.000000
    34 -0.000011 1.136200 -0.000019 -0.096334 0.000000 0.000000
    35 -0.032677 -4.587727 1.352317 2.844703 1.216154 2.484990
    36 0.032719 4.587772 -1.352291 2.575584 1.208663 2.466389
    37 0.000000 -1.754536 -0.000002 0.662896 0.000000 0.000000
    38 -0.000006 1.754520 -0.000034 0.321814 0.000000 0.000000
    39 0.000000 -1.227020 -0.000002 0.092660 0.000000 0.000000
    40 0.000002 1.227070 0.000032 0.460562 0.000000 0.000000
    41 -0.367996 -4.208406 0.173244 2.943027 1.091688 2.536231
    42 0.368011 4.208412 -0.173239 2.581893 1.052111 2.159298
    43 0.000000 -2.372318 -0.000004 0.722081 0.000000 0.000000
    44 -0.000006 2.372318 -0.000032 1.885942 0.000000 0.000000
    45 0.000004 -1.580070 -0.000001 0.034255 0.000000 0.000000
    46 -0.000002 1.580170 0.000030 0.602823 0.000000 0.000000
    47 -0.937645 -3.860697 -0.959317 3.044205 1.001841 2.581100
    48 0.937672 3.860714 0.959333 2.709721 0.800474 2.318766
    49 0.000000 -1.690632 0.000000 0.491549 0.000000 0.000000
    50 -0.000013 1.690666 0.000021 1.759133 0.000000 0.000000
    51 -0.000002 -1.423443 0.000002 0.234212 0.000000 0.000000
    52 0.000008 1.423420 0.000028 0.817068 0.000000 0.000000
    53 -1.546646 -3.404194 -1.915569 3.024293 0.944156 2.514436
    54 1.546661 3.404217 1.915585 -3.027008 0.615476 2.392694
    55 0.000004 -1.437820 0.000000 0.424958 0.000000 0.000000
    56 -0.000021 1.437870 0.000031 1.336724 0.000000 0.000000
    57 -0.000002 -1.059402 0.000000 0.322075 0.000000 0.000000
    58 0.000006 1.059372 0.000008 0.795881 0.000000 0.000000
    59 -0.000004 -13.013485 -0.000004 0.010936 -0.284121 -0.076428
    60 0.161133 -10.812500 0.023087 0.010936 -0.284121 -0.076428
  time 3
    0 -0.024506 -3.468750 -0.000151 -1.559900 -0.000006 -0.000006
    1 -8.653000 -0.001747 3.740445 -0.908810 0.109605 0.254987
    2 0.000000 14.313023 0.000003 -1.516331 0.000000 0.000000
    3 -0.000011 13.013483 -0.000005 -1.241566 0.263711 0.333387
    4 8.648438 0.000002 3.736328 -1.465981 0.292075 2.445211
    5 0.000000 -14.313034 0.000000 0.000000 0.000000 0.000000
    6 -0.000004 -13.013485 -0.000004 0.920551 0.163672 2.520947
    7 -1.330879 -2.698427 0.462449 -0.194886 -0.547260 3.056712
    8 1.330910 2.698444 -0.462436 0.194890 0.547268 -0.084879
    9 1.186523 5.542969 -1.857422 -1.369523 0.272265 -0.038129
    10 1.106445 12.492188 -3.097656 -2.092381 -0.272298 3.103442
    11 -1.486328 1.664063 -11.968750 0.514784 0.295216 -0.297477
    12 0.706543 8.585938 -3.654297 -1.589811 0.272264 -0.038126
    13 19.953125 -11.585938 5.781250 -1.285310 0.960381 0.216270
    14 6.566406 8.640625 3.232422 -1.090396 0.577049 -0.321829
    15 7.558525 6.997282 -2.354134 -1.937336 -0.275393 3.010581
    16 7.558525 6.997282 -2.354134 1.937336 0.275393 -0.131011
    17 -2.867767 -2.740969 0.531125 2.051196 0.577049 -0.321829
    18 1.106445 12.492188 -3.097656 -1.772050 -0.272302 3.103433
    19 6.801629 10.706170 -42.579507 -3.010378 0.527012 0.235677
    20 1.339844 7.750000 -1.613281 -1.369523 0.272265 -0.038129
    21 4.777344 6.027344 1.897461 -1.090396 0.577049 -0.321829
    22 5.484375 7.066406 2.427734 -1.090396 0.577049 -0.321829
    23 7.537933 7.453606 1.870349 -1.090396 0.577049 -0.321829
    24 8.154472 8.357077 2.329839 -1.090396 0.577049 -0.321829
    25 8.874294 9.411907 2.866308 -1.090396 0.577049 -0.321829
    26 -4.125858 -2.321501 1.394414 2.051196 0.577049 -0.321829
    27 -4.826813 -3.348669 0.872014 2.051196 0.577049 -0.321829
    28 -5.441669 -4.249685 0.413772 2.051196 0.577049 -0.321829
    29 -0.552532 -1.343527 1.604446 -0.415180 0.312114 -0.422073
    30 0.552589 1.343534 -1.604463 -0.465990 -0.876595 -0.438945
    31 0.000000 -2.021618 -0.000004 0.186809 0.000000 0.000000
    32 -0.000021 2.021633 0.000027 0.824136 0.000000 0.000000
    33 -0.000004 -1.136217 -0.000004 -0.210111 0.000000 0.000000
    34 -0.000011 1.136200 -0.000019 -0.096334 0.000000 0.000000
    35 -0.032677 -4.587727 1.352317 2.844703 1.216154 2.484990
    36 0.032719 4.587772 -1.352291 2.575584 1.208663 2.466389
    37 0.000000 -1.754536 -0.000002 0.662896 0.000000 0.000000
    38 -0.000006 1.754520 -0.000034 0.321814 0.000000 0.000000
    39 0.000000 -1.227020 -0.000002 0.092660 0.000000 0.000000
    40 0.000002 1.227070 0.000032 0.460562 0.000000 0.000000
    41 -0.367996 -4.208406 0.173244 2.943027 1.091688 2.536231
    42 0.368011 4.208412 -0.173239 2.581893 1.052111 2.159298
    43 0.000000 -2.372318 -0.000004 0.722081 0.000000 0.000000
    44 -0.000006 2.372318 -0.000032 1.885942 0.000000 0.000000
    45 0.000004 -1.580070 -0.000001 0.034255 0.000000 0.000000
    46 -0.000002 1.580170 0.000030 0.602823 0.000000 0.000000
    47 -0.937645 -3.860697 -0.959317 3.044205 1.001841 2.581100
    48 0.937672 3.860714 0.959333 2.709721 0.800474 2.318766
    49 0.000000 -1.690632 0.000000 0.491549 0.000000 0.000000
    50 -0.000013 1.690666 0.000021 1.759133 0.000000 0.000000
    51 -0.000002 -1.423443 0.000002 0.234212 0.000000 0.000000
    52 0.000008 1.423420 0.000028 0.817068 0.000000 0.000000
    53 -1.546646 -3.404194 -1.915569 3.024293 0.944156 2.514436
    54 1.546661 3.404217 1.915585 -3.027008 0.615476 2.392694
    55 0.000004 -1.437820 0.000000 0.424958 0.000000 0.000000
    56 -0.000021 1.437870 0.000031 1.336724 0.000000 0.000000
    57 -0.000002 -1.059402 0.000000 0.322075 0.000000 0.000000
    58 0.000006 1.059372 0.000008 0.795881 0.000000 0.000000
    59 -0.000004 -13.013485 -0.000004 0.010936 -0.284121 -0.076428
    60 0.161133 -10.812500 0.023087 0.010936 -0.284121 -0.076428
  time 4
    0 -0.024506 -3.468750 -0.000151 -1.559900 -0.000006 -0.000006
    1 -8.653000 -0.001747 3.740445 -0.836014 0.071168 0.287831
    2 0.000000 14.313023 0.000003 -1.397067 0.000000 0.000000
    3 -0.000011 13.013483 -0.000005 -1.327274 0.317670 0.291114
    4 8.648438 0.000002 3.736328 -1.465981 0.292075 2.445211
    5 0.000000 -14.313034 0.000000 0.000000 0.000000 0.000000
    6 -0.000004 -13.013485 -0.000004 0.920551 0.163672 2.520947
    7 -1.330879 -2.698427 0.462449 -0.194886 -0.547260 3.056712
    8 1.330910 2.698444 -0.462436 0.194890 0.547268 -0.084879
    9 1.186523 5.542969 -1.857422 -1.369523 0.272265 -0.038129
    10 1.106445 12.492188 -3.097656 -2.092381 -0.272298 3.103442
    11 -1.486328 1.664063 -11.968750 0.514784 0.295216 -0.297477
    12 0.706543 8.585938 -3.654297 -1.589811 0.272264 -0.038126
    13 19.953125 -11.585938 5.781250 -1.285310 0.960381 0.216270
    14 6.566406 8.640625 3.232422 -1.090396 0.577049 -0.321829
    15 7.558525 6.997282 -2.354134 -1.937336 -0.275393 3.010581
    16 7.558525 6.997282 -2.354134 1.937336 0.275393 -0.131011
    17 -2.867767 -2.740969 0.531125 2.051196 0.577049 -0.321829
    18 1.106445 12.492188 -3.097656 -1.772050 -0.272302 3.103433
    19 8.496994 8.725640 -43.020927 -3.147418 0.516516 0.179399
    20 1.339844 7.750000 -1.613281 -1.369523 0.272265 -0.038129
    21 4.777344 6.027344 1.897461 -1.090396 0.577049 -0.321829
    22 5.484375 7.066406 2.427734 -1.090396 0.577049 -0.321829
    23 7.537933 7.453606 1.870349 -1.090396 0.577049 -0.321829
    24 8.154472 8.357077 2.329839 -1.090396 0.577049 -0.321829
    25 8.874294 9.411907 2.866308 -1.090396 0.577049 -0.321829
    26 -4.125858 -2.321501 1.394414 2.051196 0.577049 -0.321829
    27 -4.826813 -3.348669 0.872014 2.051196 0.577049 -0.321829
    28 -5.441669 -4.249685 0.413772 2.051196 0.577049 -0.321829
    29 -0.552532 -1.343527 1.604446 -0.415180 0.312114 -0.422073
    30 0.552589 1.343534 -1.604463 -0.465990 -0.876595 -0.438945
    31 0.000000 -2.021618 -0.000004 0.186809 0.000000 0.000000
    32 -0.000021 2.021633 0.000027 0.824136 0.000000 0.000000
    33 -0.000004 -1.136217 -0.000004 -0.210111 0.000000 0.000000
    34 -0.000011 1.136200 -0.000019 -0.096334 0.000000 0.000000
    35 -0.032677 -4.587727 1.352317 2.844703 1.216154 2.484990
    36 0.032719 4.587772 -1.352291 2.575584 1.208663 2.466389
    37 0.000000 -1.754536 -0.000002 0.662896 0.000000 0.000000
    38 -0.000006 1.754520 -0.000034 0.321814 0.000000 0.000000
    39 0.000000 -1.227020 -0.000002 0.092660 0.000000 0.000000
    40 0.000002 1.227070 0.000032 0.460562 0.000000 0.000000
    41 -0.367996 -4.208406 0.173244 2.943027 1.091688 2.536231
    42 0.368011 4.208412 -0.173239 2.581893 1.052111 2.159298
    43 0.000000 -2.372318 -0.000004 0.722081 0.000000 0.000000
    44 -0.000006 2.372318 -0.000032 1.885942 0.000000 0.000000
    45 0.000004 -1.580070 -0.000001 0.034255 0.000000 0.000000
    46 -0.000002 1.580170 0.000030 0.602823 0.000000 0.000000
    47 -0.937645 -3.860697 -0.959317 3.044205 1.001841 2.581100
    48 0.937672 3.860714 0.959333 2.709721 0.800474 2.318766
    49 0.000000 -1.690632 0.000000 0.491549 0.000000 0.000000
    50 -0.000013 1.690666 0.000021 1.759133 0.000000 0.000000
    51 -0.000002 -1.423443 0.000002 0.234212 0.000000 0.000000
    52 0.000008 1.423420 0.000028 0.817068 0.000000 0.000000
    53 -1.546646 -3.404194 -1.915569 3.024293 0.944156 2.514436
    54 1.546661 3.404217 1.915585 -3.027008 0.615476 2.392694
    55 0.000004 -1.437820 0.000000 0.424958 0.000000 0.000000
    56 -0.000021 1.437870 0.000031 1.336724 0.000000 0.000000
    57 -0.000002 -1.059402 0.000000 0.322075 0.000000 0.000000
    58 0.000006 1.059372 0.000008 0.795881 0.000000 0.000000
    59 -0.000004 -13.013485 -0.000004 0.010936 -0.284121 -0.076428
    60 0.161133 -10.812500 0.023087 0.010936 -0.284121 -0.076428
  time 5
    0 -0.024506 -3.468750 -0.000151 -1.559900 -0.000006 -0.000006
    1 -8.653000 -0.001747 3.740445 -0.811503 0.036736 0.317085
    2 0.000000 14.313023 0.000003 -1.254098 0.000000 0.000000
    3 -0.000011 13.013483 -0.000005 -1.366354 0.356017 0.238873
    4 8.648438 0.000002 3.736328 -1.465981 0.292075 2.445211
    5 0.000000 -14.313034 0.000000 0.000000 0.000000 0.000000
    6 -0.000004 -13.013485 -0.000004 0.920551 0.163672 2.520947
    7 -1.330879 -2.698427 0.462449 -0.194886 -0.547260 3.056712
    8 1.330910 2.698444 -0.462436 0.194890 0.547268 -0.084879
    9 1.186523 5.542969 -1.857422 -1.369523 0.272265 -0.038129
    10 1.106445 12.492188 -3.097656 -2.092381 -0.272298 3.103442
    11 -1.486328 1.664063 -11.968750 0.514784 0.295216 -0.297477
    12 0.706543 8.585938 -3.654297 -1.589811 0.272264 -0.038126
    13 19.953125 -11.585938 5.781250 -1.285310 0.960381 0.216270
    14 6.566406 8.640625 3.232422 -1.090396 0.577049 -0.321829
    15 7.558525 6.997282 -2.354134 -1.937336 -0.275393 3.010581
    16 7.558525 6.997282 -2.354134 1.937336 0.275393 -0.131011
    17 -2.867767 -2.740969 0.531125 2.051196 0.577049 -0.321829
    18 1.106445 12.492188 -3.097656 -1.772050 -0.272302 3.103433
    19 10.137669 5.057560 -43.712354 -3.315090 0.502115 0.116505
    20 1.339844 7.750000 -1.613281 -1.369523 0.272265 -0.038129
    21 4.777344 6.027344 1.897461 -1.090396 0.577049 -0.321829
    22 5.484375 7.066406 2.427734 -1.090396 0.577049 -0.321829
    23 7.537933 7.453606 1.870349 -1.090396 0.577049 -0.321829
    24 8.154472 8.357077 2.329839 -1.090396 0.577049 -0.321829
    25 8.874294 9.411907 2.866308 -1.090396 0.577049 -0.321829
    26 -4.125858 -2.321501 1.394414 2.051196 0.577049 -0.321829
    27 -4.826813 -3.348669 0.872014 2.051196 0.577049 -0.321829
    28 -5.441669 -4.249685 0.413772 2.051196 0.577049 -0.321829
    29 -0.552532 -1.343527 1.604446 -0.415180 0.312114 -0.422073
    30 0.552589 1.343534 -1.604463 -0.465990 -0.876595 -0.438945
    31 0.000000 -2.021618 -0.000004 0.186809 0.000000 0.000000
    32 -0.000021 2.021633 0.000027 0.824136 0.000000 0.000000
    33 -0.000004 -1.136217 -0.000004 -0.210111 0.000000 0.000000
    34 -0.000011 1.136200 -0.000019 -0.096334 0.000000 0.000000
    35 -0.032677 -4.587727 1.352317 2.844703 1.216154 2.484990
    36 0.032719 4.587772 -1.352291 2.575584 1.208663 2.466389
    37 0.000000 -1.754536 -0.000002 0.662896 0.000000 0.000000
    38 -0.000006 1.754520 -0.000034 0.321814 0.000000 0.000000
    39 0.000000 -1.227020 -0.000002 0.092660 0.000000 0.000000
    40 0.000002 1.227070 0.000032 0.460562 0.000000 0.000000
    41 -0.367996 -4.208406 0.173244 2.943027 1.091688 2.536231
    42 0.368011 4.208412 -0.173239 2.581893 1.052111 2.159298
    43 0.000000 -2.372318 -0.000004 0.722081 0.000000 0.000000
    44 -0.000006 2.372318 -0.000032 1.885942 0.000000 0.000000
    45 0.000004 -1.580070 -0.000001 0.034255 0.000000 0.000000
    46 -0.000002 1.580170 0.000030 0.602823 0.000000 0.000000
    47 -0.937645 -3.860697 -0.959317 3.044205 1.001841 2.581100
    48 0.937672 3.860714 0.959333 2.709721 0.800474 2.318766
    49 0.000000 -1.690632 0.000000 0.491549 0.000000 0.000000
    50 -0.000013 1.690666 0.000021 1.759133 0.000000 0.000000
    51 -0.000002 -1.423443 0.000002 0.234212 0.000000 0.000000
    52 0.000008 1.423420 0.000028 0.817068 0.000000 0.000000
    53 -1.546646 -3.404194 -1.915569 3.024293 0.944156 2.514436
    54 1.546661 3.404217 1.915585 -3.027008 0.615476 2.392694
    55 0.000004 -1.437820 0.000000 0.424958 0.000000 0.000000
    56 -0.000021 1.437870 0.000031 1.336724 0.000000 0.000000
    57 -0.000002 -1.059402 0.000000 0.322075 0.000000 0.000000
    58 0.000006 1.059372 0.000008 0.795881 0.000000 0.000000
    59 -0.000004 -13.013485 -0.000004 0.010936 -0.284121 -0.076428
    60 0.161133 -10.812500 0.023087 0.010936 -0.284121 -0.076428
  time 6
    0 -0.024506 -3.468750 -0.000151 -1.559900 -0.000006 -0.000006
    1 -8.653000 -0.001747 3.740445 -0.820625 0.009745 0.340229
    2 0.000000 14.313023 0.000003 -1.110640 0.000000 0.000000
    3 -0.000011 13.013483 -0.000005 -1.350588 0.375780 0.184523
    4 8.648438 0.000002 3.736328 -1.465981 0.292075 2.445211
    5 0.000000 -14.313034 0.000000 0.000000 0.000000 0.000000
    6 -0.000004 -13.013485 -0.000004 0.920551 0.163672 2.520947
    7 -1.330879 -2.698427 0.462449 -0.194886 -0.547260 3.056712
    8 1.330910 2.698444 -0.462436 0.194890 0.547268 -0.084879
    9 1.186523 5.542969 -1.857422 -1.369523 0.272265 -0.038129
    10 1.106445 12.492188 -3.097656 -2.092381 -0.272298 3.103442
    11 -1.486328 1.664063 -11.968750 0.514784 0.295216 -0.297477
    12 0.706543 8.585938 -3.654297 -1.589811 0.272264 -0.038126
    13 19.953125 -11.585938 5.781250 -1.285310 0.960381 0.216270
    14 6.566406 8.640625 3.232422 -1.090396 0.577049 -0.321829
    15 7.558525 6.997282 -2.354134 -1.937336 -0.275393 3.010581
    16 7.558525 6.997282 -2.354134 1.937336 0.275393 -0.131011
    17 -2.867767 -2.740969 0.531125 2.051196 0.577049 -0.321829
    18 1.106445 12.492188 -3.097656 -1.772050 -0.272302 3.103433
    19 11.610370 -0.321511 -44.153774 -3.507704 0.484175 0.050448
    20 1.339844 7.750000 -1.613281 -1.369523 0.272265 -0.038129
    21 4.777344 6.027344 1.897461 -1.090396 0.577049 -0.321829
    22 5.484375 7.066406 2.427734 -1.090396 0.577049 -0.321829
    23 7.537933 7.453606 1.870349 -1.090396 0.577049 -0.321829
    24 8.154472 8.357077 2.329839 -1.090396 0.577049 -0.321829
    25 8.874294 9.411907 2.866308 -1.090396 0.577049 -0.321829
    26 -4.125858 -2.321501 1.394414 2.051196 0.577049 -0.321829
    27 -4.826813 -3.348669 0.872014 2.051196 0.577049 -0.321829
    28 -5.441669 -4.249685 0.413772 2.051196 0.577049 -0.321829
    29 -0.552532 -1.343527 1.604446 -0.415180 0.312114 -0.422073
    30 0.552589 1.343534 -1.604463 -0.465990 -0.876595 -0.438945
    31 0.000000 -2.021618 -0.000004 0.186809 0.000000 0.000000
    32 -0.000021 2.021633 0.000027 0.824136 0.000000 0.000000
    33 -0.000004 -1.136217 -0.000004 -0.210111 0.000000 0.000000
    34 -0.000011 1.136200 -0.000019 -0.096334 0.000000 0.000000
    35 -0.032677 -4.587727 1.352317 2.844703 1.216154 2.484990
    36 0.032719 4.587772 -1.352291 2.575584 1.208663 2.466389
    37 0.000000 -1.754536 -0.000002 0.662896 0.000000 0.000000
    38 -0.000006 1.754520 -0.000034 0.321814 0.000000 0.000000
    39 0.000000 -1.227020 -0.000002 0.092660 0.000000 0.000000
    40 0.000002 1.227070 0.000032 0.460562 0.000000 0.000000
    41 -0.367996 -4.208406 0.173244 2.943027 1.091688 2.536231
    42 0.368011 4.208412 -0.173239 2.581893 1.052111 2.159298
    43 0.000000 -2.372318 -0.000004 0.722081 0.000000 0.000000
    44 -0.000006 2.372318 -0.000032 1.885942 0.000000 0.000000
    45 0.000004 -1.580070 -0.000001 0.034255 0.000000 0.000000
    46 -0.000002 1.580170 0.000030 0.602823 0.000000 0.000000
    47 -0.937645 -3.860697 -0.959317 3.044205 1.001841 2.581100
    48 0.937672 3.860714 0.959333 2.709721 0.800474 2.318766
    49 0.000000 -1.690632 0.000000 0.491549 0.000000 0.000000
    50 -0.000013 1.690666 0.000021 1.759133 0.000000 0.000000
    51 -0.000002 -1.423443 0.000002 0.234212 0.000000 0.000000
    52 0.000008 1.423420 0.000028 0.817068 0.000000 0.000000
    53 -1.546646 -3.404194 -1.915569 3.024293 0.944156 2.514436
    54 1.546661 3.404217 1.915585 -3.027008 0.615476 2.392694
    55 0.000004 -1.437820 0.000000 0.424958 0.000000 0.000000
    56 -0.000021 1.437870 0.000031 1.336724 0.000000 0.000000
    57 -0.000002 -1.059402 0.000000 0.322075 0.000000 0.000000
    58 0.000006 1.059372 0.000008 0.795881 0.000000 0.000000
    59 -0.000004 -13.013485 -0.000004 0.010936 -0.284121 -0.076428
    60 0.161133 -10.812500 0.023087 0.010936 -0.284121 -0.076428
  time 7
    0 -0.024506 -3.468750 -0.000151 -1.559900 -0.000006 -0.000006
    1 -8.653000 -0.001747 3.740445 -0.847071 -0.007233 0.356574
    2 0.000000 14.313023 0.000003 -0.990460 0.000000 0.000000
    3 -0.000011 13.013483 -0.000005 -1.268798 0.378846 0.136019
    4 8.648438 0.000002 3.736328 -1.465981 0.292075 2.445211
    5 0.000000 -14.313034 0.000000 0.000000 0.000000 0.000000
    6 -0.000004 -13.013485 -0.000004 0.920551 0.163672 2.520947
    7 -1.330879 -2.698427 0.462449 -0.194886 -0.547260 3.056712
    8 1.330910 2.698444 -0.462436 0.194890 0.547268 -0.084879
    9 1.186523 5.542969 -1.857422 -1.369523 0.272265 -0.038129
    10 1.106445 12.492188 -3.097656 -2.092381 -0.272298 3.103442
    11 -1.486328 1.664063 -11.968750 0.514784 0.295216 -0.297477
    12 0.706543 8.585938 -3.654297 -1.589811 0.272264 -0.038126
    13 19.953125 -11.585938 5.781250 -1.285310 0.960381 0.216270
    14 6.566406 8.640625 3.232422 -1.090396 0.577049 -0.321829
    15 7.558525 6.997282 -2.354134 -1.937336 -0.275393 3.010581
    16 7.558525 6.997282 -2.354134 1.937336 0.275393 -0.131011
    17 -2.867767 -2.740969 0.531125 2.051196 0.577049 -0.321829
    18 1.106445 12.492188 -3.097656 -1.772050 -0.272302 3.103433
    19 12.856502 -7.427196 -43.657665 -3.723839 0.462696 -0.018772
    20 1.339844 7.750000 -1.613281 -1.369523 0.272265 -0.038129
    21 4.777344 6.027344 1.897461 -1.090396 0.577049 -0.321829
    22 5.484375 7.066406 2.427734 -1.090396 0.577049 -0.321829
    23 7.537933 7.453606 1.870349 -1.090396 0.577049 -0.321829
    24 8.154472 8.357077 2.329839 -1.090396 0.577049 -0.321829
    25 8.874294 9.411907 2.866308 -1.090396 0.577049 -0.321829
    26 -4.125858 -2.321501 1.394414 2.051196 0.577049 -0.321829
    27 -4.826813 -3.348669 0.872014 2.051196 0.577049 -0.321829
    28 -5.441669 -4.249685 0.413772 2.051196 0.577049 -0.321829
    29 -0.552532 -1.343527 1.604446 -0.415180 0.312114 -0.422073
    30 0.552589 1.343534 -1.604463 -0.465990 -0.876595 -0.438945
    31 0.000000 -2.021618 -0.000004 0.186809 0.000000 0.000000
    32 -0.000021 2.021633 0.000027 0.824136 0.000000 0.000000
    33 -0.000004 -1.136217 -0.000004 -0.210111 0.000000 0.000000
    34 -0.000011 1.136200 -0.000019 -0.096334 0.000000 0.000000
    35 -0.032677 -4.587727 1.352317 2.844703 1.216154 2.484990
    36 0.032719 4.587772 -1.352291 2.575584 1.208663 2.466389
    37 0.000000 -1.754536 -0.000002 0.662896 0.000000 0.000000
    38 -0.000006 1.754520 -0.000034 0.321814 0.000000 0.000000
    39 0.000000 -1.227020 -0.000002 0.092660 0.000000 0.000000
    40 0.000002 1.227070 0.000032 0.460562 0.000000 0.000000
    41 -0.367996 -4.208406 0.173244 2.943027 1.091688 2.536231
    42 0.368011 4.208412 -0.173239 2.581893 1.052111 2.159298
    43 0.000000 -2.372318 -0.000004 0.722081 0.000000 0.000000
    44 -0.000006 2.372318 -0.000032 1.885942 0.000000 0.000000
    45 0.000004 -1.580070 -0.000001 0.034255 0.000000 0.000000
    46 -0.000002 1.580170 0.000030 0.602823 0.000000 0.000000
    47 -0.937645 -3.860697 -0.959317 3.044205 1.001841 2.581100
    48 0.937672 3.860714 0.959333 2.709721 0.800474 2.318766
    49 0.000000 -1.690632 0.000000 0.491549 0.000000 0.000000
    50 -0.000013 1.690666 0.000021 1.759133 0.000000 0.000000
    51 -0.000002 -1.423443 0.000002 0.234212 0.000000 0.000000
    52 0.000008 1.423420 0.000028 0.817068 0.000000 0.000000
    53 -1.546646 -3.404194 -1.915569 3.024293 0.944156 2.514436
    54 1.546661 3.404217 1.915585 -3.027008 0.615476 2.392694
    55 0.000004 -1.437820 0.000000 0.424958 0.000000 0.000000
    56 -0.000021 1.437870 0.000031 1.336724 0.000000 0.000000
    57 -0.000002 -1.059402 0.000000 0.322075 0.000000 0.000000
    58 0.000006 1.059372 0.000008 0.795881 0.000000 0.000000
    59 -0.000004 -13.013485 -0.000004 0.010936 -0.284121 -0.076428
    60 0.161133 -10.812500 0.023087 0.010936 -0.284121 -0.076428
  time 8
    0 -0.024506 -3.468750 -0.000151 -1.559900 -0.000006 -0.000006
    1 -8.653000 -0.001747 3.740445 -0.873425 -0.018630 0.371316
    2 0.000000 14.313023 0.000003 -0.901501 0.000000 0.000000
    3 -0.000011 13.013483 -0.000005 -1.128723 0.370026 0.092597
    4 8.648438 0.000002 3.736328 -1.465981 0.292075 2.445211
    5 0.000000 -14.313034 0.000000 0.000000 0.000000 0.000000
    6 -0.000004 -13.013485 -0.000004 0.920551 0.163672 2.520947
    7 -1.330879 -2.698427 0.462449 -0.194886 -0.547260 3.056712
    8 1.330910 2.698444 -0.462436 0.194890 0.547268 -0.084879
    9 1.186523 5.542969 -1.857422 -1.369523 0.272265 -0.038129
    10 1.106445 12.492188 -3.097656 -2.092381 -0.272298 3.103442
    11 -1.486328 1.664063 -11.968750 0.514784 0.295216 -0.297477
    12 0.706543 8.585938 -3.654297 -1.589811 0.272264 -0.038126
    13 19.953125 -11.585938 5.781250 -1.285310 0.960381 0.216270
    14 6.566406 8.640625 3.232422 -1.090396 0.577049 -0.321829
    15 7.558525 6.997282 -2.354134 -1.937336 -0.275393 3.010581
    16 7.558525 6.997282 -2.354134 1.937336 0.275393 -0.131011
    17 -2.867767 -2.740969 0.531125 2.051196 0.577049 -0.321829
    18 1.106445 12.492188 -3.097656 -1.772050 -0.272302 3.103433
    19 14.145603 -15.743856 -41.345094 -3.964251 0.431697 -0.085788
    20 1.339844 7.750000 -1.613281 -1.369523 0.272265 -0.038129
    21 4.777344 6.027344 1.897461 -1.090396 0.577049 -0.321829
    22 5.484375 7.066406 2.427734 -1.090396 0.577049 -0.321829
    23 7.537933 7.453606 1.870349 -1.090396 0.577049 -0.321829
    24 8.154472 8.357077 2.329839 -1.090396 0.577049 -0.321829
    25 8.874294 9.411907 2.866308 -1.090396 0.577049 -0.321829
    26 -4.125858 -2.321501 1.394414 2.051196 0.577049 -0.321829
    27 -4.826813 -3.348669 0.872014 2.051196 0.577049 -0.321829
    28 -5.441669 -4.249685 0.413772 2.051196 0.577049 -0.321829
    29 -0.552532 -1.343527 1.604446 -0.415180 0.312114 -0.422073
    30 0.552589 1.343534 -1.604463 -0.465990 -0.876595 -0.438945
    31 0.000000 -2.021618 -0.000004 0.186809 0.000000 0.000000
    32 -0.000021 2.021633 0.000027 0.824136 0.000000 0.000000
    33 -0.000004 -1.136217 -0.000004 -0.210111 0.000000 0.000000
    34 -0.000011 1.136200 -0.000019 -0.096334 0.000000 0.000000
    35 -0.032677 -4.587727 1.352317 2.844703 1.216154 2.484990
    36 0.032719 4.587772 -1.352291 2.575584 1.208663 2.466389
    37 0.000000 -1.754536 -0.000002 0.662896 0.000000 0.000000
    38 -0.000006 1.754520 -0.000034 0.321814 0.000000 0.000000
    39 0.000000 -1.227020 -0.000002 0.092660 0.000000 0.000000
    40 0.000002 1.227070 0.000032 0.460562 0.000000 0.000000
    41 -0.367996 -4.208406 0.173244 2.943027 1.091688 2.536231
    42 0.368011 4.208412 -0.173239 2.581893 1.052111 2.159298
    43 0.000000 -2.372318 -0.000004 0.722081 0.000000 0.000000
    44 -0.000006 2.372318 -0.000032 1.885942 0.000000 0.000000
    45 0.000004 -1.580070 -0.000001 0.034255 0.000000 0.000000
    46 -0.000002 1.580170 0.000030 0.602823 0.000000 0.000000
    47 -0.937645 -3.860697 -0.959317 3.044205 1.001841 2.581100
    48 0.937672 3.860714 0.959333 2.709721 0.800474 2.318766
    49 0.000000 -1.690632 0.000000 0.491549 0.000000 0.000000
    50 -0.000013 1.690666 0.000021 1.759133 0.000000 0.000000
    51 -0.000002 -1.423443 0.000002 0.234212 0.000000 0.000000
    52 0.000008 1.423420 0.000028 0.817068 0.000000 0.000000
    53 -1.546646 -3.404194 -1.915569 3.024293 0.944156 2.514436
    54 1.546661 3.404217 1.915585 -3.027008 0.615476 2.392694
    55 0.000004 -1.437820 0.000000 0.424958 0.000000 0.000000
    56 -0.000021 1.437870 0.000031 1.336724 0.000000 0.000000
    57 -0.000002 -1.059402 0.000000 0.322075 0.000000 0.000000
    58 0.000006 1.059372 0.000008 0.795881 0.000000 0.000000
    59 -0.000004 -13.013485 -0.000004 0.010936 -0.284121 -0.076428
    60 0.161133 -10.812500 0.023087 0.010936 -0.284121 -0.076428
  time 9
    0 -0.024506 -3.468750 -0.000151 -1.559900 -0.000006 -0.000006
    1 -8.653000 -0.001747 3.740445 -0.878954 -0.029980 0.386974
    2 0.000000 14.313023 0.000003 -0.858549 0.000000 0.000000
    3 -0.000011 13.013483 -0.000005 -0.964569 0.351017 0.055884
    4 8.648438 0.000002 3.736328 -1.465981 0.292075 2.445211
    5 0.000000 -14.313034 0.000000 0.000000 0.000000 0.000000
    6 -0.000004 -13.013485 -0.000004 0.920551 0.163672 2.520947
    7 -1.330879 -2.698427 0.462449 -0.194886 -0.547260 3.056712
    8 1.330910 2.698444 -0.462436 0.194890 0.547268 -0.084879
    9 1.186523 5.542969 -1.857422 -1.369523 0.272265 -0.038129
    10 1.106445 12.492188 -3.097656 -2.092381 -0.272298 3.103442
    11 -1.486328 1.664063 -11.968750 0.514784 0.295216 -0.297477
    12 0.706543 8.585938 -3.654297 -1.589811 0.272264 -0.038126
    13 19.953125 -11.585938 5.781250 -1.285310 0.960381 0.216270
    14 6.566406 8.640625 3.232422 -1.090396 0.577049 -0.321829
    15 7.558525 6.997282 -2.354134 -1.937336 -0.275393 3.010581
    16 7.558525 6.997282 -2.354134 1.937336 0.275393 -0.131011
    17 -2.867767 -2.740969 0.531125 2.051196 0.577049 -0.321829
    18 1.106445 12.492188 -3.097656 -1.772050 -0.272302 3.103433
    19 15.563615 -23.177677 -37.212156 -4.198025 0.395756 -0.132191
    20 1.339844 7.750000 -1.613281 -1.369523 0.272265 -0.038129
    21 4.777344 6.027344 1.897461 -1.090396 0.577049 -0.321829
    22 5.484375 7.066406 2.427734 -1.090396 0.577049 -0.321829
    23 7.537933 7.453606 1.870349 -1.090396 0.577049 -0.321829
    24 8.154472 8.357077 2.329839 -1.090396 0.577049 -0.321829
    25 8.874294 9.411907 2.866308 -1.090396 0.577049 -0.321829
    26 -4.125858 -2.321501 1.394414 2.051196 0.577049 -0.321829
    27 -4.826813 -3.348669 0.872014 2.051196 0.577049 -0.321829
    28 -5.441669 -4.249685 0.413772 2.051196 0.577049 -0.321829
    29 -0.552532 -1.343527 1.604446 -0.415180 0.312114 -0.422073
    30 0.552589 1.343534 -1.604463 -0.465990 -0.876595 -0.438945
    31 0.000000 -2.021618 -0.000004 0.186809 0.000000 0.000000
    32 -0.000021 2.021633 0.000027 0.824136 0.000000 0.000000
    33 -0.000004 -1.136217 -0.000004 -0.210111 0.000000 0.000000
    34 -0.000011 1.136200 -0.000019 -0.096334 0.000000 0.000000
    35 -0.032677 -4.587727 1.352317 2.844703 1.216154 2.484990
    36 0.032719 4.587772 -1.352291 2.575584 1.208663 2.466389
    37 0.000000 -1.754536 -0.000002 0.662896 0.000000 0.000000
    38 -0.000006 1.754520 -0.000034 0.321814 0.000000 0.000000
    39 0.000000 -1.227020 -0.000002 0.092660 0.000000 0.000000
    40 0.000002 1.227070 0.000032 0.460562 0.000000 0.000000
    41 -0.367996 -4.208406 0.173244 2.943027 1.091688 2.536231
    42 0.368011 4.208412 -0.173239 2.581893 1.052111 2.159298
    43 0.000000 -2.372318 -0.000004 0.722081 0.000000 0.000000
    44 -0.000006 2.372318 -0.000032 1.885942 0.000000 0.000000
    45 0.000004 -1.580070 -0.000001 0.034255 0.000000 0.000000
    46 -0.000002 1.580170 0.000030 0.602823 0.000000 0.000000
    47 -0.937645 -3.860697 -0.959317 3.044205 1.001841 2.581100
    48 0.937672 3.860714 0.959333 2.709721 0.800474 2.318766
    49 0.000000 -1.690632 0.000000 0.491549 0.000000 0.000000
    50 -0.000013 1.690666 0.000021 1.759133 0.000000 0.000000
    51 -0.000002 -1.423443 0.000002 0.234212 0.000000 0.000000
    52 0.000008 1.423420 0.000028 0.817068 0.000000 0.000000
    53 -1.546646 -3.404194 -1.915569 3.024293 0.944156 2.514436
    54 1.546661 3.404217 1.915585 -3.027008 0.615476 2.392694
    55 0.000004 -1.437820 0.000000 0.424958 0.000000 0.000000
    56 -0.000021 1.437870 0.000031 1.336724 0.000000 0.000000
    57 -0.000002 -1.059402 0.000000 0.322075 0.000000 0.000000
    58 0.000006 1.059372 0.000008 0.795881 0.000000 0.000000
    59 -0.000004 -13.013485 -0.000004 0.010936 -0.284121 -0.076428
    60 0.161133 -10.812500 0.023087 0.010936 -0.284121 -0.076428
  time 10
    0 -0.024506 -3.468750 -0.000151 -1.559900 -0.000006 -0.000006
    1 -8.653000 -0.001747 3.740445 -0.886971 -0.040472 0.402632
    2 0.000000 14.313023 0.000003 -0.816880 0.000000 0.000000
    3 -0.000011 13.013483 -0.000005 -0.809206 0.327764 0.022910
    4 8.648438 0.000002 3.736328 -1.465981 0.292075 2.445211
    5 0.000000 -14.313034 0.000000 0.000000 0.000000 0.000000
    6 -0.000004 -13.013485 -0.000004 0.920551 0.163672 2.520947
    7 -1.330879 -2.698427 0.462449 -0.194886 -0.547260 3.056712
    8 1.330910 2.698444 -0.462436 0.194890 0.547268 -0.084879
    9 1.186523 5.542969 -1.857422 -1.369523 0.272265 -0.038129
    10 1.106445 12.492188 -3.097656 -2.092381 -0.272298 3.103442
    11 -1.486328 1.664063 -11.968750 0.514784 0.295216 -0.297477
    12 0.706543 8.585938 -3.654297 -1.589811 0.272264 -0.038126
    13 19.953125 -11.585938 5.781250 -1.285310 0.960381 0.216270
    14 6.566406 8.640625 3.232422 -1.090396 0.577049 -0.321829
    15 7.558525 6.997282 -2.354134 -1.937336 -0.275393 3.010581
    16 7.558525 6.997282 -2.354134 1.937336 0.275393 -0.131011
    17 -2.867767 -2.740969 0.531125 2.051196 0.577049 -0.321829
    18 1.106445 12.492188 -3.097656 -1.772050 -0.272302 3.103433
    19 16.887875 -29.142703 -32.204190 1.869666 0.365489 -0.162295
    20 1.339844 7.750000 -1.613281 -1.369523 0.272265 -0.038129
    21 4.777344 6.027344 1.897461 -1.090396 0.577049 -0.321829
    22 5.484375 7.066406 2.427734 -1.090396 0.577049 -0.321829
    23 7.537933 7.453606 1.870349 -1.090396 0.577049 -0.321829
    24 8.154472 8.357077 2.329839 -1.090396 0.577049 -0.321829
    25 8.874294 9.411907 2.866308 -1.090396 0.577049 -0.321829
    26 -4.125858 -2.321501 1.394414 2.051196 0.577049 -0.321829
    27 -4.826813 -3.348669 0.872014 2.051196 0.577049 -0.321829
    28 -5.441669 -4.249685 0.413772 2.051196 0.577049 -0.321829
    29 -0.552532 -1.343527 1.604446 -0.415180 0.312114 -0.422073
    30 0.552589 1.343534 -1.604463 -0.465990 -0.876595 -0.438945
    31 0.000000 -2.021618 -0.000004 0.186809 0.000000 0.000000
    32 -0.000021 2.021633 0.000027 0.824136 0.000000 0.000000
    33 -0.000004 -1.136217 -0.000004 -0.210111 0.000000 0.000000
    34 -0.000011 1.136200 -0.000019 -0.096334 0.000000 0.000000
    35 -0.032677 -4.587727 1.352317 2.844703 1.216154 2.484990
    36 0.032719 4.587772 -1.352291 2.575584 1.208663 2.466389
    37 0.000000 -1.754536 -0.000002 0.662896 0.000000 0.000000
    38 -0.000006 1.754520 -0.000034 0.321814 0.000000 0.000000
    39 0.000000 -1.227020 -0.000002 0.092660 0.000000 0.000000
    40 0.000002 1.227070 0.000032 0.460562 0.000000 0.000000
    41 -0.367996 -4.208406 0.173244 2.943027 1.091688 2.536231
    42 0.368011 4.208412 -0.173239 2.581893 1.052111 2.159298
    43 0.000000 -2.372318 -0.000004 0.722081 0.000000 0.000000
    44 -0.000006 2.372318 -0.000032 1.885942 0.000000 0.000000
    45 0.000004 -1.580070 -0.000001 0.034255 0.000000 0.000000
    46 -0.000002 1.580170 0.000030 0.602823 0.000000 0.000000
    47 -0.937645 -3.860697 -0.959317 3.044205 1.001841 2.581100
    48 0.937672 3.860714 0.959333 2.709721 0.800474 2.318766
    49 0.000000 -1.690632 0.000000 0.491549 0.000000 0.000000
    50 -0.000013 1.690666 0.000021 1.759133 0.000000 0.000000
    51 -0.000002 -1.423443 0.000002 0.234212 0.000000 0.000000
    52 0.000008 1.423420 0.000028 0.817068 0.000000 0.000000
    53 -1.546646 -3.404194 -1.915569 3.024293 0.944156 2.514436
    54 1.546661 3.404217 1.915585 -3.027008 0.615476 2.392694
    55 0.000004 -1.437820 0.000000 0.424958 0.000000 0.000000
    56 -0.000021 1.437870 0.000031 1.336724 0.000000 0.000000
    57 -0.000002 -1.059402 0.000000 0.322075 0.000000 0.000000
    58 0.000006 1.059372 0.000008 0.795881 0.000000 0.000000
    59 -0.000004 -13.013485 -0.000004 0.010936 -0.284121 -0.076428
    60 0.161133 -10.812500 0.023087 0.010936 -0.284121 -0.076428
  time 11
    0 -0.024506 -3.468750 -0.000151 -1.559900 -0.000006 -0.000006
    1 -8.653000 -0.001747 3.740445 -0.897015 -0.049819 0.416916
    2 0.000000 14.313023 0.000003 -0.776739 0.000000 0.000000
    3 -0.000011 13.013483 -0.000005 -0.672284 0.304982 -0.001725
    4 8.648438 0.000002 3.736328 -1.465981 0.292075 2.445211
    5 0.000000 -14.313034 0.000000 0.000000 0.000000 0.000000
    6 -0.000004 -13.013485 -0.000004 0.920551 0.163672 2.520947
    7 -1.330879 -2.698427 0.462449 -0.194886 -0.547260 3.056712
    8 1.330910 2.698444 -0.462436 0.194890 0.547268 -0.084879
    9 1.186523 5.542969 -1.857422 -1.369523 0.272265 -0.038129
    10 1.106445 12.492188 -3.097656 -2.092381 -0.272298 3.103442
    11 -1.486328 1.664063 -11.968750 0.514784 0.295216 -0.297477
    12 0.706543 8.585938 -3.654297 -1.589811 0.272264 -0.038126
    13 19.953125 -11.585938 5.781250 -1.285310 0.960381 0.216270
    14 6.566406 8.640625 3.232422 -1.090396 0.577049 -0.321829
    15 7.558525 6.997282 -2.354134 -1.937336 -0.275393 3.010581
    16 7.558525 6.997282 -2.354134 1.937336 0.275393 -0.131011
    17 -2.867767 -2.740969 0.531125 2.051196 0.577049 -0.321829
    18 1.106445 12.492188 -3.097656 -1.772050 -0.272302 3.103433
    19 17.903531 -33.521743 -27.122004 1.681508 0.344925 -0.185113
    20 1.339844 7.750000 -1.613281 -1.369523 0.272265 -0.038129
    21 4.777344 6.027344 1.897461 -1.090396 0.577049 -0.321829
    22 5.484375 7.066406 2.427734 -1.090396 0.577049 -0.321829
    23 7.537933 7.453606 1.870349 -1.090396 0.577049 -0.321829
    24 8.154472 8.357077 2.329839 -1.090396 0.577049 -0.321829
    25 8.874294 9.411907 2.866308 -1.090396 0.577049 -0.321829
    26 -4.125858 -2.321501 1.394414 2.051196 0.577049 -0.321829
    27 -4.826813 -3.348669 0.872014 2.051196 0.577049 -0.321829
    28 -5.441669 -4.249685 0.413772 2.051196 0.577049 -0.321829
    29 -0.552532 -1.343527 1.604446 -0.415180 0.312114 -0.422073
    30 0.552589 1.343534 -1.604463 -0.465990 -0.876595 -0.438945
    31 0.000000 -2.021618 -0.000004 0.186809 0.000000 0.000000
    32 -0.000021 2.021633 0.000027 0.824136 0.000000 0.000000
    33 -0.000004 -1.136217 -0.000004 -0.210111 0.000000 0.000000
    34 -0.000011 1.136200 -0.000019 -0.096334 0.000000 0.000000
    35 -0.032677 -4.587727 1.352317 2.844703 1.216154 2.484990
    36 0.032719 4.587772 -1.352291 2.575584 1.208663 2.466389
    37 0.000000 -1.754536 -0.000002 0.662896 0.000000 0.000000
    38 -0.000006 1.754520 -0.000034 0.321814 0.000000 0.000000
    39 0.000000 -1.227020 -0.000002 0.092660 0.000000 0.000000
    40 0.000002 1.227070 0.000032 0.460562 0.000000 0.000000
    41 -0.367996 -4.208406 0.173244 2.943027 1.091688 2.536231
    42 0.368011 4.208412 -0.173239 2.581893 1.052111 2.159298
    43 0.000000 -2.372318 -0.000004 0.722081 0.000000 0.000000
    44 -0.000006 2.372318 -0.000032 1.885942 0.000000 0.000000
    45 0.000004 -1.580070 -0.000001 0.034255 0.000000 0.000000
    46 -0.000002 1.580170 0.000030 0.602823 0.000000 0.000000
    47 -0.937645 -3.860697 -0.959317 3.044205 1.001841 2.581100
    48 0.937672 3.860714 0.959333 2.709721 0.800474 2.318766
    49 0.000000 -1.690632 0.000000 0.491549 0.000000 0.000000
    50 -0.000013 1.690666 0.000021 1.759133 0.000000 0.000000
    51 -0.000002 -1.423443 0.000002 0.234212 0.000000 0.000000
    52 0.000008 1.423420 0.000028 0.817068 0.000000 0.000000
    53 -1.546646 -3.404194 -1.915569 3.024293 0.944156 2.514436
    54 1.546661 3.404217 1.915585 -3.027008 0.615476 2.392694
    55 0.000004 -1.437820 0.000000 0.424958 0.000000 0.000000
    56 -0.000021 1.437870 0.000031 1.336724 0.000000 0.000000
    57 -0.000002 -1.059402 0.000000 0.322075 0.000000 0.000000
    58 0.000006 1.059372 0.000008 0.795881 0.000000 0.000000
    59 -0.000004 -13.013485 -0.000004 0.010936 -0.284121 -0.076428
    60 0.161133 -10.812500 0.023087 0.010936 -0.284121 -0.076428
  time 12
    0 -0.024506 -3.468750 -0.000151 -1.559900 -0.000006 -0.000006
    1 -8.653000 -0.001747 3.740445 -0.908349 -0.057545 0.428984
    2 0.000000 14.313023 0.000003 -0.738674 0.000000 0.000000
    3 -0.000011 13.013483 -0.000005 -0.572244 0.289370 -0.015529
    4 8.648438 0.000002 3.736328 -1.465981 0.292075 2.445211
    5 0.000000 -14.313034 0.000000 0.000000 0.000000 0.000000
    6 -0.000004 -13.013485 -0.000004 0.920551 0.163672 2.520947
    7 -1.330879 -2.698427 0.462449 -0.194886 -0.547260 3.056712
    8 1.330910 2.698444 -0.462436 0.194890 0.547268 -0.084879
    9 1.186523 5.542969 -1.857422 -1.369523 0.272265 -0.038129
    10 1.106445 12.492188 -3.097656 -2.092381 -0.272298 3.103442
    11 -1.486328 1.664063 -11.968750 0.514784 0.295216 -0.297477
    12 0.706543 8.585938 -3.654297 -1.589811 0.272264 -0.038126
    13 19.953125 -11.585938 5.781250 -1.285310 0.960381 0.216270
    14 6.566406 8.640625 3.232422 -1.090396 0.577049 -0.321829
    15 7.558525 6.997282 -2.354134 -1.937336 -0.275393 3.010581
    16 7.558525 6.997282 -2.354134 1.937336 0.275393 -0.131011
    17 -2.867767 -2.740969 0.531125 2.051196 0.577049 -0.321829
    18 1.106445 12.492188 -3.097656 -1.772050 -0.272302 3.103433
    19 18.458235 -36.310890 -23.008597 1.540675 0.332782 -0.205630
    20 1.339844 7.750000 -1.613281 -1.369523 0.272265 -0.038129
    21 4.777344 6.027344 1.897461 -1.090396 0.577049 -0.321829
    22 5.484375 7.066406 2.427734 -1.090396 0.577049 -0.321829
    23 7.537933 7.453606 1.870349 -1.090396 0.577049 -0.321829
    24 8.154472 8.357077 2.329839 -1.090396 0.577049 -0.321829
    25 8.874294 9.411907 2.866308 -1.090396 0.577049 -0.321829
    26 -4.125858 -2.321501 1.394414 2.051196 0.577049 -0.321829
    27 -4.826813 -3.348669 0.872014 2.051196 0.577049 -0.321829
    28 -5.441669 -4.249685 0.413772 2.051196 0.577049 -0.321829
    29 -0.552532 -1.343527 1.604446 -0.415180 0.312114 -0.422073
    30 0.552589 1.343534 -1.604463 -0.465990 -0.876595 -0.438945
    31 0.000000 -2.021618 -0.000004 0.186809 0.000000 0.000000
    32 -0.000021 2.021633 0.000027 0.824136 0.000000 0.000000
    33 -0.000004 -1.136217 -0.000004 -0.210111 0.000000 0.000000
    34 -0.000011 1.136200 -0.000019 -0.096334 0.000000 0.000000
    35 -0.032677 -4.587727 1.352317 2.844703 1.216154 2.484990
    36 0.032719 4.587772 -1.352291 2.575584 1.208663 2.466389
    37 0.000000 -1.754536 -0.000002 0.662896 0.000000 0.000000
    38 -0.000006 1.754520 -0.000034 0.321814 0.000000 0.000000
    39 0.000000 -1.227020 -0.000002 0.092660 0.000000 0.000000
    40 0.000002 1.227070 0.000032 0.460562 0.000000 0.000000
    41 -0.367996 -4.208406 0.173244 2.943027 1.091688 2.536231
    42 0.368011 4.208412 -0.173239 2.581893 1.052111 2.159298
    43 0.000000 -2.372318 -0.000004 0.722081 0.000000 0.000000
    44 -0.000006 2.372318 -0.000032 1.885942 0.000000 0.000000
    45 0.000004 -1.580070 -0.000001 0.034255 0.000000 0.000000
    46 -0.000002 1.580170 0.000030 0.602823 0.000000 0.000000
    47 -0.937645 -3.860697 -0.959317 3.044205 1.001841 2.581100
    48 0.937672 3.860714 0.959333 2.709721 0.800474 2.318766
    49 0.000000 -1.690632 0.000000 0.491549 0.000000 0.000000
    50 -0.000013 1.690666 0.000021 1.759133 0.000000 0.000000
    51 -0.000002 -1.423443 0.000002 0.234212 0.000000 0.000000
    52 0.000008 1.423420 0.000028 0.817068 0.000000 0.000000
    53 -1.546646 -3.404194 -1.915569 3.024293 0.944156 2.514436
    54 1.546661 3.404217 1.915585 -3.027008 0.615476 2.392694
    55 0.000004 -1.437820 0.000000 0.424958 0.000000 0.000000
    56 -0.000021 1.437870 0.000031 1.336724 0.000000 0.000000
    57 -0.000002 -1.059402 0.000000 0.322075 0.000000 0.000000
    58 0.000006 1.059372 0.000008 0.795881 0.000000 0.000000
    59 -0.000004 -13.013485 -0.000004 0.010936 -0.284121 -0.076428
    60 0.161133 -10.812500 0.023087 0.010936 -0.284121 -0.076428
  time 13
    0 -0.024506 -3.468750 -0.000151 -1.559900 -0.000006 -0.000006
    1 -8.653000 -0.001747 3.740445 -0.920881 -0.064126 0.439983
    2 0.000000 14.313023 0.000003 -0.702382 0.000000 0.000000
    3 -0.000011 13.013483 -0.000005 -0.508226 0.282295 -0.021568
    4 8.648438 0.000002 3.736328 -1.465981 0.292075 2.445211
    5 0.000000 -14.313034 0.000000 0.000000 0.000000 0.000000
    6 -0.000004 -13.013485 -0.000004 0.920551 0.163672 2.520947
    7 -1.330879 -2.698427 0.462449 -0.194886 -0.547260 3.056712
    8 1.330910 2.698444 -0.462436 0.194890 0.547268 -0.084879
    9 1.186523 5.542969 -1.857422 -1.369523 0.272265 -0.038129
    10 1.106445 12.492188 -3.097656 -2.092381 -0.272298 3.103442
    11 -1.486328 1.664063 -11.968750 0.514784 0.295216 -0.297477
    12 0.706543 8.585938 -3.654297 -1.589811 0.272264 -0.038126
    13 19.953125 -11.585938 5.781250 -1.285310 0.960381 0.216270
    14 6.566406 8.640625 3.232422 -1.090396 0.577049 -0.321829
    15 7.558525 6.997282 -2.354134 -1.937336 -0.275393 3.010581
    16 7.558525 6.997282 -2.354134 1.937336 0.275393 -0.131011
    17 -2.867767 -2.740969 0.531125 2.051196 0.577049 -0.321829
    18 1.106445 12.492188 -3.097656 -1.772050 -0.272302 3.103433
    19 18.712149 -38.014067 -20.051476 1.443562 0.324727 -0.222984
    20 1.339844 7.750000 -1.613281 -1.369523 0.272265 -0.038129
    21 4.777344 6.027344 1.897461 -1.090396 0.577049 -0.321829
    22 5.484375 7.066406 2.427734 -1.090396 0.577049 -0.321829
    23 7.537933 7.453606 1.870349 -1.090396 0.577049 -0.321829
    24 8.154472 8.357077 2.329839 -1.090396 0.577049 -0.321829
    25 8.874294 9.411907 2.866308 -1.090396 0.577049 -0.321829
    26 -4.125858 -2.321501 1.394414 2.051196 0.577049 -0.321829
    27 -4.826813 -3.348669 0.872014 2.051196 0.577049 -0.321829
    28 -5.441669 -4.249685 0.413772 2.051196 0.577049 -0.321829
    29 -0.552532 -1.343527 1.604446 -0.415180 0.312114 -0.422073
    30 0.552589 1.343534 -1.604463 -0.465990 -0.876595 -0.438945
    31 0.000000 -2.021618 -0.000004 0.186809 0.000000 0.000000
    32 -0.000021 2.021633 0.000027 0.824136 0.000000 0.000000
    33 -0.000004 -1.136217 -0.000004 -0.210111 0.000000 0.000000
    34 -0.000011 1.136200 -0.000019 -0.096334 0.000000 0.000000
    35 -0.032677 -4.587727 1.352317 2.844703 1.216154 2.484990
    36 0.032719 4.587772 -1.352291 2.575584 1.208663 2.466389
    37 0.000000 -1.754536 -0.000002 0.662896 0.000000 0.000000
    38 -0.000006 1.754520 -0.000034 0.321814 0.000000 0.000000
    39 0.000000 -1.227020 -0.000002 0.092660 0.000000 0.000000
    40 0.000002 1.227070 0.000032 0.460562 0.000000 0.000000
    41 -0.367996 -4.208406 0.173244 2.943027 1.091688 2.536231
    42 0.368011 4.208412 -0.173239 2.581893 1.052111 2.159298
    43 0.000000 -2.372318 -0.000004 0.722081 0.000000 0.000000
    44 -0.000006 2.372318 -0.000032 1.885942 0.000000 0.000000
    45 0.000004 -1.580070 -0.000001 0.034255 0.000000 0.000000
    46 -0.000002 1.580170 0.000030 0.602823 0.000000 0.000000
    47 -0.937645 -3.860697 -0.959317 3.044205 1.001841 2.581100
    48 0.937672 3.860714 0.959333 2.709721 0.800474 2.318766
    49 0.000000 -1.690632 0.000000 0.491549 0.000000 0.000000
    50 -0.000013 1.690666 0.000021 1.759133 0.000000 0.000000
    51 -0.000002 -1.423443 0.000002 0.234212 0.000000 0.000000
    52 0.000008 1.423420 0.000028 0.817068 0.000000 0.000000
    53 -1.546646 -3.404194 -1.915569 3.024293 0.944156 2.514436
    54 1.546661 3.404217 1.915585 -3.027008 0.615476 2.392694
    55 0.000004 -1.437820 0.000000 0.424958 0.000000 0.000000
    56 -0.000021 1.437870 0.000031 1.336724 0.000000 0.000000
    57 -0.000002 -1.059402 0.000000 0.322075 0.000000 0.000000
    58 0.000006 1.059372 0.000008 0.795881 0.000000 0.000000
    59 -0.000004 -13.013485 -0.000004 0.010936 -0.284121 -0.076428
    60 0.161133 -10.812500 0.023087 0.010936 -0.284121 -0.076428
  time 14
    0 -0.024506 -3.468750 -0.000151 -1.559900 -0.000006 -0.000006
    1 -8.653000 -0.001747 3.740445 -0.934150 -0.070277 0.451822
    2 0.000000 14.313023 0.000003 -0.667984 0.000000 0.000000
    3 -0.000011 13.013483 -0.000005 -0.457681 0.279229 -0.026169
    4 8.648438 0.000002 3.736328 -1.465981 0.292075 2.445211
    5 0.000000 -14.313034 0.000000 0.000000 0.000000 0.000000
    6 -0.000004 -13.013485 -0.000004 0.920551 0.163672 2.520947
    7 -1.330879 -2.698427 0.462449 -0.194886 -0.547260 3.056712
    8 1.330910 2.698444 -0.462436 0.194890 0.547268 -0.084879
    9 1.186523 5.542969 -1.857422 -1.369523 0.272265 -0.038129
    10 1.106445 12.492188 -3.097656 -2.092381 -0.272298 3.103442
    11 -1.486328 1.664063 -11.968750 0.514784 0.295216 -0.297477
    12 0.706543 8.585938 -3.654297 -1.589811 0.272264 -0.038126
    13 19.953125 -11.585938 5.781250 -1.285310 0.960381 0.216270
    14 6.566406 8.640625 3.232422 -1.090396 0.577049 -0.321829
    15 7.558525 6.997282 -2.354134 -1.937336 -0.275393 3.010581
    16 7.558525 6.997282 -2.354134 1.937336 0.275393 -0.131011
    17 -2.867767 -2.740969 0.531125 2.051196 0.577049 -0.321829
    18 1.106445 12.492188 -3.097656 -1.772050 -0.272302 3.103433
    19 18.915280 -39.256293 -17.543587 1.364278 0.317587 -0.237556
    20 1.339844 7.750000 -1.613281 -1.369523 0.272265 -0.038129
    21 4.777344 6.027344 1.897461 -1.090396 0.577049 -0.321829
    22 5.484375 7.066406 2.427734 -1.090396 0.577049 -0.321829
    23 7.537933 7.453606 1.870349 -1.090396 0.577049 -0.321829
    24 8.154472 8.357077 2.329839 -1.090396 0.577049 -0.321829
    25 8.874294 9.411907 2.866308 -1.090396 0.577049 -0.321829
    26 -4.125858 -2.321501 1.394414 2.051196 0.577049 -0.321829
    27 -4.826813 -3.348669 0.872014 2.051196 0.577049 -0.321829
    28 -5.441669 -4.249685 0.413772 2.051196 0.577049 -0.321829
    29 -0.552532 -1.343527 1.604446 -0.415180 0.312114 -0.422073
    30 0.552589 1.343534 -1.604463 -0.465990 -0.876595 -0.438945
    31 0.000000 -2.021618 -0.000004 0.186809 0.000000 0.000000
    32 -0.000021 2.021633 0.000027 0.824136 0.000000 0.000000
    33 -0.000004 -1.136217 -0.000004 -0.210111 0.000000 0.000000
    34 -0.000011 1.136200 -0.000019 -0.096334 0.000000 0.000000
    35 -0.032677 -4.587727 1.352317 2.844703 1.216154 2.484990
    36 0.032719 4.587772 -1.352291 2.575584 1.208663 2.466389
    37 0.000000 -1.754536 -0.000002 0.662896 0.000000 0.000000
    38 -0.000006 1.754520 -0.000034 0.321814 0.000000 0.000000
    39 0.000000 -1.227020 -0.000002 0.092660 0.000000 0.000000
    40 0.000002 1.227070 0.000032 0.460562 0.000000 0.000000
    41 -0.367996 -4.208406 0.173244 2.943027 1.091688 2.536231
    42 0.368011 4.208412 -0.173239 2.581893 1.052111 2.159298
    43 0.000000 -2.372318 -0.000004 0.722081 0.000000 0.000000
    44 -0.000006 2.372318 -0.000032 1.885942 0.000000 0.000000
    45 0.000004 -1.580070 -0.000001 0.034255 0.000000 0.000000
    46 -0.000002 1.580170 0.000030 0.602823 0.000000 0.000000
    47 -0.937645 -3.860697 -0.959317 3.044205 1.001841 2.581100
    48 0.937672 3.860714 0.959333 2.709721 0.800474 2.318766
    49 0.000000 -1.690632 0.000000 0.491549 0.000000 0.000000
    50 -0.000013 1.690666 0.000021 1.759133 0.000000 0.000000
    51 -0.000002 -1.423443 0.000002 0.234212 0.000000 0.000000
    52 0.000008 1.423420 0.000028 0.817068 0.000000 0.000000
    53 -1.546646 -3.404194 -1.915569 3.024293 0.944156 2.514436
    54 1.546661 3.404217 1.915585 -3.027008 0.615476 2.392694
    55 0.000004 -1.437820 0.000000 0.424958 0.000000 0.000000
    56 -0.000021 1.437870 0.000031 1.336724 0.000000 0.000000
    57 -0.000002 -1.059402 0.000000 0.322075 0.000000 0.000000
    58 0.000006 1.059372 0.000008 0.795881 0.000000 0.000000
    59 -0.000004 -13.013485 -0.000004 0.010936 -0.284121 -0.076428
    60 0.161133 -10.812500 0.023087 0.010936 -0.284121 -0.076428
  time 15
    0 -0.024506 -3.468750 -0.000151 -1.559900 -0.000006 -0.000006
    1 -8.653000 -0.001747 3.740445 -0.947972 -0.075714 0.463661
    2 0.000000 14.313023 0.000003 -0.635785 0.000000 0.000000
    3 -0.000011 13.013483 -0.000005 -0.419652 0.279229 -0.029907
    4 8.648438 0.000002 3.736328 -1.465981 0.292075 2.445211
    5 0.000000 -14.313034 0.000000 0.000000 0.000000 0.000000
    6 -0.000004 -13.013485 -0.000004 0.920551 0.163672 2.520947
    7 -1.330879 -2.698427 0.462449 -0.194886 -0.547260 3.056712
    8 1.330910 2.698444 -0.462436 0.194890 0.547268 -0.084879
    9 1.186523 5.542969 -1.857422 -1.369523 0.272265 -0.038129
    10 1.106445 12.492188 -3.097656 -2.092381 -0.272298 3.103442
    11 -1.486328 1.664063 -11.968750 0.514784 0.295216 -0.297477
    12 0.706543 8.585938 -3.654297 -1.589811 0.272264 -0.038126
    13 19.953125 -11.585938 5.781250 -1.285310 0.960381 0.216270
    14 6.566406 8.640625 3.232422 -1.090396 0.577049 -0.321829
    15 7.558525 6.997282 -2.354134 -1.937336 -0.275393 3.010581
    16 7.558525 6.997282 -2.354134 1.937336 0.275393 -0.131011
    17 -2.867767 -2.740969 0.531125 2.051196 0.577049 -0.321829
    18 1.106445 12.492188 -3.097656 -1.772050 -0.272302 3.103433
    19 19.091067 -40.139132 -15.496649 1.301400 0.311607 -0.248774
    20 1.339844 7.750000 -1.613281 -1.369523 0.272265 -0.038129
    21 4.777344 6.027344 1.897461 -1.090396 0.577049 -0.321829
    22 5.484375 7.066406 2.427734 -1.090396 0.577049 -0.321829
    23 7.537933 7.453606 1.870349 -1.090396 0.577049 -0.321829
    24 8.154472 8.357077 2.329839 -1.090396 0.577049 -0.321829
    25 8.874294 9.411907 2.866308 -1.090396 0.577049 -0.321829
    26 -4.125858 -2.321501 1.394414 2.051196 0.577049 -0.321829
    27 -4.826813 -3.348669 0.872014 2.051196 0.577049 -0.321829
    28 -5.441669 -4.249685 0.413772 2.051196 0.577049 -0.321829
    29 -0.552532 -1.343527 1.604446 -0.415180 0.312114 -0.422073
    30 0.552589 1.343534 -1.604463 -0.465990 -0.876595 -0.438945
    31 0.000000 -2.021618 -0.000004 0.186809 0.000000 0.000000
    32 -0.000021 2.021633 0.000027 0.824136 0.000000 0.000000
    33 -0.000004 -1.136217 -0.000004 -0.210111 0.000000 0.000000
    34 -0.000011 1.136200 -0.000019 -0.096334 0.000000 0.000000
    35 -0.032677 -4.587727 1.352317 2.844703 1.216154 2.484990
    36 0.032719 4.587772 -1.352291 2.575584 1.208663 2.466389
    37 0.000000 -1.754536 -0.000002 0.662896 0.000000 0.000000
    38 -0.000006 1.754520 -0.000034 0.321814 0.000000 0.000000
    39 0.000000 -1.227020 -0.000002 0.092660 0.000000 0.000000
    40 0.000002 1.227070 0.000032 0.460562 0.000000 0.000000
    41 -0.367996 -4.208406 0.173244 2.943027 1.091688 2.536231
    42 0.368011 4.208412 -0.173239 2.581893 1.052111 2.159298
    43 0.000000 -2.372318 -0.000004 0.722081 0.000000 0.000000
    44 -0.000006 2.372318 -0.000032 1.885942 0.000000 0.000000
    45 0.000004 -1.580070 -0.000001 0.034255 0.000000 0.000000
    46 -0.000002 1.580170 0.000030 0.602823 0.000000 0.000000
    47 -0.937645 -3.860697 -0.959317 3.044205 1.001841 2.581100
    48 0.937672 3.860714 0.959333 2.709721 0.800474 2.318766
    49 0.000000 -1.690632 0.000000 0.491549 0.000000 0.000000
    50 -0.000013 1.690666 0.000021 1.759133 0.000000 0.000000
    51 -0.000002 -1.423443 0.000002 0.234212 0.000000 0.000000
    52 0.000008 1.423420 0.000028 0.817068 0.000000 0.000000
    53 -1.546646 -3.404194 -1.915569 3.024293 0.944156 2.514436
    54 1.546661 3.404217 1.915585 -3.027008 0.615476 2.392694
    55 0.000004 -1.437820 0.000000 0.424958 0.000000 0.000000
    56 -0.000021 1.437870 0.000031 1.336724 0.000000 0.000000
    57 -0.000002 -1.059402 0.000000 0.322075 0.000000 0.000000
    58 0.000006 1.059372 0.000008 0.795881 0.000000 0.000000
    59 -0.000004 -13.013485 -0.000004 0.010936 -0.284121 -0.076428
    60 0.161133 -10.812500 0.023087 0.010936 -0.284121 -0.076428
  time 16
    0 -0.024506 -3.468750 -0.000151 -1.559900 -0.000006 -0.000006
    1 -8.653000 -0.001747 3.740445 -0.961978 -0.080435 0.475118
    2 0.000000 14.313023 0.000003 -0.605481 0.000000 0.000000
    3 -0.000011 13.013483 -0.000005 -0.392803 0.281069 -0.033549
    4 8.648438 0.000002 3.736328 -1.465981 0.292075 2.445211
    5 0.000000 -14.313034 0.000000 0.000000 0.000000 0.000000
    6 -0.000004 -13.013485 -0.000004 0.920551 0.163672 2.520947
    7 -1.330879 -2.698427 0.462449 -0.194886 -0.547260 3.056712
    8 1.330910 2.698444 -0.462436 0.194890 0.547268 -0.084879
    9 1.186523 5.542969 -1.857422 -1.369523 0.272265 -0.038129
    10 1.106445 12.492188 -3.097656 -2.092381 -0.272298 3.103442
    11 -1.486328 1.664063 -11.968750 0.514784 0.295216 -0.297477
    12 0.706543 8.585938 -3.654297 -1.589811 0.272264 -0.038126
    13 19.953125 -11.585938 5.781250 -1.285310 0.960381 0.216270
    14 6.566406 8.640625 3.232422 -1.090396 0.577049 -0.321829
    15 7.558525 6.997282 -2.354134 -1.937336 -0.275393 3.010581
    16 7.558525 6.997282 -2.354134 1.937336 0.275393 -0.131011
    17 -2.867767 -2.740969 0.531125 2.051196 0.577049 -0.321829
    18 1.106445 12.492188 -3.097656 -1.772050 -0.272302 3.103433
    19 19.259041 -40.760245 -13.875506 1.252844 0.306970 -0.256827
    20 1.339844 7.750000 -1.613281 -1.369523 0.272265 -0.038129
    21 4.777344 6.027344 1.897461 -1.090396 0.577049 -0.321829
    22 5.484375 7.066406 2.427734 -1.090396 0.577049 -0.321829
    23 7.537933 7.453606 1.870349 -1.090396 0.577049 -0.321829
    24 8.154472 8.357077 2.329839 -1.090396 0.577049 -0.321829
    25 8.874294 9.411907 2.866308 -1.090396 0.577049 -0.321829
    26 -4.125858 -2.321501 1.394414 2.051196 0.577049 -0.321829
    27 -4.826813 -3.348669 0.872014 2.051196 0.577049 -0.321829
    28 -5.441669 -4.249685 0.413772 2.051196 0.577049 -0.321829
    29 -0.552532 -1.343527 1.604446 -0.415180 0.312114 -0.422073
    30 0.552589 1.343534 -1.604463 -0.465990 -0.876595 -0.438945
    31 0.000000 -2.021618 -0.000004 0.186809 0.000000 0.000000
    32 -0.000021 2.021633 0.000027 0.824136 0.000000 0.000000
    33 -0.000004 -1.136217 -0.000004 -0.210111 0.000000 0.000000
    34 -0.000011 1.136200 -0.000019 -0.096334 0.000000 0.000000
    35 -0.032677 -4.587727 1.352317 2.844703 1.216154 2.484990
    36 0.032719 4.587772 -1.352291 2.575584 1.208663 2.466389
    37 0.000000 -1.754536 -0.000002 0.662896 0.000000 0.000000
    38 -0.000006 1.754520 -0.000034 0.321814 0.000000 0.000000
    39 0.000000 -1.227020 -0.000002 0.092660 0.000000 0.000000
    40 0.000002 1.227070 0.000032 0.460562 0.000000 0.000000
    41 -0.367996 -4.208406 0.173244 2.943027 1.091688 2.536231
    42 0.368011 4.208412 -0.173239 2.581893 1.052111 2.159298
    43 0.000000 -2.372318 -0.000004 0.722081 0.000000 0.000000
    44 -0.000006 2.372318 -0.000032 1.885942 0.000000 0.000000
    45 0.000004 -1.580070 -0.000001 0.034255 0.000000 0.000000
    46 -0.000002 1.580170 0.000030 0.602823 0.000000 0.000000
    47 -0.937645 -3.860697 -0.959317 3.044205 1.001841 2.581100
    48 0.937672 3.860714 0.959333 2.709721 0.800474 2.318766
    49 0.000000 -1.690632 0.000000 0.491549 0.000000 0.000000
    50 -0.000013 1.690666 0.000021 1.759133 0.000000 0.000000
    51 -0.000002 -1.423443 0.000002 0.234212 0.000000 0.000000
    52 0.000008 1.423420 0.000028 0.817068 0.000000 0.000000
    53 -1.546646 -3.404194 -1.915569 3.024293 0.944156 2.514436
    54 1.546661 3.404217 1.915585 -3.027008 0.615476 2.392694
    55 0.000004 -1.437820 0.000000 0.424958 0.000000 0.000000
    56 -0.000021 1.437870 0.000031 1.336724 0.000000 0.000000
    57 -0.000002 -1.059402 0.000000 0.322075 0.000000 0.000000
    58 0.000006 1.059372 0.000008 0.795881 0.000000 0.000000
    59 -0.000004 -13.013485 -0.000004 0.010936 -0.284121 -0.076428
    60 0.161133 -10.812500 0.023087 0.010936 -0.284121 -0.076428
  time 17
    0 -0.024506 -3.468750 -0.000151 -1.559900 -0.000006 -0.000006
    1 -8.653000 -0.001747 3.740445 -0.976077 -0.084346 0.485659
    2 0.000000 14.313023 0.000003 -0.577009 0.000000 0.000000
    3 -0.000011 13.013483 -0.000005 -0.375795 0.283710 -0.037575
    4 8.648438 0.000002 3.736328 -1.465981 0.292075 2.445211
    5 0.000000 -14.313034 0.000000 0.000000 0.000000 0.000000
    6 -0.000004 -13.013485 -0.000004 0.920551 0.163672 2.520947
    7 -1.330879 -2.698427 0.462449 -0.194886 -0.547260 3.056712
    8 1.330910 2.698444 -0.462436 0.194890 0.547268 -0.084879
    9 1.186523 5.542969 -1.857422 -1.369523 0.272265 -0.038129
    10 1.106445 12.492188 -3.097656 -2.092381 -0.272298 3.103442
    11 -1.486328 1.664063 -11.968750 0.514784 0.295216 -0.297477
    12 0.706543 8.585938 -3.654297 -1.589811 0.272264 -0.038126
    13 19.953125 -11.585938 5.781250 -1.285310 0.960381 0.216270
    14 6.566406 8.640625 3.232422 -1.090396 0.577049 -0.321829
    15 7.558525 6.997282 -2.354134 -1.937336 -0.275393 3.010581
    16 7.558525 6.997282 -2.354134 1.937336 0.275393 -0.131011
    17 -2.867767 -2.740969 0.531125 2.051196 0.577049 -0.321829
    18 1.106445 12.492188 -3.097656 -1.772050 -0.272302 3.103433
    19 19.423108 -41.182133 -12.660625 1.216616 0.303492 -0.262100
    20 1.339844 7.750000 -1.613281 -1.369523 0.272265 -0.038129
    21 4.777344 6.027344 1.897461 -1.090396 0.577049 -0.321829
    22 5.484375 7.066406 2.427734 -1.090396 0.577049 -0.321829
    23 7.537933 7.453606 1.870349 -1.090396 0.577049 -0.321829
    24 8.154472 8.357077 2.329839 -1.090396 0.577049 -0.321829
    25 8.874294 9.411907 2.866308 -1.090396 0.577049 -0.321829
    26 -4.125858 -2.321501 1.394414 2.051196 0.577049 -0.321829
    27 -4.826813 -3.348669 0.872014 2.051196 0.577049 -0.321829
    28 -5.441669 -4.249685 0.413772 2.051196 0.577049 -0.321829
    29 -0.552532 -1.343527 1.604446 -0.415180 0.312114 -0.422073
    30 0.552589 1.343534 -1.604463 -0.465990 -0.876595 -0.438945
    31 0.000000 -2.021618 -0.000004 0.186809 0.000000 0.000000
    32 -0.000021 2.021633 0.000027 0.824136 0.000000 0.000000
    33 -0.000004 -1.136217 -0.000004 -0.210111 0.000000 0.000000
    34 -0.000011 1.136200 -0.000019 -0.096334 0.000000 0.000000
    35 -0.032677 -4.587727 1.352317 2.844703 1.216154 2.484990
    36 0.032719 4.587772 -1.352291 2.575584 1.208663 2.466389
    37 0.000000 -1.754536 -0.000002 0.662896 0.000000 0.000000
    38 -0.000006 1.754520 -0.000034 0.321814 0.000000 0.000000
    39 0.000000 -1.227020 -0.000002 0.092660 0.000000 0.000000
    40 0.000002 1.227070 0.000032 0.460562 0.000000 0.000000
    41 -0.367996 -4.208406 0.173244 2.943027 1.091688 2.536231
    42 0.368011 4.208412 -0.173239 2.581893 1.052111 2.159298
    43 0.000000 -2.372318 -0.000004 0.722081 0.000000 0.000000
    44 -0.000006 2.372318 -0.000032 1.885942 0.000000 0.000000
    45 0.000004 -1.580070 -0.000001 0.034255 0.000000 0.000000
    46 -0.000002 1.580170 0.000030 0.602823 0.000000 0.000000
    47 -0.937645 -3.860697 -0.959317 3.044205 1.001841 2.581100
    48 0.937672 3.860714 0.959333 2.709721 0.800474 2.318766
    49 0.000000 -1.690632 0.000000 0.491549 0.000000 0.000000
    50 -0.000013 1.690666 0.000021 1.759133 0.000000 0.000000
    51 -0.000002 -1.423443 0.000002 0.234212 0.000000 0.000000
    52 0.000008 1.423420 0.000028 0.817068 0.000000 0.000000
    53 -1.546646 -3.404194 -1.915569 3.024293 0.944156 2.514436
    54 1.546661 3.404217 1.915585 -3.027008 0.615476 2.392694
    55 0.000004 -1.437820 0.000000 0.424958 0.000000 0.000000
    56 -0.000021 1.437870 0.000031 1.336724 0.000000 0.000000
    57 -0.000002 -1.059402 0.000000 0.322075 0.000000 0.000000
    58 0.000006 1.059372 0.000008 0.795881 0.000000 0.000000
    59 -0.000004 -13.013485 -0.000004 0.010936 -0.284121 -0.076428
    60 0.161133 -10.812500 0.023087 0.010936 -0.284121 -0.076428
  time 18
    0 -0.024506 -3.468750 -0.000151 -1.559900 -0.000006 -0.000006
    1 -8.653000 -0.001747 3.740445 -0.989530 -0.087255 0.494290
    2 0.000000 14.313023 0.000003 -0.550798 0.000000 0.000000
    3 -0.000011 13.013483 -0.000005 -0.366813 0.286210 -0.042177
    4 8.648438 0.000002 3.736328 -1.465981 0.292075 2.445211
    5 0.000000 -14.313034 0.000000 0.000000 0.000000 0.000000
    6 -0.000004 -13.013485 -0.000004 0.920551 0.163672 2.520947
    7 -1.330879 -2.698427 0.462449 -0.194886 -0.547260 3.056712
    8 1.330910 2.698444 -0.462436 0.194890 0.547268 -0.084879
    9 1.186523 5.542969 -1.857422 -1.369523 0.272265 -0.038129
    10 1.106445 12.492188 -3.097656 -2.092381 -0.272298 3.103442
    11 -1.486328 1.664063 -11.968750 0.514784 0.295216 -0.297477
    12 0.706543 8.585938 -3.654297 -1.589811 0.272264 -0.038126
    13 19.953125 -11.585938 5.781250 -1.285310 0.960381 0.216270
    14 6.566406 8.640625 3.232422 -1.090396 0.577049 -0.321829
    15 7.558525 6.997282 -2.354134 -1.937336 -0.275393 3.010581
    16 7.558525 6.997282 -2.354134 1.937336 0.275393 -0.131011
    17 -2.867767 -2.740969 0.531125 2.051196 0.577049 -0.321829
    18 1.106445 12.492188 -3.097656 -1.772050 -0.272302 3.103433
    19 19.583269 -41.471204 -11.789505 1.190915 0.301173 -0.264880
    20 1.339844 7.750000 -1.613281 -1.369523 0.272265 -0.038129
    21 4.777344 6.027344 1.897461 -1.090396 0.577049 -0.321829
    22 5.484375 7.066406 2.427734 -1.090396 0.577049 -0.321829
    23 7.537933 7.453606 1.870349 -1.090396 0.577049 -0.321829
    24 8.154472 8.357077 2.329839 -1.090396 0.577049 -0.321829
    25 8.874294 9.411907 2.866308 -1.090396 0.577049 -0.321829
    26 -4.125858 -2.321501 1.394414 2.051196 0.577049 -0.321829
    27 -4.826813 -3.348669 0.872014 2.051196 0.577049 -0.321829
    28 -5.441669 -4.249685 0.413772 2.051196 0.577049 -0.321829
    29 -0.552532 -1.343527 1.604446 -0.415180 0.312114 -0.422073
    30 0.552589 1.343534 -1.604463 -0.465990 -0.876595 -0.438945
    31 0.000000 -2.021618 -0.000004 0.186809 0.000000 0.000000
    32 -0.000021 2.021633 0.000027 0.824136 0.000000 0.000000
    33 -0.000004 -1.136217 -0.000004 -0.210111 0.000000 0.000000
    34 -0.000011 1.136200 -0.000019 -0.096334 0.000000 0.000000
    35 -0.032677 -4.587727 1.352317 2.844703 1.216154 2.484990
    36 0.032719 4.587772 -1.352291 2.575584 1.208663 2.466389
    37 0.000000 -1.754536 -0.000002 0.662896 0.000000 0.000000
    38 -0.000006 1.754520 -0.000034 0.321814 0.000000 0.000000
    39 0.000000 -1.227020 -0.000002 0.092660 0.000000 0.000000
    40 0.000002 1.227070 0.000032 0.460562 0.000000 0.000000
    41 -0.367996 -4.208406 0.173244 2.943027 1.091688 2.536231
    42 0.368011 4.208412 -0.173239 2.581893 1.052111 2.159298
    43 0.000000 -2.372318 -0.000004 0.722081 0.000000 0.000000
    44 -0.000006 2.372318 -0.000032 1.885942 0.000000 0.000000
    45 0.000004 -1.580070 -0.000001 0.034255 0.000000 0.000000
    46 -0.000002 1.580170 0.000030 0.602823 0.000000 0.000000
    47 -0.937645 -3.860697 -0.959317 3.044205 1.001841 2.581100
    48 0.937672 3.860714 0.959333 2.709721 0.800474 2.318766
    49 0.000000 -1.690632 0.000000 0.491549 0.000000 0.000000
    50 -0.000013 1.690666 0.000021 1.759133 0.000000 0.000000
    51 -0.000002 -1.423443 0.000002 0.234212 0.000000 0.000000
    52 0.000008 1.423420 0.000028 0.817068 0.000000 0.000000
    53 -1.546646 -3.404194 -1.915569 3.024293 0.944156 2.514436
    54 1.546661 3.404217 1.915585 -3.027008 0.615476 2.392694
    55 0.000004 -1.437820 0.000000 0.424958 0.000000 0.000000
    56 -0.000021 1.437870 0.000031 1.336724 0.000000 0.000000
    57 -0.000002 -1.059402 0.000000 0.322075 0.000000 0.000000
    58 0.000006 1.059372 0.000008 0.795881 0.000000 0.000000
    59 -0.000004 -13.013485 -0.000004 0.010936 -0.284121 -0.076428
    60 0.161133 -10.812500 0.023087 0.010936 -0.284121 -0.076428
  time 19
    0 -0.024506 -3.468750 -0.000151 -1.559900 -0.000006 -0.000006
    1 -8.653000 -0.001747 3.740445 -1.001509 -0.089019 0.500171
    2 0.000000 14.313023 0.000003 -0.527764 0.000000 0.000000
    3 -0.000011 13.013483 -0.000005 -0.363756 0.287200 -0.047257
    4 8.648438 0.000002 3.736328 -1.465981 0.292075 2.445211
    5 0.000000 -14.313034 0.000000 0.000000 0.000000 0.000000
    6 -0.000004 -13.013485 -0.000004 0.920551 0.163672 2.520947
    7 -1.330879 -2.698427 0.462449 -0.194886 -0.547260 3.056712
    8 1.330910 2.698444 -0.462436 0.194890 0.547268 -0.084879
    9 1.186523 5.542969 -1.857422 -1.369523 0.272265 -0.038129
    10 1.106445 12.492188 -3.097656 -2.092381 -0.272298 3.103442
    11 -1.486328 1.664063 -11.968750 0.514784 0.295216 -0.297477
    12 0.706543 8.585938 -3.654297 -1.589811 0.272264 -0.038126
    13 19.953125 -11.585938 5.781250 -1.285310 0.960381 0.216270
    14 6.566406 8.640625 3.232422 -1.090396 0.577049 -0.321829
    15 7.558525 6.997282 -2.354134 -1.937336 -0.275393 3.010581
    16 7.558525 6.997282 -2.354134 1.937336 0.275393 -0.131011
    17 -2.867767 -2.740969 0.531125 2.051196 0.577049 -0.321829
    18 1.106445 12.492188 -3.097656 -1.772050 -0.272302 3.103433
    19 19.739524 -41.650897 -11.215269 1.173655 0.299830 -0.265647
    20 1.339844 7.750000 -1.613281 -1.369523 0.272265 -0.038129
    21 4.777344 6.027344 1.897461 -1.090396 0.577049 -0.321829
    22 5.484375 7.066406 2.427734 -1.090396 0.577049 -0.321829
    23 7.537933 7.453606 1.870349 -1.090396 0.577049 -0.321829
    24 8.154472 8.357077 2.329839 -1.090396 0.577049 -0.321829
    25 8.874294 9.411907 2.866308 -1.090396 0.577049 -0.321829
    26 -4.125858 -2.321501 1.394414 2.051196 0.577049 -0.321829
    27 -4.826813 -3.348669 0.872014 2.051196 0.577049 -0.321829
    28 -5.441669 -4.249685 0.413772 2.051196 0.577049 -0.321829
    29 -0.552532 -1.343527 1.604446 -0.415180 0.312114 -0.422073
    30 0.552589 1.343534 -1.604463 -0.465990 -0.876595 -0.438945
    31 0.000000 -2.021618 -0.000004 0.186809 0.000000 0.000000
    32 -0.000021 2.021633 0.000027 0.824136 0.000000 0.000000
    33 -0.000004 -1.136217 -0.000004 -0.210111 0.000000 0.000000
    34 -0.000011 1.136200 -0.000019 -0.096334 0.000000 0.000000
    35 -0.032677 -4.587727 1.352317 2.844703 1.216154 2.484990
    36 0.032719 4.587772 -1.352291 2.575584 1.208663 2.466389
    37 0.000000 -1.754536 -0.000002 0.662896 0.000000 0.000000
    38 -0.000006 1.754520 -0.000034 0.321814 0.000000 0.000000
    39 0.000000 -1.227020 -0.000002 0.092660 0.000000 0.000000
    40 0.000002 1.227070 0.000032 0.460562 0.000000 0.000000
    41 -0.367996 -4.208406 0.173244 2.943027 1.091688 2.536231
    42 0.368011 4.208412 -0.173239 2.581893 1.052111 2.159298
    43 0.000000 -2.372318 -0.000004 0.722081 0.000000 0.000000
    44 -0.000006 2.372318 -0.000032 1.885942 0.000000 0.000000
    45 0.000004 -1.580070 -0.000001 0.034255 0.000000 0.000000
    46 -0.000002 1.580170 0.000030 0.602823 0.000000 0.000000
    47 -0.937645 -3.860697 -0.959317 3.044205 1.001841 2.581100
    48 0.937672 3.860714 0.959333 2.709721 0.800474 2.318766
    49 0.000000 -1.690632 0.000000 0.491549 0.000000 0.000000
    50 -0.000013 1.690666 0.000021 1.759133 0.000000 0.000000
    51 -0.000002 -1.423443 0.000002 0.234212 0.000000 0.000000
    52 0.000008 1.423420 0.000028 0.817068 0.000000 0.000000
    53 -1.546646 -3.404194 -1.915569 3.024293 0.944156 2.514436
    54 1.546661 3.404217 1.915585 -3.027008 0.615476 2.392694
    55 0.000004 -1.437820 0.000000 0.424958 0.000000 0.000000
    56 -0.000021 1.437870 0.000031 1.336724 0.000000 0.000000
    57 -0.000002 -1.059402 0.000000 0.322075 0.000000 0.000000
    58 0.000006 1.059372 0.000008 0.795881 0.000000 0.000000
    59 -0.000004 -13.013485 -0.000004 0.010936 -0.284121 -0.076428
    60 0.161133 -10.812500 0.023087 0.010936 -0.284121 -0.076428
  time 20
    0 -0.024506 -3.468750 -0.000151 -1.559900 -0.000006 -0.000006
    1 -8.653000 -0.001747 3.740445 -1.009065 -0.089544 0.502386
    2 0.000000 14.313023 0.000003 -0.513406 0.000000 0.000000
    3 -0.000011 13.013483 -0.000005 -0.362227 0.285691 -0.051954
    4 8.648438 0.000002 3.736328 -1.465981 0.292075 2.445211
    5 0.000000 -14.313034 0.000000 0.000000 0.000000 0.000000
    6 -0.000004 -13.013485 -0.000004 0.920551 0.163672 2.520947
    7 -1.330879 -2.698427 0.462449 -0.194886 -0.547260 3.056712
    8 1.330910 2.698444 -0.462436 0.194890 0.547268 -0.084879
    9 1.186523 5.542969 -1.857422 -1.369523 0.272265 -0.038129
    10 1.106445 12.492188 -3.097656 -2.092381 -0.272298 3.103442
    11 -1.486328 1.664063 -11.968750 0.514784 0.295216 -0.297477
    12 0.706543 8.585938 -3.654297 -1.589811 0.272264 -0.038126
    13 19.953125 -11.585938 5.781250 -1.285310 0.960381 0.216270
    14 6.566406 8.640625 3.232422 -1.090396 0.577049 -0.321829
    15 7.558525 6.997282 -2.354134 -1.937336 -0.275393 3.010581
    16 7.558525 6.997282 -2.354134 1.937336 0.275393 -0.131011
    17 -2.867767 -2.740969 0.531125 2.051196 0.577049 -0.321829
    18 1.106445 12.492188 -3.097656 -1.772050 -0.272302 3.103433
    19 19.884060 -41.729024 -10.859789 1.163128 0.299342 -0.264880
    20 1.339844 7.750000 -1.613281 -1.369523 0.272265 -0.038129
    21 4.777344 6.027344 1.897461 -1.090396 0.577049 -0.321829
    22 5.484375 7.066406 2.427734 -1.090396 0.577049 -0.321829
    23 7.537933 7.453606 1.870349 -1.090396 0.577049 -0.321829
    24 8.154472 8.357077 2.329839 -1.090396 0.577049 -0.321829
    25 8.874294 9.411907 2.866308 -1.090396 0.577049 -0.321829
    26 -4.125858 -2.321501 1.394414 2.051196 0.577049 -0.321829
    27 -4.826813 -3.348669 0.872014 2.051196 0.577049 -0.321829
    28 -5.441669 -4.249685 0.413772 2.051196 0.577049 -0.321829
    29 -0.552532 -1.343527 1.604446 -0.415180 0.312114 -0.422073
    30 0.552589 1.343534 -1.604463 -0.465990 -0.876595 -0.438945
    31 0.000000 -2.021618 -0.000004 0.186809 0.000000 0.000000
    32 -0.000021 2.021633 0.000027 0.824136 0.000000 0.000000
    33 -0.000004 -1.136217 -0.000004 -0.210111 0.000000 0.000000
    34 -0.000011 1.136200 -0.000019 -0.096334 0.000000 0.000000
    35 -0.032677 -4.587727 1.352317 2.844703 1.216154 2.484990
    36 0.032719 4.587772 -1.352291 2.575584 1.208663 2.466389
    37 0.000000 -1.754536 -0.000002 0.662896 0.000000 0.000000
    38 -0.000006 1.754520 -0.000034 0.321814 0.000000 0.000000
    39 0.000000 -1.227020 -0.000002 0.092660 0.000000 0.000000
    40 0.000002 1.227070 0.000032 0.460562 0.000000 0.000000
    41 -0.367996 -4.208406 0.173244 2.943027 1.091688 2.536231
    42 0.368011 4.208412 -0.173239 2.581893 1.052111 2.159298
    43 0.000000 -2.372318 -0.000004 0.722081 0.000000 0.000000
    44 -0.000006 2.372318 -0.000032 1.885942 0.000000 0.000000
    45 0.000004 -1.580070 -0.000001 0.034255 0.000000 0.000000
    46 -0.000002 1.580170 0.000030 0.602823 0.000000 0.000000
    47 -0.937645 -3.860697 -0.959317 3.044205 1.001841 2.581100
    48 0.937672 3.860714 0.959333 2.709721 0.800474 2.318766
    49 0.000000 -1.690632 0.000000 0.491549 0.000000 0.000000
    50 -0.000013 1.690666 0.000021 1.759133 0.000000 0.000000
    51 -0.000002 -1.423443 0.000002 0.234212 0.000000 0.000000
    52 0.000008 1.423420 0.000028 0.817068 0.000000 0.000000
    53 -1.546646 -3.404194 -1.915569 3.024293 0.944156 2.514436
    54 1.546661 3.404217 1.915585 -3.027008 0.615476 2.392694
    55 0.000004 -1.437820 0.000000 0.424958 0.000000 0.000000
    56 -0.000021 1.437870 0.000031 1.336724 0.000000 0.000000
    57 -0.000002 -1.059402 0.000000 0.322075 0.000000 0.000000
    58 0.000006 1.059372 0.000008 0.795881 0.000000 0.000000
    59 -0.000004 -13.013485 -0.000004 0.010936 -0.284121 -0.076428
    60 0.161133 -10.812500 0.023087 0.010936 -0.284121 -0.076428
  time 21
    0 -0.024506 -3.468750 -0.000151 -1.559900 -0.000006 -0.000006
    1 -8.653000 -0.001747 3.740445 -1.009065 -0.089544 0.502386
    2 0.000000 14.313023 0.000003 -0.513406 0.000000 0.000000
    3 -0.000011 13.013483 -0.000005 -0.355825 0.283191 -0.054734
    4 8.648438 0.000002 3.736328 -1.465981 0.292075 2.445211
    5 0.000000 -14.313034 0.000000 0.000000 0.000000 0.000000
    6 -0.000004 -13.013485 -0.000004 0.920551 0.163672 2.520947
    7 -1.330879 -2.698427 0.462449 -0.194886 -0.547260 3.056712
    8 1.330910 2.698444 -0.462436 0.194890 0.547268 -0.084879
    9 1.186523 5.542969 -1.857422 -1.369523 0.272265 -0.038129
    10 1.106445 12.492188 -3.097656 -2.092381 -0.272298 3.103442
    11 -1.486328 1.664063 -11.968750 0.514784 0.295216 -0.297477
    12 0.706543 8.585938 -3.654297 -1.589811 0.272264 -0.038126
    13 19.953125 -11.585938 5.781250 -1.285310 0.960381 0.216270
    14 6.566406 8.640625 3.232422 -1.090396 0.577049 -0.321829
    15 7.558525 6.997282 -2.354134 -1.937336 -0.275393 3.010581
    16 7.558525 6.997282 -2.354134 1.937336 0.275393 -0.131011
    17 -2.867767 -2.740969 0.531125 2.051196 0.577049 -0.321829
    18 1.106445 12.492188 -3.097656 -1.772050 -0.272302 3.103433
    19 20.012970 -41.736837 -10.590250 1.155541 0.298854 -0.263634
    20 1.339844 7.750000 -1.613281 -1.369523 0.272265 -0.038129
    21 4.777344 6.027344 1.897461 -1.090396 0.577049 -0.321829
    22 5.484375 7.066406 2.427734 -1.090396 0.577049 -0.321829
    23 7.537933 7.453606 1.870349 -1.090396 0.577049 -0.321829
    24 8.154472 8.357077 2.329839 -1.090396 0.577049 -0.321829
    25 8.874294 9.411907 2.866308 -1.090396 0.577049 -0.321829
    26 -4.125858 -2.321501 1.394414 2.051196 0.577049 -0.321829
    27 -4.826813 -3.348669 0.872014 2.051196 0.577049 -0.321829
    28 -5.441669 -4.249685 0.413772 2.051196 0.577049 -0.321829
    29 -0.552532 -1.343527 1.604446 -0.415180 0.312114 -0.422073
    30 0.552589 1.343534 -1.604463 -0.465990 -0.876595 -0.438945
    31 0.000000 -2.021618 -0.000004 0.186809 0.000000 0.000000
    32 -0.000021 2.021633 0.000027 0.824136 0.000000 0.000000
    33 -0.000004 -1.136217 -0.000004 -0.210111 0.000000 0.000000
    34 -0.000011 1.136200 -0.000019 -0.096334 0.000000 0.000000
    35 -0.032677 -4.587727 1.352317 2.844703 1.216154 2.484990
    36 0.032719 4.587772 -1.352291 2.575584 1.208663 2.466389
    37 0.000000 -1.754536 -0.000002 0.662896 0.000000 0.000000
    38 -0.000006 1.754520 -0.000034 0.321814 0.000000 0.000000
    39 0.000000 -1.227020 -0.000002 0.092660 0.000000 0.000000
    40 0.000002 1.227070 0.000032 0.460562 0.000000 0.000000
    41 -0.367996 -4.208406 0.173244 2.943027 1.091688 2.536231
    42 0.368011 4.208412 -0.173239 2.581893 1.052111 2.159298
    43 0.000000 -2.372318 -0.000004 0.722081 0.000000 0.000000
    44 -0.000006 2.372318 -0.000032 1.885942 0.000000 0.000000
    45 0.000004 -1.580070 -0.000001 0.034255 0.000000 0.000000
    46 -0.000002 1.580170 0.000030 0.602823 0.000000 0.000000
    47 -0.937645 -3.860697 -0.959317 3.044205 1.001841 2.581100
    48 0.937672 3.860714 0.959333 2.709721 0.800474 2.318766
    49 0.000000 -1.690632 0.000000 0.491549 0.000000 0.000000
    50 -0.000013 1.690666 0.000021 1.759133 0.000000 0.000000
    51 -0.000002 -1.423443 0.000002 0.234212 0.000000 0.000000
    52 0.000008 1.423420 0.000028 0.817068 0.000000 0.000000
    53 -1.546646 -3.404194 -1.915569 3.024293 0.944156 2.514436
    54 1.546661 3.404217 1.915585 -3.027008 0.615476 2.392694
    55 0.000004 -1.437820 0.000000 0.424958 0.000000 0.000000
    56 -0.000021 1.437870 0.000031 1.336724 0.000000 0.000000
    57 -0.000002 -1.059402 0.000000 0.322075 0.000000 0.000000
    58 0.000006 1.059372 0.000008 0.795881 0.000000 0.000000
    59 -0.000004 -13.013485 -0.000004 0.010936 -0.284121 -0.076428
    60 0.161133 -10.812500 0.023087 0.010936 -0.284121 -0.076428
  time 22
    0 -0.024506 -3.468750 -0.000151 -1.559900 -0.000006 -0.000006
    1 -8.653000 -0.001747 3.740445 -1.009065 -0.089544 0.502386
    2 0.000000 14.313023 0.000003 -0.513406 0.000000 0.000000
    3 -0.000011 13.013483 -0.000005 -0.350092 0.281399 -0.057322
    4 8.648438 0.000002 3.736328 -1.465981 0.292075 2.445211
    5 0.000000 -14.313034 0.000000 0.000000 0.000000 0.000000
    6 -0.000004 -13.013485 -0.000004 0.920551 0.163672 2.520947
    7 -1.330879 -2.698427 0.462449 -0.194886 -0.547260 3.056712
    8 1.330910 2.698444 -0.462436 0.194890 0.547268 -0.084879
    9 1.186523 5.542969 -1.857422 -1.369523 0.272265 -0.038129
    10 1.106445 12.492188 -3.097656 -2.092381 -0.272298 3.103442
    11 -1.486328 1.664063 -11.968750 0.514784 0.295216 -0.297477
    12 0.706543 8.585938 -3.654297 -1.589811 0.272264 -0.038126
    13 19.953125 -11.585938 5.781250 -1.285310 0.960381 0.216270
    14 6.566406 8.640625 3.232422 -1.090396 0.577049 -0.321829
    15 7.558525 6.997282 -2.354134 -1.937336 -0.275393 3.010581
    16 7.558525 6.997282 -2.354134 1.937336 0.275393 -0.131011
    17 -2.867767 -2.740969 0.531125 2.051196 0.577049 -0.321829
    18 1.106445 12.492188 -3.097656 -1.772050 -0.272302 3.103433
    19 20.126255 -41.748556 -10.336336 1.148712 0.298000 -0.262675
    20 1.339844 7.750000 -1.613281 -1.369523 0.272265 -0.038129
    21 4.777344 6.027344 1.897461 -1.090396 0.577049 -0.321829
    22 5.484375 7.066406 2.427734 -1.090396 0.577049 -0.321829
    23 7.537933 7.453606 1.870349 -1.090396 0.577049 -0.321829
    24 8.154472 8.357077 2.329839 -1.090396 0.577049 -0.321829
    25 8.874294 9.411907 2.866308 -1.090396 0.577049 -0.321829
    26 -4.125858 -2.321501 1.394414 2.051196 0.577049 -0.321829
    27 -4.826813 -3.348669 0.872014 2.051196 0.577049 -0.321829
    28 -5.441669 -4.249685 0.413772 2.051196 0.577049 -0.321829
    29 -0.552532 -1.343527 1.604446 -0.415180 0.312114 -0.422073
    30 0.552589 1.343534 -1.604463 -0.465990 -0.876595 -0.438945
    31 0.000000 -2.021618 -0.000004 0.186809 0.000000 0.000000
    32 -0.000021 2.021633 0.000027 0.824136 0.000000 0.000000
    33 -0.000004 -1.136217 -0.000004 -0.210111 0.000000 0.000000
    34 -0.000011 1.136200 -0.000019 -0.096334 0.000000 0.000000
    35 -0.032677 -4.587727 1.352317 2.844703 1.216154 2.484990
    36 0.032719 4.587772 -1.352291 2.575584 1.208663 2.466389
    37 0.000000 -1.754536 -0.000002 0.662896 0.000000 0.000000
    38 -0.000006 1.754520 -0.000034 0.321814 0.000000 0.000000
    39 0.000000 -1.227020 -0.000002 0.092660 0.000000 0.000000
    40 0.000002 1.227070 0.000032 0.460562 0.000000 0.000000
    41 -0.367996 -4.208406 0.173244 2.943027 1.091688 2.536231
    42 0.368011 4.208412 -0.173239 2.581893 1.052111 2.159298
    43 0.000000 -2.372318 -0.000004 0.722081 0.000000 0.000000
    44 -0.000006 2.372318 -0.000032 1.885942 0.000000 0.000000
    45 0.000004 -1.580070 -0.000001 0.034255 0.000000 0.000000
    46 -0.000002 1.580170 0.000030 0.602823 0.000000 0.000000
    47 -0.937645 -3.860697 -0.959317 3.044205 1.001841 2.581100
    48 0.937672 3.860714 0.959333 2.709721 0.800474 2.318766
    49 0.000000 -1.690632 0.000000 0.491549 0.000000 0.000000
    50 -0.000013 1.690666 0.000021 1.759133 0.000000 0.000000
    51 -0.000002 -1.423443 0.000002 0.234212 0.000000 0.000000
    52 0.000008 1.423420 0.000028 0.817068 0.000000 0.000000
    53 -1.546646 -3.404194 -1.915569 3.024293 0.944156 2.514436
    54 1.546661 3.404217 1.915585 -3.027008 0.615476 2.392694
    55 0.000004 -1.437820 0.000000 0.424958 0.000000 0.000000
    56 -0.000021 1.437870 0.000031 1.336724 0.000000 0.000000
    57 -0.000002 -1.059402 0.000000 0.322075 0.000000 0.000000
    58 0.000006 1.059372 0.000008 0.795881 0.000000 0.000000
    59 -0.000004 -13.013485 -0.000004 0.010936 -0.284121 -0.076428
    60 0.161133 -10.812500 0.023087 0.010936 -0.284121 -0.076428
  time 23
    0 -0.024506 -3.468750 -0.000151 -1.559900 -0.000006 -0.000006
    1 -8.653000 -0.001747 3.740445 -1.009065 -0.089544 0.502386
    2 0.000000 14.313023 0.000003 -0.513406 0.000000 0.000000
    3 -0.000011 13.013483 -0.000005 -0.346079 0.280031 -0.059431
    4 8.648438 0.000002 3.736328 -1.465981 0.292075 2.445211
    5 0.000000 -14.313034 0.000000 0.000000 0.000000 0.000000
    6 -0.000004 -13.013485 -0.000004 0.920551 0.163672 2.520947
    7 -1.330879 -2.698427 0.462449 -0.194886 -0.547260 3.056712
    8 1.330910 2.698444 -0.462436 0.194890 0.547268 -0.084879
    9 1.186523 5.542969 -1.857422 -1.369523 0.272265 -0.038129
    10 1.106445 12.492188 -3.097656 -2.092381 -0.272298 3.103442
    11 -1.486328 1.664063 -11.968750 0.514784 0.295216 -0.297477
    12 0.706543 8.585938 -3.654297 -1.589811 0.272264 -0.038126
    13 19.953125 -11.585938 5.781250 -1.285310 0.960381 0.216270
    14 6.566406 8.640625 3.232422 -1.090396 0.577049 -0.321829
    15 7.558525 6.997282 -2.354134 -1.937336 -0.275393 3.010581
    16 7.558525 6.997282 -2.354134 1.937336 0.275393 -0.131011
    17 -2.867767 -2.740969 0.531125 2.051196 0.577049 -0.321829
    18 1.106445 12.492188 -3.097656 -1.772050 -0.272302 3.103433
    19 20.223914 -41.744650 -10.152736 1.143971 0.297267 -0.261717
    20 1.339844 7.750000 -1.613281 -1.369523 0.272265 -0.038129
    21 4.777344 6.027344 1.897461 -1.090396 0.577049 -0.321829
    22 5.484375 7.066406 2.427734 -1.090396 0.577049 -0.321829
    23 7.537933 7.453606 1.870349 -1.090396 0.577049 -0.321829
    24 8.154472 8.357077 2.329839 -1.090396 0.577049 -0.321829
    25 8.874294 9.411907 2.866308 -1.090396 0.577049 -0.321829
    26 -4.125858 -2.321501 1.394414 2.051196 0.577049 -0.321829
    27 -4.826813 -3.348669 0.872014 2.051196 0.577049 -0.321829
    28 -5.441669 -4.249685 0.413772 2.051196 0.577049 -0.321829
    29 -0.552532 -1.343527 1.604446 -0.415180 0.312114 -0.422073
    30 0.552589 1.343534 -1.604463 -0.465990 -0.876595 -0.438945
    31 0.000000 -2.021618 -0.000004 0.186809 0.000000 0.000000
    32 -0.000021 2.021633 0.000027 0.824136 0.000000 0.000000
    33 -0.000004 -1.136217 -0.000004 -0.210111 0.000000 0.000000
    34 -0.000011 1.136200 -0.000019 -0.096334 0.000000 0.000000
    35 -0.032677 -4.587727 1.352317 2.844703 1.216154 2.484990
    36 0.032719 4.587772 -1.352291 2.575584 1.208663 2.466389
    37 0.000000 -1.754536 -0.000002 0.662896 0.000000 0.000000
    38 -0.000006 1.754520 -0.000034 0.321814 0.000000 0.000000
    39 0.000000 -1.227020 -0.000002 0.092660 0.000000 0.000000
    40 0.000002 1.227070 0.000032 0.460562 0.000000 0.000000
    41 -0.367996 -4.208406 0.173244 2.943027 1.091688 2.536231
    42 0.368011 4.208412 -0.173239 2.581893 1.052111 2.159298
    43 0.000000 -2.372318 -0.000004 0.722081 0.000000 0.000000
    44 -0.000006 2.372318 -0.000032 1.885942 0.000000 0.000000
    45 0.000004 -1.580070 -0.000001 0.034255 0.000000 0.000000
    46 -0.000002 1.580170 0.000030 0.602823 0.000000 0.000000
    47 -0.937645 -3.860697 -0.959317 3.044205 1.001841 2.581100
    48 0.937672 3.860714 0.959333 2.709721 0.800474 2.318766
    49 0.000000 -1.690632 0.000000 0.491549 0.000000 0.000000
    50 -0.000013 1.690666 0.000021 1.759133 0.000000 0.000000
    51 -0.000002 -1.423443 0.000002 0.234212 0.000000 0.000000
    52 0.000008 1.423420 0.000028 0.817068 0.000000 0.000000
    53 -1.546646 -3.404194 -1.915569 3.024293 0.944156 2.514436
    54 1.546661 3.404217 1.915585 -3.027008 0.615476 2.392694
    55 0.000004 -1.437820 0.000000 0.424958 0.000000 0.000000
    56 -0.000021 1.437870 0.000031 1.336724 0.000000 0.000000
    57 -0.000002 -1.059402 0.000000 0.322075 0.000000 0.000000
    58 0.000006 1.059372 0.000008 0.795881 0.000000 0.000000
    59 -0.000004 -13.013485 -0.000004 0.010936 -0.284121 -0.076428
    60 0.161133 -10.812500 0.023087 0.010936 -0.284121 -0.076428
  time 24
    0 -0.024506 -3.468750 -0.000151 -1.559900 -0.000006 -0.000006
    1 -8.653000 -0.001747 3.740445 -1.009065 -0.089544 0.502386
    2 0.000000 14.313023 0.000003 -0.513406 0.000000 0.000000
    3 -0.000011 13.013483 -0.000005 -0.344646 0.279182 -0.060773
    4 8.648438 0.000002 3.736328 -1.465981 0.292075 2.445211
    5 0.000000 -14.313034 0.000000 0.000000 0.000000 0.000000
    6 -0.000004 -13.013485 -0.000004 0.920551 0.163672 2.520947
    7 -1.330879 -2.698427 0.462449 -0.194886 -0.547260 3.056712
    8 1.330910 2.698444 -0.462436 0.194890 0.547268 -0.084879
    9 1.186523 5.542969 -1.857422 -1.369523 0.272265 -0.038129
    10 1.106445 12.492188 -3.097656 -2.092381 -0.272298 3.103442
    11 -1.486328 1.664063 -11.968750 0.514784 0.295216 -0.297477
    12 0.706543 8.585938 -3.654297 -1.589811 0.272264 -0.038126
    13 19.953125 -11.585938 5.781250 -1.285310 0.960381 0.216270
    14 6.566406 8.640625 3.232422 -1.090396 0.577049 -0.321829
    15 7.558525 6.997282 -2.354134 -1.937336 -0.275393 3.010581
    16 7.558525 6.997282 -2.354134 1.937336 0.275393 -0.131011
    17 -2.867767 -2.740969 0.531125 2.051196 0.577049 -0.321829
    18 1.106445 12.492188 -3.097656 -1.772050 -0.272302 3.103433
    19 20.282509 -41.732931 -10.090234 1.142074 0.297145 -0.260758
    20 1.339844 7.750000 -1.613281 -1.369523 0.272265 -0.038129
    21 4.777344 6.027344 1.897461 -1.090396 0.577049 -0.321829
    22 5.484375 7.066406 2.427734 -1.090396 0.577049 -0.321829
    23 7.537933 7.453606 1.870349 -1.090396 0.577049 -0.321829
    24 8.154472 8.357077 2.329839 -1.090396 0.577049 -0.321829
    25 8.874294 9.411907 2.866308 -1.090396 0.577049 -0.321829
    26 -4.125858 -2.321501 1.394414 2.051196 0.577049 -0.321829
    27 -4.826813 -3.348669 0.872014 2.051196 0.577049 -0.321829
    28 -5.441669 -4.249685 0.413772 2.051196 0.577049 -0.321829
    29 -0.552532 -1.343527 1.604446 -0.415180 0.312114 -0.422073
    30 0.552589 1.343534 -1.604463 -0.465990 -0.876595 -0.438945
    31 0.000000 -2.021618 -0.000004 0.186809 0.000000 0.000000
    32 -0.000021 2.021633 0.000027 0.824136 0.000000 0.000000
    33 -0.000004 -1.136217 -0.000004 -0.210111 0.000000 0.000000
    34 -0.000011 1.136200 -0.000019 -0.096334 0.000000 0.000000
    35 -0.032677 -4.587727 1.352317 2.844703 1.216154 2.484990
    36 0.032719 4.587772 -1.352291 2.575584 1.208663 2.466389
    37 0.000000 -1.754536 -0.000002 0.662896 0.000000 0.000000
    38 -0.000006 1.754520 -0.000034 0.321814 0.000000 0.000000
    39 0.000000 -1.227020 -0.000002 0.092660 0.000000 0.000000
    40 0.000002 1.227070 0.000032 0.460562 0.000000 0.000000
    41 -0.367996 -4.208406 0.173244 2.943027 1.091688 2.536231
    42 0.368011 4.208412 -0.173239 2.581893 1.052111 2.159298
    43 0.000000 -2.372318 -0.000004 0.722081 0.000000 0.000000
    44 -0.000006 2.372318 -0.000032 1.885942 0.000000 0.000000
    45 0.000004 -1.580070 -0.000001 0.034255 0.000000 0.000000
    46 -0.000002 1.580170 0.000030 0.602823 0.000000 0.000000
    47 -0.937645 -3.860697 -0.959317 3.044205 1.001841 2.581100
    48 0.937672 3.860714 0.959333 2.709721 0.800474 2.318766
    49 0.000000 -1.690632 0.000000 0.491549 0.000000 0.000000
    50 -0.000013 1.690666 0.000021 1.759133 0.000000 0.000000
    51 -0.000002 -1.423443 0.000002 0.234212 0.000000 0.000000
    52 0.000008 1.423420 0.000028 0.817068 0.000000 0.000000
    53 -1.546646 -3.404194 -1.915569 3.024293 0.944156 2.514436
    54 1.546661 3.404217 1.915585 -3.027008 0.615476 2.392694
    55 0.000004 -1.437820 0.000000 0.424958 0.000000 0.000000
    56 -0.000021 1.437870 0.000031 1.336724 0.000000 0.000000
    57 -0.000002 -1.059402 0.000000 0.322075 0.000000 0.000000
    58 0.000006 1.059372 0.000008 0.795881 0.000000 0.000000
    59 -0.000004 -13.013485 -0.000004 0.010936 -0.284121 -0.076428
    60 0.161133 -10.812500 0.023087 0.010936 -0.284121 -0.076428
end
