// Created by Crowbar 0.74
version 1
nodes
  0 "root" -1
  1 "bip_upperArm_R" 0
  2 "bip_lowerArm_R" 1
  3 "bip_hand_R" 2
  4 "bip_upperArm_L" 0
  5 "bip_lowerArm_L" 4
  6 "bip_hand_L" 5
  7 "effect_hand_L" 6
  8 "effect_hand_R" 3
  9 "weapon_bone" 3
  10 "weapon_bone_1" 3
  11 "weapon_bone_2" 3
  12 "weapon_bone_3" 3
  13 "weapon_bone_4" 3
  14 "weapon_bone_5" 3
  15 "weapon_bone_6" 3
  16 "weapon_bone_7" 3
  17 "weapon_bone_L" 6
  18 "vm_weapon_bone" 3
  19 "vm_weapon_bone_1" 3
  20 "vm_weapon_bone_2" 3
  21 "vm_weapon_bone_3" 3
  22 "vm_weapon_bone_4" 3
  23 "vm_weapon_bone_5" 3
  24 "vm_weapon_bone_6" 3
  25 "vm_weapon_bone_7" 3
  26 "vm_weapon_bone_L" 6
  27 "vm_weapon_bone_L_1" 6
  28 "vm_weapon_bone_L_2" 6
  29 "bip_thumb_0_L" 6
  30 "bip_thumb_0_R" 3
  31 "bip_thumb_1_L" 29
  32 "bip_thumb_1_R" 30
  33 "bip_thumb_2_L" 31
  34 "bip_thumb_2_R" 32
  35 "bip_index_0_L" 6
  36 "bip_index_0_R" 3
  37 "bip_index_1_L" 35
  38 "bip_index_1_R" 36
  39 "bip_index_2_L" 37
  40 "bip_index_2_R" 38
  41 "bip_middle_0_L" 6
  42 "bip_middle_0_R" 3
  43 "bip_middle_1_L" 41
  44 "bip_middle_1_R" 42
  45 "bip_middle_2_L" 43
  46 "bip_middle_2_R" 44
  47 "bip_ring_0_L" 6
  48 "bip_ring_0_R" 3
  49 "bip_ring_1_L" 47
  50 "bip_ring_1_R" 48
  51 "bip_ring_2_L" 49
  52 "bip_ring_2_R" 50
  53 "bip_pinky_0_L" 6
  54 "bip_pinky_0_R" 3
  55 "bip_pinky_1_L" 53
  56 "bip_pinky_1_R" 54
  57 "bip_pinky_2_L" 55
  58 "bip_pinky_2_R" 56
  59 "Sleeve_Control" 5
  60 "Wrist_Control" 5
end
skeleton
  time 0
    0 -0.024506 -3.468750 -0.000151 -1.559900 -0.000006 -0.000006
    1 -8.653000 -0.001747 3.740445 -1.009065 -0.089544 0.502386
    2 0.000000 14.313023 0.000003 -0.513406 0.000000 0.000000
    3 -0.000011 13.013483 -0.000005 -0.344646 0.279182 -0.060773
    4 8.648438 0.000002 3.736328 -1.465981 0.292075 2.445211
    5 0.000000 -14.313034 0.000000 0.000000 0.000000 0.000000
    6 -0.000004 -13.013485 -0.000004 0.920551 0.163672 2.520947
    7 -1.330879 -2.698427 0.462449 -0.194886 -0.547260 3.056712
    8 1.330910 2.698444 -0.462436 0.194890 0.547268 -0.084879
    9 1.186523 5.542969 -1.857422 -1.369523 0.272265 -0.038129
    10 1.105469 12.500000 -3.097656 -2.092378 -0.272303 3.103440
    11 -1.485352 1.665039 -11.968750 0.514784 0.295216 -0.297477
    12 0.707031 8.593750 -3.654297 -1.589811 0.272264 -0.038126
    13 19.953125 -11.593750 5.781250 -1.285309 0.960384 0.216275
    14 6.562500 8.648438 3.232422 -1.090396 0.577049 -0.321829
    15 7.558525 6.997282 -2.354134 -1.937336 -0.275393 3.010581
    16 7.558525 6.997282 -2.354134 1.937336 0.275393 -0.131011
    17 -2.867767 -2.740969 0.531125 2.051196 0.577049 -0.321829
    18 1.109140 12.506018 -3.095268 -1.771925 -0.272171 -3.179539
    19 20.282509 -41.732931 -10.090234 1.142074 0.297145 -0.260758
    20 1.341450 7.751752 -1.608638 -1.369379 0.272317 -0.038277
    21 4.777344 6.027344 1.897461 -1.090396 0.577049 -0.321829
    22 5.484375 7.070313 2.427734 -1.090396 0.577049 -0.321829
    23 7.537933 7.453606 1.870349 -1.090396 0.577049 -0.321829
    24 8.154472 8.357077 2.329839 -1.090396 0.577049 -0.321829
    25 8.874294 9.411907 2.866308 -1.090396 0.577049 -0.321829
    26 -4.125858 -2.321501 1.394414 2.051196 0.577049 -0.321829
    27 -4.826813 -3.348669 0.872014 2.051196 0.577049 -0.321829
    28 -5.441669 -4.249685 0.413772 2.051196 0.577049 -0.321829
    29 -0.552532 -1.343527 1.604446 -0.415180 0.312114 -0.422073
    30 0.552589 1.343534 -1.604463 -0.465990 -0.876593 -0.438946
    31 0.000000 -2.021618 -0.000004 0.186809 0.000000 0.000000
    32 -0.000021 2.021633 0.000027 0.824136 0.000000 0.000000
    33 -0.000004 -1.136217 -0.000004 -0.210111 0.000000 0.000000
    34 -0.000011 1.136200 -0.000019 -0.096334 0.000000 0.000000
    35 -0.032677 -4.587727 1.352317 2.844703 1.216154 2.484990
    36 0.032719 4.587772 -1.352291 2.575668 1.208657 2.466410
    37 0.000000 -1.754536 -0.000002 0.662896 0.000000 0.000000
    38 -0.000006 1.754520 -0.000034 0.321833 0.000000 0.000000
    39 0.000000 -1.227020 -0.000002 0.092660 0.000000 0.000000
    40 0.000002 1.227070 0.000032 0.460504 0.000000 0.000000
    41 -0.367996 -4.208406 0.173244 2.943027 1.091688 2.536231
    42 0.368011 4.208412 -0.173239 2.581893 1.052111 2.159298
    43 0.000000 -2.372318 -0.000004 0.722081 0.000000 0.000000
    44 -0.000006 2.372318 -0.000032 1.885942 0.000000 0.000000
    45 0.000004 -1.580070 -0.000001 0.034255 0.000000 0.000000
    46 -0.000002 1.580170 0.000030 0.602825 0.000000 0.000000
    47 -0.937645 -3.860697 -0.959317 3.044205 1.001841 2.581100
    48 0.937672 3.860714 0.959333 2.709723 0.800473 2.318765
    49 0.000000 -1.690632 0.000000 0.491549 0.000000 0.000000
    50 -0.000013 1.690666 0.000021 1.759133 0.000000 0.000000
    51 -0.000002 -1.423443 0.000002 0.234212 0.000000 0.000000
    52 0.000008 1.423420 0.000028 0.817068 0.000000 0.000000
    53 -1.546646 -3.404194 -1.915569 3.024293 0.944156 2.514436
    54 1.546661 3.404217 1.915585 -3.027006 0.615473 2.392693
    55 0.000004 -1.437820 0.000000 0.424958 0.000000 0.000000
    56 -0.000021 1.437870 0.000031 1.336724 0.000000 0.000000
    57 -0.000002 -1.059402 0.000000 0.322075 0.000000 0.000000
    58 0.000006 1.059372 0.000008 0.795881 0.000000 0.000000
    59 -0.000004 -13.013485 -0.000004 0.010936 -0.284121 -0.076428
    60 0.161133 -10.812500 0.023087 0.010936 -0.284121 -0.076428
  time 1
    0 -0.024506 -3.468750 -0.000151 -1.559900 -0.000006 -0.000006
    1 -8.653000 -0.001747 3.740445 -0.785149 -0.092453 0.500858
    2 0.000000 14.313023 0.000003 -0.957100 0.000000 0.000000
    3 -0.000011 13.013483 -0.000005 -0.463223 0.313944 0.151932
    4 8.648438 0.000002 3.736328 -1.465981 0.292075 2.445211
    5 0.000000 -14.313034 0.000000 0.000000 0.000000 0.000000
    6 -0.000004 -13.013485 -0.000004 0.920551 0.163672 2.520947
    7 -1.330879 -2.698427 0.462449 -0.194886 -0.547260 3.056712
    8 1.330910 2.698444 -0.462436 0.194890 0.547268 -0.084879
    9 1.186523 5.542969 -1.857422 -1.369523 0.272265 -0.038129
    10 1.105469 12.500000 -3.097656 -2.092378 -0.272303 3.103440
    11 -1.485352 1.665039 -11.968750 0.514784 0.295216 -0.297477
    12 0.707031 8.593750 -3.654297 -1.589811 0.272264 -0.038126
    13 19.953125 -11.593750 5.781250 -1.285309 0.960384 0.216275
    14 6.562500 8.648438 3.232422 -1.090396 0.577049 -0.321829
    15 7.558525 6.997282 -2.354134 -1.937336 -0.275393 3.010581
    16 7.558525 6.997282 -2.354134 1.937336 0.275393 -0.131011
    17 -2.867767 -2.740969 0.531125 2.051196 0.577049 -0.321829
    18 1.109140 12.502112 -3.095268 -1.755184 -0.272171 -3.179539
    19 14.333109 -35.623369 -24.282074 1.540106 0.410828 -0.266414
    20 1.341450 7.751752 -1.608638 -0.762458 0.272317 -0.038277
    21 4.777344 6.027344 1.897461 -1.090396 0.577049 -0.321829
    22 5.484375 7.070313 2.427734 -1.090396 0.577049 -0.321829
    23 7.537933 7.453606 1.870349 -1.090396 0.577049 -0.321829
    24 8.154472 8.357077 2.329839 -1.090396 0.577049 -0.321829
    25 8.874294 9.411907 2.866308 -1.090396 0.577049 -0.321829
    26 -4.125858 -2.321501 1.394414 2.051196 0.577049 -0.321829
    27 -4.826813 -3.348669 0.872014 2.051196 0.577049 -0.321829
    28 -5.441669 -4.249685 0.413772 2.051196 0.577049 -0.321829
    29 -0.552532 -1.343527 1.604446 -0.415180 0.312114 -0.422073
    30 0.552589 1.343534 -1.604463 -0.465990 -0.876593 -0.438946
    31 0.000000 -2.021618 -0.000004 0.186809 0.000000 0.000000
    32 -0.000021 2.021633 0.000027 0.824136 0.000000 0.000000
    33 -0.000004 -1.136217 -0.000004 -0.210111 0.000000 0.000000
    34 -0.000011 1.136200 -0.000019 -0.096334 0.000000 0.000000
    35 -0.032677 -4.587727 1.352317 2.844703 1.216154 2.484990
    36 0.032719 4.587772 -1.352291 2.376171 1.208657 2.466410
    37 0.000000 -1.754536 -0.000002 0.662896 0.000000 0.000000
    38 -0.000006 1.754520 -0.000034 0.405194 0.000000 0.000000
    39 0.000000 -1.227020 -0.000002 0.092660 0.000000 0.000000
    40 0.000002 1.227070 0.000032 1.489083 0.000000 0.000000
    41 -0.367996 -4.208406 0.173244 2.943027 1.091688 2.536231
    42 0.368011 4.208412 -0.173239 2.581893 1.052111 2.159298
    43 0.000000 -2.372318 -0.000004 0.722081 0.000000 0.000000
    44 -0.000006 2.372318 -0.000032 1.885942 0.000000 0.000000
    45 0.000004 -1.580070 -0.000001 0.034255 0.000000 0.000000
    46 -0.000002 1.580170 0.000030 0.602825 0.000000 0.000000
    47 -0.937645 -3.860697 -0.959317 3.044205 1.001841 2.581100
    48 0.937672 3.860714 0.959333 2.709723 0.800473 2.318765
    49 0.000000 -1.690632 0.000000 0.491549 0.000000 0.000000
    50 -0.000013 1.690666 0.000021 1.759133 0.000000 0.000000
    51 -0.000002 -1.423443 0.000002 0.234212 0.000000 0.000000
    52 0.000008 1.423420 0.000028 0.817068 0.000000 0.000000
    53 -1.546646 -3.404194 -1.915569 3.024293 0.944156 2.514436
    54 1.546661 3.404217 1.915585 -3.027006 0.615473 2.392693
    55 0.000004 -1.437820 0.000000 0.424958 0.000000 0.000000
    56 -0.000021 1.437870 0.000031 1.336724 0.000000 0.000000
    57 -0.000002 -1.059402 0.000000 0.322075 0.000000 0.000000
    58 0.000006 1.059372 0.000008 0.795881 0.000000 0.000000
    59 -0.000004 -13.013485 -0.000004 0.010936 -0.284121 -0.076428
    60 0.161133 -10.812500 0.023087 0.010936 -0.284121 -0.076428
  time 2
    0 -0.024506 -3.468750 -0.000151 -1.559900 -0.000006 -0.000006
    1 -8.653000 -0.001747 3.740445 -0.773170 -0.091690 0.501317
    2 0.000000 14.313023 0.000003 -0.984167 0.000000 0.000000
    3 -0.000011 13.013483 -0.000005 -0.462171 0.312057 0.155862
    4 8.648438 0.000002 3.736328 -1.465981 0.292075 2.445211
    5 0.000000 -14.313034 0.000000 0.000000 0.000000 0.000000
    6 -0.000004 -13.013485 -0.000004 0.920551 0.163672 2.520947
    7 -1.330879 -2.698427 0.462449 -0.194886 -0.547260 3.056712
    8 1.330910 2.698444 -0.462436 0.194890 0.547268 -0.084879
    9 1.186523 5.542969 -1.857422 -1.369523 0.272265 -0.038129
    10 1.105469 12.500000 -3.097656 -2.092378 -0.272303 3.103440
    11 -1.485352 1.665039 -11.968750 0.514784 0.295216 -0.297477
    12 0.707031 8.593750 -3.654297 -1.589811 0.272264 -0.038126
    13 19.953125 -11.593750 5.781250 -1.285309 0.960384 0.216275
    14 6.562500 8.648438 3.232422 -1.090396 0.577049 -0.321829
    15 7.558525 6.997282 -2.354134 -1.937336 -0.275393 3.010581
    16 7.558525 6.997282 -2.354134 1.937336 0.275393 -0.131011
    17 -2.867767 -2.740969 0.531125 2.051196 0.577049 -0.321829
    18 1.109140 12.506018 -3.091361 -1.768691 -0.272171 -3.179539
    19 14.352641 -35.189762 -24.645366 1.555470 0.414489 -0.259991
    20 1.341450 7.747845 -1.608638 -0.762458 0.272317 -0.038277
    21 4.777344 6.027344 1.897461 -1.090396 0.577049 -0.321829
    22 5.484375 7.070313 2.427734 -1.090396 0.577049 -0.321829
    23 7.537933 7.453606 1.870349 -1.090396 0.577049 -0.321829
    24 8.154472 8.357077 2.329839 -1.090396 0.577049 -0.321829
    25 8.874294 9.411907 2.866308 -1.090396 0.577049 -0.321829
    26 -4.125858 -2.321501 1.394414 2.051196 0.577049 -0.321829
    27 -4.826813 -3.348669 0.872014 2.051196 0.577049 -0.321829
    28 -5.441669 -4.249685 0.413772 2.051196 0.577049 -0.321829
    29 -0.552532 -1.343527 1.604446 -0.415180 0.312114 -0.422073
    30 0.552589 1.343534 -1.604463 -0.465990 -0.876593 -0.438946
    31 0.000000 -2.021618 -0.000004 0.186809 0.000000 0.000000
    32 -0.000021 2.021633 0.000027 0.824136 0.000000 0.000000
    33 -0.000004 -1.136217 -0.000004 -0.210111 0.000000 0.000000
    34 -0.000011 1.136200 -0.000019 -0.096334 0.000000 0.000000
    35 -0.032677 -4.587727 1.352317 2.844703 1.216154 2.484990
    36 0.032719 4.587772 -1.352291 2.376171 1.208657 2.466410
    37 0.000000 -1.754536 -0.000002 0.662896 0.000000 0.000000
    38 -0.000006 1.754520 -0.000034 0.405194 0.000000 0.000000
    39 0.000000 -1.227020 -0.000002 0.092660 0.000000 0.000000
    40 0.000002 1.227070 0.000032 1.489083 0.000000 0.000000
    41 -0.367996 -4.208406 0.173244 2.943027 1.091688 2.536231
    42 0.368011 4.208412 -0.173239 2.581893 1.052111 2.159298
    43 0.000000 -2.372318 -0.000004 0.722081 0.000000 0.000000
    44 -0.000006 2.372318 -0.000032 1.885942 0.000000 0.000000
    45 0.000004 -1.580070 -0.000001 0.034255 0.000000 0.000000
    46 -0.000002 1.580170 0.000030 0.602825 0.000000 0.000000
    47 -0.937645 -3.860697 -0.959317 3.044205 1.001841 2.581100
    48 0.937672 3.860714 0.959333 2.709723 0.800473 2.318765
    49 0.000000 -1.690632 0.000000 0.491549 0.000000 0.000000
    50 -0.000013 1.690666 0.000021 1.759133 0.000000 0.000000
    51 -0.000002 -1.423443 0.000002 0.234212 0.000000 0.000000
    52 0.000008 1.423420 0.000028 0.817068 0.000000 0.000000
    53 -1.546646 -3.404194 -1.915569 3.024293 0.944156 2.514436
    54 1.546661 3.404217 1.915585 -3.027006 0.615473 2.392693
    55 0.000004 -1.437820 0.000000 0.424958 0.000000 0.000000
    56 -0.000021 1.437870 0.000031 1.336724 0.000000 0.000000
    57 -0.000002 -1.059402 0.000000 0.322075 0.000000 0.000000
    58 0.000006 1.059372 0.000008 0.795881 0.000000 0.000000
    59 -0.000004 -13.013485 -0.000004 0.010936 -0.284121 -0.076428
    60 0.161133 -10.812500 0.023087 0.010936 -0.284121 -0.076428
  time 3
    0 -0.024506 -3.468750 -0.000151 -1.559900 -0.000006 -0.000006
    1 -8.653000 -0.001747 3.740445 -0.771511 -0.091928 0.501164
    2 0.000000 14.313023 0.000003 -0.986305 0.000000 0.000000
    3 -0.000011 13.013483 -0.000005 -0.412581 0.309227 0.145413
    4 8.648438 0.000002 3.736328 -1.465981 0.292075 2.445211
    5 0.000000 -14.313034 0.000000 0.000000 0.000000 0.000000
    6 -0.000004 -13.013485 -0.000004 0.920551 0.163672 2.520947
    7 -1.330879 -2.698427 0.462449 -0.194886 -0.547260 3.056712
    8 1.330910 2.698444 -0.462436 0.194890 0.547268 -0.084879
    9 1.186523 5.542969 -1.857422 -1.369523 0.272265 -0.038129
    10 1.105469 12.500000 -3.097656 -2.092378 -0.272303 3.103440
    11 -1.485352 1.665039 -11.968750 0.514784 0.295216 -0.297477
    12 0.707031 8.593750 -3.654297 -1.589811 0.272264 -0.038126
    13 19.953125 -11.593750 5.781250 -1.285309 0.960384 0.216275
    14 6.562500 8.648438 3.232422 -1.090396 0.577049 -0.321829
    15 7.558525 6.997282 -2.354134 -1.937336 -0.275393 3.010581
    16 7.558525 6.997282 -2.354134 1.937336 0.275393 -0.131011
    17 -2.867767 -2.740969 0.531125 2.051196 0.577049 -0.321829
    18 1.109140 12.506018 -3.091361 -1.782103 -0.272171 -3.179539
    19 14.770622 -36.252295 -22.746871 1.501223 0.398929 -0.270920
    20 1.341450 7.751752 -1.608638 -0.762458 0.272317 -0.038277
    21 4.777344 6.027344 1.897461 -1.090396 0.577049 -0.321829
    22 5.484375 7.070313 2.427734 -1.090396 0.577049 -0.321829
    23 7.537933 7.453606 1.870349 -1.090396 0.577049 -0.321829
    24 8.154472 8.357077 2.329839 -1.090396 0.577049 -0.321829
    25 8.874294 9.411907 2.866308 -1.090396 0.577049 -0.321829
    26 -4.125858 -2.321501 1.394414 2.051196 0.577049 -0.321829
    27 -4.826813 -3.348669 0.872014 2.051196 0.577049 -0.321829
    28 -5.441669 -4.249685 0.413772 2.051196 0.577049 -0.321829
    29 -0.552532 -1.343527 1.604446 -0.415180 0.312114 -0.422073
    30 0.552589 1.343534 -1.604463 -0.465990 -0.876593 -0.438946
    31 0.000000 -2.021618 -0.000004 0.186809 0.000000 0.000000
    32 -0.000021 2.021633 0.000027 0.824136 0.000000 0.000000
    33 -0.000004 -1.136217 -0.000004 -0.210111 0.000000 0.000000
    34 -0.000011 1.136200 -0.000019 -0.096334 0.000000 0.000000
    35 -0.032677 -4.587727 1.352317 2.844703 1.216154 2.484990
    36 0.032719 4.587772 -1.352291 2.376171 1.208657 2.466410
    37 0.000000 -1.754536 -0.000002 0.662896 0.000000 0.000000
    38 -0.000006 1.754520 -0.000034 0.405194 0.000000 0.000000
    39 0.000000 -1.227020 -0.000002 0.092660 0.000000 0.000000
    40 0.000002 1.227070 0.000032 1.489083 0.000000 0.000000
    41 -0.367996 -4.208406 0.173244 2.943027 1.091688 2.536231
    42 0.368011 4.208412 -0.173239 2.581893 1.052111 2.159298
    43 0.000000 -2.372318 -0.000004 0.722081 0.000000 0.000000
    44 -0.000006 2.372318 -0.000032 1.885942 0.000000 0.000000
    45 0.000004 -1.580070 -0.000001 0.034255 0.000000 0.000000
    46 -0.000002 1.580170 0.000030 0.602825 0.000000 0.000000
    47 -0.937645 -3.860697 -0.959317 3.044205 1.001841 2.581100
    48 0.937672 3.860714 0.959333 2.709723 0.800473 2.318765
    49 0.000000 -1.690632 0.000000 0.491549 0.000000 0.000000
    50 -0.000013 1.690666 0.000021 1.759133 0.000000 0.000000
    51 -0.000002 -1.423443 0.000002 0.234212 0.000000 0.000000
    52 0.000008 1.423420 0.000028 0.817068 0.000000 0.000000
    53 -1.546646 -3.404194 -1.915569 3.024293 0.944156 2.514436
    54 1.546661 3.404217 1.915585 -3.027006 0.615473 2.392693
    55 0.000004 -1.437820 0.000000 0.424958 0.000000 0.000000
    56 -0.000021 1.437870 0.000031 1.336724 0.000000 0.000000
    57 -0.000002 -1.059402 0.000000 0.322075 0.000000 0.000000
    58 0.000006 1.059372 0.000008 0.795881 0.000000 0.000000
    59 -0.000004 -13.013485 -0.000004 0.010936 -0.284121 -0.076428
    60 0.161133 -10.812500 0.023087 0.010936 -0.284121 -0.076428
  time 4
    0 -0.024506 -3.468750 -0.000151 -1.559900 -0.000006 -0.000006
    1 -8.653000 -0.001747 3.740445 -0.768470 -0.092548 0.500858
    2 0.000000 14.313023 0.000003 -0.989971 0.000000 0.000000
    3 -0.000011 13.013483 -0.000005 -0.367864 0.304935 0.129693
    4 8.648438 0.000002 3.736328 -1.465981 0.292075 2.445211
    5 0.000000 -14.313034 0.000000 0.000000 0.000000 0.000000
    6 -0.000004 -13.013485 -0.000004 0.920551 0.163672 2.520947
    7 -1.330879 -2.698427 0.462449 -0.194886 -0.547260 3.056712
    8 1.330910 2.698444 -0.462436 0.194890 0.547268 -0.084879
    9 1.186523 5.542969 -1.857422 -1.369523 0.272265 -0.038129
    10 1.105469 12.500000 -3.097656 -2.092378 -0.272303 3.103440
    11 -1.485352 1.665039 -11.968750 0.514784 0.295216 -0.297477
    12 0.707031 8.593750 -3.654297 -1.589811 0.272264 -0.038126
    13 19.953125 -11.593750 5.781250 -1.285309 0.960384 0.216275
    14 6.562500 8.648438 3.232422 -1.090396 0.577049 -0.321829
    15 7.558525 6.997282 -2.354134 -1.937336 -0.275393 3.010581
    16 7.558525 6.997282 -2.354134 1.937336 0.275393 -0.131011
    17 -2.867767 -2.740969 0.531125 2.051196 0.577049 -0.321829
    18 1.109140 12.506018 -3.091361 -1.774303 -0.272171 -3.179539
    19 15.407361 -37.045288 -20.910877 1.450674 0.383185 -0.274180
    20 1.341450 7.747845 -1.612544 -0.762458 0.272317 -0.038277
    21 4.777344 6.027344 1.897461 -1.090396 0.577049 -0.321829
    22 5.484375 7.070313 2.427734 -1.090396 0.577049 -0.321829
    23 7.537933 7.453606 1.870349 -1.090396 0.577049 -0.321829
    24 8.154472 8.357077 2.329839 -1.090396 0.577049 -0.321829
    25 8.874294 9.411907 2.866308 -1.090396 0.577049 -0.321829
    26 -4.125858 -2.321501 1.394414 2.051196 0.577049 -0.321829
    27 -4.826813 -3.348669 0.872014 2.051196 0.577049 -0.321829
    28 -5.441669 -4.249685 0.413772 2.051196 0.577049 -0.321829
    29 -0.552532 -1.343527 1.604446 -0.415180 0.312114 -0.422073
    30 0.552589 1.343534 -1.604463 -0.465990 -0.876593 -0.438946
    31 0.000000 -2.021618 -0.000004 0.186809 0.000000 0.000000
    32 -0.000021 2.021633 0.000027 0.824136 0.000000 0.000000
    33 -0.000004 -1.136217 -0.000004 -0.210111 0.000000 0.000000
    34 -0.000011 1.136200 -0.000019 -0.096334 0.000000 0.000000
    35 -0.032677 -4.587727 1.352317 2.844703 1.216154 2.484990
    36 0.032719 4.587772 -1.352291 2.390929 1.208657 2.466410
    37 0.000000 -1.754536 -0.000002 0.662896 0.000000 0.000000
    38 -0.000006 1.754520 -0.000034 0.399026 0.000000 0.000000
    39 0.000000 -1.227020 -0.000002 0.092660 0.000000 0.000000
    40 0.000002 1.227070 0.000032 1.412865 0.000000 0.000000
    41 -0.367996 -4.208406 0.173244 2.943027 1.091688 2.536231
    42 0.368011 4.208412 -0.173239 2.581893 1.052111 2.159298
    43 0.000000 -2.372318 -0.000004 0.722081 0.000000 0.000000
    44 -0.000006 2.372318 -0.000032 1.885942 0.000000 0.000000
    45 0.000004 -1.580070 -0.000001 0.034255 0.000000 0.000000
    46 -0.000002 1.580170 0.000030 0.602825 0.000000 0.000000
    47 -0.937645 -3.860697 -0.959317 3.044205 1.001841 2.581100
    48 0.937672 3.860714 0.959333 2.709723 0.800473 2.318765
    49 0.000000 -1.690632 0.000000 0.491549 0.000000 0.000000
    50 -0.000013 1.690666 0.000021 1.759133 0.000000 0.000000
    51 -0.000002 -1.423443 0.000002 0.234212 0.000000 0.000000
    52 0.000008 1.423420 0.000028 0.817068 0.000000 0.000000
    53 -1.546646 -3.404194 -1.915569 3.024293 0.944156 2.514436
    54 1.546661 3.404217 1.915585 -3.027006 0.615473 2.392693
    55 0.000004 -1.437820 0.000000 0.424958 0.000000 0.000000
    56 -0.000021 1.437870 0.000031 1.336724 0.000000 0.000000
    57 -0.000002 -1.059402 0.000000 0.322075 0.000000 0.000000
    58 0.000006 1.059372 0.000008 0.795881 0.000000 0.000000
    59 -0.000004 -13.013485 -0.000004 0.010936 -0.284121 -0.076428
    60 0.161133 -10.812500 0.023087 0.010936 -0.284121 -0.076428
  time 5
    0 -0.024506 -3.468750 -0.000151 -1.559900 -0.000006 -0.000006
    1 -8.653000 -0.001747 3.740445 -0.767825 -0.093168 0.500477
    2 0.000000 14.313023 0.000003 -0.988749 0.000000 0.000000
    3 -0.000011 13.013483 -0.000005 -0.318083 0.300124 0.109851
    4 8.648438 0.000002 3.736328 -1.465981 0.292075 2.445211
    5 0.000000 -14.313034 0.000000 0.000000 0.000000 0.000000
    6 -0.000004 -13.013485 -0.000004 0.920551 0.163672 2.520947
    7 -1.330879 -2.698427 0.462449 -0.194886 -0.547260 3.056712
    8 1.330910 2.698444 -0.462436 0.194890 0.547268 -0.084879
    9 1.186523 5.542969 -1.857422 -1.369523 0.272265 -0.038129
    10 1.105469 12.500000 -3.097656 -2.092378 -0.272303 3.103440
    11 -1.485352 1.665039 -11.968750 0.514784 0.295216 -0.297477
    12 0.707031 8.593750 -3.654297 -1.589811 0.272264 -0.038126
    13 19.953125 -11.593750 5.781250 -1.285309 0.960384 0.216275
    14 6.562500 8.648438 3.232422 -1.090396 0.577049 -0.321829
    15 7.558525 6.997282 -2.354134 -1.937336 -0.275393 3.010581
    16 7.558525 6.997282 -2.354134 1.937336 0.275393 -0.131011
    17 -2.867767 -2.740969 0.531125 2.051196 0.577049 -0.321829
    18 1.109140 12.506018 -3.095268 -1.766599 -0.272171 -3.179539
    19 16.165196 -37.857812 -18.742842 1.391686 0.365611 -0.276385
    20 1.341450 7.747845 -1.608638 -0.720688 0.272317 -0.038277
    21 4.777344 6.027344 1.897461 -1.090396 0.577049 -0.321829
    22 5.484375 7.070313 2.427734 -1.090396 0.577049 -0.321829
    23 7.537933 7.453606 1.870349 -1.090396 0.577049 -0.321829
    24 8.154472 8.357077 2.329839 -1.090396 0.577049 -0.321829
    25 8.874294 9.411907 2.866308 -1.090396 0.577049 -0.321829
    26 -4.125858 -2.321501 1.394414 2.051196 0.577049 -0.321829
    27 -4.826813 -3.348669 0.872014 2.051196 0.577049 -0.321829
    28 -5.441669 -4.249685 0.413772 2.051196 0.577049 -0.321829
    29 -0.552532 -1.343527 1.604446 -0.415180 0.312114 -0.422073
    30 0.552589 1.343534 -1.604463 -0.465990 -0.876593 -0.438946
    31 0.000000 -2.021618 -0.000004 0.186809 0.000000 0.000000
    32 -0.000021 2.021633 0.000027 0.824136 0.000000 0.000000
    33 -0.000004 -1.136217 -0.000004 -0.210111 0.000000 0.000000
    34 -0.000011 1.136200 -0.000019 -0.096334 0.000000 0.000000
    35 -0.032677 -4.587727 1.352317 2.844703 1.216154 2.484990
    36 0.032719 4.587772 -1.352291 2.427998 1.208657 2.466410
    37 0.000000 -1.754536 -0.000002 0.662896 0.000000 0.000000
    38 -0.000006 1.754520 -0.000034 0.383515 0.000000 0.000000
    39 0.000000 -1.227020 -0.000002 0.092660 0.000000 0.000000
    40 0.000002 1.227070 0.000032 1.221687 0.000000 0.000000
    41 -0.367996 -4.208406 0.173244 2.943027 1.091688 2.536231
    42 0.368011 4.208412 -0.173239 2.581893 1.052111 2.159298
    43 0.000000 -2.372318 -0.000004 0.722081 0.000000 0.000000
    44 -0.000006 2.372318 -0.000032 1.885942 0.000000 0.000000
    45 0.000004 -1.580070 -0.000001 0.034255 0.000000 0.000000
    46 -0.000002 1.580170 0.000030 0.602825 0.000000 0.000000
    47 -0.937645 -3.860697 -0.959317 3.044205 1.001841 2.581100
    48 0.937672 3.860714 0.959333 2.709723 0.800473 2.318765
    49 0.000000 -1.690632 0.000000 0.491549 0.000000 0.000000
    50 -0.000013 1.690666 0.000021 1.759133 0.000000 0.000000
    51 -0.000002 -1.423443 0.000002 0.234212 0.000000 0.000000
    52 0.000008 1.423420 0.000028 0.817068 0.000000 0.000000
    53 -1.546646 -3.404194 -1.915569 3.024293 0.944156 2.514436
    54 1.546661 3.404217 1.915585 -3.027006 0.615473 2.392693
    55 0.000004 -1.437820 0.000000 0.424958 0.000000 0.000000
    56 -0.000021 1.437870 0.000031 1.336724 0.000000 0.000000
    57 -0.000002 -1.059402 0.000000 0.322075 0.000000 0.000000
    58 0.000006 1.059372 0.000008 0.795881 0.000000 0.000000
    59 -0.000004 -13.013485 -0.000004 0.010936 -0.284121 -0.076428
    60 0.161133 -10.812500 0.023087 0.010936 -0.284121 -0.076428
  time 6
    0 -0.024506 -3.468750 -0.000151 -1.559900 -0.000006 -0.000006
    1 -8.653000 -0.001747 3.740445 -0.777040 -0.093883 0.500095
    2 0.000000 14.313023 0.000003 -0.967426 0.000000 0.000000
    3 -0.000011 13.013483 -0.000005 -0.278144 0.295926 0.087229
    4 8.648438 0.000002 3.736328 -1.465981 0.292075 2.445211
    5 0.000000 -14.313034 0.000000 0.000000 0.000000 0.000000
    6 -0.000004 -13.013485 -0.000004 0.920551 0.163672 2.520947
    7 -1.330879 -2.698427 0.462449 -0.194886 -0.547260 3.056712
    8 1.330910 2.698444 -0.462436 0.194890 0.547268 -0.084879
    9 1.186523 5.542969 -1.857422 -1.369523 0.272265 -0.038129
    10 1.105469 12.500000 -3.097656 -2.092378 -0.272303 3.103440
    11 -1.485352 1.665039 -11.968750 0.514784 0.295216 -0.297477
    12 0.707031 8.593750 -3.654297 -1.589811 0.272264 -0.038126
    13 19.953125 -11.593750 5.781250 -1.285309 0.960384 0.216275
    14 6.562500 8.648438 3.232422 -1.090396 0.577049 -0.321829
    15 7.558525 6.997282 -2.354134 -1.937336 -0.275393 3.010581
    16 7.558525 6.997282 -2.354134 1.937336 0.275393 -0.131011
    17 -2.867767 -2.740969 0.531125 2.051196 0.577049 -0.321829
    18 1.109140 12.506018 -3.091361 -1.767930 -0.272171 -3.179539
    19 16.915219 -38.654712 -16.613871 1.332033 0.348769 -0.278015
    20 1.341450 7.751752 -1.608638 -0.629578 0.272317 -0.038277
    21 4.777344 6.027344 1.897461 -1.090396 0.577049 -0.321829
    22 5.484375 7.070313 2.427734 -1.090396 0.577049 -0.321829
    23 7.537933 7.453606 1.870349 -1.090396 0.577049 -0.321829
    24 8.154472 8.357077 2.329839 -1.090396 0.577049 -0.321829
    25 8.874294 9.411907 2.866308 -1.090396 0.577049 -0.321829
    26 -4.125858 -2.321501 1.394414 2.051196 0.577049 -0.321829
    27 -4.826813 -3.348669 0.872014 2.051196 0.577049 -0.321829
    28 -5.441669 -4.249685 0.413772 2.051196 0.577049 -0.321829
    29 -0.552532 -1.343527 1.604446 -0.415180 0.312114 -0.422073
    30 0.552589 1.343534 -1.604463 -0.465990 -0.876593 -0.438946
    31 0.000000 -2.021618 -0.000004 0.186809 0.000000 0.000000
    32 -0.000021 2.021633 0.000027 0.824136 0.000000 0.000000
    33 -0.000004 -1.136217 -0.000004 -0.210111 0.000000 0.000000
    34 -0.000011 1.136200 -0.000019 -0.096334 0.000000 0.000000
    35 -0.032677 -4.587727 1.352317 2.844703 1.216154 2.484990
    36 0.032719 4.587772 -1.352291 2.475919 1.208657 2.466410
    37 0.000000 -1.754536 -0.000002 0.662896 0.000000 0.000000
    38 -0.000006 1.754520 -0.000034 0.363468 0.000000 0.000000
    39 0.000000 -1.227020 -0.000002 0.092660 0.000000 0.000000
    40 0.000002 1.227070 0.000032 0.974860 0.000000 0.000000
    41 -0.367996 -4.208406 0.173244 2.943027 1.091688 2.536231
    42 0.368011 4.208412 -0.173239 2.581893 1.052111 2.159298
    43 0.000000 -2.372318 -0.000004 0.722081 0.000000 0.000000
    44 -0.000006 2.372318 -0.000032 1.885942 0.000000 0.000000
    45 0.000004 -1.580070 -0.000001 0.034255 0.000000 0.000000
    46 -0.000002 1.580170 0.000030 0.602825 0.000000 0.000000
    47 -0.937645 -3.860697 -0.959317 3.044205 1.001841 2.581100
    48 0.937672 3.860714 0.959333 2.709723 0.800473 2.318765
    49 0.000000 -1.690632 0.000000 0.491549 0.000000 0.000000
    50 -0.000013 1.690666 0.000021 1.759133 0.000000 0.000000
    51 -0.000002 -1.423443 0.000002 0.234212 0.000000 0.000000
    52 0.000008 1.423420 0.000028 0.817068 0.000000 0.000000
    53 -1.546646 -3.404194 -1.915569 3.024293 0.944156 2.514436
    54 1.546661 3.404217 1.915585 -3.027006 0.615473 2.392693
    55 0.000004 -1.437820 0.000000 0.424958 0.000000 0.000000
    56 -0.000021 1.437870 0.000031 1.336724 0.000000 0.000000
    57 -0.000002 -1.059402 0.000000 0.322075 0.000000 0.000000
    58 0.000006 1.059372 0.000008 0.795881 0.000000 0.000000
    59 -0.000004 -13.013485 -0.000004 0.010936 -0.284121 -0.076428
    60 0.161133 -10.812500 0.023087 0.010936 -0.284121 -0.076428
  time 7
    0 -0.024506 -3.468750 -0.000151 -1.559900 -0.000006 -0.000006
    1 -8.653000 -0.001747 3.740445 -0.805513 -0.093883 0.500095
    2 0.000000 14.313023 0.000003 -0.909749 0.000000 0.000000
    3 -0.000011 13.013483 -0.000005 -0.251772 0.292530 0.058089
    4 8.648438 0.000002 3.736328 -1.465981 0.292075 2.445211
    5 0.000000 -14.313034 0.000000 0.000000 0.000000 0.000000
    6 -0.000004 -13.013485 -0.000004 0.920551 0.163672 2.520947
    7 -1.330879 -2.698427 0.462449 -0.194886 -0.547260 3.056712
    8 1.330910 2.698444 -0.462436 0.194890 0.547268 -0.084879
    9 1.186523 5.542969 -1.857422 -1.369523 0.272265 -0.038129
    10 1.105469 12.500000 -3.097656 -2.092378 -0.272303 3.103440
    11 -1.485352 1.665039 -11.968750 0.514784 0.295216 -0.297477
    12 0.707031 8.593750 -3.654297 -1.589811 0.272264 -0.038126
    13 19.953125 -11.593750 5.781250 -1.285309 0.960384 0.216275
    14 6.562500 8.648438 3.232422 -1.090396 0.577049 -0.321829
    15 7.558525 6.997282 -2.354134 -1.937336 -0.275393 3.010581
    16 7.558525 6.997282 -2.354134 1.937336 0.275393 -0.131011
    17 -2.867767 -2.740969 0.531125 2.051196 0.577049 -0.321829
    18 1.109140 12.506018 -3.091361 -1.770594 -0.272171 -3.179539
    19 17.719931 -39.553177 -14.391147 1.268113 0.331744 -0.279166
    20 1.341450 7.751752 -1.608638 -0.538180 0.272317 -0.038277
    21 4.777344 6.027344 1.897461 -1.090396 0.577049 -0.321829
    22 5.484375 7.070313 2.427734 -1.090396 0.577049 -0.321829
    23 7.537933 7.453606 1.870349 -1.090396 0.577049 -0.321829
    24 8.154472 8.357077 2.329839 -1.090396 0.577049 -0.321829
    25 8.874294 9.411907 2.866308 -1.090396 0.577049 -0.321829
    26 -4.125858 -2.321501 1.394414 2.051196 0.577049 -0.321829
    27 -4.826813 -3.348669 0.872014 2.051196 0.577049 -0.321829
    28 -5.441669 -4.249685 0.413772 2.051196 0.577049 -0.321829
    29 -0.552532 -1.343527 1.604446 -0.415180 0.312114 -0.422073
    30 0.552589 1.343534 -1.604463 -0.465990 -0.876593 -0.438946
    31 0.000000 -2.021618 -0.000004 0.186809 0.000000 0.000000
    32 -0.000021 2.021633 0.000027 0.824136 0.000000 0.000000
    33 -0.000004 -1.136217 -0.000004 -0.210111 0.000000 0.000000
    34 -0.000011 1.136200 -0.000019 -0.096334 0.000000 0.000000
    35 -0.032677 -4.587727 1.352317 2.844703 1.216154 2.484990
    36 0.032719 4.587772 -1.352291 2.523927 1.208657 2.466410
    37 0.000000 -1.754536 -0.000002 0.662896 0.000000 0.000000
    38 -0.000006 1.754520 -0.000034 0.343467 0.000000 0.000000
    39 0.000000 -1.227020 -0.000002 0.092660 0.000000 0.000000
    40 0.000002 1.227070 0.000032 0.727234 0.000000 0.000000
    41 -0.367996 -4.208406 0.173244 2.943027 1.091688 2.536231
    42 0.368011 4.208412 -0.173239 2.581893 1.052111 2.159298
    43 0.000000 -2.372318 -0.000004 0.722081 0.000000 0.000000
    44 -0.000006 2.372318 -0.000032 1.885942 0.000000 0.000000
    45 0.000004 -1.580070 -0.000001 0.034255 0.000000 0.000000
    46 -0.000002 1.580170 0.000030 0.602825 0.000000 0.000000
    47 -0.937645 -3.860697 -0.959317 3.044205 1.001841 2.581100
    48 0.937672 3.860714 0.959333 2.709723 0.800473 2.318765
    49 0.000000 -1.690632 0.000000 0.491549 0.000000 0.000000
    50 -0.000013 1.690666 0.000021 1.759133 0.000000 0.000000
    51 -0.000002 -1.423443 0.000002 0.234212 0.000000 0.000000
    52 0.000008 1.423420 0.000028 0.817068 0.000000 0.000000
    53 -1.546646 -3.404194 -1.915569 3.024293 0.944156 2.514436
    54 1.546661 3.404217 1.915585 -3.027006 0.615473 2.392693
    55 0.000004 -1.437820 0.000000 0.424958 0.000000 0.000000
    56 -0.000021 1.437870 0.000031 1.336724 0.000000 0.000000
    57 -0.000002 -1.059402 0.000000 0.322075 0.000000 0.000000
    58 0.000006 1.059372 0.000008 0.795881 0.000000 0.000000
    59 -0.000004 -13.013485 -0.000004 0.010936 -0.284121 -0.076428
    60 0.161133 -10.812500 0.023087 0.010936 -0.284121 -0.076428
  time 8
    0 -0.024506 -3.468750 -0.000151 -1.559900 -0.000006 -0.000006
    1 -8.653000 -0.001747 3.740445 -0.842003 -0.094027 0.500018
    2 0.000000 14.313023 0.000003 -0.835515 0.000000 0.000000
    3 -0.000011 13.013483 -0.000005 -0.242313 0.288568 0.028182
    4 8.648438 0.000002 3.736328 -1.465981 0.292075 2.445211
    5 0.000000 -14.313034 0.000000 0.000000 0.000000 0.000000
    6 -0.000004 -13.013485 -0.000004 0.920551 0.163672 2.520947
    7 -1.330879 -2.698427 0.462449 -0.194886 -0.547260 3.056712
    8 1.330910 2.698444 -0.462436 0.194890 0.547268 -0.084879
    9 1.186523 5.542969 -1.857422 -1.369523 0.272265 -0.038129
    10 1.105469 12.500000 -3.097656 -2.092378 -0.272303 3.103440
    11 -1.485352 1.665039 -11.968750 0.514784 0.295216 -0.297477
    12 0.707031 8.593750 -3.654297 -1.589811 0.272264 -0.038126
    13 19.953125 -11.593750 5.781250 -1.285309 0.960384 0.216275
    14 6.562500 8.648438 3.232422 -1.090396 0.577049 -0.321829
    15 7.558525 6.997282 -2.354134 -1.937336 -0.275393 3.010581
    16 7.558525 6.997282 -2.354134 1.937336 0.275393 -0.131011
    17 -2.867767 -2.740969 0.531125 2.051196 0.577049 -0.321829
    18 1.109140 12.506018 -3.091361 -1.771925 -0.272171 -3.179539
    19 18.481673 -40.291480 -12.488745 1.213012 0.317771 -0.278015
    20 1.341450 7.747845 -1.608638 -0.496601 0.272317 -0.038277
    21 4.777344 6.027344 1.897461 -1.090396 0.577049 -0.321829
    22 5.484375 7.070313 2.427734 -1.090396 0.577049 -0.321829
    23 7.537933 7.453606 1.870349 -1.090396 0.577049 -0.321829
    24 8.154472 8.357077 2.329839 -1.090396 0.577049 -0.321829
    25 8.874294 9.411907 2.866308 -1.090396 0.577049 -0.321829
    26 -4.125858 -2.321501 1.394414 2.051196 0.577049 -0.321829
    27 -4.826813 -3.348669 0.872014 2.051196 0.577049 -0.321829
    28 -5.441669 -4.249685 0.413772 2.051196 0.577049 -0.321829
    29 -0.552532 -1.343527 1.604446 -0.415180 0.312114 -0.422073
    30 0.552589 1.343534 -1.604463 -0.465990 -0.876593 -0.438946
    31 0.000000 -2.021618 -0.000004 0.186809 0.000000 0.000000
    32 -0.000021 2.021633 0.000027 0.824136 0.000000 0.000000
    33 -0.000004 -1.136217 -0.000004 -0.210111 0.000000 0.000000
    34 -0.000011 1.136200 -0.000019 -0.096334 0.000000 0.000000
    35 -0.032677 -4.587727 1.352317 2.844703 1.216154 2.484990
    36 0.032719 4.587772 -1.352291 2.560910 1.208657 2.466410
    37 0.000000 -1.754536 -0.000002 0.662896 0.000000 0.000000
    38 -0.000006 1.754520 -0.000034 0.328047 0.000000 0.000000
    39 0.000000 -1.227020 -0.000002 0.092660 0.000000 0.000000
    40 0.000002 1.227070 0.000032 0.536456 0.000000 0.000000
    41 -0.367996 -4.208406 0.173244 2.943027 1.091688 2.536231
    42 0.368011 4.208412 -0.173239 2.581893 1.052111 2.159298
    43 0.000000 -2.372318 -0.000004 0.722081 0.000000 0.000000
    44 -0.000006 2.372318 -0.000032 1.885942 0.000000 0.000000
    45 0.000004 -1.580070 -0.000001 0.034255 0.000000 0.000000
    46 -0.000002 1.580170 0.000030 0.602825 0.000000 0.000000
    47 -0.937645 -3.860697 -0.959317 3.044205 1.001841 2.581100
    48 0.937672 3.860714 0.959333 2.709723 0.800473 2.318765
    49 0.000000 -1.690632 0.000000 0.491549 0.000000 0.000000
    50 -0.000013 1.690666 0.000021 1.759133 0.000000 0.000000
    51 -0.000002 -1.423443 0.000002 0.234212 0.000000 0.000000
    52 0.000008 1.423420 0.000028 0.817068 0.000000 0.000000
    53 -1.546646 -3.404194 -1.915569 3.024293 0.944156 2.514436
    54 1.546661 3.404217 1.915585 -3.027006 0.615473 2.392693
    55 0.000004 -1.437820 0.000000 0.424958 0.000000 0.000000
    56 -0.000021 1.437870 0.000031 1.336724 0.000000 0.000000
    57 -0.000002 -1.059402 0.000000 0.322075 0.000000 0.000000
    58 0.000006 1.059372 0.000008 0.795881 0.000000 0.000000
    59 -0.000004 -13.013485 -0.000004 0.010936 -0.284121 -0.076428
    60 0.161133 -10.812500 0.023087 0.010936 -0.284121 -0.076428
  time 9
    0 -0.024506 -3.468750 -0.000151 -1.559900 -0.000006 -0.000006
    1 -8.653000 -0.001747 3.740445 -0.883285 -0.093645 0.500247
    2 0.000000 14.313023 0.000003 -0.753399 0.000000 0.000000
    3 -0.000011 13.013483 -0.000005 -0.255785 0.285031 0.000959
    4 8.648438 0.000002 3.736328 -1.465981 0.292075 2.445211
    5 0.000000 -14.313034 0.000000 0.000000 0.000000 0.000000
    6 -0.000004 -13.013485 -0.000004 0.920551 0.163672 2.520947
    7 -1.330879 -2.698427 0.462449 -0.194886 -0.547260 3.056712
    8 1.330910 2.698444 -0.462436 0.194890 0.547268 -0.084879
    9 1.186523 5.542969 -1.857422 -1.369523 0.272265 -0.038129
    10 1.105469 12.500000 -3.097656 -2.092378 -0.272303 3.103440
    11 -1.485352 1.665039 -11.968750 0.514784 0.295216 -0.297477
    12 0.707031 8.593750 -3.654297 -1.589811 0.272264 -0.038126
    13 19.953125 -11.593750 5.781250 -1.285309 0.960384 0.216275
    14 6.562500 8.648438 3.232422 -1.090396 0.577049 -0.321829
    15 7.558525 6.997282 -2.354134 -1.937336 -0.275393 3.010581
    16 7.558525 6.997282 -2.354134 1.937336 0.275393 -0.131011
    17 -2.867767 -2.740969 0.531125 2.051196 0.577049 -0.321829
    18 1.109140 12.506018 -3.091361 -1.771925 -0.272171 -3.179539
    19 19.110599 -40.787589 -11.363711 1.178871 0.309533 -0.273701
    20 1.341450 7.747845 -1.608638 -0.496601 0.272317 -0.038277
    21 4.777344 6.027344 1.897461 -1.090396 0.577049 -0.321829
    22 5.484375 7.070313 2.427734 -1.090396 0.577049 -0.321829
    23 7.537933 7.453606 1.870349 -1.090396 0.577049 -0.321829
    24 8.154472 8.357077 2.329839 -1.090396 0.577049 -0.321829
    25 8.874294 9.411907 2.866308 -1.090396 0.577049 -0.321829
    26 -4.125858 -2.321501 1.394414 2.051196 0.577049 -0.321829
    27 -4.826813 -3.348669 0.872014 2.051196 0.577049 -0.321829
    28 -5.441669 -4.249685 0.413772 2.051196 0.577049 -0.321829
    29 -0.552532 -1.343527 1.604446 -0.415180 0.312114 -0.422073
    30 0.552589 1.343534 -1.604463 -0.465990 -0.876593 -0.438946
    31 0.000000 -2.021618 -0.000004 0.186809 0.000000 0.000000
    32 -0.000021 2.021633 0.000027 0.824136 0.000000 0.000000
    33 -0.000004 -1.136217 -0.000004 -0.210111 0.000000 0.000000
    34 -0.000011 1.136200 -0.000019 -0.096334 0.000000 0.000000
    35 -0.032677 -4.587727 1.352317 2.844703 1.216154 2.484990
    36 0.032719 4.587772 -1.352291 2.575668 1.208657 2.466410
    37 0.000000 -1.754536 -0.000002 0.662896 0.000000 0.000000
    38 -0.000006 1.754520 -0.000034 0.321833 0.000000 0.000000
    39 0.000000 -1.227020 -0.000002 0.092660 0.000000 0.000000
    40 0.000002 1.227070 0.000032 0.460504 0.000000 0.000000
    41 -0.367996 -4.208406 0.173244 2.943027 1.091688 2.536231
    42 0.368011 4.208412 -0.173239 2.581893 1.052111 2.159298
    43 0.000000 -2.372318 -0.000004 0.722081 0.000000 0.000000
    44 -0.000006 2.372318 -0.000032 1.885942 0.000000 0.000000
    45 0.000004 -1.580070 -0.000001 0.034255 0.000000 0.000000
    46 -0.000002 1.580170 0.000030 0.602825 0.000000 0.000000
    47 -0.937645 -3.860697 -0.959317 3.044205 1.001841 2.581100
    48 0.937672 3.860714 0.959333 2.709723 0.800473 2.318765
    49 0.000000 -1.690632 0.000000 0.491549 0.000000 0.000000
    50 -0.000013 1.690666 0.000021 1.759133 0.000000 0.000000
    51 -0.000002 -1.423443 0.000002 0.234212 0.000000 0.000000
    52 0.000008 1.423420 0.000028 0.817068 0.000000 0.000000
    53 -1.546646 -3.404194 -1.915569 3.024293 0.944156 2.514436
    54 1.546661 3.404217 1.915585 -3.027006 0.615473 2.392693
    55 0.000004 -1.437820 0.000000 0.424958 0.000000 0.000000
    56 -0.000021 1.437870 0.000031 1.336724 0.000000 0.000000
    57 -0.000002 -1.059402 0.000000 0.322075 0.000000 0.000000
    58 0.000006 1.059372 0.000008 0.795881 0.000000 0.000000
    59 -0.000004 -13.013485 -0.000004 0.010936 -0.284121 -0.076428
    60 0.161133 -10.812500 0.023087 0.010936 -0.284121 -0.076428
  time 10
    0 -0.024506 -3.468750 -0.000151 -1.559900 -0.000006 -0.000006
    1 -8.653000 -0.001747 3.740445 -0.925212 -0.092596 0.500782
    2 0.000000 14.313023 0.000003 -0.672627 0.000000 0.000000
    3 -0.000011 13.013483 -0.000005 -0.282921 0.282484 -0.021759
    4 8.648438 0.000002 3.736328 -1.465981 0.292075 2.445211
    5 0.000000 -14.313034 0.000000 0.000000 0.000000 0.000000
    6 -0.000004 -13.013485 -0.000004 0.920551 0.163672 2.520947
    7 -1.330879 -2.698427 0.462449 -0.194886 -0.547260 3.056712
    8 1.330910 2.698444 -0.462436 0.194890 0.547268 -0.084879
    9 1.186523 5.542969 -1.857422 -1.369523 0.272265 -0.038129
    10 1.105469 12.500000 -3.097656 -2.092378 -0.272303 3.103440
    11 -1.485352 1.665039 -11.968750 0.514784 0.295216 -0.297477
    12 0.707031 8.593750 -3.654297 -1.589811 0.272264 -0.038126
    13 19.953125 -11.593750 5.781250 -1.285309 0.960384 0.216275
    14 6.562500 8.648438 3.232422 -1.090396 0.577049 -0.321829
    15 7.558525 6.997282 -2.354134 -1.937336 -0.275393 3.010581
    16 7.558525 6.997282 -2.354134 1.937336 0.275393 -0.131011
    17 -2.867767 -2.740969 0.531125 2.051196 0.577049 -0.321829
    18 1.109140 12.506018 -3.095268 -1.771925 -0.272171 -3.179539
    19 19.591082 -41.135256 -10.832444 1.162274 0.305017 -0.268140
    20 1.341450 7.751752 -1.612544 -0.496601 0.272317 -0.038277
    21 4.777344 6.027344 1.897461 -1.090396 0.577049 -0.321829
    22 5.484375 7.070313 2.427734 -1.090396 0.577049 -0.321829
    23 7.537933 7.453606 1.870349 -1.090396 0.577049 -0.321829
    24 8.154472 8.357077 2.329839 -1.090396 0.577049 -0.321829
    25 8.874294 9.411907 2.866308 -1.090396 0.577049 -0.321829
    26 -4.125858 -2.321501 1.394414 2.051196 0.577049 -0.321829
    27 -4.826813 -3.348669 0.872014 2.051196 0.577049 -0.321829
    28 -5.441669 -4.249685 0.413772 2.051196 0.577049 -0.321829
    29 -0.552532 -1.343527 1.604446 -0.415180 0.312114 -0.422073
    30 0.552589 1.343534 -1.604463 -0.465990 -0.876593 -0.438946
    31 0.000000 -2.021618 -0.000004 0.186809 0.000000 0.000000
    32 -0.000021 2.021633 0.000027 0.824136 0.000000 0.000000
    33 -0.000004 -1.136217 -0.000004 -0.210111 0.000000 0.000000
    34 -0.000011 1.136200 -0.000019 -0.096334 0.000000 0.000000
    35 -0.032677 -4.587727 1.352317 2.844703 1.216154 2.484990
    36 0.032719 4.587772 -1.352291 2.575668 1.208657 2.466410
    37 0.000000 -1.754536 -0.000002 0.662896 0.000000 0.000000
    38 -0.000006 1.754520 -0.000034 0.321833 0.000000 0.000000
    39 0.000000 -1.227020 -0.000002 0.092660 0.000000 0.000000
    40 0.000002 1.227070 0.000032 0.460504 0.000000 0.000000
    41 -0.367996 -4.208406 0.173244 2.943027 1.091688 2.536231
    42 0.368011 4.208412 -0.173239 2.581893 1.052111 2.159298
    43 0.000000 -2.372318 -0.000004 0.722081 0.000000 0.000000
    44 -0.000006 2.372318 -0.000032 1.885942 0.000000 0.000000
    45 0.000004 -1.580070 -0.000001 0.034255 0.000000 0.000000
    46 -0.000002 1.580170 0.000030 0.602825 0.000000 0.000000
    47 -0.937645 -3.860697 -0.959317 3.044205 1.001841 2.581100
    48 0.937672 3.860714 0.959333 2.709723 0.800473 2.318765
    49 0.000000 -1.690632 0.000000 0.491549 0.000000 0.000000
    50 -0.000013 1.690666 0.000021 1.759133 0.000000 0.000000
    51 -0.000002 -1.423443 0.000002 0.234212 0.000000 0.000000
    52 0.000008 1.423420 0.000028 0.817068 0.000000 0.000000
    53 -1.546646 -3.404194 -1.915569 3.024293 0.944156 2.514436
    54 1.546661 3.404217 1.915585 -3.027006 0.615473 2.392693
    55 0.000004 -1.437820 0.000000 0.424958 0.000000 0.000000
    56 -0.000021 1.437870 0.000031 1.336724 0.000000 0.000000
    57 -0.000002 -1.059402 0.000000 0.322075 0.000000 0.000000
    58 0.000006 1.059372 0.000008 0.795881 0.000000 0.000000
    59 -0.000004 -13.013485 -0.000004 0.010936 -0.284121 -0.076428
    60 0.161133 -10.812500 0.023087 0.010936 -0.284121 -0.076428
  time 11
    0 -0.024506 -3.468750 -0.000151 -1.559900 -0.000006 -0.000006
    1 -8.653000 -0.001747 3.740445 -0.961241 -0.091070 0.501546
    2 0.000000 14.313023 0.000003 -0.605114 0.000000 0.000000
    3 -0.000011 13.013483 -0.000005 -0.306331 0.280691 -0.040068
    4 8.648438 0.000002 3.736328 -1.465981 0.292075 2.445211
    5 0.000000 -14.313034 0.000000 0.000000 0.000000 0.000000
    6 -0.000004 -13.013485 -0.000004 0.920551 0.163672 2.520947
    7 -1.330879 -2.698427 0.462449 -0.194886 -0.547260 3.056712
    8 1.330910 2.698444 -0.462436 0.194890 0.547268 -0.084879
    9 1.186523 5.542969 -1.857422 -1.369523 0.272265 -0.038129
    10 1.105469 12.500000 -3.097656 -2.092378 -0.272303 3.103440
    11 -1.485352 1.665039 -11.968750 0.514784 0.295216 -0.297477
    12 0.707031 8.593750 -3.654297 -1.589811 0.272264 -0.038126
    13 19.953125 -11.593750 5.781250 -1.285309 0.960384 0.216275
    14 6.562500 8.648438 3.232422 -1.090396 0.577049 -0.321829
    15 7.558525 6.997282 -2.354134 -1.937336 -0.275393 3.010581
    16 7.558525 6.997282 -2.354134 1.937336 0.275393 -0.131011
    17 -2.867767 -2.740969 0.531125 2.051196 0.577049 -0.321829
    18 1.109140 12.506018 -3.091361 -1.771925 -0.272171 -3.179539
    19 19.950468 -41.412608 -10.414463 1.150894 0.301478 -0.264113
    20 1.341450 7.751752 -1.608638 -0.496601 0.272317 -0.038277
    21 4.777344 6.027344 1.897461 -1.090396 0.577049 -0.321829
    22 5.484375 7.070313 2.427734 -1.090396 0.577049 -0.321829
    23 7.537933 7.453606 1.870349 -1.090396 0.577049 -0.321829
    24 8.154472 8.357077 2.329839 -1.090396 0.577049 -0.321829
    25 8.874294 9.411907 2.866308 -1.090396 0.577049 -0.321829
    26 -4.125858 -2.321501 1.394414 2.051196 0.577049 -0.321829
    27 -4.826813 -3.348669 0.872014 2.051196 0.577049 -0.321829
    28 -5.441669 -4.249685 0.413772 2.051196 0.577049 -0.321829
    29 -0.552532 -1.343527 1.604446 -0.415180 0.312114 -0.422073
    30 0.552589 1.343534 -1.604463 -0.465990 -0.876593 -0.438946
    31 0.000000 -2.021618 -0.000004 0.186809 0.000000 0.000000
    32 -0.000021 2.021633 0.000027 0.824136 0.000000 0.000000
    33 -0.000004 -1.136217 -0.000004 -0.210111 0.000000 0.000000
    34 -0.000011 1.136200 -0.000019 -0.096334 0.000000 0.000000
    35 -0.032677 -4.587727 1.352317 2.844703 1.216154 2.484990
    36 0.032719 4.587772 -1.352291 2.575668 1.208657 2.466410
    37 0.000000 -1.754536 -0.000002 0.662896 0.000000 0.000000
    38 -0.000006 1.754520 -0.000034 0.321833 0.000000 0.000000
    39 0.000000 -1.227020 -0.000002 0.092660 0.000000 0.000000
    40 0.000002 1.227070 0.000032 0.460504 0.000000 0.000000
    41 -0.367996 -4.208406 0.173244 2.943027 1.091688 2.536231
    42 0.368011 4.208412 -0.173239 2.581893 1.052111 2.159298
    43 0.000000 -2.372318 -0.000004 0.722081 0.000000 0.000000
    44 -0.000006 2.372318 -0.000032 1.885942 0.000000 0.000000
    45 0.000004 -1.580070 -0.000001 0.034255 0.000000 0.000000
    46 -0.000002 1.580170 0.000030 0.602825 0.000000 0.000000
    47 -0.937645 -3.860697 -0.959317 3.044205 1.001841 2.581100
    48 0.937672 3.860714 0.959333 2.709723 0.800473 2.318765
    49 0.000000 -1.690632 0.000000 0.491549 0.000000 0.000000
    50 -0.000013 1.690666 0.000021 1.759133 0.000000 0.000000
    51 -0.000002 -1.423443 0.000002 0.234212 0.000000 0.000000
    52 0.000008 1.423420 0.000028 0.817068 0.000000 0.000000
    53 -1.546646 -3.404194 -1.915569 3.024293 0.944156 2.514436
    54 1.546661 3.404217 1.915585 -3.027006 0.615473 2.392693
    55 0.000004 -1.437820 0.000000 0.424958 0.000000 0.000000
    56 -0.000021 1.437870 0.000031 1.336724 0.000000 0.000000
    57 -0.000002 -1.059402 0.000000 0.322075 0.000000 0.000000
    58 0.000006 1.059372 0.000008 0.795881 0.000000 0.000000
    59 -0.000004 -13.013485 -0.000004 0.010936 -0.284121 -0.076428
    60 0.161133 -10.812500 0.023087 0.010936 -0.284121 -0.076428
  time 12
    0 -0.024506 -3.468750 -0.000151 -1.559900 -0.000006 -0.000006
    1 -8.653000 -0.001747 3.740445 -0.986121 -0.089973 0.502157
    2 0.000000 14.313023 0.000003 -0.558985 0.000000 0.000000
    3 -0.000011 13.013483 -0.000005 -0.322956 0.279984 -0.052146
    4 8.648438 0.000002 3.736328 -1.465981 0.292075 2.445211
    5 0.000000 -14.313034 0.000000 0.000000 0.000000 0.000000
    6 -0.000004 -13.013485 -0.000004 0.920551 0.163672 2.520947
    7 -1.330879 -2.698427 0.462449 -0.194886 -0.547260 3.056712
    8 1.330910 2.698444 -0.462436 0.194890 0.547268 -0.084879
    9 1.186523 5.542969 -1.857422 -1.369523 0.272265 -0.038129
    10 1.105469 12.500000 -3.097656 -2.092378 -0.272303 3.103440
    11 -1.485352 1.665039 -11.968750 0.514784 0.295216 -0.297477
    12 0.707031 8.593750 -3.654297 -1.589811 0.272264 -0.038126
    13 19.953125 -11.593750 5.781250 -1.285309 0.960384 0.216275
    14 6.562500 8.648438 3.232422 -1.090396 0.577049 -0.321829
    15 7.558525 6.997282 -2.354134 -1.937336 -0.275393 3.010581
    16 7.558525 6.997282 -2.354134 1.937336 0.275393 -0.131011
    17 -2.867767 -2.740969 0.531125 2.051196 0.577049 -0.321829
    18 1.109140 12.506018 -3.091361 -1.771925 -0.272171 -3.179539
    19 20.184850 -41.584489 -10.148830 1.144255 0.298671 -0.261717
    20 1.341450 7.751752 -1.608638 -0.496601 0.272317 -0.038277
    21 4.777344 6.027344 1.897461 -1.090396 0.577049 -0.321829
    22 5.484375 7.070313 2.427734 -1.090396 0.577049 -0.321829
    23 7.537933 7.453606 1.870349 -1.090396 0.577049 -0.321829
    24 8.154472 8.357077 2.329839 -1.090396 0.577049 -0.321829
    25 8.874294 9.411907 2.866308 -1.090396 0.577049 -0.321829
    26 -4.125858 -2.321501 1.394414 2.051196 0.577049 -0.321829
    27 -4.826813 -3.348669 0.872014 2.051196 0.577049 -0.321829
    28 -5.441669 -4.249685 0.413772 2.051196 0.577049 -0.321829
    29 -0.552532 -1.343527 1.604446 -0.415180 0.312114 -0.422073
    30 0.552589 1.343534 -1.604463 -0.465990 -0.876593 -0.438946
    31 0.000000 -2.021618 -0.000004 0.186809 0.000000 0.000000
    32 -0.000021 2.021633 0.000027 0.824136 0.000000 0.000000
    33 -0.000004 -1.136217 -0.000004 -0.210111 0.000000 0.000000
    34 -0.000011 1.136200 -0.000019 -0.096334 0.000000 0.000000
    35 -0.032677 -4.587727 1.352317 2.844703 1.216154 2.484990
    36 0.032719 4.587772 -1.352291 2.575668 1.208657 2.466410
    37 0.000000 -1.754536 -0.000002 0.662896 0.000000 0.000000
    38 -0.000006 1.754520 -0.000034 0.321833 0.000000 0.000000
    39 0.000000 -1.227020 -0.000002 0.092660 0.000000 0.000000
    40 0.000002 1.227070 0.000032 0.460504 0.000000 0.000000
    41 -0.367996 -4.208406 0.173244 2.943027 1.091688 2.536231
    42 0.368011 4.208412 -0.173239 2.581893 1.052111 2.159298
    43 0.000000 -2.372318 -0.000004 0.722081 0.000000 0.000000
    44 -0.000006 2.372318 -0.000032 1.885942 0.000000 0.000000
    45 0.000004 -1.580070 -0.000001 0.034255 0.000000 0.000000
    46 -0.000002 1.580170 0.000030 0.602825 0.000000 0.000000
    47 -0.937645 -3.860697 -0.959317 3.044205 1.001841 2.581100
    48 0.937672 3.860714 0.959333 2.709723 0.800473 2.318765
    49 0.000000 -1.690632 0.000000 0.491549 0.000000 0.000000
    50 -0.000013 1.690666 0.000021 1.759133 0.000000 0.000000
    51 -0.000002 -1.423443 0.000002 0.234212 0.000000 0.000000
    52 0.000008 1.423420 0.000028 0.817068 0.000000 0.000000
    53 -1.546646 -3.404194 -1.915569 3.024293 0.944156 2.514436
    54 1.546661 3.404217 1.915585 -3.027006 0.615473 2.392693
    55 0.000004 -1.437820 0.000000 0.424958 0.000000 0.000000
    56 -0.000021 1.437870 0.000031 1.336724 0.000000 0.000000
    57 -0.000002 -1.059402 0.000000 0.322075 0.000000 0.000000
    58 0.000006 1.059372 0.000008 0.795881 0.000000 0.000000
    59 -0.000004 -13.013485 -0.000004 0.010936 -0.284121 -0.076428
    60 0.161133 -10.812500 0.023087 0.010936 -0.284121 -0.076428
  time 13
    0 -0.024506 -3.468750 -0.000151 -1.559900 -0.000006 -0.000006
    1 -8.653000 -0.001747 3.740445 -1.000956 -0.089496 0.502386
    2 0.000000 14.313023 0.000003 -0.530391 0.000000 0.000000
    3 -0.000011 13.013483 -0.000005 -0.335473 0.279748 -0.058280
    4 8.648438 0.000002 3.736328 -1.465981 0.292075 2.445211
    5 0.000000 -14.313034 0.000000 0.000000 0.000000 0.000000
    6 -0.000004 -13.013485 -0.000004 0.920551 0.163672 2.520947
    7 -1.330879 -2.698427 0.462449 -0.194886 -0.547260 3.056712
    8 1.330910 2.698444 -0.462436 0.194890 0.547268 -0.084879
    9 1.186523 5.542969 -1.857422 -1.369523 0.272265 -0.038129
    10 1.105469 12.500000 -3.097656 -2.092378 -0.272303 3.103440
    11 -1.485352 1.665039 -11.968750 0.514784 0.295216 -0.297477
    12 0.707031 8.593750 -3.654297 -1.589811 0.272264 -0.038126
    13 19.953125 -11.593750 5.781250 -1.285309 0.960384 0.216275
    14 6.562500 8.648438 3.232422 -1.090396 0.577049 -0.321829
    15 7.558525 6.997282 -2.354134 -1.937336 -0.275393 3.010581
    16 7.558525 6.997282 -2.354134 1.937336 0.275393 -0.131011
    17 -2.867767 -2.740969 0.531125 2.051196 0.577049 -0.321829
    18 1.109140 12.506018 -3.091361 -1.771925 -0.272171 -3.179539
    19 20.274697 -41.678241 -10.058983 1.142074 0.297145 -0.260662
    20 1.341450 7.747845 -1.608638 -0.496601 0.272317 -0.038277
    21 4.777344 6.027344 1.897461 -1.090396 0.577049 -0.321829
    22 5.484375 7.070313 2.427734 -1.090396 0.577049 -0.321829
    23 7.537933 7.453606 1.870349 -1.090396 0.577049 -0.321829
    24 8.154472 8.357077 2.329839 -1.090396 0.577049 -0.321829
    25 8.874294 9.411907 2.866308 -1.090396 0.577049 -0.321829
    26 -4.125858 -2.321501 1.394414 2.051196 0.577049 -0.321829
    27 -4.826813 -3.348669 0.872014 2.051196 0.577049 -0.321829
    28 -5.441669 -4.249685 0.413772 2.051196 0.577049 -0.321829
    29 -0.552532 -1.343527 1.604446 -0.415180 0.312114 -0.422073
    30 0.552589 1.343534 -1.604463 -0.465990 -0.876593 -0.438946
    31 0.000000 -2.021618 -0.000004 0.186809 0.000000 0.000000
    32 -0.000021 2.021633 0.000027 0.824136 0.000000 0.000000
    33 -0.000004 -1.136217 -0.000004 -0.210111 0.000000 0.000000
    34 -0.000011 1.136200 -0.000019 -0.096334 0.000000 0.000000
    35 -0.032677 -4.587727 1.352317 2.844703 1.216154 2.484990
    36 0.032719 4.587772 -1.352291 2.575668 1.208657 2.466410
    37 0.000000 -1.754536 -0.000002 0.662896 0.000000 0.000000
    38 -0.000006 1.754520 -0.000034 0.321833 0.000000 0.000000
    39 0.000000 -1.227020 -0.000002 0.092660 0.000000 0.000000
    40 0.000002 1.227070 0.000032 0.460504 0.000000 0.000000
    41 -0.367996 -4.208406 0.173244 2.943027 1.091688 2.536231
    42 0.368011 4.208412 -0.173239 2.581893 1.052111 2.159298
    43 0.000000 -2.372318 -0.000004 0.722081 0.000000 0.000000
    44 -0.000006 2.372318 -0.000032 1.885942 0.000000 0.000000
    45 0.000004 -1.580070 -0.000001 0.034255 0.000000 0.000000
    46 -0.000002 1.580170 0.000030 0.602825 0.000000 0.000000
    47 -0.937645 -3.860697 -0.959317 3.044205 1.001841 2.581100
    48 0.937672 3.860714 0.959333 2.709723 0.800473 2.318765
    49 0.000000 -1.690632 0.000000 0.491549 0.000000 0.000000
    50 -0.000013 1.690666 0.000021 1.759133 0.000000 0.000000
    51 -0.000002 -1.423443 0.000002 0.234212 0.000000 0.000000
    52 0.000008 1.423420 0.000028 0.817068 0.000000 0.000000
    53 -1.546646 -3.404194 -1.915569 3.024293 0.944156 2.514436
    54 1.546661 3.404217 1.915585 -3.027006 0.615473 2.392693
    55 0.000004 -1.437820 0.000000 0.424958 0.000000 0.000000
    56 -0.000021 1.437870 0.000031 1.336724 0.000000 0.000000
    57 -0.000002 -1.059402 0.000000 0.322075 0.000000 0.000000
    58 0.000006 1.059372 0.000008 0.795881 0.000000 0.000000
    59 -0.000004 -13.013485 -0.000004 0.010936 -0.284121 -0.076428
    60 0.161133 -10.812500 0.023087 0.010936 -0.284121 -0.076428
  time 14
    0 -0.024506 -3.468750 -0.000151 -1.559900 -0.000006 -0.000006
    1 -8.653000 -0.001747 3.740445 -1.007683 -0.089448 0.502462
    2 0.000000 14.313023 0.000003 -0.516705 0.000000 0.000000
    3 -0.000011 13.013483 -0.000005 -0.342926 0.279465 -0.060102
    4 8.648438 0.000002 3.736328 -1.465981 0.292075 2.445211
    5 0.000000 -14.313034 0.000000 0.000000 0.000000 0.000000
    6 -0.000004 -13.013485 -0.000004 0.920551 0.163672 2.520947
    7 -1.330879 -2.698427 0.462449 -0.194886 -0.547260 3.056712
    8 1.330910 2.698444 -0.462436 0.194890 0.547268 -0.084879
    9 1.186523 5.542969 -1.857422 -1.369523 0.272265 -0.038129
    10 1.105469 12.500000 -3.097656 -2.092378 -0.272303 3.103440
    11 -1.485352 1.665039 -11.968750 0.514784 0.295216 -0.297477
    12 0.707031 8.593750 -3.654297 -1.589811 0.272264 -0.038126
    13 19.953125 -11.593750 5.781250 -1.285309 0.960384 0.216275
    14 6.562500 8.648438 3.232422 -1.090396 0.577049 -0.321829
    15 7.558525 6.997282 -2.354134 -1.937336 -0.275393 3.010581
    16 7.558525 6.997282 -2.354134 1.937336 0.275393 -0.131011
    17 -2.867767 -2.740969 0.531125 2.051196 0.577049 -0.321829
    18 1.109140 12.502112 -3.091361 -1.771925 -0.272171 -3.179539
    19 20.270790 -41.721212 -10.094141 1.142263 0.297206 -0.260950
    20 1.341450 7.747845 -1.608638 -0.496601 0.272317 -0.038277
    21 4.777344 6.027344 1.897461 -1.090396 0.577049 -0.321829
    22 5.484375 7.070313 2.427734 -1.090396 0.577049 -0.321829
    23 7.537933 7.453606 1.870349 -1.090396 0.577049 -0.321829
    24 8.154472 8.357077 2.329839 -1.090396 0.577049 -0.321829
    25 8.874294 9.411907 2.866308 -1.090396 0.577049 -0.321829
    26 -4.125858 -2.321501 1.394414 2.051196 0.577049 -0.321829
    27 -4.826813 -3.348669 0.872014 2.051196 0.577049 -0.321829
    28 -5.441669 -4.249685 0.413772 2.051196 0.577049 -0.321829
    29 -0.552532 -1.343527 1.604446 -0.415180 0.312114 -0.422073
    30 0.552589 1.343534 -1.604463 -0.465990 -0.876593 -0.438946
    31 0.000000 -2.021618 -0.000004 0.186809 0.000000 0.000000
    32 -0.000021 2.021633 0.000027 0.824136 0.000000 0.000000
    33 -0.000004 -1.136217 -0.000004 -0.210111 0.000000 0.000000
    34 -0.000011 1.136200 -0.000019 -0.096334 0.000000 0.000000
    35 -0.032677 -4.587727 1.352317 2.844703 1.216154 2.484990
    36 0.032719 4.587772 -1.352291 2.575668 1.208657 2.466410
    37 0.000000 -1.754536 -0.000002 0.662896 0.000000 0.000000
    38 -0.000006 1.754520 -0.000034 0.321833 0.000000 0.000000
    39 0.000000 -1.227020 -0.000002 0.092660 0.000000 0.000000
    40 0.000002 1.227070 0.000032 0.460504 0.000000 0.000000
    41 -0.367996 -4.208406 0.173244 2.943027 1.091688 2.536231
    42 0.368011 4.208412 -0.173239 2.581893 1.052111 2.159298
    43 0.000000 -2.372318 -0.000004 0.722081 0.000000 0.000000
    44 -0.000006 2.372318 -0.000032 1.885942 0.000000 0.000000
    45 0.000004 -1.580070 -0.000001 0.034255 0.000000 0.000000
    46 -0.000002 1.580170 0.000030 0.602825 0.000000 0.000000
    47 -0.937645 -3.860697 -0.959317 3.044205 1.001841 2.581100
    48 0.937672 3.860714 0.959333 2.709723 0.800473 2.318765
    49 0.000000 -1.690632 0.000000 0.491549 0.000000 0.000000
    50 -0.000013 1.690666 0.000021 1.759133 0.000000 0.000000
    51 -0.000002 -1.423443 0.000002 0.234212 0.000000 0.000000
    52 0.000008 1.423420 0.000028 0.817068 0.000000 0.000000
    53 -1.546646 -3.404194 -1.915569 3.024293 0.944156 2.514436
    54 1.546661 3.404217 1.915585 -3.027006 0.615473 2.392693
    55 0.000004 -1.437820 0.000000 0.424958 0.000000 0.000000
    56 -0.000021 1.437870 0.000031 1.336724 0.000000 0.000000
    57 -0.000002 -1.059402 0.000000 0.322075 0.000000 0.000000
    58 0.000006 1.059372 0.000008 0.795881 0.000000 0.000000
    59 -0.000004 -13.013485 -0.000004 0.010936 -0.284121 -0.076428
    60 0.161133 -10.812500 0.023087 0.010936 -0.284121 -0.076428
  time 15
    0 -0.024506 -3.468750 -0.000151 -1.559900 -0.000006 -0.000006
    1 -8.653000 -0.001747 3.740445 -1.009065 -0.089496 0.502386
    2 0.000000 14.313023 0.000003 -0.513406 0.000000 0.000000
    3 -0.000011 13.013483 -0.000005 -0.345124 0.279371 -0.060485
    4 8.648438 0.000002 3.736328 -1.465981 0.292075 2.445211
    5 0.000000 -14.313034 0.000000 0.000000 0.000000 0.000000
    6 -0.000004 -13.013485 -0.000004 0.920551 0.163672 2.520947
    7 -1.330879 -2.698427 0.462449 -0.194886 -0.547260 3.056712
    8 1.330910 2.698444 -0.462436 0.194890 0.547268 -0.084879
    9 1.186523 5.542969 -1.857422 -1.369523 0.272265 -0.038129
    10 1.105469 12.500000 -3.097656 -2.092378 -0.272303 3.103440
    11 -1.485352 1.665039 -11.968750 0.514784 0.295216 -0.297477
    12 0.707031 8.593750 -3.654297 -1.589811 0.272264 -0.038126
    13 19.953125 -11.593750 5.781250 -1.285309 0.960384 0.216275
    14 6.562500 8.648438 3.232422 -1.090396 0.577049 -0.321829
    15 7.558525 6.997282 -2.354134 -1.937336 -0.275393 3.010581
    16 7.558525 6.997282 -2.354134 1.937336 0.275393 -0.131011
    17 -2.867767 -2.740969 0.531125 2.051196 0.577049 -0.321829
    18 1.109140 12.506018 -3.095268 -1.771925 -0.272171 -3.179539
    19 20.266884 -41.732931 -10.109766 1.142738 0.297328 -0.261045
    20 1.341450 7.747845 -1.612544 -0.496601 0.272317 -0.038277
    21 4.777344 6.027344 1.897461 -1.090396 0.577049 -0.321829
    22 5.484375 7.070313 2.427734 -1.090396 0.577049 -0.321829
    23 7.537933 7.453606 1.870349 -1.090396 0.577049 -0.321829
    24 8.154472 8.357077 2.329839 -1.090396 0.577049 -0.321829
    25 8.874294 9.411907 2.866308 -1.090396 0.577049 -0.321829
    26 -4.125858 -2.321501 1.394414 2.051196 0.577049 -0.321829
    27 -4.826813 -3.348669 0.872014 2.051196 0.577049 -0.321829
    28 -5.441669 -4.249685 0.413772 2.051196 0.577049 -0.321829
    29 -0.552532 -1.343527 1.604446 -0.415180 0.312114 -0.422073
    30 0.552589 1.343534 -1.604463 -0.465990 -0.876593 -0.438946
    31 0.000000 -2.021618 -0.000004 0.186809 0.000000 0.000000
    32 -0.000021 2.021633 0.000027 0.824136 0.000000 0.000000
    33 -0.000004 -1.136217 -0.000004 -0.210111 0.000000 0.000000
    34 -0.000011 1.136200 -0.000019 -0.096334 0.000000 0.000000
    35 -0.032677 -4.587727 1.352317 2.844703 1.216154 2.484990
    36 0.032719 4.587772 -1.352291 2.575668 1.208657 2.466410
    37 0.000000 -1.754536 -0.000002 0.662896 0.000000 0.000000
    38 -0.000006 1.754520 -0.000034 0.321833 0.000000 0.000000
    39 0.000000 -1.227020 -0.000002 0.092660 0.000000 0.000000
    40 0.000002 1.227070 0.000032 0.460504 0.000000 0.000000
    41 -0.367996 -4.208406 0.173244 2.943027 1.091688 2.536231
    42 0.368011 4.208412 -0.173239 2.581893 1.052111 2.159298
    43 0.000000 -2.372318 -0.000004 0.722081 0.000000 0.000000
    44 -0.000006 2.372318 -0.000032 1.885942 0.000000 0.000000
    45 0.000004 -1.580070 -0.000001 0.034255 0.000000 0.000000
    46 -0.000002 1.580170 0.000030 0.602825 0.000000 0.000000
    47 -0.937645 -3.860697 -0.959317 3.044205 1.001841 2.581100
    48 0.937672 3.860714 0.959333 2.709723 0.800473 2.318765
    49 0.000000 -1.690632 0.000000 0.491549 0.000000 0.000000
    50 -0.000013 1.690666 0.000021 1.759133 0.000000 0.000000
    51 -0.000002 -1.423443 0.000002 0.234212 0.000000 0.000000
    52 0.000008 1.423420 0.000028 0.817068 0.000000 0.000000
    53 -1.546646 -3.404194 -1.915569 3.024293 0.944156 2.514436
    54 1.546661 3.404217 1.915585 -3.027006 0.615473 2.392693
    55 0.000004 -1.437820 0.000000 0.424958 0.000000 0.000000
    56 -0.000021 1.437870 0.000031 1.336724 0.000000 0.000000
    57 -0.000002 -1.059402 0.000000 0.322075 0.000000 0.000000
    58 0.000006 1.059372 0.000008 0.795881 0.000000 0.000000
    59 -0.000004 -13.013485 -0.000004 0.010936 -0.284121 -0.076428
    60 0.161133 -10.812500 0.023087 0.010936 -0.284121 -0.076428
end
