// Created by Crowbar 0.74
version 1
nodes
  0 "root" -1
  1 "bip_upperArm_R" 0
  2 "bip_lowerArm_R" 1
  3 "bip_hand_R" 2
  4 "bip_upperArm_L" 0
  5 "bip_lowerArm_L" 4
  6 "bip_hand_L" 5
  7 "effect_hand_L" 6
  8 "effect_hand_R" 3
  9 "weapon_bone" 3
  10 "weapon_bone_1" 3
  11 "weapon_bone_2" 3
  12 "weapon_bone_3" 3
  13 "weapon_bone_4" 3
  14 "weapon_bone_5" 3
  15 "weapon_bone_6" 3
  16 "weapon_bone_7" 3
  17 "weapon_bone_L" 6
  18 "vm_weapon_bone" 3
  19 "vm_weapon_bone_1" 3
  20 "vm_weapon_bone_2" 3
  21 "vm_weapon_bone_3" 3
  22 "vm_weapon_bone_4" 3
  23 "vm_weapon_bone_5" 3
  24 "vm_weapon_bone_6" 3
  25 "vm_weapon_bone_7" 3
  26 "vm_weapon_bone_L" 6
  27 "vm_weapon_bone_L_1" 6
  28 "vm_weapon_bone_L_2" 6
  29 "bip_thumb_0_L" 6
  30 "bip_thumb_0_R" 3
  31 "bip_thumb_1_L" 29
  32 "bip_thumb_1_R" 30
  33 "bip_thumb_2_L" 31
  34 "bip_thumb_2_R" 32
  35 "bip_index_0_L" 6
  36 "bip_index_0_R" 3
  37 "bip_index_1_L" 35
  38 "bip_index_1_R" 36
  39 "bip_index_2_L" 37
  40 "bip_index_2_R" 38
  41 "bip_middle_0_L" 6
  42 "bip_middle_0_R" 3
  43 "bip_middle_1_L" 41
  44 "bip_middle_1_R" 42
  45 "bip_middle_2_L" 43
  46 "bip_middle_2_R" 44
  47 "bip_ring_0_L" 6
  48 "bip_ring_0_R" 3
  49 "bip_ring_1_L" 47
  50 "bip_ring_1_R" 48
  51 "bip_ring_2_L" 49
  52 "bip_ring_2_R" 50
  53 "bip_pinky_0_L" 6
  54 "bip_pinky_0_R" 3
  55 "bip_pinky_1_L" 53
  56 "bip_pinky_1_R" 54
  57 "bip_pinky_2_L" 55
  58 "bip_pinky_2_R" 56
  59 "Sleeve_Control" 5
  60 "Wrist_Control" 5
end
skeleton
  time 0
    0 0.000000 8.859375 -15.234375 -1.559900 -0.000006 -0.000006
    1 -8.653000 -22.135235 3.978734 -0.172502 -0.042859 0.461769
    2 0.000000 14.313023 0.000003 -0.487806 0.000000 0.000000
    3 -0.000011 13.013483 -0.000005 0.000000 0.000000 0.000000
    4 8.652996 -11.744277 -11.260009 2.695707 0.423575 -1.011431
    5 0.000000 -14.313034 0.000000 -1.927921 0.000000 0.000000
    6 -0.000004 -13.013485 -0.000004 1.256688 -1.295138 -1.043377
    7 -1.330879 -2.698427 0.462449 -0.194886 -0.547260 3.056712
    8 1.330910 2.698444 -0.462436 0.194890 0.547268 -0.084879
    9 0.000000 -0.000002 0.000002 0.000000 0.000000 0.000000
    10 3.556210 4.238403 0.987502 -1.090396 0.577049 -0.321829
    11 4.139183 5.092691 1.421975 -1.090396 0.577049 -0.321829
    12 4.777527 6.028128 1.897721 -1.090396 0.577049 -0.321829
    13 5.490345 7.072691 2.428969 -1.090396 0.577049 -0.321829
    14 6.566406 8.648438 3.230469 -1.090396 0.577049 -0.321829
    15 7.558525 6.997282 -2.354134 -1.937336 -0.275393 3.010581
    16 7.558525 6.997282 -2.354134 1.937336 0.275393 -0.131011
    17 0.147950 0.352876 0.148301 1.574015 0.557133 -0.185030
    18 4.324081 2.744001 -0.524877 -1.090396 0.577049 -0.321829
    19 5.012512 3.752832 -0.011802 -1.090396 0.577049 -0.321829
    20 5.595486 4.607124 0.422674 -1.090396 0.577049 -0.321829
    21 6.233833 5.542564 0.898426 -1.090396 0.577049 -0.321829
    22 6.946648 6.587124 1.429667 -1.090396 0.577049 -0.321829
    23 7.537933 7.453606 1.870349 -1.090396 0.577049 -0.321829
    24 8.154472 8.357077 2.329839 -1.090396 0.577049 -0.321829
    25 8.874294 9.411907 2.866308 -1.090396 0.577049 -0.321829
    26 -4.125858 -2.321501 1.394414 2.051196 0.577049 -0.321829
    27 -4.826813 -3.348669 0.872014 2.051196 0.577049 -0.321829
    28 -5.441669 -4.249685 0.413772 2.051196 0.577049 -0.321829
    29 -0.552532 -1.343527 1.604446 -0.521213 0.338140 -0.366241
    30 0.552589 1.343534 -1.604463 -0.415180 0.312114 -0.422073
    31 0.000000 -2.021618 -0.000004 0.153035 0.000000 0.000000
    32 -0.000021 2.021633 0.000027 0.186809 0.000000 0.000000
    33 -0.000004 -1.136217 -0.000004 0.460126 0.000000 0.000000
    34 -0.000011 1.136200 -0.000019 -0.210112 0.000000 0.000000
    35 -0.032677 -4.587727 1.352317 3.411508 1.216154 2.484990
    36 0.032719 4.587772 -1.352291 2.844703 1.216154 2.484990
    37 0.000000 -1.754536 -0.000002 1.234921 0.000000 0.000000
    38 -0.000006 1.754520 -0.000034 0.662896 0.000000 0.000000
    39 0.000000 -1.227020 -0.000002 0.800602 0.000000 0.000000
    40 0.000002 1.227070 0.000032 0.092659 0.000000 0.000000
    41 -0.367996 -4.208406 0.173244 3.587981 1.091688 2.536231
    42 0.368011 4.208412 -0.173239 2.943027 1.091688 2.536231
    43 0.000000 -2.372318 -0.000004 1.496301 0.000000 0.000000
    44 -0.000006 2.372318 -0.000032 0.722081 0.000000 0.000000
    45 0.000004 -1.580070 -0.000001 0.808531 0.000000 0.000000
    46 -0.000002 1.580170 0.000030 0.034255 0.000000 0.000000
    47 -0.937645 -3.860697 -0.959317 3.687457 1.001841 2.581100
    48 0.937672 3.860714 0.959333 3.044206 1.001840 2.581100
    49 0.000000 -1.690632 0.000000 1.265776 0.000000 0.000000
    50 -0.000013 1.690666 0.000021 0.491549 0.000000 0.000000
    51 -0.000002 -1.423443 0.000002 1.008504 0.000000 0.000000
    52 0.000008 1.423420 0.000028 0.234212 0.000000 0.000000
    53 -1.546646 -3.404194 -1.915569 3.766523 0.828038 2.435859
    54 1.546661 3.404217 1.915585 3.024293 0.944156 2.514435
    55 0.000004 -1.437820 0.000000 1.199165 0.000000 0.000000
    56 -0.000021 1.437870 0.000031 0.424957 0.000000 0.000000
    57 -0.000002 -1.059402 0.000000 1.096348 0.000000 0.000000
    58 0.000006 1.059372 0.000008 0.322075 0.000000 0.000000
    59 -0.011723 -13.236148 -0.000004 0.016275 -0.283855 -0.095541
    60 0.156255 -10.817387 0.019528 3.102604 -1.297389 3.105486
  time 1
    0 0.000000 8.859375 -15.234375 -1.559900 -0.000006 -0.000006
    1 -8.653000 -22.135235 3.978734 -0.172502 -0.042859 0.461769
    2 0.000000 14.313023 0.000003 -0.487806 0.000000 0.000000
    3 -0.000011 13.013483 -0.000005 0.000000 0.000000 0.000000
    4 8.652996 -11.744277 -11.260009 2.606840 0.274713 -1.090730
    5 0.000000 -14.313034 0.000000 -1.982138 0.000000 0.000000
    6 -0.000004 -13.013485 -0.000004 1.275695 -1.278171 -1.056630
    7 -1.330879 -2.698427 0.462449 -0.194886 -0.547260 3.056712
    8 1.330910 2.698444 -0.462436 0.194890 0.547268 -0.084879
    9 0.000000 -0.000002 0.000002 0.000000 0.000000 0.000000
    10 3.556210 4.238403 0.987502 -1.090396 0.577049 -0.321829
    11 4.139183 5.092691 1.421975 -1.090396 0.577049 -0.321829
    12 4.777527 6.028128 1.897721 -1.090396 0.577049 -0.321829
    13 5.490345 7.072691 2.428969 -1.090396 0.577049 -0.321829
    14 6.566406 8.648438 3.230469 -1.090396 0.577049 -0.321829
    15 7.558525 6.997282 -2.354134 -1.937336 -0.275393 3.010581
    16 7.558525 6.997282 -2.354134 1.937336 0.275393 -0.131011
    17 0.147950 0.352876 0.148301 1.580463 0.583768 -0.181121
    18 4.324081 2.744001 -0.524877 -1.090396 0.577049 -0.321829
    19 5.012512 3.752832 -0.011802 -1.090396 0.577049 -0.321829
    20 5.595486 4.607124 0.422674 -1.090396 0.577049 -0.321829
    21 6.233833 5.542564 0.898426 -1.090396 0.577049 -0.321829
    22 6.946648 6.587124 1.429667 -1.090396 0.577049 -0.321829
    23 7.537933 7.453606 1.870349 -1.090396 0.577049 -0.321829
    24 8.154472 8.357077 2.329839 -1.090396 0.577049 -0.321829
    25 8.874294 9.411907 2.866308 -1.090396 0.577049 -0.321829
    26 -4.125858 -2.321501 1.394414 2.051196 0.577049 -0.321829
    27 -4.826813 -3.348669 0.872014 2.051196 0.577049 -0.321829
    28 -5.441669 -4.249685 0.413772 2.051196 0.577049 -0.321829
    29 -0.552532 -1.343527 1.604446 -0.562183 0.340407 -0.362163
    30 0.552589 1.343534 -1.604463 -0.415180 0.312114 -0.422073
    31 0.000000 -2.021618 -0.000004 0.138810 0.000000 0.000000
    32 -0.000021 2.021633 0.000027 0.186809 0.000000 0.000000
    33 -0.000004 -1.136217 -0.000004 0.445911 0.000000 0.000000
    34 -0.000011 1.136200 -0.000019 -0.210112 0.000000 0.000000
    35 -0.032677 -4.587727 1.352317 3.310023 1.216154 2.484990
    36 0.032719 4.587772 -1.352291 2.844703 1.216154 2.484990
    37 0.000000 -1.754536 -0.000002 1.135711 0.000000 0.000000
    38 -0.000006 1.754520 -0.000034 0.662896 0.000000 0.000000
    39 0.000000 -1.227020 -0.000002 0.758447 0.000000 0.000000
    40 0.000002 1.227070 0.000032 0.092659 0.000000 0.000000
    41 -0.367996 -4.208406 0.173244 3.519364 1.091688 2.536231
    42 0.368011 4.208412 -0.173239 2.943027 1.091688 2.536231
    43 0.000000 -2.372318 -0.000004 1.482151 0.000000 0.000000
    44 -0.000006 2.372318 -0.000032 0.722081 0.000000 0.000000
    45 0.000004 -1.580070 -0.000001 0.794318 0.000000 0.000000
    46 -0.000002 1.580170 0.000030 0.034255 0.000000 0.000000
    47 -0.937645 -3.860697 -0.959317 3.618060 1.001841 2.581100
    48 0.937672 3.860714 0.959333 3.044206 1.001840 2.581100
    49 0.000000 -1.690632 0.000000 1.251585 0.000000 0.000000
    50 -0.000013 1.690666 0.000021 0.491549 0.000000 0.000000
    51 -0.000002 -1.423443 0.000002 0.994232 0.000000 0.000000
    52 0.000008 1.423420 0.000028 0.234212 0.000000 0.000000
    53 -1.546646 -3.404194 -1.915569 3.748894 0.805132 2.422815
    54 1.546661 3.404217 1.915585 3.024293 0.944156 2.514435
    55 0.000004 -1.437820 0.000000 1.184955 0.000000 0.000000
    56 -0.000021 1.437870 0.000031 0.424957 0.000000 0.000000
    57 -0.000002 -1.059402 0.000000 1.082121 0.000000 0.000000
    58 0.000006 1.059372 0.000008 0.322075 0.000000 0.000000
    59 -0.011723 -13.232242 -0.000004 0.017474 -0.283795 -0.099796
    60 0.156255 -10.813480 0.019528 3.118746 -1.091782 3.088331
  time 2
    0 0.000000 8.859375 -15.234375 -1.559900 -0.000006 -0.000006
    1 -8.653000 -22.135235 3.978734 -0.172502 -0.042859 0.461769
    2 0.000000 14.313023 0.000003 -0.487806 0.000000 0.000000
    3 -0.000011 13.013483 -0.000005 0.000000 0.000000 0.000000
    4 8.652996 -11.744277 -11.260009 2.287188 0.258113 -1.086133
    5 0.000000 -14.313034 0.000000 -1.938513 0.000000 0.000000
    6 -0.000004 -13.013485 -0.000004 1.267318 -1.285651 -1.050814
    7 -1.330879 -2.698427 0.462449 -0.194886 -0.547260 3.056712
    8 1.330910 2.698444 -0.462436 0.194890 0.547268 -0.084879
    9 0.000000 -0.000002 0.000002 0.000000 0.000000 0.000000
    10 3.556210 4.238403 0.987502 -1.090396 0.577049 -0.321829
    11 4.139183 5.092691 1.421975 -1.090396 0.577049 -0.321829
    12 4.777527 6.028128 1.897721 -1.090396 0.577049 -0.321829
    13 5.490345 7.072691 2.428969 -1.090396 0.577049 -0.321829
    14 6.566406 8.648438 3.230469 -1.090396 0.577049 -0.321829
    15 7.558525 6.997282 -2.354134 -1.937336 -0.275393 3.010581
    16 7.558525 6.997282 -2.354134 1.937336 0.275393 -0.131011
    17 0.147950 0.352876 0.148301 1.587724 0.615203 -0.176737
    18 4.324081 2.744001 -0.524877 -1.090396 0.577049 -0.321829
    19 5.012512 3.752832 -0.011802 -1.090396 0.577049 -0.321829
    20 5.595486 4.607124 0.422674 -1.090396 0.577049 -0.321829
    21 6.233833 5.542564 0.898426 -1.090396 0.577049 -0.321829
    22 6.946648 6.587124 1.429667 -1.090396 0.577049 -0.321829
    23 7.537933 7.453606 1.870349 -1.090396 0.577049 -0.321829
    24 8.154472 8.357077 2.329839 -1.090396 0.577049 -0.321829
    25 8.874294 9.411907 2.866308 -1.090396 0.577049 -0.321829
    26 -4.125858 -2.321501 1.394414 2.051196 0.577049 -0.321829
    27 -4.826813 -3.348669 0.872014 2.051196 0.577049 -0.321829
    28 -5.441669 -4.249685 0.413772 2.051196 0.577049 -0.321829
    29 -0.552532 -1.343527 1.604446 -0.603214 0.342634 -0.358030
    30 0.552589 1.343534 -1.604463 -0.415180 0.312114 -0.422073
    31 0.000000 -2.021618 -0.000004 0.124564 0.000000 0.000000
    32 -0.000021 2.021633 0.000027 0.186809 0.000000 0.000000
    33 -0.000004 -1.136217 -0.000004 0.431669 0.000000 0.000000
    34 -0.000011 1.136200 -0.000019 -0.210112 0.000000 0.000000
    35 -0.032677 -4.587727 1.352317 3.208278 1.216154 2.484990
    36 0.032719 4.587772 -1.352291 2.844703 1.216154 2.484990
    37 0.000000 -1.754536 -0.000002 1.036179 0.000000 0.000000
    38 -0.000006 1.754520 -0.000034 0.662896 0.000000 0.000000
    39 0.000000 -1.227020 -0.000002 0.716244 0.000000 0.000000
    40 0.000002 1.227070 0.000032 0.092659 0.000000 0.000000
    41 -0.367996 -4.208406 0.173244 3.450566 1.091688 2.536231
    42 0.368011 4.208412 -0.173239 2.943027 1.091688 2.536231
    43 0.000000 -2.372318 -0.000004 1.467880 0.000000 0.000000
    44 -0.000006 2.372318 -0.000032 0.722081 0.000000 0.000000
    45 0.000004 -1.580070 -0.000001 0.780079 0.000000 0.000000
    46 -0.000002 1.580170 0.000030 0.034255 0.000000 0.000000
    47 -0.937645 -3.860697 -0.959317 3.548662 1.001841 2.581100
    48 0.937672 3.860714 0.959333 3.044206 1.001840 2.581100
    49 0.000000 -1.690632 0.000000 1.237317 0.000000 0.000000
    50 -0.000013 1.690666 0.000021 0.491549 0.000000 0.000000
    51 -0.000002 -1.423443 0.000002 0.979960 0.000000 0.000000
    52 0.000008 1.423420 0.000028 0.234212 0.000000 0.000000
    53 -1.546646 -3.404194 -1.915569 3.732005 0.782138 2.410307
    54 1.546661 3.404217 1.915585 3.024293 0.944156 2.514435
    55 0.000004 -1.437820 0.000000 1.170793 0.000000 0.000000
    56 -0.000021 1.437870 0.000031 0.424957 0.000000 0.000000
    57 -0.000002 -1.059402 0.000000 1.067895 0.000000 0.000000
    58 0.000006 1.059372 0.000008 0.322075 0.000000 0.000000
    59 -0.011723 -13.236148 -0.000004 0.018636 -0.283711 -0.103966
    60 0.156255 -10.813480 0.019528 3.124573 -0.899596 3.081318
  time 3
    0 0.000000 8.859375 -15.234375 -1.559900 -0.000006 -0.000006
    1 -8.653000 -22.135235 3.978734 -0.172502 -0.042859 0.461769
    2 0.000000 14.313023 0.000003 -0.487806 0.000000 0.000000
    3 -0.000011 13.013483 -0.000005 0.000000 0.000000 0.000000
    4 8.652996 -11.744277 -11.260009 2.177923 0.176368 -1.113332
    5 0.000000 -14.313034 0.000000 -1.907754 0.000000 0.000000
    6 -0.000004 -13.013485 -0.000004 1.244888 -1.305538 -1.035177
    7 -1.330879 -2.698427 0.462449 -0.194886 -0.547260 3.056712
    8 1.330910 2.698444 -0.462436 0.194890 0.547268 -0.084879
    9 0.000000 -0.000002 0.000002 0.000000 0.000000 0.000000
    10 3.556210 4.238403 0.987502 -1.090396 0.577049 -0.321829
    11 4.139183 5.092691 1.421975 -1.090396 0.577049 -0.321829
    12 4.777527 6.028128 1.897721 -1.090396 0.577049 -0.321829
    13 5.490345 7.072691 2.428969 -1.090396 0.577049 -0.321829
    14 6.566406 8.648438 3.230469 -1.090396 0.577049 -0.321829
    15 7.558525 6.997282 -2.354134 -1.937336 -0.275393 3.010581
    16 7.558525 6.997282 -2.354134 1.937336 0.275393 -0.131011
    17 0.147950 0.352876 0.148301 1.595486 0.648701 -0.172089
    18 4.324081 2.744001 -0.524877 -1.090396 0.577049 -0.321829
    19 5.012512 3.752832 -0.011802 -1.090396 0.577049 -0.321829
    20 5.595486 4.607124 0.422674 -1.090396 0.577049 -0.321829
    21 6.233833 5.542564 0.898426 -1.090396 0.577049 -0.321829
    22 6.946648 6.587124 1.429667 -1.090396 0.577049 -0.321829
    23 7.537933 7.453606 1.870349 -1.090396 0.577049 -0.321829
    24 8.154472 8.357077 2.329839 -1.090396 0.577049 -0.321829
    25 8.874294 9.411907 2.866308 -1.090396 0.577049 -0.321829
    26 -4.125858 -2.321501 1.394414 2.051196 0.577049 -0.321829
    27 -4.826813 -3.348669 0.872014 2.051196 0.577049 -0.321829
    28 -5.441669 -4.249685 0.413772 2.051196 0.577049 -0.321829
    29 -0.552532 -1.343527 1.604446 -0.640729 0.344718 -0.354281
    30 0.552589 1.343534 -1.604463 -0.415180 0.312114 -0.422073
    31 0.000000 -2.021618 -0.000004 0.111581 0.000000 0.000000
    32 -0.000021 2.021633 0.000027 0.186809 0.000000 0.000000
    33 -0.000004 -1.136217 -0.000004 0.418648 0.000000 0.000000
    34 -0.000011 1.136200 -0.000019 -0.210112 0.000000 0.000000
    35 -0.032677 -4.587727 1.352317 3.115300 1.216154 2.484990
    36 0.032719 4.587772 -1.352291 2.844703 1.216154 2.484990
    37 0.000000 -1.754536 -0.000002 0.945259 0.000000 0.000000
    38 -0.000006 1.754520 -0.000034 0.662896 0.000000 0.000000
    39 0.000000 -1.227020 -0.000002 0.677614 0.000000 0.000000
    40 0.000002 1.227070 0.000032 0.092659 0.000000 0.000000
    41 -0.367996 -4.208406 0.173244 3.387786 1.091688 2.536231
    42 0.368011 4.208412 -0.173239 2.943027 1.091688 2.536231
    43 0.000000 -2.372318 -0.000004 1.454859 0.000000 0.000000
    44 -0.000006 2.372318 -0.000032 0.722081 0.000000 0.000000
    45 0.000004 -1.580070 -0.000001 0.767024 0.000000 0.000000
    46 -0.000002 1.580170 0.000030 0.034255 0.000000 0.000000
    47 -0.937645 -3.860697 -0.959317 3.485117 1.001841 2.581100
    48 0.937672 3.860714 0.959333 3.044206 1.001840 2.581100
    49 0.000000 -1.690632 0.000000 1.224321 0.000000 0.000000
    50 -0.000013 1.690666 0.000021 0.491549 0.000000 0.000000
    51 -0.000002 -1.423443 0.000002 0.966995 0.000000 0.000000
    52 0.000008 1.423420 0.000028 0.234212 0.000000 0.000000
    53 -1.546646 -3.404194 -1.915569 3.717145 0.761047 2.399180
    54 1.546661 3.404217 1.915585 3.024293 0.944156 2.514435
    55 0.000004 -1.437820 0.000000 1.157764 0.000000 0.000000
    56 -0.000021 1.437870 0.000031 0.424957 0.000000 0.000000
    57 -0.000002 -1.059402 0.000000 1.054870 0.000000 0.000000
    58 0.000006 1.059372 0.000008 0.322075 0.000000 0.000000
    59 -0.011723 -13.232242 -0.000004 0.019751 -0.283639 -0.107897
    60 0.156255 -10.813480 0.019528 3.127534 -0.725584 3.077432
  time 4
    0 0.000000 8.859375 -15.234375 -1.559900 -0.000006 -0.000006
    1 -8.653000 -22.135235 3.978734 -0.172502 -0.042859 0.461769
    2 0.000000 14.313023 0.000003 -0.487806 0.000000 0.000000
    3 -0.000011 13.013483 -0.000005 0.000000 0.000000 0.000000
    4 8.652996 -11.744277 -11.260009 2.135405 0.117399 -1.125495
    5 0.000000 -14.313034 0.000000 -1.895187 0.000000 0.000000
    6 -0.000004 -13.013485 -0.000004 1.221828 -1.326200 -1.018968
    7 -1.330879 -2.698427 0.462449 -0.194886 -0.547260 3.056712
    8 1.330910 2.698444 -0.462436 0.194890 0.547268 -0.084879
    9 0.000000 -0.000002 0.000002 0.000000 0.000000 0.000000
    10 3.556210 4.238403 0.987502 -1.090396 0.577049 -0.321829
    11 4.139183 5.092691 1.421975 -1.090396 0.577049 -0.321829
    12 4.777527 6.028128 1.897721 -1.090396 0.577049 -0.321829
    13 5.490345 7.072691 2.428969 -1.090396 0.577049 -0.321829
    14 6.566406 8.648438 3.230469 -1.090396 0.577049 -0.321829
    15 7.558525 6.997282 -2.354134 -1.937336 -0.275393 3.010581
    16 7.558525 6.997282 -2.354134 1.937336 0.275393 -0.131011
    17 0.147950 0.352876 0.148301 1.603186 0.682247 -0.167494
    18 4.324081 2.744001 -0.524877 -1.090396 0.577049 -0.321829
    19 5.012512 3.752832 -0.011802 -1.090396 0.577049 -0.321829
    20 5.595486 4.607124 0.422674 -1.090396 0.577049 -0.321829
    21 6.233833 5.542564 0.898426 -1.090396 0.577049 -0.321829
    22 6.946648 6.587124 1.429667 -1.090396 0.577049 -0.321829
    23 7.537933 7.453606 1.870349 -1.090396 0.577049 -0.321829
    24 8.154472 8.357077 2.329839 -1.090396 0.577049 -0.321829
    25 8.874294 9.411907 2.866308 -1.090396 0.577049 -0.321829
    26 -4.125858 -2.321501 1.394414 2.051196 0.577049 -0.321829
    27 -4.826813 -3.348669 0.872014 2.051196 0.577049 -0.321829
    28 -5.441669 -4.249685 0.413772 2.051196 0.577049 -0.321829
    29 -0.552532 -1.343527 1.604446 -0.671731 0.346393 -0.351154
    30 0.552589 1.343534 -1.604463 -0.415180 0.312114 -0.422073
    31 0.000000 -2.021618 -0.000004 0.100828 0.000000 0.000000
    32 -0.000021 2.021633 0.000027 0.186809 0.000000 0.000000
    33 -0.000004 -1.136217 -0.000004 0.407875 0.000000 0.000000
    34 -0.000011 1.136200 -0.000019 -0.210112 0.000000 0.000000
    35 -0.032677 -4.587727 1.352317 3.038557 1.216154 2.484990
    36 0.032719 4.587772 -1.352291 2.844703 1.216154 2.484990
    37 0.000000 -1.754536 -0.000002 0.870169 0.000000 0.000000
    38 -0.000006 1.754520 -0.000034 0.662896 0.000000 0.000000
    39 0.000000 -1.227020 -0.000002 0.645744 0.000000 0.000000
    40 0.000002 1.227070 0.000032 0.092659 0.000000 0.000000
    41 -0.367996 -4.208406 0.173244 3.335873 1.091688 2.536231
    42 0.368011 4.208412 -0.173239 2.943027 1.091688 2.536231
    43 0.000000 -2.372318 -0.000004 1.444095 0.000000 0.000000
    44 -0.000006 2.372318 -0.000032 0.722081 0.000000 0.000000
    45 0.000004 -1.580070 -0.000001 0.756287 0.000000 0.000000
    46 -0.000002 1.580170 0.000030 0.034255 0.000000 0.000000
    47 -0.937645 -3.860697 -0.959317 3.432721 1.001841 2.581100
    48 0.937672 3.860714 0.959333 3.044206 1.001840 2.581100
    49 0.000000 -1.690632 0.000000 1.213562 0.000000 0.000000
    50 -0.000013 1.690666 0.000021 0.491549 0.000000 0.000000
    51 -0.000002 -1.423443 0.000002 0.956264 0.000000 0.000000
    52 0.000008 1.423420 0.000028 0.234212 0.000000 0.000000
    53 -1.546646 -3.404194 -1.915569 3.705332 0.743586 2.390433
    54 1.546661 3.404217 1.915585 3.024293 0.944156 2.514435
    55 0.000004 -1.437820 0.000000 1.146953 0.000000 0.000000
    56 -0.000021 1.437870 0.000031 0.424957 0.000000 0.000000
    57 -0.000002 -1.059402 0.000000 1.044109 0.000000 0.000000
    58 0.000006 1.059372 0.000008 0.322075 0.000000 0.000000
    59 -0.011723 -13.236148 -0.000004 0.020733 -0.283567 -0.111469
    60 0.160161 -10.813480 0.019528 3.129062 -0.571488 3.074873
  time 5
    0 0.000000 8.859375 -15.234375 -1.559900 -0.000006 -0.000006
    1 -8.653000 -22.135235 3.978734 -0.172502 -0.042859 0.461769
    2 0.000000 14.313023 0.000003 -0.487806 0.000000 0.000000
    3 -0.000011 13.013483 -0.000005 0.000000 0.000000 0.000000
    4 8.652996 -11.744277 -11.260009 2.133777 0.097238 -1.117546
    5 0.000000 -14.313034 0.000000 -1.897461 0.000000 0.000000
    6 -0.000004 -13.013485 -0.000004 1.210928 -1.336052 -1.011341
    7 -1.330879 -2.698427 0.462449 -0.194886 -0.547260 3.056712
    8 1.330910 2.698444 -0.462436 0.194890 0.547268 -0.084879
    9 0.000000 -0.000002 0.000002 0.000000 0.000000 0.000000
    10 3.556210 4.238403 0.987502 -1.090396 0.577049 -0.321829
    11 4.139183 5.092691 1.421975 -1.090396 0.577049 -0.321829
    12 4.777527 6.028128 1.897721 -1.090396 0.577049 -0.321829
    13 5.490345 7.072691 2.428969 -1.090396 0.577049 -0.321829
    14 6.566406 8.648438 3.230469 -1.090396 0.577049 -0.321829
    15 7.558525 6.997282 -2.354134 -1.937336 -0.275393 3.010581
    16 7.558525 6.997282 -2.354134 1.937336 0.275393 -0.131011
    17 0.147950 0.352876 0.148301 1.610509 0.713585 -0.163057
    18 4.324081 2.744001 -0.524877 -1.090396 0.577049 -0.321829
    19 5.012512 3.752832 -0.011802 -1.090396 0.577049 -0.321829
    20 5.595486 4.607124 0.422674 -1.090396 0.577049 -0.321829
    21 6.233833 5.542564 0.898426 -1.090396 0.577049 -0.321829
    22 6.946648 6.587124 1.429667 -1.090396 0.577049 -0.321829
    23 7.537933 7.453606 1.870349 -1.090396 0.577049 -0.321829
    24 8.154472 8.357077 2.329839 -1.090396 0.577049 -0.321829
    25 8.874294 9.411907 2.866308 -1.090396 0.577049 -0.321829
    26 -4.125858 -2.321501 1.394414 2.051196 0.577049 -0.321829
    27 -4.826813 -3.348669 0.872014 2.051196 0.577049 -0.321829
    28 -5.441669 -4.249685 0.413772 2.051196 0.577049 -0.321829
    29 -0.552532 -1.343527 1.604446 -0.692767 0.347537 -0.349051
    30 0.552589 1.343534 -1.604463 -0.415180 0.312114 -0.422073
    31 0.000000 -2.021618 -0.000004 0.093505 0.000000 0.000000
    32 -0.000021 2.021633 0.000027 0.186809 0.000000 0.000000
    33 -0.000004 -1.136217 -0.000004 0.400601 0.000000 0.000000
    34 -0.000011 1.136200 -0.000019 -0.210112 0.000000 0.000000
    35 -0.032677 -4.587727 1.352317 2.986383 1.216154 2.484990
    36 0.032719 4.587772 -1.352291 2.844703 1.216154 2.484990
    37 0.000000 -1.754536 -0.000002 0.819173 0.000000 0.000000
    38 -0.000006 1.754520 -0.000034 0.662896 0.000000 0.000000
    39 0.000000 -1.227020 -0.000002 0.624160 0.000000 0.000000
    40 0.000002 1.227070 0.000032 0.092659 0.000000 0.000000
    41 -0.367996 -4.208406 0.173244 3.300577 1.091688 2.536231
    42 0.368011 4.208412 -0.173239 2.943027 1.091688 2.536231
    43 0.000000 -2.372318 -0.000004 1.436798 0.000000 0.000000
    44 -0.000006 2.372318 -0.000032 0.722081 0.000000 0.000000
    45 0.000004 -1.580070 -0.000001 0.749001 0.000000 0.000000
    46 -0.000002 1.580170 0.000030 0.034255 0.000000 0.000000
    47 -0.937645 -3.860697 -0.959317 3.397046 1.001841 2.581100
    48 0.937672 3.860714 0.959333 3.044206 1.001840 2.581100
    49 0.000000 -1.690632 0.000000 1.206235 0.000000 0.000000
    50 -0.000013 1.690666 0.000021 0.491549 0.000000 0.000000
    51 -0.000002 -1.423443 0.000002 0.948910 0.000000 0.000000
    52 0.000008 1.423420 0.000028 0.234212 0.000000 0.000000
    53 -1.546646 -3.404194 -1.915569 3.697394 0.731744 2.384524
    54 1.546661 3.404217 1.915585 3.024293 0.944156 2.514435
    55 0.000004 -1.437820 0.000000 1.139683 0.000000 0.000000
    56 -0.000021 1.437870 0.000031 0.424957 0.000000 0.000000
    57 -0.000002 -1.059402 0.000000 1.036786 0.000000 0.000000
    58 0.000006 1.059372 0.000008 0.322075 0.000000 0.000000
    59 -0.035161 -13.232242 -0.003910 0.021584 -0.283508 -0.114513
    60 0.156255 -10.817387 0.019528 3.129731 -0.480028 3.073546
  time 6
    0 0.000000 8.859375 -15.234375 -1.559900 -0.000006 -0.000006
    1 -8.653000 -22.135235 3.978734 -0.172502 -0.042859 0.461769
    2 0.000000 14.313023 0.000003 -0.487806 0.000000 0.000000
    3 -0.000011 13.013483 -0.000005 0.000000 0.000000 0.000000
    4 8.652996 -11.744277 -11.260009 2.163846 0.116641 -1.091496
    5 0.000000 -14.313034 0.000000 -1.906138 0.000000 0.000000
    6 -0.000004 -13.013485 -0.000004 1.105626 -1.429829 -0.937542
    7 -1.330879 -2.698427 0.462449 -0.194886 -0.547260 3.056712
    8 1.330910 2.698444 -0.462436 0.194890 0.547268 -0.084879
    9 0.000000 -0.000002 0.000002 0.000000 0.000000 0.000000
    10 3.556210 4.238403 0.987502 -1.090396 0.577049 -0.321829
    11 4.139183 5.092691 1.421975 -1.090396 0.577049 -0.321829
    12 4.777527 6.028128 1.897721 -1.090396 0.577049 -0.321829
    13 5.490345 7.072691 2.428969 -1.090396 0.577049 -0.321829
    14 6.566406 8.648438 3.230469 -1.090396 0.577049 -0.321829
    15 7.558525 6.997282 -2.354134 -1.937336 -0.275393 3.010581
    16 7.558525 6.997282 -2.354134 1.937336 0.275393 -0.131011
    17 0.147950 0.352876 0.148301 1.616957 0.740365 -0.159307
    18 4.324081 2.744001 -0.524877 -1.090396 0.577049 -0.321829
    19 5.012512 3.752832 -0.011802 -1.090396 0.577049 -0.321829
    20 5.595486 4.607124 0.422674 -1.090396 0.577049 -0.321829
    21 6.233833 5.542564 0.898426 -1.090396 0.577049 -0.321829
    22 6.946648 6.587124 1.429667 -1.090396 0.577049 -0.321829
    23 7.537933 7.453606 1.870349 -1.090396 0.577049 -0.321829
    24 8.154472 8.357077 2.329839 -1.090396 0.577049 -0.321829
    25 8.874294 9.411907 2.866308 -1.090396 0.577049 -0.321829
    26 -4.125858 -2.321501 1.394414 2.051196 0.577049 -0.321829
    27 -4.826813 -3.348669 0.872014 2.051196 0.577049 -0.321829
    28 -5.441669 -4.249685 0.413772 2.051196 0.577049 -0.321829
    29 -0.552532 -1.343527 1.604446 -0.700533 0.347966 -0.348283
    30 0.552589 1.343534 -1.604463 -0.415180 0.312114 -0.422073
    31 0.000000 -2.021618 -0.000004 0.090811 0.000000 0.000000
    32 -0.000021 2.021633 0.000027 0.186809 0.000000 0.000000
    33 -0.000004 -1.136217 -0.000004 0.397908 0.000000 0.000000
    34 -0.000011 1.136200 -0.000019 -0.210112 0.000000 0.000000
    35 -0.032677 -4.587727 1.352317 2.967284 1.216154 2.484990
    36 0.032719 4.587772 -1.352291 2.844703 1.216154 2.484990
    37 0.000000 -1.754536 -0.000002 0.800454 0.000000 0.000000
    38 -0.000006 1.754520 -0.000034 0.662896 0.000000 0.000000
    39 0.000000 -1.227020 -0.000002 0.616241 0.000000 0.000000
    40 0.000002 1.227070 0.000032 0.092659 0.000000 0.000000
    41 -0.367996 -4.208406 0.173244 3.287643 1.091688 2.536231
    42 0.368011 4.208412 -0.173239 2.943027 1.091688 2.536231
    43 0.000000 -2.372318 -0.000004 1.434097 0.000000 0.000000
    44 -0.000006 2.372318 -0.000032 0.722081 0.000000 0.000000
    45 0.000004 -1.580070 -0.000001 0.746323 0.000000 0.000000
    46 -0.000002 1.580170 0.000030 0.034255 0.000000 0.000000
    47 -0.937645 -3.860697 -0.959317 3.384040 1.001841 2.581100
    48 0.937672 3.860714 0.959333 3.044206 1.001840 2.581100
    49 0.000000 -1.690632 0.000000 1.203613 0.000000 0.000000
    50 -0.000013 1.690666 0.000021 0.491549 0.000000 0.000000
    51 -0.000002 -1.423443 0.000002 0.946186 0.000000 0.000000
    52 0.000008 1.423420 0.000028 0.234212 0.000000 0.000000
    53 -1.546646 -3.404194 -1.915569 3.694533 0.727422 2.382452
    54 1.546661 3.404217 1.915585 3.024293 0.944156 2.514435
    55 0.000004 -1.437820 0.000000 1.136945 0.000000 0.000000
    56 -0.000021 1.437870 0.000031 0.424957 0.000000 0.000000
    57 -0.000002 -1.059402 0.000000 1.034131 0.000000 0.000000
    58 0.000006 1.059372 0.000008 0.322075 0.000000 0.000000
    59 -0.089850 -13.228335 -0.019536 0.022243 -0.283472 -0.116862
    60 0.156255 -10.817387 0.019528 3.129826 -0.468625 3.073451
  time 7
    0 0.000000 8.859375 -15.234375 -1.559900 -0.000006 -0.000006
    1 -8.653000 -22.135235 3.978734 -0.172502 -0.042859 0.461769
    2 0.000000 14.313023 0.000003 -0.487806 0.000000 0.000000
    3 -0.000011 13.013483 -0.000005 0.000000 0.000000 0.000000
    4 8.652996 -11.744277 -11.260009 2.203779 0.142071 -1.065350
    5 0.000000 -14.313034 0.000000 -1.915354 0.000000 0.000000
    6 -0.000004 -13.013485 -0.000004 -2.279352 -1.494597 2.374510
    7 -1.330879 -2.698427 0.462449 -0.194886 -0.547260 3.056712
    8 1.330910 2.698444 -0.462436 0.194890 0.547268 -0.084879
    9 0.000000 -0.000002 0.000002 0.000000 0.000000 0.000000
    10 3.556210 4.238403 0.987502 -1.090396 0.577049 -0.321829
    11 4.139183 5.092691 1.421975 -1.090396 0.577049 -0.321829
    12 4.777527 6.028128 1.897721 -1.090396 0.577049 -0.321829
    13 5.490345 7.072691 2.428969 -1.090396 0.577049 -0.321829
    14 6.566406 8.648438 3.230469 -1.090396 0.577049 -0.321829
    15 7.558525 6.997282 -2.354134 -1.937336 -0.275393 3.010581
    16 7.558525 6.997282 -2.354134 1.937336 0.275393 -0.131011
    17 0.151856 0.352876 0.148301 1.622090 0.760281 -0.156191
    18 4.324081 2.744001 -0.524877 -1.090396 0.577049 -0.321829
    19 5.012512 3.752832 -0.011802 -1.090396 0.577049 -0.321829
    20 5.595486 4.607124 0.422674 -1.090396 0.577049 -0.321829
    21 6.233833 5.542564 0.898426 -1.090396 0.577049 -0.321829
    22 6.946648 6.587124 1.429667 -1.090396 0.577049 -0.321829
    23 7.537933 7.453606 1.870349 -1.090396 0.577049 -0.321829
    24 8.154472 8.357077 2.329839 -1.090396 0.577049 -0.321829
    25 8.874294 9.411907 2.866308 -1.090396 0.577049 -0.321829
    26 -4.125858 -2.321501 1.394414 2.051196 0.577049 -0.321829
    27 -4.826813 -3.348669 0.872014 2.051196 0.577049 -0.321829
    28 -5.441669 -4.249685 0.413772 2.051196 0.577049 -0.321829
    29 -0.552532 -1.343527 1.604446 -0.675523 0.347966 -0.348283
    30 0.552589 1.343534 -1.604463 -0.415180 0.312114 -0.422073
    31 0.000000 -2.021618 -0.000004 0.103100 0.000000 0.000000
    32 -0.000021 2.021633 0.000027 0.186809 0.000000 0.000000
    33 -0.000004 -1.136217 -0.000004 0.425727 0.000000 0.000000
    34 -0.000011 1.136200 -0.000019 -0.210112 0.000000 0.000000
    35 -0.032677 -4.587727 1.352317 3.040901 1.216154 2.484990
    36 0.032719 4.587772 -1.352291 2.844703 1.216154 2.484990
    37 0.000000 -1.754536 -0.000002 0.872468 0.000000 0.000000
    38 -0.000006 1.754520 -0.000034 0.662896 0.000000 0.000000
    39 0.000000 -1.227020 -0.000002 0.648062 0.000000 0.000000
    40 0.000002 1.227070 0.000032 0.092659 0.000000 0.000000
    41 -0.367996 -4.208406 0.173244 3.338119 1.091688 2.536231
    42 0.368011 4.208412 -0.173239 2.943027 1.091688 2.536231
    43 0.000000 -2.372318 -0.000004 1.446393 0.000000 0.000000
    44 -0.000006 2.372318 -0.000032 0.722081 0.000000 0.000000
    45 0.000004 -1.580070 -0.000001 0.758605 0.000000 0.000000
    46 -0.000002 1.580170 0.000030 0.034255 0.000000 0.000000
    47 -0.937645 -3.860697 -0.959317 3.434950 1.001841 2.581100
    48 0.937672 3.860714 0.959333 3.044206 1.001840 2.581100
    49 0.000000 -1.690632 0.000000 1.215876 0.000000 0.000000
    50 -0.000013 1.690666 0.000021 0.491549 0.000000 0.000000
    51 -0.000002 -1.423443 0.000002 0.958552 0.000000 0.000000
    52 0.000008 1.423420 0.000028 0.234212 0.000000 0.000000
    53 -1.546646 -3.404194 -1.915569 3.706901 0.727422 2.382452
    54 1.546661 3.404217 1.915585 3.024293 0.944156 2.514435
    55 0.000004 -1.437820 0.000000 1.149266 0.000000 0.000000
    56 -0.000021 1.437870 0.000031 0.424957 0.000000 0.000000
    57 -0.000002 -1.059402 0.000000 1.046401 0.000000 0.000000
    58 0.000006 1.059372 0.000008 0.322075 0.000000 0.000000
    59 -0.136727 -12.923638 -0.035161 0.022687 -0.283436 -0.118384
    60 0.160161 -10.813480 0.019528 3.129540 -0.502912 3.073830
  time 8
    0 0.000000 8.859375 -15.234375 -1.559900 -0.000006 -0.000006
    1 -8.653000 -22.135235 3.978734 -0.172502 -0.042859 0.461769
    2 0.000000 14.313023 0.000003 -0.487806 0.000000 0.000000
    3 -0.000011 13.013483 -0.000005 0.000000 0.000000 0.000000
    4 8.652996 -11.744277 -11.260009 2.237870 0.159504 -1.047729
    5 0.000000 -14.313034 0.000000 -1.922116 0.000000 0.000000
    6 -0.000004 -13.013485 -0.000004 -2.551750 -1.251853 2.565394
    7 -1.330879 -2.698427 0.462449 -0.194886 -0.547260 3.056712
    8 1.330910 2.698444 -0.462436 0.194890 0.547268 -0.084879
    9 0.000000 -0.000002 0.000002 0.000000 0.000000 0.000000
    10 3.556210 4.238403 0.987502 -1.090396 0.577049 -0.321829
    11 4.139183 5.092691 1.421975 -1.090396 0.577049 -0.321829
    12 4.777527 6.028128 1.897721 -1.090396 0.577049 -0.321829
    13 5.490345 7.072691 2.428969 -1.090396 0.577049 -0.321829
    14 6.566406 8.648438 3.230469 -1.090396 0.577049 -0.321829
    15 7.558525 6.997282 -2.354134 -1.937336 -0.275393 3.010581
    16 7.558525 6.997282 -2.354134 1.937336 0.275393 -0.131011
    17 0.147950 0.352876 0.132675 1.625470 0.771175 -0.154184
    18 4.324081 2.744001 -0.524877 -1.090396 0.577049 -0.321829
    19 5.012512 3.752832 -0.011802 -1.090396 0.577049 -0.321829
    20 5.595486 4.607124 0.422674 -1.090396 0.577049 -0.321829
    21 6.233833 5.542564 0.898426 -1.090396 0.577049 -0.321829
    22 6.946648 6.587124 1.429667 -1.090396 0.577049 -0.321829
    23 7.537933 7.453606 1.870349 -1.090396 0.577049 -0.321829
    24 8.154472 8.357077 2.329839 -1.090396 0.577049 -0.321829
    25 8.874294 9.411907 2.866308 -1.090396 0.577049 -0.321829
    26 -4.125858 -2.321501 1.394414 2.051196 0.577049 -0.321829
    27 -4.826813 -3.348669 0.872014 2.051196 0.577049 -0.321829
    28 -5.441669 -4.249685 0.413772 2.051196 0.577049 -0.321829
    29 -0.552532 -1.343527 1.604446 -0.615658 0.347966 -0.348283
    30 0.552589 1.343534 -1.604463 -0.415180 0.312114 -0.422073
    31 0.000000 -2.021618 -0.000004 0.132476 0.000000 0.000000
    32 -0.000021 2.021633 0.000027 0.186809 0.000000 0.000000
    33 -0.000004 -1.136217 -0.000004 0.492276 0.000000 0.000000
    34 -0.000011 1.136200 -0.000019 -0.210112 0.000000 0.000000
    35 -0.032677 -4.587727 1.352317 3.216959 1.216154 2.484990
    36 0.032719 4.587772 -1.352291 2.844703 1.216154 2.484990
    37 0.000000 -1.754536 -0.000002 1.044844 0.000000 0.000000
    38 -0.000006 1.754520 -0.000034 0.662896 0.000000 0.000000
    39 0.000000 -1.227020 -0.000002 0.724356 0.000000 0.000000
    40 0.000002 1.227070 0.000032 0.092659 0.000000 0.000000
    41 -0.367996 -4.208406 0.173244 3.459008 1.091688 2.536231
    42 0.368011 4.208412 -0.173239 2.943027 1.091688 2.536231
    43 0.000000 -2.372318 -0.000004 1.475822 0.000000 0.000000
    44 -0.000006 2.372318 -0.000032 0.722081 0.000000 0.000000
    45 0.000004 -1.580070 -0.000001 0.787984 0.000000 0.000000
    46 -0.000002 1.580170 0.000030 0.034255 0.000000 0.000000
    47 -0.937645 -3.860697 -0.959317 3.557023 1.001841 2.581100
    48 0.937672 3.860714 0.959333 3.044206 1.001840 2.581100
    49 0.000000 -1.690632 0.000000 1.245261 0.000000 0.000000
    50 -0.000013 1.690666 0.000021 0.491549 0.000000 0.000000
    51 -0.000002 -1.423443 0.000002 0.987913 0.000000 0.000000
    52 0.000008 1.423420 0.000028 0.234212 0.000000 0.000000
    53 -1.546646 -3.404194 -1.915569 3.736250 0.727393 2.382452
    54 1.546661 3.404217 1.915585 3.024293 0.944156 2.514435
    55 0.000004 -1.437820 0.000000 1.178677 0.000000 0.000000
    56 -0.000021 1.437870 0.000031 0.424957 0.000000 0.000000
    57 -0.000002 -1.059402 0.000000 1.075777 0.000000 0.000000
    58 0.000006 1.059372 0.000008 0.322075 0.000000 0.000000
    59 -0.152352 -12.325964 -0.046880 0.022831 -0.283424 -0.118911
    60 0.160161 -10.813480 0.019528 3.129253 -0.548643 3.074494
  time 9
    0 0.000000 8.859375 -15.234375 -1.559900 -0.000006 -0.000006
    1 -8.653000 -22.135235 3.978734 -0.172502 -0.042859 0.461769
    2 0.000000 14.313023 0.000003 -0.487806 0.000000 0.000000
    3 -0.000011 13.013483 -0.000005 0.000000 0.000000 0.000000
    4 8.652996 -11.744277 -11.260009 2.247159 0.152189 -1.048207
    5 0.000000 -14.313034 0.000000 -1.926066 0.000000 0.000000
    6 -0.000004 -13.013485 -0.000004 -2.740826 -1.082953 2.697830
    7 -1.330879 -2.698427 0.462449 -0.194886 -0.547260 3.056712
    8 1.330910 2.698444 -0.462436 0.194890 0.547268 -0.084879
    9 0.000000 -0.000002 0.000002 0.000000 0.000000 0.000000
    10 3.556210 4.238403 0.987502 -1.090396 0.577049 -0.321829
    11 4.139183 5.092691 1.421975 -1.090396 0.577049 -0.321829
    12 4.777527 6.028128 1.897721 -1.090396 0.577049 -0.321829
    13 5.490345 7.072691 2.428969 -1.090396 0.577049 -0.321829
    14 6.566406 8.648438 3.230469 -1.090396 0.577049 -0.321829
    15 7.558525 6.997282 -2.354134 -1.937336 -0.275393 3.010581
    16 7.558525 6.997282 -2.354134 1.937336 0.275393 -0.131011
    17 0.183107 0.290374 0.105331 1.626660 0.770791 -0.153497
    18 4.324081 2.744001 -0.524877 -1.090396 0.577049 -0.321829
    19 5.012512 3.752832 -0.011802 -1.090396 0.577049 -0.321829
    20 5.595486 4.607124 0.422674 -1.090396 0.577049 -0.321829
    21 6.233833 5.542564 0.898426 -1.090396 0.577049 -0.321829
    22 6.946648 6.587124 1.429667 -1.090396 0.577049 -0.321829
    23 7.537933 7.453606 1.870349 -1.090396 0.577049 -0.321829
    24 8.154472 8.357077 2.329839 -1.090396 0.577049 -0.321829
    25 8.874294 9.411907 2.866308 -1.090396 0.577049 -0.321829
    26 -4.125858 -2.321501 1.394414 2.051196 0.577049 -0.321829
    27 -4.826813 -3.348669 0.872014 2.051196 0.577049 -0.321829
    28 -5.441669 -4.249685 0.413772 2.051196 0.577049 -0.321829
    29 -0.552532 -1.343527 1.604446 -0.544663 0.347966 -0.348283
    30 0.552589 1.343534 -1.604463 -0.415180 0.312114 -0.422073
    31 0.000000 -2.021618 -0.000004 0.167344 0.000000 0.000000
    32 -0.000021 2.021633 0.000027 0.186809 0.000000 0.000000
    33 -0.000004 -1.136217 -0.000004 0.571208 0.000000 0.000000
    34 -0.000011 1.136200 -0.000019 -0.210112 0.000000 0.000000
    35 -0.032677 -4.587727 1.352317 3.425745 1.216154 2.484990
    36 0.032719 4.587772 -1.352291 2.844703 1.216154 2.484990
    37 0.000000 -1.754536 -0.000002 1.249255 0.000000 0.000000
    38 -0.000006 1.754520 -0.000034 0.662896 0.000000 0.000000
    39 0.000000 -1.227020 -0.000002 0.814847 0.000000 0.000000
    40 0.000002 1.227070 0.000032 0.092659 0.000000 0.000000
    41 -0.367996 -4.208406 0.173244 3.602262 1.091688 2.536231
    42 0.368011 4.208412 -0.173239 2.943027 1.091688 2.536231
    43 0.000000 -2.372318 -0.000004 1.510612 0.000000 0.000000
    44 -0.000006 2.372318 -0.000032 0.722081 0.000000 0.000000
    45 0.000004 -1.580070 -0.000001 0.822847 0.000000 0.000000
    46 -0.000002 1.580170 0.000030 0.034255 0.000000 0.000000
    47 -0.937645 -3.860697 -0.959317 3.701671 1.001841 2.581100
    48 0.937672 3.860714 0.959333 3.044206 1.001840 2.581100
    49 0.000000 -1.690632 0.000000 1.280083 0.000000 0.000000
    50 -0.000013 1.690666 0.000021 0.491549 0.000000 0.000000
    51 -0.000002 -1.423443 0.000002 1.022722 0.000000 0.000000
    52 0.000008 1.423420 0.000028 0.234212 0.000000 0.000000
    53 -1.546646 -3.404194 -1.915569 3.771137 0.727393 2.382452
    54 1.546661 3.404217 1.915585 3.024293 0.944156 2.514435
    55 0.000004 -1.437820 0.000000 1.213516 0.000000 0.000000
    56 -0.000021 1.437870 0.000031 0.424957 0.000000 0.000000
    57 -0.000002 -1.059402 0.000000 1.110630 0.000000 0.000000
    58 0.000006 1.059372 0.000008 0.322075 0.000000 0.000000
    59 -0.156259 -11.907982 -0.054693 0.021093 -0.283543 -0.112703
    60 0.160161 -10.813480 0.019528 3.129062 -0.571488 3.074873
  time 10
    0 0.000000 8.859375 -15.234375 -1.559900 -0.000006 -0.000006
    1 -8.653000 -22.135235 3.978734 -0.172502 -0.042859 0.461769
    2 0.000000 14.313023 0.000003 -0.487806 0.000000 0.000000
    3 -0.000011 13.013483 -0.000005 0.000000 0.000000 0.000000
    4 8.652996 -11.744277 -11.260009 2.239019 0.135135 -1.056827
    5 0.000000 -14.313034 0.000000 -1.927143 0.000000 0.000000
    6 -0.000004 -13.013485 -0.000004 -2.833967 -0.999941 2.763047
    7 -1.330879 -2.698427 0.462449 -0.194886 -0.547260 3.056712
    8 1.330910 2.698444 -0.462436 0.194890 0.547268 -0.084879
    9 0.000000 -0.000002 0.000002 0.000000 0.000000 0.000000
    10 3.556210 4.238403 0.987502 -1.090396 0.577049 -0.321829
    11 4.139183 5.092691 1.421975 -1.090396 0.577049 -0.321829
    12 4.777527 6.028128 1.897721 -1.090396 0.577049 -0.321829
    13 5.490345 7.072691 2.428969 -1.090396 0.577049 -0.321829
    14 6.566406 8.648438 3.230469 -1.090396 0.577049 -0.321829
    15 7.558525 6.997282 -2.354134 -1.937336 -0.275393 3.010581
    16 7.558525 6.997282 -2.354134 1.937336 0.275393 -0.131011
    17 0.116699 0.196621 0.148301 1.602873 0.635311 -0.167758
    18 4.324081 2.744001 -0.524877 -1.090396 0.577049 -0.321829
    19 5.012512 3.752832 -0.011802 -1.090396 0.577049 -0.321829
    20 5.595486 4.607124 0.422674 -1.090396 0.577049 -0.321829
    21 6.233833 5.542564 0.898426 -1.090396 0.577049 -0.321829
    22 6.946648 6.587124 1.429667 -1.090396 0.577049 -0.321829
    23 7.537933 7.453606 1.870349 -1.090396 0.577049 -0.321829
    24 8.154472 8.357077 2.329839 -1.090396 0.577049 -0.321829
    25 8.874294 9.411907 2.866308 -1.090396 0.577049 -0.321829
    26 -4.125858 -2.321501 1.394414 2.051196 0.577049 -0.321829
    27 -4.826813 -3.348669 0.872014 2.051196 0.577049 -0.321829
    28 -5.441669 -4.249685 0.413772 2.051196 0.577049 -0.321829
    29 -0.552532 -1.343527 1.604446 -0.484982 0.347966 -0.348283
    30 0.552589 1.343534 -1.604463 -0.415180 0.312114 -0.422073
    31 0.000000 -2.021618 -0.000004 0.196594 0.000000 0.000000
    32 -0.000021 2.021633 0.000027 0.186809 0.000000 0.000000
    33 -0.000004 -1.136217 -0.000004 0.637535 0.000000 0.000000
    34 -0.000011 1.136200 -0.000019 -0.210112 0.000000 0.000000
    35 -0.032677 -4.587727 1.352317 3.601195 1.216154 2.484990
    36 0.032719 4.587772 -1.352291 2.844703 1.216154 2.484990
    37 0.000000 -1.754536 -0.000002 1.421015 0.000000 0.000000
    38 -0.000006 1.754520 -0.000034 0.662896 0.000000 0.000000
    39 0.000000 -1.227020 -0.000002 0.890900 0.000000 0.000000
    40 0.000002 1.227070 0.000032 0.092659 0.000000 0.000000
    41 -0.367996 -4.208406 0.173244 3.722613 1.091688 2.536231
    42 0.368011 4.208412 -0.173239 2.943027 1.091688 2.536231
    43 0.000000 -2.372318 -0.000004 1.539920 0.000000 0.000000
    44 -0.000006 2.372318 -0.000032 0.722081 0.000000 0.000000
    45 0.000004 -1.580070 -0.000001 0.852122 0.000000 0.000000
    46 -0.000002 1.580170 0.000030 0.034255 0.000000 0.000000
    47 -0.937645 -3.860697 -0.959317 3.823280 1.001841 2.581100
    48 0.937672 3.860714 0.959333 3.044206 1.001840 2.581100
    49 0.000000 -1.690632 0.000000 1.309391 0.000000 0.000000
    50 -0.000013 1.690666 0.000021 0.491549 0.000000 0.000000
    51 -0.000002 -1.423443 0.000002 1.052029 0.000000 0.000000
    52 0.000008 1.423420 0.000028 0.234212 0.000000 0.000000
    53 -1.546646 -3.404194 -1.915569 3.800395 0.727393 2.382452
    54 1.546661 3.404217 1.915585 3.024293 0.944156 2.514435
    55 0.000004 -1.437820 0.000000 1.242832 0.000000 0.000000
    56 -0.000021 1.437870 0.000031 0.424957 0.000000 0.000000
    57 -0.000002 -1.059402 0.000000 1.139950 0.000000 0.000000
    58 0.000006 1.059372 0.000008 0.322075 0.000000 0.000000
    59 -0.148446 -11.794698 -0.054693 0.016838 -0.283819 -0.097542
    60 0.156255 -10.817387 0.019528 3.129062 -0.571488 3.074873
  time 11
    0 0.000000 8.859375 -15.234375 -1.559900 -0.000006 -0.000006
    1 -8.653000 -22.135235 3.978734 -0.172502 -0.042859 0.461769
    2 0.000000 14.313023 0.000003 -0.487806 0.000000 0.000000
    3 -0.000011 13.013483 -0.000005 0.000000 0.000000 0.000000
    4 8.652996 -11.744277 -11.260009 2.230975 0.122326 -1.063148
    5 0.000000 -14.313034 0.000000 -1.926963 0.000000 0.000000
    6 -0.000004 -13.013485 -0.000004 -2.893239 -0.946986 2.804618
    7 -1.330879 -2.698427 0.462449 -0.194886 -0.547260 3.056712
    8 1.330910 2.698444 -0.462436 0.194890 0.547268 -0.084879
    9 0.000000 -0.000002 0.000002 0.000000 0.000000 0.000000
    10 3.556210 4.238403 0.987502 -1.090396 0.577049 -0.321829
    11 4.139183 5.092691 1.421975 -1.090396 0.577049 -0.321829
    12 4.777527 6.028128 1.897721 -1.090396 0.577049 -0.321829
    13 5.490345 7.072691 2.428969 -1.090396 0.577049 -0.321829
    14 6.566406 8.648438 3.230469 -1.090396 0.577049 -0.321829
    15 7.558525 6.997282 -2.354134 -1.937336 -0.275393 3.010581
    16 7.558525 6.997282 -2.354134 1.937336 0.275393 -0.131011
    17 0.132324 0.247404 0.144395 1.573890 0.482026 -0.185294
    18 4.324081 2.744001 -0.524877 -1.090396 0.577049 -0.321829
    19 5.012512 3.752832 -0.011802 -1.090396 0.577049 -0.321829
    20 5.595486 4.607124 0.422674 -1.090396 0.577049 -0.321829
    21 6.233833 5.542564 0.898426 -1.090396 0.577049 -0.321829
    22 6.946648 6.587124 1.429667 -1.090396 0.577049 -0.321829
    23 7.537933 7.453606 1.870349 -1.090396 0.577049 -0.321829
    24 8.154472 8.357077 2.329839 -1.090396 0.577049 -0.321829
    25 8.874294 9.411907 2.866308 -1.090396 0.577049 -0.321829
    26 -4.125858 -2.321501 1.394414 2.051196 0.577049 -0.321829
    27 -4.826813 -3.348669 0.872014 2.051196 0.577049 -0.321829
    28 -5.441669 -4.249685 0.413772 2.051196 0.577049 -0.321829
    29 -0.552532 -1.343527 1.604446 -0.459972 0.347966 -0.348283
    30 0.552589 1.343534 -1.604463 -0.415180 0.312114 -0.422073
    31 0.000000 -2.021618 -0.000004 0.208862 0.000000 0.000000
    32 -0.000021 2.021633 0.000027 0.186809 0.000000 0.000000
    33 -0.000004 -1.136217 -0.000004 0.665354 0.000000 0.000000
    34 -0.000011 1.136200 -0.000019 -0.210112 0.000000 0.000000
    35 -0.032677 -4.587727 1.352317 3.674726 1.216154 2.484990
    36 0.032719 4.587772 -1.352291 2.844703 1.216154 2.484990
    37 0.000000 -1.754536 -0.000002 1.493029 0.000000 0.000000
    38 -0.000006 1.754520 -0.000034 0.662896 0.000000 0.000000
    39 0.000000 -1.227020 -0.000002 0.922818 0.000000 0.000000
    40 0.000002 1.227070 0.000032 0.092659 0.000000 0.000000
    41 -0.367996 -4.208406 0.173244 3.773088 1.091688 2.536231
    42 0.368011 4.208412 -0.173239 2.943027 1.091688 2.536231
    43 0.000000 -2.372318 -0.000004 1.552216 0.000000 0.000000
    44 -0.000006 2.372318 -0.000032 0.722081 0.000000 0.000000
    45 0.000004 -1.580070 -0.000001 0.864404 0.000000 0.000000
    46 -0.000002 1.580170 0.000030 0.034255 0.000000 0.000000
    47 -0.937645 -3.860697 -0.959317 3.874283 1.001841 2.581100
    48 0.937672 3.860714 0.959333 3.044206 1.001840 2.581100
    49 0.000000 -1.690632 0.000000 1.321654 0.000000 0.000000
    50 -0.000013 1.690666 0.000021 0.491549 0.000000 0.000000
    51 -0.000002 -1.423443 0.000002 1.064340 0.000000 0.000000
    52 0.000008 1.423420 0.000028 0.234212 0.000000 0.000000
    53 -1.546646 -3.404194 -1.915569 3.812670 0.727422 2.382452
    54 1.546661 3.404217 1.915585 3.024293 0.944156 2.514435
    55 0.000004 -1.437820 0.000000 1.255106 0.000000 0.000000
    56 -0.000021 1.437870 0.000031 0.424957 0.000000 0.000000
    57 -0.000002 -1.059402 0.000000 1.152192 0.000000 0.000000
    58 0.000006 1.059372 0.000008 0.322075 0.000000 0.000000
    59 -0.128914 -11.736102 -0.046880 0.011529 -0.284095 -0.078607
    60 0.160161 -10.813480 0.019528 3.129062 -0.571488 3.074873
  time 12
    0 0.000000 8.859375 -15.234375 -1.559900 -0.000006 -0.000006
    1 -8.653000 -22.135235 3.978734 -0.172502 -0.042859 0.461769
    2 0.000000 14.313023 0.000003 -0.487806 0.000000 0.000000
    3 -0.000011 13.013483 -0.000005 0.000000 0.000000 0.000000
    4 8.652996 -11.744277 -11.260009 2.227911 0.119673 -1.064393
    5 0.000000 -14.313034 0.000000 -1.926544 0.000000 0.000000
    6 -0.000004 -13.013485 -0.000004 -2.926208 -0.917657 2.827692
    7 -1.330879 -2.698427 0.462449 -0.194886 -0.547260 3.056712
    8 1.330910 2.698444 -0.462436 0.194890 0.547268 -0.084879
    9 0.000000 -0.000002 0.000002 0.000000 0.000000 0.000000
    10 3.556210 4.238403 0.987502 -1.090396 0.577049 -0.321829
    11 4.139183 5.092691 1.421975 -1.090396 0.577049 -0.321829
    12 4.777527 6.028128 1.897721 -1.090396 0.577049 -0.321829
    13 5.490345 7.072691 2.428969 -1.090396 0.577049 -0.321829
    14 6.566406 8.648438 3.230469 -1.090396 0.577049 -0.321829
    15 7.558525 6.997282 -2.354134 -1.937336 -0.275393 3.010581
    16 7.558525 6.997282 -2.354134 1.937336 0.275393 -0.131011
    17 0.159669 0.302093 0.136582 1.569258 0.482506 -0.188040
    18 4.324081 2.744001 -0.524877 -1.090396 0.577049 -0.321829
    19 5.012512 3.752832 -0.011802 -1.090396 0.577049 -0.321829
    20 5.595486 4.607124 0.422674 -1.090396 0.577049 -0.321829
    21 6.233833 5.542564 0.898426 -1.090396 0.577049 -0.321829
    22 6.946648 6.587124 1.429667 -1.090396 0.577049 -0.321829
    23 7.537933 7.453606 1.870349 -1.090396 0.577049 -0.321829
    24 8.154472 8.357077 2.329839 -1.090396 0.577049 -0.321829
    25 8.874294 9.411907 2.866308 -1.090396 0.577049 -0.321829
    26 -4.125858 -2.321501 1.394414 2.051196 0.577049 -0.321829
    27 -4.826813 -3.348669 0.872014 2.051196 0.577049 -0.321829
    28 -5.441669 -4.249685 0.413772 2.051196 0.577049 -0.321829
    29 -0.552532 -1.343527 1.604446 -0.461776 0.347966 -0.348283
    30 0.552589 1.343534 -1.604463 -0.415180 0.312114 -0.422073
    31 0.000000 -2.021618 -0.000004 0.206568 0.000000 0.000000
    32 -0.000021 2.021633 0.000027 0.186809 0.000000 0.000000
    33 -0.000004 -1.136217 -0.000004 0.663049 0.000000 0.000000
    34 -0.000011 1.136200 -0.000019 -0.210112 0.000000 0.000000
    35 -0.032677 -4.587727 1.352317 3.672556 1.216154 2.484990
    36 0.032719 4.587772 -1.352291 2.844703 1.216154 2.484990
    37 0.000000 -1.754536 -0.000002 1.490730 0.000000 0.000000
    38 -0.000006 1.754520 -0.000034 0.662896 0.000000 0.000000
    39 0.000000 -1.227020 -0.000002 0.920500 0.000000 0.000000
    40 0.000002 1.227070 0.000032 0.092659 0.000000 0.000000
    41 -0.367996 -4.208406 0.173244 3.770843 1.091688 2.536231
    42 0.368011 4.208412 -0.173239 2.943027 1.091688 2.536231
    43 0.000000 -2.372318 -0.000004 1.549918 0.000000 0.000000
    44 -0.000006 2.372318 -0.000032 0.722081 0.000000 0.000000
    45 0.000004 -1.580070 -0.000001 0.862113 0.000000 0.000000
    46 -0.000002 1.580170 0.000030 0.034255 0.000000 0.000000
    47 -0.937645 -3.860697 -0.959317 3.872053 1.001841 2.581100
    48 0.937672 3.860714 0.959333 3.044206 1.001840 2.581100
    49 0.000000 -1.690632 0.000000 1.319379 0.000000 0.000000
    50 -0.000013 1.690666 0.000021 0.491549 0.000000 0.000000
    51 -0.000002 -1.423443 0.000002 1.062052 0.000000 0.000000
    52 0.000008 1.423420 0.000028 0.234212 0.000000 0.000000
    53 -1.546646 -3.404194 -1.915569 3.810362 0.727393 2.382452
    54 1.546661 3.404217 1.915585 3.024293 0.944156 2.514435
    55 0.000004 -1.437820 0.000000 1.252793 0.000000 0.000000
    56 -0.000021 1.437870 0.000031 0.424957 0.000000 0.000000
    57 -0.000002 -1.059402 0.000000 1.149900 0.000000 0.000000
    58 0.000006 1.059372 0.000008 0.322075 0.000000 0.000000
    59 -0.101569 -11.728289 -0.039068 0.006675 -0.284251 -0.061289
    60 0.156255 -10.813480 0.019528 3.129062 -0.571488 3.074873
  time 13
    0 0.000000 8.859375 -15.234375 -1.559900 -0.000006 -0.000006
    1 -8.653000 -22.135235 3.978734 -0.172502 -0.042859 0.461769
    2 0.000000 14.313023 0.000003 -0.487806 0.000000 0.000000
    3 -0.000011 13.013483 -0.000005 0.000000 0.000000 0.000000
    4 8.652996 -11.744277 -11.260009 2.226187 0.119749 -1.064393
    5 0.000000 -14.313034 0.000000 -1.926006 0.000000 0.000000
    6 -0.000004 -13.013485 -0.000004 -2.940350 -0.905023 2.837608
    7 -1.330879 -2.698427 0.462449 -0.194886 -0.547260 3.056712
    8 1.330910 2.698444 -0.462436 0.194890 0.547268 -0.084879
    9 0.000000 -0.000002 0.000002 0.000000 0.000000 0.000000
    10 3.556210 4.238403 0.987502 -1.090396 0.577049 -0.321829
    11 4.139183 5.092691 1.421975 -1.090396 0.577049 -0.321829
    12 4.777527 6.028128 1.897721 -1.090396 0.577049 -0.321829
    13 5.490345 7.072691 2.428969 -1.090396 0.577049 -0.321829
    14 6.566406 8.648438 3.230469 -1.090396 0.577049 -0.321829
    15 7.558525 6.997282 -2.354134 -1.937336 -0.275393 3.010581
    16 7.558525 6.997282 -2.354134 1.937336 0.275393 -0.131011
    17 0.155762 0.356782 0.144395 1.571636 0.528146 -0.186456
    18 4.324081 2.744001 -0.524877 -1.090396 0.577049 -0.321829
    19 5.012512 3.752832 -0.011802 -1.090396 0.577049 -0.321829
    20 5.595486 4.607124 0.422674 -1.090396 0.577049 -0.321829
    21 6.233833 5.542564 0.898426 -1.090396 0.577049 -0.321829
    22 6.946648 6.587124 1.429667 -1.090396 0.577049 -0.321829
    23 7.537933 7.453606 1.870349 -1.090396 0.577049 -0.321829
    24 8.154472 8.357077 2.329839 -1.090396 0.577049 -0.321829
    25 8.874294 9.411907 2.866308 -1.090396 0.577049 -0.321829
    26 -4.125858 -2.321501 1.394414 2.051196 0.577049 -0.321829
    27 -4.826813 -3.348669 0.872014 2.051196 0.577049 -0.321829
    28 -5.441669 -4.249685 0.413772 2.051196 0.577049 -0.321829
    29 -0.552532 -1.343527 1.604446 -0.465659 0.347966 -0.348283
    30 0.552589 1.343534 -1.604463 -0.415180 0.312114 -0.422073
    31 0.000000 -2.021618 -0.000004 0.201097 0.000000 0.000000
    32 -0.000021 2.021633 0.000027 0.186809 0.000000 0.000000
    33 -0.000004 -1.136217 -0.000004 0.657552 0.000000 0.000000
    34 -0.000011 1.136200 -0.000019 -0.210112 0.000000 0.000000
    35 -0.032677 -4.587727 1.352317 3.667000 1.216154 2.484990
    36 0.032719 4.587772 -1.352291 2.844703 1.216154 2.484990
    37 0.000000 -1.754536 -0.000002 1.485248 0.000000 0.000000
    38 -0.000006 1.754520 -0.000034 0.662896 0.000000 0.000000
    39 0.000000 -1.227020 -0.000002 0.914995 0.000000 0.000000
    40 0.000002 1.227070 0.000032 0.092659 0.000000 0.000000
    41 -0.367996 -4.208406 0.173244 3.765364 1.091688 2.536231
    42 0.368011 4.208412 -0.173239 2.943027 1.091688 2.536231
    43 0.000000 -2.372318 -0.000004 1.544435 0.000000 0.000000
    44 -0.000006 2.372318 -0.000032 0.722081 0.000000 0.000000
    45 0.000004 -1.580070 -0.000001 0.856628 0.000000 0.000000
    46 -0.000002 1.580170 0.000030 0.034255 0.000000 0.000000
    47 -0.937645 -3.860697 -0.959317 3.866479 1.001841 2.581100
    48 0.937672 3.860714 0.959333 3.044206 1.001840 2.581100
    49 0.000000 -1.690632 0.000000 1.313903 0.000000 0.000000
    50 -0.000013 1.690666 0.000021 0.491549 0.000000 0.000000
    51 -0.000002 -1.423443 0.000002 1.056550 0.000000 0.000000
    52 0.000008 1.423420 0.000028 0.234212 0.000000 0.000000
    53 -1.546646 -3.404194 -1.915569 3.804917 0.727393 2.382452
    54 1.546661 3.404217 1.915585 3.024293 0.944156 2.514435
    55 0.000004 -1.437820 0.000000 1.247317 0.000000 0.000000
    56 -0.000021 1.437870 0.000031 0.424957 0.000000 0.000000
    57 -0.000002 -1.059402 0.000000 1.144450 0.000000 0.000000
    58 0.000006 1.059372 0.000008 0.322075 0.000000 0.000000
    59 -0.074225 -11.751728 -0.031255 0.003703 -0.284287 -0.050695
    60 0.160161 -10.817387 0.019528 3.129062 -0.571488 3.074873
  time 14
    0 0.000000 8.859375 -15.234375 -1.559900 -0.000006 -0.000006
    1 -8.653000 -22.135235 3.978734 -0.172502 -0.042859 0.461769
    2 0.000000 14.313023 0.000003 -0.487806 0.000000 0.000000
    3 -0.000011 13.013483 -0.000005 0.000000 0.000000 0.000000
    4 8.652996 -11.744277 -11.260009 2.224942 0.120848 -1.063914
    5 0.000000 -14.313034 0.000000 -1.925527 0.000000 0.000000
    6 -0.000004 -13.013485 -0.000004 -2.943413 -0.902241 2.839801
    7 -1.330879 -2.698427 0.462449 -0.194886 -0.547260 3.056712
    8 1.330910 2.698444 -0.462436 0.194890 0.547268 -0.084879
    9 0.000000 -0.000002 0.000002 0.000000 0.000000 0.000000
    10 3.556210 4.238403 0.987502 -1.090396 0.577049 -0.321829
    11 4.139183 5.092691 1.421975 -1.090396 0.577049 -0.321829
    12 4.777527 6.028128 1.897721 -1.090396 0.577049 -0.321829
    13 5.490345 7.072691 2.428969 -1.090396 0.577049 -0.321829
    14 6.566406 8.648438 3.230469 -1.090396 0.577049 -0.321829
    15 7.558525 6.997282 -2.354134 -1.937336 -0.275393 3.010581
    16 7.558525 6.997282 -2.354134 1.937336 0.275393 -0.131011
    17 0.151856 0.364595 0.148301 1.574015 0.557133 -0.185030
    18 4.324081 2.744001 -0.524877 -1.090396 0.577049 -0.321829
    19 5.012512 3.752832 -0.011802 -1.090396 0.577049 -0.321829
    20 5.595486 4.607124 0.422674 -1.090396 0.577049 -0.321829
    21 6.233833 5.542564 0.898426 -1.090396 0.577049 -0.321829
    22 6.946648 6.587124 1.429667 -1.090396 0.577049 -0.321829
    23 7.537933 7.453606 1.870349 -1.090396 0.577049 -0.321829
    24 8.154472 8.357077 2.329839 -1.090396 0.577049 -0.321829
    25 8.874294 9.411907 2.866308 -1.090396 0.577049 -0.321829
    26 -4.125858 -2.321501 1.394414 2.051196 0.577049 -0.321829
    27 -4.826813 -3.348669 0.872014 2.051196 0.577049 -0.321829
    28 -5.441669 -4.249685 0.413772 2.051196 0.577049 -0.321829
    29 -0.552532 -1.343527 1.604446 -0.469542 0.347966 -0.348283
    30 0.552589 1.343534 -1.604463 -0.415180 0.312114 -0.422073
    31 0.000000 -2.021618 -0.000004 0.194553 0.000000 0.000000
    32 -0.000021 2.021633 0.000027 0.186809 0.000000 0.000000
    33 -0.000004 -1.136217 -0.000004 0.651028 0.000000 0.000000
    34 -0.000011 1.136200 -0.000019 -0.210112 0.000000 0.000000
    35 -0.032677 -4.587727 1.352317 3.660402 1.216154 2.484990
    36 0.032719 4.587772 -1.352291 2.844703 1.216154 2.484990
    37 0.000000 -1.754536 -0.000002 1.478723 0.000000 0.000000
    38 -0.000006 1.754520 -0.000034 0.662896 0.000000 0.000000
    39 0.000000 -1.227020 -0.000002 0.908428 0.000000 0.000000
    40 0.000002 1.227070 0.000032 0.092659 0.000000 0.000000
    41 -0.367996 -4.208406 0.173244 3.758808 1.091688 2.536231
    42 0.368011 4.208412 -0.173239 2.943027 1.091688 2.536231
    43 0.000000 -2.372318 -0.000004 1.537864 0.000000 0.000000
    44 -0.000006 2.372318 -0.000032 0.722081 0.000000 0.000000
    45 0.000004 -1.580070 -0.000001 0.850088 0.000000 0.000000
    46 -0.000002 1.580170 0.000030 0.034255 0.000000 0.000000
    47 -0.937645 -3.860697 -0.959317 3.859976 1.001841 2.581100
    48 0.937672 3.860714 0.959333 3.044206 1.001840 2.581100
    49 0.000000 -1.690632 0.000000 1.307347 0.000000 0.000000
    50 -0.000013 1.690666 0.000021 0.491549 0.000000 0.000000
    51 -0.000002 -1.423443 0.000002 1.049959 0.000000 0.000000
    52 0.000008 1.423420 0.000028 0.234212 0.000000 0.000000
    53 -1.546646 -3.404194 -1.915569 3.798364 0.727422 2.382452
    54 1.546661 3.404217 1.915585 3.024293 0.944156 2.514435
    55 0.000004 -1.437820 0.000000 1.240802 0.000000 0.000000
    56 -0.000021 1.437870 0.000031 0.424957 0.000000 0.000000
    57 -0.000002 -1.059402 0.000000 1.137910 0.000000 0.000000
    58 0.000006 1.059372 0.000008 0.322075 0.000000 0.000000
    59 -0.050787 -11.786885 -0.023442 0.003416 -0.284287 -0.049592
    60 0.160161 -10.813480 0.019528 3.129062 -0.571488 3.074873
  time 15
    0 0.000000 8.859375 -15.234375 -1.559900 -0.000006 -0.000006
    1 -8.653000 -22.135235 3.978734 -0.172502 -0.042859 0.461769
    2 0.000000 14.313023 0.000003 -0.487806 0.000000 0.000000
    3 -0.000011 13.013483 -0.000005 0.000000 0.000000 0.000000
    4 8.652996 -11.744277 -11.260009 2.223793 0.122402 -1.063148
    5 0.000000 -14.313034 0.000000 -1.924869 0.000000 0.000000
    6 -0.000004 -13.013485 -0.000004 -2.943413 -0.902241 2.839801
    7 -1.330879 -2.698427 0.462449 -0.194886 -0.547260 3.056712
    8 1.330910 2.698444 -0.462436 0.194890 0.547268 -0.084879
    9 0.000000 -0.000002 0.000002 0.000000 0.000000 0.000000
    10 3.556210 4.238403 0.987502 -1.090396 0.577049 -0.321829
    11 4.139183 5.092691 1.421975 -1.090396 0.577049 -0.321829
    12 4.777527 6.028128 1.897721 -1.090396 0.577049 -0.321829
    13 5.490345 7.072691 2.428969 -1.090396 0.577049 -0.321829
    14 6.566406 8.648438 3.230469 -1.090396 0.577049 -0.321829
    15 7.558525 6.997282 -2.354134 -1.937336 -0.275393 3.010581
    16 7.558525 6.997282 -2.354134 1.937336 0.275393 -0.131011
    17 0.155762 0.368501 0.148301 1.574015 0.557133 -0.185030
    18 4.324081 2.744001 -0.524877 -1.090396 0.577049 -0.321829
    19 5.012512 3.752832 -0.011802 -1.090396 0.577049 -0.321829
    20 5.595486 4.607124 0.422674 -1.090396 0.577049 -0.321829
    21 6.233833 5.542564 0.898426 -1.090396 0.577049 -0.321829
    22 6.946648 6.587124 1.429667 -1.090396 0.577049 -0.321829
    23 7.537933 7.453606 1.870349 -1.090396 0.577049 -0.321829
    24 8.154472 8.357077 2.329839 -1.090396 0.577049 -0.321829
    25 8.874294 9.411907 2.866308 -1.090396 0.577049 -0.321829
    26 -4.125858 -2.321501 1.394414 2.051196 0.577049 -0.321829
    27 -4.826813 -3.348669 0.872014 2.051196 0.577049 -0.321829
    28 -5.441669 -4.249685 0.413772 2.051196 0.577049 -0.321829
    29 -0.552532 -1.343527 1.604446 -0.471315 0.347966 -0.348283
    30 0.552589 1.343534 -1.604463 -0.415180 0.312114 -0.422073
    31 0.000000 -2.021618 -0.000004 0.189103 0.000000 0.000000
    32 -0.000021 2.021633 0.000027 0.186809 0.000000 0.000000
    33 -0.000004 -1.136217 -0.000004 0.645559 0.000000 0.000000
    34 -0.000011 1.136200 -0.000019 -0.210112 0.000000 0.000000
    35 -0.032677 -4.587727 1.352317 3.655020 1.216154 2.484990
    36 0.032719 4.587772 -1.352291 2.844703 1.216154 2.484990
    37 0.000000 -1.754536 -0.000002 1.473241 0.000000 0.000000
    38 -0.000006 1.754520 -0.000034 0.662896 0.000000 0.000000
    39 0.000000 -1.227020 -0.000002 0.903020 0.000000 0.000000
    40 0.000002 1.227070 0.000032 0.092659 0.000000 0.000000
    41 -0.367996 -4.208406 0.173244 3.753329 1.091688 2.536231
    42 0.368011 4.208412 -0.173239 2.943027 1.091688 2.536231
    43 0.000000 -2.372318 -0.000004 1.532422 0.000000 0.000000
    44 -0.000006 2.372318 -0.000032 0.722081 0.000000 0.000000
    45 0.000004 -1.580070 -0.000001 0.844630 0.000000 0.000000
    46 -0.000002 1.580170 0.000030 0.034255 0.000000 0.000000
    47 -0.937645 -3.860697 -0.959317 3.854495 1.001841 2.581100
    48 0.937672 3.860714 0.959333 3.044206 1.001840 2.581100
    49 0.000000 -1.690632 0.000000 1.301871 0.000000 0.000000
    50 -0.000013 1.690666 0.000021 0.491549 0.000000 0.000000
    51 -0.000002 -1.423443 0.000002 1.044566 0.000000 0.000000
    52 0.000008 1.423420 0.000028 0.234212 0.000000 0.000000
    53 -1.546646 -3.404194 -1.915569 3.792826 0.727422 2.382452
    54 1.546661 3.404217 1.915585 3.024293 0.944156 2.514435
    55 0.000004 -1.437820 0.000000 1.235326 0.000000 0.000000
    56 -0.000021 1.437870 0.000031 0.424957 0.000000 0.000000
    57 -0.000002 -1.059402 0.000000 1.132404 0.000000 0.000000
    58 0.000006 1.059372 0.000008 0.322075 0.000000 0.000000
    59 -0.046880 -11.825949 -0.023442 0.004626 -0.284275 -0.053966
    60 0.160161 -10.817387 0.019528 3.129062 -0.571488 3.074873
  time 16
    0 0.000000 8.859375 -15.234375 -1.559900 -0.000006 -0.000006
    1 -8.653000 -22.135235 3.978734 -0.172502 -0.042859 0.461769
    2 0.000000 14.313023 0.000003 -0.487806 0.000000 0.000000
    3 -0.000011 13.013483 -0.000005 0.000000 0.000000 0.000000
    4 8.652996 -11.744277 -11.260009 2.222836 0.124031 -1.062382
    5 0.000000 -14.313034 0.000000 -1.924390 0.000000 0.000000
    6 -0.000004 -13.013485 -0.000004 -2.943413 -0.902241 2.839801
    7 -1.330879 -2.698427 0.462449 -0.194886 -0.547260 3.056712
    8 1.330910 2.698444 -0.462436 0.194890 0.547268 -0.084879
    9 0.000000 -0.000002 0.000002 0.000000 0.000000 0.000000
    10 3.556210 4.238403 0.987502 -1.090396 0.577049 -0.321829
    11 4.139183 5.092691 1.421975 -1.090396 0.577049 -0.321829
    12 4.777527 6.028128 1.897721 -1.090396 0.577049 -0.321829
    13 5.490345 7.072691 2.428969 -1.090396 0.577049 -0.321829
    14 6.566406 8.648438 3.230469 -1.090396 0.577049 -0.321829
    15 7.558525 6.997282 -2.354134 -1.937336 -0.275393 3.010581
    16 7.558525 6.997282 -2.354134 1.937336 0.275393 -0.131011
    17 0.151856 0.364595 0.148301 1.574015 0.557133 -0.184977
    18 4.324081 2.744001 -0.524877 -1.090396 0.577049 -0.321829
    19 5.012512 3.752832 -0.011802 -1.090396 0.577049 -0.321829
    20 5.595486 4.607124 0.422674 -1.090396 0.577049 -0.321829
    21 6.233833 5.542564 0.898426 -1.090396 0.577049 -0.321829
    22 6.946648 6.587124 1.429667 -1.090396 0.577049 -0.321829
    23 7.537933 7.453606 1.870349 -1.090396 0.577049 -0.321829
    24 8.154472 8.357077 2.329839 -1.090396 0.577049 -0.321829
    25 8.874294 9.411907 2.866308 -1.090396 0.577049 -0.321829
    26 -4.125858 -2.321501 1.394414 2.051196 0.577049 -0.321829
    27 -4.826813 -3.348669 0.872014 2.051196 0.577049 -0.321829
    28 -5.441669 -4.249685 0.413772 2.051196 0.577049 -0.321829
    29 -0.552532 -1.343527 1.604446 -0.471315 0.347966 -0.348283
    30 0.552589 1.343534 -1.604463 -0.415180 0.312114 -0.422073
    31 0.000000 -2.021618 -0.000004 0.186809 0.000000 0.000000
    32 -0.000021 2.021633 0.000027 0.186809 0.000000 0.000000
    33 -0.000004 -1.136217 -0.000004 0.643254 0.000000 0.000000
    34 -0.000011 1.136200 -0.000019 -0.210112 0.000000 0.000000
    35 -0.032677 -4.587727 1.352317 3.652676 1.216154 2.484990
    36 0.032719 4.587772 -1.352291 2.844703 1.216154 2.484990
    37 0.000000 -1.754536 -0.000002 1.470968 0.000000 0.000000
    38 -0.000006 1.754520 -0.000034 0.662896 0.000000 0.000000
    39 0.000000 -1.227020 -0.000002 0.900702 0.000000 0.000000
    40 0.000002 1.227070 0.000032 0.092659 0.000000 0.000000
    41 -0.367996 -4.208406 0.173244 3.750994 1.091688 2.536231
    42 0.368011 4.208412 -0.173239 2.943027 1.091688 2.536231
    43 0.000000 -2.372318 -0.000004 1.530124 0.000000 0.000000
    44 -0.000006 2.372318 -0.000032 0.722081 0.000000 0.000000
    45 0.000004 -1.580070 -0.000001 0.842338 0.000000 0.000000
    46 -0.000002 1.580170 0.000030 0.034255 0.000000 0.000000
    47 -0.937645 -3.860697 -0.959317 3.852265 1.001841 2.581100
    48 0.937672 3.860714 0.959333 3.044206 1.001840 2.581100
    49 0.000000 -1.690632 0.000000 1.299596 0.000000 0.000000
    50 -0.000013 1.690666 0.000021 0.491549 0.000000 0.000000
    51 -0.000002 -1.423443 0.000002 1.042278 0.000000 0.000000
    52 0.000008 1.423420 0.000028 0.234212 0.000000 0.000000
    53 -1.546646 -3.404194 -1.915569 3.790611 0.727422 2.382452
    54 1.546661 3.404217 1.915585 3.024293 0.944156 2.514435
    55 0.000004 -1.437820 0.000000 1.233013 0.000000 0.000000
    56 -0.000021 1.437870 0.000031 0.424957 0.000000 0.000000
    57 -0.000002 -1.059402 0.000000 1.130112 0.000000 0.000000
    58 0.000006 1.059372 0.000008 0.322075 0.000000 0.000000
    59 -0.046880 -11.845481 -0.023442 0.006675 -0.284251 -0.061265
    60 0.156255 -10.817387 0.019528 3.129062 -0.571488 3.074873
  time 17
    0 0.000000 8.859375 -15.234375 -1.559900 -0.000006 -0.000006
    1 -8.653000 -22.135235 3.978734 -0.172502 -0.042859 0.461769
    2 0.000000 14.313023 0.000003 -0.487806 0.000000 0.000000
    3 -0.000011 13.013483 -0.000005 0.000000 0.000000 0.000000
    4 8.652996 -11.744277 -11.260009 2.221974 0.125585 -1.061520
    5 0.000000 -14.313034 0.000000 -1.923792 0.000000 0.000000
    6 -0.000004 -13.013485 -0.000004 -2.943413 -0.902241 2.839801
    7 -1.330879 -2.698427 0.462449 -0.194886 -0.547260 3.056712
    8 1.330910 2.698444 -0.462436 0.194890 0.547268 -0.084879
    9 0.000000 -0.000002 0.000002 0.000000 0.000000 0.000000
    10 3.556210 4.238403 0.987502 -1.090396 0.577049 -0.321829
    11 4.139183 5.092691 1.421975 -1.090396 0.577049 -0.321829
    12 4.777527 6.028128 1.897721 -1.090396 0.577049 -0.321829
    13 5.490345 7.072691 2.428969 -1.090396 0.577049 -0.321829
    14 6.566406 8.648438 3.230469 -1.090396 0.577049 -0.321829
    15 7.558525 6.997282 -2.354134 -1.937336 -0.275393 3.010581
    16 7.558525 6.997282 -2.354134 1.937336 0.275393 -0.131011
    17 0.151856 0.368501 0.148301 1.574015 0.557133 -0.185030
    18 4.324081 2.744001 -0.524877 -1.090396 0.577049 -0.321829
    19 5.012512 3.752832 -0.011802 -1.090396 0.577049 -0.321829
    20 5.595486 4.607124 0.422674 -1.090396 0.577049 -0.321829
    21 6.233833 5.542564 0.898426 -1.090396 0.577049 -0.321829
    22 6.946648 6.587124 1.429667 -1.090396 0.577049 -0.321829
    23 7.537933 7.453606 1.870349 -1.090396 0.577049 -0.321829
    24 8.154472 8.357077 2.329839 -1.090396 0.577049 -0.321829
    25 8.874294 9.411907 2.866308 -1.090396 0.577049 -0.321829
    26 -4.125858 -2.321501 1.394414 2.051196 0.577049 -0.321829
    27 -4.826813 -3.348669 0.872014 2.051196 0.577049 -0.321829
    28 -5.441669 -4.249685 0.413772 2.051196 0.577049 -0.321829
    29 -0.552532 -1.343527 1.604446 -0.471284 0.347966 -0.348283
    30 0.552589 1.343534 -1.604463 -0.415180 0.312114 -0.422073
    31 0.000000 -2.021618 -0.000004 0.186809 0.000000 0.000000
    32 -0.000021 2.021633 0.000027 0.186809 0.000000 0.000000
    33 -0.000004 -1.136217 -0.000004 0.643254 0.000000 0.000000
    34 -0.000011 1.136200 -0.000019 -0.210112 0.000000 0.000000
    35 -0.032677 -4.587727 1.352317 3.652676 1.216154 2.484990
    36 0.032719 4.587772 -1.352291 2.844703 1.216154 2.484990
    37 0.000000 -1.754536 -0.000002 1.470968 0.000000 0.000000
    38 -0.000006 1.754520 -0.000034 0.662896 0.000000 0.000000
    39 0.000000 -1.227020 -0.000002 0.900702 0.000000 0.000000
    40 0.000002 1.227070 0.000032 0.092659 0.000000 0.000000
    41 -0.367996 -4.208406 0.173244 3.750994 1.091688 2.536231
    42 0.368011 4.208412 -0.173239 2.943027 1.091688 2.536231
    43 0.000000 -2.372318 -0.000004 1.530124 0.000000 0.000000
    44 -0.000006 2.372318 -0.000032 0.722081 0.000000 0.000000
    45 0.000004 -1.580070 -0.000001 0.842312 0.000000 0.000000
    46 -0.000002 1.580170 0.000030 0.034255 0.000000 0.000000
    47 -0.937645 -3.860697 -0.959317 3.852265 1.001841 2.581100
    48 0.937672 3.860714 0.959333 3.044206 1.001840 2.581100
    49 0.000000 -1.690632 0.000000 1.299596 0.000000 0.000000
    50 -0.000013 1.690666 0.000021 0.491549 0.000000 0.000000
    51 -0.000002 -1.423443 0.000002 1.042278 0.000000 0.000000
    52 0.000008 1.423420 0.000028 0.234212 0.000000 0.000000
    53 -1.546646 -3.404194 -1.915569 3.790611 0.727422 2.382452
    54 1.546661 3.404217 1.915585 3.024293 0.944156 2.514435
    55 0.000004 -1.437820 0.000000 1.233013 0.000000 0.000000
    56 -0.000021 1.437870 0.000031 0.424957 0.000000 0.000000
    57 -0.000002 -1.059402 0.000000 1.130112 0.000000 0.000000
    58 0.000006 1.059372 0.000008 0.322075 0.000000 0.000000
    59 -0.046880 -11.861106 -0.023442 0.009000 -0.284179 -0.069558
    60 0.160161 -10.813480 0.019528 3.129062 -0.571488 3.074873
  time 18
    0 0.000000 8.859375 -15.234375 -1.559900 -0.000006 -0.000006
    1 -8.653000 -22.135235 3.978734 -0.172502 -0.042859 0.461769
    2 0.000000 14.313023 0.000003 -0.487806 0.000000 0.000000
    3 -0.000011 13.013483 -0.000005 0.000000 0.000000 0.000000
    4 8.652996 -11.744277 -11.260009 2.221303 0.126987 -1.060753
    5 0.000000 -14.313034 0.000000 -1.923373 0.000000 0.000000
    6 -0.000004 -13.013485 -0.000004 -2.943413 -0.902241 2.839801
    7 -1.330879 -2.698427 0.462449 -0.194886 -0.547260 3.056712
    8 1.330910 2.698444 -0.462436 0.194890 0.547268 -0.084879
    9 0.000000 -0.000002 0.000002 0.000000 0.000000 0.000000
    10 3.556210 4.238403 0.987502 -1.090396 0.577049 -0.321829
    11 4.139183 5.092691 1.421975 -1.090396 0.577049 -0.321829
    12 4.777527 6.028128 1.897721 -1.090396 0.577049 -0.321829
    13 5.490345 7.072691 2.428969 -1.090396 0.577049 -0.321829
    14 6.566406 8.648438 3.230469 -1.090396 0.577049 -0.321829
    15 7.558525 6.997282 -2.354134 -1.937336 -0.275393 3.010581
    16 7.558525 6.997282 -2.354134 1.937336 0.275393 -0.131011
    17 0.155762 0.364595 0.148301 1.574015 0.557133 -0.184977
    18 4.324081 2.744001 -0.524877 -1.090396 0.577049 -0.321829
    19 5.012512 3.752832 -0.011802 -1.090396 0.577049 -0.321829
    20 5.595486 4.607124 0.422674 -1.090396 0.577049 -0.321829
    21 6.233833 5.542564 0.898426 -1.090396 0.577049 -0.321829
    22 6.946648 6.587124 1.429667 -1.090396 0.577049 -0.321829
    23 7.537933 7.453606 1.870349 -1.090396 0.577049 -0.321829
    24 8.154472 8.357077 2.329839 -1.090396 0.577049 -0.321829
    25 8.874294 9.411907 2.866308 -1.090396 0.577049 -0.321829
    26 -4.125858 -2.321501 1.394414 2.051196 0.577049 -0.321829
    27 -4.826813 -3.348669 0.872014 2.051196 0.577049 -0.321829
    28 -5.441669 -4.249685 0.413772 2.051196 0.577049 -0.321829
    29 -0.552532 -1.343527 1.604446 -0.471315 0.347966 -0.348283
    30 0.552589 1.343534 -1.604463 -0.415180 0.312114 -0.422073
    31 0.000000 -2.021618 -0.000004 0.186809 0.000000 0.000000
    32 -0.000021 2.021633 0.000027 0.186809 0.000000 0.000000
    33 -0.000004 -1.136217 -0.000004 0.643254 0.000000 0.000000
    34 -0.000011 1.136200 -0.000019 -0.210112 0.000000 0.000000
    35 -0.032677 -4.587727 1.352317 3.652676 1.216154 2.484990
    36 0.032719 4.587772 -1.352291 2.844703 1.216154 2.484990
    37 0.000000 -1.754536 -0.000002 1.470968 0.000000 0.000000
    38 -0.000006 1.754520 -0.000034 0.662896 0.000000 0.000000
    39 0.000000 -1.227020 -0.000002 0.900702 0.000000 0.000000
    40 0.000002 1.227070 0.000032 0.092659 0.000000 0.000000
    41 -0.367996 -4.208406 0.173244 3.750994 1.091688 2.536231
    42 0.368011 4.208412 -0.173239 2.943027 1.091688 2.536231
    43 0.000000 -2.372318 -0.000004 1.530124 0.000000 0.000000
    44 -0.000006 2.372318 -0.000032 0.722081 0.000000 0.000000
    45 0.000004 -1.580070 -0.000001 0.842312 0.000000 0.000000
    46 -0.000002 1.580170 0.000030 0.034255 0.000000 0.000000
    47 -0.937645 -3.860697 -0.959317 3.852265 1.001841 2.581100
    48 0.937672 3.860714 0.959333 3.044206 1.001840 2.581100
    49 0.000000 -1.690632 0.000000 1.299596 0.000000 0.000000
    50 -0.000013 1.690666 0.000021 0.491549 0.000000 0.000000
    51 -0.000002 -1.423443 0.000002 1.042278 0.000000 0.000000
    52 0.000008 1.423420 0.000028 0.234212 0.000000 0.000000
    53 -1.546646 -3.404194 -1.915569 3.790611 0.727422 2.382452
    54 1.546661 3.404217 1.915585 3.024293 0.944156 2.514435
    55 0.000004 -1.437820 0.000000 1.233013 0.000000 0.000000
    56 -0.000021 1.437870 0.000031 0.424957 0.000000 0.000000
    57 -0.000002 -1.059402 0.000000 1.130112 0.000000 0.000000
    58 0.000006 1.059372 0.000008 0.322075 0.000000 0.000000
    59 -0.046880 -11.868919 -0.023442 0.010271 -0.284143 -0.074053
    60 0.156255 -10.813480 0.019528 3.129062 -0.571488 3.074873
  time 19
    0 0.000000 8.859375 -15.234375 -1.559900 -0.000006 -0.000006
    1 -8.653000 -22.135235 3.978734 -0.172502 -0.042859 0.461769
    2 0.000000 14.313023 0.000003 -0.487806 0.000000 0.000000
    3 -0.000011 13.013483 -0.000005 0.000000 0.000000 0.000000
    4 8.652996 -11.744277 -11.260009 2.220825 0.128011 -1.060275
    5 0.000000 -14.313034 0.000000 -1.923073 0.000000 0.000000
    6 -0.000004 -13.013485 -0.000004 -2.943413 -0.902241 2.839801
    7 -1.330879 -2.698427 0.462449 -0.194886 -0.547260 3.056712
    8 1.330910 2.698444 -0.462436 0.194890 0.547268 -0.084879
    9 0.000000 -0.000002 0.000002 0.000000 0.000000 0.000000
    10 3.556210 4.238403 0.987502 -1.090396 0.577049 -0.321829
    11 4.139183 5.092691 1.421975 -1.090396 0.577049 -0.321829
    12 4.777527 6.028128 1.897721 -1.090396 0.577049 -0.321829
    13 5.490345 7.072691 2.428969 -1.090396 0.577049 -0.321829
    14 6.566406 8.648438 3.230469 -1.090396 0.577049 -0.321829
    15 7.558525 6.997282 -2.354134 -1.937336 -0.275393 3.010581
    16 7.558525 6.997282 -2.354134 1.937336 0.275393 -0.131011
    17 0.151856 0.364595 0.148301 1.574015 0.557133 -0.185030
    18 4.324081 2.744001 -0.524877 -1.090396 0.577049 -0.321829
    19 5.012512 3.752832 -0.011802 -1.090396 0.577049 -0.321829
    20 5.595486 4.607124 0.422674 -1.090396 0.577049 -0.321829
    21 6.233833 5.542564 0.898426 -1.090396 0.577049 -0.321829
    22 6.946648 6.587124 1.429667 -1.090396 0.577049 -0.321829
    23 7.537933 7.453606 1.870349 -1.090396 0.577049 -0.321829
    24 8.154472 8.357077 2.329839 -1.090396 0.577049 -0.321829
    25 8.874294 9.411907 2.866308 -1.090396 0.577049 -0.321829
    26 -4.125858 -2.321501 1.394414 2.051196 0.577049 -0.321829
    27 -4.826813 -3.348669 0.872014 2.051196 0.577049 -0.321829
    28 -5.441669 -4.249685 0.413772 2.051196 0.577049 -0.321829
    29 -0.552532 -1.343527 1.604446 -0.471315 0.347966 -0.348283
    30 0.552589 1.343534 -1.604463 -0.415180 0.312114 -0.422073
    31 0.000000 -2.021618 -0.000004 0.186809 0.000000 0.000000
    32 -0.000021 2.021633 0.000027 0.186809 0.000000 0.000000
    33 -0.000004 -1.136217 -0.000004 0.643254 0.000000 0.000000
    34 -0.000011 1.136200 -0.000019 -0.210112 0.000000 0.000000
    35 -0.032677 -4.587727 1.352317 3.652676 1.216154 2.484990
    36 0.032719 4.587772 -1.352291 2.844703 1.216154 2.484990
    37 0.000000 -1.754536 -0.000002 1.470968 0.000000 0.000000
    38 -0.000006 1.754520 -0.000034 0.662896 0.000000 0.000000
    39 0.000000 -1.227020 -0.000002 0.900702 0.000000 0.000000
    40 0.000002 1.227070 0.000032 0.092659 0.000000 0.000000
    41 -0.367996 -4.208406 0.173244 3.750994 1.091688 2.536231
    42 0.368011 4.208412 -0.173239 2.943027 1.091688 2.536231
    43 0.000000 -2.372318 -0.000004 1.530124 0.000000 0.000000
    44 -0.000006 2.372318 -0.000032 0.722081 0.000000 0.000000
    45 0.000004 -1.580070 -0.000001 0.842338 0.000000 0.000000
    46 -0.000002 1.580170 0.000030 0.034255 0.000000 0.000000
    47 -0.937645 -3.860697 -0.959317 3.852265 1.001841 2.581100
    48 0.937672 3.860714 0.959333 3.044206 1.001840 2.581100
    49 0.000000 -1.690632 0.000000 1.299596 0.000000 0.000000
    50 -0.000013 1.690666 0.000021 0.491549 0.000000 0.000000
    51 -0.000002 -1.423443 0.000002 1.042278 0.000000 0.000000
    52 0.000008 1.423420 0.000028 0.234212 0.000000 0.000000
    53 -1.546646 -3.404194 -1.915569 3.790611 0.727422 2.382452
    54 1.546661 3.404217 1.915585 3.024293 0.944156 2.514435
    55 0.000004 -1.437820 0.000000 1.233013 0.000000 0.000000
    56 -0.000021 1.437870 0.000031 0.424957 0.000000 0.000000
    57 -0.000002 -1.059402 0.000000 1.130112 0.000000 0.000000
    58 0.000006 1.059372 0.000008 0.322075 0.000000 0.000000
    59 -0.046880 -11.872825 -0.023442 0.010774 -0.284119 -0.075898
    60 0.156255 -10.817387 0.019528 3.129062 -0.571488 3.074873
  time 20
    0 0.000000 8.859375 -15.234375 -1.559900 -0.000006 -0.000006
    1 -8.653000 -22.135235 3.978734 -0.172502 -0.042859 0.461769
    2 0.000000 14.313023 0.000003 -0.487806 0.000000 0.000000
    3 -0.000011 13.013483 -0.000005 0.000000 0.000000 0.000000
    4 8.652996 -11.744277 -11.260009 2.220537 0.128465 -1.060179
    5 0.000000 -14.313034 0.000000 -1.922954 0.000000 0.000000
    6 -0.000004 -13.013485 -0.000004 -2.943413 -0.902241 2.839801
    7 -1.330879 -2.698427 0.462449 -0.194886 -0.547260 3.056712
    8 1.330910 2.698444 -0.462436 0.194890 0.547268 -0.084879
    9 0.000000 -0.000002 0.000002 0.000000 0.000000 0.000000
    10 3.556210 4.238403 0.987502 -1.090396 0.577049 -0.321829
    11 4.139183 5.092691 1.421975 -1.090396 0.577049 -0.321829
    12 4.777527 6.028128 1.897721 -1.090396 0.577049 -0.321829
    13 5.490345 7.072691 2.428969 -1.090396 0.577049 -0.321829
    14 6.566406 8.648438 3.230469 -1.090396 0.577049 -0.321829
    15 7.558525 6.997282 -2.354134 -1.937336 -0.275393 3.010581
    16 7.558525 6.997282 -2.354134 1.937336 0.275393 -0.131011
    17 0.151856 0.364595 0.148301 1.574015 0.557133 -0.185030
    18 4.324081 2.744001 -0.524877 -1.090396 0.577049 -0.321829
    19 5.012512 3.752832 -0.011802 -1.090396 0.577049 -0.321829
    20 5.595486 4.607124 0.422674 -1.090396 0.577049 -0.321829
    21 6.233833 5.542564 0.898426 -1.090396 0.577049 -0.321829
    22 6.946648 6.587124 1.429667 -1.090396 0.577049 -0.321829
    23 7.537933 7.453606 1.870349 -1.090396 0.577049 -0.321829
    24 8.154472 8.357077 2.329839 -1.090396 0.577049 -0.321829
    25 8.874294 9.411907 2.866308 -1.090396 0.577049 -0.321829
    26 -4.125858 -2.321501 1.394414 2.051196 0.577049 -0.321829
    27 -4.826813 -3.348669 0.872014 2.051196 0.577049 -0.321829
    28 -5.441669 -4.249685 0.413772 2.051196 0.577049 -0.321829
    29 -0.552532 -1.343527 1.604446 -0.471315 0.347966 -0.348283
    30 0.552589 1.343534 -1.604463 -0.415180 0.312114 -0.422073
    31 0.000000 -2.021618 -0.000004 0.186809 0.000000 0.000000
    32 -0.000021 2.021633 0.000027 0.186809 0.000000 0.000000
    33 -0.000004 -1.136217 -0.000004 0.643254 0.000000 0.000000
    34 -0.000011 1.136200 -0.000019 -0.210112 0.000000 0.000000
    35 -0.032677 -4.587727 1.352317 3.652676 1.216154 2.484990
    36 0.032719 4.587772 -1.352291 2.844703 1.216154 2.484990
    37 0.000000 -1.754536 -0.000002 1.470968 0.000000 0.000000
    38 -0.000006 1.754520 -0.000034 0.662896 0.000000 0.000000
    39 0.000000 -1.227020 -0.000002 0.900702 0.000000 0.000000
    40 0.000002 1.227070 0.000032 0.092659 0.000000 0.000000
    41 -0.367996 -4.208406 0.173244 3.750994 1.091688 2.536231
    42 0.368011 4.208412 -0.173239 2.943027 1.091688 2.536231
    43 0.000000 -2.372318 -0.000004 1.530124 0.000000 0.000000
    44 -0.000006 2.372318 -0.000032 0.722081 0.000000 0.000000
    45 0.000004 -1.580070 -0.000001 0.842338 0.000000 0.000000
    46 -0.000002 1.580170 0.000030 0.034255 0.000000 0.000000
    47 -0.937645 -3.860697 -0.959317 3.852265 1.001841 2.581100
    48 0.937672 3.860714 0.959333 3.044206 1.001840 2.581100
    49 0.000000 -1.690632 0.000000 1.299596 0.000000 0.000000
    50 -0.000013 1.690666 0.000021 0.491549 0.000000 0.000000
    51 -0.000002 -1.423443 0.000002 1.042278 0.000000 0.000000
    52 0.000008 1.423420 0.000028 0.234212 0.000000 0.000000
    53 -1.546646 -3.404194 -1.915569 3.790611 0.727393 2.382452
    54 1.546661 3.404217 1.915585 3.024293 0.944156 2.514435
    55 0.000004 -1.437820 0.000000 1.233013 0.000000 0.000000
    56 -0.000021 1.437870 0.000031 0.424957 0.000000 0.000000
    57 -0.000002 -1.059402 0.000000 1.130112 0.000000 0.000000
    58 0.000006 1.059372 0.000008 0.322075 0.000000 0.000000
    59 -0.046880 -11.868919 -0.023442 0.010930 -0.284119 -0.076426
    60 0.156255 -10.813480 0.019528 3.129062 -0.571488 3.074873
end
