// Created by Crowbar 0.74
version 1
nodes
  0 "root" -1
  1 "bip_upperArm_R" 0
  2 "bip_lowerArm_R" 1
  3 "bip_hand_R" 2
  4 "bip_upperArm_L" 0
  5 "bip_lowerArm_L" 4
  6 "bip_hand_L" 5
  7 "effect_hand_L" 6
  8 "effect_hand_R" 3
  9 "weapon_bone" 3
  10 "weapon_bone_1" 3
  11 "weapon_bone_2" 3
  12 "weapon_bone_3" 3
  13 "weapon_bone_4" 3
  14 "weapon_bone_5" 3
  15 "weapon_bone_6" 3
  16 "weapon_bone_7" 3
  17 "weapon_bone_L" 6
  18 "vm_weapon_bone" 3
  19 "vm_weapon_bone_1" 3
  20 "vm_weapon_bone_2" 3
  21 "vm_weapon_bone_3" 3
  22 "vm_weapon_bone_4" 3
  23 "vm_weapon_bone_5" 3
  24 "vm_weapon_bone_6" 3
  25 "vm_weapon_bone_7" 3
  26 "vm_weapon_bone_L" 6
  27 "vm_weapon_bone_L_1" 6
  28 "vm_weapon_bone_L_2" 6
  29 "bip_thumb_0_L" 6
  30 "bip_thumb_0_R" 3
  31 "bip_thumb_1_L" 29
  32 "bip_thumb_1_R" 30
  33 "bip_thumb_2_L" 31
  34 "bip_thumb_2_R" 32
  35 "bip_index_0_L" 6
  36 "bip_index_0_R" 3
  37 "bip_index_1_L" 35
  38 "bip_index_1_R" 36
  39 "bip_index_2_L" 37
  40 "bip_index_2_R" 38
  41 "bip_middle_0_L" 6
  42 "bip_middle_0_R" 3
  43 "bip_middle_1_L" 41
  44 "bip_middle_1_R" 42
  45 "bip_middle_2_L" 43
  46 "bip_middle_2_R" 44
  47 "bip_ring_0_L" 6
  48 "bip_ring_0_R" 3
  49 "bip_ring_1_L" 47
  50 "bip_ring_1_R" 48
  51 "bip_ring_2_L" 49
  52 "bip_ring_2_R" 50
  53 "bip_pinky_0_L" 6
  54 "bip_pinky_0_R" 3
  55 "bip_pinky_1_L" 53
  56 "bip_pinky_1_R" 54
  57 "bip_pinky_2_L" 55
  58 "bip_pinky_2_R" 56
  59 "Sleeve_Control" 5
  60 "Wrist_Control" 5
end
skeleton
  time 0
    0 0.000000 8.859375 -15.234375 -1.559900 -0.000006 -0.000006
    1 -8.653000 -22.135235 3.978734 -0.172502 -0.042859 0.461769
    2 0.000000 14.313023 0.000003 -0.487806 0.000000 0.000000
    3 -0.000011 13.013483 -0.000005 0.000000 0.000000 0.000000
    4 8.652996 -11.744277 -11.260009 2.220537 0.128428 -1.060179
    5 0.000000 -14.313034 0.000000 -1.922954 0.000000 0.000000
    6 -0.000004 -13.013485 -0.000004 -2.943503 -0.902469 2.839706
    7 -1.330879 -2.698427 0.462449 -0.194886 -0.547260 3.056712
    8 1.330910 2.698444 -0.462436 0.194890 0.547268 -0.084879
    9 0.000000 -0.000002 0.000002 0.000000 0.000000 0.000000
    10 3.556210 4.238403 0.987502 -1.090396 0.577049 -0.321829
    11 4.139183 5.092691 1.421975 -1.090396 0.577049 -0.321829
    12 4.777527 6.028128 1.897721 -1.090396 0.577049 -0.321829
    13 5.490345 7.072691 2.428969 -1.090396 0.577049 -0.321829
    14 6.566406 8.648438 3.230469 -1.090396 0.577049 -0.321829
    15 7.558525 6.997282 -2.354134 -1.937336 -0.275393 3.010581
    16 7.558525 6.997282 -2.354134 1.937336 0.275393 -0.131011
    17 0.151856 0.368501 0.152207 1.574015 0.557133 -0.184977
    18 4.324081 2.744001 -0.524877 -1.090396 0.577049 -0.321829
    19 5.012512 3.752832 -0.011802 -1.090396 0.577049 -0.321829
    20 5.595486 4.607124 0.422674 -1.090396 0.577049 -0.321829
    21 6.233833 5.542564 0.898426 -1.090396 0.577049 -0.321829
    22 6.946648 6.587124 1.429667 -1.090396 0.577049 -0.321829
    23 7.537933 7.453606 1.870349 -1.090396 0.577049 -0.321829
    24 8.154472 8.357077 2.329839 -1.090396 0.577049 -0.321829
    25 8.874294 9.411907 2.866308 -1.090396 0.577049 -0.321829
    26 -4.125858 -2.321501 1.394414 2.051196 0.577049 -0.321829
    27 -4.826813 -3.348669 0.872014 2.051196 0.577049 -0.321829
    28 -5.441669 -4.249685 0.413772 2.051196 0.577049 -0.321829
    29 -0.552532 -1.343527 1.604446 -0.471321 0.347995 -0.348250
    30 0.552589 1.343534 -1.604463 -0.415180 0.312114 -0.422073
    31 0.000000 -2.021618 -0.000004 0.186809 0.000000 0.000000
    32 -0.000021 2.021633 0.000027 0.186809 0.000000 0.000000
    33 -0.000004 -1.136217 -0.000004 0.643272 0.000000 0.000000
    34 -0.000011 1.136200 -0.000019 -0.210112 0.000000 0.000000
    35 -0.032677 -4.587727 1.352317 -2.630402 1.216163 2.484989
    36 0.032719 4.587772 -1.352291 2.844703 1.216154 2.484990
    37 0.000000 -1.754536 -0.000002 1.470977 0.000000 0.000000
    38 -0.000006 1.754520 -0.000034 0.662896 0.000000 0.000000
    39 0.000000 -1.227020 -0.000002 0.900744 0.000000 0.000000
    40 0.000002 1.227070 0.000032 0.092659 0.000000 0.000000
    41 -0.367996 -4.208406 0.173244 -2.532076 1.091700 2.536232
    42 0.368011 4.208412 -0.173239 2.943027 1.091688 2.536231
    43 0.000000 -2.372318 -0.000004 1.530164 0.000000 0.000000
    44 -0.000006 2.372318 -0.000032 0.722081 0.000000 0.000000
    45 0.000004 -1.580070 -0.000001 0.842338 0.000000 0.000000
    46 -0.000002 1.580170 0.000030 0.034255 0.000000 0.000000
    47 -0.937645 -3.860697 -0.959317 -2.430895 1.001855 2.581106
    48 0.937672 3.860714 0.959333 3.044206 1.001840 2.581100
    49 0.000000 -1.690632 0.000000 1.299633 0.000000 0.000000
    50 -0.000013 1.690666 0.000021 0.491549 0.000000 0.000000
    51 -0.000002 -1.423443 0.000002 1.042296 0.000000 0.000000
    52 0.000008 1.423420 0.000028 0.234212 0.000000 0.000000
    53 -1.546646 -3.404194 -1.915569 3.790611 0.727393 2.382452
    54 1.546661 3.404217 1.915585 3.024293 0.944156 2.514435
    55 0.000004 -1.437820 0.000000 1.233042 0.000000 0.000000
    56 -0.000021 1.437870 0.000031 0.424957 0.000000 0.000000
    57 -0.000002 -1.059402 0.000000 1.130157 0.000000 0.000000
    58 0.000006 1.059372 0.000008 0.322075 0.000000 0.000000
    59 -0.054352 -11.867188 -0.028397 0.010936 -0.284123 -0.076428
    60 0.161133 -10.804688 0.023087 3.129114 -0.571516 3.074983
  time 1
    0 0.000000 8.859375 -15.234375 -1.559900 -0.000006 -0.000006
    1 -8.653000 -22.135235 3.978734 -0.172502 -0.042859 0.461769
    2 0.000000 14.313023 0.000003 -0.487806 0.000000 0.000000
    3 -0.000011 13.013483 -0.000005 0.000000 0.000000 0.000000
    4 8.652996 -11.744277 -11.260009 2.207322 0.113572 -1.067457
    5 0.000000 -14.313034 0.000000 -1.921218 0.000000 0.000000
    6 -0.000004 -13.013485 -0.000004 -2.951700 -0.963543 2.808528
    7 -1.330879 -2.698427 0.462449 -0.194886 -0.547260 3.056712
    8 1.330910 2.698444 -0.462436 0.194890 0.547268 -0.084879
    9 0.000000 -0.000002 0.000002 0.000000 0.000000 0.000000
    10 3.556210 4.238403 0.987502 -1.090396 0.577049 -0.321829
    11 4.139183 5.092691 1.421975 -1.090396 0.577049 -0.321829
    12 4.777527 6.028128 1.897721 -1.090396 0.577049 -0.321829
    13 5.490345 7.072691 2.428969 -1.090396 0.577049 -0.321829
    14 6.566406 8.648438 3.230469 -1.090396 0.577049 -0.321829
    15 7.558525 6.997282 -2.354134 -1.937336 -0.275393 3.010581
    16 7.558525 6.997282 -2.354134 1.937336 0.275393 -0.131011
    17 0.151856 0.364595 0.148301 1.574015 0.557133 -0.185030
    18 4.324081 2.744001 -0.524877 -1.090396 0.577049 -0.321829
    19 5.012512 3.752832 -0.011802 -1.090396 0.577049 -0.321829
    20 5.595486 4.607124 0.422674 -1.090396 0.577049 -0.321829
    21 6.233833 5.542564 0.898426 -1.090396 0.577049 -0.321829
    22 6.946648 6.587124 1.429667 -1.090396 0.577049 -0.321829
    23 7.537933 7.453606 1.870349 -1.090396 0.577049 -0.321829
    24 8.154472 8.357077 2.329839 -1.090396 0.577049 -0.321829
    25 8.874294 9.411907 2.866308 -1.090396 0.577049 -0.321829
    26 -4.125858 -2.321501 1.394414 2.051196 0.577049 -0.321829
    27 -4.826813 -3.348669 0.872014 2.051196 0.577049 -0.321829
    28 -5.441669 -4.249685 0.413772 2.051196 0.577049 -0.321829
    29 -0.552532 -1.343527 1.604446 -0.471321 0.347995 -0.348250
    30 0.552589 1.343534 -1.604463 -0.415180 0.312114 -0.422073
    31 0.000000 -2.021618 -0.000004 0.186809 0.000000 0.000000
    32 -0.000021 2.021633 0.000027 0.186809 0.000000 0.000000
    33 -0.000004 -1.136217 -0.000004 0.643272 0.000000 0.000000
    34 -0.000011 1.136200 -0.000019 -0.210112 0.000000 0.000000
    35 -0.032677 -4.587727 1.352317 -2.630402 1.216163 2.484989
    36 0.032719 4.587772 -1.352291 2.844703 1.216154 2.484990
    37 0.000000 -1.754536 -0.000002 1.470977 0.000000 0.000000
    38 -0.000006 1.754520 -0.000034 0.662896 0.000000 0.000000
    39 0.000000 -1.227020 -0.000002 0.900744 0.000000 0.000000
    40 0.000002 1.227070 0.000032 0.092659 0.000000 0.000000
    41 -0.367996 -4.208406 0.173244 -2.532076 1.091700 2.536232
    42 0.368011 4.208412 -0.173239 2.943027 1.091688 2.536231
    43 0.000000 -2.372318 -0.000004 1.530164 0.000000 0.000000
    44 -0.000006 2.372318 -0.000032 0.722081 0.000000 0.000000
    45 0.000004 -1.580070 -0.000001 0.842338 0.000000 0.000000
    46 -0.000002 1.580170 0.000030 0.034255 0.000000 0.000000
    47 -0.937645 -3.860697 -0.959317 -2.430895 1.001855 2.581106
    48 0.937672 3.860714 0.959333 3.044206 1.001840 2.581100
    49 0.000000 -1.690632 0.000000 1.299633 0.000000 0.000000
    50 -0.000013 1.690666 0.000021 0.491549 0.000000 0.000000
    51 -0.000002 -1.423443 0.000002 1.042296 0.000000 0.000000
    52 0.000008 1.423420 0.000028 0.234212 0.000000 0.000000
    53 -1.546646 -3.404194 -1.915569 3.790611 0.727422 2.382452
    54 1.546661 3.404217 1.915585 3.024293 0.944156 2.514435
    55 0.000004 -1.437820 0.000000 1.233042 0.000000 0.000000
    56 -0.000021 1.437870 0.000031 0.424957 0.000000 0.000000
    57 -0.000002 -1.059402 0.000000 1.130157 0.000000 0.000000
    58 0.000006 1.059372 0.000008 0.322075 0.000000 0.000000
    59 -0.054352 -11.867188 -0.028397 0.010936 -0.284123 -0.076428
    60 0.161133 -10.804688 0.023087 3.129114 -0.571516 3.074983
  time 2
    0 0.000000 8.859375 -15.234375 -1.559900 -0.000006 -0.000006
    1 -8.653000 -22.135235 3.978734 -0.172502 -0.042859 0.461769
    2 0.000000 14.313023 0.000003 -0.487806 0.000000 0.000000
    3 -0.000011 13.013483 -0.000005 0.000000 0.000000 0.000000
    4 8.652996 -11.744277 -11.260009 2.211536 0.089620 -1.079333
    5 0.000000 -14.313034 0.000000 -1.925707 0.000000 0.000000
    6 -0.000004 -13.013485 -0.000004 -2.933774 -1.046784 2.758566
    7 -1.330879 -2.698427 0.462449 -0.194886 -0.547260 3.056712
    8 1.330910 2.698444 -0.462436 0.194890 0.547268 -0.084879
    9 0.000000 -0.000002 0.000002 0.000000 0.000000 0.000000
    10 3.556210 4.238403 0.987502 -1.090396 0.577049 -0.321829
    11 4.139183 5.092691 1.421975 -1.090396 0.577049 -0.321829
    12 4.777527 6.028128 1.897721 -1.090396 0.577049 -0.321829
    13 5.490345 7.072691 2.428969 -1.090396 0.577049 -0.321829
    14 6.566406 8.648438 3.230469 -1.090396 0.577049 -0.321829
    15 7.558525 6.997282 -2.354134 -1.937336 -0.275393 3.010581
    16 7.558525 6.997282 -2.354134 1.937336 0.275393 -0.131011
    17 0.151856 0.364595 0.148301 1.574015 0.557133 -0.185030
    18 4.324081 2.744001 -0.524877 -1.090396 0.577049 -0.321829
    19 5.012512 3.752832 -0.011802 -1.090396 0.577049 -0.321829
    20 5.595486 4.607124 0.422674 -1.090396 0.577049 -0.321829
    21 6.233833 5.542564 0.898426 -1.090396 0.577049 -0.321829
    22 6.946648 6.587124 1.429667 -1.090396 0.577049 -0.321829
    23 7.537933 7.453606 1.870349 -1.090396 0.577049 -0.321829
    24 8.154472 8.357077 2.329839 -1.090396 0.577049 -0.321829
    25 8.874294 9.411907 2.866308 -1.090396 0.577049 -0.321829
    26 -4.125858 -2.321501 1.394414 2.051196 0.577049 -0.321829
    27 -4.826813 -3.348669 0.872014 2.051196 0.577049 -0.321829
    28 -5.441669 -4.249685 0.413772 2.051196 0.577049 -0.321829
    29 -0.552532 -1.343527 1.604446 -0.471321 0.347995 -0.348250
    30 0.552589 1.343534 -1.604463 -0.415180 0.312114 -0.422073
    31 0.000000 -2.021618 -0.000004 0.186809 0.000000 0.000000
    32 -0.000021 2.021633 0.000027 0.186809 0.000000 0.000000
    33 -0.000004 -1.136217 -0.000004 0.643272 0.000000 0.000000
    34 -0.000011 1.136200 -0.000019 -0.210112 0.000000 0.000000
    35 -0.032677 -4.587727 1.352317 -2.630402 1.216163 2.484989
    36 0.032719 4.587772 -1.352291 2.844703 1.216154 2.484990
    37 0.000000 -1.754536 -0.000002 1.470977 0.000000 0.000000
    38 -0.000006 1.754520 -0.000034 0.662896 0.000000 0.000000
    39 0.000000 -1.227020 -0.000002 0.900744 0.000000 0.000000
    40 0.000002 1.227070 0.000032 0.092659 0.000000 0.000000
    41 -0.367996 -4.208406 0.173244 -2.532076 1.091700 2.536232
    42 0.368011 4.208412 -0.173239 2.943027 1.091688 2.536231
    43 0.000000 -2.372318 -0.000004 1.530164 0.000000 0.000000
    44 -0.000006 2.372318 -0.000032 0.722081 0.000000 0.000000
    45 0.000004 -1.580070 -0.000001 0.842338 0.000000 0.000000
    46 -0.000002 1.580170 0.000030 0.034255 0.000000 0.000000
    47 -0.937645 -3.860697 -0.959317 -2.430895 1.001855 2.581106
    48 0.937672 3.860714 0.959333 3.044206 1.001840 2.581100
    49 0.000000 -1.690632 0.000000 1.299633 0.000000 0.000000
    50 -0.000013 1.690666 0.000021 0.491549 0.000000 0.000000
    51 -0.000002 -1.423443 0.000002 1.042296 0.000000 0.000000
    52 0.000008 1.423420 0.000028 0.234212 0.000000 0.000000
    53 -1.546646 -3.404194 -1.915569 3.790611 0.727422 2.382452
    54 1.546661 3.404217 1.915585 3.024293 0.944156 2.514435
    55 0.000004 -1.437820 0.000000 1.233042 0.000000 0.000000
    56 -0.000021 1.437870 0.000031 0.424957 0.000000 0.000000
    57 -0.000002 -1.059402 0.000000 1.130157 0.000000 0.000000
    58 0.000006 1.059372 0.000008 0.322075 0.000000 0.000000
    59 -0.054352 -11.867188 -0.028397 0.010936 -0.284123 -0.076428
    60 0.161133 -10.804688 0.023087 3.129114 -0.571516 3.074983
  time 3
    0 0.000000 8.859375 -15.234375 -1.559900 -0.000006 -0.000006
    1 -8.653000 -22.135235 3.978734 -0.172502 -0.042859 0.461769
    2 0.000000 14.313023 0.000003 -0.487806 0.000000 0.000000
    3 -0.000011 13.013483 -0.000005 0.000000 0.000000 0.000000
    4 8.652996 -11.744277 -11.260009 2.269567 0.105992 -1.071192
    5 0.000000 -14.313034 0.000000 -1.939710 0.000000 0.000000
    6 -0.000004 -13.013485 -0.000004 -2.874593 -1.086694 2.721476
    7 -1.330879 -2.698427 0.462449 -0.194886 -0.547260 3.056712
    8 1.330910 2.698444 -0.462436 0.194890 0.547268 -0.084879
    9 0.000000 -0.000002 0.000002 0.000000 0.000000 0.000000
    10 3.556210 4.238403 0.987502 -1.090396 0.577049 -0.321829
    11 4.139183 5.092691 1.421975 -1.090396 0.577049 -0.321829
    12 4.777527 6.028128 1.897721 -1.090396 0.577049 -0.321829
    13 5.490345 7.072691 2.428969 -1.090396 0.577049 -0.321829
    14 6.566406 8.648438 3.230469 -1.090396 0.577049 -0.321829
    15 7.558525 6.997282 -2.354134 -1.937336 -0.275393 3.010581
    16 7.558525 6.997282 -2.354134 1.937336 0.275393 -0.131011
    17 0.155762 0.364595 0.148301 1.574015 0.557133 -0.184977
    18 4.324081 2.744001 -0.524877 -1.090396 0.577049 -0.321829
    19 5.012512 3.752832 -0.011802 -1.090396 0.577049 -0.321829
    20 5.595486 4.607124 0.422674 -1.090396 0.577049 -0.321829
    21 6.233833 5.542564 0.898426 -1.090396 0.577049 -0.321829
    22 6.946648 6.587124 1.429667 -1.090396 0.577049 -0.321829
    23 7.537933 7.453606 1.870349 -1.090396 0.577049 -0.321829
    24 8.154472 8.357077 2.329839 -1.090396 0.577049 -0.321829
    25 8.874294 9.411907 2.866308 -1.090396 0.577049 -0.321829
    26 -4.125858 -2.321501 1.394414 2.051196 0.577049 -0.321829
    27 -4.826813 -3.348669 0.872014 2.051196 0.577049 -0.321829
    28 -5.441669 -4.249685 0.413772 2.051196 0.577049 -0.321829
    29 -0.552532 -1.343527 1.604446 -0.471321 0.347995 -0.348250
    30 0.552589 1.343534 -1.604463 -0.415180 0.312114 -0.422073
    31 0.000000 -2.021618 -0.000004 0.186809 0.000000 0.000000
    32 -0.000021 2.021633 0.000027 0.186809 0.000000 0.000000
    33 -0.000004 -1.136217 -0.000004 0.643272 0.000000 0.000000
    34 -0.000011 1.136200 -0.000019 -0.210112 0.000000 0.000000
    35 -0.032677 -4.587727 1.352317 -2.630402 1.216163 2.484989
    36 0.032719 4.587772 -1.352291 2.844703 1.216154 2.484990
    37 0.000000 -1.754536 -0.000002 1.470977 0.000000 0.000000
    38 -0.000006 1.754520 -0.000034 0.662896 0.000000 0.000000
    39 0.000000 -1.227020 -0.000002 0.900744 0.000000 0.000000
    40 0.000002 1.227070 0.000032 0.092659 0.000000 0.000000
    41 -0.367996 -4.208406 0.173244 -2.532076 1.091700 2.536232
    42 0.368011 4.208412 -0.173239 2.943027 1.091688 2.536231
    43 0.000000 -2.372318 -0.000004 1.530164 0.000000 0.000000
    44 -0.000006 2.372318 -0.000032 0.722081 0.000000 0.000000
    45 0.000004 -1.580070 -0.000001 0.842338 0.000000 0.000000
    46 -0.000002 1.580170 0.000030 0.034255 0.000000 0.000000
    47 -0.937645 -3.860697 -0.959317 -2.430895 1.001855 2.581106
    48 0.937672 3.860714 0.959333 3.044206 1.001840 2.581100
    49 0.000000 -1.690632 0.000000 1.299633 0.000000 0.000000
    50 -0.000013 1.690666 0.000021 0.491549 0.000000 0.000000
    51 -0.000002 -1.423443 0.000002 1.042296 0.000000 0.000000
    52 0.000008 1.423420 0.000028 0.234212 0.000000 0.000000
    53 -1.546646 -3.404194 -1.915569 3.790611 0.727393 2.382452
    54 1.546661 3.404217 1.915585 3.024293 0.944156 2.514435
    55 0.000004 -1.437820 0.000000 1.233042 0.000000 0.000000
    56 -0.000021 1.437870 0.000031 0.424957 0.000000 0.000000
    57 -0.000002 -1.059402 0.000000 1.130157 0.000000 0.000000
    58 0.000006 1.059372 0.000008 0.322075 0.000000 0.000000
    59 -0.054352 -11.867188 -0.028397 0.010936 -0.284123 -0.076428
    60 0.161133 -10.804688 0.023087 3.129114 -0.571516 3.074983
  time 4
    0 0.000000 8.859375 -15.234375 -1.559900 -0.000006 -0.000006
    1 -8.653000 -22.135235 3.978734 -0.172502 -0.042859 0.461769
    2 0.000000 14.313023 0.000003 -0.487806 0.000000 0.000000
    3 -0.000011 13.013483 -0.000005 0.000000 0.000000 0.000000
    4 8.652996 -11.744277 -11.260009 2.369255 0.179741 -1.034321
    5 0.000000 -14.313034 0.000000 -1.944318 0.000000 0.000000
    6 -0.000004 -13.013485 -0.000004 -2.805232 -1.120036 2.685245
    7 -1.330879 -2.698427 0.462449 -0.194886 -0.547260 3.056712
    8 1.330910 2.698444 -0.462436 0.194890 0.547268 -0.084879
    9 0.000000 -0.000002 0.000002 0.000000 0.000000 0.000000
    10 3.556210 4.238403 0.987502 -1.090396 0.577049 -0.321829
    11 4.139183 5.092691 1.421975 -1.090396 0.577049 -0.321829
    12 4.777527 6.028128 1.897721 -1.090396 0.577049 -0.321829
    13 5.490345 7.072691 2.428969 -1.090396 0.577049 -0.321829
    14 6.566406 8.648438 3.230469 -1.090396 0.577049 -0.321829
    15 7.558525 6.997282 -2.354134 -1.937336 -0.275393 3.010581
    16 7.558525 6.997282 -2.354134 1.937336 0.275393 -0.131011
    17 0.155762 0.368501 0.148301 1.574015 0.557133 -0.184977
    18 4.324081 2.744001 -0.524877 -1.090396 0.577049 -0.321829
    19 5.012512 3.752832 -0.011802 -1.090396 0.577049 -0.321829
    20 5.595486 4.607124 0.422674 -1.090396 0.577049 -0.321829
    21 6.233833 5.542564 0.898426 -1.090396 0.577049 -0.321829
    22 6.946648 6.587124 1.429667 -1.090396 0.577049 -0.321829
    23 7.537933 7.453606 1.870349 -1.090396 0.577049 -0.321829
    24 8.154472 8.357077 2.329839 -1.090396 0.577049 -0.321829
    25 8.874294 9.411907 2.866308 -1.090396 0.577049 -0.321829
    26 -4.125858 -2.321501 1.394414 2.051196 0.577049 -0.321829
    27 -4.826813 -3.348669 0.872014 2.051196 0.577049 -0.321829
    28 -5.441669 -4.249685 0.413772 2.051196 0.577049 -0.321829
    29 -0.552532 -1.343527 1.604446 -0.471321 0.347995 -0.348250
    30 0.552589 1.343534 -1.604463 -0.415180 0.312114 -0.422073
    31 0.000000 -2.021618 -0.000004 0.186809 0.000000 0.000000
    32 -0.000021 2.021633 0.000027 0.186809 0.000000 0.000000
    33 -0.000004 -1.136217 -0.000004 0.643272 0.000000 0.000000
    34 -0.000011 1.136200 -0.000019 -0.210112 0.000000 0.000000
    35 -0.032677 -4.587727 1.352317 -2.630402 1.216163 2.484989
    36 0.032719 4.587772 -1.352291 2.844703 1.216154 2.484990
    37 0.000000 -1.754536 -0.000002 1.470977 0.000000 0.000000
    38 -0.000006 1.754520 -0.000034 0.662896 0.000000 0.000000
    39 0.000000 -1.227020 -0.000002 0.900744 0.000000 0.000000
    40 0.000002 1.227070 0.000032 0.092659 0.000000 0.000000
    41 -0.367996 -4.208406 0.173244 -2.532076 1.091700 2.536232
    42 0.368011 4.208412 -0.173239 2.943027 1.091688 2.536231
    43 0.000000 -2.372318 -0.000004 1.530164 0.000000 0.000000
    44 -0.000006 2.372318 -0.000032 0.722081 0.000000 0.000000
    45 0.000004 -1.580070 -0.000001 0.842338 0.000000 0.000000
    46 -0.000002 1.580170 0.000030 0.034255 0.000000 0.000000
    47 -0.937645 -3.860697 -0.959317 -2.430895 1.001855 2.581106
    48 0.937672 3.860714 0.959333 3.044206 1.001840 2.581100
    49 0.000000 -1.690632 0.000000 1.299633 0.000000 0.000000
    50 -0.000013 1.690666 0.000021 0.491549 0.000000 0.000000
    51 -0.000002 -1.423443 0.000002 1.042296 0.000000 0.000000
    52 0.000008 1.423420 0.000028 0.234212 0.000000 0.000000
    53 -1.546646 -3.404194 -1.915569 3.790611 0.727422 2.382452
    54 1.546661 3.404217 1.915585 3.024293 0.944156 2.514435
    55 0.000004 -1.437820 0.000000 1.233042 0.000000 0.000000
    56 -0.000021 1.437870 0.000031 0.424957 0.000000 0.000000
    57 -0.000002 -1.059402 0.000000 1.130157 0.000000 0.000000
    58 0.000006 1.059372 0.000008 0.322075 0.000000 0.000000
    59 -0.054352 -11.867188 -0.028397 0.010936 -0.284123 -0.076428
    60 0.161133 -10.804688 0.023087 3.129114 -0.571516 3.074983
  time 5
    0 0.000000 8.859375 -15.234375 -1.559900 -0.000006 -0.000006
    1 -8.653000 -22.135235 3.978734 -0.172502 -0.042859 0.461769
    2 0.000000 14.313023 0.000003 -0.487806 0.000000 0.000000
    3 -0.000011 13.013483 -0.000005 0.000000 0.000000 0.000000
    4 8.652996 -11.744277 -11.260009 2.485893 0.270013 -0.987489
    5 0.000000 -14.313034 0.000000 -1.920680 0.000000 0.000000
    6 -0.000004 -13.013485 -0.000004 -2.729656 -1.149866 2.649394
    7 -1.330879 -2.698427 0.462449 -0.194886 -0.547260 3.056712
    8 1.330910 2.698444 -0.462436 0.194890 0.547268 -0.084879
    9 0.000000 -0.000002 0.000002 0.000000 0.000000 0.000000
    10 3.556210 4.238403 0.987502 -1.090396 0.577049 -0.321829
    11 4.139183 5.092691 1.421975 -1.090396 0.577049 -0.321829
    12 4.777527 6.028128 1.897721 -1.090396 0.577049 -0.321829
    13 5.490345 7.072691 2.428969 -1.090396 0.577049 -0.321829
    14 6.566406 8.648438 3.230469 -1.090396 0.577049 -0.321829
    15 7.558525 6.997282 -2.354134 -1.937336 -0.275393 3.010581
    16 7.558525 6.997282 -2.354134 1.937336 0.275393 -0.131011
    17 0.151856 0.368501 0.148301 1.574015 0.557133 -0.184977
    18 4.324081 2.744001 -0.524877 -1.090396 0.577049 -0.321829
    19 5.012512 3.752832 -0.011802 -1.090396 0.577049 -0.321829
    20 5.595486 4.607124 0.422674 -1.090396 0.577049 -0.321829
    21 6.233833 5.542564 0.898426 -1.090396 0.577049 -0.321829
    22 6.946648 6.587124 1.429667 -1.090396 0.577049 -0.321829
    23 7.537933 7.453606 1.870349 -1.090396 0.577049 -0.321829
    24 8.154472 8.357077 2.329839 -1.090396 0.577049 -0.321829
    25 8.874294 9.411907 2.866308 -1.090396 0.577049 -0.321829
    26 -4.125858 -2.321501 1.394414 2.051196 0.577049 -0.321829
    27 -4.826813 -3.348669 0.872014 2.051196 0.577049 -0.321829
    28 -5.441669 -4.249685 0.413772 2.051196 0.577049 -0.321829
    29 -0.552532 -1.343527 1.604446 -0.471321 0.347995 -0.348250
    30 0.552589 1.343534 -1.604463 -0.415180 0.312114 -0.422073
    31 0.000000 -2.021618 -0.000004 0.186809 0.000000 0.000000
    32 -0.000021 2.021633 0.000027 0.186809 0.000000 0.000000
    33 -0.000004 -1.136217 -0.000004 0.643272 0.000000 0.000000
    34 -0.000011 1.136200 -0.000019 -0.210112 0.000000 0.000000
    35 -0.032677 -4.587727 1.352317 -2.630402 1.216163 2.484989
    36 0.032719 4.587772 -1.352291 2.844703 1.216154 2.484990
    37 0.000000 -1.754536 -0.000002 1.470977 0.000000 0.000000
    38 -0.000006 1.754520 -0.000034 0.662896 0.000000 0.000000
    39 0.000000 -1.227020 -0.000002 0.900744 0.000000 0.000000
    40 0.000002 1.227070 0.000032 0.092659 0.000000 0.000000
    41 -0.367996 -4.208406 0.173244 -2.532076 1.091700 2.536232
    42 0.368011 4.208412 -0.173239 2.943027 1.091688 2.536231
    43 0.000000 -2.372318 -0.000004 1.530164 0.000000 0.000000
    44 -0.000006 2.372318 -0.000032 0.722081 0.000000 0.000000
    45 0.000004 -1.580070 -0.000001 0.842338 0.000000 0.000000
    46 -0.000002 1.580170 0.000030 0.034255 0.000000 0.000000
    47 -0.937645 -3.860697 -0.959317 -2.430895 1.001855 2.581106
    48 0.937672 3.860714 0.959333 3.044206 1.001840 2.581100
    49 0.000000 -1.690632 0.000000 1.299633 0.000000 0.000000
    50 -0.000013 1.690666 0.000021 0.491549 0.000000 0.000000
    51 -0.000002 -1.423443 0.000002 1.042296 0.000000 0.000000
    52 0.000008 1.423420 0.000028 0.234212 0.000000 0.000000
    53 -1.546646 -3.404194 -1.915569 3.790611 0.727422 2.382452
    54 1.546661 3.404217 1.915585 3.024293 0.944156 2.514435
    55 0.000004 -1.437820 0.000000 1.233042 0.000000 0.000000
    56 -0.000021 1.437870 0.000031 0.424957 0.000000 0.000000
    57 -0.000002 -1.059402 0.000000 1.130157 0.000000 0.000000
    58 0.000006 1.059372 0.000008 0.322075 0.000000 0.000000
    59 -0.054352 -11.867188 -0.028397 0.010936 -0.284123 -0.076428
    60 0.161133 -10.804688 0.023087 3.129114 -0.571516 3.074983
  time 6
    0 0.000000 8.859375 -15.234375 -1.559900 -0.000006 -0.000006
    1 -8.653000 -22.135235 3.978734 -0.172502 -0.042859 0.461769
    2 0.000000 14.313023 0.000003 -0.487806 0.000000 0.000000
    3 -0.000011 13.013483 -0.000005 0.000000 0.000000 0.000000
    4 8.652996 -11.744277 -11.260009 2.596785 0.356344 -0.940274
    5 0.000000 -14.313034 0.000000 -1.859042 0.000000 0.000000
    6 -0.000004 -13.013485 -0.000004 -2.652278 -1.178829 2.613449
    7 -1.330879 -2.698427 0.462449 -0.194886 -0.547260 3.056712
    8 1.330910 2.698444 -0.462436 0.194890 0.547268 -0.084879
    9 0.000000 -0.000002 0.000002 0.000000 0.000000 0.000000
    10 3.556210 4.238403 0.987502 -1.090396 0.577049 -0.321829
    11 4.139183 5.092691 1.421975 -1.090396 0.577049 -0.321829
    12 4.777527 6.028128 1.897721 -1.090396 0.577049 -0.321829
    13 5.490345 7.072691 2.428969 -1.090396 0.577049 -0.321829
    14 6.566406 8.648438 3.230469 -1.090396 0.577049 -0.321829
    15 7.558525 6.997282 -2.354134 -1.937336 -0.275393 3.010581
    16 7.558525 6.997282 -2.354134 1.937336 0.275393 -0.131011
    17 0.151856 0.368501 0.148301 1.574015 0.557085 -0.185030
    18 4.324081 2.744001 -0.524877 -1.090396 0.577049 -0.321829
    19 5.012512 3.752832 -0.011802 -1.090396 0.577049 -0.321829
    20 5.595486 4.607124 0.422674 -1.090396 0.577049 -0.321829
    21 6.233833 5.542564 0.898426 -1.090396 0.577049 -0.321829
    22 6.946648 6.587124 1.429667 -1.090396 0.577049 -0.321829
    23 7.537933 7.453606 1.870349 -1.090396 0.577049 -0.321829
    24 8.154472 8.357077 2.329839 -1.090396 0.577049 -0.321829
    25 8.874294 9.411907 2.866308 -1.090396 0.577049 -0.321829
    26 -4.125858 -2.321501 1.394414 2.051196 0.577049 -0.321829
    27 -4.826813 -3.348669 0.872014 2.051196 0.577049 -0.321829
    28 -5.441669 -4.249685 0.413772 2.051196 0.577049 -0.321829
    29 -0.552532 -1.343527 1.604446 -0.471321 0.347995 -0.348250
    30 0.552589 1.343534 -1.604463 -0.415180 0.312114 -0.422073
    31 0.000000 -2.021618 -0.000004 0.186809 0.000000 0.000000
    32 -0.000021 2.021633 0.000027 0.186809 0.000000 0.000000
    33 -0.000004 -1.136217 -0.000004 0.643272 0.000000 0.000000
    34 -0.000011 1.136200 -0.000019 -0.210112 0.000000 0.000000
    35 -0.032677 -4.587727 1.352317 -2.630402 1.216163 2.484989
    36 0.032719 4.587772 -1.352291 2.844703 1.216154 2.484990
    37 0.000000 -1.754536 -0.000002 1.470977 0.000000 0.000000
    38 -0.000006 1.754520 -0.000034 0.662896 0.000000 0.000000
    39 0.000000 -1.227020 -0.000002 0.900744 0.000000 0.000000
    40 0.000002 1.227070 0.000032 0.092659 0.000000 0.000000
    41 -0.367996 -4.208406 0.173244 -2.532076 1.091700 2.536232
    42 0.368011 4.208412 -0.173239 2.943027 1.091688 2.536231
    43 0.000000 -2.372318 -0.000004 1.530164 0.000000 0.000000
    44 -0.000006 2.372318 -0.000032 0.722081 0.000000 0.000000
    45 0.000004 -1.580070 -0.000001 0.842338 0.000000 0.000000
    46 -0.000002 1.580170 0.000030 0.034255 0.000000 0.000000
    47 -0.937645 -3.860697 -0.959317 -2.430895 1.001855 2.581106
    48 0.937672 3.860714 0.959333 3.044206 1.001840 2.581100
    49 0.000000 -1.690632 0.000000 1.299633 0.000000 0.000000
    50 -0.000013 1.690666 0.000021 0.491549 0.000000 0.000000
    51 -0.000002 -1.423443 0.000002 1.042296 0.000000 0.000000
    52 0.000008 1.423420 0.000028 0.234212 0.000000 0.000000
    53 -1.546646 -3.404194 -1.915569 3.790611 0.727422 2.382452
    54 1.546661 3.404217 1.915585 3.024293 0.944156 2.514435
    55 0.000004 -1.437820 0.000000 1.233042 0.000000 0.000000
    56 -0.000021 1.437870 0.000031 0.424957 0.000000 0.000000
    57 -0.000002 -1.059402 0.000000 1.130157 0.000000 0.000000
    58 0.000006 1.059372 0.000008 0.322075 0.000000 0.000000
    59 -0.054352 -11.867188 -0.028397 0.010936 -0.284123 -0.076428
    60 0.161133 -10.804688 0.023087 3.129114 -0.571516 3.074983
  time 7
    0 0.000000 8.859375 -15.234375 -1.559900 -0.000006 -0.000006
    1 -8.653000 -22.135235 3.978734 -0.172502 -0.042859 0.461769
    2 0.000000 14.313023 0.000003 -0.487806 0.000000 0.000000
    3 -0.000011 13.013483 -0.000005 0.000000 0.000000 0.000000
    4 8.652996 -11.744277 -11.260009 2.681630 0.426682 -0.899188
    5 0.000000 -14.313034 0.000000 -1.765747 0.000000 0.000000
    6 -0.000004 -13.013485 -0.000004 -2.578414 -1.209480 2.577598
    7 -1.330879 -2.698427 0.462449 -0.194886 -0.547260 3.056712
    8 1.330910 2.698444 -0.462436 0.194890 0.547268 -0.084879
    9 0.000000 -0.000002 0.000002 0.000000 0.000000 0.000000
    10 3.556210 4.238403 0.987502 -1.090396 0.577049 -0.321829
    11 4.139183 5.092691 1.421975 -1.090396 0.577049 -0.321829
    12 4.777527 6.028128 1.897721 -1.090396 0.577049 -0.321829
    13 5.490345 7.072691 2.428969 -1.090396 0.577049 -0.321829
    14 6.566406 8.648438 3.230469 -1.090396 0.577049 -0.321829
    15 7.558525 6.997282 -2.354134 -1.937336 -0.275393 3.010581
    16 7.558525 6.997282 -2.354134 1.937336 0.275393 -0.131011
    17 0.151856 0.364595 0.148301 1.574015 0.557133 -0.184977
    18 4.324081 2.744001 -0.524877 -1.090396 0.577049 -0.321829
    19 5.012512 3.752832 -0.011802 -1.090396 0.577049 -0.321829
    20 5.595486 4.607124 0.422674 -1.090396 0.577049 -0.321829
    21 6.233833 5.542564 0.898426 -1.090396 0.577049 -0.321829
    22 6.946648 6.587124 1.429667 -1.090396 0.577049 -0.321829
    23 7.537933 7.453606 1.870349 -1.090396 0.577049 -0.321829
    24 8.154472 8.357077 2.329839 -1.090396 0.577049 -0.321829
    25 8.874294 9.411907 2.866308 -1.090396 0.577049 -0.321829
    26 -4.125858 -2.321501 1.394414 2.051196 0.577049 -0.321829
    27 -4.826813 -3.348669 0.872014 2.051196 0.577049 -0.321829
    28 -5.441669 -4.249685 0.413772 2.051196 0.577049 -0.321829
    29 -0.552532 -1.343527 1.604446 -0.471321 0.347995 -0.348250
    30 0.552589 1.343534 -1.604463 -0.415180 0.312114 -0.422073
    31 0.000000 -2.021618 -0.000004 0.186809 0.000000 0.000000
    32 -0.000021 2.021633 0.000027 0.186809 0.000000 0.000000
    33 -0.000004 -1.136217 -0.000004 0.643272 0.000000 0.000000
    34 -0.000011 1.136200 -0.000019 -0.210112 0.000000 0.000000
    35 -0.032677 -4.587727 1.352317 -2.630402 1.216163 2.484989
    36 0.032719 4.587772 -1.352291 2.844703 1.216154 2.484990
    37 0.000000 -1.754536 -0.000002 1.470977 0.000000 0.000000
    38 -0.000006 1.754520 -0.000034 0.662896 0.000000 0.000000
    39 0.000000 -1.227020 -0.000002 0.900744 0.000000 0.000000
    40 0.000002 1.227070 0.000032 0.092659 0.000000 0.000000
    41 -0.367996 -4.208406 0.173244 -2.532076 1.091700 2.536232
    42 0.368011 4.208412 -0.173239 2.943027 1.091688 2.536231
    43 0.000000 -2.372318 -0.000004 1.530164 0.000000 0.000000
    44 -0.000006 2.372318 -0.000032 0.722081 0.000000 0.000000
    45 0.000004 -1.580070 -0.000001 0.842338 0.000000 0.000000
    46 -0.000002 1.580170 0.000030 0.034255 0.000000 0.000000
    47 -0.937645 -3.860697 -0.959317 -2.430895 1.001855 2.581106
    48 0.937672 3.860714 0.959333 3.044206 1.001840 2.581100
    49 0.000000 -1.690632 0.000000 1.299633 0.000000 0.000000
    50 -0.000013 1.690666 0.000021 0.491549 0.000000 0.000000
    51 -0.000002 -1.423443 0.000002 1.042296 0.000000 0.000000
    52 0.000008 1.423420 0.000028 0.234212 0.000000 0.000000
    53 -1.546646 -3.404194 -1.915569 3.790611 0.727422 2.382452
    54 1.546661 3.404217 1.915585 3.024293 0.944156 2.514435
    55 0.000004 -1.437820 0.000000 1.233042 0.000000 0.000000
    56 -0.000021 1.437870 0.000031 0.424957 0.000000 0.000000
    57 -0.000002 -1.059402 0.000000 1.130157 0.000000 0.000000
    58 0.000006 1.059372 0.000008 0.322075 0.000000 0.000000
    59 -0.054352 -11.867188 -0.028397 0.010936 -0.284123 -0.076428
    60 0.161133 -10.804688 0.023087 3.129114 -0.571516 3.074983
  time 8
    0 0.000000 8.859375 -15.234375 -1.559900 -0.000006 -0.000006
    1 -8.653000 -22.135235 3.978734 -0.172502 -0.042859 0.461769
    2 0.000000 14.313023 0.000003 -0.487806 0.000000 0.000000
    3 -0.000011 13.013483 -0.000005 0.000000 0.000000 0.000000
    4 8.652996 -11.744277 -11.260009 2.709784 0.495808 -0.855804
    5 0.000000 -14.313034 0.000000 -1.659227 0.000000 0.000000
    6 -0.000004 -13.013485 -0.000004 -2.578414 -1.209480 2.577598
    7 -1.330879 -2.698427 0.462449 -0.194886 -0.547260 3.056712
    8 1.330910 2.698444 -0.462436 0.194890 0.547268 -0.084879
    9 0.000000 -0.000002 0.000002 0.000000 0.000000 0.000000
    10 3.556210 4.238403 0.987502 -1.090396 0.577049 -0.321829
    11 4.139183 5.092691 1.421975 -1.090396 0.577049 -0.321829
    12 4.777527 6.028128 1.897721 -1.090396 0.577049 -0.321829
    13 5.490345 7.072691 2.428969 -1.090396 0.577049 -0.321829
    14 6.566406 8.648438 3.230469 -1.090396 0.577049 -0.321829
    15 7.558525 6.997282 -2.354134 -1.937336 -0.275393 3.010581
    16 7.558525 6.997282 -2.354134 1.937336 0.275393 -0.131011
    17 0.151856 0.364595 0.148301 1.574015 0.557133 -0.185030
    18 4.324081 2.744001 -0.524877 -1.090396 0.577049 -0.321829
    19 5.012512 3.752832 -0.011802 -1.090396 0.577049 -0.321829
    20 5.595486 4.607124 0.422674 -1.090396 0.577049 -0.321829
    21 6.233833 5.542564 0.898426 -1.090396 0.577049 -0.321829
    22 6.946648 6.587124 1.429667 -1.090396 0.577049 -0.321829
    23 7.537933 7.453606 1.870349 -1.090396 0.577049 -0.321829
    24 8.154472 8.357077 2.329839 -1.090396 0.577049 -0.321829
    25 8.874294 9.411907 2.866308 -1.090396 0.577049 -0.321829
    26 -4.125858 -2.321501 1.394414 2.051196 0.577049 -0.321829
    27 -4.826813 -3.348669 0.872014 2.051196 0.577049 -0.321829
    28 -5.441669 -4.249685 0.413772 2.051196 0.577049 -0.321829
    29 -0.552532 -1.343527 1.604446 -0.471321 0.347995 -0.348250
    30 0.552589 1.343534 -1.604463 -0.415180 0.312114 -0.422073
    31 0.000000 -2.021618 -0.000004 0.186809 0.000000 0.000000
    32 -0.000021 2.021633 0.000027 0.186809 0.000000 0.000000
    33 -0.000004 -1.136217 -0.000004 0.643272 0.000000 0.000000
    34 -0.000011 1.136200 -0.000019 -0.210112 0.000000 0.000000
    35 -0.032677 -4.587727 1.352317 -2.630402 1.216163 2.484989
    36 0.032719 4.587772 -1.352291 2.844703 1.216154 2.484990
    37 0.000000 -1.754536 -0.000002 1.470977 0.000000 0.000000
    38 -0.000006 1.754520 -0.000034 0.662896 0.000000 0.000000
    39 0.000000 -1.227020 -0.000002 0.900744 0.000000 0.000000
    40 0.000002 1.227070 0.000032 0.092659 0.000000 0.000000
    41 -0.367996 -4.208406 0.173244 -2.532076 1.091700 2.536232
    42 0.368011 4.208412 -0.173239 2.943027 1.091688 2.536231
    43 0.000000 -2.372318 -0.000004 1.530164 0.000000 0.000000
    44 -0.000006 2.372318 -0.000032 0.722081 0.000000 0.000000
    45 0.000004 -1.580070 -0.000001 0.842338 0.000000 0.000000
    46 -0.000002 1.580170 0.000030 0.034255 0.000000 0.000000
    47 -0.937645 -3.860697 -0.959317 -2.430895 1.001855 2.581106
    48 0.937672 3.860714 0.959333 3.044206 1.001840 2.581100
    49 0.000000 -1.690632 0.000000 1.299633 0.000000 0.000000
    50 -0.000013 1.690666 0.000021 0.491549 0.000000 0.000000
    51 -0.000002 -1.423443 0.000002 1.042296 0.000000 0.000000
    52 0.000008 1.423420 0.000028 0.234212 0.000000 0.000000
    53 -1.546646 -3.404194 -1.915569 3.790611 0.727422 2.382452
    54 1.546661 3.404217 1.915585 3.024293 0.944156 2.514435
    55 0.000004 -1.437820 0.000000 1.233042 0.000000 0.000000
    56 -0.000021 1.437870 0.000031 0.424957 0.000000 0.000000
    57 -0.000002 -1.059402 0.000000 1.130157 0.000000 0.000000
    58 0.000006 1.059372 0.000008 0.322075 0.000000 0.000000
    59 -0.054352 -11.867188 -0.028397 0.010936 -0.284123 -0.076428
    60 0.161133 -10.804688 0.023087 3.129114 -0.571516 3.074983
  time 9
    0 0.000000 8.859375 -15.234375 -1.559900 -0.000006 -0.000006
    1 -8.653000 -22.135235 3.978734 -0.172502 -0.042859 0.461769
    2 0.000000 14.313023 0.000003 -0.487806 0.000000 0.000000
    3 -0.000011 13.013483 -0.000005 0.000000 0.000000 0.000000
    4 8.652996 -11.744277 -11.260009 2.720318 0.538253 -0.827072
    5 0.000000 -14.313034 0.000000 -1.571557 0.000000 0.000000
    6 -0.000004 -13.013485 -0.000004 -2.578414 -1.209480 2.577598
    7 -1.330879 -2.698427 0.462449 -0.194886 -0.547260 3.056712
    8 1.330910 2.698444 -0.462436 0.194890 0.547268 -0.084879
    9 0.000000 -0.000002 0.000002 0.000000 0.000000 0.000000
    10 3.556210 4.238403 0.987502 -1.090396 0.577049 -0.321829
    11 4.139183 5.092691 1.421975 -1.090396 0.577049 -0.321829
    12 4.777527 6.028128 1.897721 -1.090396 0.577049 -0.321829
    13 5.490345 7.072691 2.428969 -1.090396 0.577049 -0.321829
    14 6.566406 8.648438 3.230469 -1.090396 0.577049 -0.321829
    15 7.558525 6.997282 -2.354134 -1.937336 -0.275393 3.010581
    16 7.558525 6.997282 -2.354134 1.937336 0.275393 -0.131011
    17 0.155762 0.368501 0.148301 1.574015 0.557133 -0.184977
    18 4.324081 2.744001 -0.524877 -1.090396 0.577049 -0.321829
    19 5.012512 3.752832 -0.011802 -1.090396 0.577049 -0.321829
    20 5.595486 4.607124 0.422674 -1.090396 0.577049 -0.321829
    21 6.233833 5.542564 0.898426 -1.090396 0.577049 -0.321829
    22 6.946648 6.587124 1.429667 -1.090396 0.577049 -0.321829
    23 7.537933 7.453606 1.870349 -1.090396 0.577049 -0.321829
    24 8.154472 8.357077 2.329839 -1.090396 0.577049 -0.321829
    25 8.874294 9.411907 2.866308 -1.090396 0.577049 -0.321829
    26 -4.125858 -2.321501 1.394414 2.051196 0.577049 -0.321829
    27 -4.826813 -3.348669 0.872014 2.051196 0.577049 -0.321829
    28 -5.441669 -4.249685 0.413772 2.051196 0.577049 -0.321829
    29 -0.552532 -1.343527 1.604446 -0.471321 0.347995 -0.348250
    30 0.552589 1.343534 -1.604463 -0.415180 0.312114 -0.422073
    31 0.000000 -2.021618 -0.000004 0.186809 0.000000 0.000000
    32 -0.000021 2.021633 0.000027 0.186809 0.000000 0.000000
    33 -0.000004 -1.136217 -0.000004 0.643272 0.000000 0.000000
    34 -0.000011 1.136200 -0.000019 -0.210112 0.000000 0.000000
    35 -0.032677 -4.587727 1.352317 -2.630402 1.216163 2.484989
    36 0.032719 4.587772 -1.352291 2.844703 1.216154 2.484990
    37 0.000000 -1.754536 -0.000002 1.470977 0.000000 0.000000
    38 -0.000006 1.754520 -0.000034 0.662896 0.000000 0.000000
    39 0.000000 -1.227020 -0.000002 0.900744 0.000000 0.000000
    40 0.000002 1.227070 0.000032 0.092659 0.000000 0.000000
    41 -0.367996 -4.208406 0.173244 -2.532076 1.091700 2.536232
    42 0.368011 4.208412 -0.173239 2.943027 1.091688 2.536231
    43 0.000000 -2.372318 -0.000004 1.530164 0.000000 0.000000
    44 -0.000006 2.372318 -0.000032 0.722081 0.000000 0.000000
    45 0.000004 -1.580070 -0.000001 0.842338 0.000000 0.000000
    46 -0.000002 1.580170 0.000030 0.034255 0.000000 0.000000
    47 -0.937645 -3.860697 -0.959317 -2.430895 1.001855 2.581106
    48 0.937672 3.860714 0.959333 3.044206 1.001840 2.581100
    49 0.000000 -1.690632 0.000000 1.299633 0.000000 0.000000
    50 -0.000013 1.690666 0.000021 0.491549 0.000000 0.000000
    51 -0.000002 -1.423443 0.000002 1.042296 0.000000 0.000000
    52 0.000008 1.423420 0.000028 0.234212 0.000000 0.000000
    53 -1.546646 -3.404194 -1.915569 3.790611 0.727422 2.382452
    54 1.546661 3.404217 1.915585 3.024293 0.944156 2.514435
    55 0.000004 -1.437820 0.000000 1.233042 0.000000 0.000000
    56 -0.000021 1.437870 0.000031 0.424957 0.000000 0.000000
    57 -0.000002 -1.059402 0.000000 1.130157 0.000000 0.000000
    58 0.000006 1.059372 0.000008 0.322075 0.000000 0.000000
    59 -0.054352 -11.867188 -0.028397 0.010936 -0.284123 -0.076428
    60 0.161133 -10.804688 0.023087 3.129114 -0.571516 3.074983
  time 10
    0 0.000000 8.859375 -15.234375 -1.559900 -0.000006 -0.000006
    1 -8.653000 -22.135235 3.978734 -0.172502 -0.042859 0.461769
    2 0.000000 14.313023 0.000003 -0.487806 0.000000 0.000000
    3 -0.000011 13.013483 -0.000005 0.000000 0.000000 0.000000
    4 8.652996 -11.744277 -11.260009 2.722329 0.553071 -0.816825
    5 0.000000 -14.313034 0.000000 -1.535771 0.000000 0.000000
    6 -0.000004 -13.013485 -0.000004 -2.578414 -1.209480 2.577598
    7 -1.330879 -2.698427 0.462449 -0.194886 -0.547260 3.056712
    8 1.330910 2.698444 -0.462436 0.194890 0.547268 -0.084879
    9 0.000000 -0.000002 0.000002 0.000000 0.000000 0.000000
    10 3.556210 4.238403 0.987502 -1.090396 0.577049 -0.321829
    11 4.139183 5.092691 1.421975 -1.090396 0.577049 -0.321829
    12 4.777527 6.028128 1.897721 -1.090396 0.577049 -0.321829
    13 5.490345 7.072691 2.428969 -1.090396 0.577049 -0.321829
    14 6.566406 8.648438 3.230469 -1.090396 0.577049 -0.321829
    15 7.558525 6.997282 -2.354134 -1.937336 -0.275393 3.010581
    16 7.558525 6.997282 -2.354134 1.937336 0.275393 -0.131011
    17 0.151856 0.364595 0.148301 1.574015 0.557133 -0.185030
    18 4.324081 2.744001 -0.524877 -1.090396 0.577049 -0.321829
    19 5.012512 3.752832 -0.011802 -1.090396 0.577049 -0.321829
    20 5.595486 4.607124 0.422674 -1.090396 0.577049 -0.321829
    21 6.233833 5.542564 0.898426 -1.090396 0.577049 -0.321829
    22 6.946648 6.587124 1.429667 -1.090396 0.577049 -0.321829
    23 7.537933 7.453606 1.870349 -1.090396 0.577049 -0.321829
    24 8.154472 8.357077 2.329839 -1.090396 0.577049 -0.321829
    25 8.874294 9.411907 2.866308 -1.090396 0.577049 -0.321829
    26 -4.125858 -2.321501 1.394414 2.051196 0.577049 -0.321829
    27 -4.826813 -3.348669 0.872014 2.051196 0.577049 -0.321829
    28 -5.441669 -4.249685 0.413772 2.051196 0.577049 -0.321829
    29 -0.552532 -1.343527 1.604446 -0.471321 0.347995 -0.348250
    30 0.552589 1.343534 -1.604463 -0.415180 0.312114 -0.422073
    31 0.000000 -2.021618 -0.000004 0.186809 0.000000 0.000000
    32 -0.000021 2.021633 0.000027 0.186809 0.000000 0.000000
    33 -0.000004 -1.136217 -0.000004 0.643272 0.000000 0.000000
    34 -0.000011 1.136200 -0.000019 -0.210112 0.000000 0.000000
    35 -0.032677 -4.587727 1.352317 -2.630402 1.216163 2.484989
    36 0.032719 4.587772 -1.352291 2.844703 1.216154 2.484990
    37 0.000000 -1.754536 -0.000002 1.470977 0.000000 0.000000
    38 -0.000006 1.754520 -0.000034 0.662896 0.000000 0.000000
    39 0.000000 -1.227020 -0.000002 0.900744 0.000000 0.000000
    40 0.000002 1.227070 0.000032 0.092659 0.000000 0.000000
    41 -0.367996 -4.208406 0.173244 -2.532076 1.091700 2.536232
    42 0.368011 4.208412 -0.173239 2.943027 1.091688 2.536231
    43 0.000000 -2.372318 -0.000004 1.530164 0.000000 0.000000
    44 -0.000006 2.372318 -0.000032 0.722081 0.000000 0.000000
    45 0.000004 -1.580070 -0.000001 0.842338 0.000000 0.000000
    46 -0.000002 1.580170 0.000030 0.034255 0.000000 0.000000
    47 -0.937645 -3.860697 -0.959317 -2.430895 1.001855 2.581106
    48 0.937672 3.860714 0.959333 3.044206 1.001840 2.581100
    49 0.000000 -1.690632 0.000000 1.299633 0.000000 0.000000
    50 -0.000013 1.690666 0.000021 0.491549 0.000000 0.000000
    51 -0.000002 -1.423443 0.000002 1.042296 0.000000 0.000000
    52 0.000008 1.423420 0.000028 0.234212 0.000000 0.000000
    53 -1.546646 -3.404194 -1.915569 3.790611 0.727422 2.382452
    54 1.546661 3.404217 1.915585 3.024293 0.944156 2.514435
    55 0.000004 -1.437820 0.000000 1.233042 0.000000 0.000000
    56 -0.000021 1.437870 0.000031 0.424957 0.000000 0.000000
    57 -0.000002 -1.059402 0.000000 1.130157 0.000000 0.000000
    58 0.000006 1.059372 0.000008 0.322075 0.000000 0.000000
    59 -0.054352 -11.867188 -0.028397 0.010936 -0.284123 -0.076428
    60 0.161133 -10.804688 0.023087 3.129114 -0.571516 3.074983
end
