// Created by Crowbar 0.74
version 1
nodes
  0 "root" -1
  1 "bip_upperArm_R" 0
  2 "bip_lowerArm_R" 1
  3 "bip_hand_R" 2
  4 "bip_upperArm_L" 0
  5 "bip_lowerArm_L" 4
  6 "bip_hand_L" 5
  7 "effect_hand_L" 6
  8 "effect_hand_R" 3
  9 "weapon_bone" 3
  10 "weapon_bone_1" 3
  11 "weapon_bone_2" 3
  12 "weapon_bone_3" 3
  13 "weapon_bone_4" 3
  14 "weapon_bone_5" 3
  15 "weapon_bone_6" 3
  16 "weapon_bone_7" 3
  17 "weapon_bone_L" 6
  18 "vm_weapon_bone" 3
  19 "vm_weapon_bone_1" 3
  20 "vm_weapon_bone_2" 3
  21 "vm_weapon_bone_3" 3
  22 "vm_weapon_bone_4" 3
  23 "vm_weapon_bone_5" 3
  24 "vm_weapon_bone_6" 3
  25 "vm_weapon_bone_7" 3
  26 "vm_weapon_bone_L" 6
  27 "vm_weapon_bone_L_1" 6
  28 "vm_weapon_bone_L_2" 6
  29 "bip_thumb_0_L" 6
  30 "bip_thumb_0_R" 3
  31 "bip_thumb_1_L" 29
  32 "bip_thumb_1_R" 30
  33 "bip_thumb_2_L" 31
  34 "bip_thumb_2_R" 32
  35 "bip_index_0_L" 6
  36 "bip_index_0_R" 3
  37 "bip_index_1_L" 35
  38 "bip_index_1_R" 36
  39 "bip_index_2_L" 37
  40 "bip_index_2_R" 38
  41 "bip_middle_0_L" 6
  42 "bip_middle_0_R" 3
  43 "bip_middle_1_L" 41
  44 "bip_middle_1_R" 42
  45 "bip_middle_2_L" 43
  46 "bip_middle_2_R" 44
  47 "bip_ring_0_L" 6
  48 "bip_ring_0_R" 3
  49 "bip_ring_1_L" 47
  50 "bip_ring_1_R" 48
  51 "bip_ring_2_L" 49
  52 "bip_ring_2_R" 50
  53 "bip_pinky_0_L" 6
  54 "bip_pinky_0_R" 3
  55 "bip_pinky_1_L" 53
  56 "bip_pinky_1_R" 54
  57 "bip_pinky_2_L" 55
  58 "bip_pinky_2_R" 56
  59 "Sleeve_Control" 5
  60 "Wrist_Control" 5
end
skeleton
  time 0
    0 3.357422 4.734375 -15.507813 -1.559898 -0.000007 -0.000009
    1 -21.391670 -4.994087 -8.978693 -1.064077 -0.072519 0.165240
    2 0.000000 14.313023 0.000003 -0.982659 0.000000 0.000000
    3 -0.000011 13.013483 -0.000005 -0.546350 -0.518366 0.772023
    4 2.301240 -0.904103 -6.748153 1.516880 0.100004 -0.705731
    5 0.000000 -14.313034 0.000000 -0.486788 0.000562 -0.000289
    6 -0.000004 -13.013485 -0.000004 0.458681 0.161875 0.500283
    7 -1.330879 -2.698427 0.462449 -0.194886 -0.547260 3.056712
    8 1.330910 2.698444 -0.462436 0.194890 0.547268 -0.084879
    9 8.468750 4.570313 -4.277344 -0.711697 0.510276 1.094600
    10 3.556210 4.238403 0.987502 -1.090396 0.577049 -0.321829
    11 4.139183 5.092691 1.421975 -1.090396 0.577049 -0.321829
    12 4.777527 6.028128 1.897721 -1.090396 0.577049 -0.321829
    13 5.490345 7.072691 2.428969 -1.090396 0.577049 -0.321829
    14 6.558594 8.640625 3.232422 -1.090396 0.577049 -0.321829
    15 7.558525 6.997282 -2.354134 -1.937336 -0.275393 3.010581
    16 7.558525 6.997282 -2.354134 1.937336 0.275393 -0.131011
    17 -2.867767 -2.740969 0.531125 2.051196 0.577049 -0.321829
    18 4.324081 2.744001 -0.524877 -1.090396 0.577049 -0.321829
    19 5.012512 3.752832 -0.011802 -1.090396 0.577049 -0.321829
    20 5.595486 4.607124 0.422674 -1.090396 0.577049 -0.321829
    21 6.233833 5.542564 0.898426 -1.090396 0.577049 -0.321829
    22 6.946648 6.587124 1.429667 -1.090396 0.577049 -0.321829
    23 7.537933 7.453606 1.870349 -1.090396 0.577049 -0.321829
    24 8.154472 8.357077 2.329839 -1.090396 0.577049 -0.321829
    25 8.874294 9.411907 2.866308 -1.090396 0.577049 -0.321829
    26 -4.125858 -2.321501 1.394414 2.051196 0.577049 -0.321829
    27 -4.826813 -3.348669 0.872014 2.051196 0.577049 -0.321829
    28 -5.441669 -4.249685 0.413772 2.051196 0.577049 -0.321829
    29 -0.552532 -1.343527 1.604446 -1.131258 0.062036 -0.739330
    30 0.552589 1.343534 -1.604463 -1.114994 0.161115 -0.499870
    31 0.000000 -2.021618 -0.000004 0.186809 0.000000 0.000000
    32 -0.000021 2.021633 0.000027 0.182215 0.000000 0.000000
    33 -0.000004 -1.136217 -0.000004 0.006928 0.000000 0.000000
    34 -0.000011 1.136200 -0.000019 0.220656 0.000000 0.000000
    35 -0.032677 -4.579914 1.352317 2.844703 1.216154 2.484990
    36 0.032719 4.587772 -1.352291 -1.640222 1.283116 -2.138746
    37 0.000000 -1.742817 -0.000002 0.662896 0.000000 0.000000
    38 -0.000006 1.754520 -0.000034 0.202293 0.000000 0.000000
    39 0.000000 -1.215301 -0.003908 0.092660 0.000000 0.000000
    40 0.000002 1.227070 0.000032 0.130356 0.000000 0.000000
    41 -0.367996 -4.200594 0.173244 2.943027 1.091688 2.536231
    42 0.368011 4.208412 -0.173239 3.085177 1.100761 2.833692
    43 0.000000 -2.364506 -0.000004 0.722081 0.000000 0.000000
    44 -0.000006 2.372318 -0.000032 0.722081 0.000000 0.000000
    45 0.000004 -1.572258 -0.003907 0.034255 0.000000 0.000000
    46 -0.000002 1.580170 0.000030 0.034255 0.000000 0.000000
    47 -0.937645 -3.852884 -0.955411 3.044205 1.001841 2.581100
    48 0.937672 3.860714 0.959333 2.886145 1.001846 2.581100
    49 0.000000 -1.678913 0.000000 0.491549 0.000000 0.000000
    50 -0.000013 1.690666 0.000021 0.491549 0.000000 0.000000
    51 -0.000002 -1.411724 0.000002 0.234212 0.000000 0.000000
    52 0.000008 1.423420 0.000028 0.234212 0.000000 0.000000
    53 -1.546646 -3.396381 -1.911663 3.024293 0.944156 2.514436
    54 1.546661 3.404217 1.915585 3.024293 0.944156 2.514435
    55 0.000004 -1.426101 0.000000 0.424958 0.000000 0.000000
    56 -0.000021 1.437870 0.000031 0.424957 0.000000 0.000000
    57 -0.000002 -1.047683 0.000000 0.322075 0.000000 0.000000
    58 0.000006 1.059372 0.000008 0.322075 0.000000 0.000000
    59 -0.000004 -13.013485 -0.000004 0.000000 0.000000 0.000000
    60 0.000000 -10.813480 -0.000004 0.000000 0.000000 0.000000
  time 1
    0 3.357422 4.734375 -15.507813 -1.559898 -0.000007 -0.000009
    1 -21.868247 -4.728454 -8.455239 -1.091721 -0.044192 0.170128
    2 0.000000 14.313023 0.000003 -0.982659 0.000000 0.000000
    3 -0.000011 13.013483 -0.000005 -0.547401 -0.516951 0.774324
    4 1.859820 -2.790879 -6.861438 1.512666 0.116414 -0.740879
    5 0.000000 -14.313034 0.000000 -0.503066 0.000562 -0.000289
    6 -0.000004 -13.013485 -0.000004 0.454627 0.159595 0.483312
    7 -1.330879 -2.698427 0.462449 -0.194886 -0.547260 3.056712
    8 1.330910 2.698444 -0.462436 0.194890 0.547268 -0.084879
    9 8.468750 4.570313 -4.277344 -0.711697 0.510276 1.094600
    10 3.556210 4.238403 0.987502 -1.090396 0.577049 -0.321829
    11 4.139183 5.092691 1.421975 -1.090396 0.577049 -0.321829
    12 4.777527 6.028128 1.897721 -1.090396 0.577049 -0.321829
    13 5.490345 7.072691 2.428969 -1.090396 0.577049 -0.321829
    14 6.558594 8.640625 3.232422 -1.090396 0.577049 -0.321829
    15 7.558525 6.997282 -2.354134 -1.937336 -0.275393 3.010581
    16 7.558525 6.997282 -2.354134 1.937336 0.275393 -0.131011
    17 -2.867767 -2.740969 0.531125 2.051196 0.577049 -0.321829
    18 4.324081 2.744001 -0.524877 -1.090396 0.577049 -0.321829
    19 5.012512 3.752832 -0.011802 -1.090396 0.577049 -0.321829
    20 5.595486 4.607124 0.422674 -1.090396 0.577049 -0.321829
    21 6.233833 5.542564 0.898426 -1.090396 0.577049 -0.321829
    22 6.946648 6.587124 1.429667 -1.090396 0.577049 -0.321829
    23 7.537933 7.453606 1.870349 -1.090396 0.577049 -0.321829
    24 8.154472 8.357077 2.329839 -1.090396 0.577049 -0.321829
    25 8.874294 9.411907 2.866308 -1.090396 0.577049 -0.321829
    26 -4.125858 -2.321501 1.394414 2.051196 0.577049 -0.321829
    27 -4.826813 -3.348669 0.872014 2.051196 0.577049 -0.321829
    28 -5.441669 -4.249685 0.413772 2.051196 0.577049 -0.321829
    29 -0.552532 -1.343527 1.604446 -1.131258 0.062036 -0.739330
    30 0.552589 1.343534 -1.604463 -1.114994 0.161115 -0.499870
    31 0.000000 -2.021618 -0.000004 0.186809 0.000000 0.000000
    32 -0.000021 2.021633 0.000027 0.182215 0.000000 0.000000
    33 -0.000004 -1.136217 -0.000004 0.006928 0.000000 0.000000
    34 -0.000011 1.136200 -0.000019 0.220656 0.000000 0.000000
    35 -0.032677 -4.579914 1.352317 2.829945 1.216154 2.484990
    36 0.032719 4.587772 -1.352291 -1.640222 1.283116 -2.138746
    37 0.000000 -1.742817 -0.000002 0.618131 0.000000 0.000000
    38 -0.000006 1.754520 -0.000034 0.202293 0.000000 0.000000
    39 0.000000 -1.215301 -0.003908 0.137277 0.000000 0.000000
    40 0.000002 1.227070 0.000032 0.130356 0.000000 0.000000
    41 -0.367996 -4.200594 0.173244 2.947607 1.091688 2.536231
    42 0.368011 4.208412 -0.173239 3.085177 1.100761 2.833692
    43 0.000000 -2.364506 -0.000004 0.740585 0.000000 0.000000
    44 -0.000006 2.372318 -0.000032 0.722081 0.000000 0.000000
    45 0.000004 -1.572258 -0.000001 0.133309 0.000000 0.000000
    46 -0.000002 1.580170 0.000030 0.034255 0.000000 0.000000
    47 -0.937645 -3.852884 -0.959317 3.048758 1.001841 2.581100
    48 0.937672 3.860714 0.959333 2.886145 1.001846 2.581100
    49 0.000000 -1.678913 0.000000 0.520009 0.000000 0.000000
    50 -0.000013 1.690666 0.000021 0.491549 0.000000 0.000000
    51 -0.000002 -1.411724 0.000002 0.338258 0.000000 0.000000
    52 0.000008 1.423420 0.000028 0.234212 0.000000 0.000000
    53 -1.546646 -3.396381 -1.911663 3.028908 0.944156 2.514436
    54 1.546661 3.404217 1.915585 3.024293 0.944156 2.514435
    55 0.000004 -1.426101 0.000000 0.466406 0.000000 0.000000
    56 -0.000021 1.437870 0.000031 0.424957 0.000000 0.000000
    57 -0.000002 -1.047683 0.000000 0.401733 0.000000 0.000000
    58 0.000006 1.059372 0.000008 0.322075 0.000000 0.000000
    59 -0.000004 -13.013485 -0.000004 0.000000 0.000000 0.000000
    60 0.000000 -10.813480 -0.000004 0.000000 0.000000 0.000000
  time 2
    0 3.357422 4.734375 -15.507813 -1.559898 -0.000007 -0.000009
    1 -23.383918 -4.130779 -7.072384 -1.152630 0.018376 0.181280
    2 0.000000 14.313023 0.000003 -0.982659 0.000000 0.000000
    3 -0.000011 13.013483 -0.000005 -0.549599 -0.514121 0.779116
    4 1.637157 -4.521401 -7.162228 1.508548 0.127063 -0.783880
    5 0.000000 -14.313034 0.000000 -0.547828 0.000562 -0.000289
    6 -0.000004 -13.013485 -0.000004 0.443548 0.153346 0.437164
    7 -1.330879 -2.698427 0.462449 -0.194886 -0.547260 3.056712
    8 1.330910 2.698444 -0.462436 0.194890 0.547268 -0.084879
    9 8.468750 4.570313 -4.277344 -0.711697 0.510276 1.094600
    10 3.556210 4.238403 0.987502 -1.090396 0.577049 -0.321829
    11 4.139183 5.092691 1.421975 -1.090396 0.577049 -0.321829
    12 4.777527 6.028128 1.897721 -1.090396 0.577049 -0.321829
    13 5.490345 7.072691 2.428969 -1.090396 0.577049 -0.321829
    14 6.558594 8.640625 3.232422 -1.090396 0.577049 -0.321829
    15 7.558525 6.997282 -2.354134 -1.937336 -0.275393 3.010581
    16 7.558525 6.997282 -2.354134 1.937336 0.275393 -0.131011
    17 -2.867767 -2.740969 0.531125 2.051196 0.577049 -0.321829
    18 4.324081 2.744001 -0.524877 -1.090396 0.577049 -0.321829
    19 5.012512 3.752832 -0.011802 -1.090396 0.577049 -0.321829
    20 5.595486 4.607124 0.422674 -1.090396 0.577049 -0.321829
    21 6.233833 5.542564 0.898426 -1.090396 0.577049 -0.321829
    22 6.946648 6.587124 1.429667 -1.090396 0.577049 -0.321829
    23 7.537933 7.453606 1.870349 -1.090396 0.577049 -0.321829
    24 8.154472 8.357077 2.329839 -1.090396 0.577049 -0.321829
    25 8.874294 9.411907 2.866308 -1.090396 0.577049 -0.321829
    26 -4.125858 -2.321501 1.394414 2.051196 0.577049 -0.321829
    27 -4.826813 -3.348669 0.872014 2.051196 0.577049 -0.321829
    28 -5.441669 -4.249685 0.413772 2.051196 0.577049 -0.321829
    29 -0.552532 -1.343527 1.604446 -1.131258 0.062036 -0.739330
    30 0.552589 1.343534 -1.604463 -1.114994 0.161115 -0.499870
    31 0.000000 -2.021618 -0.000004 0.186809 0.000000 0.000000
    32 -0.000021 2.021633 0.000027 0.182215 0.000000 0.000000
    33 -0.000004 -1.136217 -0.000004 0.006928 0.000000 0.000000
    34 -0.000011 1.136200 -0.000019 0.220656 0.000000 0.000000
    35 -0.032677 -4.576007 1.352317 2.815968 1.216154 2.484990
    36 0.032719 4.587772 -1.352291 -1.640222 1.283116 -2.138746
    37 0.000000 -1.742817 -0.000002 0.575826 0.000000 0.000000
    38 -0.000006 1.754520 -0.000034 0.202293 0.000000 0.000000
    39 0.000000 -1.215301 -0.003908 0.179577 0.000000 0.000000
    40 0.000002 1.227070 0.000032 0.130356 0.000000 0.000000
    41 -0.367996 -4.200594 0.173244 2.951918 1.091688 2.536231
    42 0.368011 4.208412 -0.173239 3.085177 1.100761 2.833692
    43 0.000000 -2.364506 -0.000004 0.758121 0.000000 0.000000
    44 -0.000006 2.372318 -0.000032 0.722081 0.000000 0.000000
    45 0.000004 -1.572258 -0.000001 0.226878 0.000000 0.000000
    46 -0.000002 1.580170 0.000030 0.034255 0.000000 0.000000
    47 -0.937645 -3.848978 -0.955411 3.053124 1.001841 2.581100
    48 0.937672 3.860714 0.959333 2.886145 1.001846 2.581100
    49 0.000000 -1.678913 0.000000 0.547003 0.000000 0.000000
    50 -0.000013 1.690666 0.000021 0.491549 0.000000 0.000000
    51 -0.000002 -1.411724 0.000002 0.436583 0.000000 0.000000
    52 0.000008 1.423420 0.000028 0.234212 0.000000 0.000000
    53 -1.546646 -3.396381 -1.911663 3.033246 0.944156 2.514436
    54 1.546661 3.404217 1.915585 3.024293 0.944156 2.514435
    55 0.000004 -1.426101 0.000000 0.505683 0.000000 0.000000
    56 -0.000021 1.437870 0.000031 0.424957 0.000000 0.000000
    57 -0.000002 -1.047683 0.000000 0.477058 0.000000 0.000000
    58 0.000006 1.059372 0.000008 0.322075 0.000000 0.000000
    59 -0.000004 -13.013485 -0.000004 0.000000 0.000000 0.000000
    60 0.000000 -10.813480 -0.000004 0.000000 0.000000 0.000000
  time 3
    0 3.357422 4.734375 -15.507813 -1.559898 -0.000007 -0.000009
    1 -25.899620 -3.263565 -5.033260 -1.241551 0.109557 0.197549
    2 0.000000 14.313023 0.000003 -0.982659 0.000000 0.000000
    3 -0.000011 13.013483 -0.000005 -0.553134 -0.509593 0.786881
    4 1.703565 -6.044885 -7.603648 1.504143 0.130701 -0.828509
    5 0.000000 -14.313034 0.000000 -0.614253 0.000562 -0.000289
    6 -0.000004 -13.013485 -0.000004 0.426703 0.144223 0.368514
    7 -1.330879 -2.698427 0.462449 -0.194886 -0.547260 3.056712
    8 1.330910 2.698444 -0.462436 0.194890 0.547268 -0.084879
    9 8.468750 4.570313 -4.277344 -0.711697 0.510276 1.094600
    10 3.556210 4.238403 0.987502 -1.090396 0.577049 -0.321829
    11 4.139183 5.092691 1.421975 -1.090396 0.577049 -0.321829
    12 4.777527 6.028128 1.897721 -1.090396 0.577049 -0.321829
    13 5.490345 7.072691 2.428969 -1.090396 0.577049 -0.321829
    14 6.558594 8.640625 3.232422 -1.090396 0.577049 -0.321829
    15 7.558525 6.997282 -2.354134 -1.937336 -0.275393 3.010581
    16 7.558525 6.997282 -2.354134 1.937336 0.275393 -0.131011
    17 -2.867767 -2.740969 0.531125 2.051196 0.577049 -0.321829
    18 4.324081 2.744001 -0.524877 -1.090396 0.577049 -0.321829
    19 5.012512 3.752832 -0.011802 -1.090396 0.577049 -0.321829
    20 5.595486 4.607124 0.422674 -1.090396 0.577049 -0.321829
    21 6.233833 5.542564 0.898426 -1.090396 0.577049 -0.321829
    22 6.946648 6.587124 1.429667 -1.090396 0.577049 -0.321829
    23 7.537933 7.453606 1.870349 -1.090396 0.577049 -0.321829
    24 8.154472 8.357077 2.329839 -1.090396 0.577049 -0.321829
    25 8.874294 9.411907 2.866308 -1.090396 0.577049 -0.321829
    26 -4.125858 -2.321501 1.394414 2.051196 0.577049 -0.321829
    27 -4.826813 -3.348669 0.872014 2.051196 0.577049 -0.321829
    28 -5.441669 -4.249685 0.413772 2.051196 0.577049 -0.321829
    29 -0.552532 -1.343527 1.604446 -1.131258 0.062036 -0.739330
    30 0.552589 1.343534 -1.604463 -1.114994 0.161115 -0.499870
    31 0.000000 -2.021618 -0.000004 0.186809 0.000000 0.000000
    32 -0.000021 2.021633 0.000027 0.182215 0.000000 0.000000
    33 -0.000004 -1.136217 -0.000004 0.006928 0.000000 0.000000
    34 -0.000011 1.136200 -0.000019 0.220656 0.000000 0.000000
    35 -0.032677 -4.576007 1.352317 2.802598 1.216154 2.484990
    36 0.032719 4.587772 -1.352291 -1.640222 1.283116 -2.138746
    37 0.000000 -1.742817 -0.000002 0.535607 0.000000 0.000000
    38 -0.000006 1.754520 -0.000034 0.202293 0.000000 0.000000
    39 0.000000 -1.215301 -0.003908 0.219704 0.000000 0.000000
    40 0.000002 1.227070 0.000032 0.130356 0.000000 0.000000
    41 -0.367996 -4.200594 0.173244 2.956050 1.091688 2.536231
    42 0.368011 4.208412 -0.173239 3.085177 1.100761 2.833692
    43 0.000000 -2.364506 -0.000004 0.774811 0.000000 0.000000
    44 -0.000006 2.372318 -0.000032 0.722081 0.000000 0.000000
    45 0.000004 -1.572258 -0.000001 0.315838 0.000000 0.000000
    46 -0.000002 1.580170 0.000030 0.034255 0.000000 0.000000
    47 -0.937645 -3.848978 -0.955411 3.057305 1.001841 2.581100
    48 0.937672 3.860714 0.959333 2.886145 1.001846 2.581100
    49 0.000000 -1.678913 0.000000 0.572609 0.000000 0.000000
    50 -0.000013 1.690666 0.000021 0.491549 0.000000 0.000000
    51 -0.000002 -1.411724 -0.003904 0.530006 0.000000 0.000000
    52 0.000008 1.423420 0.000028 0.234212 0.000000 0.000000
    53 -1.546646 -3.392475 -1.911663 3.037307 0.944156 2.514436
    54 1.546661 3.404217 1.915585 3.024293 0.944156 2.514435
    55 0.000004 -1.430008 0.000000 0.542977 0.000000 0.000000
    56 -0.000021 1.437870 0.000031 0.424957 0.000000 0.000000
    57 -0.000002 -1.047683 0.000000 0.548554 0.000000 0.000000
    58 0.000006 1.059372 0.000008 0.322075 0.000000 0.000000
    59 -0.000004 -13.013485 -0.000004 0.000000 0.000000 0.000000
    60 0.000000 -10.813480 -0.000004 0.000000 0.000000 0.000000
  time 4
    0 3.357422 4.734375 -15.507813 -1.559898 -0.000007 -0.000009
    1 -29.255191 -2.185407 -2.556622 -1.352311 0.223152 0.217790
    2 0.000000 14.313023 0.000003 -0.982659 0.000000 0.000000
    3 -0.000011 13.013483 -0.000005 -0.557434 -0.503980 0.796275
    4 2.117640 -7.287110 -8.146633 1.499643 0.125168 -0.872468
    5 0.000000 -14.313034 0.000000 -0.695340 0.000562 -0.000289
    6 -0.000004 -13.013485 -0.000004 0.405985 0.133049 0.284991
    7 -1.330879 -2.698427 0.462449 -0.194886 -0.547260 3.056712
    8 1.330910 2.698444 -0.462436 0.194890 0.547268 -0.084879
    9 8.468750 4.570313 -4.277344 -0.711697 0.510276 1.094600
    10 3.556210 4.238403 0.987502 -1.090396 0.577049 -0.321829
    11 4.139183 5.092691 1.421975 -1.090396 0.577049 -0.321829
    12 4.777527 6.028128 1.897721 -1.090396 0.577049 -0.321829
    13 5.490345 7.072691 2.428969 -1.090396 0.577049 -0.321829
    14 6.558594 8.640625 3.232422 -1.090396 0.577049 -0.321829
    15 7.558525 6.997282 -2.354134 -1.937336 -0.275393 3.010581
    16 7.558525 6.997282 -2.354134 1.937336 0.275393 -0.131011
    17 -2.867767 -2.740969 0.531125 2.051196 0.577049 -0.321829
    18 4.324081 2.744001 -0.524877 -1.090396 0.577049 -0.321829
    19 5.012512 3.752832 -0.011802 -1.090396 0.577049 -0.321829
    20 5.595486 4.607124 0.422674 -1.090396 0.577049 -0.321829
    21 6.233833 5.542564 0.898426 -1.090396 0.577049 -0.321829
    22 6.946648 6.587124 1.429667 -1.090396 0.577049 -0.321829
    23 7.537933 7.453606 1.870349 -1.090396 0.577049 -0.321829
    24 8.154472 8.357077 2.329839 -1.090396 0.577049 -0.321829
    25 8.874294 9.411907 2.866308 -1.090396 0.577049 -0.321829
    26 -4.125858 -2.321501 1.394414 2.051196 0.577049 -0.321829
    27 -4.826813 -3.348669 0.872014 2.051196 0.577049 -0.321829
    28 -5.441669 -4.249685 0.413772 2.051196 0.577049 -0.321829
    29 -0.552532 -1.343527 1.604446 -1.131258 0.062036 -0.739330
    30 0.552589 1.343534 -1.604463 -1.114994 0.161115 -0.499870
    31 0.000000 -2.021618 -0.000004 0.186809 0.000000 0.000000
    32 -0.000021 2.021633 0.000027 0.182215 0.000000 0.000000
    33 -0.000004 -1.136217 -0.000004 0.006928 0.000000 0.000000
    34 -0.000011 1.136200 -0.000019 0.220656 0.000000 0.000000
    35 -0.032677 -4.576007 1.352317 2.790010 1.216154 2.484990
    36 0.032719 4.587772 -1.352291 -1.640222 1.283116 -2.138746
    37 0.000000 -1.742817 -0.000002 0.497527 0.000000 0.000000
    38 -0.000006 1.754520 -0.000034 0.202293 0.000000 0.000000
    39 0.000000 -1.215301 -0.003908 0.257706 0.000000 0.000000
    40 0.000002 1.227070 0.000032 0.130356 0.000000 0.000000
    41 -0.367996 -4.200594 0.173244 2.960002 1.091688 2.536231
    42 0.368011 4.208412 -0.173239 3.085177 1.100761 2.833692
    43 0.000000 -2.364506 -0.000004 0.790614 0.000000 0.000000
    44 -0.000006 2.372318 -0.000032 0.722081 0.000000 0.000000
    45 0.000004 -1.572258 -0.000001 0.400138 0.000000 0.000000
    46 -0.000002 1.580170 0.000030 0.034255 0.000000 0.000000
    47 -0.937645 -3.848978 -0.955411 3.061206 1.001841 2.581100
    48 0.937672 3.860714 0.959333 2.886145 1.001846 2.581100
    49 0.000000 -1.678913 0.000000 0.596865 0.000000 0.000000
    50 -0.000013 1.690666 0.000021 0.491549 0.000000 0.000000
    51 -0.000002 -1.411724 -0.003904 0.618526 0.000000 0.000000
    52 0.000008 1.423420 0.000028 0.234212 0.000000 0.000000
    53 -1.546646 -3.392475 -1.911663 3.041276 0.944156 2.514436
    54 1.546661 3.404217 1.915585 3.024293 0.944156 2.514435
    55 0.000004 -1.426101 0.000000 0.578288 0.000000 0.000000
    56 -0.000021 1.437870 0.000031 0.424957 0.000000 0.000000
    57 -0.000002 -1.047683 0.000000 0.616361 0.000000 0.000000
    58 0.000006 1.059372 0.000008 0.322075 0.000000 0.000000
    59 -0.000004 -13.013485 -0.000004 0.000000 0.000000 0.000000
    60 0.000000 -10.813480 -0.000004 0.000000 0.000000 0.000000
  time 5
    0 3.357422 4.734375 -15.507813 -1.559898 -0.000007 -0.000009
    1 -33.142028 -0.982246 0.138773 -1.475972 0.350005 0.240246
    2 0.000000 14.313023 0.000003 -0.982659 0.000000 0.000000
    3 -0.000011 13.013483 -0.000005 -0.562116 -0.497990 0.806339
    4 3.086420 -8.044946 -8.728682 1.494950 0.106220 -0.914224
    5 0.000000 -14.313034 0.000000 -0.783010 0.000562 -0.000289
    6 -0.000004 -13.013485 -0.000004 0.382835 0.121053 0.195270
    7 -1.330879 -2.698427 0.462449 -0.194886 -0.547260 3.056712
    8 1.330910 2.698444 -0.462436 0.194890 0.547268 -0.084879
    9 8.468750 4.570313 -4.277344 -0.711697 0.510276 1.094600
    10 3.556210 4.238403 0.987502 -1.090396 0.577049 -0.321829
    11 4.139183 5.092691 1.421975 -1.090396 0.577049 -0.321829
    12 4.777527 6.028128 1.897721 -1.090396 0.577049 -0.321829
    13 5.490345 7.072691 2.428969 -1.090396 0.577049 -0.321829
    14 6.558594 8.640625 3.232422 -1.090396 0.577049 -0.321829
    15 7.558525 6.997282 -2.354134 -1.937336 -0.275393 3.010581
    16 7.558525 6.997282 -2.354134 1.937336 0.275393 -0.131011
    17 -2.867767 -2.740969 0.531125 2.051196 0.577049 -0.321829
    18 4.324081 2.744001 -0.524877 -1.090396 0.577049 -0.321829
    19 5.012512 3.752832 -0.011802 -1.090396 0.577049 -0.321829
    20 5.595486 4.607124 0.422674 -1.090396 0.577049 -0.321829
    21 6.233833 5.542564 0.898426 -1.090396 0.577049 -0.321829
    22 6.946648 6.587124 1.429667 -1.090396 0.577049 -0.321829
    23 7.537933 7.453606 1.870349 -1.090396 0.577049 -0.321829
    24 8.154472 8.357077 2.329839 -1.090396 0.577049 -0.321829
    25 8.874294 9.411907 2.866308 -1.090396 0.577049 -0.321829
    26 -4.125858 -2.321501 1.394414 2.051196 0.577049 -0.321829
    27 -4.826813 -3.348669 0.872014 2.051196 0.577049 -0.321829
    28 -5.441669 -4.249685 0.413772 2.051196 0.577049 -0.321829
    29 -0.552532 -1.343527 1.604446 -1.131258 0.062036 -0.739330
    30 0.552589 1.343534 -1.604463 -1.114994 0.161115 -0.499870
    31 0.000000 -2.021618 -0.000004 0.186809 0.000000 0.000000
    32 -0.000021 2.021633 0.000027 0.182215 0.000000 0.000000
    33 -0.000004 -1.136217 -0.000004 0.006928 0.000000 0.000000
    34 -0.000011 1.136200 -0.000019 0.220656 0.000000 0.000000
    35 -0.032677 -4.576007 1.352317 2.778291 1.216154 2.484990
    36 0.032719 4.587772 -1.352291 -1.640222 1.283116 -2.138746
    37 0.000000 -1.742817 -0.000002 0.462042 0.000000 0.000000
    38 -0.000006 1.754520 -0.000034 0.202293 0.000000 0.000000
    39 0.000000 -1.215301 -0.003908 0.293149 0.000000 0.000000
    40 0.000002 1.227070 0.000032 0.130356 0.000000 0.000000
    41 -0.367996 -4.196687 0.173244 2.963684 1.091688 2.536231
    42 0.368011 4.208412 -0.173239 3.085177 1.100761 2.833692
    43 0.000000 -2.364506 -0.000004 0.805288 0.000000 0.000000
    44 -0.000006 2.372318 -0.000032 0.722081 0.000000 0.000000
    45 0.000004 -1.572258 -0.000001 0.478670 0.000000 0.000000
    46 -0.000002 1.580170 0.000030 0.034255 0.000000 0.000000
    47 -0.937645 -3.848978 -0.955411 3.064923 1.001841 2.581100
    48 0.937672 3.860714 0.959333 2.886145 1.001846 2.581100
    49 0.000000 -1.678913 0.000000 0.619501 0.000000 0.000000
    50 -0.000013 1.690666 0.000021 0.491549 0.000000 0.000000
    51 -0.000002 -1.411724 -0.003904 0.701054 0.000000 0.000000
    52 0.000008 1.423420 0.000028 0.234212 0.000000 0.000000
    53 -1.546646 -3.392475 -1.911663 3.044967 0.944156 2.514436
    54 1.546661 3.404217 1.915585 3.024293 0.944156 2.514435
    55 0.000004 -1.430008 0.000000 0.611192 0.000000 0.000000
    56 -0.000021 1.437870 0.000031 0.424957 0.000000 0.000000
    57 -0.000002 -1.047683 0.000000 0.679528 0.000000 0.000000
    58 0.000006 1.059372 0.000008 0.322075 0.000000 0.000000
    59 -0.000004 -13.013485 -0.000004 0.000000 0.000000 0.000000
    60 0.000000 -10.813480 -0.000004 0.000000 0.000000 0.000000
  time 6
    0 3.357422 4.734375 -15.507813 -1.559898 -0.000007 -0.000009
    1 -37.083555 0.236542 2.822449 -1.601384 0.478431 0.263008
    2 0.000000 14.313023 0.000003 -0.982659 0.000000 0.000000
    3 -0.000011 13.013483 -0.000005 -0.566702 -0.492000 0.816596
    4 4.781784 -8.087916 -9.314638 1.490354 0.069004 -0.952437
    5 0.000000 -14.313034 0.000000 -0.869064 0.000562 -0.000289
    6 -0.000004 -13.013485 -0.000004 0.359324 0.109331 0.107551
    7 -1.330879 -2.698427 0.462449 -0.194886 -0.547260 3.056712
    8 1.330910 2.698444 -0.462436 0.194890 0.547268 -0.084879
    9 8.468750 4.570313 -4.277344 -0.711697 0.510276 1.094600
    10 3.556210 4.238403 0.987502 -1.090396 0.577049 -0.321829
    11 4.139183 5.092691 1.421975 -1.090396 0.577049 -0.321829
    12 4.777527 6.028128 1.897721 -1.090396 0.577049 -0.321829
    13 5.490345 7.072691 2.428969 -1.090396 0.577049 -0.321829
    14 6.558594 8.640625 3.232422 -1.090396 0.577049 -0.321829
    15 7.558525 6.997282 -2.354134 -1.937336 -0.275393 3.010581
    16 7.558525 6.997282 -2.354134 1.937336 0.275393 -0.131011
    17 -2.867767 -2.740969 0.531125 2.051196 0.577049 -0.321829
    18 4.324081 2.744001 -0.524877 -1.090396 0.577049 -0.321829
    19 5.012512 3.752832 -0.011802 -1.090396 0.577049 -0.321829
    20 5.595486 4.607124 0.422674 -1.090396 0.577049 -0.321829
    21 6.233833 5.542564 0.898426 -1.090396 0.577049 -0.321829
    22 6.946648 6.587124 1.429667 -1.090396 0.577049 -0.321829
    23 7.537933 7.453606 1.870349 -1.090396 0.577049 -0.321829
    24 8.154472 8.357077 2.329839 -1.090396 0.577049 -0.321829
    25 8.874294 9.411907 2.866308 -1.090396 0.577049 -0.321829
    26 -4.125858 -2.321501 1.394414 2.051196 0.577049 -0.321829
    27 -4.826813 -3.348669 0.872014 2.051196 0.577049 -0.321829
    28 -5.441669 -4.249685 0.413772 2.051196 0.577049 -0.321829
    29 -0.552532 -1.343527 1.604446 -1.131258 0.062036 -0.739330
    30 0.552589 1.343534 -1.604463 -1.114994 0.161115 -0.499870
    31 0.000000 -2.021618 -0.000004 0.186809 0.000000 0.000000
    32 -0.000021 2.021633 0.000027 0.182215 0.000000 0.000000
    33 -0.000004 -1.136217 -0.000004 0.006928 0.000000 0.000000
    34 -0.000011 1.136200 -0.000019 0.220656 0.000000 0.000000
    35 -0.032677 -4.576007 1.352317 2.767439 1.216154 2.484990
    36 0.032719 4.587772 -1.352291 -1.640222 1.283116 -2.138746
    37 0.000000 -1.742817 -0.000002 0.429364 0.000000 0.000000
    38 -0.000006 1.754520 -0.000034 0.202293 0.000000 0.000000
    39 0.000000 -1.215301 -0.003908 0.325743 0.000000 0.000000
    40 0.000002 1.227070 0.000032 0.130356 0.000000 0.000000
    41 -0.367996 -4.200594 0.173244 2.967097 1.091688 2.536231
    42 0.368011 4.208412 -0.173239 3.085177 1.100761 2.833692
    43 0.000000 -2.364506 -0.000004 0.818833 0.000000 0.000000
    44 -0.000006 2.372318 -0.000032 0.722081 0.000000 0.000000
    45 0.000004 -1.572258 -0.000001 0.550919 0.000000 0.000000
    46 -0.000002 1.580170 0.000030 0.034255 0.000000 0.000000
    47 -0.937645 -3.848978 -0.959317 3.068267 1.001841 2.581100
    48 0.937672 3.860714 0.959333 2.886145 1.001846 2.581100
    49 0.000000 -1.678913 0.000000 0.640325 0.000000 0.000000
    50 -0.000013 1.690666 0.000021 0.491549 0.000000 0.000000
    51 -0.000002 -1.411724 -0.003904 0.776936 0.000000 0.000000
    52 0.000008 1.423420 0.000028 0.234212 0.000000 0.000000
    53 -1.546646 -3.392475 -1.911663 3.048382 0.944156 2.514436
    54 1.546661 3.404217 1.915585 3.024293 0.944156 2.514435
    55 0.000004 -1.426101 0.000000 0.641452 0.000000 0.000000
    56 -0.000021 1.437870 0.000031 0.424957 0.000000 0.000000
    57 -0.000002 -1.047683 0.000000 0.737665 0.000000 0.000000
    58 0.000006 1.059372 0.000008 0.322075 0.000000 0.000000
    59 -0.000004 -13.013485 -0.000004 0.000000 0.000000 0.000000
    60 0.000000 -10.813480 -0.000004 0.000000 0.000000 0.000000
  time 7
    0 3.357422 4.734375 -15.507813 -1.559898 -0.000007 -0.000009
    1 -40.646164 1.365482 5.295180 -1.717581 0.597606 0.284089
    2 0.000000 14.313023 0.000003 -0.982659 0.000000 0.000000
    3 -0.000011 13.013483 -0.000005 -0.571002 -0.486434 0.825990
    4 7.477179 -6.728499 -9.849810 1.486140 0.012309 -0.986339
    5 0.000000 -14.313034 0.000000 -0.946380 0.000562 -0.000289
    6 -0.000004 -13.013485 -0.000004 0.337255 0.098977 0.029653
    7 -1.330879 -2.698427 0.462449 -0.194886 -0.547260 3.056712
    8 1.330910 2.698444 -0.462436 0.194890 0.547268 -0.084879
    9 8.468750 4.570313 -4.277344 -0.711697 0.510276 1.094600
    10 3.556210 4.238403 0.987502 -1.090396 0.577049 -0.321829
    11 4.139183 5.092691 1.421975 -1.090396 0.577049 -0.321829
    12 4.777527 6.028128 1.897721 -1.090396 0.577049 -0.321829
    13 5.490345 7.072691 2.428969 -1.090396 0.577049 -0.321829
    14 6.558594 8.640625 3.232422 -1.090396 0.577049 -0.321829
    15 7.558525 6.997282 -2.354134 -1.937336 -0.275393 3.010581
    16 7.558525 6.997282 -2.354134 1.937336 0.275393 -0.131011
    17 -2.867767 -2.740969 0.531125 2.051196 0.577049 -0.321829
    18 4.324081 2.744001 -0.524877 -1.090396 0.577049 -0.321829
    19 5.012512 3.752832 -0.011802 -1.090396 0.577049 -0.321829
    20 5.595486 4.607124 0.422674 -1.090396 0.577049 -0.321829
    21 6.233833 5.542564 0.898426 -1.090396 0.577049 -0.321829
    22 6.946648 6.587124 1.429667 -1.090396 0.577049 -0.321829
    23 7.537933 7.453606 1.870349 -1.090396 0.577049 -0.321829
    24 8.154472 8.357077 2.329839 -1.090396 0.577049 -0.321829
    25 8.874294 9.411907 2.866308 -1.090396 0.577049 -0.321829
    26 -4.125858 -2.321501 1.394414 2.051196 0.577049 -0.321829
    27 -4.826813 -3.348669 0.872014 2.051196 0.577049 -0.321829
    28 -5.441669 -4.249685 0.413772 2.051196 0.577049 -0.321829
    29 -0.552532 -1.343527 1.604446 -1.131258 0.062036 -0.739330
    30 0.552589 1.343534 -1.604463 -1.114994 0.161115 -0.499870
    31 0.000000 -2.021618 -0.000004 0.186809 0.000000 0.000000
    32 -0.000021 2.021633 0.000027 0.182215 0.000000 0.000000
    33 -0.000004 -1.136217 -0.000004 0.006928 0.000000 0.000000
    34 -0.000011 1.136200 -0.000019 0.220656 0.000000 0.000000
    35 -0.032677 -4.576007 1.352317 2.757803 1.216154 2.484990
    36 0.032719 4.587772 -1.352291 -1.640222 1.283116 -2.138746
    37 0.000000 -1.742817 -0.000002 0.400429 0.000000 0.000000
    38 -0.000006 1.754520 -0.000034 0.202293 0.000000 0.000000
    39 0.000000 -1.215301 -0.000002 0.354619 0.000000 0.000000
    40 0.000002 1.227070 0.000032 0.130356 0.000000 0.000000
    41 -0.367996 -4.200594 0.177150 2.970061 1.091688 2.536231
    42 0.368011 4.208412 -0.173239 3.085177 1.100761 2.833692
    43 0.000000 -2.364506 -0.000004 0.830887 0.000000 0.000000
    44 -0.000006 2.372318 -0.000032 0.722081 0.000000 0.000000
    45 0.000004 -1.572258 -0.000001 0.614904 0.000000 0.000000
    46 -0.000002 1.580170 0.000030 0.034255 0.000000 0.000000
    47 -0.937645 -3.848978 -0.955411 3.071240 1.001841 2.581100
    48 0.937672 3.860714 0.959333 2.886145 1.001846 2.581100
    49 0.000000 -1.678913 0.000000 0.658681 0.000000 0.000000
    50 -0.000013 1.690666 0.000021 0.491549 0.000000 0.000000
    51 -0.000002 -1.411724 -0.003904 0.844102 0.000000 0.000000
    52 0.000008 1.423420 0.000028 0.234212 0.000000 0.000000
    53 -1.546646 -3.392475 -1.911663 3.051243 0.944156 2.514436
    54 1.546661 3.404217 1.915585 3.024293 0.944156 2.514435
    55 0.000004 -1.426101 0.000000 0.668361 0.000000 0.000000
    56 -0.000021 1.437870 0.000031 0.424957 0.000000 0.000000
    57 -0.000002 -1.047683 0.000000 0.789121 0.000000 0.000000
    58 0.000006 1.059372 0.000008 0.322075 0.000000 0.000000
    59 -0.000004 -13.013485 -0.000004 0.000000 0.000000 0.000000
    60 0.000000 -10.813480 -0.000004 0.000000 0.000000 0.000000
  time 8
    0 3.357422 4.734375 -15.507813 -1.559898 -0.000007 -0.000009
    1 -43.415779 2.287385 7.334305 -1.813137 0.695463 0.301427
    2 0.000000 14.313023 0.000003 -0.982659 0.000000 0.000000
    3 -0.000011 13.013483 -0.000005 -0.574537 -0.481906 0.833562
    4 10.528053 -3.064325 -10.295136 1.483267 -0.049350 -1.014305
    5 0.000000 -14.313034 0.000000 -1.008617 0.000562 -0.000289
    6 -0.000004 -13.013485 -0.000004 0.317798 0.090767 -0.031560
    7 -1.330879 -2.698427 0.462449 -0.194886 -0.547260 3.056712
    8 1.330910 2.698444 -0.462436 0.194890 0.547268 -0.084879
    9 8.468750 4.570313 -4.277344 -0.711697 0.510276 1.094600
    10 3.556210 4.238403 0.987502 -1.090396 0.577049 -0.321829
    11 4.139183 5.092691 1.421975 -1.090396 0.577049 -0.321829
    12 4.777527 6.028128 1.897721 -1.090396 0.577049 -0.321829
    13 5.490345 7.072691 2.428969 -1.090396 0.577049 -0.321829
    14 6.558594 8.640625 3.232422 -1.090396 0.577049 -0.321829
    15 7.558525 6.997282 -2.354134 -1.937336 -0.275393 3.010581
    16 7.558525 6.997282 -2.354134 1.937336 0.275393 -0.131011
    17 -2.867767 -2.740969 0.531125 2.051196 0.577049 -0.321829
    18 4.324081 2.744001 -0.524877 -1.090396 0.577049 -0.321829
    19 5.012512 3.752832 -0.011802 -1.090396 0.577049 -0.321829
    20 5.595486 4.607124 0.422674 -1.090396 0.577049 -0.321829
    21 6.233833 5.542564 0.898426 -1.090396 0.577049 -0.321829
    22 6.946648 6.587124 1.429667 -1.090396 0.577049 -0.321829
    23 7.537933 7.453606 1.870349 -1.090396 0.577049 -0.321829
    24 8.154472 8.357077 2.329839 -1.090396 0.577049 -0.321829
    25 8.874294 9.411907 2.866308 -1.090396 0.577049 -0.321829
    26 -4.125858 -2.321501 1.394414 2.051196 0.577049 -0.321829
    27 -4.826813 -3.348669 0.872014 2.051196 0.577049 -0.321829
    28 -5.441669 -4.249685 0.413772 2.051196 0.577049 -0.321829
    29 -0.552532 -1.343527 1.604446 -1.131258 0.062036 -0.739330
    30 0.552589 1.343534 -1.604463 -1.114994 0.161115 -0.499870
    31 0.000000 -2.021618 -0.000004 0.186809 0.000000 0.000000
    32 -0.000021 2.021633 0.000027 0.182215 0.000000 0.000000
    33 -0.000004 -1.136217 -0.000004 0.006928 0.000000 0.000000
    34 -0.000011 1.136200 -0.000019 0.220656 0.000000 0.000000
    35 -0.032677 -4.576007 1.352317 2.749816 1.216154 2.484990
    36 0.032719 4.587772 -1.352291 -1.640222 1.283116 -2.138746
    37 0.000000 -1.742817 -0.000002 0.376148 0.000000 0.000000
    38 -0.000006 1.754520 -0.000034 0.202293 0.000000 0.000000
    39 0.000000 -1.215301 -0.003908 0.378908 0.000000 0.000000
    40 0.000002 1.227070 0.000032 0.130356 0.000000 0.000000
    41 -0.367996 -4.200594 0.173244 2.972486 1.091688 2.536231
    42 0.368011 4.208412 -0.173239 3.085177 1.100761 2.833692
    43 0.000000 -2.364506 -0.000004 0.840885 0.000000 0.000000
    44 -0.000006 2.372318 -0.000032 0.722081 0.000000 0.000000
    45 0.000004 -1.572258 -0.000001 0.668615 0.000000 0.000000
    46 -0.000002 1.580170 0.000030 0.034255 0.000000 0.000000
    47 -0.937645 -3.852884 -0.955411 3.073748 1.001841 2.581100
    48 0.937672 3.860714 0.959333 2.886145 1.001846 2.581100
    49 0.000000 -1.678913 0.000000 0.674145 0.000000 0.000000
    50 -0.000013 1.690666 0.000021 0.491549 0.000000 0.000000
    51 -0.000002 -1.411724 -0.003904 0.900537 0.000000 0.000000
    52 0.000008 1.423420 0.000028 0.234212 0.000000 0.000000
    53 -1.546646 -3.396381 -1.911663 3.053828 0.944156 2.514436
    54 1.546661 3.404217 1.915585 3.024293 0.944156 2.514435
    55 0.000004 -1.430008 0.000000 0.690832 0.000000 0.000000
    56 -0.000021 1.437870 0.000031 0.424957 0.000000 0.000000
    57 -0.000002 -1.047683 0.000000 0.832331 0.000000 0.000000
    58 0.000006 1.059372 0.000008 0.322075 0.000000 0.000000
    59 -0.000004 -13.013485 -0.000004 0.000000 0.000000 0.000000
    60 0.000000 -10.813480 -0.000004 0.000000 0.000000 0.000000
  time 9
    0 3.357422 4.734375 -15.507813 -1.559898 -0.000007 -0.000009
    1 -45.103331 2.912405 8.717160 -1.876902 0.761036 0.313037
    2 0.000000 14.313023 0.000003 -0.982659 0.000000 0.000000
    3 -0.000011 13.013483 -0.000005 -0.576926 -0.478793 0.838834
    4 12.449987 -0.029076 -10.599833 1.482022 -0.088575 -1.033938
    5 0.000000 -14.313034 0.000000 -1.050986 0.000562 -0.000289
    6 -0.000004 -13.013485 -0.000004 0.302304 0.085385 -0.072082
    7 -1.330879 -2.698427 0.462449 -0.194886 -0.547260 3.056712
    8 1.330910 2.698444 -0.462436 0.194890 0.547268 -0.084879
    9 8.468750 4.570313 -4.277344 -0.711697 0.510276 1.094600
    10 3.556210 4.238403 0.987502 -1.090396 0.577049 -0.321829
    11 4.139183 5.092691 1.421975 -1.090396 0.577049 -0.321829
    12 4.777527 6.028128 1.897721 -1.090396 0.577049 -0.321829
    13 5.490345 7.072691 2.428969 -1.090396 0.577049 -0.321829
    14 6.558594 8.640625 3.232422 -1.090396 0.577049 -0.321829
    15 7.558525 6.997282 -2.354134 -1.937336 -0.275393 3.010581
    16 7.558525 6.997282 -2.354134 1.937336 0.275393 -0.131011
    17 -2.867767 -2.740969 0.531125 2.051196 0.577049 -0.321829
    18 4.324081 2.744001 -0.524877 -1.090396 0.577049 -0.321829
    19 5.012512 3.752832 -0.011802 -1.090396 0.577049 -0.321829
    20 5.595486 4.607124 0.422674 -1.090396 0.577049 -0.321829
    21 6.233833 5.542564 0.898426 -1.090396 0.577049 -0.321829
    22 6.946648 6.587124 1.429667 -1.090396 0.577049 -0.321829
    23 7.537933 7.453606 1.870349 -1.090396 0.577049 -0.321829
    24 8.154472 8.357077 2.329839 -1.090396 0.577049 -0.321829
    25 8.874294 9.411907 2.866308 -1.090396 0.577049 -0.321829
    26 -4.125858 -2.321501 1.394414 2.051196 0.577049 -0.321829
    27 -4.826813 -3.348669 0.872014 2.051196 0.577049 -0.321829
    28 -5.441669 -4.249685 0.413772 2.051196 0.577049 -0.321829
    29 -0.552532 -1.343527 1.604446 -1.131258 0.062036 -0.739330
    30 0.552589 1.343534 -1.604463 -1.114994 0.161115 -0.499870
    31 0.000000 -2.021618 -0.000004 0.186809 0.000000 0.000000
    32 -0.000021 2.021633 0.000027 0.182215 0.000000 0.000000
    33 -0.000004 -1.136217 -0.000004 0.006928 0.000000 0.000000
    34 -0.000011 1.136200 -0.000019 0.220656 0.000000 0.000000
    35 -0.032677 -4.576007 1.352317 2.743913 1.216154 2.484990
    36 0.032719 4.587772 -1.352291 -1.640222 1.283116 -2.138746
    37 0.000000 -1.742817 -0.000002 0.358231 0.000000 0.000000
    38 -0.000006 1.754520 -0.000034 0.202293 0.000000 0.000000
    39 0.000000 -1.215301 -0.000002 0.396774 0.000000 0.000000
    40 0.000002 1.227070 0.000032 0.130356 0.000000 0.000000
    41 -0.367996 -4.200594 0.177150 2.974372 1.091688 2.536231
    42 0.368011 4.208412 -0.173239 3.085177 1.100761 2.833692
    43 0.000000 -2.364506 -0.000004 0.848343 0.000000 0.000000
    44 -0.000006 2.372318 -0.000032 0.722081 0.000000 0.000000
    45 0.000004 -1.572258 -0.000001 0.708293 0.000000 0.000000
    46 -0.000002 1.580170 0.000030 0.034255 0.000000 0.000000
    47 -0.937645 -3.848978 -0.955411 3.075606 1.001841 2.581100
    48 0.937672 3.860714 0.959333 2.886145 1.001846 2.581100
    49 0.000000 -1.678913 0.000000 0.685598 0.000000 0.000000
    50 -0.000013 1.690666 0.000021 0.491549 0.000000 0.000000
    51 -0.000002 -1.411724 -0.003904 0.942264 0.000000 0.000000
    52 0.000008 1.423420 0.000028 0.234212 0.000000 0.000000
    53 -1.546646 -3.396381 -1.911663 3.055673 0.944156 2.514436
    54 1.546661 3.404217 1.915585 3.024293 0.944156 2.514435
    55 0.000004 -1.430008 0.000000 0.707449 0.000000 0.000000
    56 -0.000021 1.437870 0.000031 0.424957 0.000000 0.000000
    57 -0.000002 -1.047683 0.000000 0.864250 0.000000 0.000000
    58 0.000006 1.059372 0.000008 0.322075 0.000000 0.000000
    59 -0.000004 -13.013485 -0.000004 0.000000 0.000000 0.000000
    60 0.000000 -10.813480 -0.000004 0.000000 0.000000 0.000000
  time 10
    0 3.357422 4.734375 -15.507813 -1.559898 -0.000007 -0.000009
    1 -45.646316 3.138974 9.236707 -1.900492 0.785023 0.317315
    2 0.000000 14.313023 0.000003 -0.982659 0.000000 0.000000
    3 -0.000011 13.013483 -0.000005 -0.577786 -0.477614 0.840752
    4 13.000785 0.748291 -10.713118 1.481639 -0.100588 -1.041503
    5 0.000000 -14.313034 0.000000 -1.070315 0.000562 -0.000289
    6 -0.000004 -13.013485 -0.000004 0.291495 0.083241 -0.088291
    7 -1.330879 -2.698427 0.462449 -0.194886 -0.547260 3.056712
    8 1.330910 2.698444 -0.462436 0.194890 0.547268 -0.084879
    9 8.468750 4.570313 -4.277344 -0.711697 0.510276 1.094600
    10 3.556210 4.238403 0.987502 -1.090396 0.577049 -0.321829
    11 4.139183 5.092691 1.421975 -1.090396 0.577049 -0.321829
    12 4.777527 6.028128 1.897721 -1.090396 0.577049 -0.321829
    13 5.490345 7.072691 2.428969 -1.090396 0.577049 -0.321829
    14 6.558594 8.640625 3.232422 -1.090396 0.577049 -0.321829
    15 7.558525 6.997282 -2.354134 -1.937336 -0.275393 3.010581
    16 7.558525 6.997282 -2.354134 1.937336 0.275393 -0.131011
    17 -2.867767 -2.740969 0.531125 2.051196 0.577049 -0.321829
    18 4.324081 2.744001 -0.524877 -1.090396 0.577049 -0.321829
    19 5.012512 3.752832 -0.011802 -1.090396 0.577049 -0.321829
    20 5.595486 4.607124 0.422674 -1.090396 0.577049 -0.321829
    21 6.233833 5.542564 0.898426 -1.090396 0.577049 -0.321829
    22 6.946648 6.587124 1.429667 -1.090396 0.577049 -0.321829
    23 7.537933 7.453606 1.870349 -1.090396 0.577049 -0.321829
    24 8.154472 8.357077 2.329839 -1.090396 0.577049 -0.321829
    25 8.874294 9.411907 2.866308 -1.090396 0.577049 -0.321829
    26 -4.125858 -2.321501 1.394414 2.051196 0.577049 -0.321829
    27 -4.826813 -3.348669 0.872014 2.051196 0.577049 -0.321829
    28 -5.441669 -4.249685 0.413772 2.051196 0.577049 -0.321829
    29 -0.552532 -1.343527 1.604446 -1.131258 0.062036 -0.739330
    30 0.552589 1.343534 -1.604463 -1.114994 0.161115 -0.499870
    31 0.000000 -2.021618 -0.000004 0.186809 0.000000 0.000000
    32 -0.000021 2.021633 0.000027 0.182215 0.000000 0.000000
    33 -0.000004 -1.136217 -0.000004 0.006928 0.000000 0.000000
    34 -0.000011 1.136200 -0.000019 0.220656 0.000000 0.000000
    35 -0.032677 -4.579914 1.352317 2.741308 1.216154 2.484990
    36 0.032719 4.587772 -1.352291 -1.640222 1.283116 -2.138746
    37 0.000000 -1.742817 -0.000002 0.350664 0.000000 0.000000
    38 -0.000006 1.754520 -0.000034 0.202293 0.000000 0.000000
    39 0.000000 -1.215301 -0.003908 0.404355 0.000000 0.000000
    40 0.000002 1.227070 0.000032 0.130356 0.000000 0.000000
    41 -0.367996 -4.200594 0.173244 2.975180 1.091688 2.536231
    42 0.368011 4.208412 -0.173239 3.085177 1.100761 2.833692
    43 0.000000 -2.364506 -0.000004 0.851487 0.000000 0.000000
    44 -0.000006 2.372318 -0.000032 0.722081 0.000000 0.000000
    45 0.000004 -1.572258 -0.000001 0.725081 0.000000 0.000000
    46 -0.000002 1.580170 0.000030 0.034255 0.000000 0.000000
    47 -0.937645 -3.852884 -0.959317 3.076442 1.001841 2.581100
    48 0.937672 3.860714 0.959333 2.886145 1.001846 2.581100
    49 0.000000 -1.678913 0.000000 0.690457 0.000000 0.000000
    50 -0.000013 1.690666 0.000021 0.491549 0.000000 0.000000
    51 -0.000002 -1.411724 -0.003904 0.959859 0.000000 0.000000
    52 0.000008 1.423420 0.000028 0.234212 0.000000 0.000000
    53 -1.546646 -3.392475 -1.911663 3.056504 0.944156 2.514436
    54 1.546661 3.404217 1.915585 3.024293 0.944156 2.514435
    55 0.000004 -1.426101 0.000000 0.714530 0.000000 0.000000
    56 -0.000021 1.437870 0.000031 0.424957 0.000000 0.000000
    57 -0.000002 -1.047683 0.000000 0.877778 0.000000 0.000000
    58 0.000006 1.059372 0.000008 0.322075 0.000000 0.000000
    59 -0.000004 -13.013485 -0.000004 0.000000 0.000000 0.000000
    60 0.000000 -10.813480 -0.000004 0.000000 0.000000 0.000000
end
