// Created by Crowbar 0.74
version 1
nodes
  0 "root" -1
  1 "bip_upperArm_R" 0
  2 "bip_lowerArm_R" 1
  3 "bip_hand_R" 2
  4 "bip_upperArm_L" 0
  5 "bip_lowerArm_L" 4
  6 "bip_hand_L" 5
  7 "effect_hand_L" 6
  8 "effect_hand_R" 3
  9 "weapon_bone" 3
  10 "weapon_bone_1" 3
  11 "weapon_bone_2" 3
  12 "weapon_bone_3" 3
  13 "weapon_bone_4" 3
  14 "weapon_bone_5" 3
  15 "weapon_bone_6" 3
  16 "weapon_bone_7" 3
  17 "weapon_bone_L" 6
  18 "vm_weapon_bone" 3
  19 "vm_weapon_bone_1" 3
  20 "vm_weapon_bone_2" 3
  21 "vm_weapon_bone_3" 3
  22 "vm_weapon_bone_4" 3
  23 "vm_weapon_bone_5" 3
  24 "vm_weapon_bone_6" 3
  25 "vm_weapon_bone_7" 3
  26 "vm_weapon_bone_L" 6
  27 "vm_weapon_bone_L_1" 6
  28 "vm_weapon_bone_L_2" 6
  29 "bip_thumb_0_L" 6
  30 "bip_thumb_0_R" 3
  31 "bip_thumb_1_L" 29
  32 "bip_thumb_1_R" 30
  33 "bip_thumb_2_L" 31
  34 "bip_thumb_2_R" 32
  35 "bip_index_0_L" 6
  36 "bip_index_0_R" 3
  37 "bip_index_1_L" 35
  38 "bip_index_1_R" 36
  39 "bip_index_2_L" 37
  40 "bip_index_2_R" 38
  41 "bip_middle_0_L" 6
  42 "bip_middle_0_R" 3
  43 "bip_middle_1_L" 41
  44 "bip_middle_1_R" 42
  45 "bip_middle_2_L" 43
  46 "bip_middle_2_R" 44
  47 "bip_ring_0_L" 6
  48 "bip_ring_0_R" 3
  49 "bip_ring_1_L" 47
  50 "bip_ring_1_R" 48
  51 "bip_ring_2_L" 49
  52 "bip_ring_2_R" 50
  53 "bip_pinky_0_L" 6
  54 "bip_pinky_0_R" 3
  55 "bip_pinky_1_L" 53
  56 "bip_pinky_1_R" 54
  57 "bip_pinky_2_L" 55
  58 "bip_pinky_2_R" 56
  59 "Sleeve_Control" 5
  60 "Wrist_Control" 5
end
skeleton
  time 0
    0 0.002111 12.601947 -15.511235 -1.559952 0.000000 -0.000070
    1 -13.078916 -6.615230 -6.857534 -1.246896 -0.139474 0.417145
    2 0.000000 14.313023 0.000003 -1.231125 -0.489900 0.926684
    3 -0.000011 13.013483 -0.000005 -0.224063 -0.239986 1.066013
    4 14.192228 -5.064386 -6.845812 1.527318 0.117286 -0.722012
    5 0.000000 -14.313034 0.000000 -1.576464 -1.082982 1.577346
    6 -0.000004 -13.013485 -0.000004 0.564163 0.155490 1.102111
    7 -1.330879 -2.698427 0.462449 -0.194886 -0.547260 3.056712
    8 1.330910 2.698444 -0.462436 0.194890 0.547268 -0.084879
    9 31.491139 6.812199 0.474423 -1.294325 0.021812 -1.377829
    10 3.556210 4.238403 0.987502 -1.090396 0.577049 -0.321829
    11 4.139183 5.092691 1.421975 -1.090396 0.577049 -0.321829
    12 4.777527 6.028128 1.897721 -1.090396 0.577049 -0.321829
    13 5.490345 7.072691 2.428969 -1.090396 0.577049 -0.321829
    14 6.558594 8.632813 3.232422 -1.090396 0.577049 -0.321829
    15 7.558525 6.997282 -2.354134 -1.937336 -0.275393 3.010581
    16 7.558525 6.997282 -2.354134 1.937336 0.275393 -0.131011
    17 -2.867767 -2.740969 0.531125 2.051196 0.577049 -0.321829
    18 4.324081 2.744001 -0.524877 -1.090396 0.577049 -0.321829
    19 5.012512 3.752832 -0.011802 -1.090396 0.577049 -0.321829
    20 5.595486 4.607124 0.422674 -1.090396 0.577049 -0.321829
    21 6.233833 5.542564 0.898426 -1.090396 0.577049 -0.321829
    22 6.946648 6.587124 1.429667 -1.090396 0.577049 -0.321829
    23 7.537933 7.453606 1.870349 -1.090396 0.577049 -0.321829
    24 8.154472 8.357077 2.329839 -1.090396 0.577049 -0.321829
    25 8.874294 9.411907 2.866308 -1.090396 0.577049 -0.321829
    26 -4.125858 -2.321501 1.394414 2.051196 0.577049 -0.321829
    27 -4.826813 -3.348669 0.872014 2.051196 0.577049 -0.321829
    28 -5.441669 -4.249685 0.413772 2.051196 0.577049 -0.321829
    29 -0.552532 -1.343527 1.604446 -0.922840 0.331235 -0.390308
    30 0.552589 1.343534 -1.604463 -0.910612 0.312114 -0.422073
    31 0.000000 -2.021618 -0.000004 0.186809 0.000000 0.000000
    32 -0.000021 2.021633 0.000027 0.186809 0.000000 0.000000
    33 -0.000004 -1.136217 -0.000004 -0.610988 0.000000 0.000000
    34 -0.000011 1.136200 -0.000019 -0.580329 0.000000 0.000000
    35 -0.032677 -4.587727 1.352317 2.911723 1.326902 2.927417
    36 0.032719 4.587772 -1.352291 4.086135 1.285557 4.143975
    37 0.000000 -1.754536 -0.000002 0.090095 0.000000 0.000000
    38 -0.000006 1.754520 -0.000034 0.202256 0.000000 0.000000
    39 0.000000 -1.227020 -0.000002 -0.361967 0.000000 0.000000
    40 0.000002 1.227070 0.000032 -0.396269 0.000000 0.000000
    41 -0.367996 -4.208406 0.173244 2.597782 1.091688 2.536231
    42 0.368011 4.208412 -0.173239 2.837495 1.100750 2.833678
    43 0.000000 -2.372318 -0.000004 0.416949 0.000000 0.000000
    44 -0.000006 2.372318 -0.000032 0.334608 0.000000 0.000000
    45 0.000004 -1.580070 -0.000001 -0.506845 0.000000 0.000000
    46 -0.000002 1.580170 0.000030 -0.631565 0.000000 0.000000
    47 -0.937645 -3.860697 -0.959317 2.623732 0.963899 2.406312
    48 0.937672 3.860714 0.959333 2.732520 1.001840 2.581100
    49 0.000000 -1.690632 0.000000 0.491549 0.000000 0.000000
    50 -0.000013 1.690666 0.000021 0.491549 0.000000 0.000000
    51 -0.000002 -1.423443 0.000002 -0.304480 0.000000 0.000000
    52 0.000008 1.423420 0.000028 -0.377965 0.000000 0.000000
    53 -1.546646 -3.404194 -1.915569 2.591065 0.818414 1.959722
    54 1.546661 3.404217 1.915585 3.024293 0.944156 2.514435
    55 0.000004 -1.437820 0.000000 0.424958 0.000000 0.000000
    56 -0.000021 1.437870 0.000031 0.443554 0.000000 0.000000
    57 -0.000002 -1.059402 0.000000 0.716255 0.000000 0.000000
    58 0.000006 1.059372 0.000008 0.433624 0.000000 0.000000
    59 -0.000004 -13.013485 -0.000004 0.000000 0.000000 0.000000
    60 0.000000 -10.813480 -0.000004 0.000000 0.000000 0.000000
  time 1
    0 0.170085 12.207404 -14.272916 -1.559952 0.000000 -0.000070
    1 -14.746936 -6.291001 -7.076291 -1.229756 -0.194984 0.413860
    2 0.000000 14.313023 0.000003 -1.181452 -0.391900 0.741323
    3 -0.000011 13.013483 -0.000005 -0.256741 -0.286870 1.056619
    4 15.836809 -2.783067 -5.767654 1.548481 0.105803 -0.727854
    5 0.000000 -14.313034 0.000000 -1.358757 -0.866372 1.261800
    6 -0.000004 -13.013485 -0.000004 0.543535 0.161191 0.981783
    7 -1.330879 -2.698427 0.462449 -0.194886 -0.547260 3.056712
    8 1.330910 2.698444 -0.462436 0.194890 0.547268 -0.084879
    9 26.885436 6.370504 -0.485293 -1.177562 0.119654 -0.882519
    10 3.556210 4.238403 0.987502 -1.090396 0.577049 -0.321829
    11 4.139183 5.092691 1.421975 -1.090396 0.577049 -0.321829
    12 4.777527 6.028128 1.897721 -1.090396 0.577049 -0.321829
    13 5.490345 7.072691 2.428969 -1.090396 0.577049 -0.321829
    14 6.558594 8.632813 3.232422 -1.090396 0.577049 -0.321829
    15 7.558525 6.997282 -2.354134 -1.937336 -0.275393 3.010581
    16 7.558525 6.997282 -2.354134 1.937336 0.275393 -0.131011
    17 -2.867767 -2.740969 0.531125 2.051196 0.577049 -0.321829
    18 4.324081 2.744001 -0.524877 -1.090396 0.577049 -0.321829
    19 5.012512 3.752832 -0.011802 -1.090396 0.577049 -0.321829
    20 5.595486 4.607124 0.422674 -1.090396 0.577049 -0.321829
    21 6.233833 5.542564 0.898426 -1.090396 0.577049 -0.321829
    22 6.946648 6.587124 1.429667 -1.090396 0.577049 -0.321829
    23 7.537933 7.453606 1.870349 -1.090396 0.577049 -0.321829
    24 8.154472 8.357077 2.329839 -1.090396 0.577049 -0.321829
    25 8.874294 9.411907 2.866308 -1.090396 0.577049 -0.321829
    26 -4.125858 -2.321501 1.394414 2.051196 0.577049 -0.321829
    27 -4.826813 -3.348669 0.872014 2.051196 0.577049 -0.321829
    28 -5.441669 -4.249685 0.413772 2.051196 0.577049 -0.321829
    29 -0.552532 -1.343527 1.604446 -1.093814 0.196080 -0.503599
    30 0.552589 1.343534 -1.604463 -0.943695 0.235946 -0.582926
    31 0.000000 -2.021618 -0.000004 0.186809 0.000000 0.000000
    32 -0.000021 2.021633 0.000027 0.186619 0.000000 0.000000
    33 -0.000004 -1.136217 -0.000004 -0.633726 0.000000 0.000000
    34 -0.000011 1.136200 -0.000019 -0.683688 0.000000 0.000000
    35 -0.032677 -4.587727 1.352317 3.017809 1.323673 3.238420
    36 0.032719 4.587772 -1.352291 3.859639 1.285594 4.143975
    37 0.000000 -1.754536 -0.000002 0.204468 0.000000 0.000000
    38 -0.000006 1.754520 -0.000034 0.202256 0.000000 0.000000
    39 0.000000 -1.227020 -0.000002 -0.270897 0.000000 0.000000
    40 0.000002 1.227070 0.000032 -0.290828 0.000000 0.000000
    41 -0.367996 -4.208406 0.173244 2.594369 1.125037 2.647222
    42 0.368011 4.208412 -0.173239 2.771302 1.100750 2.833678
    43 0.000000 -2.372318 -0.000004 0.478104 0.000000 0.000000
    44 -0.000006 2.372318 -0.000032 0.412261 0.000000 0.000000
    45 0.000004 -1.580070 -0.000001 -0.398522 0.000000 0.000000
    46 -0.000002 1.580170 0.000030 -0.498617 0.000000 0.000000
    47 -0.937645 -3.860697 -0.959317 2.489117 0.972612 2.440419
    48 0.937672 3.860714 0.959333 2.599299 1.001840 2.581100
    49 0.000000 -1.690632 0.000000 0.491549 0.000000 0.000000
    50 -0.000013 1.690666 0.000021 0.491549 0.000000 0.000000
    51 -0.000002 -1.423443 0.000002 -0.196676 0.000000 0.000000
    52 0.000008 1.423420 0.000028 -0.255515 0.000000 0.000000
    53 -1.546646 -3.404194 -1.915569 2.400478 0.701144 2.092703
    54 1.546661 3.404217 1.915585 2.643765 0.862384 2.211718
    55 0.000004 -1.437820 0.000000 0.424958 0.000000 0.000000
    56 -0.000021 1.437870 0.000031 0.439867 0.000000 0.000000
    57 -0.000002 -1.059402 0.000000 0.637547 0.000000 0.000000
    58 0.000006 1.059372 0.000008 0.411290 0.000000 0.000000
    59 -0.000004 -13.013485 -0.000004 0.000000 0.000000 0.000000
    60 0.000000 -10.813480 -0.000004 0.000000 0.000000 0.000000
  time 2
    0 0.338059 11.816767 -13.159601 -1.559952 0.000000 -0.000070
    1 -16.407143 -5.970679 -7.599744 -1.212433 -0.250255 0.409430
    2 0.000000 14.313023 0.000003 -1.124203 -0.297498 0.552181
    3 -0.000011 13.013483 -0.000005 -0.289514 -0.333943 1.048759
    4 16.278229 -1.212706 -4.986380 1.569740 0.094433 -0.733792
    5 0.000000 -14.313034 0.000000 -1.097364 -0.673625 0.906780
    6 -0.000004 -13.013485 -0.000004 0.522547 0.164384 0.861647
    7 -1.330879 -2.698427 0.462449 -0.194886 -0.547260 3.056712
    8 1.330910 2.698444 -0.462436 0.194890 0.547268 -0.084879
    9 22.279732 5.928810 -1.445009 -1.061469 0.217183 -0.389195
    10 3.556210 4.238403 0.987502 -1.090396 0.577049 -0.321829
    11 4.139183 5.092691 1.421975 -1.090396 0.577049 -0.321829
    12 4.777527 6.028128 1.897721 -1.090396 0.577049 -0.321829
    13 5.490345 7.072691 2.428969 -1.090396 0.577049 -0.321829
    14 6.558594 8.632813 3.232422 -1.090396 0.577049 -0.321829
    15 7.558525 6.997282 -2.354134 -1.937336 -0.275393 3.010581
    16 7.558525 6.997282 -2.354134 1.937336 0.275393 -0.131011
    17 -2.867767 -2.740969 0.531125 2.051196 0.577049 -0.321829
    18 4.324081 2.744001 -0.524877 -1.090396 0.577049 -0.321829
    19 5.012512 3.752832 -0.011802 -1.090396 0.577049 -0.321829
    20 5.595486 4.607124 0.422674 -1.090396 0.577049 -0.321829
    21 6.233833 5.542564 0.898426 -1.090396 0.577049 -0.321829
    22 6.946648 6.587124 1.429667 -1.090396 0.577049 -0.321829
    23 7.537933 7.453606 1.870349 -1.090396 0.577049 -0.321829
    24 8.154472 8.357077 2.329839 -1.090396 0.577049 -0.321829
    25 8.874294 9.411907 2.866308 -1.090396 0.577049 -0.321829
    26 -4.125858 -2.321501 1.394414 2.051196 0.577049 -0.321829
    27 -4.826813 -3.348669 0.872014 2.051196 0.577049 -0.321829
    28 -5.441669 -4.249685 0.413772 2.051196 0.577049 -0.321829
    29 -0.552532 -1.343527 1.604446 -1.239073 0.077166 -0.608112
    30 0.552589 1.343534 -1.604463 -0.964365 0.174925 -0.711868
    31 0.000000 -2.021618 -0.000004 0.186809 0.000000 0.000000
    32 -0.000021 2.021633 0.000027 0.186374 0.000000 0.000000
    33 -0.000004 -1.136217 -0.000004 -0.628063 0.000000 0.000000
    34 -0.000011 1.136200 -0.000019 -0.735600 0.000000 0.000000
    35 -0.032677 -4.587727 1.352317 3.100195 1.316733 3.470402
    36 0.032719 4.587772 -1.352291 3.699902 1.285594 4.143975
    37 0.000000 -1.754536 -0.000002 0.319055 0.000000 0.000000
    38 -0.000006 1.754520 -0.000034 0.202256 0.000000 0.000000
    39 0.000000 -1.227020 -0.000002 -0.180068 0.000000 0.000000
    40 0.000002 1.227070 0.000032 -0.185587 0.000000 0.000000
    41 -0.367996 -4.208406 0.173244 2.605057 1.151757 2.736231
    42 0.368011 4.208412 -0.173239 2.727922 1.100750 2.833678
    43 0.000000 -2.372318 -0.000004 0.539018 0.000000 0.000000
    44 -0.000006 2.372318 -0.000032 0.489650 0.000000 0.000000
    45 0.000004 -1.580070 -0.000001 -0.290430 0.000000 0.000000
    46 -0.000002 1.580170 0.000030 -0.365385 0.000000 0.000000
    47 -0.937645 -3.860697 -0.959317 2.397516 0.981050 2.474447
    48 0.937672 3.860714 0.959333 2.498408 1.001840 2.581100
    49 0.000000 -1.690632 0.000000 0.491549 0.000000 0.000000
    50 -0.000013 1.690666 0.000021 0.491549 0.000000 0.000000
    51 -0.000002 -1.423443 0.000002 -0.088981 0.000000 0.000000
    52 0.000008 1.423420 0.000028 -0.133065 0.000000 0.000000
    53 -1.546646 -3.404194 -1.915569 2.264528 0.612053 2.221003
    54 1.546661 3.404217 1.915585 2.338640 0.796805 1.968930
    55 0.000004 -1.437820 0.000000 0.424958 0.000000 0.000000
    56 -0.000021 1.437870 0.000031 0.436126 0.000000 0.000000
    57 -0.000002 -1.059402 0.000000 0.558728 0.000000 0.000000
    58 0.000006 1.059372 0.000008 0.388957 0.000000 0.000000
    59 -0.000004 -13.013485 -0.000004 0.000000 0.000000 0.000000
    60 0.000000 -10.813480 -0.000004 0.000000 0.000000 0.000000
  time 3
    0 0.509939 11.422224 -12.186915 -1.559952 0.000000 -0.000070
    1 -18.067350 -5.642544 -8.232576 -1.194372 -0.305670 0.404007
    2 0.000000 14.313023 0.000003 -1.074592 -0.199045 0.367303
    3 -0.000011 13.013483 -0.000005 -0.322383 -0.381299 1.042241
    4 14.000816 -1.251770 -4.314485 1.591287 0.083216 -0.740017
    5 0.000000 -14.313034 0.000000 -0.884204 -0.452124 0.596818
    6 -0.000004 -13.013485 -0.000004 0.501018 0.164977 0.741033
    7 -1.330879 -2.698427 0.462449 -0.194886 -0.547260 3.056712
    8 1.330910 2.698444 -0.462436 0.194890 0.547268 -0.084879
    9 17.643118 5.388961 -2.303702 -0.944898 0.315026 0.105926
    10 3.556210 4.238403 0.987502 -1.090396 0.577049 -0.321829
    11 4.139183 5.092691 1.421975 -1.090396 0.577049 -0.321829
    12 4.777527 6.028128 1.897721 -1.090396 0.577049 -0.321829
    13 5.490345 7.072691 2.428969 -1.090396 0.577049 -0.321829
    14 6.558594 8.632813 3.232422 -1.090396 0.577049 -0.321829
    15 7.558525 6.997282 -2.354134 -1.937336 -0.275393 3.010581
    16 7.558525 6.997282 -2.354134 1.937336 0.275393 -0.131011
    17 -2.867767 -2.740969 0.531125 2.051196 0.577049 -0.321829
    18 4.324081 2.744001 -0.524877 -1.090396 0.577049 -0.321829
    19 5.012512 3.752832 -0.011802 -1.090396 0.577049 -0.321829
    20 5.595486 4.607124 0.422674 -1.090396 0.577049 -0.321829
    21 6.233833 5.542564 0.898426 -1.090396 0.577049 -0.321829
    22 6.946648 6.587124 1.429667 -1.090396 0.577049 -0.321829
    23 7.537933 7.453606 1.870349 -1.090396 0.577049 -0.321829
    24 8.154472 8.357077 2.329839 -1.090396 0.577049 -0.321829
    25 8.874294 9.411907 2.866308 -1.090396 0.577049 -0.321829
    26 -4.125858 -2.321501 1.394414 2.051196 0.577049 -0.321829
    27 -4.826813 -3.348669 0.872014 2.051196 0.577049 -0.321829
    28 -5.441669 -4.249685 0.413772 2.051196 0.577049 -0.321829
    29 -0.552532 -1.343527 1.604446 -1.335078 -0.010921 -0.696331
    30 0.552589 1.343534 -1.604463 -0.960968 0.142888 -0.779470
    31 0.000000 -2.021618 -0.000004 0.186809 0.000000 0.000000
    32 -0.000021 2.021633 0.000027 0.186130 0.000000 0.000000
    33 -0.000004 -1.136217 -0.000004 -0.566178 0.000000 0.000000
    34 -0.000011 1.136200 -0.000019 -0.686430 0.000000 0.000000
    35 -0.032677 -4.587727 1.352317 3.137004 1.302555 3.549802
    36 0.032719 4.587772 -1.352291 3.669431 1.285594 4.143975
    37 0.000000 -1.754536 -0.000002 0.433696 0.000000 0.000000
    38 -0.000006 1.754520 -0.000034 0.202256 0.000000 0.000000
    39 0.000000 -1.227020 -0.000002 -0.088998 0.000000 0.000000
    40 0.000002 1.227070 0.000032 -0.080080 0.000000 0.000000
    41 -0.367996 -4.208406 0.173244 2.643677 1.165782 2.782903
    42 0.368011 4.208412 -0.173239 2.728820 1.100750 2.833678
    43 0.000000 -2.372318 -0.000004 0.600173 0.000000 0.000000
    44 -0.000006 2.372318 -0.000032 0.567302 0.000000 0.000000
    45 0.000004 -1.580070 -0.000001 -0.182108 0.000000 0.000000
    46 -0.000002 1.580170 0.000030 -0.232153 0.000000 0.000000
    47 -0.937645 -3.860697 -0.959317 2.389527 0.989122 2.508869
    48 0.937672 3.860714 0.959333 2.460225 1.001840 2.581100
    49 0.000000 -1.690632 0.000000 0.491549 0.000000 0.000000
    50 -0.000013 1.690666 0.000021 0.491549 0.000000 0.000000
    51 -0.000002 -1.423443 0.000002 0.018877 0.000000 0.000000
    52 0.000008 1.423420 0.000028 -0.010615 0.000000 0.000000
    53 -1.546646 -3.404194 -1.915569 2.234717 0.577333 2.341092
    54 1.546661 3.404217 1.915585 2.178695 0.762430 1.841704
    55 0.000004 -1.437820 0.000000 0.424958 0.000000 0.000000
    56 -0.000021 1.437870 0.000031 0.432386 0.000000 0.000000
    57 -0.000002 -1.059402 0.000000 0.479685 0.000000 0.000000
    58 0.000006 1.059372 0.000008 0.366623 0.000000 0.000000
    59 -0.000004 -13.013485 -0.000004 0.000000 0.000000 0.000000
    60 0.000000 -10.813480 -0.000004 0.000000 0.000000 0.000000
  time 4
    0 0.674007 11.027680 -11.436892 -1.559952 0.000000 -0.000070
    1 -19.731463 -5.318315 -8.756030 -1.175666 -0.360798 0.397362
    2 0.000000 14.313023 0.000003 -1.032190 -0.097698 0.184838
    3 -0.000011 13.013483 -0.000005 -0.355730 -0.428843 1.037544
    4 10.895252 -1.783036 -3.529305 1.612737 0.072074 -0.746338
    5 0.000000 -14.313034 0.000000 -0.705035 -0.216048 0.314680
    6 -0.000004 -13.013485 -0.000004 0.479669 0.163107 0.620515
    7 -1.330879 -2.698427 0.462449 -0.194886 -0.547260 3.056712
    8 1.330910 2.698444 -0.462436 0.194890 0.547268 -0.084879
    9 13.037415 4.996344 -3.263418 -0.828230 0.412681 0.600290
    10 3.556210 4.238403 0.987502 -1.090396 0.577049 -0.321829
    11 4.139183 5.092691 1.421975 -1.090396 0.577049 -0.321829
    12 4.777527 6.028128 1.897721 -1.090396 0.577049 -0.321829
    13 5.490345 7.072691 2.428969 -1.090396 0.577049 -0.321829
    14 6.558594 8.632813 3.232422 -1.090396 0.577049 -0.321829
    15 7.558525 6.997282 -2.354134 -1.937336 -0.275393 3.010581
    16 7.558525 6.997282 -2.354134 1.937336 0.275393 -0.131011
    17 -2.867767 -2.740969 0.531125 2.051196 0.577049 -0.321829
    18 4.324081 2.744001 -0.524877 -1.090396 0.577049 -0.321829
    19 5.012512 3.752832 -0.011802 -1.090396 0.577049 -0.321829
    20 5.595486 4.607124 0.422674 -1.090396 0.577049 -0.321829
    21 6.233833 5.542564 0.898426 -1.090396 0.577049 -0.321829
    22 6.946648 6.587124 1.429667 -1.090396 0.577049 -0.321829
    23 7.537933 7.453606 1.870349 -1.090396 0.577049 -0.321829
    24 8.154472 8.357077 2.329839 -1.090396 0.577049 -0.321829
    25 8.874294 9.411907 2.866308 -1.090396 0.577049 -0.321829
    26 -4.125858 -2.321501 1.394414 2.051196 0.577049 -0.321829
    27 -4.826813 -3.348669 0.872014 2.051196 0.577049 -0.321829
    28 -5.441669 -4.249685 0.413772 2.051196 0.577049 -0.321829
    29 -0.552532 -1.343527 1.604446 -1.274204 -0.000257 -0.731644
    30 0.552589 1.343534 -1.604463 -0.881005 0.203394 -0.651744
    31 0.000000 -2.021618 -0.000004 0.186809 0.000000 0.000000
    32 -0.000021 2.021633 0.000027 0.185912 0.000000 0.000000
    33 -0.000004 -1.136217 -0.000004 -0.325913 0.000000 0.000000
    34 -0.000011 1.136200 -0.000019 -0.316260 0.000000 0.000000
    35 -0.032677 -4.587727 1.352317 3.028661 1.265293 3.143852
    36 0.032719 4.587772 -1.352291 4.050108 1.285594 4.143975
    37 0.000000 -1.754536 -0.000002 0.548496 0.000000 0.000000
    38 -0.000006 1.754520 -0.000034 0.202256 0.000000 0.000000
    39 0.000000 -1.227020 -0.000002 0.002024 0.000000 0.000000
    40 0.000002 1.227070 0.000032 0.025361 0.000000 0.000000
    41 -0.367996 -4.208406 0.173244 2.770494 1.139297 2.694745
    42 0.368011 4.208412 -0.173239 2.870457 1.100750 2.833678
    43 0.000000 -2.372318 -0.000004 0.661288 0.000000 0.000000
    44 -0.000006 2.372318 -0.000032 0.644867 0.000000 0.000000
    45 0.000004 -1.580070 -0.000001 -0.073759 0.000000 0.000000
    46 -0.000002 1.580170 0.000030 -0.098750 0.000000 0.000000
    47 -0.937645 -3.860697 -0.959317 2.647608 0.995848 2.544788
    48 0.937672 3.860714 0.959333 2.621317 1.001840 2.581100
    49 0.000000 -1.690632 0.000000 0.491549 0.000000 0.000000
    50 -0.000013 1.690666 0.000021 0.491549 0.000000 0.000000
    51 -0.000002 -1.423443 0.000002 0.126735 0.000000 0.000000
    52 0.000008 1.423420 0.000028 0.111982 0.000000 0.000000
    53 -1.546646 -3.404194 -1.915569 2.541688 0.715637 2.434939
    54 1.546661 3.404217 1.915585 2.480866 0.827376 2.082190
    55 0.000004 -1.437820 0.000000 0.424958 0.000000 0.000000
    56 -0.000021 1.437870 0.000031 0.428591 0.000000 0.000000
    57 -0.000002 -1.059402 0.000000 0.400670 0.000000 0.000000
    58 0.000006 1.059372 0.000008 0.344290 0.000000 0.000000
    59 -0.000004 -13.013485 -0.000004 0.000000 0.000000 0.000000
    60 0.000000 -10.813480 -0.000004 0.000000 0.000000 0.000000
  time 5
    0 0.841981 10.637043 -11.065787 -1.559952 0.000000 -0.000070
    1 -21.387764 -4.994087 -8.978693 -1.156868 -0.415784 0.390870
    2 0.000000 14.313023 0.000003 -0.982578 0.000000 0.000000
    3 -0.000011 13.013483 -0.000005 -0.388599 -0.476010 1.030354
    4 7.375613 -2.560403 -2.451147 1.634284 0.061083 -0.752946
    5 0.000000 -14.313034 0.000000 -0.487806 0.000000 0.000000
    6 -0.000004 -13.013485 -0.000004 0.458771 0.161830 0.500283
    7 -1.330879 -2.698427 0.462449 -0.194886 -0.547260 3.056712
    8 1.330910 2.698444 -0.462436 0.194890 0.547268 -0.084879
    9 8.431712 4.554650 -4.223134 -0.711851 0.510336 1.094465
    10 3.556210 4.238403 0.987502 -1.090396 0.577049 -0.321829
    11 4.139183 5.092691 1.421975 -1.090396 0.577049 -0.321829
    12 4.777527 6.028128 1.897721 -1.090396 0.577049 -0.321829
    13 5.490345 7.072691 2.428969 -1.090396 0.577049 -0.321829
    14 6.558594 8.632813 3.232422 -1.090396 0.577049 -0.321829
    15 7.558525 6.997282 -2.354134 -1.937336 -0.275393 3.010581
    16 7.558525 6.997282 -2.354134 1.937336 0.275393 -0.131011
    17 -2.867767 -2.740969 0.531125 2.051196 0.577049 -0.321829
    18 4.324081 2.744001 -0.524877 -1.090396 0.577049 -0.321829
    19 5.012512 3.752832 -0.011802 -1.090396 0.577049 -0.321829
    20 5.595486 4.607124 0.422674 -1.090396 0.577049 -0.321829
    21 6.233833 5.542564 0.898426 -1.090396 0.577049 -0.321829
    22 6.946648 6.587124 1.429667 -1.090396 0.577049 -0.321829
    23 7.537933 7.453606 1.870349 -1.090396 0.577049 -0.321829
    24 8.154472 8.357077 2.329839 -1.090396 0.577049 -0.321829
    25 8.874294 9.411907 2.866308 -1.090396 0.577049 -0.321829
    26 -4.125858 -2.321501 1.394414 2.051196 0.577049 -0.321829
    27 -4.826813 -3.348669 0.872014 2.051196 0.577049 -0.321829
    28 -5.441669 -4.249685 0.413772 2.051196 0.577049 -0.321829
    29 -0.552532 -1.343527 1.604446 -1.131237 0.062049 -0.739325
    30 0.552589 1.343534 -1.604463 -0.761217 0.312114 -0.422073
    31 0.000000 -2.021618 -0.000004 0.186809 0.000000 0.000000
    32 -0.000021 2.021633 0.000027 0.185695 0.000000 0.000000
    33 -0.000004 -1.136217 -0.000004 0.006888 0.000000 0.000000
    34 -0.000011 1.136200 -0.000019 0.220615 0.000000 0.000000
    35 -0.032677 -4.587727 1.352317 2.844703 1.216154 2.484990
    36 0.032719 4.587772 -1.352291 4.644867 1.285594 4.143975
    37 0.000000 -1.754536 -0.000002 0.662896 0.000000 0.000000
    38 -0.000006 1.754520 -0.000034 0.202256 0.000000 0.000000
    39 0.000000 -1.227020 -0.000002 0.092660 0.000000 0.000000
    40 0.000002 1.227070 0.000032 0.130336 0.000000 0.000000
    41 -0.367996 -4.208406 0.173244 2.943027 1.091688 2.536231
    42 0.368011 4.208412 -0.173239 3.085113 1.100750 2.833678
    43 0.000000 -2.372318 -0.000004 0.722081 0.000000 0.000000
    44 -0.000006 2.372318 -0.000032 0.722081 0.000000 0.000000
    45 0.000004 -1.580070 -0.000001 0.034255 0.000000 0.000000
    46 -0.000002 1.580170 0.000030 0.034255 0.000000 0.000000
    47 -0.937645 -3.860697 -0.959317 3.044205 1.001841 2.581100
    48 0.937672 3.860714 0.959333 2.886273 1.001840 2.581100
    49 0.000000 -1.690632 0.000000 0.491549 0.000000 0.000000
    50 -0.000013 1.690666 0.000021 0.491549 0.000000 0.000000
    51 -0.000002 -1.423443 0.000002 0.234212 0.000000 0.000000
    52 0.000008 1.423420 0.000028 0.234212 0.000000 0.000000
    53 -1.546646 -3.404194 -1.915569 3.024293 0.944156 2.514436
    54 1.546661 3.404217 1.915585 3.024293 0.944156 2.514435
    55 0.000004 -1.437820 0.000000 0.424958 0.000000 0.000000
    56 -0.000021 1.437870 0.000031 0.424957 0.000000 0.000000
    57 -0.000002 -1.059402 0.000000 0.322075 0.000000 0.000000
    58 0.000006 1.059372 0.000008 0.322075 0.000000 0.000000
    59 -0.000004 -13.013485 -0.000004 0.000000 0.000000 0.000000
    60 0.000000 -10.813480 -0.000004 0.000000 0.000000 0.000000
  time 6
    0 1.009954 10.242500 -11.108757 -1.559952 0.000000 -0.000070
    1 -21.387764 -4.994087 -8.974786 -1.099277 -0.383021 0.408208
    2 0.000000 14.313023 0.000003 -0.982578 0.000000 0.000000
    3 -0.000011 13.013483 -0.000005 -0.414970 -0.482425 0.978305
    4 6.106043 -0.548623 -2.779282 1.655255 0.079577 -0.665890
    5 0.000000 -14.313034 0.000000 -0.487806 0.000000 0.000000
    6 -0.000004 -13.013485 -0.000004 0.458771 0.161830 0.500283
    7 -1.330879 -2.698427 0.462449 -0.194886 -0.547260 3.056712
    8 1.330910 2.698444 -0.462436 0.194890 0.547268 -0.084879
    9 8.431712 4.554650 -4.223134 -0.711851 0.510336 1.094465
    10 3.556210 4.238403 0.987502 -1.090396 0.577049 -0.321829
    11 4.139183 5.092691 1.421975 -1.090396 0.577049 -0.321829
    12 4.777527 6.028128 1.897721 -1.090396 0.577049 -0.321829
    13 5.490345 7.072691 2.428969 -1.090396 0.577049 -0.321829
    14 6.558594 8.632813 3.232422 -1.090396 0.577049 -0.321829
    15 7.558525 6.997282 -2.354134 -1.937336 -0.275393 3.010581
    16 7.558525 6.997282 -2.354134 1.937336 0.275393 -0.131011
    17 -2.867767 -2.740969 0.531125 2.051196 0.577049 -0.321829
    18 4.324081 2.744001 -0.524877 -1.090396 0.577049 -0.321829
    19 5.012512 3.752832 -0.011802 -1.090396 0.577049 -0.321829
    20 5.595486 4.607124 0.422674 -1.090396 0.577049 -0.321829
    21 6.233833 5.542564 0.898426 -1.090396 0.577049 -0.321829
    22 6.946648 6.587124 1.429667 -1.090396 0.577049 -0.321829
    23 7.537933 7.453606 1.870349 -1.090396 0.577049 -0.321829
    24 8.154472 8.357077 2.329839 -1.090396 0.577049 -0.321829
    25 8.874294 9.411907 2.866308 -1.090396 0.577049 -0.321829
    26 -4.125858 -2.321501 1.394414 2.051196 0.577049 -0.321829
    27 -4.826813 -3.348669 0.872014 2.051196 0.577049 -0.321829
    28 -5.441669 -4.249685 0.413772 2.051196 0.577049 -0.321829
    29 -0.552532 -1.343527 1.604446 -1.131237 0.062049 -0.739325
    30 0.552589 1.343534 -1.604463 -0.761217 0.312114 -0.422073
    31 0.000000 -2.021618 -0.000004 0.186809 0.000000 0.000000
    32 -0.000021 2.021633 0.000027 0.185450 0.000000 0.000000
    33 -0.000004 -1.136217 -0.000004 0.006888 0.000000 0.000000
    34 -0.000011 1.136200 -0.000019 0.220615 0.000000 0.000000
    35 -0.032677 -4.587727 1.352317 2.844703 1.216154 2.484990
    36 0.032719 4.587772 -1.352291 4.644780 1.285408 4.143975
    37 0.000000 -1.754536 -0.000002 0.662896 0.000000 0.000000
    38 -0.000006 1.754520 -0.000034 0.202256 0.000000 0.000000
    39 0.000000 -1.227020 -0.000002 0.092660 0.000000 0.000000
    40 0.000002 1.227070 0.000032 0.130336 0.000000 0.000000
    41 -0.367996 -4.208406 0.173244 2.943027 1.091688 2.536231
    42 0.368011 4.208412 -0.173239 3.085113 1.100750 2.833678
    43 0.000000 -2.372318 -0.000004 0.722081 0.000000 0.000000
    44 -0.000006 2.372318 -0.000032 0.722081 0.000000 0.000000
    45 0.000004 -1.580070 -0.000001 0.034255 0.000000 0.000000
    46 -0.000002 1.580170 0.000030 0.034255 0.000000 0.000000
    47 -0.937645 -3.860697 -0.959317 3.044205 1.001841 2.581100
    48 0.937672 3.860714 0.959333 2.886273 1.001840 2.581100
    49 0.000000 -1.690632 0.000000 0.491549 0.000000 0.000000
    50 -0.000013 1.690666 0.000021 0.491549 0.000000 0.000000
    51 -0.000002 -1.423443 0.000002 0.234212 0.000000 0.000000
    52 0.000008 1.423420 0.000028 0.234212 0.000000 0.000000
    53 -1.546646 -3.404194 -1.915569 3.024293 0.944156 2.514436
    54 1.546661 3.404217 1.915585 3.024293 0.944156 2.514435
    55 0.000004 -1.437820 0.000000 0.424958 0.000000 0.000000
    56 -0.000021 1.437870 0.000031 0.424957 0.000000 0.000000
    57 -0.000002 -1.059402 0.000000 0.322075 0.000000 0.000000
    58 0.000006 1.059372 0.000008 0.322075 0.000000 0.000000
    59 -0.000004 -13.013485 -0.000004 0.000000 0.000000 0.000000
    60 0.000000 -10.813480 -0.000004 0.000000 0.000000 0.000000
  time 7
    0 1.177928 9.847957 -11.218135 -1.559952 0.000000 -0.000070
    1 -21.391670 -4.994087 -8.974786 -1.035788 -0.350831 0.427991
    2 0.000000 14.313023 0.000003 -0.982578 0.000000 0.000000
    3 -0.000011 13.013483 -0.000005 -0.441055 -0.490019 0.926255
    4 4.656780 1.302996 -2.990226 1.685037 0.102202 -0.576344
    5 0.000000 -14.313034 0.000000 -0.487686 0.000033 0.000000
    6 -0.000004 -13.013485 -0.000004 0.458771 0.161830 0.500283
    7 -1.330879 -2.698427 0.462449 -0.194886 -0.547260 3.056712
    8 1.330910 2.698444 -0.462436 0.194890 0.547268 -0.084879
    9 8.431712 4.554650 -4.223134 -0.711851 0.510336 1.094465
    10 3.556210 4.238403 0.987502 -1.090396 0.577049 -0.321829
    11 4.139183 5.092691 1.421975 -1.090396 0.577049 -0.321829
    12 4.777527 6.028128 1.897721 -1.090396 0.577049 -0.321829
    13 5.490345 7.072691 2.428969 -1.090396 0.577049 -0.321829
    14 6.558594 8.632813 3.232422 -1.090396 0.577049 -0.321829
    15 7.558525 6.997282 -2.354134 -1.937336 -0.275393 3.010581
    16 7.558525 6.997282 -2.354134 1.937336 0.275393 -0.131011
    17 -2.867767 -2.740969 0.531125 2.051196 0.577049 -0.321829
    18 4.324081 2.744001 -0.524877 -1.090396 0.577049 -0.321829
    19 5.012512 3.752832 -0.011802 -1.090396 0.577049 -0.321829
    20 5.595486 4.607124 0.422674 -1.090396 0.577049 -0.321829
    21 6.233833 5.542564 0.898426 -1.090396 0.577049 -0.321829
    22 6.946648 6.587124 1.429667 -1.090396 0.577049 -0.321829
    23 7.537933 7.453606 1.870349 -1.090396 0.577049 -0.321829
    24 8.154472 8.357077 2.329839 -1.090396 0.577049 -0.321829
    25 8.874294 9.411907 2.866308 -1.090396 0.577049 -0.321829
    26 -4.125858 -2.321501 1.394414 2.051196 0.577049 -0.321829
    27 -4.826813 -3.348669 0.872014 2.051196 0.577049 -0.321829
    28 -5.441669 -4.249685 0.413772 2.051196 0.577049 -0.321829
    29 -0.552532 -1.343527 1.604446 -1.131237 0.062049 -0.739325
    30 0.552589 1.343534 -1.604463 -0.761217 0.312114 -0.422073
    31 0.000000 -2.021618 -0.000004 0.186809 0.000000 0.000000
    32 -0.000021 2.021633 0.000027 0.185233 0.000000 0.000000
    33 -0.000004 -1.136217 -0.000004 0.006888 0.000000 0.000000
    34 -0.000011 1.136200 -0.000019 0.220615 0.000000 0.000000
    35 -0.032677 -4.587727 1.352317 2.844703 1.216154 2.484990
    36 0.032719 4.587772 -1.352291 4.644606 1.285260 4.143975
    37 0.000000 -1.754536 -0.000002 0.662896 0.000000 0.000000
    38 -0.000006 1.754520 -0.000034 0.202256 0.000000 0.000000
    39 0.000000 -1.227020 -0.000002 0.092660 0.000000 0.000000
    40 0.000002 1.227070 0.000032 0.130336 0.000000 0.000000
    41 -0.367996 -4.208406 0.173244 2.943027 1.091688 2.536231
    42 0.368011 4.208412 -0.173239 3.085113 1.100750 2.833678
    43 0.000000 -2.372318 -0.000004 0.722081 0.000000 0.000000
    44 -0.000006 2.372318 -0.000032 0.722081 0.000000 0.000000
    45 0.000004 -1.580070 -0.000001 0.034255 0.000000 0.000000
    46 -0.000002 1.580170 0.000030 0.034255 0.000000 0.000000
    47 -0.937645 -3.860697 -0.959317 3.044205 1.001841 2.581100
    48 0.937672 3.860714 0.959333 2.886273 1.001840 2.581100
    49 0.000000 -1.690632 0.000000 0.491549 0.000000 0.000000
    50 -0.000013 1.690666 0.000021 0.491549 0.000000 0.000000
    51 -0.000002 -1.423443 0.000002 0.234212 0.000000 0.000000
    52 0.000008 1.423420 0.000028 0.234212 0.000000 0.000000
    53 -1.546646 -3.404194 -1.915569 3.024293 0.944156 2.514436
    54 1.546661 3.404217 1.915585 3.024293 0.944156 2.514435
    55 0.000004 -1.437820 0.000000 0.424958 0.000000 0.000000
    56 -0.000021 1.437870 0.000031 0.424957 0.000000 0.000000
    57 -0.000002 -1.059402 0.000000 0.322075 0.000000 0.000000
    58 0.000006 1.059372 0.000008 0.322075 0.000000 0.000000
    59 -0.000004 -13.013485 -0.000004 0.000000 0.000000 0.000000
    60 0.000000 -10.813480 -0.000004 0.000000 0.000000 0.000000
  time 8
    0 1.345902 9.457320 -11.386109 -1.559952 0.000000 -0.000070
    1 -21.391670 -4.994087 -8.978693 -0.975247 -0.318403 0.446551
    2 0.000000 14.313023 0.000003 -0.982578 0.000000 0.000000
    3 -0.000011 13.013483 -0.000005 -0.466662 -0.498839 0.874205
    4 3.098139 2.834292 -3.041009 1.718841 0.121454 -0.492162
    5 0.000000 -14.313034 0.000000 -0.487626 0.000066 0.000000
    6 -0.000004 -13.013485 -0.000004 0.458771 0.161830 0.500283
    7 -1.330879 -2.698427 0.462449 -0.194886 -0.547260 3.056712
    8 1.330910 2.698444 -0.462436 0.194890 0.547268 -0.084879
    9 8.431712 4.554650 -4.223134 -0.711851 0.510336 1.094465
    10 3.556210 4.238403 0.987502 -1.090396 0.577049 -0.321829
    11 4.139183 5.092691 1.421975 -1.090396 0.577049 -0.321829
    12 4.777527 6.028128 1.897721 -1.090396 0.577049 -0.321829
    13 5.490345 7.072691 2.428969 -1.090396 0.577049 -0.321829
    14 6.558594 8.632813 3.232422 -1.090396 0.577049 -0.321829
    15 7.558525 6.997282 -2.354134 -1.937336 -0.275393 3.010581
    16 7.558525 6.997282 -2.354134 1.937336 0.275393 -0.131011
    17 -2.867767 -2.740969 0.531125 2.051196 0.577049 -0.321829
    18 4.324081 2.744001 -0.524877 -1.090396 0.577049 -0.321829
    19 5.012512 3.752832 -0.011802 -1.090396 0.577049 -0.321829
    20 5.595486 4.607124 0.422674 -1.090396 0.577049 -0.321829
    21 6.233833 5.542564 0.898426 -1.090396 0.577049 -0.321829
    22 6.946648 6.587124 1.429667 -1.090396 0.577049 -0.321829
    23 7.537933 7.453606 1.870349 -1.090396 0.577049 -0.321829
    24 8.154472 8.357077 2.329839 -1.090396 0.577049 -0.321829
    25 8.874294 9.411907 2.866308 -1.090396 0.577049 -0.321829
    26 -4.125858 -2.321501 1.394414 2.051196 0.577049 -0.321829
    27 -4.826813 -3.348669 0.872014 2.051196 0.577049 -0.321829
    28 -5.441669 -4.249685 0.413772 2.051196 0.577049 -0.321829
    29 -0.552532 -1.343527 1.604446 -1.131237 0.062049 -0.739325
    30 0.552589 1.343534 -1.604463 -0.761217 0.312114 -0.422073
    31 0.000000 -2.021618 -0.000004 0.186809 0.000000 0.000000
    32 -0.000021 2.021633 0.000027 0.184989 0.000000 0.000000
    33 -0.000004 -1.136217 -0.000004 0.006888 0.000000 0.000000
    34 -0.000011 1.136200 -0.000019 0.220615 0.000000 0.000000
    35 -0.032677 -4.587727 1.352317 2.844703 1.216154 2.484990
    36 0.032719 4.587772 -1.352291 4.644519 1.285074 4.144051
    37 0.000000 -1.754536 -0.000002 0.662896 0.000000 0.000000
    38 -0.000006 1.754520 -0.000034 0.202256 0.000000 0.000000
    39 0.000000 -1.227020 -0.000002 0.092660 0.000000 0.000000
    40 0.000002 1.227070 0.000032 0.130336 0.000000 0.000000
    41 -0.367996 -4.208406 0.173244 2.943027 1.091688 2.536231
    42 0.368011 4.208412 -0.173239 3.085113 1.100750 2.833678
    43 0.000000 -2.372318 -0.000004 0.722081 0.000000 0.000000
    44 -0.000006 2.372318 -0.000032 0.722081 0.000000 0.000000
    45 0.000004 -1.580070 -0.000001 0.034255 0.000000 0.000000
    46 -0.000002 1.580170 0.000030 0.034255 0.000000 0.000000
    47 -0.937645 -3.860697 -0.959317 3.044205 1.001841 2.581100
    48 0.937672 3.860714 0.959333 2.886273 1.001840 2.581100
    49 0.000000 -1.690632 0.000000 0.491549 0.000000 0.000000
    50 -0.000013 1.690666 0.000021 0.491549 0.000000 0.000000
    51 -0.000002 -1.423443 0.000002 0.234212 0.000000 0.000000
    52 0.000008 1.423420 0.000028 0.234212 0.000000 0.000000
    53 -1.546646 -3.404194 -1.915569 3.024293 0.944156 2.514436
    54 1.546661 3.404217 1.915585 3.024293 0.944156 2.514435
    55 0.000004 -1.437820 0.000000 0.424958 0.000000 0.000000
    56 -0.000021 1.437870 0.000031 0.424957 0.000000 0.000000
    57 -0.000002 -1.059402 0.000000 0.322075 0.000000 0.000000
    58 0.000006 1.059372 0.000008 0.322075 0.000000 0.000000
    59 -0.000004 -13.013485 -0.000004 0.000000 0.000000 0.000000
    60 0.000000 -10.813480 -0.000004 0.000000 0.000000 0.000000
  time 9
    0 1.513876 9.062777 -11.616585 -1.559952 0.000000 -0.000070
    1 -21.391670 -4.994087 -8.974786 -0.925949 -0.284734 0.460453
    2 0.000000 14.313023 0.000003 -0.982578 0.000000 0.000000
    3 -0.000011 13.013483 -0.000005 -0.491983 -0.508744 0.822156
    4 1.488715 3.974952 -2.955068 1.749868 0.131725 -0.419184
    5 0.000000 -14.313034 0.000000 -0.487566 0.000099 0.000000
    6 -0.000004 -13.013485 -0.000004 0.458771 0.161830 0.500283
    7 -1.330879 -2.698427 0.462449 -0.194886 -0.547260 3.056712
    8 1.330910 2.698444 -0.462436 0.194890 0.547268 -0.084879
    9 8.431712 4.554650 -4.223134 -0.711851 0.510336 1.094465
    10 3.556210 4.238403 0.987502 -1.090396 0.577049 -0.321829
    11 4.139183 5.092691 1.421975 -1.090396 0.577049 -0.321829
    12 4.777527 6.028128 1.897721 -1.090396 0.577049 -0.321829
    13 5.490345 7.072691 2.428969 -1.090396 0.577049 -0.321829
    14 6.558594 8.632813 3.232422 -1.090396 0.577049 -0.321829
    15 7.558525 6.997282 -2.354134 -1.937336 -0.275393 3.010581
    16 7.558525 6.997282 -2.354134 1.937336 0.275393 -0.131011
    17 -2.867767 -2.740969 0.531125 2.051196 0.577049 -0.321829
    18 4.324081 2.744001 -0.524877 -1.090396 0.577049 -0.321829
    19 5.012512 3.752832 -0.011802 -1.090396 0.577049 -0.321829
    20 5.595486 4.607124 0.422674 -1.090396 0.577049 -0.321829
    21 6.233833 5.542564 0.898426 -1.090396 0.577049 -0.321829
    22 6.946648 6.587124 1.429667 -1.090396 0.577049 -0.321829
    23 7.537933 7.453606 1.870349 -1.090396 0.577049 -0.321829
    24 8.154472 8.357077 2.329839 -1.090396 0.577049 -0.321829
    25 8.874294 9.411907 2.866308 -1.090396 0.577049 -0.321829
    26 -4.125858 -2.321501 1.394414 2.051196 0.577049 -0.321829
    27 -4.826813 -3.348669 0.872014 2.051196 0.577049 -0.321829
    28 -5.441669 -4.249685 0.413772 2.051196 0.577049 -0.321829
    29 -0.552532 -1.343527 1.604446 -1.131237 0.062049 -0.739325
    30 0.552589 1.343534 -1.604463 -0.761217 0.312114 -0.422073
    31 0.000000 -2.021618 -0.000004 0.186809 0.000000 0.000000
    32 -0.000021 2.021633 0.000027 0.184744 0.000000 0.000000
    33 -0.000004 -1.136217 -0.000004 0.006888 0.000000 0.000000
    34 -0.000011 1.136200 -0.000019 0.220615 0.000000 0.000000
    35 -0.032677 -4.587727 1.352317 2.844703 1.216154 2.484990
    36 0.032719 4.587772 -1.352291 4.644346 1.284926 4.144051
    37 0.000000 -1.754536 -0.000002 0.662896 0.000000 0.000000
    38 -0.000006 1.754520 -0.000034 0.202256 0.000000 0.000000
    39 0.000000 -1.227020 -0.000002 0.092660 0.000000 0.000000
    40 0.000002 1.227070 0.000032 0.130336 0.000000 0.000000
    41 -0.367996 -4.208406 0.173244 2.943027 1.091688 2.536231
    42 0.368011 4.208412 -0.173239 3.085113 1.100750 2.833678
    43 0.000000 -2.372318 -0.000004 0.722081 0.000000 0.000000
    44 -0.000006 2.372318 -0.000032 0.722081 0.000000 0.000000
    45 0.000004 -1.580070 -0.000001 0.034255 0.000000 0.000000
    46 -0.000002 1.580170 0.000030 0.034255 0.000000 0.000000
    47 -0.937645 -3.860697 -0.959317 3.044205 1.001841 2.581100
    48 0.937672 3.860714 0.959333 2.886273 1.001840 2.581100
    49 0.000000 -1.690632 0.000000 0.491549 0.000000 0.000000
    50 -0.000013 1.690666 0.000021 0.491549 0.000000 0.000000
    51 -0.000002 -1.423443 0.000002 0.234212 0.000000 0.000000
    52 0.000008 1.423420 0.000028 0.234212 0.000000 0.000000
    53 -1.546646 -3.404194 -1.915569 3.024293 0.944156 2.514436
    54 1.546661 3.404217 1.915585 3.024293 0.944156 2.514435
    55 0.000004 -1.437820 0.000000 0.424958 0.000000 0.000000
    56 -0.000021 1.437870 0.000031 0.424957 0.000000 0.000000
    57 -0.000002 -1.059402 0.000000 0.322075 0.000000 0.000000
    58 0.000006 1.059372 0.000008 0.322075 0.000000 0.000000
    59 -0.000004 -13.013485 -0.000004 0.000000 0.000000 0.000000
    60 0.000000 -10.813480 -0.000004 0.000000 0.000000 0.000000
  time 10
    0 1.681850 8.668233 -11.893937 -1.559952 0.000000 -0.000070
    1 -21.391670 -4.994087 -8.978693 -0.896370 -0.248634 0.466105
    2 0.000000 14.313023 0.000003 -0.982578 0.000000 0.000000
    3 -0.000011 13.013483 -0.000005 -0.516730 -0.519923 0.770106
    4 -0.081645 4.713256 -2.806626 1.770265 0.128124 -0.364020
    5 0.000000 -14.313034 0.000000 -0.487506 0.000132 -0.000048
    6 -0.000004 -13.013485 -0.000004 0.458771 0.161830 0.500283
    7 -1.330879 -2.698427 0.462449 -0.194886 -0.547260 3.056712
    8 1.330910 2.698444 -0.462436 0.194890 0.547268 -0.084879
    9 8.431712 4.554650 -4.223134 -0.711851 0.510336 1.094465
    10 3.556210 4.238403 0.987502 -1.090396 0.577049 -0.321829
    11 4.139183 5.092691 1.421975 -1.090396 0.577049 -0.321829
    12 4.777527 6.028128 1.897721 -1.090396 0.577049 -0.321829
    13 5.490345 7.072691 2.428969 -1.090396 0.577049 -0.321829
    14 6.558594 8.632813 3.232422 -1.090396 0.577049 -0.321829
    15 7.558525 6.997282 -2.354134 -1.937336 -0.275393 3.010581
    16 7.558525 6.997282 -2.354134 1.937336 0.275393 -0.131011
    17 -2.867767 -2.740969 0.531125 2.051196 0.577049 -0.321829
    18 4.324081 2.744001 -0.524877 -1.090396 0.577049 -0.321829
    19 5.012512 3.752832 -0.011802 -1.090396 0.577049 -0.321829
    20 5.595486 4.607124 0.422674 -1.090396 0.577049 -0.321829
    21 6.233833 5.542564 0.898426 -1.090396 0.577049 -0.321829
    22 6.946648 6.587124 1.429667 -1.090396 0.577049 -0.321829
    23 7.537933 7.453606 1.870349 -1.090396 0.577049 -0.321829
    24 8.154472 8.357077 2.329839 -1.090396 0.577049 -0.321829
    25 8.874294 9.411907 2.866308 -1.090396 0.577049 -0.321829
    26 -4.125858 -2.321501 1.394414 2.051196 0.577049 -0.321829
    27 -4.826813 -3.348669 0.872014 2.051196 0.577049 -0.321829
    28 -5.441669 -4.249685 0.413772 2.051196 0.577049 -0.321829
    29 -0.552532 -1.343527 1.604446 -1.131237 0.062049 -0.739325
    30 0.552589 1.343534 -1.604463 -0.761217 0.312114 -0.422073
    31 0.000000 -2.021618 -0.000004 0.186809 0.000000 0.000000
    32 -0.000021 2.021633 0.000027 0.184554 0.000000 0.000000
    33 -0.000004 -1.136217 -0.000004 0.006888 0.000000 0.000000
    34 -0.000011 1.136200 -0.000019 0.220615 0.000000 0.000000
    35 -0.032677 -4.587727 1.352317 2.844703 1.216154 2.484990
    36 0.032719 4.587772 -1.352291 4.644172 1.284740 4.144051
    37 0.000000 -1.754536 -0.000002 0.662896 0.000000 0.000000
    38 -0.000006 1.754520 -0.000034 0.202256 0.000000 0.000000
    39 0.000000 -1.227020 -0.000002 0.092660 0.000000 0.000000
    40 0.000002 1.227070 0.000032 0.130336 0.000000 0.000000
    41 -0.367996 -4.208406 0.173244 2.943027 1.091688 2.536231
    42 0.368011 4.208412 -0.173239 3.085113 1.100750 2.833678
    43 0.000000 -2.372318 -0.000004 0.722081 0.000000 0.000000
    44 -0.000006 2.372318 -0.000032 0.722081 0.000000 0.000000
    45 0.000004 -1.580070 -0.000001 0.034255 0.000000 0.000000
    46 -0.000002 1.580170 0.000030 0.034255 0.000000 0.000000
    47 -0.937645 -3.860697 -0.959317 3.044205 1.001841 2.581100
    48 0.937672 3.860714 0.959333 2.886273 1.001840 2.581100
    49 0.000000 -1.690632 0.000000 0.491549 0.000000 0.000000
    50 -0.000013 1.690666 0.000021 0.491549 0.000000 0.000000
    51 -0.000002 -1.423443 0.000002 0.234212 0.000000 0.000000
    52 0.000008 1.423420 0.000028 0.234212 0.000000 0.000000
    53 -1.546646 -3.404194 -1.915569 3.024293 0.944156 2.514436
    54 1.546661 3.404217 1.915585 3.024293 0.944156 2.514435
    55 0.000004 -1.437820 0.000000 0.424958 0.000000 0.000000
    56 -0.000021 1.437870 0.000031 0.424957 0.000000 0.000000
    57 -0.000002 -1.059402 0.000000 0.322075 0.000000 0.000000
    58 0.000006 1.059372 0.000008 0.322075 0.000000 0.000000
    59 -0.000004 -13.013485 -0.000004 0.000000 0.000000 0.000000
    60 0.000000 -10.813480 -0.000004 0.000000 0.000000 0.000000
  time 11
    0 1.849824 8.277596 -12.206447 -1.559952 0.000000 -0.000070
    1 -21.391670 -4.994087 -8.974786 -0.892223 -0.206286 0.462439
    2 0.000000 14.313023 0.000003 -0.982578 0.000000 0.000000
    3 -0.000011 13.013483 -0.000005 -0.516730 -0.519923 0.770106
    4 0.172269 4.748413 -3.802751 1.741345 0.159542 -0.371011
    5 0.000000 -14.313034 0.000000 -0.487447 0.000198 -0.000048
    6 -0.000004 -13.013485 -0.000004 0.458681 0.161830 0.500283
    7 -1.330879 -2.698427 0.462449 -0.194886 -0.547260 3.056712
    8 1.330910 2.698444 -0.462436 0.194890 0.547268 -0.084879
    9 8.431712 4.554650 -4.273646 -0.711851 0.510336 1.094465
    10 3.556210 4.238403 0.987502 -1.090396 0.577049 -0.321829
    11 4.139183 5.092691 1.421975 -1.090396 0.577049 -0.321829
    12 4.777527 6.028128 1.897721 -1.090396 0.577049 -0.321829
    13 5.490345 7.072691 2.428969 -1.090396 0.577049 -0.321829
    14 6.558594 8.632813 3.232422 -1.090396 0.577049 -0.321829
    15 7.558525 6.997282 -2.354134 -1.937336 -0.275393 3.010581
    16 7.558525 6.997282 -2.354134 1.937336 0.275393 -0.131011
    17 -2.867767 -2.740969 0.531125 2.051196 0.577049 -0.321829
    18 4.324081 2.744001 -0.524877 -1.090396 0.577049 -0.321829
    19 5.012512 3.752832 -0.011802 -1.090396 0.577049 -0.321829
    20 5.595486 4.607124 0.422674 -1.090396 0.577049 -0.321829
    21 6.233833 5.542564 0.898426 -1.090396 0.577049 -0.321829
    22 6.946648 6.587124 1.429667 -1.090396 0.577049 -0.321829
    23 7.537933 7.453606 1.870349 -1.090396 0.577049 -0.321829
    24 8.154472 8.357077 2.329839 -1.090396 0.577049 -0.321829
    25 8.874294 9.411907 2.866308 -1.090396 0.577049 -0.321829
    26 -4.125858 -2.321501 1.394414 2.051196 0.577049 -0.321829
    27 -4.826813 -3.348669 0.872014 2.051196 0.577049 -0.321829
    28 -5.441669 -4.249685 0.413772 2.051196 0.577049 -0.321829
    29 -0.552532 -1.343527 1.604446 -1.131237 0.062049 -0.739325
    30 0.552589 1.343534 -1.604463 -0.799735 0.295738 -0.430529
    31 0.000000 -2.021618 -0.000004 0.186809 0.000000 0.000000
    32 -0.000021 2.021633 0.000027 0.184309 0.000000 0.000000
    33 -0.000004 -1.136217 -0.000004 0.006888 0.000000 0.000000
    34 -0.000011 1.136200 -0.000019 0.220615 0.000000 0.000000
    35 -0.032677 -4.587727 1.352317 2.844703 1.216154 2.484990
    36 0.032719 4.587772 -1.352291 4.644085 1.284592 4.144127
    37 0.000000 -1.754536 -0.000002 0.662896 0.000000 0.000000
    38 -0.000006 1.754520 -0.000034 0.202256 0.000000 0.000000
    39 0.000000 -1.227020 -0.000002 0.092660 0.000000 0.000000
    40 0.000002 1.227070 0.000032 0.130336 0.000000 0.000000
    41 -0.367996 -4.208406 0.173244 2.943027 1.091688 2.536231
    42 0.368011 4.208412 -0.173239 3.085113 1.100750 2.833678
    43 0.000000 -2.372318 -0.000004 0.722081 0.000000 0.000000
    44 -0.000006 2.372318 -0.000032 0.722081 0.000000 0.000000
    45 0.000004 -1.580070 -0.000001 0.034255 0.000000 0.000000
    46 -0.000002 1.580170 0.000030 0.034255 0.000000 0.000000
    47 -0.937645 -3.860697 -0.959317 3.044205 1.001841 2.581100
    48 0.937672 3.860714 0.959333 2.886273 1.001840 2.581100
    49 0.000000 -1.690632 0.000000 0.491549 0.000000 0.000000
    50 -0.000013 1.690666 0.000021 0.491549 0.000000 0.000000
    51 -0.000002 -1.423443 0.000002 0.234212 0.000000 0.000000
    52 0.000008 1.423420 0.000028 0.234212 0.000000 0.000000
    53 -1.546646 -3.404194 -1.915569 3.024293 0.944156 2.514436
    54 1.546661 3.404217 1.915585 3.024293 0.944156 2.514435
    55 0.000004 -1.437820 0.000000 0.424958 0.000000 0.000000
    56 -0.000021 1.437870 0.000031 0.424957 0.000000 0.000000
    57 -0.000002 -1.059402 0.000000 0.322075 0.000000 0.000000
    58 0.000006 1.059372 0.000008 0.322075 0.000000 0.000000
    59 -0.000004 -13.013485 -0.000004 0.000000 0.000000 0.000000
    60 0.000000 -10.813480 -0.000004 0.000000 0.000000 0.000000
  time 12
    0 2.017798 7.883053 -12.554113 -1.559952 0.000000 -0.000070
    1 -21.391670 -4.994087 -8.978693 -0.908441 -0.158025 0.452662
    2 0.000000 14.313023 0.000003 -0.982578 0.000000 0.000000
    3 -0.000011 13.013483 -0.000005 -0.516730 -0.519923 0.770106
    4 0.461340 4.635129 -4.939504 1.694039 0.180006 -0.391794
    5 0.000000 -14.313034 0.000000 -0.487387 0.000231 -0.000096
    6 -0.000004 -13.013485 -0.000004 0.458771 0.161830 0.500283
    7 -1.330879 -2.698427 0.462449 -0.194886 -0.547260 3.056712
    8 1.330910 2.698444 -0.462436 0.194890 0.547268 -0.084879
    9 8.431712 4.554650 -4.223134 -0.711851 0.510336 1.094465
    10 3.556210 4.238403 0.987502 -1.090396 0.577049 -0.321829
    11 4.139183 5.092691 1.421975 -1.090396 0.577049 -0.321829
    12 4.777527 6.028128 1.897721 -1.090396 0.577049 -0.321829
    13 5.490345 7.072691 2.428969 -1.090396 0.577049 -0.321829
    14 6.558594 8.632813 3.232422 -1.090396 0.577049 -0.321829
    15 7.558525 6.997282 -2.354134 -1.937336 -0.275393 3.010581
    16 7.558525 6.997282 -2.354134 1.937336 0.275393 -0.131011
    17 -2.867767 -2.740969 0.531125 2.051196 0.577049 -0.321829
    18 4.324081 2.744001 -0.524877 -1.090396 0.577049 -0.321829
    19 5.012512 3.752832 -0.011802 -1.090396 0.577049 -0.321829
    20 5.595486 4.607124 0.422674 -1.090396 0.577049 -0.321829
    21 6.233833 5.542564 0.898426 -1.090396 0.577049 -0.321829
    22 6.946648 6.587124 1.429667 -1.090396 0.577049 -0.321829
    23 7.537933 7.453606 1.870349 -1.090396 0.577049 -0.321829
    24 8.154472 8.357077 2.329839 -1.090396 0.577049 -0.321829
    25 8.874294 9.411907 2.866308 -1.090396 0.577049 -0.321829
    26 -4.125858 -2.321501 1.394414 2.051196 0.577049 -0.321829
    27 -4.826813 -3.348669 0.872014 2.051196 0.577049 -0.321829
    28 -5.441669 -4.249685 0.413772 2.051196 0.577049 -0.321829
    29 -0.552532 -1.343527 1.604446 -1.131237 0.062049 -0.739325
    30 0.552589 1.343534 -1.604463 -0.843349 0.277063 -0.440136
    31 0.000000 -2.021618 -0.000004 0.186809 0.000000 0.000000
    32 -0.000021 2.021633 0.000027 0.184065 0.000000 0.000000
    33 -0.000004 -1.136217 -0.000004 0.006888 0.000000 0.000000
    34 -0.000011 1.136200 -0.000019 0.220615 0.000000 0.000000
    35 -0.032677 -4.587727 1.352317 2.844703 1.216154 2.484990
    36 0.032719 4.587772 -1.352291 4.643912 1.284406 4.144127
    37 0.000000 -1.754536 -0.000002 0.662896 0.000000 0.000000
    38 -0.000006 1.754520 -0.000034 0.202256 0.000000 0.000000
    39 0.000000 -1.227020 -0.000002 0.092660 0.000000 0.000000
    40 0.000002 1.227070 0.000032 0.130336 0.000000 0.000000
    41 -0.367996 -4.208406 0.173244 2.943027 1.091688 2.536231
    42 0.368011 4.208412 -0.173239 3.085113 1.100750 2.833678
    43 0.000000 -2.372318 -0.000004 0.722081 0.000000 0.000000
    44 -0.000006 2.372318 -0.000032 0.722081 0.000000 0.000000
    45 0.000004 -1.580070 -0.000001 0.034255 0.000000 0.000000
    46 -0.000002 1.580170 0.000030 0.034255 0.000000 0.000000
    47 -0.937645 -3.860697 -0.959317 3.044205 1.001841 2.581100
    48 0.937672 3.860714 0.959333 2.886273 1.001840 2.581100
    49 0.000000 -1.690632 0.000000 0.491549 0.000000 0.000000
    50 -0.000013 1.690666 0.000021 0.491549 0.000000 0.000000
    51 -0.000002 -1.423443 0.000002 0.234212 0.000000 0.000000
    52 0.000008 1.423420 0.000028 0.234212 0.000000 0.000000
    53 -1.546646 -3.404194 -1.915569 3.024293 0.944156 2.514436
    54 1.546661 3.404217 1.915585 3.024293 0.944156 2.514435
    55 0.000004 -1.437820 0.000000 0.424958 0.000000 0.000000
    56 -0.000021 1.437870 0.000031 0.424957 0.000000 0.000000
    57 -0.000002 -1.059402 0.000000 0.322075 0.000000 0.000000
    58 0.000006 1.059372 0.000008 0.322075 0.000000 0.000000
    59 -0.000004 -13.013485 -0.000004 0.000000 0.000000 0.000000
    60 0.000000 -10.813480 -0.000004 0.000000 0.000000 0.000000
  time 13
    0 2.185772 7.488510 -12.921312 -1.559952 0.000000 -0.000070
    1 -21.391670 -4.994087 -8.974786 -0.935808 -0.110718 0.438455
    2 0.000000 14.313023 0.000003 -0.982578 0.000000 0.000000
    3 -0.000011 13.013483 -0.000005 -0.516730 -0.519923 0.770106
    4 0.738692 4.396840 -6.048913 1.639646 0.190845 -0.419759
    5 0.000000 -14.313034 0.000000 -0.487267 0.000264 -0.000096
    6 -0.000004 -13.013485 -0.000004 0.458771 0.161830 0.500283
    7 -1.330879 -2.698427 0.462449 -0.194886 -0.547260 3.056712
    8 1.330910 2.698444 -0.462436 0.194890 0.547268 -0.084879
    9 8.431712 4.554650 -4.223134 -0.711851 0.510336 1.094465
    10 3.556210 4.238403 0.987502 -1.090396 0.577049 -0.321829
    11 4.139183 5.092691 1.421975 -1.090396 0.577049 -0.321829
    12 4.777527 6.028128 1.897721 -1.090396 0.577049 -0.321829
    13 5.490345 7.072691 2.428969 -1.090396 0.577049 -0.321829
    14 6.558594 8.632813 3.232422 -1.090396 0.577049 -0.321829
    15 7.558525 6.997282 -2.354134 -1.937336 -0.275393 3.010581
    16 7.558525 6.997282 -2.354134 1.937336 0.275393 -0.131011
    17 -2.867767 -2.740969 0.531125 2.051196 0.577049 -0.321829
    18 4.324081 2.744001 -0.524877 -1.090396 0.577049 -0.321829
    19 5.012512 3.752832 -0.011802 -1.090396 0.577049 -0.321829
    20 5.595486 4.607124 0.422674 -1.090396 0.577049 -0.321829
    21 6.233833 5.542564 0.898426 -1.090396 0.577049 -0.321829
    22 6.946648 6.587124 1.429667 -1.090396 0.577049 -0.321829
    23 7.537933 7.453606 1.870349 -1.090396 0.577049 -0.321829
    24 8.154472 8.357077 2.329839 -1.090396 0.577049 -0.321829
    25 8.874294 9.411907 2.866308 -1.090396 0.577049 -0.321829
    26 -4.125858 -2.321501 1.394414 2.051196 0.577049 -0.321829
    27 -4.826813 -3.348669 0.872014 2.051196 0.577049 -0.321829
    28 -5.441669 -4.249685 0.413772 2.051196 0.577049 -0.321829
    29 -0.552532 -1.343527 1.604446 -1.131237 0.062049 -0.739325
    30 0.552589 1.343534 -1.604463 -0.889890 0.257437 -0.450592
    31 0.000000 -2.021618 -0.000004 0.186809 0.000000 0.000000
    32 -0.000021 2.021633 0.000027 0.183847 0.000000 0.000000
    33 -0.000004 -1.136217 -0.000004 0.006888 0.000000 0.000000
    34 -0.000011 1.136200 -0.000019 0.220615 0.000000 0.000000
    35 -0.032677 -4.587727 1.352317 2.844703 1.216154 2.484990
    36 0.032719 4.587772 -1.352291 4.643825 1.284258 4.144127
    37 0.000000 -1.754536 -0.000002 0.662896 0.000000 0.000000
    38 -0.000006 1.754520 -0.000034 0.202256 0.000000 0.000000
    39 0.000000 -1.227020 -0.000002 0.092660 0.000000 0.000000
    40 0.000002 1.227070 0.000032 0.130336 0.000000 0.000000
    41 -0.367996 -4.208406 0.173244 2.943027 1.091688 2.536231
    42 0.368011 4.208412 -0.173239 3.085113 1.100750 2.833678
    43 0.000000 -2.372318 -0.000004 0.722081 0.000000 0.000000
    44 -0.000006 2.372318 -0.000032 0.722081 0.000000 0.000000
    45 0.000004 -1.580070 -0.000001 0.034255 0.000000 0.000000
    46 -0.000002 1.580170 0.000030 0.034255 0.000000 0.000000
    47 -0.937645 -3.860697 -0.959317 3.044205 1.001841 2.581100
    48 0.937672 3.860714 0.959333 2.886273 1.001840 2.581100
    49 0.000000 -1.690632 0.000000 0.491549 0.000000 0.000000
    50 -0.000013 1.690666 0.000021 0.491549 0.000000 0.000000
    51 -0.000002 -1.423443 0.000002 0.234212 0.000000 0.000000
    52 0.000008 1.423420 0.000028 0.234212 0.000000 0.000000
    53 -1.546646 -3.404194 -1.915569 3.024293 0.944156 2.514436
    54 1.546661 3.404217 1.915585 3.024293 0.944156 2.514435
    55 0.000004 -1.437820 0.000000 0.424958 0.000000 0.000000
    56 -0.000021 1.437870 0.000031 0.424957 0.000000 0.000000
    57 -0.000002 -1.059402 0.000000 0.322075 0.000000 0.000000
    58 0.000006 1.059372 0.000008 0.322075 0.000000 0.000000
    59 -0.000004 -13.013485 -0.000004 0.000000 0.000000 0.000000
    60 0.000000 -10.813480 -0.000004 0.000000 0.000000 0.000000
  time 14
    0 2.353745 7.097873 -13.308043 -1.559952 0.000000 -0.000070
    1 -21.391670 -4.994087 -8.974786 -0.965111 -0.070325 0.419971
    2 0.000000 14.313023 0.000003 -0.982578 0.000000 0.000000
    3 -0.000011 13.013483 -0.000005 -0.516730 -0.519923 0.770106
    4 0.996512 4.029641 -6.994254 1.588988 0.194786 -0.450501
    5 0.000000 -14.313034 0.000000 -0.487207 0.000331 -0.000096
    6 -0.000004 -13.013485 -0.000004 0.458681 0.161830 0.500283
    7 -1.330879 -2.698427 0.462449 -0.194886 -0.547260 3.056712
    8 1.330910 2.698444 -0.462436 0.194890 0.547268 -0.084879
    9 8.431712 4.554650 -4.223134 -0.711851 0.510336 1.094465
    10 3.556210 4.238403 0.987502 -1.090396 0.577049 -0.321829
    11 4.139183 5.092691 1.421975 -1.090396 0.577049 -0.321829
    12 4.777527 6.028128 1.897721 -1.090396 0.577049 -0.321829
    13 5.490345 7.072691 2.428969 -1.090396 0.577049 -0.321829
    14 6.558594 8.632813 3.232422 -1.090396 0.577049 -0.321829
    15 7.558525 6.997282 -2.354134 -1.937336 -0.275393 3.010581
    16 7.558525 6.997282 -2.354134 1.937336 0.275393 -0.131011
    17 -2.867767 -2.740969 0.531125 2.051196 0.577049 -0.321829
    18 4.324081 2.744001 -0.524877 -1.090396 0.577049 -0.321829
    19 5.012512 3.752832 -0.011802 -1.090396 0.577049 -0.321829
    20 5.595486 4.607124 0.422674 -1.090396 0.577049 -0.321829
    21 6.233833 5.542564 0.898426 -1.090396 0.577049 -0.321829
    22 6.946648 6.587124 1.429667 -1.090396 0.577049 -0.321829
    23 7.537933 7.453606 1.870349 -1.090396 0.577049 -0.321829
    24 8.154472 8.357077 2.329839 -1.090396 0.577049 -0.321829
    25 8.874294 9.411907 2.866308 -1.090396 0.577049 -0.321829
    26 -4.125858 -2.321501 1.394414 2.051196 0.577049 -0.321829
    27 -4.826813 -3.348669 0.872014 2.051196 0.577049 -0.321829
    28 -5.441669 -4.249685 0.413772 2.051196 0.577049 -0.321829
    29 -0.552532 -1.343527 1.604446 -1.131237 0.062049 -0.739325
    30 0.552589 1.343534 -1.604463 -0.936614 0.237295 -0.460613
    31 0.000000 -2.021618 -0.000004 0.186809 0.000000 0.000000
    32 -0.000021 2.021633 0.000027 0.183603 0.000000 0.000000
    33 -0.000004 -1.136217 -0.000004 0.006888 0.000000 0.000000
    34 -0.000011 1.136200 -0.000019 0.220615 0.000000 0.000000
    35 -0.032677 -4.587727 1.352317 2.844703 1.216154 2.484990
    36 0.032719 4.587772 -1.352291 4.643651 1.284072 4.144203
    37 0.000000 -1.754536 -0.000002 0.662896 0.000000 0.000000
    38 -0.000006 1.754520 -0.000034 0.202256 0.000000 0.000000
    39 0.000000 -1.227020 -0.000002 0.092660 0.000000 0.000000
    40 0.000002 1.227070 0.000032 0.130336 0.000000 0.000000
    41 -0.367996 -4.208406 0.173244 2.943027 1.091688 2.536231
    42 0.368011 4.208412 -0.173239 3.085113 1.100750 2.833678
    43 0.000000 -2.372318 -0.000004 0.722081 0.000000 0.000000
    44 -0.000006 2.372318 -0.000032 0.722081 0.000000 0.000000
    45 0.000004 -1.580070 -0.000001 0.034255 0.000000 0.000000
    46 -0.000002 1.580170 0.000030 0.034255 0.000000 0.000000
    47 -0.937645 -3.860697 -0.959317 3.044205 1.001841 2.581100
    48 0.937672 3.860714 0.959333 2.886273 1.001840 2.581100
    49 0.000000 -1.690632 0.000000 0.491549 0.000000 0.000000
    50 -0.000013 1.690666 0.000021 0.491549 0.000000 0.000000
    51 -0.000002 -1.423443 0.000002 0.234212 0.000000 0.000000
    52 0.000008 1.423420 0.000028 0.234212 0.000000 0.000000
    53 -1.546646 -3.404194 -1.915569 3.024293 0.944156 2.514436
    54 1.546661 3.404217 1.915585 3.024293 0.944156 2.514435
    55 0.000004 -1.437820 0.000000 0.424958 0.000000 0.000000
    56 -0.000021 1.437870 0.000031 0.424957 0.000000 0.000000
    57 -0.000002 -1.059402 0.000000 0.322075 0.000000 0.000000
    58 0.000006 1.059372 0.000008 0.322075 0.000000 0.000000
    59 -0.000004 -13.013485 -0.000004 0.000000 0.000000 0.000000
    60 0.000000 -10.813480 -0.000004 0.000000 0.000000 0.000000
  time 15
    0 2.521719 6.703330 -13.702586 -1.559952 0.000000 -0.000070
    1 -21.391670 -4.994087 -8.978693 -0.988240 -0.040663 0.395605
    2 0.000000 14.313023 0.000003 -0.982578 0.000000 0.000000
    3 -0.000011 13.013483 -0.000005 -0.516730 -0.519923 0.770106
    4 1.250426 3.514001 -7.689588 1.550779 0.196227 -0.483446
    5 0.000000 -14.313034 0.000000 -0.487147 0.000364 -0.000192
    6 -0.000004 -13.013485 -0.000004 0.458771 0.161830 0.500283
    7 -1.330879 -2.698427 0.462449 -0.194886 -0.547260 3.056712
    8 1.330910 2.698444 -0.462436 0.194890 0.547268 -0.084879
    9 8.431712 4.554650 -4.273646 -0.711851 0.510336 1.094465
    10 3.556210 4.238403 0.987502 -1.090396 0.577049 -0.321829
    11 4.139183 5.092691 1.421975 -1.090396 0.577049 -0.321829
    12 4.777527 6.028128 1.897721 -1.090396 0.577049 -0.321829
    13 5.490345 7.072691 2.428969 -1.090396 0.577049 -0.321829
    14 6.558594 8.632813 3.232422 -1.090396 0.577049 -0.321829
    15 7.558525 6.997282 -2.354134 -1.937336 -0.275393 3.010581
    16 7.558525 6.997282 -2.354134 1.937336 0.275393 -0.131011
    17 -2.867767 -2.740969 0.531125 2.051196 0.577049 -0.321829
    18 4.324081 2.744001 -0.524877 -1.090396 0.577049 -0.321829
    19 5.012512 3.752832 -0.011802 -1.090396 0.577049 -0.321829
    20 5.595486 4.607124 0.422674 -1.090396 0.577049 -0.321829
    21 6.233833 5.542564 0.898426 -1.090396 0.577049 -0.321829
    22 6.946648 6.587124 1.429667 -1.090396 0.577049 -0.321829
    23 7.537933 7.453606 1.870349 -1.090396 0.577049 -0.321829
    24 8.154472 8.357077 2.329839 -1.090396 0.577049 -0.321829
    25 8.874294 9.411907 2.866308 -1.090396 0.577049 -0.321829
    26 -4.125858 -2.321501 1.394414 2.051196 0.577049 -0.321829
    27 -4.826813 -3.348669 0.872014 2.051196 0.577049 -0.321829
    28 -5.441669 -4.249685 0.413772 2.051196 0.577049 -0.321829
    29 -0.552532 -1.343527 1.604446 -1.131237 0.062049 -0.739325
    30 0.552589 1.343534 -1.604463 -0.982292 0.217826 -0.470677
    31 0.000000 -2.021618 -0.000004 0.186809 0.000000 0.000000
    32 -0.000021 2.021633 0.000027 0.183386 0.000000 0.000000
    33 -0.000004 -1.136217 -0.000004 0.006888 0.000000 0.000000
    34 -0.000011 1.136200 -0.000019 0.220615 0.000000 0.000000
    35 -0.032677 -4.587727 1.352317 2.844703 1.216154 2.484990
    36 0.032719 4.587772 -1.352291 4.643564 1.283924 4.144203
    37 0.000000 -1.754536 -0.000002 0.662896 0.000000 0.000000
    38 -0.000006 1.754520 -0.000034 0.202256 0.000000 0.000000
    39 0.000000 -1.227020 -0.000002 0.092660 0.000000 0.000000
    40 0.000002 1.227070 0.000032 0.130336 0.000000 0.000000
    41 -0.367996 -4.208406 0.173244 2.943027 1.091688 2.536231
    42 0.368011 4.208412 -0.173239 3.085113 1.100750 2.833678
    43 0.000000 -2.372318 -0.000004 0.722081 0.000000 0.000000
    44 -0.000006 2.372318 -0.000032 0.722081 0.000000 0.000000
    45 0.000004 -1.580070 -0.000001 0.034255 0.000000 0.000000
    46 -0.000002 1.580170 0.000030 0.034255 0.000000 0.000000
    47 -0.937645 -3.860697 -0.959317 3.044205 1.001841 2.581100
    48 0.937672 3.860714 0.959333 2.886273 1.001840 2.581100
    49 0.000000 -1.690632 0.000000 0.491549 0.000000 0.000000
    50 -0.000013 1.690666 0.000021 0.491549 0.000000 0.000000
    51 -0.000002 -1.423443 0.000002 0.234212 0.000000 0.000000
    52 0.000008 1.423420 0.000028 0.234212 0.000000 0.000000
    53 -1.546646 -3.404194 -1.915569 3.024293 0.944156 2.514436
    54 1.546661 3.404217 1.915585 3.024293 0.944156 2.514435
    55 0.000004 -1.437820 0.000000 0.424958 0.000000 0.000000
    56 -0.000021 1.437870 0.000031 0.424957 0.000000 0.000000
    57 -0.000002 -1.059402 0.000000 0.322075 0.000000 0.000000
    58 0.000006 1.059372 0.000008 0.322075 0.000000 0.000000
    59 -0.000004 -13.013485 -0.000004 0.000000 0.000000 0.000000
    60 0.000000 -10.813480 -0.000004 0.000000 0.000000 0.000000
  time 16
    0 2.689693 6.304880 -14.093223 -1.559952 0.000000 -0.000070
    1 -21.391670 -4.994087 -8.974786 -1.006669 -0.033843 0.351151
    2 0.000000 14.313023 0.000003 -0.982578 0.000000 0.000000
    3 -0.000011 13.013483 -0.000005 -0.516730 -0.519923 0.770106
    4 1.609812 2.506157 -7.838030 1.533446 0.186259 -0.531906
    5 0.000000 -14.313034 0.000000 -0.487088 0.000397 -0.000192
    6 -0.000004 -13.013485 -0.000004 0.458681 0.161830 0.500283
    7 -1.330879 -2.698427 0.462449 -0.194886 -0.547260 3.056712
    8 1.330910 2.698444 -0.462436 0.194890 0.547268 -0.084879
    9 8.431712 4.554650 -4.223134 -0.711851 0.510336 1.094465
    10 3.556210 4.238403 0.987502 -1.090396 0.577049 -0.321829
    11 4.139183 5.092691 1.421975 -1.090396 0.577049 -0.321829
    12 4.777527 6.028128 1.897721 -1.090396 0.577049 -0.321829
    13 5.490345 7.072691 2.428969 -1.090396 0.577049 -0.321829
    14 6.558594 8.632813 3.232422 -1.090396 0.577049 -0.321829
    15 7.558525 6.997282 -2.354134 -1.937336 -0.275393 3.010581
    16 7.558525 6.997282 -2.354134 1.937336 0.275393 -0.131011
    17 -2.867767 -2.740969 0.531125 2.051196 0.577049 -0.321829
    18 4.324081 2.744001 -0.524877 -1.090396 0.577049 -0.321829
    19 5.012512 3.752832 -0.011802 -1.090396 0.577049 -0.321829
    20 5.595486 4.607124 0.422674 -1.090396 0.577049 -0.321829
    21 6.233833 5.542564 0.898426 -1.090396 0.577049 -0.321829
    22 6.946648 6.587124 1.429667 -1.090396 0.577049 -0.321829
    23 7.537933 7.453606 1.870349 -1.090396 0.577049 -0.321829
    24 8.154472 8.357077 2.329839 -1.090396 0.577049 -0.321829
    25 8.874294 9.411907 2.866308 -1.090396 0.577049 -0.321829
    26 -4.125858 -2.321501 1.394414 2.051196 0.577049 -0.321829
    27 -4.826813 -3.348669 0.872014 2.051196 0.577049 -0.321829
    28 -5.441669 -4.249685 0.413772 2.051196 0.577049 -0.321829
    29 -0.552532 -1.343527 1.604446 -1.131237 0.062049 -0.739325
    30 0.552589 1.343534 -1.604463 -1.024338 0.199825 -0.479937
    31 0.000000 -2.021618 -0.000004 0.186809 0.000000 0.000000
    32 -0.000021 2.021633 0.000027 0.183168 0.000000 0.000000
    33 -0.000004 -1.136217 -0.000004 0.006888 0.000000 0.000000
    34 -0.000011 1.136200 -0.000019 0.220615 0.000000 0.000000
    35 -0.032677 -4.587727 1.352317 2.844703 1.216154 2.484990
    36 0.032719 4.587772 -1.352291 4.643391 1.283738 4.144203
    37 0.000000 -1.754536 -0.000002 0.662896 0.000000 0.000000
    38 -0.000006 1.754520 -0.000034 0.202256 0.000000 0.000000
    39 0.000000 -1.227020 -0.000002 0.092660 0.000000 0.000000
    40 0.000002 1.227070 0.000032 0.130336 0.000000 0.000000
    41 -0.367996 -4.208406 0.173244 2.943027 1.091688 2.536231
    42 0.368011 4.208412 -0.173239 3.085113 1.100750 2.833678
    43 0.000000 -2.372318 -0.000004 0.722081 0.000000 0.000000
    44 -0.000006 2.372318 -0.000032 0.722081 0.000000 0.000000
    45 0.000004 -1.580070 -0.000001 0.034255 0.000000 0.000000
    46 -0.000002 1.580170 0.000030 0.034255 0.000000 0.000000
    47 -0.937645 -3.860697 -0.959317 3.044205 1.001841 2.581100
    48 0.937672 3.860714 0.959333 2.886273 1.001840 2.581100
    49 0.000000 -1.690632 0.000000 0.491549 0.000000 0.000000
    50 -0.000013 1.690666 0.000021 0.491549 0.000000 0.000000
    51 -0.000002 -1.423443 0.000002 0.234212 0.000000 0.000000
    52 0.000008 1.423420 0.000028 0.234212 0.000000 0.000000
    53 -1.546646 -3.404194 -1.915569 3.024293 0.944156 2.514436
    54 1.546661 3.404217 1.915585 3.024293 0.944156 2.514435
    55 0.000004 -1.437820 0.000000 0.424958 0.000000 0.000000
    56 -0.000021 1.437870 0.000031 0.424957 0.000000 0.000000
    57 -0.000002 -1.059402 0.000000 0.322075 0.000000 0.000000
    58 0.000006 1.059372 0.000008 0.322075 0.000000 0.000000
    59 -0.000004 -13.013485 -0.000004 0.000000 0.000000 0.000000
    60 0.000000 -10.813480 -0.000004 0.000000 0.000000 0.000000
  time 17
    0 2.857667 5.914243 -14.476047 -1.559952 0.000000 -0.000070
    1 -21.391670 -4.994087 -8.974786 -1.026757 -0.040615 0.292338
    2 0.000000 14.313023 0.000003 -0.982578 0.000000 0.000000
    3 -0.000011 13.013483 -0.000005 -0.516730 -0.519923 0.770106
    4 2.000449 1.142835 -7.658337 1.525881 0.166477 -0.592721
    5 0.000000 -14.313034 0.000000 -0.487028 0.000463 -0.000241
    6 -0.000004 -13.013485 -0.000004 0.458771 0.161830 0.500283
    7 -1.330879 -2.698427 0.462449 -0.194886 -0.547260 3.056712
    8 1.330910 2.698444 -0.462436 0.194890 0.547268 -0.084879
    9 8.431712 4.554650 -4.223134 -0.711851 0.510336 1.094465
    10 3.556210 4.238403 0.987502 -1.090396 0.577049 -0.321829
    11 4.139183 5.092691 1.421975 -1.090396 0.577049 -0.321829
    12 4.777527 6.028128 1.897721 -1.090396 0.577049 -0.321829
    13 5.490345 7.072691 2.428969 -1.090396 0.577049 -0.321829
    14 6.558594 8.632813 3.232422 -1.090396 0.577049 -0.321829
    15 7.558525 6.997282 -2.354134 -1.937336 -0.275393 3.010581
    16 7.558525 6.997282 -2.354134 1.937336 0.275393 -0.131011
    17 -2.867767 -2.740969 0.531125 2.051196 0.577049 -0.321829
    18 4.324081 2.744001 -0.524877 -1.090396 0.577049 -0.321829
    19 5.012512 3.752832 -0.011802 -1.090396 0.577049 -0.321829
    20 5.595486 4.607124 0.422674 -1.090396 0.577049 -0.321829
    21 6.233833 5.542564 0.898426 -1.090396 0.577049 -0.321829
    22 6.946648 6.587124 1.429667 -1.090396 0.577049 -0.321829
    23 7.537933 7.453606 1.870349 -1.090396 0.577049 -0.321829
    24 8.154472 8.357077 2.329839 -1.090396 0.577049 -0.321829
    25 8.874294 9.411907 2.866308 -1.090396 0.577049 -0.321829
    26 -4.125858 -2.321501 1.394414 2.051196 0.577049 -0.321829
    27 -4.826813 -3.348669 0.872014 2.051196 0.577049 -0.321829
    28 -5.441669 -4.249685 0.413772 2.051196 0.577049 -0.321829
    29 -0.552532 -1.343527 1.604446 -1.131237 0.062049 -0.739325
    30 0.552589 1.343534 -1.604463 -1.060687 0.184322 -0.487936
    31 0.000000 -2.021618 -0.000004 0.186809 0.000000 0.000000
    32 -0.000021 2.021633 0.000027 0.182924 0.000000 0.000000
    33 -0.000004 -1.136217 -0.000004 0.006888 0.000000 0.000000
    34 -0.000011 1.136200 -0.000019 0.220615 0.000000 0.000000
    35 -0.032677 -4.587727 1.352317 2.844703 1.216154 2.484990
    36 0.032719 4.587772 -1.352291 4.643217 1.283590 4.144278
    37 0.000000 -1.754536 -0.000002 0.662896 0.000000 0.000000
    38 -0.000006 1.754520 -0.000034 0.202256 0.000000 0.000000
    39 0.000000 -1.227020 -0.000002 0.092660 0.000000 0.000000
    40 0.000002 1.227070 0.000032 0.130336 0.000000 0.000000
    41 -0.367996 -4.208406 0.173244 2.943027 1.091688 2.536231
    42 0.368011 4.208412 -0.173239 3.085113 1.100750 2.833678
    43 0.000000 -2.372318 -0.000004 0.722081 0.000000 0.000000
    44 -0.000006 2.372318 -0.000032 0.722081 0.000000 0.000000
    45 0.000004 -1.580070 -0.000001 0.034255 0.000000 0.000000
    46 -0.000002 1.580170 0.000030 0.034255 0.000000 0.000000
    47 -0.937645 -3.860697 -0.959317 3.044205 1.001841 2.581100
    48 0.937672 3.860714 0.959333 2.886273 1.001840 2.581100
    49 0.000000 -1.690632 0.000000 0.491549 0.000000 0.000000
    50 -0.000013 1.690666 0.000021 0.491549 0.000000 0.000000
    51 -0.000002 -1.423443 0.000002 0.234212 0.000000 0.000000
    52 0.000008 1.423420 0.000028 0.234212 0.000000 0.000000
    53 -1.546646 -3.404194 -1.915569 3.024293 0.944156 2.514436
    54 1.546661 3.404217 1.915585 3.024293 0.944156 2.514435
    55 0.000004 -1.437820 0.000000 0.424958 0.000000 0.000000
    56 -0.000021 1.437870 0.000031 0.424957 0.000000 0.000000
    57 -0.000002 -1.059402 0.000000 0.322075 0.000000 0.000000
    58 0.000006 1.059372 0.000008 0.322075 0.000000 0.000000
    59 -0.000004 -13.013485 -0.000004 0.000000 0.000000 0.000000
    60 0.000000 -10.813480 -0.000004 0.000000 0.000000 0.000000
  time 18
    0 3.025641 5.523606 -14.847152 -1.559952 0.000000 -0.000070
    1 -21.391670 -4.994087 -8.974786 -1.045279 -0.053825 0.231309
    2 0.000000 14.313023 0.000003 -0.982578 0.000000 0.000000
    3 -0.000011 13.013483 -0.000005 -0.516730 -0.519923 0.770106
    4 2.309052 -0.294709 -7.318483 1.524349 0.143814 -0.654876
    5 0.000000 -14.313034 0.000000 -0.486908 0.000496 -0.000241
    6 -0.000004 -13.013485 -0.000004 0.458771 0.161830 0.500283
    7 -1.330879 -2.698427 0.462449 -0.194886 -0.547260 3.056712
    8 1.330910 2.698444 -0.462436 0.194890 0.547268 -0.084879
    9 8.431712 4.554650 -4.223134 -0.711851 0.510336 1.094465
    10 3.556210 4.238403 0.987502 -1.090396 0.577049 -0.321829
    11 4.139183 5.092691 1.421975 -1.090396 0.577049 -0.321829
    12 4.777527 6.028128 1.897721 -1.090396 0.577049 -0.321829
    13 5.490345 7.072691 2.428969 -1.090396 0.577049 -0.321829
    14 6.558594 8.632813 3.232422 -1.090396 0.577049 -0.321829
    15 7.558525 6.997282 -2.354134 -1.937336 -0.275393 3.010581
    16 7.558525 6.997282 -2.354134 1.937336 0.275393 -0.131011
    17 -2.867767 -2.740969 0.531125 2.051196 0.577049 -0.321829
    18 4.324081 2.744001 -0.524877 -1.090396 0.577049 -0.321829
    19 5.012512 3.752832 -0.011802 -1.090396 0.577049 -0.321829
    20 5.595486 4.607124 0.422674 -1.090396 0.577049 -0.321829
    21 6.233833 5.542564 0.898426 -1.090396 0.577049 -0.321829
    22 6.946648 6.587124 1.429667 -1.090396 0.577049 -0.321829
    23 7.537933 7.453606 1.870349 -1.090396 0.577049 -0.321829
    24 8.154472 8.357077 2.329839 -1.090396 0.577049 -0.321829
    25 8.874294 9.411907 2.866308 -1.090396 0.577049 -0.321829
    26 -4.125858 -2.321501 1.394414 2.051196 0.577049 -0.321829
    27 -4.826813 -3.348669 0.872014 2.051196 0.577049 -0.321829
    28 -5.441669 -4.249685 0.413772 2.051196 0.577049 -0.321829
    29 -0.552532 -1.343527 1.604446 -1.131237 0.062049 -0.739325
    30 0.552589 1.343534 -1.604463 -1.089380 0.172110 -0.494218
    31 0.000000 -2.021618 -0.000004 0.186809 0.000000 0.000000
    32 -0.000021 2.021633 0.000027 0.182679 0.000000 0.000000
    33 -0.000004 -1.136217 -0.000004 0.006888 0.000000 0.000000
    34 -0.000011 1.136200 -0.000019 0.220615 0.000000 0.000000
    35 -0.032677 -4.587727 1.352317 2.844703 1.216154 2.484990
    36 0.032719 4.587772 -1.352291 4.643130 1.283441 4.144278
    37 0.000000 -1.754536 -0.000002 0.662896 0.000000 0.000000
    38 -0.000006 1.754520 -0.000034 0.202256 0.000000 0.000000
    39 0.000000 -1.227020 -0.000002 0.092660 0.000000 0.000000
    40 0.000002 1.227070 0.000032 0.130336 0.000000 0.000000
    41 -0.367996 -4.208406 0.173244 2.943027 1.091688 2.536231
    42 0.368011 4.208412 -0.173239 3.085113 1.100750 2.833678
    43 0.000000 -2.372318 -0.000004 0.722081 0.000000 0.000000
    44 -0.000006 2.372318 -0.000032 0.722081 0.000000 0.000000
    45 0.000004 -1.580070 -0.000001 0.034255 0.000000 0.000000
    46 -0.000002 1.580170 0.000030 0.034255 0.000000 0.000000
    47 -0.937645 -3.860697 -0.959317 3.044205 1.001841 2.581100
    48 0.937672 3.860714 0.959333 2.886273 1.001840 2.581100
    49 0.000000 -1.690632 0.000000 0.491549 0.000000 0.000000
    50 -0.000013 1.690666 0.000021 0.491549 0.000000 0.000000
    51 -0.000002 -1.423443 0.000002 0.234212 0.000000 0.000000
    52 0.000008 1.423420 0.000028 0.234212 0.000000 0.000000
    53 -1.546646 -3.404194 -1.915569 3.024293 0.944156 2.514436
    54 1.546661 3.404217 1.915585 3.024293 0.944156 2.514435
    55 0.000004 -1.437820 0.000000 0.424958 0.000000 0.000000
    56 -0.000021 1.437870 0.000031 0.424957 0.000000 0.000000
    57 -0.000002 -1.059402 0.000000 0.322075 0.000000 0.000000
    58 0.000006 1.059372 0.000008 0.322075 0.000000 0.000000
    59 -0.000004 -13.013485 -0.000004 0.000000 0.000000 0.000000
    60 0.000000 -10.813480 -0.000004 0.000000 0.000000 0.000000
  time 19
    0 3.193615 5.129063 -15.194819 -1.559952 0.000000 -0.000070
    1 -21.391670 -4.994087 -8.974786 -1.058640 -0.066701 0.183800
    2 0.000000 14.313023 0.000003 -0.982578 0.000000 0.000000
    3 -0.000011 13.013483 -0.000005 -0.516730 -0.519923 0.770106
    4 2.484839 -1.427556 -7.002067 1.525881 0.125244 -0.702953
    5 0.000000 -14.313034 0.000000 -0.486848 0.000529 -0.000289
    6 -0.000004 -13.013485 -0.000004 0.458681 0.161830 0.500283
    7 -1.330879 -2.698427 0.462449 -0.194886 -0.547260 3.056712
    8 1.330910 2.698444 -0.462436 0.194890 0.547268 -0.084879
    9 8.431712 4.554650 -4.273646 -0.711851 0.510336 1.094465
    10 3.556210 4.238403 0.987502 -1.090396 0.577049 -0.321829
    11 4.139183 5.092691 1.421975 -1.090396 0.577049 -0.321829
    12 4.777527 6.028128 1.897721 -1.090396 0.577049 -0.321829
    13 5.490345 7.072691 2.428969 -1.090396 0.577049 -0.321829
    14 6.558594 8.632813 3.232422 -1.090396 0.577049 -0.321829
    15 7.558525 6.997282 -2.354134 -1.937336 -0.275393 3.010581
    16 7.558525 6.997282 -2.354134 1.937336 0.275393 -0.131011
    17 -2.867767 -2.740969 0.531125 2.051196 0.577049 -0.321829
    18 4.324081 2.744001 -0.524877 -1.090396 0.577049 -0.321829
    19 5.012512 3.752832 -0.011802 -1.090396 0.577049 -0.321829
    20 5.595486 4.607124 0.422674 -1.090396 0.577049 -0.321829
    21 6.233833 5.542564 0.898426 -1.090396 0.577049 -0.321829
    22 6.946648 6.587124 1.429667 -1.090396 0.577049 -0.321829
    23 7.537933 7.453606 1.870349 -1.090396 0.577049 -0.321829
    24 8.154472 8.357077 2.329839 -1.090396 0.577049 -0.321829
    25 8.874294 9.411907 2.866308 -1.090396 0.577049 -0.321829
    26 -4.125858 -2.321501 1.394414 2.051196 0.577049 -0.321829
    27 -4.826813 -3.348669 0.872014 2.051196 0.577049 -0.321829
    28 -5.441669 -4.249685 0.413772 2.051196 0.577049 -0.321829
    29 -0.552532 -1.343527 1.604446 -1.131237 0.062049 -0.739325
    30 0.552589 1.343534 -1.604463 -1.108142 0.164061 -0.498348
    31 0.000000 -2.021618 -0.000004 0.186809 0.000000 0.000000
    32 -0.000021 2.021633 0.000027 0.182462 0.000000 0.000000
    33 -0.000004 -1.136217 -0.000004 0.006888 0.000000 0.000000
    34 -0.000011 1.136200 -0.000019 0.220615 0.000000 0.000000
    35 -0.032677 -4.587727 1.352317 2.844703 1.216154 2.484990
    36 0.032719 4.587772 -1.352291 4.642957 1.283256 4.144278
    37 0.000000 -1.754536 -0.000002 0.662896 0.000000 0.000000
    38 -0.000006 1.754520 -0.000034 0.202256 0.000000 0.000000
    39 0.000000 -1.227020 -0.000002 0.092660 0.000000 0.000000
    40 0.000002 1.227070 0.000032 0.130336 0.000000 0.000000
    41 -0.367996 -4.208406 0.173244 2.943027 1.091688 2.536231
    42 0.368011 4.208412 -0.173239 3.085113 1.100750 2.833678
    43 0.000000 -2.372318 -0.000004 0.722081 0.000000 0.000000
    44 -0.000006 2.372318 -0.000032 0.722081 0.000000 0.000000
    45 0.000004 -1.580070 -0.000001 0.034255 0.000000 0.000000
    46 -0.000002 1.580170 0.000030 0.034255 0.000000 0.000000
    47 -0.937645 -3.860697 -0.959317 3.044205 1.001841 2.581100
    48 0.937672 3.860714 0.959333 2.886273 1.001840 2.581100
    49 0.000000 -1.690632 0.000000 0.491549 0.000000 0.000000
    50 -0.000013 1.690666 0.000021 0.491549 0.000000 0.000000
    51 -0.000002 -1.423443 0.000002 0.234212 0.000000 0.000000
    52 0.000008 1.423420 0.000028 0.234212 0.000000 0.000000
    53 -1.546646 -3.404194 -1.915569 3.024293 0.944156 2.514436
    54 1.546661 3.404217 1.915585 3.024293 0.944156 2.514435
    55 0.000004 -1.437820 0.000000 0.424958 0.000000 0.000000
    56 -0.000021 1.437870 0.000031 0.424957 0.000000 0.000000
    57 -0.000002 -1.059402 0.000000 0.322075 0.000000 0.000000
    58 0.000006 1.059372 0.000008 0.322075 0.000000 0.000000
    59 -0.000004 -13.013485 -0.000004 0.000000 0.000000 0.000000
    60 0.000000 -10.813480 -0.000004 0.000000 0.000000 0.000000
  time 20
    0 3.361589 4.730613 -15.511235 -1.559952 0.000000 -0.000070
    1 -21.391670 -4.994087 -8.974786 -1.064077 -0.072519 0.165240
    2 0.000000 14.313023 0.000003 -0.982578 0.000000 0.000000
    3 -0.000011 13.013483 -0.000005 -0.516730 -0.519923 0.770106
    4 2.535622 -1.868976 -6.857531 1.527030 0.117475 -0.721916
    5 0.000000 -14.313034 0.000000 -0.486788 0.000562 -0.000289
    6 -0.000004 -13.013485 -0.000004 0.458771 0.161830 0.500283
    7 -1.330879 -2.698427 0.462449 -0.194886 -0.547260 3.056712
    8 1.330910 2.698444 -0.462436 0.194890 0.547268 -0.084879
    9 8.431712 4.554650 -4.223134 -0.711851 0.510336 1.094465
    10 3.556210 4.238403 0.987502 -1.090396 0.577049 -0.321829
    11 4.139183 5.092691 1.421975 -1.090396 0.577049 -0.321829
    12 4.777527 6.028128 1.897721 -1.090396 0.577049 -0.321829
    13 5.490345 7.072691 2.428969 -1.090396 0.577049 -0.321829
    14 6.558594 8.632813 3.232422 -1.090396 0.577049 -0.321829
    15 7.558525 6.997282 -2.354134 -1.937336 -0.275393 3.010581
    16 7.558525 6.997282 -2.354134 1.937336 0.275393 -0.131011
    17 -2.867767 -2.740969 0.531125 2.051196 0.577049 -0.321829
    18 4.324081 2.744001 -0.524877 -1.090396 0.577049 -0.321829
    19 5.012512 3.752832 -0.011802 -1.090396 0.577049 -0.321829
    20 5.595486 4.607124 0.422674 -1.090396 0.577049 -0.321829
    21 6.233833 5.542564 0.898426 -1.090396 0.577049 -0.321829
    22 6.946648 6.587124 1.429667 -1.090396 0.577049 -0.321829
    23 7.537933 7.453606 1.870349 -1.090396 0.577049 -0.321829
    24 8.154472 8.357077 2.329839 -1.090396 0.577049 -0.321829
    25 8.874294 9.411907 2.866308 -1.090396 0.577049 -0.321829
    26 -4.125858 -2.321501 1.394414 2.051196 0.577049 -0.321829
    27 -4.826813 -3.348669 0.872014 2.051196 0.577049 -0.321829
    28 -5.441669 -4.249685 0.413772 2.051196 0.577049 -0.321829
    29 -0.552532 -1.343527 1.604446 -1.131237 0.062049 -0.739325
    30 0.552589 1.343534 -1.604463 -1.114989 0.161127 -0.499847
    31 0.000000 -2.021618 -0.000004 0.186809 0.000000 0.000000
    32 -0.000021 2.021633 0.000027 0.182244 0.000000 0.000000
    33 -0.000004 -1.136217 -0.000004 0.006888 0.000000 0.000000
    34 -0.000011 1.136200 -0.000019 0.220615 0.000000 0.000000
    35 -0.032677 -4.587727 1.352317 2.844703 1.216154 2.484990
    36 0.032719 4.587772 -1.352291 4.642870 1.283107 4.144354
    37 0.000000 -1.754536 -0.000002 0.662896 0.000000 0.000000
    38 -0.000006 1.754520 -0.000034 0.202256 0.000000 0.000000
    39 0.000000 -1.227020 -0.000002 0.092660 0.000000 0.000000
    40 0.000002 1.227070 0.000032 0.130336 0.000000 0.000000
    41 -0.367996 -4.208406 0.173244 2.943027 1.091688 2.536231
    42 0.368011 4.208412 -0.173239 3.085113 1.100750 2.833678
    43 0.000000 -2.372318 -0.000004 0.722081 0.000000 0.000000
    44 -0.000006 2.372318 -0.000032 0.722081 0.000000 0.000000
    45 0.000004 -1.580070 -0.000001 0.034255 0.000000 0.000000
    46 -0.000002 1.580170 0.000030 0.034255 0.000000 0.000000
    47 -0.937645 -3.860697 -0.959317 3.044205 1.001841 2.581100
    48 0.937672 3.860714 0.959333 2.886273 1.001840 2.581100
    49 0.000000 -1.690632 0.000000 0.491549 0.000000 0.000000
    50 -0.000013 1.690666 0.000021 0.491549 0.000000 0.000000
    51 -0.000002 -1.423443 0.000002 0.234212 0.000000 0.000000
    52 0.000008 1.423420 0.000028 0.234212 0.000000 0.000000
    53 -1.546646 -3.404194 -1.915569 3.024293 0.944156 2.514436
    54 1.546661 3.404217 1.915585 3.024293 0.944156 2.514435
    55 0.000004 -1.437820 0.000000 0.424958 0.000000 0.000000
    56 -0.000021 1.437870 0.000031 0.424957 0.000000 0.000000
    57 -0.000002 -1.059402 0.000000 0.322075 0.000000 0.000000
    58 0.000006 1.059372 0.000008 0.322075 0.000000 0.000000
    59 -0.000004 -13.013485 -0.000004 0.000000 0.000000 0.000000
    60 0.000000 -10.813480 -0.000004 0.000000 0.000000 0.000000
end
