// Created by Crowbar 0.74
version 1
nodes
  0 "root" -1
  1 "bip_upperArm_R" 0
  2 "bip_lowerArm_R" 1
  3 "bip_hand_R" 2
  4 "bip_upperArm_L" 0
  5 "bip_lowerArm_L" 4
  6 "bip_hand_L" 5
  7 "effect_hand_L" 6
  8 "effect_hand_R" 3
  9 "weapon_bone" 3
  10 "weapon_bone_1" 3
  11 "weapon_bone_2" 3
  12 "weapon_bone_3" 3
  13 "weapon_bone_4" 3
  14 "weapon_bone_5" 3
  15 "weapon_bone_6" 3
  16 "weapon_bone_7" 3
  17 "weapon_bone_L" 6
  18 "vm_weapon_bone" 3
  19 "vm_weapon_bone_1" 3
  20 "vm_weapon_bone_2" 3
  21 "vm_weapon_bone_3" 3
  22 "vm_weapon_bone_4" 3
  23 "vm_weapon_bone_5" 3
  24 "vm_weapon_bone_6" 3
  25 "vm_weapon_bone_7" 3
  26 "vm_weapon_bone_L" 6
  27 "vm_weapon_bone_L_1" 6
  28 "vm_weapon_bone_L_2" 6
  29 "bip_thumb_0_L" 6
  30 "bip_thumb_0_R" 3
  31 "bip_thumb_1_L" 29
  32 "bip_thumb_1_R" 30
  33 "bip_thumb_2_L" 31
  34 "bip_thumb_2_R" 32
  35 "bip_index_0_L" 6
  36 "bip_index_0_R" 3
  37 "bip_index_1_L" 35
  38 "bip_index_1_R" 36
  39 "bip_index_2_L" 37
  40 "bip_index_2_R" 38
  41 "bip_middle_0_L" 6
  42 "bip_middle_0_R" 3
  43 "bip_middle_1_L" 41
  44 "bip_middle_1_R" 42
  45 "bip_middle_2_L" 43
  46 "bip_middle_2_R" 44
  47 "bip_ring_0_L" 6
  48 "bip_ring_0_R" 3
  49 "bip_ring_1_L" 47
  50 "bip_ring_1_R" 48
  51 "bip_ring_2_L" 49
  52 "bip_ring_2_R" 50
  53 "bip_pinky_0_L" 6
  54 "bip_pinky_0_R" 3
  55 "bip_pinky_1_L" 53
  56 "bip_pinky_1_R" 54
  57 "bip_pinky_2_L" 55
  58 "bip_pinky_2_R" 56
  59 "Sleeve_Control" 5
  60 "Wrist_Control" 5
end
skeleton
  time 0
    0 -3.259707 -4.336070 -13.034597 -4.712343 0.000000 -0.000070
    1 -10.090544 -0.001747 0.002050 1.585600 -0.447592 0.073124
    2 0.000000 14.313023 0.000003 -2.345860 0.000000 0.000000
    3 -0.000011 13.013483 -0.000005 -0.978328 -0.673923 1.641723
    4 10.090540 -0.001732 0.002053 0.082081 -0.305842 0.842214
    5 0.000000 -14.313034 0.000000 -1.426977 0.000000 0.000000
    6 -0.000004 -13.013485 -0.000004 -0.253662 -0.422910 -0.177154
    7 -1.330879 -2.698427 0.462449 -0.194886 -0.547260 3.056712
    8 1.330910 2.698444 -0.462436 0.194890 0.547268 -0.084879
    9 3.076172 5.996094 -2.275391 -2.653126 -0.534464 1.546490
    10 3.079633 5.992363 -2.274316 -2.653107 -0.534426 1.546463
    11 3.076172 5.996094 -2.275391 -2.653126 -0.534464 1.546490
    12 3.076172 5.996094 -2.275391 -2.653126 -0.534464 1.546490
    13 3.076172 5.996094 -2.275391 -2.653126 -0.534464 1.546490
    14 3.076178 5.998438 -2.274298 -2.653087 -0.534426 1.546456
    15 3.076172 5.996094 -2.275391 -2.653126 -0.534464 1.546490
    16 3.076172 5.996094 -2.275391 -2.653126 -0.534464 1.546490
    17 -7.628906 -3.169922 3.216797 1.890819 -0.995516 1.408868
    18 4.324081 2.744001 -0.524877 -1.090396 0.577049 -0.321829
    19 5.012512 3.752832 -0.011802 -1.090396 0.577049 -0.321829
    20 5.595486 4.607124 0.422674 -1.090396 0.577049 -0.321829
    21 6.233833 5.542564 0.898426 -1.090396 0.577049 -0.321829
    22 6.946648 6.587124 1.429667 -1.090396 0.577049 -0.321829
    23 7.537933 7.453606 1.870349 -1.090396 0.577049 -0.321829
    24 8.154472 8.357077 2.329839 -1.090396 0.577049 -0.321829
    25 8.874294 9.411907 2.866308 -1.090396 0.577049 -0.321829
    26 -4.125858 -2.321501 1.394414 2.051196 0.577049 -0.321829
    27 -4.826813 -3.348669 0.872014 2.051196 0.577049 -0.321829
    28 -5.441669 -4.249685 0.413772 2.051196 0.577049 -0.321829
    29 -0.552532 -1.343527 1.604446 -0.415180 0.312114 -0.422073
    30 0.552589 1.343534 -1.604463 -0.926762 -0.099888 -0.561624
    31 0.000000 -2.021618 -0.000004 0.186809 0.000000 0.000000
    32 -0.000021 2.021633 0.000027 0.342354 0.000000 0.000000
    33 -0.000004 -1.136217 -0.000004 -0.210111 0.000000 0.000000
    34 -0.000011 1.136200 -0.000019 0.327507 0.000000 0.000000
    35 -0.032677 -4.587727 1.352317 2.844703 1.216154 2.484990
    36 0.032719 4.587772 -1.352291 2.807547 1.324824 2.361377
    37 0.000000 -1.754536 -0.000002 0.662896 0.000000 0.000000
    38 -0.000006 1.754520 -0.000034 0.263508 0.000000 0.000000
    39 0.000000 -1.227020 -0.000002 0.092660 0.000000 0.000000
    40 0.000002 1.227070 0.000032 0.859700 0.000000 0.000000
    41 -0.367996 -4.208406 0.173244 2.943027 1.091688 2.536231
    42 0.368011 4.208412 -0.173239 2.808036 1.268228 2.570674
    43 0.000000 -2.372318 -0.000004 0.722081 0.000000 0.000000
    44 -0.000006 2.372318 -0.000032 0.722081 0.000000 0.000000
    45 0.000004 -1.580070 -0.000001 0.034255 0.000000 0.000000
    46 -0.000002 1.580170 0.000030 0.713159 0.000000 0.000000
    47 -0.937645 -3.860697 -0.959317 3.044205 1.001841 2.581100
    48 0.937672 3.860714 0.959333 2.466449 1.001840 2.581100
    49 0.000000 -1.690632 0.000000 0.491549 0.000000 0.000000
    50 -0.000013 1.690666 0.000021 0.699559 0.000000 0.000000
    51 -0.000002 -1.423443 0.000002 0.234212 0.000000 0.000000
    52 0.000008 1.423420 0.000028 1.190836 0.000000 0.000000
    53 -1.546646 -3.404194 -1.915569 3.024293 0.944156 2.514436
    54 1.546661 3.404217 1.915585 2.405738 0.944156 2.514435
    55 0.000004 -1.437820 0.000000 0.424958 0.000000 0.000000
    56 -0.000021 1.437870 0.000031 0.849429 0.000000 0.000000
    57 -0.000002 -1.059402 0.000000 0.322075 0.000000 0.000000
    58 0.000006 1.059372 0.000008 0.805179 0.000000 0.000000
    59 -0.000004 -13.013485 -0.000004 0.010936 -0.284121 -0.076426
    60 0.161133 -10.804688 0.023087 -0.048288 -0.303483 0.015947
  time 1
    0 -3.259707 -4.336070 -13.093192 -4.712343 0.000000 -0.000070
    1 -10.090544 -0.001747 0.002050 1.556021 -0.072614 -0.449476
    2 0.000000 14.313023 0.000003 -2.212971 0.000000 0.000000
    3 -0.000011 13.013483 -0.000005 -2.063290 -0.969142 2.143145
    4 10.090540 -0.001732 0.002053 0.082655 -0.307017 0.845566
    5 0.000000 -14.313034 0.000000 -1.431406 0.000000 0.000000
    6 -0.000004 -13.013485 -0.000004 -0.252491 -0.421040 -0.176677
    7 -1.330879 -2.698427 0.462449 -0.194886 -0.547260 3.056712
    8 1.330910 2.698444 -0.462436 0.194890 0.547268 -0.084879
    9 3.076172 5.996094 -2.275391 -2.653126 -0.534464 1.546490
    10 3.079633 5.992363 -2.274316 -2.653107 -0.534426 1.546463
    11 3.076172 5.996094 -2.275391 -2.653126 -0.534464 1.546490
    12 3.076172 5.996094 -2.275391 -2.653126 -0.534464 1.546490
    13 3.076172 5.996094 -2.275391 -2.653126 -0.534464 1.546490
    14 3.076178 5.998438 -2.274298 -2.653087 -0.534426 1.546456
    15 3.076172 5.996094 -2.275391 -2.653126 -0.534464 1.546490
    16 3.076172 5.996094 -2.275391 -2.653126 -0.534464 1.546490
    17 -7.628906 -3.169922 3.216797 1.890819 -0.995516 1.408868
    18 4.324081 2.744001 -0.524877 -1.090396 0.577049 -0.321829
    19 5.012512 3.752832 -0.011802 -1.090396 0.577049 -0.321829
    20 5.595486 4.607124 0.422674 -1.090396 0.577049 -0.321829
    21 6.233833 5.542564 0.898426 -1.090396 0.577049 -0.321829
    22 6.946648 6.587124 1.429667 -1.090396 0.577049 -0.321829
    23 7.537933 7.453606 1.870349 -1.090396 0.577049 -0.321829
    24 8.154472 8.357077 2.329839 -1.090396 0.577049 -0.321829
    25 8.874294 9.411907 2.866308 -1.090396 0.577049 -0.321829
    26 -4.125858 -2.321501 1.394414 2.051196 0.577049 -0.321829
    27 -4.826813 -3.348669 0.872014 2.051196 0.577049 -0.321829
    28 -5.441669 -4.249685 0.413772 2.051196 0.577049 -0.321829
    29 -0.552532 -1.343527 1.604446 -0.415180 0.312114 -0.422073
    30 0.552589 1.343534 -1.604463 -0.926762 -0.099888 -0.561624
    31 0.000000 -2.021618 -0.000004 0.186809 0.000000 0.000000
    32 -0.000021 2.021633 0.000027 0.342354 0.000000 0.000000
    33 -0.000004 -1.136217 -0.000004 -0.210111 0.000000 0.000000
    34 -0.000011 1.136200 -0.000019 0.327507 0.000000 0.000000
    35 -0.032677 -4.587727 1.352317 2.844703 1.216154 2.484990
    36 0.032719 4.587772 -1.352291 2.807547 1.324824 2.361377
    37 0.000000 -1.754536 -0.000002 0.662896 0.000000 0.000000
    38 -0.000006 1.754520 -0.000034 0.263508 0.000000 0.000000
    39 0.000000 -1.227020 -0.000002 0.092660 0.000000 0.000000
    40 0.000002 1.227070 0.000032 0.859700 0.000000 0.000000
    41 -0.367996 -4.208406 0.173244 2.943027 1.091688 2.536231
    42 0.368011 4.208412 -0.173239 2.808036 1.268228 2.570674
    43 0.000000 -2.372318 -0.000004 0.722081 0.000000 0.000000
    44 -0.000006 2.372318 -0.000032 0.722081 0.000000 0.000000
    45 0.000004 -1.580070 -0.000001 0.034255 0.000000 0.000000
    46 -0.000002 1.580170 0.000030 0.713159 0.000000 0.000000
    47 -0.937645 -3.860697 -0.959317 3.044205 1.001841 2.581100
    48 0.937672 3.860714 0.959333 2.466449 1.001840 2.581100
    49 0.000000 -1.690632 0.000000 0.491549 0.000000 0.000000
    50 -0.000013 1.690666 0.000021 0.699559 0.000000 0.000000
    51 -0.000002 -1.423443 0.000002 0.234212 0.000000 0.000000
    52 0.000008 1.423420 0.000028 1.190836 0.000000 0.000000
    53 -1.546646 -3.404194 -1.915569 3.024293 0.944156 2.514436
    54 1.546661 3.404217 1.915585 2.405738 0.944156 2.514435
    55 0.000004 -1.437820 0.000000 0.424958 0.000000 0.000000
    56 -0.000021 1.437870 0.000031 0.849429 0.000000 0.000000
    57 -0.000002 -1.059402 0.000000 0.322075 0.000000 0.000000
    58 0.000006 1.059372 0.000008 0.805179 0.000000 0.000000
    59 -0.000004 -13.013485 -0.000004 0.010936 -0.284121 -0.076426
    60 0.161133 -10.804688 0.023087 -0.048288 -0.303483 0.015947
  time 2
    0 -3.259707 -4.855617 -13.640084 -4.712343 0.000000 -0.000070
    1 -10.090544 -0.001747 0.002050 1.768787 -0.165798 -0.448559
    2 0.000000 14.313023 0.000003 -1.580789 0.000000 0.000000
    3 -0.000011 13.013483 -0.000005 -0.704771 -0.763305 1.150078
    4 10.090540 -0.001732 0.002053 0.124503 -0.313725 0.864721
    5 0.000000 -14.313034 0.000000 -1.501781 0.000000 0.000000
    6 -0.000004 -13.013485 -0.000004 -0.242942 -0.409546 -0.174484
    7 -1.330879 -2.698427 0.462449 -0.194886 -0.547260 3.056712
    8 1.330910 2.698444 -0.462436 0.194890 0.547268 -0.084879
    9 3.076172 5.996094 -2.275391 -2.653126 -0.534464 1.546490
    10 3.079633 5.992363 -2.274316 -2.653107 -0.534426 1.546463
    11 3.076172 5.996094 -2.275391 -2.653126 -0.534464 1.546490
    12 3.076172 5.996094 -2.275391 -2.653126 -0.534464 1.546490
    13 3.076172 5.996094 -2.275391 -2.653126 -0.534464 1.546490
    14 3.076178 5.998438 -2.274298 -2.653087 -0.534426 1.546456
    15 3.076172 5.996094 -2.275391 -2.653126 -0.534464 1.546490
    16 3.076172 5.996094 -2.275391 -2.653126 -0.534464 1.546490
    17 -7.628906 -3.169922 3.216797 1.890819 -0.995516 1.408868
    18 4.324081 2.744001 -0.524877 -1.090396 0.577049 -0.321829
    19 5.012512 3.752832 -0.011802 -1.090396 0.577049 -0.321829
    20 5.595486 4.607124 0.422674 -1.090396 0.577049 -0.321829
    21 6.233833 5.542564 0.898426 -1.090396 0.577049 -0.321829
    22 6.946648 6.587124 1.429667 -1.090396 0.577049 -0.321829
    23 7.537933 7.453606 1.870349 -1.090396 0.577049 -0.321829
    24 8.154472 8.357077 2.329839 -1.090396 0.577049 -0.321829
    25 8.874294 9.411907 2.866308 -1.090396 0.577049 -0.321829
    26 -4.125858 -2.321501 1.394414 2.051196 0.577049 -0.321829
    27 -4.826813 -3.348669 0.872014 2.051196 0.577049 -0.321829
    28 -5.441669 -4.249685 0.413772 2.051196 0.577049 -0.321829
    29 -0.552532 -1.343527 1.604446 -0.415180 0.312114 -0.422073
    30 0.552589 1.343534 -1.604463 -0.927075 -0.099531 -0.561558
    31 0.000000 -2.021618 -0.000004 0.186809 0.000000 0.000000
    32 -0.000021 2.021633 0.000027 0.341376 0.000000 0.000000
    33 -0.000004 -1.136217 -0.000004 -0.210111 0.000000 0.000000
    34 -0.000011 1.136200 -0.000019 0.324951 0.000000 0.000000
    35 -0.032677 -4.587727 1.352317 2.844703 1.216154 2.484990
    36 0.032719 4.587772 -1.352291 2.808502 1.325083 2.363273
    37 0.000000 -1.754536 -0.000002 0.662896 0.000000 0.000000
    38 -0.000006 1.754520 -0.000034 0.261966 0.000000 0.000000
    39 0.000000 -1.227020 -0.000002 0.092660 0.000000 0.000000
    40 0.000002 1.227070 0.000032 0.857038 0.000000 0.000000
    41 -0.367996 -4.208406 0.173244 2.943027 1.091688 2.536231
    42 0.368011 4.208412 -0.173239 2.807408 1.268228 2.570674
    43 0.000000 -2.372318 -0.000004 0.722081 0.000000 0.000000
    44 -0.000006 2.372318 -0.000032 0.720458 0.000000 0.000000
    45 0.000004 -1.580070 -0.000001 0.034255 0.000000 0.000000
    46 -0.000002 1.580170 0.000030 0.709860 0.000000 0.000000
    47 -0.937645 -3.860697 -0.959317 3.044205 1.001841 2.581100
    48 0.937672 3.860714 0.959333 2.466635 1.001964 2.580942
    49 0.000000 -1.690632 0.000000 0.491549 0.000000 0.000000
    50 -0.000013 1.690666 0.000021 0.697656 0.000000 0.000000
    51 -0.000002 -1.423443 0.000002 0.234212 0.000000 0.000000
    52 0.000008 1.423420 0.000028 1.186579 0.000000 0.000000
    53 -1.546646 -3.404194 -1.915569 3.024293 0.944156 2.514436
    54 1.546661 3.404217 1.915585 2.405277 0.944012 2.514128
    55 0.000004 -1.437820 0.000000 0.424958 0.000000 0.000000
    56 -0.000021 1.437870 0.000031 0.846436 0.000000 0.000000
    57 -0.000002 -1.059402 0.000000 0.322075 0.000000 0.000000
    58 0.000006 1.059372 0.000008 0.802572 0.000000 0.000000
    59 -0.000004 -13.013485 -0.000004 0.010936 -0.284121 -0.076426
    60 0.161133 -10.804688 0.023087 -0.048288 -0.303483 0.015947
  time 3
    0 -3.259707 -5.375164 -14.487766 -4.712343 0.000000 -0.000070
    1 -10.090544 -0.001747 0.002050 1.591866 -0.152445 -0.463377
    2 0.000000 14.313023 0.000003 -0.562468 0.000000 0.000000
    3 -0.000011 13.013483 -0.000005 -1.667238 -0.925889 1.699620
    4 10.090540 -0.001732 0.002053 0.166926 -0.326799 0.903316
    5 0.000000 -14.313034 0.000000 -1.589271 0.000000 0.000000
    6 -0.000004 -13.013485 -0.000004 -0.230692 -0.388017 -0.168954
    7 -1.330879 -2.698427 0.462449 -0.194886 -0.547260 3.056712
    8 1.330910 2.698444 -0.462436 0.194890 0.547268 -0.084879
    9 3.076172 5.996094 -2.275391 -2.653126 -0.534464 1.546490
    10 3.079633 5.992363 -2.274316 -2.653107 -0.534460 1.546463
    11 3.076172 5.996094 -2.275391 -2.653126 -0.534464 1.546490
    12 3.076172 5.996094 -2.275391 -2.653126 -0.534464 1.546490
    13 3.076172 5.996094 -2.275391 -2.653126 -0.534464 1.546490
    14 3.076178 5.998438 -2.274298 -2.653087 -0.534460 1.546456
    15 3.076172 5.996094 -2.275391 -2.653126 -0.534464 1.546490
    16 3.076172 5.996094 -2.275391 -2.653126 -0.534464 1.546490
    17 -7.628906 -3.169922 3.216797 1.890819 -0.995516 1.408868
    18 4.324081 2.744001 -0.524877 -1.090396 0.577049 -0.321829
    19 5.012512 3.752832 -0.011802 -1.090396 0.577049 -0.321829
    20 5.595486 4.607124 0.422674 -1.090396 0.577049 -0.321829
    21 6.233833 5.542564 0.898426 -1.090396 0.577049 -0.321829
    22 6.946648 6.587124 1.429667 -1.090396 0.577049 -0.321829
    23 7.537933 7.453606 1.870349 -1.090396 0.577049 -0.321829
    24 8.154472 8.357077 2.329839 -1.090396 0.577049 -0.321829
    25 8.874294 9.411907 2.866308 -1.090396 0.577049 -0.321829
    26 -4.125858 -2.321501 1.394414 2.051196 0.577049 -0.321829
    27 -4.826813 -3.348669 0.872014 2.051196 0.577049 -0.321829
    28 -5.441669 -4.249685 0.413772 2.051196 0.577049 -0.321829
    29 -0.552532 -1.343527 1.604446 -0.415180 0.312114 -0.422073
    30 0.552589 1.343534 -1.604463 -1.034712 0.013907 -0.555928
    31 0.000000 -2.021618 -0.000004 0.186809 0.000000 0.000000
    32 -0.000021 2.021633 0.000027 0.012164 0.000000 0.000000
    33 -0.000004 -1.136217 -0.000004 -0.210111 0.000000 0.000000
    34 -0.000011 1.136200 -0.000019 -0.524466 0.000000 0.000000
    35 -0.032677 -4.587727 1.352317 2.844703 1.216154 2.484990
    36 0.032719 4.587772 -1.352291 3.273388 1.372998 3.153938
    37 0.000000 -1.754536 -0.000002 0.662896 0.000000 0.000000
    38 -0.000006 1.754520 -0.000034 -0.256658 0.000000 0.000000
    39 0.000000 -1.227020 -0.000002 0.092660 0.000000 0.000000
    40 0.000002 1.227070 0.000032 -0.052721 0.000000 0.000000
    41 -0.367996 -4.208406 0.173244 2.943027 1.091688 2.536231
    42 0.368011 4.208412 -0.173239 2.569041 1.268228 2.570674
    43 0.000000 -2.372318 -0.000004 0.722081 0.000000 0.000000
    44 -0.000006 2.372318 -0.000032 0.158508 0.000000 0.000000
    45 0.000004 -1.580070 -0.000001 0.034255 0.000000 0.000000
    46 -0.000002 1.580170 0.000030 -0.382622 0.000000 0.000000
    47 -0.937645 -3.860697 -0.959317 3.044205 1.001841 2.581100
    48 0.937672 3.860714 0.959333 2.511321 1.045454 2.512807
    49 0.000000 -1.690632 0.000000 0.491549 0.000000 0.000000
    50 -0.000013 1.690666 0.000021 0.067267 0.000000 0.000000
    51 -0.000002 -1.423443 0.000002 0.234212 0.000000 0.000000
    52 0.000008 1.423420 0.000028 -0.232464 0.000000 0.000000
    53 -1.546646 -3.404194 -1.915569 3.024293 0.944156 2.514436
    54 1.546661 3.404217 1.915585 2.259729 0.876445 2.399947
    55 0.000004 -1.437820 0.000000 0.424958 0.000000 0.000000
    56 -0.000021 1.437870 0.000031 -0.161543 0.000000 0.000000
    57 -0.000002 -1.059402 0.000000 0.322075 0.000000 0.000000
    58 0.000006 1.059372 0.000008 -0.067786 0.000000 0.000000
    59 -0.000004 -13.013485 -0.000004 0.010936 -0.284121 -0.076426
    60 0.161133 -10.804688 0.023087 -0.048288 -0.303483 0.015947
  time 4
    0 -3.259707 -5.375164 -14.487766 -4.712343 0.000000 -0.000070
    1 -10.090544 -0.001747 0.002050 1.600159 -0.117060 -0.446268
    2 0.000000 14.313023 0.000003 -0.545849 0.000000 0.000000
    3 -0.000011 13.013483 -0.000005 -1.835882 -0.889288 1.796434
    4 10.090540 -0.001732 0.002053 0.166926 -0.326799 0.903316
    5 0.000000 -14.313034 0.000000 -1.589271 0.000000 0.000000
    6 -0.000004 -13.013485 -0.000004 -0.230692 -0.388017 -0.168954
    7 -1.330879 -2.698427 0.462449 -0.194886 -0.547260 3.056712
    8 1.330910 2.698444 -0.462436 0.194890 0.547268 -0.084879
    9 3.076172 5.996094 -2.275391 -2.653126 -0.534464 1.546490
    10 3.079633 5.992363 -2.274316 -2.653107 -0.534426 1.546463
    11 3.076172 5.996094 -2.275391 -2.653126 -0.534464 1.546490
    12 3.076172 5.996094 -2.275391 -2.653126 -0.534464 1.546490
    13 3.076172 5.996094 -2.275391 -2.653126 -0.534464 1.546490
    14 3.076178 5.998438 -2.274298 -2.653087 -0.534426 1.546456
    15 3.076172 5.996094 -2.275391 -2.653126 -0.534464 1.546490
    16 3.076172 5.996094 -2.275391 -2.653126 -0.534464 1.546490
    17 -7.628906 -3.169922 3.216797 1.890819 -0.995516 1.408868
    18 4.324081 2.744001 -0.524877 -1.090396 0.577049 -0.321829
    19 5.012512 3.752832 -0.011802 -1.090396 0.577049 -0.321829
    20 5.595486 4.607124 0.422674 -1.090396 0.577049 -0.321829
    21 6.233833 5.542564 0.898426 -1.090396 0.577049 -0.321829
    22 6.946648 6.587124 1.429667 -1.090396 0.577049 -0.321829
    23 7.537933 7.453606 1.870349 -1.090396 0.577049 -0.321829
    24 8.154472 8.357077 2.329839 -1.090396 0.577049 -0.321829
    25 8.874294 9.411907 2.866308 -1.090396 0.577049 -0.321829
    26 -4.125858 -2.321501 1.394414 2.051196 0.577049 -0.321829
    27 -4.826813 -3.348669 0.872014 2.051196 0.577049 -0.321829
    28 -5.441669 -4.249685 0.413772 2.051196 0.577049 -0.321829
    29 -0.552532 -1.343527 1.604446 -0.415180 0.312114 -0.422073
    30 0.552589 1.343534 -1.604463 -1.116217 0.050940 -0.618378
    31 0.000000 -2.021618 -0.000004 0.186809 0.000000 0.000000
    32 -0.000021 2.021633 0.000027 0.140458 0.000000 0.000000
    33 -0.000004 -1.136217 -0.000004 -0.210111 0.000000 0.000000
    34 -0.000011 1.136200 -0.000019 0.078264 0.000000 0.000000
    35 -0.032677 -4.587727 1.352317 2.844703 1.216154 2.484990
    36 0.032719 4.587772 -1.352291 3.753379 1.330539 3.645051
    37 0.000000 -1.754536 -0.000002 0.662896 0.000000 0.000000
    38 -0.000006 1.754520 -0.000034 -0.380157 0.000000 0.000000
    39 0.000000 -1.227020 -0.000002 0.092660 0.000000 0.000000
    40 0.000002 1.227070 0.000032 0.477678 0.000000 0.000000
    41 -0.367996 -4.208406 0.173244 2.943027 1.091688 2.536231
    42 0.368011 4.208412 -0.173239 2.688763 1.288551 2.695752
    43 0.000000 -2.372318 -0.000004 0.722081 0.000000 0.000000
    44 -0.000006 2.372318 -0.000032 0.045671 0.000000 0.000000
    45 0.000004 -1.580070 -0.000001 0.034255 0.000000 0.000000
    46 -0.000002 1.580170 0.000030 -0.099432 0.000000 0.000000
    47 -0.937645 -3.860697 -0.959317 3.044205 1.001841 2.581100
    48 0.937672 3.860714 0.959333 2.368717 1.031389 2.476180
    49 0.000000 -1.690632 0.000000 0.491549 0.000000 0.000000
    50 -0.000013 1.690666 0.000021 -0.146802 0.000000 0.000000
    51 -0.000002 -1.423443 0.000002 0.234212 0.000000 0.000000
    52 0.000008 1.423420 0.000028 0.283618 0.000000 0.000000
    53 -1.546646 -3.404194 -1.915569 3.024293 0.944156 2.514436
    54 1.546661 3.404217 1.915585 2.312706 0.836481 2.355441
    55 0.000004 -1.437820 0.000000 0.424958 0.000000 0.000000
    56 -0.000021 1.437870 0.000031 -0.075078 0.000000 0.000000
    57 -0.000002 -1.059402 0.000000 0.322075 0.000000 0.000000
    58 0.000006 1.059372 0.000008 0.225750 0.000000 0.000000
    59 -0.000004 -13.013485 -0.000004 0.010936 -0.284121 -0.076426
    60 0.161133 -10.804688 0.023087 -0.048288 -0.303483 0.015947
  time 5
    0 -3.259707 -5.375164 -14.487766 -4.712343 0.000000 -0.000070
    1 -10.090544 -0.001747 0.002050 1.677470 -0.126980 -0.430381
    2 0.000000 14.313023 0.000003 -0.641773 0.000000 0.000000
    3 -0.000011 13.013483 -0.000005 -1.450437 -0.958388 1.574240
    4 10.090540 -0.001732 0.002053 0.166926 -0.326799 0.903316
    5 0.000000 -14.313034 0.000000 -1.589271 0.000000 0.000000
    6 -0.000004 -13.013485 -0.000004 -0.230692 -0.388017 -0.168954
    7 -1.330879 -2.698427 0.462449 -0.194886 -0.547260 3.056712
    8 1.330910 2.698444 -0.462436 0.194890 0.547268 -0.084879
    9 3.076172 5.996094 -2.275391 -2.653126 -0.534464 1.546490
    10 3.079633 5.992363 -2.274316 -2.653107 -0.534426 1.546463
    11 3.076172 5.996094 -2.275391 -2.653126 -0.534464 1.546490
    12 3.076172 5.996094 -2.275391 -2.653126 -0.534464 1.546490
    13 3.076172 5.996094 -2.275391 -2.653126 -0.534464 1.546490
    14 3.076178 5.998438 -2.274298 -2.653087 -0.534426 1.546456
    15 3.076172 5.996094 -2.275391 -2.653126 -0.534464 1.546490
    16 3.076172 5.996094 -2.275391 -2.653126 -0.534464 1.546490
    17 -7.628906 -3.169922 3.216797 1.890819 -0.995516 1.408868
    18 4.324081 2.744001 -0.524877 -1.090396 0.577049 -0.321829
    19 5.012512 3.752832 -0.011802 -1.090396 0.577049 -0.321829
    20 5.595486 4.607124 0.422674 -1.090396 0.577049 -0.321829
    21 6.233833 5.542564 0.898426 -1.090396 0.577049 -0.321829
    22 6.946648 6.587124 1.429667 -1.090396 0.577049 -0.321829
    23 7.537933 7.453606 1.870349 -1.090396 0.577049 -0.321829
    24 8.154472 8.357077 2.329839 -1.090396 0.577049 -0.321829
    25 8.874294 9.411907 2.866308 -1.090396 0.577049 -0.321829
    26 -4.125858 -2.321501 1.394414 2.051196 0.577049 -0.321829
    27 -4.826813 -3.348669 0.872014 2.051196 0.577049 -0.321829
    28 -5.441669 -4.249685 0.413772 2.051196 0.577049 -0.321829
    29 -0.552532 -1.343527 1.604446 -0.415180 0.312114 -0.422073
    30 0.552589 1.343534 -1.604463 -1.034947 0.014026 -0.556102
    31 0.000000 -2.021618 -0.000004 0.186809 0.000000 0.000000
    32 -0.000021 2.021633 0.000027 0.012544 0.000000 0.000000
    33 -0.000004 -1.136217 -0.000004 -0.210111 0.000000 0.000000
    34 -0.000011 1.136200 -0.000019 -0.522654 0.000000 0.000000
    35 -0.032677 -4.587727 1.352317 2.844703 1.216154 2.484990
    36 0.032719 4.587772 -1.352291 3.275037 1.372961 3.155606
    37 0.000000 -1.754536 -0.000002 0.662896 0.000000 0.000000
    38 -0.000006 1.754520 -0.000034 -0.257066 0.000000 0.000000
    39 0.000000 -1.227020 -0.000002 0.092660 0.000000 0.000000
    40 0.000002 1.227070 0.000032 -0.051190 0.000000 0.000000
    41 -0.367996 -4.208406 0.173244 2.943027 1.091688 2.536231
    42 0.368011 4.208412 -0.173239 2.569400 1.268295 2.571061
    43 0.000000 -2.372318 -0.000004 0.722081 0.000000 0.000000
    44 -0.000006 2.372318 -0.000032 0.158157 0.000000 0.000000
    45 0.000004 -1.580070 -0.000001 0.034255 0.000000 0.000000
    46 -0.000002 1.580170 0.000030 -0.381769 0.000000 0.000000
    47 -0.937645 -3.860697 -0.959317 3.044205 1.001841 2.581100
    48 0.937672 3.860714 0.959333 2.510857 1.045392 2.512728
    49 0.000000 -1.690632 0.000000 0.491549 0.000000 0.000000
    50 -0.000013 1.690666 0.000021 0.066616 0.000000 0.000000
    51 -0.000002 -1.423443 0.000002 0.234212 0.000000 0.000000
    52 0.000008 1.423420 0.000028 -0.230922 0.000000 0.000000
    53 -1.546646 -3.404194 -1.915569 3.024293 0.944156 2.514436
    54 1.546661 3.404217 1.915585 2.317228 0.833109 2.351988
    55 0.000004 -1.437820 0.000000 0.424958 0.000000 0.000000
    56 -0.000021 1.437870 0.000031 -0.067863 0.000000 0.000000
    57 -0.000002 -1.059402 0.000000 0.322075 0.000000 0.000000
    58 0.000006 1.059372 0.000008 0.250098 0.000000 0.000000
    59 -0.000004 -13.013485 -0.000004 0.010936 -0.284121 -0.076426
    60 0.161133 -10.804688 0.023087 -0.048288 -0.303483 0.015947
  time 6
    0 -3.259707 -5.375164 -14.487766 -4.712343 0.000000 -0.000070
    1 -10.090544 -0.001747 0.002050 1.685579 -0.092262 -0.410216
    2 0.000000 14.313023 0.000003 -0.652160 0.000000 0.000000
    3 -0.000011 13.013483 -0.000005 -1.946337 -0.868157 1.855577
    4 10.090540 -0.001732 0.002053 0.166926 -0.326799 0.903316
    5 0.000000 -14.313034 0.000000 -1.589271 0.000000 0.000000
    6 -0.000004 -13.013485 -0.000004 -0.230692 -0.388017 -0.168954
    7 -1.330879 -2.698427 0.462449 -0.194886 -0.547260 3.056712
    8 1.330910 2.698444 -0.462436 0.194890 0.547268 -0.084879
    9 3.076172 5.996094 -2.275391 -2.653126 -0.534464 1.546490
    10 3.079633 5.992363 -2.274316 -2.653107 -0.534426 1.546463
    11 3.076172 5.996094 -2.275391 -2.653126 -0.534464 1.546490
    12 3.076172 5.996094 -2.275391 -2.653126 -0.534464 1.546490
    13 3.076172 5.996094 -2.275391 -2.653126 -0.534464 1.546490
    14 3.076178 5.998438 -2.274298 -2.653087 -0.534426 1.546456
    15 3.076172 5.996094 -2.275391 -2.653126 -0.534464 1.546490
    16 3.076172 5.996094 -2.275391 -2.653126 -0.534464 1.546490
    17 -7.628906 -3.169922 3.216797 1.890819 -0.995516 1.408868
    18 4.324081 2.744001 -0.524877 -1.090396 0.577049 -0.321829
    19 5.012512 3.752832 -0.011802 -1.090396 0.577049 -0.321829
    20 5.595486 4.607124 0.422674 -1.090396 0.577049 -0.321829
    21 6.233833 5.542564 0.898426 -1.090396 0.577049 -0.321829
    22 6.946648 6.587124 1.429667 -1.090396 0.577049 -0.321829
    23 7.537933 7.453606 1.870349 -1.090396 0.577049 -0.321829
    24 8.154472 8.357077 2.329839 -1.090396 0.577049 -0.321829
    25 8.874294 9.411907 2.866308 -1.090396 0.577049 -0.321829
    26 -4.125858 -2.321501 1.394414 2.051196 0.577049 -0.321829
    27 -4.826813 -3.348669 0.872014 2.051196 0.577049 -0.321829
    28 -5.441669 -4.249685 0.413772 2.051196 0.577049 -0.321829
    29 -0.552532 -1.343527 1.604446 -0.415180 0.312114 -0.422073
    30 0.552589 1.343534 -1.604463 -1.116191 0.050940 -0.618378
    31 0.000000 -2.021618 -0.000004 0.186809 0.000000 0.000000
    32 -0.000021 2.021633 0.000027 0.140458 0.000000 0.000000
    33 -0.000004 -1.136217 -0.000004 -0.210111 0.000000 0.000000
    34 -0.000011 1.136200 -0.000019 0.078264 0.000000 0.000000
    35 -0.032677 -4.587727 1.352317 2.844703 1.216154 2.484990
    36 0.032719 4.587772 -1.352291 3.753379 1.330539 3.645051
    37 0.000000 -1.754536 -0.000002 0.662896 0.000000 0.000000
    38 -0.000006 1.754520 -0.000034 -0.380157 0.000000 0.000000
    39 0.000000 -1.227020 -0.000002 0.092660 0.000000 0.000000
    40 0.000002 1.227070 0.000032 0.477678 0.000000 0.000000
    41 -0.367996 -4.208406 0.173244 2.943027 1.091688 2.536231
    42 0.368011 4.208412 -0.173239 2.688763 1.288551 2.695752
    43 0.000000 -2.372318 -0.000004 0.722081 0.000000 0.000000
    44 -0.000006 2.372318 -0.000032 0.045671 0.000000 0.000000
    45 0.000004 -1.580070 -0.000001 0.034255 0.000000 0.000000
    46 -0.000002 1.580170 0.000030 -0.099432 0.000000 0.000000
    47 -0.937645 -3.860697 -0.959317 3.044205 1.001841 2.581100
    48 0.937672 3.860714 0.959333 2.368717 1.031389 2.476180
    49 0.000000 -1.690632 0.000000 0.491549 0.000000 0.000000
    50 -0.000013 1.690666 0.000021 -0.146802 0.000000 0.000000
    51 -0.000002 -1.423443 0.000002 0.234212 0.000000 0.000000
    52 0.000008 1.423420 0.000028 0.283618 0.000000 0.000000
    53 -1.546646 -3.404194 -1.915569 3.024293 0.944156 2.514436
    54 1.546661 3.404217 1.915585 2.312706 0.836481 2.355441
    55 0.000004 -1.437820 0.000000 0.424958 0.000000 0.000000
    56 -0.000021 1.437870 0.000031 -0.075078 0.000000 0.000000
    57 -0.000002 -1.059402 0.000000 0.322075 0.000000 0.000000
    58 0.000006 1.059372 0.000008 0.225750 0.000000 0.000000
    59 -0.000004 -13.013485 -0.000004 0.010936 -0.284121 -0.076426
    60 0.161133 -10.804688 0.023087 -0.048288 -0.303483 0.015947
  time 7
    0 -3.259707 -5.375164 -14.487766 -4.712343 0.000000 -0.000070
    1 -10.090544 -0.001747 0.002050 1.729533 -0.058737 -0.390968
    2 0.000000 14.313023 0.000003 -0.688452 0.000000 0.000000
    3 -0.000011 13.013483 -0.000005 -1.564809 -0.940558 1.641819
    4 10.090540 -0.001732 0.002053 0.166926 -0.326799 0.903316
    5 0.000000 -14.313034 0.000000 -1.589271 0.000000 0.000000
    6 -0.000004 -13.013485 -0.000004 -0.230692 -0.388017 -0.168954
    7 -1.330879 -2.698427 0.462449 -0.194886 -0.547260 3.056712
    8 1.330910 2.698444 -0.462436 0.194890 0.547268 -0.084879
    9 3.076172 5.996094 -2.275391 -2.653126 -0.534464 1.546490
    10 3.079633 5.992363 -2.274316 -2.653107 -0.534426 1.546463
    11 3.076172 5.996094 -2.275391 -2.653126 -0.534464 1.546490
    12 3.076172 5.996094 -2.275391 -2.653126 -0.534464 1.546490
    13 3.076172 5.996094 -2.275391 -2.653126 -0.534464 1.546490
    14 3.076178 5.998438 -2.274298 -2.653087 -0.534426 1.546456
    15 3.076172 5.996094 -2.275391 -2.653126 -0.534464 1.546490
    16 3.076172 5.996094 -2.275391 -2.653126 -0.534464 1.546490
    17 -7.628906 -3.169922 3.216797 1.890819 -0.995516 1.408868
    18 4.324081 2.744001 -0.524877 -1.090396 0.577049 -0.321829
    19 5.012512 3.752832 -0.011802 -1.090396 0.577049 -0.321829
    20 5.595486 4.607124 0.422674 -1.090396 0.577049 -0.321829
    21 6.233833 5.542564 0.898426 -1.090396 0.577049 -0.321829
    22 6.946648 6.587124 1.429667 -1.090396 0.577049 -0.321829
    23 7.537933 7.453606 1.870349 -1.090396 0.577049 -0.321829
    24 8.154472 8.357077 2.329839 -1.090396 0.577049 -0.321829
    25 8.874294 9.411907 2.866308 -1.090396 0.577049 -0.321829
    26 -4.125858 -2.321501 1.394414 2.051196 0.577049 -0.321829
    27 -4.826813 -3.348669 0.872014 2.051196 0.577049 -0.321829
    28 -5.441669 -4.249685 0.413772 2.051196 0.577049 -0.321829
    29 -0.552532 -1.343527 1.604446 -0.415180 0.312114 -0.422073
    30 0.552589 1.343534 -1.604463 -1.034712 0.013907 -0.555928
    31 0.000000 -2.021618 -0.000004 0.186809 0.000000 0.000000
    32 -0.000021 2.021633 0.000027 0.012164 0.000000 0.000000
    33 -0.000004 -1.136217 -0.000004 -0.210111 0.000000 0.000000
    34 -0.000011 1.136200 -0.000019 -0.524466 0.000000 0.000000
    35 -0.032677 -4.587727 1.352317 2.844703 1.216154 2.484990
    36 0.032719 4.587772 -1.352291 3.273388 1.372998 3.153938
    37 0.000000 -1.754536 -0.000002 0.662896 0.000000 0.000000
    38 -0.000006 1.754520 -0.000034 -0.256703 0.000000 0.000000
    39 0.000000 -1.227020 -0.000002 0.092660 0.000000 0.000000
    40 0.000002 1.227070 0.000032 -0.052721 0.000000 0.000000
    41 -0.367996 -4.208406 0.173244 2.943027 1.091688 2.536231
    42 0.368011 4.208412 -0.173239 2.569041 1.268228 2.570674
    43 0.000000 -2.372318 -0.000004 0.722081 0.000000 0.000000
    44 -0.000006 2.372318 -0.000032 0.158508 0.000000 0.000000
    45 0.000004 -1.580070 -0.000001 0.034255 0.000000 0.000000
    46 -0.000002 1.580170 0.000030 -0.382622 0.000000 0.000000
    47 -0.937645 -3.860697 -0.959317 3.044205 1.001841 2.581100
    48 0.937672 3.860714 0.959333 2.511321 1.045454 2.512807
    49 0.000000 -1.690632 0.000000 0.491549 0.000000 0.000000
    50 -0.000013 1.690666 0.000021 0.067267 0.000000 0.000000
    51 -0.000002 -1.423443 0.000002 0.234212 0.000000 0.000000
    52 0.000008 1.423420 0.000028 -0.232464 0.000000 0.000000
    53 -1.546646 -3.404194 -1.915569 3.024293 0.944156 2.514436
    54 1.546661 3.404217 1.915585 2.312706 0.836481 2.355441
    55 0.000004 -1.437820 0.000000 0.424958 0.000000 0.000000
    56 -0.000021 1.437870 0.000031 -0.075078 0.000000 0.000000
    57 -0.000002 -1.059402 0.000000 0.322075 0.000000 0.000000
    58 0.000006 1.059372 0.000008 0.225750 0.000000 0.000000
    59 -0.000004 -13.013485 -0.000004 0.010936 -0.284121 -0.076426
    60 0.161133 -10.804688 0.023087 -0.048288 -0.303483 0.015947
  time 8
    0 -3.259707 -5.375164 -14.487766 -4.712343 0.000000 -0.000070
    1 -10.090544 -0.001747 0.002050 1.805922 0.022048 -0.344987
    2 0.000000 14.313023 0.000003 -0.807410 0.000000 0.000000
    3 -0.000011 13.013483 -0.000005 -0.374266 -1.415342 0.217114
    4 10.090540 -0.001732 0.002053 0.166926 -0.326799 0.903316
    5 0.000000 -14.313034 0.000000 -1.589271 0.000000 0.000000
    6 -0.000004 -13.013485 -0.000004 -0.230692 -0.388017 -0.168954
    7 -1.330879 -2.698427 0.462449 -0.194886 -0.547260 3.056712
    8 1.330910 2.698444 -0.462436 0.194890 0.547268 -0.084879
    9 3.076172 5.996094 -2.275391 -2.653126 -0.534464 1.546490
    10 3.079633 5.992363 -2.274316 -2.653107 -0.534426 1.546463
    11 3.076172 5.996094 -2.275391 -2.653126 -0.534464 1.546490
    12 3.076172 5.996094 -2.275391 -2.653126 -0.534464 1.546490
    13 3.076172 5.996094 -2.275391 -2.653126 -0.534464 1.546490
    14 3.076178 5.998438 -2.274298 -2.653087 -0.534426 1.546456
    15 3.076172 5.996094 -2.275391 -2.653126 -0.534464 1.546490
    16 3.076172 5.996094 -2.275391 -2.653126 -0.534464 1.546490
    17 -7.628906 -3.169922 3.216797 1.890819 -0.995516 1.408868
    18 4.324081 2.744001 -0.524877 -1.090396 0.577049 -0.321829
    19 5.012512 3.752832 -0.011802 -1.090396 0.577049 -0.321829
    20 5.595486 4.607124 0.422674 -1.090396 0.577049 -0.321829
    21 6.233833 5.542564 0.898426 -1.090396 0.577049 -0.321829
    22 6.946648 6.587124 1.429667 -1.090396 0.577049 -0.321829
    23 7.537933 7.453606 1.870349 -1.090396 0.577049 -0.321829
    24 8.154472 8.357077 2.329839 -1.090396 0.577049 -0.321829
    25 8.874294 9.411907 2.866308 -1.090396 0.577049 -0.321829
    26 -4.125858 -2.321501 1.394414 2.051196 0.577049 -0.321829
    27 -4.826813 -3.348669 0.872014 2.051196 0.577049 -0.321829
    28 -5.441669 -4.249685 0.413772 2.051196 0.577049 -0.321829
    29 -0.552532 -1.343527 1.604446 -0.415180 0.312114 -0.422073
    30 0.552589 1.343534 -1.604463 -1.115956 0.050821 -0.618183
    31 0.000000 -2.021618 -0.000004 0.186809 0.000000 0.000000
    32 -0.000021 2.021633 0.000027 0.140078 0.000000 0.000000
    33 -0.000004 -1.136217 -0.000004 -0.210111 0.000000 0.000000
    34 -0.000011 1.136200 -0.000019 0.076405 0.000000 0.000000
    35 -0.032677 -4.587727 1.352317 2.844703 1.216154 2.484990
    36 0.032719 4.587772 -1.352291 3.752251 1.330725 3.643913
    37 0.000000 -1.754536 -0.000002 0.662896 0.000000 0.000000
    38 -0.000006 1.754520 -0.000034 -0.379794 0.000000 0.000000
    39 0.000000 -1.227020 -0.000002 0.092660 0.000000 0.000000
    40 0.000002 1.227070 0.000032 0.476147 0.000000 0.000000
    41 -0.367996 -4.208406 0.173244 2.943027 1.091688 2.536231
    42 0.368011 4.208412 -0.173239 2.688494 1.288517 2.695365
    43 0.000000 -2.372318 -0.000004 0.722081 0.000000 0.000000
    44 -0.000006 2.372318 -0.000032 0.046022 0.000000 0.000000
    45 0.000004 -1.580070 -0.000001 0.034255 0.000000 0.000000
    46 -0.000002 1.580170 0.000030 -0.100286 0.000000 0.000000
    47 -0.937645 -3.860697 -0.959317 3.044205 1.001841 2.581100
    48 0.937672 3.860714 0.959333 2.369181 1.031450 2.476258
    49 0.000000 -1.690632 0.000000 0.491549 0.000000 0.000000
    50 -0.000013 1.690666 0.000021 -0.146101 0.000000 0.000000
    51 -0.000002 -1.423443 0.000002 0.234212 0.000000 0.000000
    52 0.000008 1.423420 0.000028 0.282077 0.000000 0.000000
    53 -1.546646 -3.404194 -1.915569 3.024293 0.944156 2.514436
    54 1.546661 3.404217 1.915585 2.312706 0.836481 2.355441
    55 0.000004 -1.437820 0.000000 0.424958 0.000000 0.000000
    56 -0.000021 1.437870 0.000031 -0.075078 0.000000 0.000000
    57 -0.000002 -1.059402 0.000000 0.322075 0.000000 0.000000
    58 0.000006 1.059372 0.000008 0.225750 0.000000 0.000000
    59 -0.000004 -13.013485 -0.000004 0.010936 -0.284121 -0.076426
    60 0.161133 -10.804688 0.023087 -0.048288 -0.303483 0.015947
  time 9
    0 -3.259707 -5.375164 -14.487766 -4.712343 0.000000 -0.000070
    1 -10.090544 -0.001747 0.002050 2.013990 0.192441 -0.246302
    2 0.000000 14.313023 0.000003 -1.020520 0.000000 0.000000
    3 -0.000011 13.013483 -0.000005 1.616597 -0.909098 -1.591015
    4 10.090540 -0.001732 0.002053 0.166926 -0.326799 0.903316
    5 0.000000 -14.313034 0.000000 -1.589271 0.000000 0.000000
    6 -0.000004 -13.013485 -0.000004 -0.230692 -0.388017 -0.168954
    7 -1.330879 -2.698427 0.462449 -0.194886 -0.547260 3.056712
    8 1.330910 2.698444 -0.462436 0.194890 0.547268 -0.084879
    9 3.076172 5.996094 -2.275391 -2.653126 -0.534464 1.546490
    10 3.079633 5.992363 -2.274316 -2.653107 -0.534426 1.546463
    11 3.076172 5.996094 -2.275391 -2.653126 -0.534464 1.546490
    12 3.076172 5.996094 -2.275391 -2.653126 -0.534464 1.546490
    13 3.076172 5.996094 -2.275391 -2.653126 -0.534464 1.546490
    14 3.076178 5.998438 -2.274298 -2.653087 -0.534426 1.546456
    15 3.076172 5.996094 -2.275391 -2.653126 -0.534464 1.546490
    16 3.076172 5.996094 -2.275391 -2.653126 -0.534464 1.546490
    17 -7.628906 -3.169922 3.216797 1.890819 -0.995516 1.408868
    18 4.324081 2.744001 -0.524877 -1.090396 0.577049 -0.321829
    19 5.012512 3.752832 -0.011802 -1.090396 0.577049 -0.321829
    20 5.595486 4.607124 0.422674 -1.090396 0.577049 -0.321829
    21 6.233833 5.542564 0.898426 -1.090396 0.577049 -0.321829
    22 6.946648 6.587124 1.429667 -1.090396 0.577049 -0.321829
    23 7.537933 7.453606 1.870349 -1.090396 0.577049 -0.321829
    24 8.154472 8.357077 2.329839 -1.090396 0.577049 -0.321829
    25 8.874294 9.411907 2.866308 -1.090396 0.577049 -0.321829
    26 -4.125858 -2.321501 1.394414 2.051196 0.577049 -0.321829
    27 -4.826813 -3.348669 0.872014 2.051196 0.577049 -0.321829
    28 -5.441669 -4.249685 0.413772 2.051196 0.577049 -0.321829
    29 -0.552532 -1.343527 1.604446 -0.415180 0.312114 -0.422073
    30 0.552589 1.343534 -1.604463 -1.034712 0.013907 -0.555928
    31 0.000000 -2.021618 -0.000004 0.186809 0.000000 0.000000
    32 -0.000021 2.021633 0.000027 0.012164 0.000000 0.000000
    33 -0.000004 -1.136217 -0.000004 -0.210111 0.000000 0.000000
    34 -0.000011 1.136200 -0.000019 -0.524466 0.000000 0.000000
    35 -0.032677 -4.587727 1.352317 2.844703 1.216154 2.484990
    36 0.032719 4.587772 -1.352291 3.273388 1.372998 3.153938
    37 0.000000 -1.754536 -0.000002 0.662896 0.000000 0.000000
    38 -0.000006 1.754520 -0.000034 -0.256658 0.000000 0.000000
    39 0.000000 -1.227020 -0.000002 0.092660 0.000000 0.000000
    40 0.000002 1.227070 0.000032 -0.052721 0.000000 0.000000
    41 -0.367996 -4.208406 0.173244 2.943027 1.091688 2.536231
    42 0.368011 4.208412 -0.173239 2.569041 1.268228 2.570674
    43 0.000000 -2.372318 -0.000004 0.722081 0.000000 0.000000
    44 -0.000006 2.372318 -0.000032 0.158508 0.000000 0.000000
    45 0.000004 -1.580070 -0.000001 0.034255 0.000000 0.000000
    46 -0.000002 1.580170 0.000030 -0.382622 0.000000 0.000000
    47 -0.937645 -3.860697 -0.959317 3.044205 1.001841 2.581100
    48 0.937672 3.860714 0.959333 2.511321 1.045454 2.512807
    49 0.000000 -1.690632 0.000000 0.491549 0.000000 0.000000
    50 -0.000013 1.690666 0.000021 0.067267 0.000000 0.000000
    51 -0.000002 -1.423443 0.000002 0.234212 0.000000 0.000000
    52 0.000008 1.423420 0.000028 -0.232464 0.000000 0.000000
    53 -1.546646 -3.404194 -1.915569 3.024293 0.944156 2.514436
    54 1.546661 3.404217 1.915585 2.312706 0.836481 2.355441
    55 0.000004 -1.437820 0.000000 0.424958 0.000000 0.000000
    56 -0.000021 1.437870 0.000031 -0.075078 0.000000 0.000000
    57 -0.000002 -1.059402 0.000000 0.322075 0.000000 0.000000
    58 0.000006 1.059372 0.000008 0.225750 0.000000 0.000000
    59 -0.000004 -13.013485 -0.000004 0.010936 -0.284121 -0.076426
    60 0.161133 -10.804688 0.023087 -0.048288 -0.303483 0.015947
  time 10
    0 -3.259707 -5.375164 -14.487766 -4.712343 0.000000 -0.000070
    1 -10.090544 -0.001747 0.002050 2.707669 0.360115 -0.141278
    2 0.000000 14.313023 0.000003 -1.602357 0.000000 0.000000
    3 -0.000011 13.013483 -0.000005 1.616215 -0.562279 -1.502253
    4 10.090540 -0.001732 0.002053 0.166926 -0.326799 0.903316
    5 0.000000 -14.313034 0.000000 -1.589271 0.000000 0.000000
    6 -0.000004 -13.013485 -0.000004 -0.230692 -0.388017 -0.168954
    7 -1.330879 -2.698427 0.462449 -0.194886 -0.547260 3.056712
    8 1.330910 2.698444 -0.462436 0.194890 0.547268 -0.084879
    9 3.076172 5.996094 -2.275391 -2.653126 -0.534464 1.546490
    10 3.079633 5.992363 -2.274316 -2.653107 -0.534426 1.546463
    11 3.076172 5.996094 -2.275391 -2.653126 -0.534464 1.546490
    12 3.076172 5.996094 -2.275391 -2.653126 -0.534464 1.546490
    13 3.076172 5.996094 -2.275391 -2.653126 -0.534464 1.546490
    14 3.076178 5.998438 -2.274298 -2.653087 -0.534426 1.546456
    15 3.076172 5.996094 -2.275391 -2.653126 -0.534464 1.546490
    16 3.076172 5.996094 -2.275391 -2.653126 -0.534464 1.546490
    17 -7.628906 -3.169922 3.216797 1.890819 -0.995516 1.408868
    18 4.324081 2.744001 -0.524877 -1.090396 0.577049 -0.321829
    19 5.012512 3.752832 -0.011802 -1.090396 0.577049 -0.321829
    20 5.595486 4.607124 0.422674 -1.090396 0.577049 -0.321829
    21 6.233833 5.542564 0.898426 -1.090396 0.577049 -0.321829
    22 6.946648 6.587124 1.429667 -1.090396 0.577049 -0.321829
    23 7.537933 7.453606 1.870349 -1.090396 0.577049 -0.321829
    24 8.154472 8.357077 2.329839 -1.090396 0.577049 -0.321829
    25 8.874294 9.411907 2.866308 -1.090396 0.577049 -0.321829
    26 -4.125858 -2.321501 1.394414 2.051196 0.577049 -0.321829
    27 -4.826813 -3.348669 0.872014 2.051196 0.577049 -0.321829
    28 -5.441669 -4.249685 0.413772 2.051196 0.577049 -0.321829
    29 -0.552532 -1.343527 1.604446 -0.415180 0.312114 -0.422073
    30 0.552589 1.343534 -1.604463 -1.034712 0.013907 -0.555928
    31 0.000000 -2.021618 -0.000004 0.186809 0.000000 0.000000
    32 -0.000021 2.021633 0.000027 0.012164 0.000000 0.000000
    33 -0.000004 -1.136217 -0.000004 -0.210111 0.000000 0.000000
    34 -0.000011 1.136200 -0.000019 -0.524466 0.000000 0.000000
    35 -0.032677 -4.587727 1.352317 2.844703 1.216154 2.484990
    36 0.032719 4.587772 -1.352291 3.273388 1.372998 3.153938
    37 0.000000 -1.754536 -0.000002 0.662896 0.000000 0.000000
    38 -0.000006 1.754520 -0.000034 -0.256703 0.000000 0.000000
    39 0.000000 -1.227020 -0.000002 0.092660 0.000000 0.000000
    40 0.000002 1.227070 0.000032 -0.052721 0.000000 0.000000
    41 -0.367996 -4.208406 0.173244 2.943027 1.091688 2.536231
    42 0.368011 4.208412 -0.173239 2.569041 1.268228 2.570674
    43 0.000000 -2.372318 -0.000004 0.722081 0.000000 0.000000
    44 -0.000006 2.372318 -0.000032 0.158508 0.000000 0.000000
    45 0.000004 -1.580070 -0.000001 0.034255 0.000000 0.000000
    46 -0.000002 1.580170 0.000030 -0.382622 0.000000 0.000000
    47 -0.937645 -3.860697 -0.959317 3.044205 1.001841 2.581100
    48 0.937672 3.860714 0.959333 2.511321 1.045454 2.512807
    49 0.000000 -1.690632 0.000000 0.491549 0.000000 0.000000
    50 -0.000013 1.690666 0.000021 0.067267 0.000000 0.000000
    51 -0.000002 -1.423443 0.000002 0.234212 0.000000 0.000000
    52 0.000008 1.423420 0.000028 -0.232464 0.000000 0.000000
    53 -1.546646 -3.404194 -1.915569 3.024293 0.944156 2.514436
    54 1.546661 3.404217 1.915585 2.312706 0.836481 2.355441
    55 0.000004 -1.437820 0.000000 0.424958 0.000000 0.000000
    56 -0.000021 1.437870 0.000031 -0.075078 0.000000 0.000000
    57 -0.000002 -1.059402 0.000000 0.322075 0.000000 0.000000
    58 0.000006 1.059372 0.000008 0.225750 0.000000 0.000000
    59 -0.000004 -13.013485 -0.000004 0.010936 -0.284121 -0.076426
    60 0.161133 -10.804688 0.023087 -0.048288 -0.303483 0.015947
end
