// Created by Crowbar 0.74
version 1
nodes
  0 "weapon_bone" -1
end
skeleton
  time 0
    0 0.025243 -0.022572 0.000000 0.000000 0.000000 0.000000
end
triangles
  phy
    0 -4.015980 0.188727 3.277211 0.893820 0.355229 -0.273675 0 0
    0 -5.131169 -3.802652 0.802573 0.642912 0.752249 -0.144171 0 0
    0 -3.606583 -0.027641 3.275968 0.905504 0.399715 -0.142441 0 0
  phy
    0 -4.738361 0.852046 3.279082 0.824001 0.312967 -0.472308 0 0
    0 -5.131169 -3.802652 0.802573 0.642912 0.752249 -0.144171 0 0
    0 -4.015980 0.188727 3.277211 0.893820 0.355229 -0.273675 0 0
  phy
    0 -3.606583 -0.027641 3.275968 0.905504 0.399715 -0.142441 0 0
    0 -2.700595 2.603455 4.092898 0.994314 0.092047 -0.053545 0 0
    0 -4.015980 0.188727 3.277211 0.893820 0.355229 -0.273675 0 0
  phy
    0 -4.015980 0.188727 3.277211 0.893820 0.355229 -0.273675 0 0
    0 -2.700595 2.603455 4.092898 0.994314 0.092047 -0.053545 0 0
    0 -4.738361 0.852046 3.279082 0.824001 0.312967 -0.472308 0 0
  phy
    0 5.286825 4.791860 3.258556 0.780308 -0.551966 0.294030 0 0
    0 5.626274 4.476912 3.256019 0.784760 -0.324353 0.528154 0 0
    0 6.176375 5.042691 1.487147 0.123813 -0.727130 0.675243 0 0
  phy
    0 6.176375 5.042691 1.487147 0.123813 -0.727130 0.675243 0 0
    0 3.897857 5.375981 3.271379 0.859550 -0.506316 0.069416 0 0
    0 5.286825 4.791860 3.258556 0.780308 -0.551966 0.294030 0 0
  phy
    0 3.789417 2.638230 4.087363 0.998481 -0.009163 0.054325 0 0
    0 5.626274 4.476912 3.256019 0.784760 -0.324353 0.528154 0 0
    0 5.286825 4.791860 3.258556 0.780308 -0.551966 0.294030 0 0
  phy
    0 5.286825 4.791860 3.258556 0.780308 -0.551966 0.294030 0 0
    0 3.897857 5.375981 3.271379 0.859550 -0.506316 0.069416 0 0
    0 3.789417 2.638230 4.087363 0.998481 -0.009163 0.054325 0 0
  phy
    0 5.426340 0.467662 3.256191 0.835877 0.295227 0.462765 0 0
    0 6.197473 -3.493409 0.588297 0.191263 0.180225 0.964851 0 0
    0 6.337697 2.170795 3.250187 0.738001 0.203408 0.643412 0 0
  phy
    0 5.057243 0.188053 3.258755 0.894517 0.405066 0.189107 0 0
    0 6.197473 -3.493409 0.588297 0.191263 0.180225 0.964851 0 0
    0 5.426340 0.467662 3.256191 0.835877 0.295227 0.462765 0 0
  phy
    0 5.426340 0.467662 3.256191 0.835877 0.295227 0.462765 0 0
    0 6.337697 2.170795 3.250187 0.738001 0.203408 0.643412 0 0
    0 3.789417 2.638230 4.087363 0.998481 -0.009163 0.054325 0 0
  phy
    0 3.789417 2.638230 4.087363 0.998481 -0.009163 0.054325 0 0
    0 5.057243 0.188053 3.258755 0.894517 0.405066 0.189107 0 0
    0 5.426340 0.467662 3.256191 0.835877 0.295227 0.462765 0 0
  phy
    0 5.931191 -3.916353 0.348791 0.346193 0.937490 0.035530 0 0
    0 -3.666824 -3.916221 0.348906 0.010758 0.999904 -0.008731 0 0
    0 5.931170 -3.925368 -1.631464 -0.871702 0.450606 0.192587 0 0
  phy
    0 5.931191 -3.916353 0.348791 0.346193 0.937490 0.035530 0 0
    0 5.931170 -3.925368 -1.631464 -0.871702 0.450606 0.192587 0 0
    0 6.197473 -3.493409 0.588297 0.191263 0.180225 0.964851 0 0
  phy
    0 -3.666824 -3.916221 0.348906 0.010758 0.999904 -0.008731 0 0
    0 5.931191 -3.916353 0.348791 0.346193 0.937490 0.035530 0 0
    0 -5.131169 -3.802652 0.802573 0.642912 0.752249 -0.144171 0 0
  phy
    0 5.931191 -3.916353 0.348791 0.346193 0.937490 0.035530 0 0
    0 6.197473 -3.493409 0.588297 0.191263 0.180225 0.964851 0 0
    0 3.326892 -2.645457 2.205583 0.732607 0.675370 0.084629 0 0
  phy
    0 5.931191 -3.916353 0.348791 0.346193 0.937490 0.035530 0 0
    0 3.326892 -2.645457 2.205583 0.732607 0.675370 0.084629 0 0
    0 -5.131169 -3.802652 0.802573 0.642912 0.752249 -0.144171 0 0
  phy
    0 3.789417 2.638230 4.087363 0.998481 -0.009163 0.054325 0 0
    0 -2.700595 2.603455 4.092898 0.994314 0.092047 -0.053545 0 0
    0 1.873052 -1.595613 2.878946 0.950408 0.310153 0.023013 0 0
  phy
    0 1.873052 -1.595613 2.878946 0.950408 0.310153 0.023013 0 0
    0 -2.700595 2.603455 4.092898 0.994314 0.092047 -0.053545 0 0
    0 -0.984941 -1.595652 2.878933 0.925421 0.378202 -0.023635 0 0
  phy
    0 1.873052 -1.595613 2.878946 0.950408 0.310153 0.023013 0 0
    0 5.057243 0.188053 3.258755 0.894517 0.405066 0.189107 0 0
    0 3.789417 2.638230 4.087363 0.998481 -0.009163 0.054325 0 0
  phy
    0 3.326892 -2.645457 2.205583 0.732607 0.675370 0.084629 0 0
    0 5.057243 0.188053 3.258755 0.894517 0.405066 0.189107 0 0
    0 1.873052 -1.595613 2.878946 0.950408 0.310153 0.023013 0 0
  phy
    0 1.873052 -1.595613 2.878946 0.950408 0.310153 0.023013 0 0
    0 -0.984941 -1.595652 2.878933 0.925421 0.378202 -0.023635 0 0
    0 3.326892 -2.645457 2.205583 0.732607 0.675370 0.084629 0 0
  phy
    0 -3.606583 -0.027641 3.275968 0.905504 0.399715 -0.142441 0 0
    0 -5.131169 -3.802652 0.802573 0.642912 0.752249 -0.144171 0 0
    0 -2.159890 -2.609244 2.228834 0.807855 0.581686 -0.094926 0 0
  phy
    0 -2.159890 -2.609244 2.228834 0.807855 0.581686 -0.094926 0 0
    0 -0.984941 -1.595652 2.878933 0.925421 0.378202 -0.023635 0 0
    0 -3.606583 -0.027641 3.275968 0.905504 0.399715 -0.142441 0 0
  phy
    0 -0.984941 -1.595652 2.878933 0.925421 0.378202 -0.023635 0 0
    0 -2.700595 2.603455 4.092898 0.994314 0.092047 -0.053545 0 0
    0 -3.606583 -0.027641 3.275968 0.905504 0.399715 -0.142441 0 0
  phy
    0 -6.579993 4.104724 -0.191462 0.211382 -0.085222 -0.973681 0 0
    0 -6.208241 4.584784 -0.958107 -0.435500 -0.247889 -0.865385 0 0
    0 -6.450113 -2.782800 -0.833229 -0.562512 0.063596 -0.824339 0 0
  phy
    0 -6.450113 -2.782800 -0.833229 -0.562512 0.063596 -0.824339 0 0
    0 -6.208241 4.584784 -0.958107 -0.435500 -0.247889 -0.865385 0 0
    0 -5.376149 4.941255 -2.107535 -0.905475 -0.395950 -0.152771 0 0
  phy
    0 -6.208241 4.584784 -0.958107 -0.435500 -0.247889 -0.865385 0 0
    0 -6.579993 4.104724 -0.191462 0.211382 -0.085222 -0.973681 0 0
    0 -5.376104 5.042852 1.487285 0.149949 -0.895082 -0.419932 0 0
  phy
    0 -5.376104 5.042852 1.487285 0.149949 -0.895082 -0.419932 0 0
    0 -5.376149 4.941255 -2.107535 -0.905475 -0.395950 -0.152771 0 0
    0 -6.208241 4.584784 -0.958107 -0.435500 -0.247889 -0.865385 0 0
  phy
    0 6.176375 5.042691 1.487147 0.123813 -0.727130 0.675243 0 0
    0 6.176337 5.042821 -1.826548 -0.161746 -0.974979 0.152491 0 0
    0 3.430120 5.534440 2.772105 0.063676 -0.994143 0.087321 0 0
  phy
    0 3.430120 5.534440 2.772105 0.063676 -0.994143 0.087321 0 0
    0 6.176337 5.042821 -1.826548 -0.161746 -0.974979 0.152491 0 0
    0 3.393332 5.499012 1.365010 -0.084351 -0.996369 0.011559 0 0
  phy
    0 -2.345976 5.530115 2.763036 0.029712 -0.998654 -0.042522 0 0
    0 -2.863481 5.368423 3.268599 0.883471 -0.465305 -0.054503 0 0
    0 3.430120 5.534440 2.772105 0.063676 -0.994143 0.087321 0 0
  phy
    0 3.430120 5.534440 2.772105 0.063676 -0.994143 0.087321 0 0
    0 -2.863481 5.368423 3.268599 0.883471 -0.465305 -0.054503 0 0
    0 3.897857 5.375981 3.271379 0.859550 -0.506316 0.069416 0 0
  phy
    0 3.430120 5.534440 2.772105 0.063676 -0.994143 0.087321 0 0
    0 3.897857 5.375981 3.271379 0.859550 -0.506316 0.069416 0 0
    0 6.176375 5.042691 1.487147 0.123813 -0.727130 0.675243 0 0
  phy
    0 3.430120 5.534440 2.772105 0.063676 -0.994143 0.087321 0 0
    0 3.393332 5.499012 1.365010 -0.084351 -0.996369 0.011559 0 0
    0 -2.345976 5.530115 2.763036 0.029712 -0.998654 -0.042522 0 0
  phy
    0 -4.860428 4.113137 3.275802 0.807746 -0.319265 -0.495596 0 0
    0 -5.376104 5.042852 1.487285 0.149949 -0.895082 -0.419932 0 0
    0 -5.104054 3.652156 3.277216 0.594292 -0.308569 -0.742700 0 0
  phy
    0 -5.376104 5.042852 1.487285 0.149949 -0.895082 -0.419932 0 0
    0 -4.860428 4.113137 3.275802 0.807746 -0.319265 -0.495596 0 0
    0 -4.576256 4.478744 3.274351 0.800893 -0.508264 -0.316604 0 0
  phy
    0 -5.104054 3.652156 3.277216 0.594292 -0.308569 -0.742700 0 0
    0 -2.700595 2.603455 4.092898 0.994314 0.092047 -0.053545 0 0
    0 -4.860428 4.113137 3.275802 0.807746 -0.319265 -0.495596 0 0
  phy
    0 -4.860428 4.113137 3.275802 0.807746 -0.319265 -0.495596 0 0
    0 -2.700595 2.603455 4.092898 0.994314 0.092047 -0.053545 0 0
    0 -4.576256 4.478744 3.274351 0.800893 -0.508264 -0.316604 0 0
  phy
    0 -5.246039 3.211405 3.278234 0.692621 -0.158146 -0.703751 0 0
    0 -5.104054 3.652156 3.277216 0.594292 -0.308569 -0.742700 0 0
    0 -6.579993 4.104724 -0.191462 0.211382 -0.085222 -0.973681 0 0
  phy
    0 -5.246039 3.211405 3.278234 0.692621 -0.158146 -0.703751 0 0
    0 -6.579993 4.104724 -0.191462 0.211382 -0.085222 -0.973681 0 0
    0 -5.317309 2.694896 3.279083 0.446540 0.014219 -0.894651 0 0
  phy
    0 -5.246039 3.211405 3.278234 0.692621 -0.158146 -0.703751 0 0
    0 -2.700595 2.603455 4.092898 0.994314 0.092047 -0.053545 0 0
    0 -5.104054 3.652156 3.277216 0.594292 -0.308569 -0.742700 0 0
  phy
    0 -5.317309 2.694896 3.279083 0.446540 0.014219 -0.894651 0 0
    0 -2.700595 2.603455 4.092898 0.994314 0.092047 -0.053545 0 0
    0 -5.246039 3.211405 3.278234 0.692621 -0.158146 -0.703751 0 0
  phy
    0 6.176375 5.042691 1.487147 0.123813 -0.727130 0.675243 0 0
    0 6.501637 2.684653 2.749161 -0.026748 -0.006088 0.999624 0 0
    0 6.176337 5.042821 -1.826548 -0.161746 -0.974979 0.152491 0 0
  phy
    0 6.176375 5.042691 1.487147 0.123813 -0.727130 0.675243 0 0
    0 6.306071 3.151015 3.250722 0.747438 -0.212234 0.629519 0 0
    0 6.501637 2.684653 2.749161 -0.026748 -0.006088 0.999624 0 0
  phy
    0 5.626274 4.476912 3.256019 0.784760 -0.324353 0.528154 0 0
    0 6.306071 3.151015 3.250722 0.747438 -0.212234 0.629519 0 0
    0 6.176375 5.042691 1.487147 0.123813 -0.727130 0.675243 0 0
  phy
    0 3.897857 5.375981 3.271379 0.859550 -0.506316 0.069416 0 0
    0 -2.863481 5.368423 3.268599 0.883471 -0.465305 -0.054503 0 0
    0 3.789417 2.638230 4.087363 0.998481 -0.009163 0.054325 0 0
  phy
    0 -2.863481 5.368423 3.268599 0.883471 -0.465305 -0.054503 0 0
    0 -2.700595 2.603455 4.092898 0.994314 0.092047 -0.053545 0 0
    0 3.789417 2.638230 4.087363 0.998481 -0.009163 0.054325 0 0
  phy
    0 3.789417 2.638230 4.087363 0.998481 -0.009163 0.054325 0 0
    0 6.306071 3.151015 3.250722 0.747438 -0.212234 0.629519 0 0
    0 5.626274 4.476912 3.256019 0.784760 -0.324353 0.528154 0 0
  phy
    0 6.337697 2.170795 3.250187 0.738001 0.203408 0.643412 0 0
    0 6.306071 3.151015 3.250722 0.747438 -0.212234 0.629519 0 0
    0 3.789417 2.638230 4.087363 0.998481 -0.009163 0.054325 0 0
  phy
    0 6.197473 -3.493409 0.588297 0.191263 0.180225 0.964851 0 0
    0 6.501637 2.684653 2.749161 -0.026748 -0.006088 0.999624 0 0
    0 6.337697 2.170795 3.250187 0.738001 0.203408 0.643412 0 0
  phy
    0 6.501637 2.684653 2.749161 -0.026748 -0.006088 0.999624 0 0
    0 6.306071 3.151015 3.250722 0.747438 -0.212234 0.629519 0 0
    0 6.337697 2.170795 3.250187 0.738001 0.203408 0.643412 0 0
  phy
    0 3.326892 -2.645457 2.205583 0.732607 0.675370 0.084629 0 0
    0 -2.159890 -2.609244 2.228834 0.807855 0.581686 -0.094926 0 0
    0 -5.131169 -3.802652 0.802573 0.642912 0.752249 -0.144171 0 0
  phy
    0 3.326892 -2.645457 2.205583 0.732607 0.675370 0.084629 0 0
    0 -0.984941 -1.595652 2.878933 0.925421 0.378202 -0.023635 0 0
    0 -2.159890 -2.609244 2.228834 0.807855 0.581686 -0.094926 0 0
  phy
    0 3.326892 -2.645457 2.205583 0.732607 0.675370 0.084629 0 0
    0 6.197473 -3.493409 0.588297 0.191263 0.180225 0.964851 0 0
    0 5.057243 0.188053 3.258755 0.894517 0.405066 0.189107 0 0
  phy
    0 -4.738361 0.852046 3.279082 0.824001 0.312967 -0.472308 0 0
    0 -2.700595 2.603455 4.092898 0.994314 0.092047 -0.053545 0 0
    0 -5.190305 1.722431 3.279732 0.742274 0.194786 -0.641162 0 0
  phy
    0 -5.190305 1.722431 3.279732 0.742274 0.194786 -0.641162 0 0
    0 -6.075815 -3.494476 0.144470 0.525317 0.479477 -0.702954 0 0
    0 -4.738361 0.852046 3.279082 0.824001 0.312967 -0.472308 0 0
  phy
    0 -4.738361 0.852046 3.279082 0.824001 0.312967 -0.472308 0 0
    0 -6.075815 -3.494476 0.144470 0.525317 0.479477 -0.702954 0 0
    0 -5.131169 -3.802652 0.802573 0.642912 0.752249 -0.144171 0 0
  phy
    0 -2.345976 5.530115 2.763036 0.029712 -0.998654 -0.042522 0 0
    0 -2.348681 5.500250 1.576049 -0.114825 -0.992914 -0.030618 0 0
    0 -5.376104 5.042852 1.487285 0.149949 -0.895082 -0.419932 0 0
  phy
    0 -2.348681 5.500250 1.576049 -0.114825 -0.992914 -0.030618 0 0
    0 -5.376149 4.941255 -2.107535 -0.905475 -0.395950 -0.152771 0 0
    0 -5.376104 5.042852 1.487285 0.149949 -0.895082 -0.419932 0 0
  phy
    0 -5.376104 5.042852 1.487285 0.149949 -0.895082 -0.419932 0 0
    0 -2.863481 5.368423 3.268599 0.883471 -0.465305 -0.054503 0 0
    0 -2.345976 5.530115 2.763036 0.029712 -0.998654 -0.042522 0 0
  phy
    0 -5.104054 3.652156 3.277216 0.594292 -0.308569 -0.742700 0 0
    0 -5.376104 5.042852 1.487285 0.149949 -0.895082 -0.419932 0 0
    0 -6.579993 4.104724 -0.191462 0.211382 -0.085222 -0.973681 0 0
  phy
    0 -4.576256 4.478744 3.274351 0.800893 -0.508264 -0.316604 0 0
    0 -2.863481 5.368423 3.268599 0.883471 -0.465305 -0.054503 0 0
    0 -5.376104 5.042852 1.487285 0.149949 -0.895082 -0.419932 0 0
  phy
    0 3.393332 5.499012 1.365010 -0.084351 -0.996369 0.011559 0 0
    0 -2.348681 5.500250 1.576049 -0.114825 -0.992914 -0.030618 0 0
    0 -2.345976 5.530115 2.763036 0.029712 -0.998654 -0.042522 0 0
  phy
    0 3.393332 5.499012 1.365010 -0.084351 -0.996369 0.011559 0 0
    0 6.176337 5.042821 -1.826548 -0.161746 -0.974979 0.152491 0 0
    0 -2.348681 5.500250 1.576049 -0.114825 -0.992914 -0.030618 0 0
  phy
    0 -5.190305 1.722431 3.279732 0.742274 0.194786 -0.641162 0 0
    0 -2.700595 2.603455 4.092898 0.994314 0.092047 -0.053545 0 0
    0 -5.317309 2.694896 3.279083 0.446540 0.014219 -0.894651 0 0
  phy
    0 -6.472415 -2.785896 -0.099354 0.335498 0.054386 -0.940470 0 0
    0 -5.190305 1.722431 3.279732 0.742274 0.194786 -0.641162 0 0
    0 -5.317309 2.694896 3.279083 0.446540 0.014219 -0.894651 0 0
  phy
    0 -5.190305 1.722431 3.279732 0.742274 0.194786 -0.641162 0 0
    0 -6.472415 -2.785896 -0.099354 0.335498 0.054386 -0.940470 0 0
    0 -6.075815 -3.494476 0.144470 0.525317 0.479477 -0.702954 0 0
  phy
    0 -3.666824 -3.916221 0.348906 0.010758 0.999904 -0.008731 0 0
    0 -5.131169 -3.802652 0.802573 0.642912 0.752249 -0.144171 0 0
    0 -5.131200 -3.843100 -1.825263 -0.978633 0.198317 -0.054299 0 0
  phy
    0 -3.666824 -3.916221 0.348906 0.010758 0.999904 -0.008731 0 0
    0 -5.131200 -3.843100 -1.825263 -0.978633 0.198317 -0.054299 0 0
    0 5.931170 -3.925368 -1.631464 -0.871702 0.450606 0.192587 0 0
  phy
    0 -6.472415 -2.785896 -0.099354 0.335498 0.054386 -0.940470 0 0
    0 -6.579993 4.104724 -0.191462 0.211382 -0.085222 -0.973681 0 0
    0 -6.450113 -2.782800 -0.833229 -0.562512 0.063596 -0.824339 0 0
  phy
    0 -6.579993 4.104724 -0.191462 0.211382 -0.085222 -0.973681 0 0
    0 -6.472415 -2.785896 -0.099354 0.335498 0.054386 -0.940470 0 0
    0 -5.317309 2.694896 3.279083 0.446540 0.014219 -0.894651 0 0
  phy
    0 -6.472415 -2.785896 -0.099354 0.335498 0.054386 -0.940470 0 0
    0 -6.450113 -2.782800 -0.833229 -0.562512 0.063596 -0.824339 0 0
    0 -6.075815 -3.494476 0.144470 0.525317 0.479477 -0.702954 0 0
  phy
    0 6.176337 5.042821 -1.826548 -0.161746 -0.974979 0.152491 0 0
    0 -5.376149 4.941255 -2.107535 -0.905475 -0.395950 -0.152771 0 0
    0 -2.348681 5.500250 1.576049 -0.114825 -0.992914 -0.030618 0 0
  phy
    0 -4.576256 4.478744 3.274351 0.800893 -0.508264 -0.316604 0 0
    0 -2.700595 2.603455 4.092898 0.994314 0.092047 -0.053545 0 0
    0 -2.863481 5.368423 3.268599 0.883471 -0.465305 -0.054503 0 0
  phy
    0 6.197473 -3.493409 0.588297 0.191263 0.180225 0.964851 0 0
    0 6.176326 4.694107 -2.235738 -0.962530 0.031288 0.269365 0 0
    0 6.501637 2.684653 2.749161 -0.026748 -0.006088 0.999624 0 0
  phy
    0 5.931170 -3.925368 -1.631464 -0.871702 0.450606 0.192587 0 0
    0 6.176326 4.694107 -2.235738 -0.962530 0.031288 0.269365 0 0
    0 6.197473 -3.493409 0.588297 0.191263 0.180225 0.964851 0 0
  phy
    0 -5.131200 -3.843100 -1.825263 -0.978633 0.198317 -0.054299 0 0
    0 -5.131169 -3.802652 0.802573 0.642912 0.752249 -0.144171 0 0
    0 -6.075815 -3.494476 0.144470 0.525317 0.479477 -0.702954 0 0
  phy
    0 -6.450113 -2.782800 -0.833229 -0.562512 0.063596 -0.824339 0 0
    0 -5.131200 -3.843100 -1.825263 -0.978633 0.198317 -0.054299 0 0
    0 -6.075815 -3.494476 0.144470 0.525317 0.479477 -0.702954 0 0
  phy
    0 -5.131200 -3.843100 -1.825263 -0.978633 0.198317 -0.054299 0 0
    0 -6.450113 -2.782800 -0.833229 -0.562512 0.063596 -0.824339 0 0
    0 -5.376149 4.941255 -2.107535 -0.905475 -0.395950 -0.152771 0 0
  phy
    0 6.501637 2.684653 2.749161 -0.026748 -0.006088 0.999624 0 0
    0 6.176326 4.694107 -2.235738 -0.962530 0.031288 0.269365 0 0
    0 6.176337 5.042821 -1.826548 -0.161746 -0.974979 0.152491 0 0
  phy
    0 6.176337 5.042821 -1.826548 -0.161746 -0.974979 0.152491 0 0
    0 6.176326 4.694107 -2.235738 -0.962530 0.031288 0.269365 0 0
    0 -5.376149 4.941255 -2.107535 -0.905475 -0.395950 -0.152771 0 0
  phy
    0 -5.131200 -3.843100 -1.825263 -0.978633 0.198317 -0.054299 0 0
    0 -5.376149 4.941255 -2.107535 -0.905475 -0.395950 -0.152771 0 0
    0 6.176326 4.694107 -2.235738 -0.962530 0.031288 0.269365 0 0
  phy
    0 5.931170 -3.925368 -1.631464 -0.871702 0.450606 0.192587 0 0
    0 -5.131200 -3.843100 -1.825263 -0.978633 0.198317 -0.054299 0 0
    0 6.176326 4.694107 -2.235738 -0.962530 0.031288 0.269365 0 0
end
